<svg width="598" height="85" viewBox="0 0 598 85" fill="none" xmlns="http://www.w3.org/2000/svg">
<path d="M13.2457 3H3.34129C2.67225 3 2.19191 3.64427 2.38291 4.28547L12.2941 37.5588C12.4171 37.9716 12.262 38.4166 11.9092 38.6636L6.40436 42.5169C5.77698 42.9561 5.85587 43.9086 6.54696 44.2386L15.8218 48.6669C16.0857 48.7929 16.2812 49.0281 16.3569 49.3105L25.0514 81.7588C25.1685 82.196 25.5647 82.5 26.0173 82.5H39.4467C39.9159 82.5 40.322 82.1738 40.4232 81.7156L52.0514 29.0467C52.2808 28.0074 53.7593 27.9983 54.0016 29.0347L66.3194 81.7276C66.4252 82.18 66.8286 82.5 67.2932 82.5H80.7648C81.2022 82.5 81.5888 82.2158 81.7193 81.7983L91.8952 49.238C91.97 48.9984 92.1323 48.7958 92.3496 48.6703L100.176 44.1516C100.746 43.8228 100.848 43.0434 100.383 42.5785L96.463 38.6582C96.2104 38.4056 96.1118 38.0374 96.2042 37.6923L105.163 4.25882C105.333 3.6237 104.854 3 104.197 3H92.7789C92.3263 3 91.9301 3.304 91.813 3.74118L76.0967 62.3951C75.8319 63.3834 74.4297 63.3834 74.1649 62.3951L58.4486 3.74118C58.3315 3.304 57.9353 3 57.4827 3H49.6481C49.1955 3 48.7993 3.304 48.6822 3.74118L32.935 62.5105C32.6725 63.4904 31.2862 63.5018 31.0076 62.5264L14.2072 3.72528C14.0846 3.29598 13.6922 3 13.2457 3Z" stroke="#E04A5E" stroke-width="4.5"/>
<path d="M132.203 49.5654L118.839 81.1099C118.56 81.7693 119.044 82.5 119.76 82.5H130.313C130.727 82.5 131.098 82.2452 131.247 81.859L138.253 63.641C138.402 63.2548 138.773 63 139.187 63H170.063C170.477 63 170.848 63.2548 170.997 63.641L178.003 81.859C178.152 82.2452 178.523 82.5 178.937 82.5H188.804C189.503 82.5 189.986 81.801 189.739 81.1469L160.494 3.64694C160.347 3.25765 159.975 3 159.559 3H148.966C148.538 3 148.157 3.27249 148.019 3.67774L136.382 37.8614C136.298 38.1104 136.118 38.316 135.883 38.4336L127.153 42.7986C126.499 43.1256 126.405 44.0209 126.978 44.4759L131.905 48.3924C132.257 48.672 132.379 49.1517 132.203 49.5654Z" stroke="#E04A5E" stroke-width="4.5"/>
<path d="M216.711 3H205.619C204.82 3 204.343 3.89015 204.786 4.5547L233.582 47.7481C233.692 47.9123 233.75 48.1054 233.75 48.3028V81.5C233.75 82.0523 234.198 82.5 234.75 82.5H244.75C245.302 82.5 245.75 82.0523 245.75 81.5V48.3028C245.75 48.1054 245.808 47.9123 245.918 47.7481L274.714 4.5547C275.157 3.89015 274.68 3 273.881 3H262.769C262.443 3 262.139 3.15817 261.951 3.42405L239.845 34.8006C239.439 35.3768 238.58 35.3634 238.193 34.775L217.546 3.44969C217.361 3.16896 217.048 3 216.711 3Z" stroke="#E04A5E" stroke-width="4.5"/>
<path d="M299.75 37.75V4C299.75 3.44772 300.198 3 300.75 3H345.25C345.802 3 346.25 3.44772 346.25 4V14C346.25 14.5523 345.802 15 345.25 15H311.25C310.698 15 310.25 15.4477 310.25 16V37.25C310.25 37.8023 310.698 38.25 311.25 38.25H337.75C338.302 38.25 338.75 38.6977 338.75 39.25V47.75C338.75 48.3023 338.302 48.75 337.75 48.75H311.25C310.698 48.75 310.25 49.1977 310.25 49.75V81.5C310.25 82.0523 309.802 82.5 309.25 82.5H300.75C300.198 82.5 299.75 82.0523 299.75 81.5V49.1642C299.75 48.899 299.645 48.6446 299.457 48.4571L294.565 43.5653C294.135 43.135 294.186 42.4233 294.672 42.0582L299.35 38.55C299.602 38.3611 299.75 38.0648 299.75 37.75Z" stroke="#E04A5E" stroke-width="4.5"/>
<path d="M381.203 49.5654L367.839 81.1099C367.56 81.7693 368.044 82.5 368.76 82.5H379.313C379.727 82.5 380.098 82.2452 380.247 81.859L387.253 63.641C387.402 63.2548 387.773 63 388.187 63H419.063C419.477 63 419.848 63.2548 419.997 63.641L427.003 81.859C427.152 82.2452 427.523 82.5 427.937 82.5H437.804C438.503 82.5 438.986 81.801 438.739 81.1469L409.494 3.64694C409.347 3.25765 408.975 3 408.559 3H397.966C397.538 3 397.157 3.27249 397.019 3.67774L385.382 37.8614C385.298 38.1104 385.118 38.316 384.883 38.4336L376.153 42.7986C375.499 43.1256 375.405 44.0209 375.978 44.4759L380.905 48.3924C381.257 48.672 381.379 49.1517 381.203 49.5654Z" stroke="#E04A5E" stroke-width="4.5"/>
<path d="M464.75 37.7609V4C464.75 3.44772 465.198 3 465.75 3H501.805C502.088 3 502.358 3.12032 502.548 3.33104L515.493 17.7148C515.659 17.8984 515.75 18.1367 515.75 18.3837V34.8358C515.75 35.101 515.645 35.3554 515.457 35.5429L502.764 48.2356C502.458 48.5422 502.384 49.0116 502.581 49.3978L518.756 81.0449C519.096 81.7103 518.613 82.5 517.866 82.5H508.112C507.736 82.5 507.392 82.2896 507.221 81.9551L490.529 49.2949C490.358 48.9605 490.014 48.75 489.638 48.75H476.25C475.698 48.75 475.25 49.1977 475.25 49.75V81.5C475.25 82.0523 474.802 82.5 474.25 82.5H465.75C465.198 82.5 464.75 82.0523 464.75 81.5V49.2391C464.75 48.9305 464.608 48.6392 464.364 48.4497L459.015 44.2894C458.5 43.889 458.5 43.111 459.015 42.7106L464.364 38.5503C464.608 38.3608 464.75 38.0695 464.75 37.7609Z" stroke="#E04A5E" stroke-width="4.5"/>
<path d="M547.25 37.75V4C547.25 3.44772 547.698 3 548.25 3H594.25C594.802 3 595.25 3.44772 595.25 4V14C595.25 14.5523 594.802 15 594.25 15H558.75C558.198 15 557.75 15.4477 557.75 16V36.5C557.75 37.0523 558.198 37.5 558.75 37.5H585.25C585.802 37.5 586.25 37.9477 586.25 38.5V47.75C586.25 48.3023 585.802 48.75 585.25 48.75H559.5C558.948 48.75 558.5 49.1977 558.5 49.75V71C558.5 71.5523 558.948 72 559.5 72H594.25C594.802 72 595.25 72.4477 595.25 73V81.5C595.25 82.0523 594.802 82.5 594.25 82.5H548.25C547.698 82.5 547.25 82.0523 547.25 81.5V49.1642C547.25 48.899 547.145 48.6446 546.957 48.4571L542.065 43.5653C541.635 43.135 541.686 42.4233 542.172 42.0582L546.85 38.55C547.102 38.3611 547.25 38.0648 547.25 37.75Z" stroke="#E04A5E" stroke-width="4.5"/>
</svg>
