<svg width="198" height="49" viewBox="0 0 198 49" fill="none" xmlns="http://www.w3.org/2000/svg">
<path d="M51.3112 18.1875H48.8351C48.6679 18.1875 48.5478 18.3486 48.5955 18.5089L51.0733 26.8272C51.1041 26.9304 51.0653 27.0417 50.9771 27.1034L49.6009 28.0667C49.444 28.1765 49.4638 28.4147 49.6365 28.4971L51.9553 29.6042C52.0212 29.6357 52.0701 29.6945 52.089 29.7651L54.2627 37.8772C54.2919 37.9865 54.391 38.0625 54.5041 38.0625H57.8615C57.9788 38.0625 58.0803 37.9809 58.1056 37.8664L61.0126 24.6992C61.07 24.4394 61.4396 24.4371 61.5002 24.6962L64.5797 37.8694C64.6061 37.9825 64.7069 38.0625 64.8231 38.0625H68.191C68.3004 38.0625 68.397 37.9914 68.4296 37.8871L70.9736 29.747C70.9923 29.6871 71.0329 29.6364 71.0872 29.6051L73.0438 28.4754C73.1862 28.3932 73.2119 28.1984 73.0956 28.0821L72.1156 27.1021C72.0524 27.0389 72.0277 26.9469 72.0509 26.8606L74.2905 18.5022C74.333 18.3434 74.2134 18.1875 74.049 18.1875H71.1945C71.0814 18.1875 70.9823 18.2635 70.953 18.3728L67.024 33.0363C66.9578 33.2833 66.6072 33.2833 66.541 33.0363L62.6119 18.3728C62.5827 18.2635 62.4836 18.1875 62.3705 18.1875H60.4118C60.2987 18.1875 60.1996 18.2635 60.1704 18.3728L56.2336 33.0651C56.1679 33.3101 55.8214 33.3129 55.7517 33.0691L51.5516 18.3688C51.5209 18.2615 51.4228 18.1875 51.3112 18.1875Z" fill="#E04A5E" fill-opacity="0.5"/>
<path d="M102.178 18.1875H99.4044C99.2048 18.1875 99.0857 18.41 99.1964 18.5762L106.395 29.3745C106.423 29.4156 106.437 29.4638 106.437 29.5132V37.8125C106.437 37.9506 106.549 38.0625 106.687 38.0625H109.187C109.325 38.0625 109.437 37.9506 109.437 37.8125V29.5132C109.437 29.4638 109.452 29.4156 109.479 29.3745L116.678 18.5762C116.789 18.41 116.67 18.1875 116.47 18.1875H113.692C113.611 18.1875 113.534 18.227 113.488 18.2935L107.961 26.1377C107.86 26.2817 107.645 26.2784 107.548 26.1312L102.386 18.2999C102.34 18.2297 102.262 18.1875 102.178 18.1875Z" fill="#E04A5E" fill-opacity="0.5"/>
<path d="M122.937 26.875V18.4375C122.937 18.2994 123.049 18.1875 123.187 18.1875H134.312C134.45 18.1875 134.562 18.2994 134.562 18.4375V20.9375C134.562 21.0756 134.45 21.1875 134.312 21.1875H125.812C125.674 21.1875 125.562 21.2994 125.562 21.4375V26.75C125.562 26.8881 125.674 27 125.812 27H132.437C132.575 27 132.687 27.1119 132.687 27.25V29.375C132.687 29.5131 132.575 29.625 132.437 29.625H125.812C125.674 29.625 125.562 29.7369 125.562 29.875V37.8125C125.562 37.9506 125.45 38.0625 125.312 38.0625H123.187C123.049 38.0625 122.937 37.9506 122.937 37.8125V29.7286C122.937 29.6622 122.911 29.5987 122.864 29.5518L121.641 28.3288C121.534 28.2212 121.546 28.0433 121.668 27.952L122.837 27.075C122.9 27.0278 122.937 26.9537 122.937 26.875Z" fill="#E04A5E" fill-opacity="0.5"/>
<path d="M184.812 26.875V18.4375C184.812 18.2994 184.924 18.1875 185.062 18.1875H196.562C196.7 18.1875 196.812 18.2994 196.812 18.4375V20.9375C196.812 21.0756 196.7 21.1875 196.562 21.1875H187.687C187.549 21.1875 187.437 21.2994 187.437 21.4375V26.5625C187.437 26.7006 187.549 26.8125 187.687 26.8125H194.312C194.45 26.8125 194.562 26.9244 194.562 27.0625V29.375C194.562 29.5131 194.45 29.625 194.312 29.625H187.875C187.737 29.625 187.625 29.7369 187.625 29.875V35.1875C187.625 35.3256 187.737 35.4375 187.875 35.4375H196.562C196.7 35.4375 196.812 35.5494 196.812 35.6875V37.8125C196.812 37.9506 196.7 38.0625 196.562 38.0625H185.062C184.924 38.0625 184.812 37.9506 184.812 37.8125V29.7286C184.812 29.6622 184.786 29.5987 184.739 29.5518L183.516 28.3288C183.409 28.2212 183.421 28.0433 183.543 27.952L184.712 27.075C184.775 27.0278 184.812 26.9537 184.812 26.875Z" fill="#E04A5E" fill-opacity="0.5"/>
<path fill-rule="evenodd" clip-rule="evenodd" d="M77.7095 37.715L81.0507 29.8288C81.0945 29.7254 81.064 29.6055 80.976 29.5356L79.7442 28.5565C79.6011 28.4427 79.6245 28.2189 79.788 28.1372L81.9705 27.0459C82.0293 27.0165 82.0742 26.9651 82.0954 26.9029L85.0046 18.3569C85.0391 18.2556 85.1343 18.1875 85.2413 18.1875H87.8894C87.9935 18.1875 88.0866 18.2519 88.1233 18.3492L95.4347 37.7242C95.4964 37.8878 95.3755 38.0625 95.2008 38.0625H92.734C92.6306 38.0625 92.5378 37.9988 92.5007 37.9022L90.7489 33.3478C90.7118 33.2512 90.619 33.1875 90.5156 33.1875H82.7965C82.6931 33.1875 82.6003 33.2512 82.5632 33.3478L80.8114 37.9022C80.7743 37.9988 80.6815 38.0625 80.5781 38.0625H77.9397C77.7607 38.0625 77.6397 37.8798 77.7095 37.715ZM86.8019 23.106C86.7176 22.8929 86.415 22.8959 86.3351 23.1107L83.6878 30.2253C83.627 30.3887 83.7478 30.5625 83.9221 30.5625H89.3821C89.5586 30.5625 89.6795 30.3847 89.6146 30.2206L86.8019 23.106Z" fill="#E04A5E" fill-opacity="0.5"/>
<path fill-rule="evenodd" clip-rule="evenodd" d="M139.96 37.715L143.301 29.8288C143.344 29.7254 143.314 29.6055 143.226 29.5356L141.994 28.5565C141.851 28.4427 141.874 28.2189 142.038 28.1372L144.221 27.0459C144.279 27.0165 144.324 26.9651 144.345 26.9029L147.255 18.3569C147.289 18.2556 147.384 18.1875 147.491 18.1875H150.139C150.243 18.1875 150.337 18.2519 150.373 18.3492L157.685 37.7242C157.746 37.8878 157.626 38.0625 157.451 38.0625H154.984C154.881 38.0625 154.788 37.9988 154.751 37.9022L152.999 33.3478C152.962 33.2512 152.869 33.1875 152.766 33.1875H145.047C144.943 33.1875 144.85 33.2512 144.813 33.3478L143.061 37.9022C143.024 37.9988 142.932 38.0625 142.828 38.0625H140.19C140.011 38.0625 139.89 37.8798 139.96 37.715ZM149.052 23.106C148.968 22.8929 148.665 22.8959 148.585 23.1107L145.938 30.2253C145.877 30.3887 145.998 30.5625 146.172 30.5625H151.632C151.809 30.5625 151.929 30.3847 151.865 30.2206L149.052 23.106Z" fill="#E04A5E" fill-opacity="0.5"/>
<path fill-rule="evenodd" clip-rule="evenodd" d="M164.187 18.4375V26.8777C164.187 26.9549 164.152 27.0277 164.091 27.0751L162.754 28.1152C162.625 28.2153 162.625 28.4097 162.754 28.5098L164.091 29.5499C164.152 29.5973 164.187 29.6701 164.187 29.7473V37.8125C164.187 37.9506 164.299 38.0625 164.437 38.0625H166.562C166.7 38.0625 166.812 37.9506 166.812 37.8125V29.875C166.812 29.7369 166.924 29.625 167.062 29.625H170.409C170.503 29.625 170.589 29.6776 170.632 29.7612L174.805 37.9263C174.848 38.0099 174.934 38.0625 175.028 38.0625H177.466C177.653 38.0625 177.774 37.8651 177.689 37.6987L173.645 29.7869C173.596 29.6904 173.614 29.5731 173.691 29.4964L176.864 26.3232C176.911 26.2763 176.937 26.2128 176.937 26.1464V22.0334C176.937 21.9717 176.914 21.9121 176.873 21.8662L173.637 18.2703C173.589 18.2176 173.522 18.1875 173.451 18.1875H164.437C164.299 18.1875 164.187 18.2994 164.187 18.4375ZM167.062 27C166.924 27 166.812 26.8881 166.812 26.75V21.625C166.812 21.4869 166.924 21.375 167.062 21.375H172.154C172.216 21.375 172.275 21.3979 172.321 21.4392L174.042 22.988C174.095 23.0354 174.125 23.103 174.125 23.1738V24.8483C174.125 24.906 174.105 24.9619 174.068 25.0066L172.512 26.9083C172.465 26.9663 172.394 27 172.319 27H167.062Z" fill="#E04A5E" fill-opacity="0.5"/>
<path d="M51.3112 18.1875H48.8351C48.6679 18.1875 48.5478 18.3486 48.5955 18.5089L51.0733 26.8272C51.1041 26.9304 51.0653 27.0417 50.9771 27.1034L49.6009 28.0667C49.444 28.1765 49.4638 28.4147 49.6365 28.4971L51.9553 29.6042C52.0212 29.6357 52.0701 29.6945 52.089 29.7651L54.2627 37.8772C54.2919 37.9865 54.391 38.0625 54.5041 38.0625H57.8615C57.9788 38.0625 58.0803 37.9809 58.1056 37.8664L61.0126 24.6992C61.07 24.4394 61.4396 24.4371 61.5002 24.6962L64.5797 37.8694C64.6061 37.9825 64.7069 38.0625 64.8231 38.0625H68.191C68.3004 38.0625 68.397 37.9914 68.4296 37.8871L70.9736 29.747C70.9923 29.6871 71.0329 29.6364 71.0872 29.6051L73.0438 28.4754C73.1862 28.3932 73.2119 28.1984 73.0956 28.0821L72.1156 27.1021C72.0524 27.0389 72.0277 26.9469 72.0509 26.8606L74.2905 18.5022C74.333 18.3434 74.2134 18.1875 74.049 18.1875H71.1945C71.0814 18.1875 70.9823 18.2635 70.953 18.3728L67.024 33.0363C66.9578 33.2833 66.6072 33.2833 66.541 33.0363L62.6119 18.3728C62.5827 18.2635 62.4836 18.1875 62.3705 18.1875H60.4118C60.2987 18.1875 60.1996 18.2635 60.1704 18.3728L56.2336 33.0651C56.1679 33.3101 55.8214 33.3129 55.7517 33.0691L51.5516 18.3688C51.5209 18.2615 51.4228 18.1875 51.3112 18.1875Z" stroke="#E04A5E" stroke-width="1.125"/>
<path d="M102.178 18.1875H99.4044C99.2048 18.1875 99.0857 18.41 99.1964 18.5762L106.395 29.3745C106.423 29.4156 106.437 29.4638 106.437 29.5132V37.8125C106.437 37.9506 106.549 38.0625 106.687 38.0625H109.187C109.325 38.0625 109.437 37.9506 109.437 37.8125V29.5132C109.437 29.4638 109.452 29.4156 109.479 29.3745L116.678 18.5762C116.789 18.41 116.67 18.1875 116.47 18.1875H113.692C113.611 18.1875 113.534 18.227 113.488 18.2935L107.961 26.1377C107.86 26.2817 107.645 26.2784 107.548 26.1312L102.386 18.2999C102.34 18.2297 102.262 18.1875 102.178 18.1875Z" stroke="#E04A5E" stroke-width="1.125"/>
<path d="M122.937 26.875V18.4375C122.937 18.2994 123.049 18.1875 123.187 18.1875H134.312C134.45 18.1875 134.562 18.2994 134.562 18.4375V20.9375C134.562 21.0756 134.45 21.1875 134.312 21.1875H125.812C125.674 21.1875 125.562 21.2994 125.562 21.4375V26.75C125.562 26.8881 125.674 27 125.812 27H132.437C132.575 27 132.687 27.1119 132.687 27.25V29.375C132.687 29.5131 132.575 29.625 132.437 29.625H125.812C125.674 29.625 125.562 29.7369 125.562 29.875V37.8125C125.562 37.9506 125.45 38.0625 125.312 38.0625H123.187C123.049 38.0625 122.937 37.9506 122.937 37.8125V29.7286C122.937 29.6622 122.911 29.5987 122.864 29.5518L121.641 28.3288C121.534 28.2212 121.546 28.0433 121.668 27.952L122.837 27.075C122.9 27.0278 122.937 26.9537 122.937 26.875Z" stroke="#E04A5E" stroke-width="1.125"/>
<path d="M184.812 26.875V18.4375C184.812 18.2994 184.924 18.1875 185.062 18.1875H196.562C196.7 18.1875 196.812 18.2994 196.812 18.4375V20.9375C196.812 21.0756 196.7 21.1875 196.562 21.1875H187.687C187.549 21.1875 187.437 21.2994 187.437 21.4375V26.5625C187.437 26.7006 187.549 26.8125 187.687 26.8125H194.312C194.45 26.8125 194.562 26.9244 194.562 27.0625V29.375C194.562 29.5131 194.45 29.625 194.312 29.625H187.875C187.737 29.625 187.625 29.7369 187.625 29.875V35.1875C187.625 35.3256 187.737 35.4375 187.875 35.4375H196.562C196.7 35.4375 196.812 35.5494 196.812 35.6875V37.8125C196.812 37.9506 196.7 38.0625 196.562 38.0625H185.062C184.924 38.0625 184.812 37.9506 184.812 37.8125V29.7286C184.812 29.6622 184.786 29.5987 184.739 29.5518L183.516 28.3288C183.409 28.2212 183.421 28.0433 183.543 27.952L184.712 27.075C184.775 27.0278 184.812 26.9537 184.812 26.875Z" stroke="#E04A5E" stroke-width="1.125"/>
<path fill-rule="evenodd" clip-rule="evenodd" d="M77.7095 37.715L81.0507 29.8288C81.0945 29.7254 81.064 29.6055 80.976 29.5356L79.7442 28.5565C79.6011 28.4427 79.6245 28.2189 79.788 28.1372L81.9705 27.0459C82.0293 27.0165 82.0742 26.9651 82.0954 26.9029L85.0046 18.3569C85.0391 18.2556 85.1343 18.1875 85.2413 18.1875H87.8894C87.9935 18.1875 88.0866 18.2519 88.1233 18.3492L95.4347 37.7242C95.4964 37.8878 95.3755 38.0625 95.2008 38.0625H92.734C92.6306 38.0625 92.5378 37.9988 92.5007 37.9022L90.7489 33.3478C90.7118 33.2512 90.619 33.1875 90.5156 33.1875H82.7965C82.6931 33.1875 82.6003 33.2512 82.5632 33.3478L80.8114 37.9022C80.7743 37.9988 80.6815 38.0625 80.5781 38.0625H77.9397C77.7607 38.0625 77.6397 37.8798 77.7095 37.715ZM86.8019 23.106C86.7176 22.8929 86.415 22.8959 86.3351 23.1107L83.6878 30.2253C83.627 30.3887 83.7478 30.5625 83.9221 30.5625H89.3821C89.5586 30.5625 89.6795 30.3847 89.6146 30.2206L86.8019 23.106Z" stroke="#E04A5E" stroke-width="1.125"/>
<path fill-rule="evenodd" clip-rule="evenodd" d="M139.96 37.715L143.301 29.8288C143.344 29.7254 143.314 29.6055 143.226 29.5356L141.994 28.5565C141.851 28.4427 141.874 28.2189 142.038 28.1372L144.221 27.0459C144.279 27.0165 144.324 26.9651 144.345 26.9029L147.255 18.3569C147.289 18.2556 147.384 18.1875 147.491 18.1875H150.139C150.243 18.1875 150.337 18.2519 150.373 18.3492L157.685 37.7242C157.746 37.8878 157.626 38.0625 157.451 38.0625H154.984C154.881 38.0625 154.788 37.9988 154.751 37.9022L152.999 33.3478C152.962 33.2512 152.869 33.1875 152.766 33.1875H145.047C144.943 33.1875 144.85 33.2512 144.813 33.3478L143.061 37.9022C143.024 37.9988 142.932 38.0625 142.828 38.0625H140.19C140.011 38.0625 139.89 37.8798 139.96 37.715ZM149.052 23.106C148.968 22.8929 148.665 22.8959 148.585 23.1107L145.938 30.2253C145.877 30.3887 145.998 30.5625 146.172 30.5625H151.632C151.809 30.5625 151.929 30.3847 151.865 30.2206L149.052 23.106Z" stroke="#E04A5E" stroke-width="1.125"/>
<path fill-rule="evenodd" clip-rule="evenodd" d="M164.187 18.4375V26.8777C164.187 26.9549 164.152 27.0277 164.091 27.0751L162.754 28.1152C162.625 28.2153 162.625 28.4097 162.754 28.5098L164.091 29.5499C164.152 29.5973 164.187 29.6701 164.187 29.7473V37.8125C164.187 37.9506 164.299 38.0625 164.437 38.0625H166.562C166.7 38.0625 166.812 37.9506 166.812 37.8125V29.875C166.812 29.7369 166.924 29.625 167.062 29.625H170.409C170.503 29.625 170.589 29.6776 170.632 29.7612L174.805 37.9263C174.848 38.0099 174.934 38.0625 175.028 38.0625H177.466C177.653 38.0625 177.774 37.8651 177.689 37.6987L173.645 29.7869C173.596 29.6904 173.614 29.5731 173.691 29.4964L176.864 26.3232C176.911 26.2763 176.937 26.2128 176.937 26.1464V22.0334C176.937 21.9717 176.914 21.9121 176.873 21.8662L173.637 18.2703C173.589 18.2176 173.522 18.1875 173.451 18.1875H164.437C164.299 18.1875 164.187 18.2994 164.187 18.4375ZM167.062 27C166.924 27 166.812 26.8881 166.812 26.75V21.625C166.812 21.4869 166.924 21.375 167.062 21.375H172.154C172.216 21.375 172.275 21.3979 172.321 21.4392L174.042 22.988C174.095 23.0354 174.125 23.103 174.125 23.1738V24.8483C174.125 24.906 174.105 24.9619 174.068 25.0066L172.512 26.9083C172.465 26.9663 172.394 27 172.319 27H167.062Z" stroke="#E04A5E" stroke-width="1.125"/>
<path fill-rule="evenodd" clip-rule="evenodd" d="M32.285 17.0226L36.9342 23.6209L39.5902 32.4864C42.9625 43.7424 42.7072 42.9769 43.0865 42.9769C43.2652 42.9769 43.545 43.1379 43.7082 43.3344C44.4157 44.1869 43.3527 44.2311 23.8022 44.1659C5.89974 44.1061 4.59899 44.0729 4.52199 43.6734C4.46874 43.3961 4.64399 43.1929 5.01874 43.0976C5.53099 42.9674 5.79949 42.2966 7.34774 37.2761L9.09774 31.6019L10.7 29.6019C11.5812 28.5019 12.8147 26.9831 13.4407 26.2269C14.1572 25.3616 14.3045 25.0981 13.8385 25.5161C12.3857 26.8189 10.119 26.8629 9.04074 25.6094C8.55099 25.0401 8.36724 24.9804 7.66174 25.1611C7.21399 25.2759 6.60849 25.3316 6.31624 25.2851C5.49349 25.1536 4.69574 24.1299 4.54599 23.0136C4.42849 22.1369 4.50674 21.9041 5.12899 21.2796C5.52424 20.8829 6.04024 20.1519 6.27524 19.6549C6.51049 19.1579 7.01174 18.5489 7.38949 18.3016C8.32074 17.6914 10.2525 17.7001 10.935 18.3179C11.3717 18.7129 11.5712 18.7414 12.2487 18.5054C13.9837 17.9004 14.6415 18.1634 16.17 20.0741C16.3475 20.2956 16.5725 20.4766 16.67 20.4764C16.7677 20.4759 17.4102 19.3839 18.0977 18.0494C18.7852 16.7149 19.483 15.5826 19.6485 15.5331C19.8147 15.4834 20.3497 16.2379 20.8435 17.2184L21.7375 18.9939L24.0057 14.4229C25.2532 11.9089 26.403 9.76814 26.5607 9.66589C26.9355 9.42289 26.8722 9.34139 32.285 17.0226ZM22.7227 19.8321C22.7225 19.7056 23.643 17.7176 24.768 15.4144C25.893 13.1111 26.84 11.2269 26.8722 11.2269C26.9297 11.2269 31.937 18.2936 32.2605 18.8314C32.3502 18.9801 32.1122 19.7141 31.732 20.4626L31.0405 21.8234L30.194 20.5249C29.7075 19.7786 29.1882 19.2531 28.9727 19.2891C28.7665 19.3236 28.1885 20.1779 27.6882 21.1874L26.7787 23.0229L26.2245 21.3569C25.556 19.3486 25.138 19.1054 24.2415 20.2039C23.599 20.9911 23.571 20.9996 23.1522 20.5371C22.916 20.2761 22.7227 19.9589 22.7227 19.8321ZM17.879 22.2964C17.754 21.3844 17.8737 20.9301 18.6567 19.3476C19.1657 18.3186 19.642 17.4781 19.715 17.4796C19.788 17.4809 20.7835 19.3301 21.9275 21.5889C23.7805 25.2481 23.9742 25.7586 23.7067 26.2736C23.057 27.5246 22.9447 27.5306 22.2002 26.3569C21.757 25.6576 21.36 25.2859 21.145 25.3684C20.9555 25.4411 20.5917 26.3389 20.3365 27.3636C20.0815 28.3884 19.8042 29.2269 19.721 29.2269C19.6375 29.2269 19.3705 28.4609 19.1275 27.5244C18.4017 24.7256 18.0992 24.6189 17.1125 26.8136L16.5335 28.1019L16.0085 26.9769C15.3297 25.5219 15.3417 25.2694 16.0985 25.0794C16.4427 24.9929 17.0172 24.5741 17.3755 24.1484C17.9305 23.4886 18.0047 23.2154 17.879 22.2964ZM7.20649 20.2794C7.39074 19.8271 7.77624 19.2926 8.06274 19.0919C8.85874 18.5344 9.61974 18.6519 10.5595 19.4769C11.568 20.3624 11.7497 20.3876 12.3477 19.7269C12.5965 19.4519 13.0692 19.2269 13.3977 19.2269C14.0535 19.2269 15.2227 20.2434 15.2227 20.8134C15.2227 21.0111 15.5007 21.2424 15.8405 21.3276C17.0795 21.6386 17.248 23.1214 16.1277 23.8554C15.6725 24.1534 15.425 24.1654 14.7757 23.9204C14.0192 23.6349 13.9397 23.6651 13.1305 24.5486C12.4697 25.2701 12.0915 25.4769 11.4322 25.4769C10.4282 25.4769 9.52999 24.9101 9.21324 24.0766C8.95399 23.3949 8.43074 23.2999 7.97274 23.8519C7.28524 24.6804 5.47274 23.9999 5.47274 22.9134C5.47274 22.6461 5.78749 22.1291 6.17199 21.7646C6.55674 21.4001 7.02224 20.7319 7.20649 20.2794ZM31.2122 23.2269C31.4775 23.2269 31.8935 22.6776 32.3477 21.7269C32.742 20.9019 33.1282 20.2306 33.2062 20.2351C33.284 20.2396 33.9665 21.1524 34.7227 22.2634C36.0607 24.2289 36.1725 24.5329 38.8767 33.5676C41.4397 42.1306 41.618 42.8584 41.171 42.9341C40.9045 42.9794 40.553 42.9651 40.39 42.9026C40.227 42.8401 38.2385 39.3446 35.9707 35.1349C33.703 30.9251 31.7135 27.4799 31.5497 27.4789C31.3857 27.4779 30.4857 28.1499 29.5497 28.9726C28.6135 29.7951 27.7897 30.4701 27.719 30.4726C27.6482 30.4749 26.719 28.7301 25.654 26.5949L23.718 22.7131L24.2672 21.9699C24.5695 21.5614 24.886 21.2269 24.9705 21.2269C25.0547 21.2269 25.3325 21.8174 25.5872 22.5394C25.6382 22.6837 25.686 22.8196 25.7311 22.9476C26.2603 24.4504 26.4042 24.8591 26.598 24.8843C26.6703 24.8937 26.7497 24.8496 26.8586 24.789C26.8834 24.7753 26.9097 24.7607 26.9377 24.7456C27.196 24.6074 27.7782 23.6504 28.2315 22.6191L29.0555 20.7441L29.9245 21.9854C30.4025 22.6681 30.982 23.2269 31.2122 23.2269ZM12.1355 29.5751C13.2147 28.2624 14.2077 27.0311 14.3422 26.8394C14.6557 26.3919 14.7412 26.5096 15.5852 28.5494C15.9715 29.4831 16.4135 30.2096 16.5677 30.1639C16.7217 30.1184 17.1235 29.4924 17.4605 28.7731L18.0735 27.4654L18.713 29.7836C19.64 33.1444 20.0245 32.9101 21.2282 28.2511L21.5127 27.1501L22.132 28.1886C22.4725 28.7596 22.9112 29.2269 23.1072 29.2269C23.303 29.2269 23.733 28.6959 24.063 28.0466L24.6627 26.8664L25.945 29.4216C26.6502 30.8271 27.3322 31.9769 27.4607 31.9769C27.5892 31.9769 28.495 31.2861 29.4735 30.4419C30.5015 29.5549 31.3445 29.0006 31.4702 29.1294C31.5897 29.2516 33.3267 32.3894 35.33 36.1019L38.9725 42.8519L22.9327 42.9161C14.111 42.9516 6.86149 42.9489 6.82274 42.9104C6.78424 42.8716 7.52224 40.3926 8.46299 37.4011L10.1732 31.9624L12.1355 29.5751Z" fill="#E04A5E"/>
<path fill-rule="evenodd" clip-rule="evenodd" d="M37.057 6.98939C37.594 7.41189 37.803 7.45139 38.246 7.21439C38.9315 6.84764 40.2592 6.84514 40.94 7.20939C41.23 7.36464 41.628 7.80164 41.8237 8.18064C42.0197 8.55964 42.4585 9.01864 42.7987 9.20064C43.5497 9.60264 43.9727 10.4641 43.9727 11.5914C43.9727 12.9404 42.585 13.9116 40.9037 13.7389C40.6597 13.7139 40.1165 13.9821 39.697 14.3351C38.321 15.4931 36.4285 15.5071 35.2395 14.3679C34.6965 13.8476 34.4257 13.7659 33.6577 13.8906C31.0605 14.3121 29.5917 11.5921 31.376 9.66539C31.7902 9.21789 32.2605 8.54214 32.421 8.16389C33.0767 6.61664 35.729 5.94489 37.057 6.98939ZM33.2227 9.19839C33.2227 8.92664 33.499 8.42814 33.8365 8.09064C34.7232 7.20364 35.8287 7.26989 36.7587 8.26539L37.4955 9.05414L38.224 8.51539C38.6247 8.21914 39.2382 7.97689 39.5877 7.97689C40.2712 7.97689 41.2227 8.75939 41.2227 9.32164C41.2227 9.51114 41.5617 9.80664 41.976 9.97814C43.8372 10.7491 42.8212 13.2511 40.9357 12.5394C40.169 12.2501 40.0982 12.2786 39.2177 13.2321C38.5117 13.9971 38.113 14.2269 37.492 14.2269C36.6935 14.2269 35.7002 13.4624 35.0962 12.3831C34.8575 11.9561 34.8117 11.9599 34.182 12.4554C33.3022 13.1471 32.6165 13.1136 32.015 12.3489C31.4005 11.5676 31.5572 10.8786 32.503 10.2054C32.899 9.92339 33.2227 9.47039 33.2227 9.19839Z" fill="#E04A5E"/>
<path fill-rule="evenodd" clip-rule="evenodd" d="M13.894 4.74364C14.281 4.89014 14.846 5.24289 15.1495 5.52714C15.6767 6.02089 15.74 6.02564 16.5622 5.63539C17.968 4.96839 19.3095 5.09889 20.339 6.00289C20.825 6.42964 21.2227 6.92464 21.2227 7.10314C21.2227 7.28164 21.6082 7.65489 22.0792 7.93289C24.651 9.45014 24.477 12.7786 21.777 13.7191C20.9562 14.0051 20.559 14.0246 19.9842 13.8079C19.3242 13.5586 19.2047 13.5921 18.8557 14.1249C18.3102 14.9571 16.684 15.7269 15.4702 15.7269C14.24 15.7269 13.247 15.2501 12.4127 14.2586L11.7932 13.5221L10.6682 13.8926C9.67349 14.2201 9.43999 14.2199 8.65224 13.8909C7.43699 13.3831 6.84774 12.4051 6.84774 10.8969C6.84774 9.80039 6.94349 9.58614 7.74624 8.88589C8.24049 8.45464 8.71599 7.81089 8.80324 7.45489C9.04749 6.45939 9.95374 5.46164 11.078 4.95089C12.253 4.41739 12.906 4.36914 13.894 4.74364ZM9.72199 8.35189C9.72624 7.53089 10.6765 6.22289 11.5402 5.84964C11.9842 5.65764 12.5165 5.54264 12.7227 5.59389C13.931 5.89464 14.2605 6.07464 14.8207 6.74014C15.5735 7.63514 15.9205 7.65514 16.6865 6.84764C17.4725 6.01889 18.6887 6.02039 19.6762 6.85114C20.0842 7.19439 20.4852 7.72889 20.567 8.03864C20.6487 8.34839 21.083 8.77064 21.5317 8.97689C23.1635 9.72664 23.259 11.8074 21.699 12.6141C21.0602 12.9444 20.877 12.9436 20.0705 12.6066C18.8532 12.0979 18.8472 12.0996 18.2557 13.1019C17.161 14.9576 14.8857 15.1899 13.303 13.6071C12.8465 13.1506 12.4727 12.5969 12.4727 12.3769C12.4727 11.8381 12.0582 11.8734 11.291 12.4769C10.1285 13.3914 8.52199 13.0526 7.99574 11.7824C7.60149 10.8306 7.98774 9.83739 8.96899 9.27914C9.40799 9.02914 9.72074 8.64439 9.72199 8.35189Z" fill="#E04A5E"/>
<path d="M18.6567 19.3476C17.8737 20.9301 17.754 21.3844 17.879 22.2964C18.0047 23.2154 17.9305 23.4886 17.3755 24.1484C17.0172 24.5741 16.4427 24.9929 16.0985 25.0794C15.3417 25.2694 15.3297 25.5219 16.0085 26.9769L16.5335 28.1019L17.1125 26.8136C18.0992 24.6189 18.4017 24.7256 19.1275 27.5244C19.3705 28.4609 19.6375 29.2269 19.721 29.2269C19.8042 29.2269 20.0815 28.3884 20.3365 27.3636C20.5917 26.3389 20.9555 25.4411 21.145 25.3684C21.36 25.2859 21.757 25.6576 22.2002 26.3569C22.9447 27.5306 23.057 27.5246 23.7067 26.2736C23.9742 25.7586 23.7805 25.2481 21.9275 21.5889C20.7835 19.3301 19.788 17.4809 19.715 17.4796C19.642 17.4781 19.1657 18.3186 18.6567 19.3476Z" fill="#E04A5E" fill-opacity="0.5"/>
<path d="M24.768 15.4144C23.643 17.7176 22.7225 19.7056 22.7227 19.8321C22.7227 19.9589 22.916 20.2761 23.1522 20.5371C23.571 20.9996 23.599 20.9911 24.2415 20.2039C25.138 19.1054 25.556 19.3486 26.2245 21.3569L26.7787 23.0229L27.6882 21.1874C28.1885 20.1779 28.7665 19.3236 28.9727 19.2891C29.1882 19.2531 29.7075 19.7786 30.194 20.5249L31.0405 21.8234L31.732 20.4626C32.1122 19.7141 32.3502 18.9801 32.2605 18.8314C31.937 18.2936 26.9297 11.2269 26.8722 11.2269C26.84 11.2269 25.893 13.1111 24.768 15.4144Z" fill="#E04A5E" fill-opacity="0.5"/>
</svg>
