<svg width="150" height="22" viewBox="0 0 150 22" fill="none" xmlns="http://www.w3.org/2000/svg">
<path d="M3.72626 1H1.25016C1.0829 1 0.962816 1.16107 1.01057 1.32137L3.48837 9.63971C3.5191 9.74289 3.48033 9.85415 3.39214 9.91589L2.01593 10.8792C1.85908 10.989 1.87881 11.2272 2.05158 11.3096L4.3703 12.4167C4.43627 12.4482 4.48514 12.507 4.50406 12.5776L6.67769 20.6897C6.70697 20.799 6.80602 20.875 6.91917 20.875H10.2765C10.3938 20.875 10.4953 20.7934 10.5206 20.6789L13.4277 7.51168C13.485 7.25185 13.8547 7.24957 13.9152 7.50867L16.9947 20.6819C17.0211 20.795 17.122 20.875 17.2381 20.875H20.606C20.7154 20.875 20.812 20.8039 20.8447 20.6996L23.3886 12.5595C23.4073 12.4996 23.4479 12.4489 23.5022 12.4176L25.4589 11.2879C25.6012 11.2057 25.6269 11.0109 25.5107 10.8946L24.5306 9.91456C24.4674 9.85141 24.4428 9.75935 24.4659 9.67308L26.7055 1.3147C26.7481 1.15592 26.6284 1 26.464 1H23.6096C23.4964 1 23.3974 1.076 23.3681 1.1853L19.439 15.8488C19.3728 16.0958 19.0223 16.0958 18.9561 15.8488L15.027 1.1853C14.9977 1.076 14.8987 1 14.7855 1H12.8269C12.7137 1 12.6147 1.076 12.5854 1.1853L8.64859 15.8776C8.58295 16.1226 8.23639 16.1254 8.16673 15.8816L3.96664 1.18132C3.93598 1.07399 3.83788 1 3.72626 1Z" fill="#E04A5E" fill-opacity="0.5"/>
<path d="M54.5927 1H51.8195C51.6198 1 51.5007 1.22254 51.6115 1.38868L58.8104 12.187C58.8377 12.2281 58.8523 12.2763 58.8523 12.3257V20.625C58.8523 20.7631 58.9643 20.875 59.1023 20.875H61.6023C61.7404 20.875 61.8523 20.7631 61.8523 20.625V12.3257C61.8523 12.2763 61.867 12.2281 61.8943 12.187L69.0932 1.38868C69.204 1.22254 69.0849 1 68.8852 1H66.107C66.0257 1 65.9495 1.03954 65.9026 1.10601L60.3761 8.95015C60.2746 9.09419 60.06 9.09086 59.963 8.94374L54.8014 1.11242C54.7552 1.04224 54.6768 1 54.5927 1Z" fill="#E04A5E" fill-opacity="0.5"/>
<path d="M75.3523 9.6875V1.25C75.3523 1.11193 75.4643 1 75.6023 1H86.7273C86.8654 1 86.9773 1.11193 86.9773 1.25V3.75C86.9773 3.88807 86.8654 4 86.7273 4H78.2273C78.0893 4 77.9773 4.11193 77.9773 4.25V9.5625C77.9773 9.70057 78.0893 9.8125 78.2273 9.8125H84.8523C84.9904 9.8125 85.1023 9.92443 85.1023 10.0625V12.1875C85.1023 12.3256 84.9904 12.4375 84.8523 12.4375H78.2273C78.0893 12.4375 77.9773 12.5494 77.9773 12.6875V20.625C77.9773 20.7631 77.8654 20.875 77.7273 20.875H75.6023C75.4643 20.875 75.3523 20.7631 75.3523 20.625V12.5411C75.3523 12.4747 75.326 12.4112 75.2791 12.3643L74.0562 11.1413C73.9486 11.0337 73.9612 10.8558 74.0829 10.7645L75.2523 9.8875C75.3153 9.84029 75.3523 9.76619 75.3523 9.6875Z" fill="#E04A5E" fill-opacity="0.5"/>
<path d="M137.227 9.6875V1.25C137.227 1.11193 137.339 1 137.477 1H148.977C149.115 1 149.227 1.11193 149.227 1.25V3.75C149.227 3.88807 149.115 4 148.977 4H140.102C139.964 4 139.852 4.11193 139.852 4.25V9.375C139.852 9.51307 139.964 9.625 140.102 9.625H146.727C146.865 9.625 146.977 9.73693 146.977 9.875V12.1875C146.977 12.3256 146.865 12.4375 146.727 12.4375H140.29C140.152 12.4375 140.04 12.5494 140.04 12.6875V18C140.04 18.1381 140.152 18.25 140.29 18.25H148.977C149.115 18.25 149.227 18.3619 149.227 18.5V20.625C149.227 20.7631 149.115 20.875 148.977 20.875H137.477C137.339 20.875 137.227 20.7631 137.227 20.625V12.5411C137.227 12.4747 137.201 12.4112 137.154 12.3643L135.931 11.1413C135.824 11.0337 135.836 10.8558 135.958 10.7645L137.127 9.8875C137.19 9.84029 137.227 9.76619 137.227 9.6875Z" fill="#E04A5E" fill-opacity="0.5"/>
<path fill-rule="evenodd" clip-rule="evenodd" d="M30.1246 20.5275L33.4657 12.6413C33.5095 12.5379 33.479 12.418 33.3911 12.3481L32.1593 11.369C32.0162 11.2552 32.0395 11.0314 32.203 10.9497L34.3856 9.85839C34.4444 9.82899 34.4892 9.7776 34.5104 9.71535L37.4197 1.16943C37.4542 1.06812 37.5493 1 37.6563 1H40.3045C40.4085 1 40.5016 1.06441 40.5384 1.16174L47.8497 20.5367C47.9114 20.7003 47.7906 20.875 47.6158 20.875H45.149C45.0456 20.875 44.9528 20.8113 44.9157 20.7147L43.164 16.1603C43.1268 16.0637 43.0341 16 42.9306 16H35.2115C35.1081 16 35.0153 16.0637 34.9782 16.1603L33.2265 20.7147C33.1893 20.8113 33.0966 20.875 32.9931 20.875H30.3548C30.1757 20.875 30.0547 20.6923 30.1246 20.5275ZM39.2169 5.91846C39.1327 5.70537 38.83 5.70844 38.7501 5.92319L36.1028 13.0378C36.042 13.2012 36.1628 13.375 36.3371 13.375H41.7972C41.9736 13.375 42.0945 13.1972 42.0297 13.0331L39.2169 5.91846Z" fill="#E04A5E" fill-opacity="0.5"/>
<path fill-rule="evenodd" clip-rule="evenodd" d="M92.3746 20.5275L95.7157 12.6413C95.7595 12.5379 95.729 12.418 95.6411 12.3481L94.4093 11.369C94.2662 11.2552 94.2895 11.0314 94.453 10.9497L96.6356 9.85839C96.6944 9.82899 96.7392 9.7776 96.7604 9.71535L99.6697 1.16943C99.7041 1.06812 99.7993 1 99.9063 1H102.554C102.658 1 102.752 1.06441 102.788 1.16174L110.1 20.5367C110.161 20.7003 110.041 20.875 109.866 20.875H107.399C107.296 20.875 107.203 20.8113 107.166 20.7147L105.414 16.1603C105.377 16.0637 105.284 16 105.181 16H97.4615C97.3581 16 97.2653 16.0637 97.2282 16.1603L95.4765 20.7147C95.4393 20.8113 95.3466 20.875 95.2431 20.875H92.6048C92.4257 20.875 92.3047 20.6923 92.3746 20.5275ZM101.467 5.91846C101.383 5.70537 101.08 5.70844 101 5.92319L98.3528 13.0378C98.292 13.2012 98.4128 13.375 98.5871 13.375H104.047C104.224 13.375 104.345 13.1972 104.28 13.0331L101.467 5.91846Z" fill="#E04A5E" fill-opacity="0.5"/>
<path fill-rule="evenodd" clip-rule="evenodd" d="M116.602 1.25V9.69023C116.602 9.76738 116.567 9.8402 116.506 9.88757L115.169 10.9277C115.04 11.0278 115.04 11.2222 115.169 11.3223L116.506 12.3624C116.567 12.4098 116.602 12.4826 116.602 12.5598V20.625C116.602 20.7631 116.714 20.875 116.852 20.875H118.977C119.115 20.875 119.227 20.7631 119.227 20.625V12.6875C119.227 12.5494 119.339 12.4375 119.477 12.4375H122.824C122.918 12.4375 123.004 12.4901 123.047 12.5737L127.22 20.7388C127.263 20.8224 127.349 20.875 127.443 20.875H129.881C130.068 20.875 130.189 20.6776 130.104 20.5112L126.06 12.5994C126.011 12.5029 126.029 12.3856 126.106 12.3089L129.279 9.13572C129.326 9.08884 129.352 9.02525 129.352 8.95895V4.84593C129.352 4.78417 129.329 4.7246 129.288 4.67869L126.052 1.08276C126.004 1.03008 125.937 1 125.866 1H116.852C116.714 1 116.602 1.11193 116.602 1.25ZM119.477 9.8125C119.339 9.8125 119.227 9.70057 119.227 9.5625V4.4375C119.227 4.29943 119.339 4.1875 119.477 4.1875H124.569C124.631 4.1875 124.69 4.21036 124.736 4.25168L126.457 5.80052C126.51 5.84793 126.54 5.91547 126.54 5.98634V7.66076C126.54 7.71847 126.52 7.7744 126.483 7.81907L124.927 9.72081C124.88 9.77884 124.809 9.8125 124.734 9.8125H119.477Z" fill="#E04A5E" fill-opacity="0.5"/>
<path d="M3.72626 1H1.25016C1.0829 1 0.962816 1.16107 1.01057 1.32137L3.48837 9.63971C3.5191 9.74289 3.48033 9.85415 3.39214 9.91589L2.01593 10.8792C1.85908 10.989 1.87881 11.2272 2.05158 11.3096L4.3703 12.4167C4.43627 12.4482 4.48514 12.507 4.50406 12.5776L6.67769 20.6897C6.70697 20.799 6.80602 20.875 6.91917 20.875H10.2765C10.3938 20.875 10.4953 20.7934 10.5206 20.6789L13.4277 7.51168C13.485 7.25185 13.8547 7.24957 13.9152 7.50867L16.9947 20.6819C17.0211 20.795 17.122 20.875 17.2381 20.875H20.606C20.7154 20.875 20.812 20.8039 20.8447 20.6996L23.3886 12.5595C23.4073 12.4996 23.4479 12.4489 23.5022 12.4176L25.4589 11.2879C25.6012 11.2057 25.6269 11.0109 25.5107 10.8946L24.5306 9.91456C24.4674 9.85141 24.4428 9.75935 24.4659 9.67308L26.7055 1.3147C26.7481 1.15592 26.6284 1 26.464 1H23.6096C23.4964 1 23.3974 1.076 23.3681 1.1853L19.439 15.8488C19.3728 16.0958 19.0223 16.0958 18.9561 15.8488L15.027 1.1853C14.9977 1.076 14.8987 1 14.7855 1H12.8269C12.7137 1 12.6147 1.076 12.5854 1.1853L8.64859 15.8776C8.58295 16.1226 8.23639 16.1254 8.16673 15.8816L3.96664 1.18132C3.93598 1.07399 3.83788 1 3.72626 1Z" stroke="#E04A5E" stroke-width="1.125"/>
<path d="M54.5927 1H51.8195C51.6198 1 51.5007 1.22254 51.6115 1.38868L58.8104 12.187C58.8377 12.2281 58.8523 12.2763 58.8523 12.3257V20.625C58.8523 20.7631 58.9643 20.875 59.1023 20.875H61.6023C61.7404 20.875 61.8523 20.7631 61.8523 20.625V12.3257C61.8523 12.2763 61.867 12.2281 61.8943 12.187L69.0932 1.38868C69.204 1.22254 69.0849 1 68.8852 1H66.107C66.0257 1 65.9495 1.03954 65.9026 1.10601L60.3761 8.95015C60.2746 9.09419 60.06 9.09086 59.963 8.94374L54.8014 1.11242C54.7552 1.04224 54.6768 1 54.5927 1Z" stroke="#E04A5E" stroke-width="1.125"/>
<path d="M75.3523 9.6875V1.25C75.3523 1.11193 75.4643 1 75.6023 1H86.7273C86.8654 1 86.9773 1.11193 86.9773 1.25V3.75C86.9773 3.88807 86.8654 4 86.7273 4H78.2273C78.0893 4 77.9773 4.11193 77.9773 4.25V9.5625C77.9773 9.70057 78.0893 9.8125 78.2273 9.8125H84.8523C84.9904 9.8125 85.1023 9.92443 85.1023 10.0625V12.1875C85.1023 12.3256 84.9904 12.4375 84.8523 12.4375H78.2273C78.0893 12.4375 77.9773 12.5494 77.9773 12.6875V20.625C77.9773 20.7631 77.8654 20.875 77.7273 20.875H75.6023C75.4643 20.875 75.3523 20.7631 75.3523 20.625V12.5411C75.3523 12.4747 75.326 12.4112 75.2791 12.3643L74.0562 11.1413C73.9486 11.0337 73.9612 10.8558 74.0829 10.7645L75.2523 9.8875C75.3153 9.84029 75.3523 9.76619 75.3523 9.6875Z" stroke="#E04A5E" stroke-width="1.125"/>
<path d="M137.227 9.6875V1.25C137.227 1.11193 137.339 1 137.477 1H148.977C149.115 1 149.227 1.11193 149.227 1.25V3.75C149.227 3.88807 149.115 4 148.977 4H140.102C139.964 4 139.852 4.11193 139.852 4.25V9.375C139.852 9.51307 139.964 9.625 140.102 9.625H146.727C146.865 9.625 146.977 9.73693 146.977 9.875V12.1875C146.977 12.3256 146.865 12.4375 146.727 12.4375H140.29C140.152 12.4375 140.04 12.5494 140.04 12.6875V18C140.04 18.1381 140.152 18.25 140.29 18.25H148.977C149.115 18.25 149.227 18.3619 149.227 18.5V20.625C149.227 20.7631 149.115 20.875 148.977 20.875H137.477C137.339 20.875 137.227 20.7631 137.227 20.625V12.5411C137.227 12.4747 137.201 12.4112 137.154 12.3643L135.931 11.1413C135.824 11.0337 135.836 10.8558 135.958 10.7645L137.127 9.8875C137.19 9.84029 137.227 9.76619 137.227 9.6875Z" stroke="#E04A5E" stroke-width="1.125"/>
<path fill-rule="evenodd" clip-rule="evenodd" d="M30.1246 20.5275L33.4657 12.6413C33.5095 12.5379 33.479 12.418 33.3911 12.3481L32.1593 11.369C32.0162 11.2552 32.0395 11.0314 32.203 10.9497L34.3856 9.85839C34.4444 9.82899 34.4892 9.7776 34.5104 9.71535L37.4197 1.16943C37.4542 1.06812 37.5493 1 37.6563 1H40.3045C40.4085 1 40.5016 1.06441 40.5384 1.16174L47.8497 20.5367C47.9114 20.7003 47.7906 20.875 47.6158 20.875H45.149C45.0456 20.875 44.9528 20.8113 44.9157 20.7147L43.164 16.1603C43.1268 16.0637 43.0341 16 42.9306 16H35.2115C35.1081 16 35.0153 16.0637 34.9782 16.1603L33.2265 20.7147C33.1893 20.8113 33.0966 20.875 32.9931 20.875H30.3548C30.1757 20.875 30.0547 20.6923 30.1246 20.5275ZM39.2169 5.91846C39.1327 5.70537 38.83 5.70844 38.7501 5.92319L36.1028 13.0378C36.042 13.2012 36.1628 13.375 36.3371 13.375H41.7972C41.9736 13.375 42.0945 13.1972 42.0297 13.0331L39.2169 5.91846Z" stroke="#E04A5E" stroke-width="1.125"/>
<path fill-rule="evenodd" clip-rule="evenodd" d="M92.3746 20.5275L95.7157 12.6413C95.7595 12.5379 95.729 12.418 95.6411 12.3481L94.4093 11.369C94.2662 11.2552 94.2895 11.0314 94.453 10.9497L96.6356 9.85839C96.6944 9.82899 96.7392 9.7776 96.7604 9.71535L99.6697 1.16943C99.7041 1.06812 99.7993 1 99.9063 1H102.554C102.658 1 102.752 1.06441 102.788 1.16174L110.1 20.5367C110.161 20.7003 110.041 20.875 109.866 20.875H107.399C107.296 20.875 107.203 20.8113 107.166 20.7147L105.414 16.1603C105.377 16.0637 105.284 16 105.181 16H97.4615C97.3581 16 97.2653 16.0637 97.2282 16.1603L95.4765 20.7147C95.4393 20.8113 95.3466 20.875 95.2431 20.875H92.6048C92.4257 20.875 92.3047 20.6923 92.3746 20.5275ZM101.467 5.91846C101.383 5.70537 101.08 5.70844 101 5.92319L98.3528 13.0378C98.292 13.2012 98.4128 13.375 98.5871 13.375H104.047C104.224 13.375 104.345 13.1972 104.28 13.0331L101.467 5.91846Z" stroke="#E04A5E" stroke-width="1.125"/>
<path fill-rule="evenodd" clip-rule="evenodd" d="M116.602 1.25V9.69023C116.602 9.76738 116.567 9.8402 116.506 9.88757L115.169 10.9277C115.04 11.0278 115.04 11.2222 115.169 11.3223L116.506 12.3624C116.567 12.4098 116.602 12.4826 116.602 12.5598V20.625C116.602 20.7631 116.714 20.875 116.852 20.875H118.977C119.115 20.875 119.227 20.7631 119.227 20.625V12.6875C119.227 12.5494 119.339 12.4375 119.477 12.4375H122.824C122.918 12.4375 123.004 12.4901 123.047 12.5737L127.22 20.7388C127.263 20.8224 127.349 20.875 127.443 20.875H129.881C130.068 20.875 130.189 20.6776 130.104 20.5112L126.06 12.5994C126.011 12.5029 126.029 12.3856 126.106 12.3089L129.279 9.13572C129.326 9.08884 129.352 9.02525 129.352 8.95895V4.84593C129.352 4.78417 129.329 4.7246 129.288 4.67869L126.052 1.08276C126.004 1.03008 125.937 1 125.866 1H116.852C116.714 1 116.602 1.11193 116.602 1.25ZM119.477 9.8125C119.339 9.8125 119.227 9.70057 119.227 9.5625V4.4375C119.227 4.29943 119.339 4.1875 119.477 4.1875H124.569C124.631 4.1875 124.69 4.21036 124.736 4.25168L126.457 5.80052C126.51 5.84793 126.54 5.91547 126.54 5.98634V7.66076C126.54 7.71847 126.52 7.7744 126.483 7.81907L124.927 9.72081C124.88 9.77884 124.809 9.8125 124.734 9.8125H119.477Z" stroke="#E04A5E" stroke-width="1.125"/>
</svg>
