<svg width="150" height="22" viewBox="0 0 150 22" fill="none" xmlns="http://www.w3.org/2000/svg">
<path d="M3.72631 1H1.25017C1.0829 1 0.962816 1.16107 1.01057 1.32137L3.48841 9.63987C3.51915 9.74305 3.48038 9.85431 3.39218 9.91605L2.01595 10.8794C1.8591 10.9892 1.87882 11.2273 2.0516 11.3098L4.37036 12.4169C4.43633 12.4484 4.48521 12.5072 4.50413 12.5778L6.67779 20.6901C6.70708 20.7994 6.80612 20.8754 6.91928 20.8754H10.2767C10.394 20.8754 10.4955 20.7938 10.5208 20.6793L13.4279 7.51179C13.4853 7.25197 13.8549 7.24969 13.9155 7.50878L16.995 20.6823C17.0214 20.7954 17.1223 20.8754 17.2384 20.8754H20.6064C20.7157 20.8754 20.8124 20.8043 20.845 20.6999L23.389 12.5597C23.4077 12.4998 23.4483 12.4491 23.5026 12.4178L25.4593 11.2881C25.6017 11.2059 25.6273 11.011 25.5111 10.8948L24.531 9.91472C24.4679 9.85157 24.4432 9.75951 24.4663 9.67324L26.706 1.31471C26.7485 1.15593 26.6289 1 26.4645 1H23.61C23.4968 1 23.3978 1.076 23.3685 1.1853L19.4393 15.849C19.3731 16.0961 19.0226 16.0961 18.9564 15.849L15.0272 1.1853C14.998 1.076 14.8989 1 14.7858 1H12.8271C12.7139 1 12.6149 1.076 12.5856 1.1853L8.64873 15.8779C8.58309 16.1229 8.23652 16.1257 8.16685 15.8819L3.9667 1.18132C3.93603 1.074 3.83793 1 3.72631 1Z" fill="#181C56"/>
<path d="M54.5937 1H51.8204C51.6207 1 51.5016 1.22254 51.6124 1.38868L58.8114 12.1872C58.8388 12.2283 58.8534 12.2765 58.8534 12.3259V20.6254C58.8534 20.7634 58.9653 20.8754 59.1034 20.8754H61.6034C61.7415 20.8754 61.8534 20.7634 61.8534 20.6254V12.3259C61.8534 12.2765 61.868 12.2283 61.8954 12.1872L69.0944 1.38868C69.2052 1.22254 69.0861 1 68.8864 1H66.1082C66.0269 1 65.9506 1.03954 65.9038 1.10601L60.3772 8.95029C60.2757 9.09434 60.061 9.09101 59.964 8.94388L54.8024 1.11242C54.7561 1.04224 54.6777 1 54.5937 1Z" fill="#181C56"/>
<path d="M75.3537 9.68766V1.25C75.3537 1.11193 75.4656 1 75.6037 1H86.7289C86.8669 1 86.9789 1.11193 86.9789 1.25V3.75005C86.9789 3.88812 86.8669 4.00005 86.7289 4.00005H78.2287C78.0907 4.00005 77.9787 4.11198 77.9787 4.25006V9.56265C77.9787 9.70073 78.0907 9.81266 78.2287 9.81266H84.8538C84.9919 9.81266 85.1038 9.92459 85.1038 10.0627V12.1877C85.1038 12.3258 84.9919 12.4377 84.8538 12.4377H78.2287C78.0907 12.4377 77.9787 12.5496 77.9787 12.6877V20.6254C77.9787 20.7634 77.8668 20.8754 77.7287 20.8754H75.6037C75.4656 20.8754 75.3537 20.7634 75.3537 20.6254V12.5413C75.3537 12.475 75.3273 12.4114 75.2804 12.3645L74.0575 11.1415C73.9499 11.0339 73.9625 10.856 74.0842 10.7647L75.2537 9.88766C75.3166 9.84045 75.3537 9.76635 75.3537 9.68766Z" fill="#181C56"/>
<path d="M137.23 9.68766V1.25C137.23 1.11193 137.342 1 137.48 1H148.98C149.118 1 149.23 1.11193 149.23 1.25V3.75005C149.23 3.88812 149.118 4.00005 148.98 4.00005H140.105C139.967 4.00005 139.855 4.11198 139.855 4.25006V9.37515C139.855 9.51322 139.967 9.62516 140.105 9.62516H146.73C146.868 9.62516 146.98 9.73709 146.98 9.87516V12.1877C146.98 12.3258 146.868 12.4377 146.73 12.4377H140.292C140.154 12.4377 140.042 12.5496 140.042 12.6877V18.0003C140.042 18.1384 140.154 18.2503 140.292 18.2503H148.98C149.118 18.2503 149.23 18.3622 149.23 18.5003V20.6254C149.23 20.7634 149.118 20.8754 148.98 20.8754H137.48C137.342 20.8754 137.23 20.7634 137.23 20.6254V12.5413C137.23 12.475 137.203 12.4114 137.157 12.3645L135.934 11.1415C135.826 11.0339 135.839 10.856 135.96 10.7647L137.13 9.88766C137.193 9.84045 137.23 9.76635 137.23 9.68766Z" fill="#181C56"/>
<path fill-rule="evenodd" clip-rule="evenodd" d="M30.1251 20.5278L33.4663 12.6415C33.5101 12.5381 33.4796 12.4182 33.3917 12.3483L32.1598 11.3692C32.0167 11.2554 32.0401 11.0316 32.2036 10.9498L34.3861 9.85855C34.445 9.82915 34.4898 9.77776 34.511 9.71551L37.4203 1.16944C37.4548 1.06812 37.55 1 37.657 1H40.3052C40.4092 1 40.5024 1.06441 40.5391 1.16174L47.8505 20.5371C47.9122 20.7006 47.7914 20.8754 47.6166 20.8754H45.1498C45.0464 20.8754 44.9536 20.8116 44.9165 20.7151L43.1647 16.1605C43.1276 16.064 43.0348 16.0003 42.9314 16.0003H35.2122C35.1087 16.0003 35.0159 16.064 34.9788 16.1605L33.2271 20.7151C33.1899 20.8116 33.0972 20.8754 32.9937 20.8754H30.3553C30.1763 20.8754 30.0553 20.6927 30.1251 20.5278ZM39.2176 5.91854C39.1333 5.70545 38.8307 5.70852 38.7508 5.92328L36.1034 13.038C36.0427 13.2014 36.1635 13.3752 36.3377 13.3752H41.7979C41.9743 13.3752 42.0953 13.1974 42.0304 13.0333L39.2176 5.91854Z" fill="#181C56"/>
<path fill-rule="evenodd" clip-rule="evenodd" d="M92.3762 20.5278L95.7174 12.6415C95.7612 12.5381 95.7307 12.4182 95.6428 12.3483L94.4109 11.3692C94.2678 11.2554 94.2912 11.0316 94.4547 10.9498L96.6373 9.85855C96.6961 9.82915 96.7409 9.77776 96.7621 9.71551L99.6714 1.16944C99.7059 1.06812 99.8011 1 99.9081 1H102.556C102.66 1 102.753 1.06441 102.79 1.16174L110.102 20.5371C110.163 20.7006 110.043 20.8754 109.868 20.8754H107.401C107.298 20.8754 107.205 20.8116 107.168 20.7151L105.416 16.1605C105.379 16.064 105.286 16.0003 105.183 16.0003H97.4633C97.3598 16.0003 97.2671 16.064 97.2299 16.1605L95.4782 20.7151C95.441 20.8116 95.3483 20.8754 95.2448 20.8754H92.6064C92.4274 20.8754 92.3064 20.6927 92.3762 20.5278ZM101.469 5.91854C101.384 5.70545 101.082 5.70852 101.002 5.92328L98.3545 13.038C98.2938 13.2014 98.4146 13.3752 98.5888 13.3752H104.049C104.225 13.3752 104.346 13.1974 104.282 13.0333L101.469 5.91854Z" fill="#181C56"/>
<path fill-rule="evenodd" clip-rule="evenodd" d="M116.604 1.25V9.69039C116.604 9.76753 116.569 9.84036 116.508 9.88773L115.171 10.9278C115.042 11.0279 115.042 11.2224 115.171 11.3225L116.508 12.3626C116.569 12.41 116.604 12.4828 116.604 12.56V20.6254C116.604 20.7634 116.716 20.8754 116.854 20.8754H118.979C119.118 20.8754 119.229 20.7634 119.229 20.6254V12.6877C119.229 12.5496 119.341 12.4377 119.479 12.4377H122.827C122.92 12.4377 123.006 12.4903 123.049 12.5739L127.222 20.7391C127.265 20.8227 127.351 20.8754 127.445 20.8754H129.884C130.07 20.8754 130.191 20.6779 130.106 20.5116L126.062 12.5997C126.013 12.5031 126.032 12.3858 126.108 12.3091L129.281 9.13587C129.328 9.08899 129.355 9.02539 129.355 8.95909V4.846C129.355 4.78424 129.332 4.72467 129.29 4.67876L126.054 1.08276C126.007 1.03008 125.939 1 125.868 1H116.854C116.716 1 116.604 1.11193 116.604 1.25ZM119.479 9.81266C119.341 9.81266 119.229 9.70073 119.229 9.56265V4.43756C119.229 4.29949 119.341 4.18756 119.479 4.18756H124.571C124.633 4.18756 124.692 4.21042 124.738 4.25174L126.459 5.8006C126.512 5.84801 126.542 5.91556 126.542 5.98643V7.66088C126.542 7.71859 126.522 7.77452 126.486 7.81919L124.93 9.72097C124.882 9.779 124.811 9.81266 124.736 9.81266H119.479Z" fill="#181C56"/>
<path d="M3.72631 1H1.25017C1.0829 1 0.962816 1.16107 1.01057 1.32137L3.48841 9.63987C3.51915 9.74305 3.48038 9.85431 3.39218 9.91605L2.01595 10.8794C1.8591 10.9892 1.87882 11.2273 2.0516 11.3098L4.37036 12.4169C4.43633 12.4484 4.48521 12.5072 4.50413 12.5778L6.67779 20.6901C6.70708 20.7994 6.80612 20.8754 6.91928 20.8754H10.2767C10.394 20.8754 10.4955 20.7938 10.5208 20.6793L13.4279 7.51179C13.4853 7.25197 13.8549 7.24969 13.9155 7.50878L16.995 20.6823C17.0214 20.7954 17.1223 20.8754 17.2384 20.8754H20.6064C20.7157 20.8754 20.8124 20.8043 20.845 20.6999L23.389 12.5597C23.4077 12.4998 23.4483 12.4491 23.5026 12.4178L25.4593 11.2881C25.6017 11.2059 25.6273 11.011 25.5111 10.8948L24.531 9.91472C24.4679 9.85157 24.4432 9.75951 24.4663 9.67324L26.706 1.31471C26.7485 1.15593 26.6289 1 26.4645 1H23.61C23.4968 1 23.3978 1.076 23.3685 1.1853L19.4393 15.849C19.3731 16.0961 19.0226 16.0961 18.9564 15.849L15.0272 1.1853C14.998 1.076 14.8989 1 14.7858 1H12.8271C12.7139 1 12.6149 1.076 12.5856 1.1853L8.64873 15.8779C8.58309 16.1229 8.23652 16.1257 8.16685 15.8819L3.9667 1.18132C3.93603 1.074 3.83793 1 3.72631 1Z" stroke="#181C56" stroke-width="0.5625"/>
<path d="M54.5937 1H51.8204C51.6207 1 51.5016 1.22254 51.6124 1.38868L58.8114 12.1872C58.8388 12.2283 58.8534 12.2765 58.8534 12.3259V20.6254C58.8534 20.7634 58.9653 20.8754 59.1034 20.8754H61.6034C61.7415 20.8754 61.8534 20.7634 61.8534 20.6254V12.3259C61.8534 12.2765 61.868 12.2283 61.8954 12.1872L69.0944 1.38868C69.2052 1.22254 69.0861 1 68.8864 1H66.1082C66.0269 1 65.9506 1.03954 65.9038 1.10601L60.3772 8.95029C60.2757 9.09434 60.061 9.09101 59.964 8.94388L54.8024 1.11242C54.7561 1.04224 54.6777 1 54.5937 1Z" stroke="#181C56" stroke-width="0.5625"/>
<path d="M75.3537 9.68766V1.25C75.3537 1.11193 75.4656 1 75.6037 1H86.7289C86.8669 1 86.9789 1.11193 86.9789 1.25V3.75005C86.9789 3.88812 86.8669 4.00005 86.7289 4.00005H78.2287C78.0907 4.00005 77.9787 4.11198 77.9787 4.25006V9.56265C77.9787 9.70073 78.0907 9.81266 78.2287 9.81266H84.8538C84.9919 9.81266 85.1038 9.92459 85.1038 10.0627V12.1877C85.1038 12.3258 84.9919 12.4377 84.8538 12.4377H78.2287C78.0907 12.4377 77.9787 12.5496 77.9787 12.6877V20.6254C77.9787 20.7634 77.8668 20.8754 77.7287 20.8754H75.6037C75.4656 20.8754 75.3537 20.7634 75.3537 20.6254V12.5413C75.3537 12.475 75.3273 12.4114 75.2804 12.3645L74.0575 11.1415C73.9499 11.0339 73.9625 10.856 74.0842 10.7647L75.2537 9.88766C75.3166 9.84045 75.3537 9.76635 75.3537 9.68766Z" stroke="#181C56" stroke-width="0.5625"/>
<path d="M137.23 9.68766V1.25C137.23 1.11193 137.342 1 137.48 1H148.98C149.118 1 149.23 1.11193 149.23 1.25V3.75005C149.23 3.88812 149.118 4.00005 148.98 4.00005H140.105C139.967 4.00005 139.855 4.11198 139.855 4.25006V9.37515C139.855 9.51322 139.967 9.62516 140.105 9.62516H146.73C146.868 9.62516 146.98 9.73709 146.98 9.87516V12.1877C146.98 12.3258 146.868 12.4377 146.73 12.4377H140.292C140.154 12.4377 140.042 12.5496 140.042 12.6877V18.0003C140.042 18.1384 140.154 18.2503 140.292 18.2503H148.98C149.118 18.2503 149.23 18.3622 149.23 18.5003V20.6254C149.23 20.7634 149.118 20.8754 148.98 20.8754H137.48C137.342 20.8754 137.23 20.7634 137.23 20.6254V12.5413C137.23 12.475 137.203 12.4114 137.157 12.3645L135.934 11.1415C135.826 11.0339 135.839 10.856 135.96 10.7647L137.13 9.88766C137.193 9.84045 137.23 9.76635 137.23 9.68766Z" stroke="#181C56" stroke-width="0.5625"/>
<path fill-rule="evenodd" clip-rule="evenodd" d="M30.1251 20.5278L33.4663 12.6415C33.5101 12.5381 33.4796 12.4182 33.3917 12.3483L32.1598 11.3692C32.0167 11.2554 32.0401 11.0316 32.2036 10.9498L34.3861 9.85855C34.445 9.82915 34.4898 9.77776 34.511 9.71551L37.4203 1.16944C37.4548 1.06812 37.55 1 37.657 1H40.3052C40.4092 1 40.5024 1.06441 40.5391 1.16174L47.8505 20.5371C47.9122 20.7006 47.7914 20.8754 47.6166 20.8754H45.1498C45.0464 20.8754 44.9536 20.8116 44.9165 20.7151L43.1647 16.1605C43.1276 16.064 43.0348 16.0003 42.9314 16.0003H35.2122C35.1087 16.0003 35.0159 16.064 34.9788 16.1605L33.2271 20.7151C33.1899 20.8116 33.0972 20.8754 32.9937 20.8754H30.3553C30.1763 20.8754 30.0553 20.6927 30.1251 20.5278ZM39.2176 5.91854C39.1333 5.70545 38.8307 5.70852 38.7508 5.92328L36.1034 13.038C36.0427 13.2014 36.1635 13.3752 36.3377 13.3752H41.7979C41.9743 13.3752 42.0953 13.1974 42.0304 13.0333L39.2176 5.91854Z" stroke="#181C56" stroke-width="0.5625"/>
<path fill-rule="evenodd" clip-rule="evenodd" d="M92.3762 20.5278L95.7174 12.6415C95.7612 12.5381 95.7307 12.4182 95.6428 12.3483L94.4109 11.3692C94.2678 11.2554 94.2912 11.0316 94.4547 10.9498L96.6373 9.85855C96.6961 9.82915 96.7409 9.77776 96.7621 9.71551L99.6714 1.16944C99.7059 1.06812 99.8011 1 99.9081 1H102.556C102.66 1 102.753 1.06441 102.79 1.16174L110.102 20.5371C110.163 20.7006 110.043 20.8754 109.868 20.8754H107.401C107.298 20.8754 107.205 20.8116 107.168 20.7151L105.416 16.1605C105.379 16.064 105.286 16.0003 105.183 16.0003H97.4633C97.3598 16.0003 97.2671 16.064 97.2299 16.1605L95.4782 20.7151C95.441 20.8116 95.3483 20.8754 95.2448 20.8754H92.6064C92.4274 20.8754 92.3064 20.6927 92.3762 20.5278ZM101.469 5.91854C101.384 5.70545 101.082 5.70852 101.002 5.92328L98.3545 13.038C98.2938 13.2014 98.4146 13.3752 98.5888 13.3752H104.049C104.225 13.3752 104.346 13.1974 104.282 13.0333L101.469 5.91854Z" stroke="#181C56" stroke-width="0.5625"/>
<path fill-rule="evenodd" clip-rule="evenodd" d="M116.604 1.25V9.69039C116.604 9.76753 116.569 9.84036 116.508 9.88773L115.171 10.9278C115.042 11.0279 115.042 11.2224 115.171 11.3225L116.508 12.3626C116.569 12.41 116.604 12.4828 116.604 12.56V20.6254C116.604 20.7634 116.716 20.8754 116.854 20.8754H118.979C119.118 20.8754 119.229 20.7634 119.229 20.6254V12.6877C119.229 12.5496 119.341 12.4377 119.479 12.4377H122.827C122.92 12.4377 123.006 12.4903 123.049 12.5739L127.222 20.7391C127.265 20.8227 127.351 20.8754 127.445 20.8754H129.884C130.07 20.8754 130.191 20.6779 130.106 20.5116L126.062 12.5997C126.013 12.5031 126.032 12.3858 126.108 12.3091L129.281 9.13587C129.328 9.08899 129.355 9.02539 129.355 8.95909V4.846C129.355 4.78424 129.332 4.72467 129.29 4.67876L126.054 1.08276C126.007 1.03008 125.939 1 125.868 1H116.854C116.716 1 116.604 1.11193 116.604 1.25ZM119.479 9.81266C119.341 9.81266 119.229 9.70073 119.229 9.56265V4.43756C119.229 4.29949 119.341 4.18756 119.479 4.18756H124.571C124.633 4.18756 124.692 4.21042 124.738 4.25174L126.459 5.8006C126.512 5.84801 126.542 5.91556 126.542 5.98643V7.66088C126.542 7.71859 126.522 7.77452 126.486 7.81919L124.93 9.72097C124.882 9.779 124.811 9.81266 124.736 9.81266H119.479Z" stroke="#181C56" stroke-width="0.5625"/>
</svg>
