<svg width="188" height="46" viewBox="0 0 188 46" fill="none" xmlns="http://www.w3.org/2000/svg">
<path d="M5.55369 8.35013L12.9856 2.1169C13.0757 2.04139 13.1894 2 13.3069 2H28.4431C28.5606 2 28.6743 2.04139 28.7644 2.1169L36.1963 8.35013C36.3096 8.44513 36.375 8.58539 36.375 8.73322V19.7717C36.375 19.9167 36.438 20.0546 36.5475 20.1495L39.7049 22.8859C39.9294 23.0805 39.9358 23.4266 39.7186 23.6293L36.5338 26.6017C36.4325 26.6963 36.375 26.8287 36.375 26.9673V37.0224C36.375 37.167 36.3124 37.3045 36.2034 37.3995L28.7662 43.877C28.6751 43.9563 28.5585 44 28.4378 44H13.3122C13.1915 44 13.0749 43.9563 12.9838 43.877L5.54661 37.3995C5.43758 37.3045 5.375 37.167 5.375 37.0224V26.9571C5.375 26.8245 5.32232 26.6973 5.22855 26.6036L2.24189 23.6169C2.0415 23.4165 2.04754 23.0898 2.25522 22.8969L5.21523 20.1484C5.31711 20.0538 5.375 19.921 5.375 19.782V8.73322C5.375 8.58539 5.44042 8.44513 5.55369 8.35013Z" stroke="#E04A5E" stroke-width="3"/>
<path d="M52.625 26.9463V43.5C52.625 43.7761 52.8489 44 53.125 44H58.375C58.6511 44 58.875 43.7761 58.875 43.5V15.0235C58.875 14.5016 59.5743 14.3288 59.8175 14.7907L68.7344 31.7329C68.8209 31.8972 68.9912 32 69.1769 32H75.3266C75.5104 32 75.6794 31.8992 75.7667 31.7374L84.935 14.7425C85.1815 14.2855 85.875 14.4607 85.875 14.9799V43.5C85.875 43.7761 86.0989 44 86.375 44H91.375C91.6511 44 91.875 43.7761 91.875 43.5V26.9571C91.875 26.8245 91.9277 26.6973 92.0214 26.6036L95.0081 23.6169C95.2085 23.4165 95.2025 23.0898 94.9948 22.8969L92.0348 20.1484C91.9329 20.0538 91.875 19.921 91.875 19.782V2.5C91.875 2.22386 91.6511 2 91.375 2H85.1726C84.9892 2 84.8205 2.10038 84.7331 2.26156L72.5645 24.69C72.3753 25.0387 71.8747 25.0387 71.6855 24.69L59.5169 2.26156C59.4295 2.10038 59.2608 2 59.0774 2H53.125C52.8489 2 52.625 2.22386 52.625 2.5V19.7929C52.625 19.9255 52.5723 20.0527 52.4786 20.1464L49.7157 22.9093C49.5255 23.0995 49.5199 23.406 49.7029 23.6031L52.4914 26.6061C52.5773 26.6986 52.625 26.8201 52.625 26.9463Z" stroke="#E04A5E" stroke-width="3"/>
<path d="M136.125 15.75H131.375C131.099 15.75 130.875 15.5261 130.875 15.25V12.2342C130.875 12.0858 130.809 11.9451 130.695 11.8501L126.514 8.36589C126.424 8.29101 126.311 8.25 126.194 8.25H118.073C117.946 8.25 117.823 8.29835 117.731 8.38523L114.033 11.8518C113.932 11.9464 113.875 12.0784 113.875 12.2166V16.0334C113.875 16.1716 113.932 16.3036 114.033 16.3982L117.731 19.8648C117.823 19.9516 117.946 20 118.073 20H128.933C129.057 20 129.176 20.0457 129.268 20.1284L136.459 26.601C136.565 26.6959 136.625 26.8309 136.625 26.9727V37.5158C136.625 37.6642 136.559 37.8049 136.445 37.8999L129.264 43.8841C129.174 43.959 129.061 44 128.944 44H114.056C113.939 44 113.826 43.959 113.736 43.8841L106.555 37.8999C106.441 37.8049 106.375 37.6642 106.375 37.5158V30.25C106.375 29.9739 106.599 29.75 106.875 29.75H112.375C112.651 29.75 112.875 29.9739 112.875 30.25V34.2717C112.875 34.4167 112.938 34.5546 113.048 34.6495L116.484 37.6278C116.575 37.7066 116.691 37.75 116.812 37.75H126.194C126.311 37.75 126.424 37.709 126.514 37.6341L130.695 34.1499C130.809 34.0549 130.875 33.9142 130.875 33.7658V29.9655C130.875 29.828 130.818 29.6965 130.718 29.602L126.52 25.6365C126.427 25.5488 126.304 25.5 126.176 25.5H115.317C115.194 25.5 115.074 25.4541 114.982 25.3711L107.54 18.6489C107.435 18.5541 107.375 18.4193 107.375 18.2779V8.97757C107.375 8.83299 107.438 8.69549 107.547 8.60053L114.984 2.12296C115.075 2.04367 115.191 2 115.312 2H128.933C129.057 2 129.176 2.04572 129.268 2.12835L136.459 8.60103C136.565 8.69586 136.625 8.83094 136.625 8.97268V15.25C136.625 15.5261 136.401 15.75 136.125 15.75Z" stroke="#E04A5E" stroke-width="3"/>
<path d="M154.761 27.0424L148.392 43.3178C148.264 43.6457 148.505 44 148.858 44H154.523C154.734 44 154.922 43.8672 154.994 43.6682L158.506 33.8318C158.578 33.6328 158.766 33.5 158.977 33.5H175.53C175.738 33.5 175.924 33.6281 175.998 33.822L179.752 43.678C179.826 43.8719 180.012 44 180.22 44H185.404C185.753 44 185.994 43.6513 185.872 43.3244L170.497 2.32444C170.423 2.12929 170.237 2 170.029 2H164.221C164.013 2 163.827 2.12929 163.753 2.32444L157.187 19.8348C157.147 19.9417 157.071 20.0317 156.973 20.0897L152.159 22.9342C151.885 23.0965 151.83 23.4711 152.047 23.7049L154.661 26.5199C154.792 26.6606 154.831 26.8636 154.761 27.0424Z" stroke="#E04A5E" stroke-width="3"/>
</svg>
