<?xml version="1.0" encoding="utf-8"?>
<!-- Generator: Adobe Illustrator 27.0.1, SVG Export Plug-In . SVG Version: 6.00 Build 0)  -->
<svg version="1.1" id="Layer_1" xmlns="http://www.w3.org/2000/svg" xmlns:xlink="http://www.w3.org/1999/xlink" x="0px" y="0px"
    width="16px" height="16px" viewBox="0 0 16 16" enable-background="new 0 0 16 16" xml:space="preserve">
    <path fill="#FFFFFF" d="M8,0C3.6,0,0,3.6,0,8s3.6,8,8,8s8-3.6,8-8S12.4,0,8,0z M11.2,7H9.9L8.6,4.1l0.6-1.5L11.2,7L11.2,7z
	 M3.7,12.5H2.4l5-11.3h1.3l-3.1,7L3.7,12.5z M12.4,12.5L11,9.4H6.3l0.5-1.2h4.9l0.5,1.2l1.4,3.1H12.4L12.4,12.5z" />
</svg>