<?xml version="1.0" encoding="UTF-8"?><svg id="Layer_1" xmlns="http://www.w3.org/2000/svg" width="200mm" height="200mm" viewBox="0 0 566.9291 566.9291"><path d="M240.2152,545.06c-6.4289-1.2817-7.7627-5.9582-9.382-11.139-3.7945-12.1404-6.7748-24.5693-12.0529-37.2638-3.1406,4.597-1.7248,9.2932-2.6431,13.4061-1.591,7.1253-2.0909,14.523-2.6549,21.8368-.2948,3.8229-1.4205,6.0802-5.5984,5.2391-3.7504-.7551-5.0057-2.2491-4.1864-6.8497,1.3738-7.7142,1.9678-15.6264,2.5299-23.5559-1.5653,6.6541-3.1131,13.3125-4.7033,19.9607-.8031,3.3577-2.5591,4.6632-6.4205,4.946-11.9416.8747-28.4382-9.1818-30.3364-23.5732-.3189-2.4178-1.2068-4.7605-1.9906-7.7423-3.5935,3.0537-6.2582,6.4447-10.4114,7.724-10.3682,3.1938-17.8186.5376-25.2188-9.0614-11.0016-14.2704-5.0639-45.077,10.164-54.8335,11.0129-7.0559,23.7957-1.6948,30.0366,8.1751,3.3876,5.3575,4.2771,11.492,4.5297,18.6174,9.5455-10.43,20.5181-9.8013,31.3898-5.2029,5.2099,2.2037,9.9476,5.3003,15.7759,6.013,2.5283.3091,3.3359,2.7241,4.222,5.0194,5.0798,13.1582,7.4231,27.2248,13.7791,41.1726,1.2589-9.4701,2.7547-17.9026,3.3408-26.3979.2673-3.8747,1.6615-7.5103,1.517-11.4374-.131-3.5625,2.8459-3.3415,5.0366-2.8527,2.226.4966,5.1895.642,4.6129,4.5497-2.5612,17.3587-4.9148,34.7481-7.4984,52.1033-.5078,3.4112.4164,7.0564-1.7318,10.6916-.6801.4551-1.1984.4551-2.1053.4551M161.049,462.4457c-.8419-1.7439-1.479-3.6281-2.5608-5.2078-4.9898-7.2866-12.0753-7.6619-17.8467-1.1411-7.7315,8.7356-10.0372,19.13-8.6745,30.3107,1.1878,9.7455,11.5927,14.8683,18.7939,9.7195,6.9516-4.9702,13.1574-24.1261,10.288-33.6814M174.7354,505.6968c3.1177,9.7236,8.2686,14.2539,16.9265,14.8873.2532-.2856.6566-.5346.7367-.8625,1.0083-4.128,2.6691-8.259,2.7184-12.4065.0383-3.2233-4.3254-3.2162-6.5355-4.9197-2.9405-2.2665-.3289-4.6721-.0186-6.8573.2949-2.0761,2.2911-1.8349,4.2484-1.4389,4.8562.9828,9.0868,4.1962,14.5066,4.245,1.3187-6.0311,3.5498-11.6244,2.6005-18.2146-2.5552,3.2085-3.4889.4118-4.8256-.9091-7.2023-7.118-19.2606-8.2364-23.9212-1.8059-5.8826,8.1166-8.7152,17.2253-6.4363,28.2823Z" fill="#fff"/><path d="M312.6118,545.06c-3.6521-5.1196-1.9928-11.0147-2.8774-16.5018-1.6862-10.4593-1.8375-21.1637-2.6838-31.7618-.3674-4.6016-1.5901-9.0982-1.2308-13.8073.2188-2.8671.6733-4.6578,4.0887-5.0232,5.5594-.5948,11.0338-2.1055,16.5968-2.5167,8.0455-.5947,15.2149-4.2492,22.9336-5.8368,15.3508-3.1574,21.4816,5.8508,21.0616,18.9624-.1312,4.0965-1.0331,8.524-4.582,11.8323,8.5743,7.5097,9.0416,19.076,15.2255,27.6165-7.3776,5.0363-9.6537,4.5073-12.977-2.6448-1.952-4.201-3.7322-8.4827-5.7228-12.6646-1.7542-3.6852-4.4491-4.7396-8.5635-3.5074-4.4965,1.3465-3.1256,4.71-2.5119,7.0823,1.446,5.5898,1.1119,11.5735,3.9123,16.8738.9988,1.8904.8194,3.849-2.0635,4.2367-2.2801.3067-4.3941,1.6279-7.2819.9984-2.8264-14.7129-5.9998-29.5943-8.4466-44.5943-1.4233-8.7251-1.2828-9.0922-10.2581-7.7885-3.616.5252-7.2443.9667-10.8513,1.4442-.2645.7884-.6801,1.3656-.5804,1.833.9245,4.3353-1.7573,9.7862,1.616,12.9161,3.4783,3.2274,8.3363-.0205,12.5528-.6418,4.0839-.6017,6.2008.9911,6.8603,4.978.6414,3.8774-1.2396,4.7628-4.7832,5.3575-14.7494,2.4753-14.6224,2.6121-12.5598,17.7576.4719,3.4651,2.5173,3.5331,4.9113,3.2554,3.8304-.4443,7.6808-.9194,11.4323-1.7775,3.204-.733,5.0118.4956,5.5845,3.3759.5688,2.8607.956,5.9754-3.2574,6.7098-6.4733,1.1284-12.9388,2.3015-19.8036,3.6461-2.0156.1905-3.6353.1905-5.7407.1905M350.4543,479.0952c-4.1888.7588-6.0671,2.5787-4.373,7.2357,1.0892,2.9942.9396,6.4187,1.5871,9.6011.4192,2.0601.901,4.0941,4.1079,3.4953,5.5164-1.0301,9.1661-5.3032,8.9075-11.0717-.2757-6.1503-2.9545-8.8182-10.2295-9.2604Z" fill="#fff"/><path d="M273.0241,545.06c-3.2598-3.7041-2.0812-7.3027-.3228-11.0923,2.6181.9414,5.0778,1.9424,7.6079,2.7119,5.7542,1.75,9.4113.1786,12.1892-4.6937,2.8754-5.0434.2657-8.6414-3.1782-11.6446-2.5884-2.2572-5.7743-3.8857-8.8332-5.5363-8.7677-4.7312-12.2698-15.7415-8.0542-25.7202,3.7949-8.9829,13.4937-12.8801,23.2862-9.357,4.5363,1.6321,5.0508,4.4626,1.8665,11.3116-2.326-.6862-4.7257-1.3151-7.0717-2.1036-4.224-1.4196-7.4326.4507-9.4846,3.6962-2.1259,3.3624-1.7344,6.9795,1.2241,10.1077,2.8705,3.0352,6.3703,5.0728,10.1465,6.6088,6.549,2.664,9.2369,7.6324,9.6924,14.452.5107,7.6441-.5212,14.685-6.135,20.8886-7.567.3709-14.977.3709-22.9332.3709Z" fill="#fff"/><path d="M366.712,224.2623c1.1419,1.2629,2.9509,1.9673,3.3791,4.3237-4.5046,1.3256-8.7932-.535-13.2923-.3996,5.7595,2.0244,11.4072,4.4908,17.3015,5.9819,12.6123,3.1907,23.2956,10.4413,34.8324,15.8792,3.3765,1.5915,5.6146,4.0719,1.1915,7.7673,10.9209,5.2262,21.6172,9.0964,32.3974,12.7676,3.4774,1.1842,6.9632,2.3755,10.3434,3.8043,3.6692,1.5509,4.3382,3.6666.4602,6.1955,4.3069,4.4521,11.3385,4.4846,16.3541,9.7618-5.045.9885-8.3879-1.1855-11.8716-2.0941-29.3863-7.6643-58.0092-17.9853-87.5084-25.2535-6.9319-1.708-13.983-2.9592-21.0153-4.2196-2.8509-.511-5.8668-.7398-8.2353,1.608-10.5201,10.4282-24.1582,13.4135-38.0023,15.4805-13.2136,1.9729-26.5174,3.471-39.9433,2.5508-.9418-.0645-1.881-.1677-3.0771-.2761,3.1793-2.8154,7.4436-3.3784,16.1153-4.1416,13.8471-1.2188,27.8515-2.1757,40.7152-8.2459,6.6984-3.1609,12.1641-7.7248,13.7092-15.492,1.0454-5.255-3.4559-11.0364-8.7947-11.3819-18.4569-1.1946-36.5289.5593-53.138,9.2859-10.5658,5.5515-19.0774,13.8136-26.1332,23.489-.6731.923-1.3672,1.8374-2.1346,2.6802-.1954.2146-.7094.1392-1.2275.2207-1.0342-2.7227,1.5166-5.0624.6881-8.7729-4.0483,3.922-7.8918,7.2589-11.2508,11.0276-2.4892,2.7929-5.3944,4.8114-8.9217,4.9197-19.3588.5943-38.5135,4.4972-57.9408,3.6395-6.7647-.2987-13.5095-1.3758-19.8395-3.9019-10.7287-4.2814-16.3291-14.5359-15.1906-28.0329,9.7436-1.2562,19.6396-2.5732,29.5481-3.7874,3.4942-.4282,5.9196,1.1192,7.4208,4.3642.8761,1.8938,1.8262,3.9238,4.7467,4.3786,1.6714-5.8038,6.0507-7.8753,12.3508-7.6227-2.9573-4.8308-1.9235-9.744-1.7322-14.6931-1.1406-1.1127-2.334-.7556-3.5336.0267.2006,2.3041.5016,4.5685.5733,6.84.138,4.3782-1.617,7.9386-6.1008,8.6381-5.6027.8741-3.1947-4.4528-4.7812-7.561-9.094,2.1784-18.4743,2.7813-27.8402,3.6089-5.1792.4576-10.435.3576-15.5613,1.7103-4.7031,1.241-5.1253,4.0455-2.5973,7.2422,3.0551,3.8633,4.9942,8.2635,7.069,12.5835,1.7158,3.5727,1.899,7.7872-.3508,11.0432-1.8659,2.7004-4.6855,5.474-9.2799,3.1638,1.0626-7.5492-.0348-14.6746-5.1466-21.0257-3.9394-4.8945-9.1517-6.9542-14.8365-8.3929-2.3871-.6041-4.0561.0368-4.5207,2.9558-1.3935,8.7568-3.145,17.4585-4.4382,26.2287-.5861,3.9746,1.443,6.2871,5.7253,6.1197,9.8687-.3856,19.737-1.0601,29.6069-1.0872,43.1287-.1184,86.2644-.4785,129.384.1593,18.1019.2678,36.1593,2.9484,54.2572,4.249,18.7099,1.3445,37.2283,4.057,55.7287,7.007,3.1097.4959,5.8069,1.701,8.9269,3.3572-4.1399,2.5383-8.0958,2.113-12.2753,2.7474,5.4132,1.1043,10.826,2.2099,16.2396,3.3122,1.8896.3848,3.7859.7385,5.6706,1.146,6.0371,1.3055,8.919,8.5262,5.5626,14.3737-3.5399-1.847-3.0624-8.0775-9.1769-7.7647-3.5758,11.9358-6.2219,24.2836-5.1786,37.1424.4227,5.2091,5.5512,4.1376,8.6914,5.0391,3.1201.8958,4.2111-1.9277,4.3389-4.7533.0961-2.1247.6422-4.0176,3.2031-3.9777,2.9012.0451,3.158,2.3502,3.3971,4.5372.021.1925.0737.412.0088.5791-3.2313,8.3226,2.4963,8.994,8.2233,9.5731,5.0006.5057,10.0111.9188,15.0208,1.3274,3.2655.2664,5.2266-.9185,5.1444-4.5711-.0298-1.3248.3851-2.6688.6631-3.9901,1.6654-7.9156,5.4733-10.625,13.2131-8.1315,5.468,1.7616,7.319-.7841,9.0738-4.9887,3.2894-7.8819,3.2437-16.714,7.2233-24.4079,2.3908-4.6222,12.648-9.374,17.3367-7.4443,4.5438,1.87,3.6573,6.5624,4.3003,10.1113,1.1372,6.2769-2.1362,11.1653-7.375,12.2385-2.8003-2.3369.2009-6.5016-3.0758-9.3338-5.5127,12.2818-6.8685,24.5562-4.6876,37.5038,1.3635-.2163,1.9705-.153,2.0752-.3529,1.7498-3.3412,3.9231-7.395,8.0974-5.3154,3.5705,1.7788,1.7239,6.1789,1.1161,9.4743-2.1702,11.7675-13.1834,16.2955-26.3788,17.5882-4.9216.4822-9.6331-.8552-14.4199-1.459-3.7994-.4793-5.4276-3.3618-6.113-6.8686-.9797-5.0132-3.9636-7.0926-9.1148-6.8951-4.6224.1772-9.2964.3776-13.8842-.9623-1.6158-.4719-3.4952-.3009-5.2166-.1005-4.3679.5085-5.5959,4.0536-6.0236,7.4931-.4088,3.2874,2.6932,3.005,4.8974,3.3669.972.1596,1.8891.4864,2.3272,2.3228-13.1696,1.9238-24.7425,10.1996-38.7641,8.9469-5.1536-.4604-9.7928-.8336-12.2232-6.6909-2.5589-6.1671-8.988-5.7857-14.1122-6.0175-24.7645-1.1204-49.5464-1.9592-74.3232-2.7725-43.3091-1.4215-86.5998-.3442-129.8931-.8795-5.3916-.0667-8.8249-4.0191-9.1028-10.8724-.173-4.2671-.0564-8.5495.0359-12.8228.0838-3.8822-1.5488-5.5771-5.5881-5.5527-6.7647.0407-13.5592.6208-20.2734-1.1067-5.5027-1.4158-8.8307-4.2996-10.9269-9.9333-5.2552-14.1237-4.8498-28.4031-2.8723-42.8923.0263-.1924-.0294-.4375.0696-.5726,6.8775-9.3759,6.129-20.7229,8.4344-31.3408,3.2746-15.082,13.1354-25.8874,25.1988-35.0511,11.909-9.0463,25.405-15.5647,37.4847-24.3604,6.8583-4.9938,13.2606-10.4301,17.8359-17.33,10.8565-16.3725,25.1725-29.8278,37.0383-45.3244,4.8017-6.2709,12.5346-7.6375,19.5003-9.4065,21.38-5.4296,43.1044-8.6396,65.2109-9.8827,15.9127-.8949,31.7144-1.9747,47.41,1.345,10.4839,2.2174,20.3553,6.3436,29.3363,12.135,19.8387,12.793,38.8185,26.8424,58.175,40.3408,17.4841,12.1927,33.1742,25.95,44.8426,43.9373,1.9451,2.9983,4.0866,5.9848,4.1578,10.4593-5.6364-2.6581-8.5633-7.4552-12.1034-11.299-13.9377-15.1331-29.5316-28.3253-45.5242-41.1825-13.9062-11.1799-28.3141-21.64-43.8334-30.3086-19.2024-10.7258-40.1022-15.9065-62.2159-16.2701-21.3715-.3515-42.6204.8262-63.5913,4.9127-8.6238,1.6805-17.0766,4.4981-24.8507,9.2989,31.2565-4.9103,62.4914-7.9614,94.0059-4.0972-.2147,7.2686-11.7948,1.5852-10.1057,10.0263-3.4725,2.0937-8.6804-.9191-10.7865,3.8188-.0322,2.4775,3.1866,1.8347,3.1583,4.7303-12.2099,7.4007-27.3719,9.0101-40.8106,17.3639,7.0669,3.1598,13.8969,5.7762,15.4745,14.4373-4.9266.4591-10.0181,1.4054-15.0944,1.3299-32.0741-.477-63.3378,4.2107-93.2584,15.7595-12.196,4.7074-23.5287,11.6122-32.761,22.288,3.2328,1.6374,5.9664.9812,8.4291.5981,18.3227-2.8505,36.5867-6.0845,54.9239-8.8338,25.5657-3.833,51.3647-4.955,77.1092-3.5494,24.0598,1.3137,48.0797,4.0363,71.583,9.7509,3.4763.8452,5.3744-1.7902,8.1779-1.7395,5.0442.0913,10.0859.3125,15.9017.6084,1.1912.3408,1.6094.5528,2.0275.7648M273.5497,346.7633c-16.58-1.9668-33.2578-.5707-49.9091-1.523-22.6438-1.2949-45.4197-.2823-68.1389-.2585-.7767.0008-1.5666-.075-2.3264.0413-.7415.1135-1.9334-.4214-2.0731,2.0986h35.6699c1.1396,3.1728-1.966,3.5039-1.6561,5.8264,2.6098.1553,5.2788.4768,7.9441.4488,51.8034-.5438,103.623,1.2488,155.4179-1.0826,3.9947-.1798,5.9821-1.5897,7.1017-5.2671,3.4154-11.2177,5.4772-22.8564,11.1261-34.2262-13.3398-.8414-25.9337-2.5203-38.6556-1.4975-2.4458.1967-4.4982,1.7576-4.8495,4.3609-.4246,3.1471-2.3825,3.4191-4.9264,3.5939-6.1089.4199-12.2013,1.0779-17.5514,1.5709,1.7613,10.9602-9.2275,7.5124-12.3674,12.2257,10.8463.7802,21.0655,5.1494,32.1433,5.8993-.6101,3.5994-3.5856,5.1203-2.8991,8.0588-14.6517,0-28.8162,0-44.0502-.2697M119.3401,328.6055c5.3768.52,10.8217,1.1791,16.1426,1.273,24.4272.4311,48.8662.1953,73.301.1794,1.5313-.001,3.6053.3052,4.2387-1.2478,2.119-5.1952,5.2449-10.057,6.4204-15.5505-2.9373-1.4468-5.3013-.9452-7.5881-.9972-23.6217-.536-47.1,3.3068-70.7407,2.333-3.4845-.1435-6.9866-.1378-10.4699.0258-6.4404.3025-12.1563,6.8219-11.3041,13.9842M271.2343,236.165c-19.3136-1.1993-38.6517-2.1549-57.8757.7823-8.1549,1.246-16.2352,2.89-25.8978,2.9558,4.6126,5.641.4946,11.2153.4911,17.082,2.8488-1.0579,3.896-2.519,4.2992-4.2381,1.1855-5.0547,4.7057-6.0068,9.355-6.8205,15.1857-2.6579,30.451-2.0512,45.7144-2.0939,1.1231-.0031,2.3739-.1577,3.2302,1.3536.895,3.3538-3.1738,5.9057-2.0436,11.0974,7.1302-8.2919,16.4-12.3972,22.7272-20.1187M382.2826,372.8607c.5334-6.0948-.8767-6.99-7.0852-4.4984,1.3922,5.6466,2.9632,6.854,7.0852,4.4984M367.7731,249.2604c2.7599-1.8288,2.203-3.1719-.8065-2.9536-2.4405.177-4.8327-.142-8.2226-.483,3.0351,2.4304,5.7576,2.7545,9.0291,3.4366Z" fill="#fff"/><path d="M59.7535,408.2487c1.1846-2.2034,2.2-4.0328,3.7355-6.7992-4.3095,1.8041-6.3097,4.65-8.4749,7.2316-6.7934,8.1001-21.2587,9.7732-28.553-2.3012-7.3638-12.1895-5.8774-26.1767,3.7616-36.9159,4.7906-5.3374,9.3669-10.8738,13.8886-16.4431,2.6454-3.2583.0016-11.4983-3.9214-12.7693-2.1134-.6847-3.2753.9323-4.4707,2.0647-8.721,8.2613-17.3673,16.6013-26.0474,24.9058-1.8632,1.7825-3.4962,4.8156-6.6317,2.1021-3.3584-2.9064-4.1746-8.5369-1.2293-10.8128,4.9517-3.8264,8.7352-9.0007,13.7397-12.5003,6.1502-4.3007,10.1255-10.5272,15.6422-15.3616,4.6212-4.0496-.2874-8.0806-2.5414-11.5967-2.2796-3.556-4.3869-6.7477.564-9.7352,2.5851-1.5599,4.4253-1.4518,6.1023,1.5938,4.1994,7.6266,9.0894,14.8899,12.9973,22.6538,2.3996,4.7672,5.7835,8.6828,8.7718,12.9437,2.0687,2.9497,2.2174,5.5984-.1969,8.4159-6.6761,7.791-13.3443,15.5904-19.8942,23.4871-3.4102,4.1114-5.6585,8.7375-5.5262,14.3193.1119,4.721,2.0339,8.4002,6.2822,10.2839,4.7058,2.0865,8.3058-.6265,11.1966-3.9589,7.9717-9.1893,15.7714-18.5278,23.5775-27.7347,4.7101,4.4701,9.594,8.4591,13.6401,13.168,2.7801,3.2354,6.5694,5.3872,8.7888,9.1876,4.7925,8.2062,6.1647,16.4865,1.7015,25.2966-2.0745,4.095-5.0766,6.791-9.6929,7.4689-1.7697.2599-3.7878.4241-3.9375,2.6669-.7009,10.5-7.1376,19.159-9.0002,29.316-6.2422-3.2011-7.9268-7.1937-6.2671-13.0933,1.4714-5.2305,4.3704-9.9192,5.3615-15.3476.3737-2.047.5139-3.7505-.4921-5.5447-1.3129-2.3416-2.1651-5.4739-5.3024-5.631-2.771-.1388-3.3066,2.8735-4.5144,4.7755-1.8723,2.9484-3.5833,6.0102-5.6163,8.8418-1.3473,1.8766-1.8018,6.2095-5.6106,3.5341-3.1932-2.2431-6.17-5.3034-3.3876-9.7763,3.6845-5.923,7.5817-11.7137,11.5567-17.9352M89.4093,403.5935q-6.2472-10.1875-13.0753-.7983c-.7981,1.0985-1.4842,2.278-2.2758,3.3814-1.2166,1.6958-.9229,3.0577.4208,4.6569,2.5761,3.0661,5.3307,6.3553,9.6521,4.7868,4.9586-1.7999,7.0601-5.8269,5.2783-12.0267Z" fill="#fff"/><path d="M460.2374,401.6285c3.4469-3.1645,6.4999-6.1476,9.6904-8.9756,1.8573-1.6463,3.5549-4.7822,6.5024-1.0945,2.3794,2.9769,4.3144,5.939.3026,8.8735-3.9555,2.8933-7.2632,6.3748-10.3838,10.0866-1.8131,2.1565.1801,10.1098,3.3805,12.5202,3.5214,2.6521,4.5784-1.2337,6.3983-2.7903,1.9128-1.6362,3.558-3.5818,5.4345-5.2648,1.751-1.5705,3.5623-4.7694,6.1478-2.0032,2.2249,2.3803,4.6783,5.5595.9637,9.0146-3.102,2.8853-6.0551,5.9318-9.1842,8.7862-2.3775,2.1689-2.6712,4.0444-.8453,7.0097,6.4905,10.5409,6.3283,10.5992,15.3168,2.323,2.5296-2.3291,4.9327-4.911,8.4175-6.012,2.5689,1.6268,3.0658,4.4176,6.2662,8.6882-7.2886,6.39-14.6314,12.7195-21.843,19.1951-3.6585,3.2851-5.5697.7777-7.2882-2.0034-4.07-6.5864-7.9841-13.2689-11.9785-19.9022-3.281-5.4487-6.5868-10.8824-9.7431-16.094-18.2842-.901-27.39,22.8298-18.0504,35.3672,1.9358,2.5986,2.9159,5.849,5.0548,8.4514,5.5106,6.7045,13.5046,7.1302,19.502.7778,2.6401-2.7965,5.1566-5.7096,7.695-8.5316,7.2156,4.1267,7.8934,7.5227,2.3906,12.9971-3.5553,3.537-7.1545,7.2624-11.762,9.3503-11.9999,5.4378-20.2835,1.9962-27.376-7.9411-9.1082-12.7614-10.927-27.4816-5.3056-42.5586,2.6214-7.031,8.0054-12.0868,14.1867-15.5563,4.3391-2.4355,7.9977-4.7474,10.46-9.1673,1.1706-2.1012,3.5062-3.5534,5.6502-5.546Z" fill="#fff"/><path d="M417.4978,97.1528c.538,4.4917,1.0751,8.4737,1.6834,12.9838,8.0123-11.8546,12.9117-24.7619,19.6878-36.6528,1.0429-1.8301,1.5994-4.7257,4.1201-4.134,3.0994.7276,6.5038,1.4391,8.8722,3.9245.8446.8863.3236,2.1467-.2547,3.2441-9.8088,18.6144-19.6257,37.2248-29.3321,55.8926-1.1388,2.1902-2.5052,3.871-4.816,2.501-3.3173-1.9667-8.4712-1.2882-9.0612-7.3564-1.5881-16.3354-4.7722-32.4888-5.8881-48.8922-.0471-.6918-.6093-1.3485-1.5437-3.3005-7.7723,14.8417-15.0753,28.7871-22.3447,42.6685-.8746.0499-1.4923.2554-1.9827.0881-10.1421-3.4617-10.3572-4.1098-5.3412-13.5961,8.3357-15.7644,16.6317-31.5499,24.898-47.3508,1.3904-2.6577,2.6958-5.7998,6.3687-4.2025,3.5284,1.5343,8.508.8183,9.2419,7.0579,1.4421,12.2586,3.7447,24.416,5.6922,37.1249Z" fill="#fff"/><path d="M44.506,87.9605c-1.8679-8.164-.6699-11.4817,4.9924-14.847,4.8506-2.8829,11.0561-2.2811,15.1517,1.3465,2.0093,1.7797,3.4439,3.8051,2.9568,6.5626-.8527,4.8271,1.7503,7.3479,5.4728,9.7551,19.1699,12.3965,38.2221,24.9752,57.3017,37.5111.7665.5036,1.3948,1.2176,2.0716,1.8193-5.7022,7.4049-9.7189,8.1408-16.8696,3.2857-13.495-9.1626-13.425-9.047-27.981-.2246-3.7991,2.3026-4.9502,4.7117-3.307,8.8536,1.3499,3.4026,2.2295,6.9976,3.2279,10.5326,1.4734,5.217-.3694,8.0975-6.4166,9.8275-4.9558,1.4177-4.8114-3.106-5.6084-5.5697-6.4181-19.8401-12.6616-39.7385-18.7097-59.6946-.8766-2.8925-1.8761-4.1739-4.9906-4.2677-3.0006-.0904-5.4838-1.7506-7.292-4.8904M76.1422,107.0066c-1.001-.457-2.0021-.9141-3.9914-1.8223,2.2758,7.3307,4.2783,13.781,6.3466,20.4435,5.5267-1.6174,9.193-4.5208,13.4268-8.1494-5.3361-3.584-10.2174-6.8626-15.782-10.4718M56.8715,85.0607c2.3543-1.5957,2.3603-3.3146.1276-4.9649-1.526-1.128-3.1553-.7062-3.8515.8738-1.2037,2.7319.7239,3.7007,3.7239,4.0911Z" fill="#fff"/><path d="M516.5856,133.0157c-2.6216,18.072-27.6636,36.8179-49.9397,29.8172-11.8698-3.7303-21.804-10.6484-31.475-18.1065-2.269-1.7498-1.766-3.4261-.0475-5.3552,8.4563-9.4925,16.8208-19.0667,25.2445-28.5884,5.3617-6.0606,10.8812-11.9859,16.1032-18.1636,2.1087-2.4947,4.1059-3.1275,7.0453-1.7206,11.8037,5.6499,22.5473,12.6141,30.2,23.5771,3.8791,5.5571,2.6832,11.8894,2.8693,18.5401M453.7067,144.2105c5.3071,5.2335,11.7212,7.9484,19.113,8.6361,12.6697,1.1788,20.6148-6.4159,27.6873-15.1666,5.4641-6.7606,4.9512-16.7837-1.1679-22.8727-2.9511-2.9366-6.2023-5.6948-9.715-8.1508-4.2534-2.9738-6.937-1.9418-9.8134,1.6478-2.4116,3.0096-5.2059,5.7089-7.7366,8.6272-6.3206,7.2886-12.5812,14.6293-18.8814,21.9356-1.3904,1.6125-2.4236,3.1767.514,5.3434Z" fill="#fff"/><path d="M363.0161,84.8632c-4.9212,25.7654-31.0066,27.1559-46.4663,18.6093-8.633-4.7726-12.0345-13.8679-10.4544-23.5855,2.2317-13.7252,5.6974-27.2454,8.1951-40.9335,1.3096-7.1768,5.9012-4.262,9.6559-3.7525,4.5978.6239,3.7931,3.9456,3.172,7.1455-2.6135,13.4637-6.8186,26.6581-7.5095,40.4433-.4188,8.3557,3.1238,12.7458,10.8708,14.9375,5.6722,1.6047,12.7095-1.6232,16.4907-7.2556,2.578-3.8402,3.3453-8.2292,4.3548-12.5436,2.4657-10.5371,4.8007-21.1048,7.1623-31.6661,1.6328-7.3016,6.7007-2.9063,10.3119-2.8988,3.9531.0082,3.2933,2.9274,2.698,5.4833-2.7623,11.8596-5.5436,23.7148-8.4813,36.0167Z" fill="#fff"/><path d="M421.3243,488.1998c-4.6158-12.0979-9.0879-23.7663-13.5601-35.4348l-.7973.1957c0,19.7887-.0503,39.5775.0478,59.3657.017,3.4368-.5522,6.1014-4.2476,7.2688-2.8293.8939-4.3736.907-6.3623-2.3695-9.5275-15.6975-19.6563-31.03-29.557-46.5015-.9157-1.4309-1.7297-2.9269-2.5731-4.3625,9.1227-6.1058,9.456-6.1239,14.8477,2.5937,5.9869,9.6802,11.3288,19.7604,18.6111,29.8516.0748-9.44.6766-17.9632-.3886-26.6134-.8014-6.5076-.3305-13.173-.3955-19.7684-.0056-.5658.0215-1.4262.3648-1.657,4.8736-3.278,9.7088-6.6352,14.7796-9.5843,1.5275-.8883,2.571.6727,3.2113,2.3729,6.69,17.761,13.5743,35.4493,20.1904,53.2375,2.2344,6.0075-3.9943,5.1268-6.3435,8.3075-3.4848-5.8109-5.9181-10.9792-7.8278-16.9021Z" fill="#fff"/><path d="M175.2392,65.9994c-1.6131-7.6238-4.5617-14.4137-5.5165-22.3016,7.9131-2.6886,16.4256-3.0622,24.555-5.0909,2.8085-.7009,5.633-1.3379,8.4424-2.0352,9.6791-2.4023,10.0883-2.1054,11.1691,8.8139-5.5518,1.0889-11.1747,2.1987-16.8021,3.285-.5665.1094-1.1872-.0222-1.7369.127-3.4832.9454-8.1066,1.3297-9.2398,4.8441-1.3606,4.2196,1.5447,8.4717,3.1666,12.5164.6642,1.6564,2.4532,1.3722,4.0994,1.0282,5.1014-1.066,10.2359-1.9743,15.3603-2.9292,8.6421-1.6104,9.0241-1.2979,9.9541,8.263-5.9152,2.2516-12.2092,3.0719-18.4317,4.2006-7.7434,1.4046-8.304,2.2477-6.7567,9.8471.2309,1.134.3328,2.2992.6287,3.4144,2.1783,8.2108,2.1492,8.0326,10.1899,6.2079,6.5779-1.4927,13.2532-2.5761,19.9104-3.691,2.8704-.4807,4.3792.945,4.3586,3.931-.018,2.6022,2.1624,6.0731-2.4473,6.8951-12.3566,2.2032-24.7544,4.1794-37.094,6.4713-3.5762.6643-3.8575-1.6509-4.3903-3.8782-3.1436-13.1401-6.2307-26.2938-9.4191-39.919Z" fill="#fff"/><path d="M251.5672,68.2877c-6.8005-3.3169-12.6118-6.6083-13.4066-15.0318-1.3104-13.8878,8.2104-19.6714,18.7835-21.399,6.0709-.992,12.3729-.7434,18.468.9939,3.2455.9251,5.2253,2.4402,4.0836,6.2093-.9954,3.2859-2.1701,5.7979-6.4913,4.0747-4.0152-1.6011-8.3469-1.6572-12.6267-1.3882-4.7172.2965-8.4126,2.5329-9.388,7.2228-1.0156,4.883,2.6897,7.4116,6.4855,9.1903,5.7564,2.6974,11.7753,4.8451,17.4799,7.6403,7.7545,3.7997,10.6333,10.4389,9.5175,18.7857-.9997,7.4784-6.2327,12.2845-12.3972,15.0177-10.1357,4.4938-20.8184,3.2499-31.3144.3176-4.7572-1.329-3.027-4.5354-2.3311-7.4147.7993-3.307,2.6098-4.284,6.0212-2.9491,7.0002,2.7392,14.148,3.9939,21.4901.9319,6.6911-2.7905,7.8806-9.1616,2.7966-14.3729-4.6518-4.7684-11.334-4.7704-17.1704-7.8285Z" fill="#fff"/><path d="M515.2681,407.0878c-5.8195-13.9615-11.0271-27.7159-17.3119-40.9592-2.1717-4.5763-1.1692-7.0718,1.607-10.075,1.0422-1.1274,2.0754-2.2633,3.1257-3.4094,8.9486,2.9138,15.906,9.0436,24.0715,12.9725,7.6286,3.6706,14.7681,8.3651,22.0807,12.6804,2.0958,1.2368,4.8517,2.2235,2.592,5.6869-1.9524,2.9925-3.0474,7.2825-8.0328,4.8384-2.7663-1.3562-5.4289-3.0197-7.8914-4.8727-2.4167-1.8186-4.1488-1.8025-5.5945.9682-.0897.1719-.1585.3733-.2939.5-7.1579,6.6985-8.9097,13.9056-2.8227,22.4401,4.2158,5.911,1.3848,10.6734-3.9734,15.2528-3.5457-4.8637-5.0451-10.4535-7.5563-16.0231M519.3484,374.4847c-2.2837-1.6533-4.5884-3.2553-7.9885-3.5587,1.2129,5.341,2.7247,9.9484,6.2286,14.5648,1.2167-3.8733,8.3911-5.4503,1.7599-11.0061Z" fill="#fff"/><path d="M123.5616,438.0936c1.5643-1.4799,2.8493-2.661,4.0968-3.8805,6.7541-6.6023,7.9242-6.4372,13.29,2.0597-7.5427,9.0065-16.5904,16.6175-24.682,25.1577-4.7964,5.0623-9.7207,10.0072-14.6998,14.8905-1.4289,1.4015-3.1476,3.7035-5.4001,1.7446-2.3127-2.0113-6.5316-3.0246-5.7149-7.2386,4.1706-21.5195,7.7758-43.1617,13.4365-64.3692,6.4393,1.4401,8.5305,4.5971,7.2965,10.4143-2.4409,11.5067-4.8024,23.0306-7.0926,34.5682-.3177,1.6006-.0439,3.3188-.0439,6.2602,7.0273-7.0671,13.1221-13.1965,19.5135-19.6068Z" fill="#fff"/><path d="M119.2984,62.4943c8.3501,17.2393,16.4352,34.1125,24.5491,51.0463,7.9651-.9543,14.3852-5.3147,21.5681-7.5025,8.9008-2.7111,9.3017-2.7654,11.4789,7.2714-10.4996,3.9487-21.0472,8.0896-31.7209,11.8747-8.5743,3.0407-8.8232,2.9378-12.6818-4.9635-8.236-16.8647-16.281-33.8229-24.3483-50.7694-.6507-1.3668-.8719-2.938-1.3998-4.7899,4.2636-.7782,7.308-5.7099,12.5547-2.1671Z" fill="#fff"/><path d="M548.0171,372.1511c-1.163-2.3798-.9144-4.0054,1.0773-5.3682,4.1578-2.8449,6.1878-7.2429,8.4987-11.5257,2.2215-4.117,1.4803-7.2123-1.6683-10.3824-3.343-3.3658-6.3468-1.6652-9.3873.2025-1.3097.8045-2.4521,1.8967-3.6167,2.9194-5.1618,4.5327-10.8137,7.1473-17.4349,3.3828-6.1343-3.4877-9.4805-12.4267-8.1672-19.7427,1.3152-7.3266,4.9759-13.2875,9.7439-18.8057,1.8416-2.1313,3.6433-3.4499,5.5088-.6922,1.6015,2.3676,5.8356,4.8754,1.7248,8.1961-3.2784,2.6483-5.7521,5.4517-7.1215,9.541-1.2781,3.8167-.9818,6.8667,2.2472,9.2985,3.3896,2.5526,6.2153.8977,8.7481-1.5774,3.5428-3.4621,7.3663-6.171,12.6146-6.3788,7.8941-.3125,13.7551,3.2034,15.2972,11.1173,2.4288,12.4654.2091,26.7001-14.2386,35.0225-2.453-.6593-2.6743-3.0425-3.826-5.2069Z" fill="#fff"/><path d="M367.1069,224.2169c-.813-.1666-1.2312-.3786-1.8492-.6963-4.917-2.2266-9.9386-2.1499-14.9492-2.1428-1.8431.0026-3.7307-.3746-4.2954-2.2514-.6597-2.1925,1.9263-1.8464,2.9797-2.6349-.7016-1.3639-2.5835-.3146-2.8618-1.9274,5.7141-5.7319,19.4216-4.8554,23.0009,2.2209-5.3768.6048-10.3456-2.8381-16.4201-.4012,4.9758.6913,9.0517,1.0407,13.0276,1.8698,4.1342.8621,4.5924,2.7739,1.3675,5.9632Z" fill="#fff"/></svg>