<svg width="77" height="13" viewBox="0 0 77 13" fill="none" xmlns="http://www.w3.org/2000/svg">
<path fill-rule="evenodd" clip-rule="evenodd" d="M70.7179 2.16634H72.1195C72.6131 2.16634 73.0134 2.57106 73.0134 3.07147C73.0134 3.57148 72.6131 3.9766 72.1195 3.9766H70.7179V2.16634ZM75.923 9.29693L73.7196 5.36938C74.7974 4.89488 75.0884 4.00092 75.0884 2.91317C75.0884 1.74088 74.4118 0.488854 72.3152 0.488854H68.5998V9.30092H70.7171V5.65448H71.8826L73.6227 9.29693H75.923ZM52.0159 9.3013L47.1147 3.70703V9.3013H44.9974V0.488434H46.7048L51.0598 5.46148V0.488434H53.1771V9.3013M26.3653 9.3013L21.464 3.70703V9.3013H19.3467V0.488434H21.0545L25.4087 5.46148V0.488434H27.5268V9.3013M4.56276 6.65689C4.56276 7.20993 4.11935 7.65851 3.57308 7.65851H2.31667V5.65447H3.57269C4.11896 5.65447 4.56276 6.10264 4.56276 6.65529V6.65689ZM2.31667 2.13123H3.22858C3.74135 2.13123 4.15684 2.5523 4.15684 3.07065C4.15684 3.58981 3.74135 4.01127 3.22858 4.01127H2.31667V2.13123ZM6.73867 6.85067C6.73867 5.06433 5.41484 4.58385 5.41484 4.58385C5.41484 4.58385 6.1896 4.12531 6.1896 2.96618C6.1896 1.64517 5.46789 0.489233 3.37054 0.489233H0.199371V9.30211H4.21465C5.55043 9.30211 6.73867 8.35151 6.73867 6.85067ZM31.481 9.3013V0.488434H36.7085V2.22852H33.5991V3.8781H36.1283V5.61819H33.5991V7.56204H36.8078V9.30172" fill="white"/>
<path fill-rule="evenodd" clip-rule="evenodd" d="M60.8826 7.51379C59.4392 7.51379 58.2681 6.32954 58.2681 4.86817C58.2681 3.4072 59.4384 2.22256 60.8822 2.22256C62.3257 2.22256 63.4968 3.40681 63.4968 4.86817C63.4968 6.32954 62.3265 7.51379 60.8826 7.51379ZM60.8822 0.199371C58.3347 0.199371 56.2693 2.28955 56.2693 4.86857C56.2693 7.4468 58.3347 9.53698 60.8826 9.53698C63.4306 9.53698 65.496 7.4468 65.496 4.86778C65.496 2.28995 63.4302 0.199371 60.8822 0.199371Z" fill="white"/>
<path fill-rule="evenodd" clip-rule="evenodd" d="M10.9146 5.62977V3.8845C10.9146 2.90281 11.7009 2.10733 12.6711 2.10733H12.6726C13.6427 2.10733 14.429 2.90281 14.429 3.8845V5.62977H10.9146Z" fill="white"/>
<path fill-rule="evenodd" clip-rule="evenodd" d="M10.1965 7.133L6.16327 12.8006H8.78416L11.8576 7.133" fill="white"/>
<path fill-rule="evenodd" clip-rule="evenodd" d="M15.148 7.133H13.4873L16.5595 12.8006H19.1812" fill="white"/>
</svg>
