<?xml version="1.0" encoding="utf-8"?>
<!-- Generator: Adobe Illustrator 26.3.1, SVG Export Plug-In . SVG Version: 6.00 Build 0)  -->
<svg version="1.1" id="a" xmlns="http://www.w3.org/2000/svg" xmlns:xlink="http://www.w3.org/1999/xlink" x="0px" y="0px"
	 width="16px" height="16px" viewBox="0 0 16 16" style="enable-background:new 0 0 16 16;" xml:space="preserve">
<path style="fill:#FFFFFF;" d="M0.2,6.4C0.1,6.9,0,7.4,0,8c0,0,0,0.1,0,0.1c1.1-0.3,2.1-0.5,3.2-0.6C2.3,6.9,1.2,6.6,0.2,6.4"/>
<path style="fill:#FFFFFF;" d="M0.2,9.9c0.6,2.4,2.2,4.4,4.5,5.4C4.4,12.7,2.6,10.6,0.2,9.9"/>
<path style="fill:#FFFFFF;" d="M8,0C4.9,0,2.2,1.8,0.9,4.4C2.2,4.1,3.5,4,4.9,4c0.9,0,1.9,0.1,2.8,0.2c0.2-0.3,0.6-0.4,1-0.4
	c0.5,0,1,0.3,1.2,0.9c0.6,0.1,1.2,0.3,1.8,0.5l0,0c0,0,0.1,0,0.2,0.1l-0.7,0.7c-0.5-0.2-1-0.3-1.5-0.4c-0.1,0-0.2-0.1-0.4-0.1
	C9.3,5.4,9.1,5.4,9,5.3c0-0.1,0.1-0.2,0.1-0.2c0-0.2-0.1-0.4-0.3-0.4c0,0-0.1,0-0.1,0c0,0,0,0-0.1,0c-0.2,0-0.4,0.2-0.4,0.4
	c0,0,0,0.1,0,0.1c-0.1,0-0.3,0-0.4-0.1c-0.1,0-0.3,0-0.4-0.1C6.6,5,5.7,4.9,4.9,4.9c-1.5,0-3,0.2-4.4,0.5c0,0,0,0.1,0,0.1
	c1.6,0.3,3.1,1,4.3,1.9h0c0,0,0.1,0,0.1,0c2.3,0,4.6,0.5,6.8,1.4l1-1c-0.7-0.4-1.4-0.6-2.2-0.9l-0.1,0L11,6.2l0,0
	c0.9,0.3,1.7,0.7,2.5,1.1l0.5,0.3l-0.6,0.6l-1.7,1.7l-0.3-0.1C9.7,8.9,7.8,8.4,5.8,8.3c0,0,0.1,0.1,0.1,0.1c2,2,3.1,4.7,3.1,7.5
	c3.9-0.5,7-3.9,7-7.9C16,3.6,12.4,0,8,0"/>
<path style="fill:#FFFFFF;" d="M8.1,16c0-3-1.4-5.8-3.7-7.7C3,8.3,1.6,8.6,0.2,9c1.5,0.4,2.8,1.3,3.8,2.5c1,1.2,1.5,2.7,1.6,4.2
	C6.4,15.9,7.2,16,8,16C8,16,8.1,16,8.1,16L8.1,16L8.1,16L8.1,16z"/>
</svg>
