<?xml version="1.0" encoding="utf-8"?>
<!-- Generator: Adobe Illustrator 26.3.1, SVG Export Plug-In . SVG Version: 6.00 Build 0)  -->
<svg version="1.1" id="Layer_1" xmlns="http://www.w3.org/2000/svg" xmlns:xlink="http://www.w3.org/1999/xlink" x="0px" y="0px"
	 width="49.8px" height="16px" viewBox="0 0 49.8 16" style="enable-background:new 0 0 49.8 16;" xml:space="preserve">
<g>
	<path style="fill:#FFFFFF;" d="M23.5,8c0.8-0.2,1.2-0.9,1.2-1.7c0-1.2-0.9-2.1-2.3-2.1h-3.1v8.3h2.9c1.8,0,2.7-1,2.7-2.4
		C25,9.1,24.5,8.3,23.5,8L23.5,8z M20.5,5.2h1.7c0.9,0,1.3,0.5,1.3,1.3c0,0.7-0.4,1.2-1.3,1.2h-1.8L20.5,5.2L20.5,5.2z M22.2,11.4
		h-1.6V8.6h1.8c1,0,1.5,0.6,1.5,1.4C23.9,10.8,23.3,11.4,22.2,11.4L22.2,11.4z"/>
	<path style="fill:#FFFFFF;" d="M27.1,7.7V6.5H26v5.9h1.1V9.3c0-1.1,0.5-1.8,1.2-1.8c0.4,0,0.7,0.1,0.9,0.3v-1
		c-0.2-0.2-0.5-0.3-0.8-0.3C27.8,6.4,27.3,6.9,27.1,7.7z"/>
	<path style="fill:#FFFFFF;" d="M31.9,6.3c-0.8,0-1.5,0.3-2,0.7v1.1c0.5-0.5,1.1-0.8,1.8-0.8c1,0,1.6,0.6,1.6,1.6v0.5
		c-0.3-0.4-0.8-0.7-1.6-0.7c-1.3,0-2.1,0.8-2.1,1.9c0,1.1,0.9,1.9,2.1,1.9c0.8,0,1.4-0.4,1.7-1v0.8h1.1V8.8
		C34.4,7.3,33.5,6.3,31.9,6.3L31.9,6.3z M32,11.7c-0.8,0-1.3-0.4-1.3-1.1c0-0.7,0.5-1.1,1.3-1.1c0.8,0,1.3,0.4,1.3,1.1
		C33.4,11.2,32.9,11.7,32,11.7L32,11.7z"/>
	<polygon style="fill:#FFFFFF;" points="40.4,6.5 38.9,6.5 36.6,9 36.6,4.1 35.5,4.1 35.5,12.4 36.6,12.4 36.6,9.5 39.1,12.4 
		40.6,12.4 37.6,9.2 	"/>
	<path style="fill:#FFFFFF;" d="M42.9,6.3c-0.8,0-1.5,0.3-2,0.7v1.1c0.5-0.5,1.1-0.8,1.8-0.8c1,0,1.6,0.6,1.6,1.6v0.5
		C44,9,43.5,8.7,42.7,8.7c-1.3,0-2.1,0.8-2.1,1.9c0,1.1,0.9,1.9,2.1,1.9c0.8,0,1.4-0.4,1.7-1v0.8h1.1V8.8
		C45.4,7.3,44.4,6.3,42.9,6.3L42.9,6.3z M43,11.7c-0.8,0-1.3-0.4-1.3-1.1c0-0.7,0.5-1.1,1.3-1.1c0.8,0,1.3,0.4,1.3,1.1
		C44.3,11.2,43.8,11.7,43,11.7L43,11.7z"/>
	<path style="fill:#FFFFFF;" d="M49,6.4c-0.6,0-1.1,0.4-1.4,1.3V6.5h-1.1v5.9h1.1V9.3c0-1.1,0.5-1.8,1.2-1.8c0.4,0,0.7,0.1,0.9,0.3
		v-1C49.5,6.5,49.3,6.4,49,6.4z"/>
</g>
<g>
	<path style="fill:#FFFFFF;" d="M0.2,6.4C0.1,6.9,0,7.5,0,8.1c1.1-0.3,2.1-0.5,3.2-0.6C2.3,6.9,1.2,6.6,0.2,6.4z"/>
	<path style="fill:#FFFFFF;" d="M0.2,9.9c0.6,2.4,2.2,4.4,4.5,5.4C4.4,12.7,2.6,10.6,0.2,9.9z"/>
	<path style="fill:#FFFFFF;" d="M8,0C4.9,0,2.2,1.8,0.9,4.4C3.1,4,5.4,3.9,7.7,4.2c0.2-0.3,0.6-0.4,1-0.4c0.5,0,1,0.3,1.2,0.9
		c0.7,0.2,1.4,0.3,2,0.6l-0.7,0.7C10.5,5.7,9.8,5.5,9,5.3c0-0.1,0.1-0.2,0.1-0.2c0-0.2-0.2-0.4-0.4-0.4c-0.2,0-0.4,0.2-0.4,0.4
		c0,0,0,0.1,0,0.1l0,0C5.6,4.7,3,4.8,0.4,5.4c0,0,0,0.1,0,0.1c1.6,0.3,3.1,1,4.3,1.9c2.4,0,4.7,0.4,6.9,1.4l1-1
		c-0.7-0.4-1.5-0.7-2.3-0.9L11,6.2c1.1,0.4,2.1,0.9,3.1,1.4c-0.4,0.4-1.9,1.8-2.3,2.2C9.9,9,7.9,8.4,5.8,8.3c2.1,2,3.2,4.7,3.2,7.6
		c3.9-0.5,7-3.9,7-7.9C16,3.6,12.4,0,8,0z"/>
	<path style="fill:#FFFFFF;" d="M4.4,8.3C3,8.4,1.6,8.6,0.2,9C1.7,9.4,3,10.2,4,11.4c1,1.2,1.5,2.7,1.6,4.2C6.4,15.9,7.3,16,8.1,16
		v0C8.1,13,6.8,10.2,4.4,8.3L4.4,8.3z"/>
</g>
</svg>
