<?xml version="1.0" encoding="utf-8"?>
<!-- Generator: Adobe Illustrator 24.0.1, SVG Export Plug-In . SVG Version: 6.00 Build 0)  -->
<svg version="1.1" id="Layer_1" xmlns="http://www.w3.org/2000/svg" xmlns:xlink="http://www.w3.org/1999/xlink" x="0px" y="0px"
	 width="90px" height="16px" viewBox="0 0 90 16" enable-background="new 0 0 90 16" xml:space="preserve">
<polygon fill="#FFFFFF" points="55.2024918,3.039175 53.4132271,4.2302771 53.4132271,6.7659993 52.1793137,6.7659993 
	52.1793137,8.3701324 53.4132271,8.3701324 53.4132271,15.7531748 55.2024918,15.7531748 55.2024918,8.3701324 
	56.8681946,8.3701324 56.8681946,6.7659993 55.2024918,6.7659993 "/>
<path fill="#FFFFFF" d="M84.85466,6.5603328c-2.5705185,0-4.6888809,2.1183209-4.6888809,4.6889224
	c0,2.5707283,2.1183624,4.7095432,4.6888809,4.7095432c2.5708542,0,4.6685104-2.1388149,4.6685104-4.7095432
	C89.5231705,8.6786537,87.4255142,6.5603328,84.85466,6.5603328z M84.85466,14.31355
	c-1.7069473,0-2.8380127-1.3573923-2.8380127-3.0642948c0-1.6657438,1.1310654-3.0436735,2.8380127-3.0436735
	c1.7276459,0,2.8174667,1.3779297,2.8174667,3.0436735C87.6721268,12.9561577,86.5823059,14.31355,84.85466,14.31355z"/>
<path fill="#FFFFFF" d="M34.9374199,0c-1.7069435,0-2.5090752,1.0899447-2.5090752,3.2082233v3.557776h-1.2339153v1.6041331
	h1.2339153v7.3830423h1.8097992V8.3701324h1.6658707V6.7659993h-1.6658707V3.0437152
	c0-0.8843203,0.3701744-1.3985084,1.0489159-1.3985084c0.1850014,0,0.3907089,0.0206218,0.5964203,0.0822752L36.0891876,1.78311
	V0.1549184C35.6682663,0.0402677,35.2354622,0,34.9374199,0z"/>
<path fill="#FFFFFF" d="M75.4706192,6.5603328c-1.2544556,0-1.9087524,0.5183463-2.6940765,1.2545376
	C72.709671,7.877542,72.6556931,7.9280782,72.611908,7.9690671V6.7659993h-1.8096313v8.987175h1.8096313v-4.9152956
	c0-1.6657019,1.0282059-2.6322975,2.4267578-2.6322975c1.3367691,0,1.8510437,0.8226671,1.8510437,2.2415857v5.3060074h1.8096237
	v-5.7173414C78.6993332,8.0822325,77.9588165,6.5603328,75.4706192,6.5603328z"/>
<path fill="#FFFFFF" d="M68.187973,13.4498081c-0.7198181,0-1.2749939,0.5552626-1.2749939,1.2751169
	C66.9129791,15.4652748,67.5092316,16,68.187973,16c0.7198105,0,1.2751541-0.5759268,1.2751541-1.2957392
	C69.4631271,14.02565,68.9077835,13.4498081,68.187973,13.4498081z"/>
<path fill="#FFFFFF" d="M65.9740524,11.2492552c0-2.5089054-1.4397964-4.6889224-4.1954842-4.6889224
	c-2.5706863,0-4.2776337,2.1183209-4.2776337,4.6889224c0,2.6323814,1.5835533,4.7095432,4.7711983,4.7095432
	c1.048912,0,2.1282043-0.3021564,2.6529999-0.6786108c0.0587311-0.0422201,0.1132126-0.0812569,0.1644669-0.1181297v-1.8341131
	c-0.877655,0.7120476-2.0380821,0.9856052-2.8174667,0.9856052c-1.6451645,0-2.6940765-0.8021307-2.8380051-2.0977421
	c-0.0062828-0.0633507-0.0115433-0.1251736-0.0159569-0.1850872h6.5558815V11.2492552z M59.3253326,10.5911379
	c-0.0011902-0.0805349,0.0001678-0.1550875,0.0061073-0.2056236c0.164299-1.2133369,1.0898209-2.200469,2.4471283-2.200469
	c1.4806976,0,2.2139168,0.9674435,2.3649788,2.200469c0.0105209,0.0852871,0.0186691,0.1520329,0.0252838,0.2056236H59.3253326z"/>
<path fill="#FFFFFF" d="M40.4028015,6.5603328c-0.8975182,0-1.8995857,0.2606158-2.5177307,0.6603656V8.903924
	c0.056179-0.0438318,0.1259384-0.0973387,0.2143631-0.1635742c0.308567-0.2467833,1.0489159-0.6581173,2.1389008-0.6581173
	c1.4807014,0,2.1387329,0.637495,2.1387329,1.7891359v0.7277889c-0.0565186-0.0480328-0.1137199-0.0948343-0.1646347-0.1313686
	c-0.3700066-0.2879839-1.1926727-0.7197275-2.3442726-0.7197275c-1.8510437,0-3.4551315,1.1310186-3.4551315,3.1258211
	c0,2.0566673,1.6658707,3.0849161,3.4551315,3.0849161c0.9665947,0,1.8303375-0.4112482,2.4060516-1.1310606
	c0.0493889-0.0645809,0.1084557-0.1444807,0.1644669-0.2176323v1.1430693h1.7069435V9.8508739
	C44.1456223,8.3084793,43.5699081,6.5603328,40.4028015,6.5603328z M40.2178001,14.4780998
	c-1.2751617,0-2.0360489-0.6786537-2.0360489-1.6658287c0-0.9666376,0.8224983-1.6247549,2.0360489-1.6247549
	c1.1310616,0,2.0886612,0.7176914,2.0886612,1.6019268C42.3064613,13.6532688,41.3899345,14.4780998,40.2178001,14.4780998z
	 M42.6688271,10.847723l-0.0022049-0.0014C42.6771431,10.8473835,42.6796913,10.847723,42.6688271,10.847723z"/>
<polygon fill="#FFFFFF" points="27.6176014,6.7654476 18.6293659,15.7536411 15.0094271,15.7536411 23.998682,6.7654476 "/>
<polygon fill="#FFFFFF" points="20.3821373,6.7654476 11.3927135,15.7536411 7.7739625,15.7536411 16.7621975,6.7654476 "/>
<polygon fill="#FFFFFF" points="13.1454849,6.7654476 4.1574183,15.7536411 0.5373101,15.7536411 9.5255461,6.7654476 "/>
<path fill="#FFFFFF" d="M51.2665215,6.7642598h-0.3455658c-1.130722,0-2.2943687,0.5175824-2.8967323,1.4723401V6.7659993
	h-1.8096275v8.987175h1.8096275v-3.7635279c0-2.2984867,1.1582184-3.6195145,2.911499-3.6195145h0.3307991V6.7642598z"/>
</svg>
