<?xml version="1.0" encoding="UTF-8"?>
<svg id="Layer_1" data-name="Layer 1" xmlns="http://www.w3.org/2000/svg" width="306.29" height="51.7" viewBox="0 0 306.29 51.7">
  <path d="m193.1,2v47.7H2V2h191.1m2-2H0v51.7h195.1V0h0Z" fill="#fff" stroke-width="0"/>
  <g>
    <g>
      <path d="m43.8,16.1c-1.6.5-3.7,1.3-6.3,2.3-.1,0-.2.1-.4,0-2.9-.5-9.2-2.1-9.3-2.1,0,0-.8-.3-1.5,0l-2,.7s-.1,0-.1.1v.1l5.1,4.3s.1.1,0,.1c-1.5.6-2.8,1.1-3.8,1.6-1,.4-1.8.7-2,.8h-.1l-4.3-1.8s-.6-.2-1.2,0l-1.2.5s-.1,0-.1.1v.1c.2.2,3.9,4.5,4.5,5,.3.3,1.9.2,10.8-2.6,2.5-.8,4.9-1.6,7-2.3,2.5-.9,4.7-1.8,6.8-2.9,2.9-1.4,4.1-2.5,3.8-3.3-.3-1-4.4-1.2-5.7-.7Z" fill="#fff" stroke-width="0"/>
      <polygon points="47.9 35.1 17.7 35.1 18.2 33.1 48.3 33.1 47.9 35.1" fill="#fff" stroke-width="0"/>
    </g>
    <g>
      <path d="m70.4,20.6l-.8,3.5h-5.6l-.5,2.4h5.6l-.7,3.5h-5.6l-1.1,5.1h-3.9l3.1-14.5h9.5Z" fill="#fff" stroke-width="0"/>
      <path d="m69.9,35.1l3.1-14.5h3.9l-2.3,11h6.4l-.7,3.5h-10.4Z" fill="#fff" stroke-width="0"/>
      <path d="m95,20.6l-7.2,9.3-1.1,5.2h-3.9l1.1-5.2-3.2-9.3h4l1.7,5.6,4.1-5.6h4.5Z" fill="#fff" stroke-width="0"/>
      <path d="m93.5,35.1l3.1-14.5h6.3c2.8,0,4.4,1.8,4.4,3.5,0,2.7-2.6,3.5-2.6,3.5,0,0,2,.9,2,2.9,0,2.4-2.2,4.5-5.8,4.5l-7.4.1h0Zm7.4-3.1c1.1,0,1.8-.7,1.8-1.7,0-.7-.6-1.2-1.4-1.2h-2.6l-.6,2.9h2.8Zm-1-8.3l-.5,2.5h2.3c.9,0,1.6-.6,1.6-1.4,0-.6-.5-1.1-1.2-1.1h-2.2Z" fill="#fff" stroke-width="0"/>
      <path d="m118.4,29.1l1.8-8.5h3.9l-1.8,8.5c-.8,3.6-3.5,6.4-7.4,6.4s-6.7-2.8-5.9-6.4l1.8-8.5h3.9l-1.8,8.5c-.4,1.7.8,2.9,2.2,2.9,1.6,0,2.9-1.2,3.3-2.9Z" fill="#fff" stroke-width="0"/>
      <path d="m131,30.8c0-1.6-5.6-1.8-5.6-5.6,0-2.6,2.2-5,6.1-5,3.5,0,5.1,2.1,5.1,2.1l-2.7,2.3s-1-1-2.4-1c-1,0-1.7.5-1.7,1.2,0,1.6,5.6,1.7,5.6,5.5,0,3-2.2,5.3-6.3,5.3-3.8,0-5.9-2.5-5.9-2.5l2.7-2.3s1.3,1.5,3.2,1.5c.9-.1,1.9-.4,1.9-1.5Z" fill="#fff" stroke-width="0"/>
      <path d="m144,30.8c0-1.6-5.6-1.8-5.6-5.6,0-2.6,2.2-5,6.1-5,3.5,0,5.1,2.1,5.1,2.1l-2.7,2.3s-1-1-2.4-1c-1,0-1.7.5-1.7,1.2,0,1.6,5.6,1.7,5.6,5.5,0,3-2.2,5.3-6.3,5.3-3.8,0-5.9-2.5-5.9-2.5l2.7-2.3s1.3,1.5,3.2,1.5c.9-.1,1.9-.4,1.9-1.5Z" fill="#fff" stroke-width="0"/>
      <path d="m160,31.8l-.7,3.3h-9.6l3.1-14.5h9.6l-.7,3.3h-5.6l-.5,2.3h5.6l-.7,3.1h-5.6l-.5,2.5h5.6Z" fill="#fff" stroke-width="0"/>
      <path d="m178.6,20.6l-3.1,14.5h-3.3l-4.6-8.1-1.7,8.1h-3.9l3.1-14.5h3.4l4.6,8.1,1.7-8.1h3.8Z" fill="#fff" stroke-width="0"/>
    </g>
  </g>
  <path d="m304.29,2v47.7h-109.19V2h109.19m2-2h-113.19v51.7h113.19V0h0Z" fill="#fff" stroke-width="0"/>
  <g>
    <path d="m218.67,18.73c-.72.25-1.4.6-2.01,1.05-.61.44-1.14.97-1.58,1.58-.41.56-.72,1.19-.91,1.86-1.1,0-2.19.2-3.22.56-1.09.38-2.11.91-3.04,1.59-.92.67-1.72,1.47-2.4,2.38-.63.85-1.1,1.8-1.39,2.81h8.02l2.03-7.35h5.3l1.33-4.86c-.73,0-1.45.13-2.13.37h0Z" fill="#fff" stroke-width="0"/>
    <path d="m224.11,25.85c0-2.88,1.97-4.87,4.79-4.87,2.41,0,4.12,1.25,4.44,3.26l-2.3.45c-.17-.99-.95-1.67-2.06-1.67-1.46,0-2.41,1.1-2.41,2.83s.95,2.83,2.41,2.83c1.1,0,1.83-.6,2.06-1.61l2.3.47c-.36,1.98-2.06,3.18-4.44,3.18-2.83,0-4.79-1.98-4.79-4.87h0Z" fill="#fff" stroke-width="0"/>
    <path d="m234.37,25.85c0-2.81,2.06-4.87,4.92-4.87s4.92,2.06,4.92,4.87-2.06,4.87-4.92,4.87-4.92-2.06-4.92-4.87h0Zm7.47,0c0-1.68-1.03-2.83-2.55-2.83s-2.55,1.14-2.55,2.83,1.01,2.83,2.55,2.83,2.55-1.14,2.55-2.83Z" fill="#fff" stroke-width="0"/>
    <path d="m245.46,21.13h2.36v1.42c.6-.92,1.67-1.57,3-1.57,2.06,0,3.44,1.35,3.44,3.41v6.18h-2.36v-5.62c0-1.1-.69-1.87-1.8-1.87-1.44,0-2.28,1.24-2.28,3.35v4.14h-2.36v-9.44Z" fill="#fff" stroke-width="0"/>
    <path d="m255.87,21.13h2.36v1.42c.6-.92,1.67-1.57,3-1.57,2.06,0,3.44,1.35,3.44,3.41v6.18h-2.36v-5.62c0-1.1-.69-1.87-1.8-1.87-1.44,0-2.28,1.24-2.28,3.35v4.14h-2.36v-9.44Z" fill="#fff" stroke-width="0"/>
    <path d="m275.28,26.47h-7c.21,1.42,1.12,2.27,2.47,2.27,1.1,0,1.89-.52,2.13-1.44l2.21.6c-.52,1.78-2.17,2.83-4.38,2.83-3.13,0-4.79-2.41-4.79-4.87s1.53-4.87,4.66-4.87,4.74,2.36,4.74,4.55c0,.34-.02.75-.04.94h0Zm-2.49-1.72c-.11-1.12-.84-1.97-2.21-1.97-1.16,0-1.98.69-2.25,1.97h4.46Z" fill="#fff" stroke-width="0"/>
    <path d="m276.35,25.85c0-2.88,1.97-4.87,4.79-4.87,2.41,0,4.12,1.25,4.44,3.26l-2.3.45c-.17-.99-.95-1.67-2.06-1.67-1.46,0-2.41,1.1-2.41,2.83s.95,2.83,2.41,2.83c1.1,0,1.83-.6,2.06-1.61l2.3.47c-.36,1.98-2.06,3.18-4.44,3.18-2.83,0-4.79-1.98-4.79-4.87h0Z" fill="#fff" stroke-width="0"/>
    <path d="m291.18,30.72c-1.91,0-3.33-1.03-3.33-3.24v-4.36h-1.59v-1.98h1.59v-2.77h2.36v2.77h2.32v1.98h-2.32v4.14c0,.9.49,1.39,1.22,1.39.36,0,.77-.06,1.1-.22v2.12c-.48.14-.8.19-1.35.19h0Z" fill="#fff" stroke-width="0"/>
  </g>
</svg>