<svg width="48" height="13" viewBox="0 0 48 13" fill="none" xmlns="http://www.w3.org/2000/svg">
<g clip-path="url(#clip0_617_1077)">
<path d="M0.0756836 10.9763H0.448489L0.898351 12.2675L1.41045 10.9763H1.76813V12.5131H1.47472V11.7419L1.4833 11.4267L1.06541 12.5131H0.71616L0.347722 11.4111L0.367064 11.7419V12.5136H0.0756836V10.9763Z" fill="white"/>
<path d="M2.02356 12.474L2.1627 12.324C2.09422 12.2239 2.05772 12.0915 2.05772 11.9306C2.05772 11.5307 2.29341 11.2976 2.64048 11.2976C2.79896 11.2976 2.92323 11.3345 3.01329 11.4083L3.14166 11.2715L3.23385 11.365L3.1075 11.5041C3.17614 11.6082 3.2103 11.7476 3.2103 11.9193C3.2103 12.3279 2.96181 12.5365 2.62332 12.5365C2.47124 12.5365 2.34692 12.495 2.25473 12.4211L2.1198 12.5669L2.02356 12.474ZM2.82907 11.6025C2.78617 11.5568 2.72206 11.5284 2.63393 11.5284C2.40682 11.5284 2.34473 11.7183 2.34473 11.9218C2.34473 11.9872 2.35129 12.0524 2.37266 12.1045L2.82907 11.6025ZM2.9211 11.919C2.92293 11.8541 2.91354 11.7893 2.89333 11.7277L2.43474 12.2296C2.48153 12.2754 2.54627 12.3037 2.63752 12.3037C2.86541 12.3045 2.9211 12.1348 2.9211 11.9198V11.919Z" fill="white"/>
<path d="M3.47424 11.3264H3.75923V11.4846C3.81507 11.4041 3.92847 11.3022 4.07416 11.3022C4.12551 11.3002 4.17683 11.3068 4.22609 11.3216L4.18554 11.5608C4.13618 11.5505 4.08582 11.5462 4.03548 11.5478C3.98266 11.5493 3.93075 11.5621 3.88315 11.5853C3.83554 11.6086 3.79331 11.6418 3.75923 11.6828V12.5131H3.47424V11.3264Z" fill="white"/>
<path d="M4.27557 11.9391C4.27557 11.4546 4.51766 11.2981 4.84757 11.2981C5.18606 11.2981 5.32333 11.5242 5.32333 11.8959V12H4.56056C4.56056 12.2608 4.72122 12.3045 4.929 12.3045C5.01058 12.3045 5.14972 12.2762 5.24627 12.257L5.29104 12.481C5.15657 12.52 5.01738 12.5397 4.87752 12.5395C4.50908 12.539 4.27557 12.4045 4.27557 11.9391ZM5.02976 11.8067C5.03195 11.6283 4.96113 11.5046 4.81965 11.5046C4.67817 11.5046 4.5799 11.6111 4.56711 11.8067H5.02976Z" fill="white"/>
<path d="M6.01337 11.9306C6.01337 11.5307 6.24906 11.296 6.59613 11.296C6.98609 11.296 7.16594 11.5285 7.16594 11.9198C7.16594 12.3284 6.91746 12.539 6.57897 12.539C6.21693 12.539 6.01337 12.3089 6.01337 11.9306ZM6.87675 11.9198C6.87675 11.7176 6.82106 11.5262 6.58973 11.5262C6.36246 11.5262 6.30038 11.7176 6.30038 11.9219C6.30038 12.1415 6.3712 12.3066 6.59394 12.3066C6.82106 12.3066 6.87675 12.1349 6.87675 11.9198Z" fill="white"/>
<path d="M7.44474 12.9389L7.49154 12.7044C7.59885 12.7281 7.75671 12.7519 7.84749 12.7519C8.02735 12.7519 8.14964 12.7257 8.14964 12.517V12.4537C8.08665 12.5041 8.00898 12.5319 7.92876 12.5328C7.66109 12.5328 7.35895 12.4632 7.35895 11.9264C7.35895 11.5112 7.63754 11.2961 7.97384 11.2961C8.13872 11.2961 8.26725 11.3178 8.43228 11.3504V12.5479C8.43228 12.874 8.15369 13.0001 7.89023 13.0001C7.73985 12.998 7.59027 12.9774 7.44474 12.9389ZM8.14745 12.2543V11.558C8.09014 11.5426 8.03112 11.5345 7.97181 11.5341C7.73784 11.5341 7.64425 11.6971 7.64425 11.9275C7.64425 12.2102 7.75765 12.3058 7.94623 12.3058C8.01632 12.3046 8.0852 12.287 8.14745 12.2543Z" fill="white"/>
<path d="M10.0587 12.2284L9.84674 11.9458C9.81192 11.9502 9.77685 11.9524 9.74176 11.9523H9.59388V12.5131H9.30048V10.9763H9.85313C10.1745 10.9763 10.4016 11.1286 10.4016 11.4588C10.4016 11.6329 10.3203 11.7893 10.1423 11.8761L10.3295 12.111C10.4194 12.2218 10.52 12.2762 10.6529 12.3108L10.5886 12.539C10.3715 12.5283 10.2066 12.4154 10.0587 12.2284ZM9.75455 11.735C9.97745 11.735 10.0994 11.6502 10.0994 11.4699C10.0994 11.2829 10.0138 11.2112 9.80603 11.2112H9.59388V11.735H9.75455Z" fill="white"/>
<path d="M10.7727 11.9306C10.7727 11.5307 11.0082 11.296 11.3553 11.296C11.7453 11.296 11.9253 11.5285 11.9253 11.9198C11.9253 12.3284 11.6766 12.539 11.3382 12.539C10.9761 12.539 10.7727 12.3089 10.7727 11.9306ZM11.6359 11.9198C11.6359 11.7176 11.5802 11.5262 11.3488 11.5262C11.1218 11.5262 11.0597 11.7176 11.0597 11.9219C11.0597 12.1415 11.1304 12.3066 11.3533 12.3066C11.5802 12.3066 11.6366 12.1349 11.6366 11.9198H11.6359Z" fill="white"/>
<path d="M12.1888 11.3264H12.474V11.4546C12.5702 11.3754 12.7116 11.2963 12.853 11.2963C13.0265 11.2963 13.1315 11.368 13.1787 11.4745C13.2687 11.394 13.423 11.2963 13.5879 11.2963C13.9543 11.2963 13.9585 11.5592 13.9585 11.7614V12.5134H13.6735V11.7937C13.6735 11.6328 13.6394 11.5481 13.4893 11.5481C13.3931 11.5481 13.2865 11.5956 13.2085 11.6457C13.2129 11.6833 13.2151 11.7212 13.2151 11.759V12.5131H12.9324V11.7937C12.9324 11.6218 12.9001 11.5502 12.7524 11.5502C12.6602 11.5502 12.5496 11.5976 12.474 11.6451V12.5125H12.1888V11.3264Z" fill="white"/>
<path d="M14.2103 12.489L14.2443 12.2654C14.3666 12.2849 14.4865 12.3045 14.5767 12.3045C14.7587 12.3045 14.8122 12.2478 14.8122 12.1826C14.8122 12 14.2232 12.0719 14.2232 11.6524C14.2232 11.4133 14.4372 11.296 14.6815 11.296C14.8012 11.2961 14.92 11.3167 15.0329 11.3569L14.9861 11.572C14.894 11.5501 14.8061 11.5285 14.6818 11.5285C14.5513 11.5285 14.5082 11.5872 14.5082 11.6372C14.5082 11.8271 15.0933 11.7741 15.0933 12.1673C15.0933 12.4653 14.7996 12.539 14.6048 12.539C14.4716 12.5408 14.3389 12.524 14.2103 12.489Z" fill="white"/>
<path d="M15.2745 11.9089C15.2745 11.5001 15.5445 11.296 15.8788 11.296C15.9407 11.2955 16.0024 11.3021 16.0629 11.3155V10.8743H16.3472V12.5131H16.0623V12.4173C16.0045 12.4673 15.9253 12.5327 15.7838 12.5327C15.5595 12.5332 15.2745 12.4283 15.2745 11.9089ZM16.0629 12.2153V11.5506C16.0043 11.5345 15.9438 11.5265 15.883 11.5267C15.6516 11.5267 15.5595 11.6941 15.5595 11.9157C15.5595 12.1985 15.6815 12.2918 15.8337 12.2918C15.9172 12.2914 16.0114 12.2436 16.0629 12.2153Z" fill="white"/>
<path d="M16.6011 12.1827C16.6011 11.8848 16.8662 11.8241 17.0831 11.8219L17.3144 11.8198V11.7154C17.3144 11.5786 17.2364 11.5459 17.0679 11.5459C16.9566 11.5459 16.8282 11.5763 16.7424 11.5979L16.6845 11.3827C16.8234 11.3286 16.9707 11.3002 17.1194 11.2989C17.4431 11.2989 17.5928 11.3967 17.5928 11.651V12.2292C17.5928 12.2857 17.6396 12.2988 17.7 12.3031L17.6872 12.5246H17.6248C17.5 12.5246 17.3657 12.4943 17.34 12.3897C17.2649 12.4463 17.1452 12.5333 16.9756 12.5333C16.738 12.5332 16.6011 12.4109 16.6011 12.1827ZM17.3144 12.2301V11.9951L17.0979 12.0038C16.963 12.0061 16.8775 12.0626 16.8775 12.1602C16.8775 12.2648 16.9503 12.3039 17.0402 12.3039C17.1388 12.3045 17.2542 12.2501 17.3144 12.2305V12.2301Z" fill="white"/>
<path d="M17.9787 10.8743H18.2635V12.5131H17.9787V10.8743Z" fill="white"/>
<path d="M19.127 11.5349H18.9554V11.3264H19.127V11.2438C19.127 10.907 19.3284 10.8198 19.5599 10.8198C19.6274 10.818 19.6948 10.8276 19.7592 10.8482L19.7124 11.0786C19.6665 11.0704 19.6198 11.0668 19.5731 11.0676C19.4616 11.0676 19.4145 11.133 19.4145 11.259V11.3264H19.6653V11.5349H19.4145V12.9456H19.1273L19.127 11.5349Z" fill="white"/>
<path d="M20.25 12.5131H20.1408L19.7488 11.3262H20.0552L20.2781 12.0848L20.3318 12.2849L20.3942 12.0872L20.6492 11.3264H20.9382L20.3658 12.9921H20.0909L20.25 12.5131Z" fill="white"/>
<path d="M21.1307 10.8743H21.4157V12.5131H21.1307V10.8743Z" fill="white"/>
<path d="M21.7501 10.8743H22.035V11.8435L22.4405 11.3284H22.7533L22.3009 11.8761L22.4931 12.111C22.5853 12.2197 22.6689 12.285 22.7867 12.3167L22.7481 12.5365C22.6026 12.5276 22.4567 12.5058 22.3068 12.3083L22.0346 11.9494V12.5124H21.7498L21.7501 10.8743Z" fill="white"/>
<path d="M22.92 11.9391C22.92 11.4546 23.162 11.2981 23.492 11.2981C23.8305 11.2981 23.9676 11.5242 23.9676 11.8959V12H23.205C23.205 12.2608 23.3657 12.3045 23.5735 12.3045C23.655 12.3045 23.7942 12.2762 23.8904 12.257L23.9357 12.481C23.8012 12.5199 23.662 12.5397 23.5221 12.5395C23.1537 12.539 22.92 12.4045 22.92 11.9391ZM23.6742 11.8067C23.6761 11.6283 23.6054 11.5046 23.4641 11.5046C23.3228 11.5046 23.2242 11.6111 23.2113 11.8067H23.6742Z" fill="white"/>
<path d="M24.1479 12.489L24.1823 12.2654C24.3042 12.2849 24.4242 12.3045 24.5142 12.3045C24.6962 12.3045 24.7499 12.2478 24.7499 12.1826C24.7499 12 24.1607 12.0719 24.1607 11.6524C24.1607 11.4133 24.3749 11.296 24.6192 11.296C24.7388 11.2961 24.8576 11.3167 24.9705 11.3569L24.9237 11.572C24.8315 11.5501 24.7437 11.5285 24.6193 11.5285C24.4888 11.5285 24.446 11.5872 24.446 11.6372C24.446 11.8271 25.0307 11.7741 25.0307 12.1673C25.0307 12.4653 24.7373 12.539 24.5423 12.539C24.4092 12.5408 24.2765 12.524 24.1479 12.489Z" fill="white"/>
<path d="M25.2835 10.8743H25.5685V11.8435L25.9733 11.3284H26.2861L25.8337 11.8761L26.0265 12.111C26.1187 12.2197 26.202 12.285 26.3202 12.3167L26.2815 12.5365C26.1359 12.5276 25.99 12.5058 25.8403 12.3083L25.5681 11.9494V12.5124H25.2831L25.2835 10.8743Z" fill="white"/>
<path d="M26.4534 11.9306C26.4534 11.5307 26.6892 11.296 27.0361 11.296C27.4261 11.296 27.6061 11.5285 27.6061 11.9198C27.6061 12.3284 27.3576 12.539 27.0193 12.539C26.6579 12.539 26.4534 12.3089 26.4534 11.9306ZM27.3169 11.9198C27.3169 11.7176 27.2612 11.5262 27.0299 11.5262C26.8028 11.5262 26.7405 11.7176 26.7405 11.9219C26.7405 12.1415 26.8114 12.3066 27.0341 12.3066C27.2612 12.3066 27.3169 12.1349 27.3169 11.9198Z" fill="white"/>
<path d="M27.8699 11.3264H28.1554V11.4546C28.2516 11.3754 28.393 11.2963 28.5344 11.2963C28.7082 11.2963 28.813 11.368 28.8601 11.4745C28.9501 11.394 29.1044 11.2963 29.2694 11.2963C29.6357 11.2963 29.6401 11.5592 29.6401 11.7614V12.5134H29.3552V11.7937C29.3552 11.6328 29.3211 11.5481 29.1709 11.5481C29.0745 11.5481 28.9681 11.5956 28.8901 11.6457C28.8945 11.6833 28.8967 11.7212 28.8966 11.759V12.5131H28.6138V11.7937C28.6138 11.6218 28.5817 11.5502 28.434 11.5502C28.3418 11.5502 28.2303 11.5976 28.1554 11.6451V12.5125H27.8699V11.3264Z" fill="white"/>
<path d="M29.9677 11.3264H30.2526V11.4546C30.349 11.3754 30.4905 11.2963 30.632 11.2963C30.8053 11.2963 30.9104 11.368 30.9577 11.4745C31.0477 11.394 31.2017 11.2963 31.367 11.2963C31.7331 11.2963 31.7375 11.5592 31.7375 11.7614V12.5134H31.4525V11.7937C31.4525 11.6328 31.4182 11.5481 31.2683 11.5481C31.1719 11.5481 31.0655 11.5956 30.9875 11.6457C30.9918 11.6833 30.9939 11.7212 30.9939 11.759V12.5131H30.7111V11.7937C30.7111 11.6218 30.6789 11.5502 30.5312 11.5502C30.439 11.5502 30.3284 11.5976 30.2526 11.6451V12.5125H29.9677V11.3264Z" fill="white"/>
<path d="M32.0613 12.0717V11.3264H32.3463V12.0385C32.3463 12.2104 32.374 12.2843 32.5283 12.2843C32.6504 12.2843 32.7769 12.221 32.8325 12.1907V11.3264H33.1175V12.5132H32.8325V12.3849C32.7556 12.4416 32.6054 12.5392 32.4383 12.5392C32.087 12.539 32.0613 12.3153 32.0613 12.0717Z" fill="white"/>
<path d="M33.4498 11.3264H33.7348V11.453C33.8205 11.3897 33.9641 11.2965 34.127 11.2965C34.4846 11.2965 34.5082 11.5158 34.5082 11.7616V12.5136H34.2252V11.7937C34.2252 11.6133 34.1911 11.5481 34.0348 11.5481C33.9168 11.5481 33.8053 11.6025 33.7348 11.6416V12.5131H33.4498V11.3264Z" fill="white"/>
<path d="M34.7656 11.9391C34.7656 11.4546 35.0077 11.2981 35.3376 11.2981C35.676 11.2981 35.8132 11.5242 35.8132 11.8959V12H35.0499C35.0499 12.2608 35.2106 12.3045 35.4184 12.3045C35.4998 12.3045 35.6389 12.2762 35.7353 12.257L35.7807 12.481C35.6461 12.5199 35.5068 12.5397 35.3669 12.5395C34.9991 12.539 34.7656 12.4045 34.7656 11.9391ZM35.5198 11.8067C35.5218 11.6283 35.451 11.5046 35.3096 11.5046C35.166 11.5046 35.0697 11.6111 35.0568 11.8067H35.5198Z" fill="white"/>
<path d="M18.5311 0H21.4496L25.1152 9.55987H22.809L20.0366 1.71746L17.7043 9.55987H15.8052L15.7318 8.33029L18.5311 0Z" fill="white"/>
<path d="M2.34824 5.82808V9.55987H0.0827026V0H7.59231L7.03685 1.7988H2.34824V4.59296M2.34824 4.59296H5.63329V6.25598H2.34824" fill="white"/>
<path d="M12.0165 7.50503L10.9502 6.24696C10.7905 6.26089 10.6173 6.26089 10.4437 6.26089H9.75116V9.55987H7.47174V0H11.1374C13.2555 0 14.7753 0.987304 14.7753 3.12364C14.7753 4.19212 14.2688 5.12531 13.2555 5.70639L14.2155 6.76127C14.7354 7.32858 15.2799 7.65695 16.6215 7.75031L15.892 9.55987C13.9607 9.55987 13.0025 8.66815 12.0165 7.50503ZM10.5236 4.65247C11.8699 4.65247 12.4422 4.0842 12.4422 3.17839C12.4422 2.21862 12.0558 1.81335 10.8432 1.81335H9.75131V4.65247H10.5236Z" fill="white"/>
<path d="M24.7861 0H27.545L30.1706 7.50503L33.1838 0H35.8095V9.55987H33.5436V6.00374L33.6104 3.75964L31.3712 9.55987H28.8386L26.9063 3.5968L27.0526 6.00374V9.55987H24.7861V0Z" fill="white"/>
<path fill-rule="evenodd" clip-rule="evenodd" d="M43.1636 12.539C48.2483 8.63649 48.0779 4.65246 47.9619 0.003479H38.3671C38.2508 4.65246 38.0807 8.63649 43.1636 12.539ZM43.3081 5.8776V3.98354H44.5516V3.66705H43.3081V2.76504H42.9961V3.66705H41.7526V3.98354H42.9961V5.8776C42.9965 6.34475 42.8467 6.79928 42.5694 7.17222C42.2921 7.54515 41.9024 7.81611 41.4595 7.94399C41.4656 8.39533 41.6465 8.8261 41.9633 9.14309C42.28 9.46009 42.707 9.63782 43.152 9.63782C43.5969 9.63782 44.0239 9.46009 44.3407 9.14309C44.6574 8.8261 44.8384 8.39533 44.8444 7.94399L44.8452 7.94288C44.4024 7.81514 44.0127 7.54438 43.7353 7.17167C43.458 6.79895 43.308 6.34462 43.3081 5.8776ZM41.0369 3.82005V1.9252H42.2805V1.60871H41.0369V0.706697H40.725V1.60871H39.4807V1.9252H40.725V3.82005C40.725 4.28684 40.575 4.74091 40.2977 5.11341C40.0204 5.48591 39.6309 5.75652 39.1884 5.88423V5.88518C39.184 6.11343 39.2246 6.34026 39.3077 6.55241C39.3908 6.76456 39.5148 6.95778 39.6724 7.12074C39.83 7.28371 40.018 7.41317 40.2255 7.50155C40.433 7.58992 40.6558 7.63544 40.8808 7.63544C41.1058 7.63544 41.3286 7.58992 41.5361 7.50155C41.7436 7.41317 41.9316 7.28371 42.0892 7.12074C42.2468 6.95778 42.3708 6.76456 42.4539 6.55241C42.537 6.34026 42.5776 6.11343 42.5732 5.88518V5.88423C42.1307 5.75651 41.7413 5.48588 41.4641 5.11338C41.1868 4.74087 41.0369 4.28681 41.0369 3.82005ZM45.2681 3.82005V1.9252H44.0245V1.60871H45.2681V0.706697H45.5789V1.60871H46.8234V1.9252H45.5789V3.82005C45.5791 4.28704 45.7294 4.74123 46.007 5.11374C46.2846 5.48624 46.6744 5.75675 47.1173 5.88423L47.1163 5.88518C47.1163 6.11074 47.0725 6.33409 46.9874 6.54248C46.9024 6.75087 46.7776 6.94022 46.6204 7.09971C46.4632 7.25921 46.2766 7.38573 46.0712 7.47204C45.8658 7.55836 45.6456 7.60279 45.4233 7.60279C45.2009 7.60279 44.9808 7.55836 44.7753 7.47204C44.5699 7.38573 44.3833 7.25921 44.2261 7.09971C44.0689 6.94022 43.9442 6.75087 43.8591 6.54248C43.774 6.33409 43.7302 6.11074 43.7302 5.88518V5.88423C44.173 5.75678 44.5627 5.48627 44.8403 5.11374C45.1178 4.74122 45.268 4.28701 45.2681 3.82005Z" fill="white"/>
</g>
<defs>
<clipPath id="clip0_617_1077">
<rect width="48" height="13" fill="white"/>
</clipPath>
</defs>
</svg>
