<?xml version="1.0" encoding="utf-8"?>
<!-- Generator: Adobe Illustrator 24.0.1, SVG Export Plug-In . SVG Version: 6.00 Build 0)  -->
<svg version="1.1" id="Lager_1" xmlns="http://www.w3.org/2000/svg" xmlns:xlink="http://www.w3.org/1999/xlink" x="0px" y="0px"
	 width="56.7317047px" height="16px" viewBox="0 0 56.7317047 16" enable-background="new 0 0 56.7317047 16" xml:space="preserve">
<title>GO_AHEAD_NORDIC_LOGO_RGB_SECUNDARY</title>
<path fill="#FFFFFF" d="M34.4465218,15.0996943h0.0116196l0.5806885-3.2878742h0.5655937l-0.7212219,4.0845804h-0.7119255
	l-1.4958611-3.3587141h-0.0139351l-0.5934677,3.3587179h-0.5597858l0.72122-4.0845823h0.7212143L34.4465218,15.0996943z"/>
<path fill="#FFFFFF" d="M38.0270653,15.9997654c-0.2638397,0.0037861-0.5263405-0.0382605-0.7758026-0.1242685
	c-0.2213249-0.0755529-0.4245796-0.1961641-0.5969505-0.3542204c-0.1671066-0.155242-0.2982979-0.3450975-0.3844185-0.556303
	c-0.0932846-0.2320852-0.139473-0.4804068-0.1358795-0.7305107c-0.00214-0.3364916,0.059742-0.6703186,0.1823387-0.9836912
	c0.1153793-0.2966261,0.2855873-0.5688744,0.5017166-0.802516c0.2131653-0.2280445,0.4688072-0.4122782,0.7525749-0.5423651
	c0.5384064-0.2362051,1.1456451-0.2627144,1.7025909-0.0743284c0.2202454,0.0763836,0.4225807,0.1969185,0.5946274,0.3542223
	c0.1655807,0.1554012,0.2962227,0.3442373,0.383255,0.5539799c0.0933685,0.2308426,0.1395721,0.4780436,0.1358795,0.727026
	c0.0022392,0.3371019-0.0576019,0.6717396-0.1765251,0.987175c-0.1108017,0.2974768-0.2780037,0.5707607-0.492424,0.8048372
	c-0.2117844,0.2285948-0.4667892,0.4129381-0.7502556,0.5423679C38.6723709,15.9349165,38.3513451,16.0026855,38.0270653,15.9997654
	z M39.7981758,13.5167294c0.0013466-0.1755581-0.0277328-0.3500223-0.0859413-0.5156546
	c-0.0558929-0.1556988-0.1423721-0.2986422-0.2543449-0.4204197c-0.1153564-0.1234007-0.2559853-0.2204542-0.4122887-0.2845383
	c-0.1787453-0.0726128-0.3703728-0.1081724-0.5632668-0.1045237c-0.2515297-0.0032234-0.4999886,0.0554037-0.7235451,0.170723
	c-0.2144165,0.1104088-0.4040909,0.2633352-0.5574646,0.4494543c-0.1532021,0.1896429-0.2712059,0.4051924-0.3484154,0.6364374
	c-0.0820618,0.2348175-0.1240768,0.4817638-0.1242676,0.7305107c-0.001049,0.1748772,0.0284271,0.3485918,0.0871048,0.5133324
	c0.0540848,0.1564684,0.1394386,0.3003016,0.2508621,0.4227448c0.1137772,0.1244574,0.2538185,0.2220449,0.4099655,0.2856998
	c0.1804848,0.072093,0.3736076,0.1072416,0.5679169,0.103364c0.2530327,0.0037498,0.5032349-0.0536175,0.729351-0.1672392
	c0.2135963-0.108614,0.4022598-0.2604885,0.5539742-0.4459705c0.1528931-0.1898518,0.2708664-0.4053421,0.3484154-0.6364384
	c0.0816612-0.2372637,0.1228867-0.4865599,0.1219444-0.7374792V13.5167294z"/>
<path fill="#FFFFFF" d="M41.4798546,15.8964043h-0.5597878l0.7212219-4.0845823h1.1613808
	c0.1848259-0.001956,0.3691216,0.020298,0.548172,0.0662003c0.1527977,0.0380335,0.29702,0.1046295,0.4250679,0.1962738
	c0.1141243,0.0826664,0.2068939,0.1913576,0.2705994,0.3170567c0.066185,0.1354456,0.0988388,0.284811,0.0952339,0.4355183
	c0.0028534,0.1591625-0.0267906,0.317234-0.0871048,0.4645529c-0.0537949,0.1302662-0.1327171,0.2486544-0.2322769,0.3484154
	c-0.1040306,0.100419-0.2251663,0.1814413-0.3577003,0.2392445c-0.1457558,0.0637569-0.2991867,0.108263-0.4564247,0.1323986
	l0.8722,1.8814411h-0.6352806l-0.8129654-1.8233719h-0.629467L41.4798546,15.8964043z M41.8782082,13.6061583h0.6283112
	c0.1381912,0.0006733,0.2761688-0.0109844,0.4122887-0.0348406c0.1175232-0.0184832,0.2307892-0.0578136,0.3344803-0.1161385
	c0.2019806-0.1128883,0.3218956-0.3310833,0.3089256-0.562108c0.0157928-0.1861515-0.0738792-0.3654966-0.2322769-0.4645538
	c-0.190506-0.101078-0.4047775-0.1488266-0.6201744-0.1382046h-0.600441L41.8782082,13.6061583z"/>
<path fill="#FFFFFF" d="M45.304287,11.8118219h1.3216515c0.231987,0.0002785,0.4628754,0.0319233,0.6863823,0.0940723
	c0.2210999,0.0609322,0.4287338,0.1629791,0.6120453,0.3007975c0.1844215,0.1413107,0.3341637,0.322834,0.4378433,0.5307522
	c0.117363,0.2434425,0.1747093,0.5114565,0.1672401,0.7816105c0.0042992,0.3344851-0.0593033,0.6663694-0.1869812,0.9755602
	c-0.1195717,0.2836828-0.2976608,0.5389404-0.522625,0.7490931c-0.228817,0.2118444-0.4977341,0.3757238-0.7909012,0.4819727
	c-0.3175926,0.1163158-0.6536179,0.1741581-0.9918251,0.1707239h-1.4540443L45.304287,11.8118219z M45.2288017,15.4004955h0.8373528
	c0.2787056,0.0060177,0.5555954-0.046196,0.8129654-0.1533041c0.2190437-0.0948687,0.4165802-0.2331476,0.5806923-0.4064837
	c0.1568108-0.1673098,0.2777557-0.3649235,0.355381-0.5806913c0.0773163-0.2153387,0.1166153-0.4424791,0.1161385-0.671279
	c0.0016441-0.1702805-0.0274658-0.3394604-0.0859413-0.4993944c-0.056736-0.1540689-0.1462898-0.2939577-0.2624741-0.4099684
	c-0.1285782-0.1243-0.2821999-0.2197237-0.4506149-0.2798929c-0.2084579-0.073081-0.42836-0.1080914-0.6492081-0.103363h-0.7096024
	L45.2288017,15.4004955z"/>
<path fill="#FFFFFF" d="M49.6281166,15.8964043h-0.5655899l0.7212143-4.0845823h0.5655899L49.6281166,15.8964043z"/>
<path fill="#FFFFFF" d="M54.3108063,15.2495136c-0.0838165,0.1073303-0.1788063,0.2054386-0.2833786,0.2926664
	c-0.1113815,0.0937109-0.233387,0.1740093-0.3635139,0.2392445c-0.1424713,0.0702372-0.2924843,0.1240101-0.4471283,0.1602716
	c-0.1748734,0.0397491-0.3537445,0.0592308-0.5330772,0.0580692c-0.2549171,0.0034313-0.5083389-0.0394621-0.7479324-0.1265907
	c-0.2160072-0.0782318-0.4136505-0.1999807-0.5806885-0.3577042c-0.1614418-0.1564817-0.2880783-0.3452454-0.3716469-0.553978
	c-0.0905762-0.2274914-0.1355591-0.4705706-0.1323967-0.7154121c-0.0030785-0.3396492,0.0604515-0.6766052,0.1869812-0.9918194
	c0.1196938-0.2989616,0.2950745-0.5724745,0.5168152-0.8059998c0.2195473-0.2284546,0.480957-0.4125824,0.7699966-0.542366
	c0.2984505-0.1332836,0.6220055-0.201005,0.9488487-0.198597c0.1464424-0.0005531,0.2924919,0.0150261,0.4355164,0.0464544
	c0.1345406,0.0285778,0.2654457,0.0722113,0.3902245,0.1300745c0.1149559,0.0534687,0.2233009,0.1201153,0.3228683,0.198597
	c0.0924568,0.0720234,0.1711464,0.1601543,0.2322769,0.2601509l-0.4645538,0.3402843
	c-0.0341454-0.0631609-0.0767326-0.1213789-0.1265945-0.1730471c-0.0589409-0.0619783-0.1261597-0.1155195-0.1997528-0.1591091
	c-0.0835457-0.0510883-0.1738548-0.0901833-0.26828-0.1161375c-0.1088524-0.0304384-0.2214584-0.0452976-0.3344803-0.0441332
	c-0.2544136-0.0025024-0.5057144,0.0560417-0.73283,0.170723c-0.2208214,0.1093245-0.4180946,0.2608309-0.5806923,0.4459705
	c-0.1632118,0.1863327-0.2904091,0.4013462-0.3751221,0.6341143c-0.0883522,0.2334175-0.133606,0.4809303-0.133564,0.7305098
	c-0.0013237,0.1765041,0.0269356,0.3519812,0.083622,0.5191383c0.0532455,0.1563444,0.1378174,0.3001919,0.248539,0.4227448
	c0.1128998,0.1238899,0.2516785,0.2214279,0.4064827,0.2856998c0.1757965,0.0714769,0.3642387,0.106636,0.553978,0.103364
	c0.465538,0.005724,0.9072304-0.2054672,1.1950569-0.5714016L54.3108063,15.2495136z"/>
<path fill="#FFFFFF" d="M4.5153756,6.6053443h1.844275l-0.19279,1.1358318
	C5.966486,7.8411117,5.7523985,7.910778,5.5315843,7.9479022C5.286272,7.9901495,5.0382786,8.0149879,4.7894607,8.0222301
	c-0.3646784,0.0062542-0.727355-0.0551767-1.069633-0.1811748C3.4231334,7.7312188,3.153722,7.5584769,2.930088,7.3346925
	C2.7149332,7.1144276,2.5507932,6.8495846,2.449276,6.5588899C2.3409545,6.2483735,2.2871251,5.9214706,2.2901661,5.5926185
	C2.2882133,5.1169758,2.3720109,4.644875,2.5375402,4.1989598c0.1555116-0.424994,0.3864579-0.8184297,0.6817319-1.1613827
	c0.2860978-0.3315849,0.6360517-0.6021483,1.028985-0.7955477c0.4013066-0.197206,0.8431711-0.2978293,1.2902961-0.2938297
	c0.4057069-0.0151216,0.8084726,0.074472,1.1695118,0.2601504c0.2891779,0.1578772,0.5382934,0.3799746,0.7281866,0.6492124
	l1.6178055-1.4575354c-0.3701086-0.4780567-0.8688784-0.840652-1.4377909-1.0452442
	c-0.6514282-0.243946-1.342689-0.3640786-2.0382257-0.354222c-0.7654953-0.0076113-1.5239062,0.1471594-2.2252092,0.454101
	C2.683094,0.7491064,2.0786598,1.173907,1.574755,1.7043087C1.0670267,2.2407446,0.6675662,2.8701022,0.3982744,3.5578761
	C0.1152047,4.2863998-0.027445,5.0619102-0.0221459,5.8434777c-0.0090197,0.5866404,0.1024499,1.168889,0.3275098,1.7107158
	c0.2077494,0.493125,0.519983,0.9353247,0.9151691,1.2961035c0.4132241,0.3688087,0.8978819,0.6486912,1.4238552,0.8222589
	c0.5967937,0.1981916,1.2224464,0.2955313,1.851244,0.288022c0.6289177-0.0003433,1.2553868-0.0783596,1.86518-0.232276
	C6.9243703,9.5917768,7.470048,9.3898764,7.9867477,9.1267061l0.7502527-4.3470554H4.849853L4.5153756,6.6053443z"/>
<path fill="#FFFFFF" d="M16.4869061,4.5334382c-0.1692848-0.35531-0.4133205-0.6698627-0.7154131-0.9221377
	c-0.3191614-0.2627749-0.6869688-0.4600961-1.082407-0.5806913c-0.4413614-0.1370902-0.9013195-0.2048688-1.3634634-0.2009187
	c-0.5832739-0.0099187-1.1620083,0.1040859-1.6979408,0.3344786c-0.4812593,0.2103553-0.9156094,0.5147965-1.2775211,0.895427
	C9.9942694,4.437499,9.717823,4.8829713,9.5371933,5.3696351C9.3491526,5.8741002,9.2539339,6.4084253,9.2561388,6.9467926
	C9.2400455,7.7716641,9.596221,8.5599384,10.225894,9.0930271c0.3144608,0.2620096,0.6775627,0.4593487,1.068471,0.5806913
	c0.434659,0.1367626,0.8880672,0.2045565,1.3437185,0.2009182c0.5913601,0.0092106,1.1782074-0.1042843,1.7234917-0.3333178
	c0.4858828-0.2061443,0.9248476-0.5087976,1.2902956-0.8896189c0.3568001-0.3767605,0.633379-0.8220501,0.8129673-1.3088789
	c0.1884842-0.5091467,0.283308-1.0481896,0.2798939-1.5910935C16.7520485,5.331357,16.6638927,4.9148059,16.4869061,4.5334382z
	 M14.5021029,6.7992949c-0.0840235,0.248713-0.2131586,0.4798145-0.3809328,0.6817307
	c-0.16294,0.1953506-0.3656559,0.3537226-0.5946274,0.4645534c-0.2425814,0.1138291-0.5078688,0.1710172-0.7758026,0.1672397
	c-0.4459705,0-0.7889662-0.1316237-1.028985-0.3948698c-0.2443876-0.2726898-0.3738146-0.6293449-0.3611898-0.9953036
	c-0.0013027-0.2765551,0.0438442-0.5513663,0.1335583-0.8129678c0.0835552-0.250556,0.2118311-0.4838958,0.3786097-0.6887012
	c0.1607256-0.1947746,0.3610449-0.3531303,0.5876598-0.4645529c0.2412558-0.118403,0.5070858-0.1780953,0.7758026-0.1742072
	c0.4444208,0,0.7893534,0.1335583,1.0347919,0.4006767c0.2478371,0.2742987,0.3797865,0.6339364,0.3681583,1.0034342
	C14.6385698,6.2630167,14.5922642,6.5377073,14.5021029,6.7992949z"/>
<path fill="#FFFFFF" d="M32.8937531,3.4568362c-0.1849823-0.1946418-0.4111671-0.3454323-0.6619873-0.4413257
	c-0.3074932-0.1138699-0.6338196-0.1682582-0.9616222-0.1602714c-0.418541-0.0094011-0.831213,0.0997055-1.1904163,0.3147354
	c-0.3114548,0.1841545-0.580246,0.4323606-0.7885818,0.7281873h-0.0267124l0.64921-3.6757748h-2.1485519L26.100832,9.686492
	h2.1381054l0.6422443-3.5828657c0.060709-0.3830652,0.2208958-0.7434878,0.4645519-1.0452442
	c0.2272301-0.286068,0.5767765-0.4472642,0.9418793-0.4343576c0.329834,0,0.5586243,0.0859427,0.6886978,0.2601504
	c0.1325493,0.1847692,0.2006969,0.4079809,0.1939564,0.6352763c-0.0026512,0.1888328-0.0252285,0.3768573-0.0673618,0.5609479
	l-0.6283054,3.6095767h2.1392651l0.7177315-4.0973573c0.0271225-0.1164804,0.0449867-0.2349238,0.053421-0.3542218
	c0.0092926-0.1161385,0.0139351-0.2427287,0.0139351-0.3681579c0.0022888-0.2604342-0.036911-0.5195708-0.1161385-0.767674
	C33.202198,3.8613284,33.0693512,3.640847,32.8937531,3.4568362z"/>
<path fill="#FFFFFF" d="M40.6750183,4.4312363c-0.1329727-0.332634-0.3384972-0.6314008-0.6015968-0.874521
	c-0.2691307-0.2427285-0.5854111-0.4273612-0.9291039-0.5423653c-0.3855743-0.1283784-0.7898598-0.1915727-1.1962242-0.1869826
	c-0.5550537-0.0061069-1.105526,0.1009846-1.6178055,0.3147354c-0.4746895,0.1990349-0.9041328,0.4921803-1.2624207,0.8617454
	c-0.3565941,0.372941-0.6381226,0.8109989-0.8292313,1.2902961c-0.2029724,0.5080976-0.3047562,1.0509472-0.2996368,1.5980616
	c-0.0082436,0.4410672,0.0784988,0.878746,0.2543411,1.2833285c0.1601372,0.3617477,0.398056,0.6837387,0.6968307,0.9430418
	c0.3035164,0.2585373,0.6557732,0.4536209,1.0359573,0.5737228c0.4146576,0.1332006,0.8478088,0.1998377,1.283329,0.1974354
	c0.5796471,0.0049028,1.1552429-0.097065,1.6979408-0.3007984c0.5455818-0.2135677,1.0347366-0.5497427,1.4296608-0.9825296
	l-1.3495255-1.0556965c-0.2000389,0.2098126-0.4360428,0.3820958-0.6968307,0.5086861
	c-0.2804718,0.1293249-0.586647,0.1932611-0.8954277,0.1869822c-0.1833954,0.0004997-0.3658257-0.0265121-0.5412025-0.0801353
	c-0.1668854-0.0505657-0.3239746-0.1291084-0.4645538-0.2322764c-0.1363678-0.0999465-0.250309-0.227334-0.3344765-0.3739653
	c-0.0860062-0.1530304-0.1296997-0.3262048-0.1265945-0.501718c-0.0002632-0.0391445,0.0044174-0.078167,0.0139351-0.1161385
	h4.7709618c0.0560341-0.2268662,0.0986938-0.4568281,0.127758-0.6886988
	c0.027977-0.2017074,0.0434952-0.4049478,0.0464478-0.6085653C40.8972702,5.2302876,40.8250465,4.8178563,40.6750183,4.4312363z
	 M38.9910126,5.4880948c-0.000042,0.0448809-0.0047073,0.0896363-0.0139351,0.1335583h-2.8906822
	c0.0409851-0.1552668,0.1039429-0.3038774,0.1869812-0.4413257c0.0938148-0.1555219,0.2113724-0.2954173,0.3484116-0.4146142
	c0.1505394-0.1291318,0.3196793-0.2348428,0.5017204-0.3135729c0.2046509-0.0876141,0.4254608-0.1311431,0.6480522-0.1277528
	c0.3925476,0.0000014,0.6933441,0.09833,0.9023895,0.2949901c0.2064095,0.1879239,0.3212166,0.4560928,0.3147392,0.7351556
	L38.9910126,5.4880948z"/>
<path fill="#FFFFFF" d="M47.4528427,4.0189452c-0.1398125-0.264487-0.3384819-0.4933486-0.5806885-0.6689558
	c-0.2638664-0.1863165-0.5611916-0.3199935-0.8756828-0.3937087C45.6333847,2.86847,45.260891,2.8255649,44.887352,2.8285279
	c-0.5256348,0.0028639-1.0473137,0.0911176-1.5446358,0.2613111c-0.501709,0.1627312-0.970192,0.4140811-1.3832092,0.7421234
	l0.8826523,1.2287428c0.2552872-0.1903744,0.5364761-0.343286,0.8350372-0.4541011
	c0.2923279-0.1132212,0.6028404-0.1722527,0.9163322-0.1742072c0.2680435-0.015327,0.5347633,0.0476208,0.7676697,0.1811752
	c0.1864281,0.1265955,0.2909698,0.3431959,0.274086,0.5679159v0.1161385
	c-0.00214,0.0631089-0.0110931,0.1257997-0.0267181,0.1869826c-0.5518456-0.0004234-1.1031342,0.0352688-1.6503181,0.1068468
	c-0.5059357,0.0593843-1.0009346,0.1899757-1.470314,0.3879013c-0.409008,0.1710849-0.7684364,0.4422565-1.0452461,0.788578
	c-0.2671165,0.3375764-0.4006691,0.7742538-0.4006767,1.310039c-0.0088615,0.2896376,0.0554466,0.5768337,0.1869812,0.8350344
	c0.1170158,0.2186842,0.2841797,0.4065371,0.4877815,0.548173c0.2027664,0.13871,0.4296341,0.2383585,0.6689568,0.2938299
	c0.2338867,0.0567255,0.4735909,0.0859566,0.7142525,0.0871038c0.8656158,0,1.543087-0.2895737,2.0324211-0.8687143h0.0267105
	c-0.0185814,0.1161385-0.031353,0.2322769-0.0406456,0.3669977c-0.0092964,0.1347208-0.0127754,0.2427282-0.0127754,0.3414469
	h1.8976936c0-0.1521416,0.0116196-0.3484154,0.0336876-0.5888224c0.0220642-0.240407,0.0557442-0.4761677,0.0998764-0.7084436
	l0.4552612-2.5933676c0.0271339-0.1366577,0.0469017-0.2746725,0.0592308-0.4134517
	c0.0139351-0.1428494,0.0209045-0.2764096,0.0209045-0.4018393C47.6787262,4.6437588,47.6033478,4.3151245,47.4528427,4.0189452z
	 M45.4204254,7.0931244c-0.0647469,0.3630333-0.2481575,0.6943116-0.5214615,0.9418812
	c-0.2804718,0.2558422-0.6495209,0.3924646-1.0289841,0.3809338c-0.2112236,0.0029984-0.4200363-0.0452194-0.6085625-0.1405287
	c-0.1823387-0.0929108-0.2740822-0.274086-0.2740822-0.541204c-0.0065804-0.1888647,0.0723495-0.3706269,0.214859-0.4947486
	c0.1588326-0.1333032,0.3428917-0.2332354,0.5412025-0.2938294c0.2408218-0.0749397,0.4894257-0.1220894,0.7409592-0.1405282
	c0.276413-0.0216804,0.5474052-0.0325184,0.8129692-0.0325184h0.1869812L45.4204254,7.0931244z"/>
<path fill="#FFFFFF" d="M54.6116066,0.2223854L53.9902687,3.885385H53.963562
	c-0.1891022-0.3223202-0.4679565-0.5826106-0.8025131-0.7490914c-0.3938942-0.1957636-0.8296776-0.292249-1.2693901-0.2810545
	c-0.5110054-0.0053163-1.016407,0.1067302-1.4772835,0.3275108c-0.4438057,0.2141299-0.8390579,0.516891-1.1613808,0.8896196
	c-0.3324318,0.3860564-0.5907211,0.8301821-0.7618675,1.310039c-0.185791,0.5141282-0.2785988,1.0572186-0.2740898,1.603869
	c-0.0049286,0.3912063,0.058342,0.7802811,0.1869774,1.1497679c0.1167488,0.334321,0.3009605,0.641078,0.5412102,0.9012327
	c0.2430496,0.2591095,0.539444,0.4623833,0.8687134,0.595789c0.3691597,0.1474171,0.7639275,0.2200527,1.1613808,0.2136946
	c0.4533463,0.0056887,0.9021988-0.0903521,1.3135223-0.2810526c0.3771324-0.1741047,0.7004585-0.4464884,0.9360733-0.788578
	h0.0394936l-0.1602745,0.9093628h1.9720268l1.6781998-9.4641066L54.6116066,0.2223854z M53.461834,6.7992949
	c-0.0884895,0.2493863-0.2219315,0.4804454-0.3937073,0.6817307c-0.1664963,0.1945267-0.3712845,0.3526645-0.6015968,0.4645534
	c-0.2337799,0.1118426-0.4899445,0.1690307-0.7490921,0.1672397c-0.4537086,0-0.7967072-0.133945-1.0289841-0.4018397
	c-0.2366486-0.2791882-0.3608551-0.6364937-0.3484154-1.0022736c-0.002224-0.2815576,0.0429268-0.5614848,0.133564-0.8280663
	c0.0821953-0.2463136,0.2089539-0.4754267,0.3739586-0.6759253c0.1611595-0.1921396,0.3620415-0.3470645,0.5888252-0.4541011
	c0.2421188-0.1139674,0.5070686-0.1711664,0.7746468-0.1672392c0.3795242-0.0192151,0.749218,0.1244388,1.016201,0.3948693
	c0.2536469,0.2734551,0.3881798,0.6365309,0.3739624,1.0092416c0.0016708,0.2765956-0.0450974,0.5513482-0.1381989,0.8118105
	H53.461834z"/>
<polygon fill="#FFFFFF" points="21.8048763,0.222386 18.9049053,4.7738442 21.1707611,4.7738442 22.3797607,2.6554823 
	22.829216,5.7041111 19.8258801,7.8015676 23.1009808,7.8015676 23.4215202,9.686492 25.7605457,9.686492 23.9696941,0.222386 "/>
<polygon fill="#FFFFFF" points="17.7388763,6.6053443 15.7761402,9.686492 18.316082,9.686492 19.3137112,8.0315218 
	20.1266804,6.6053443 "/>
</svg>
