<svg id="Layer_2" data-name="Layer 2" xmlns="http://www.w3.org/2000/svg" viewBox="0 0 482.13 147.98">
    <g id="Layer_1-2" data-name="Layer 1">
        <path fill="#fff" class="cls-1"
            d="M464.65 29.45h-68.46c-9.72 0-17.08 6.14-21.28 14.47l-21 41.18c-3.69 7.25-14.5 32.81 18.7 32.81h64c9.36-.59 13.79-4.63 17.83-11l2.93-5.74h-61c-5.69 0-9.27-2.43-6-10.11l6.1-12.73h62.48c5.92 0 11.36-3.26 14.14-8.48L478.88 59c3.82-8.89 8.7-26.96-14.23-29.55Zm-23.48 32a12.313 12.313 0 0 1-10.95 6.59h-28.9l1.36-2.88 7.43-14.55c.5-.98 1.22-1.83 2.1-2.49a7.343 7.343 0 0 1 4.35-1.46h32.17l-7.56 14.79ZM15.2 30.52c8.42 0 15.26-6.82 15.28-15.24v-.08C30.46 6.78 23.62-.02 15.2 0 6.78.02-.02 6.86 0 15.28v.08c-.02 8.36 6.74 15.14 15.1 15.16h.1ZM1.77 15.28C1.69 7.87 7.62 1.8 15.03 1.72h.25c7.34-.08 13.35 5.81 13.43 13.15V15.28c.08 7.41-5.85 13.48-13.26 13.56h-.25c-7.34.08-13.35-5.81-13.43-13.15V15.28Z" />
        <path fill="#fff" class="cls-1"
            d="M16.3 16.25c-.69-.55-.47-.93-.47-.93l6.35-3.84c.85-.68 1.36-1.7 1.4-2.79H11.73c-2 .12-3.91.81-5.52 2l-1.31.86h11.87c0 .32-.18.72-1.59 1.39l-4.51 2.2a.39.39 0 0 0-.11.65l6.89 5.54c1.24 1 4 1 5.14 1h1.51l-7.8-6.08ZM377 29.84h-29a41.24 41.24 0 0 0-24.8 8.29l-48.71 35.7L312.05.04h-27.13c-13.61 0-17.68 6.31-23.2 16.37l-6.26 12.26-45.27 88.77h42l18.42-36.13 26.52 36.13h41.41l-28.13-38.28L377 29.84ZM208.25 31.19c-13.6 0-17.68 6.31-23.2 16.37L163 90.83l-5.31 10.41h-18.21c-7.9 0-6.35-5.68-4.87-9l14.95-29.29c3.62-7.1 14.21-32.13-18.31-32.13h-36L110.77.04H83.23C70 .16 65.91 6.41 60.48 16.31L8.91 117.44h42l35.9-70.22h18.78c6 0 9.32 3.09 4.7 12.14L95 89.04c-5.82 11.09-5.63 28.74 15 28.82h39.2l-15.39 30.12h27.26c13.49 0 17.53-6.27 23-16.24l51.34-100.55h-27.16Z" />
    </g>
</svg>