<?xml version="1.0" encoding="utf-8"?>
<!-- Generator: Adobe Illustrator 24.0.1, SVG Export Plug-In . SVG Version: 6.00 Build 0)  -->
<svg version="1.1" id="Layer_1" xmlns="http://www.w3.org/2000/svg" xmlns:xlink="http://www.w3.org/1999/xlink" x="0px" y="0px"
	 width="77.3308182px" height="16px" viewBox="0 0 77.3308182 16" enable-background="new 0 0 77.3308182 16" xml:space="preserve">
<title>Asset 1</title>
<g id="Layer_2_1_">
	<g id="Layer_1-2">
		<path fill="#FFFFFF" d="M-0.013597,0v8.111413C-0.013597,13.4629993,6.3510909,16,6.3510909,16
			s6.3637433-2.5398321,6.3637433-7.888587V0H-0.013597z M6.3501468,1.7127345L8.998559,4.3611469L8.3820124,4.9776936
			L6.3501468,2.945828L4.3192248,4.9776936l-0.617491-0.6165462L6.3501468,1.7127345z M2.1013565,5.2269559l-1.2425354,1.241591
			V5.2354536l1.241591-1.2425349l3.6322434,3.6322434L5.1161089,8.2426529L2.1013565,5.2269559z M11.8433599,6.4694905
			l-1.2434788-1.2425346l0,0l-5.1297064,5.1297059l0,0c-0.4943137,0.4857159-0.5012836,1.2801867-0.0155683,1.7745008
			c0.4857159,0.4943132,1.2801867,0.5012827,1.7745004,0.0155678c0.4943142-0.4857159,0.5012841-1.2801867,0.0155683-1.7744999
			c-0.0029492-0.0030012-0.0059128-0.0059881-0.0088921-0.0089588l-0.2690902-0.2700348l0.6165466-0.6174908L7.8306141,9.725008l0,0
			c0.8422852,0.817524,0.862359,2.163065,0.0448356,3.0053492c-0.817523,0.8422861-2.163064,0.86236-3.0053496,0.044836
			c-0.8422847-0.817523-0.8623586-2.163064-0.0448356-3.0053492c0.0191483-0.0197287,0.0386782-0.0390835,0.0585775-0.058054l0,0
			l5.7169824-5.7169828l1.2434797,1.2434795L11.8433599,6.4694905z"/>
		<path fill="#FFFFFF" d="M16.8795929,3.3442698h0.9441757v5.5706358h-0.9441757V3.3442698z"/>
		<path fill="#FFFFFF" d="M20.1351089,6.5931783v2.2952905h-0.8931904V4.6481762h0.8931904v0.7732797
			c0.2815094-0.5161419,0.8226795-0.8370757,1.4105988-0.8365393c0.4777508,0,0.8642349,0.1460323,1.1594467,0.438097
			c0.2952137,0.2920651,0.4428196,0.7144265,0.4428196,1.2670836v2.5983715h-0.8931904V6.5610757
			c0-0.7805185-0.3241653-1.171092-0.9725018-1.1717215c-0.2983952-0.0045166-0.5872173,0.1052699-0.8072681,0.3068571
			C20.2484093,5.9014125,20.135107,6.2004018,20.1351089,6.5931783z"/>
		<path fill="#FFFFFF" d="M25.116581,6.5931783v2.2952905h-0.8922482V4.6481762h0.8922482v0.7732797
			c0.2815094-0.5161419,0.8226776-0.8370757,1.4105988-0.8365393c0.4790115,0,0.8658066,0.1460323,1.1603928,0.438097
			c0.2945843,0.2920651,0.4418755,0.7144265,0.4418736,1.2670836v2.5983715h-0.8922482V6.5610757
			c0-0.7805185-0.3241653-1.171092-0.9724998-1.1717215c-0.2977104-0.0038424-0.5857029,0.105885-0.8053818,0.3068566
			C25.2308254,5.901412,25.116581,6.2004018,25.116581,6.5931783z"/>
		<path fill="#FFFFFF" d="M31.3660793,8.5853882c-0.2121239,0.2442265-0.5098553,0.3666553-0.8931904,0.3672848
			c-0.3407154,0.0158205-0.6731567-0.1079483-0.9205704-0.3427353c-0.2310104-0.2284918-0.3465137-0.565876-0.3465137-1.0121565
			V3.3168888h0.8931885v4.1770329c0,0.4248791,0.1586208,0.6373181,0.4777527,0.6373181
			c0.1598835,0.013484,0.3138161-0.0638485,0.3984432-0.2001648L31.3660793,8.5853882z"/>
		<path fill="#FFFFFF" d="M35.4874039,8.8884687h-0.8129311V8.3219633
			c-0.3512344,0.4198437-0.8217506,0.6297655-1.4115448,0.6297655c-0.3992462,0.0140295-0.7895012-0.1205416-1.0952454-0.3776703
			c-0.289896-0.2494612-0.4498692-0.6177449-0.4343204-0.9998817c0-0.4173255,0.1539001-0.7295327,0.4617023-0.9366221
			c0.3078041-0.2070894,0.7251282-0.3109488,1.2519798-0.3115783h1.1556702V6.1701875
			c0-0.5627289-0.3147278-0.8440928-0.9441757-0.8440928c-0.3927803,0-0.8025513,0.1435146-1.2274284,0.4305439L32.031723,5.1986308
			c0.4958229-0.4032578,1.1170921-0.6203671,1.7561646-0.6137142c0.4985275,0,0.9076729,0.1258903,1.2274284,0.3776703
			c0.3197594,0.2517805,0.4771233,0.6489635,0.4720879,1.1915498V8.8884687z M34.5942154,7.3107514V6.9519644h-1.0036583
			c-0.6426659,0-0.9643173,0.2017388-0.9649467,0.6052165c-0.0083733,0.1883006,0.0821991,0.3673019,0.2388763,0.4720874
			c0.1992836,0.1186609,0.4293022,0.1755085,0.660923,0.1633425c0.2680626,0.005043,0.5301743-0.0793371,0.7449532-0.23982
			C34.4787331,7.8062658,34.6002235,7.5654101,34.5942154,7.3107514z"/>
		<path fill="#FFFFFF" d="M37.583477,6.5931783v2.2952905H36.691227V4.6481762h0.8922501v0.7732797
			c0.2815094-0.5161419,0.8226776-0.8370757,1.4105988-0.8365393c0.4790115,0,0.86549,0.1460323,1.1594467,0.438097
			c0.2939529,0.2920651,0.4415588,0.7144265,0.4428177,1.2670836v2.5983715h-0.8931885V6.5610757
			c0-0.7805185-0.3238564-1.171092-0.9715576-1.1717215c-0.2977104-0.0038424-0.5857048,0.105885-0.8053818,0.3068566
			C37.6977196,5.901412,37.583477,6.2004018,37.583477,6.5931783z"/>
		<path fill="#FFFFFF" d="M42.1825523,8.3465118c-0.3984375-0.4034772-0.5976639-0.9347329-0.5976601-1.5937676
			c-0.0000038-0.6590347,0.2045708-1.1852551,0.6137123-1.5786619c0.3887482-0.3846121,0.9157295-0.5969005,1.4625282-0.5891652
			c0.5483932-0.0101099,1.0639801,0.2605028,1.3671684,0.7175732V2.9750972h0.8922462v5.9133716h-0.8922462V8.2511501
			c-0.329834,0.4670525-0.81073,0.7008934-1.4426994,0.7015228C43.0538673,8.9550381,42.5452919,8.7353163,42.1825523,8.3465118z
			 M42.4743042,6.7886224c-0.0141525,0.3708754,0.1276054,0.7307386,0.3908882,0.9923291
			c0.2416725,0.2451057,0.5726051,0.3814316,0.9167938,0.3776703c0.3390121,0.0050783,0.6639099-0.1355381,0.8922501-0.3861675
			c0.2488365-0.2691908,0.3808975-0.6259975,0.3672829-0.9923291c0.0116081-0.3719549-0.1198463-0.7342024-0.3672829-1.012156
			c-0.2247429-0.2629147-0.5549049-0.4120755-0.9007454-0.40694c-0.3497391-0.0030408-0.6836967,0.1453471-0.9158516,0.40694
			C42.5995941,6.0439081,42.4617081,6.4110374,42.4743042,6.7886224z"/>
		<path fill="#FFFFFF" d="M50.4261475,7.6213856c0.0143318,0.3745565-0.1482811,0.7340565-0.4390373,0.9706125
			c-0.2920685,0.2417088-0.6665878,0.3625631-1.1235733,0.3625631c-0.3274269-0.0049067-0.6518288-0.0635977-0.9602242-0.173728
			c-0.3191109-0.1043463-0.6173134-0.2641563-0.8809128-0.4720879l0.430542-0.6930246
			c0.4934883,0.3720055,0.9715576,0.5580082,1.4342003,0.5580082c0.1705093,0.0115032,0.3398094-0.035821,0.4796448-0.1340742
			c0.1123505-0.0831003,0.1777344-0.2152801,0.1756134-0.3550096c0-0.2114954-0.2832527-0.4025331-0.8497581-0.5731149
			c-0.0424881-0.0160508-0.0745888-0.0264368-0.0944176-0.0321016c-0.8812294-0.2391915-1.321846-0.6376333-1.321846-1.1953263
			c-0.0108681-0.3708739,0.1605453-0.7235694,0.4588699-0.9441752c0.3046532-0.2360439,0.7018394-0.3540659,1.1915474-0.3540659
			c0.4938507,0.0023174,0.9757843,0.1518941,1.3841667,0.4295993l-0.3351822,0.660923
			c-0.3319206-0.2238321-0.7232361-0.3431993-1.1235733-0.3427358c-0.1800041-0.0077181-0.3588486,0.0323496-0.5183487,0.1161337
			c-0.1252708,0.069304-0.2005844,0.2034798-0.1945,0.3465123c-0.0024109,0.1346803,0.0804939,0.256197,0.2067719,0.3030806
			c0.1291962,0.0577078,0.2639771,0.1020012,0.4022217,0.1321845c0.1727867,0.0424876,0.3247948,0.0849762,0.4579239,0.1274638
			c0.1331253,0.0424871,0.2615356,0.0944171,0.3871078,0.1435142c0.1404228,0.0621934,0.2750244,0.1367631,0.4022217,0.2228255
			C50.2826309,6.9192333,50.4261475,7.2179074,50.4261475,7.6213856z"/>
		<path fill="#FFFFFF" d="M52.7913132,5.3657498v2.1517763C52.7831078,7.6931753,52.8414307,7.865459,52.9546547,8
			c0.1147995,0.1232023,0.2784615,0.1889458,0.4465904,0.1793938c0.1888351,0,0.3776703-0.0944176,0.549511-0.2832527
			l0.3663406,0.6297646c-0.2795296,0.2683735-0.651104,0.4197035-1.0385933,0.4229908
			c-0.3643456,0.0061722-0.7154961-0.1363316-0.9724998-0.3946648c-0.2681465-0.2637405-0.4022179-0.6184354-0.4022179-1.0640864
			V5.3657498h-0.5344009V4.6481767h0.5344009V3.3168888h0.8922462v1.3312879h1.1160164v0.7175732H52.7913132z"/>
		<path fill="#FFFFFF" d="M57.2034416,5.4856601c-0.4406166-0.0000005-0.7729683,0.1435146-0.9970474,0.4305439
			c-0.2240868,0.2870302-0.3354988,0.6719384-0.3342361,1.154727v1.8175378h-0.8931923V4.6481762h0.8931923v0.8497581
			c0.1403351-0.2612848,0.3410301-0.4852853,0.5853882-0.6533699c0.2298508-0.163816,0.5033989-0.255219,0.7855568-0.2624803
			l0.0075531,0.9007435L57.2034416,5.4856601z"/>
		<path fill="#FFFFFF" d="M61.7723083,8.8884687h-0.8129311V8.3219633c-0.3512383,0.4198437-0.821434,0.6297655-1.4105988,0.6297655
			c-0.3995514,0.0141745-0.7901535-0.1204004-1.0961876-0.3776703c-0.2898979-0.2494612-0.4498672-0.6177454-0.4343185-0.9998817
			c0-0.4173255,0.1539001-0.7295327,0.4617043-0.9366221c0.3078003-0.2070894,0.7251244-0.3109488,1.2519722-0.3115783h1.1537781
			V6.1701875c0-0.5627289-0.314724-0.8440928-0.9441757-0.8440928c-0.3934059,0-0.8025475,0.1435151-1.2274284,0.4305439
			l-0.3984375-0.5580077c0.4950752-0.4026337,1.1152306-0.6197052,1.753334-0.6137142
			c0.4985275,0,0.9076691,0.1258903,1.2274284,0.3776703c0.319767,0.2517805,0.4771233,0.6489635,0.4720879,1.1915498
			L61.7723083,8.8884687z M60.8791161,7.3107514V6.9519644h-1.0036583c-0.6426659,0-0.9643173,0.2017388-0.9649429,0.6052165
			c-0.0078163,0.18818,0.0826302,0.3669233,0.2388802,0.4720874c0.1992798,0.1186609,0.4293022,0.1755085,0.660923,0.1633425
			c0.2683525,0.0050383,0.5307617-0.0793314,0.7458992-0.23982C60.7639656,7.8058271,60.8850021,7.5651569,60.8791161,7.3107514z"/>
		<path fill="#FFFFFF" d="M64.1148071,4.2978873v0.3502889h1.1141281v0.7175736h-1.1141281v3.5227189h-0.8922462V5.3657498
			h-0.5344009V4.6481767h0.5344009v-0.326685c0-0.4469099,0.1340714-0.801605,0.4022217-1.064086
			c0.2570038-0.2583337,0.6081505-0.4008369,0.9724998-0.3946655c0.3873978,0.0037639,0.7587967,0.1550255,1.0385895,0.4229906
			l-0.3663406,0.6297655c-0.1756134-0.1888351-0.3587799-0.2832527-0.5495071-0.2832527
			c-0.168129-0.0095515-0.3317947,0.0561907-0.4465942,0.1793935C64.1614151,3.9480743,64.1047974,4.1216421,64.1148071,4.2978873z"
			/>
		<path fill="#FFFFFF" d="M66.5819397,3.8031392c-0.2143173-0.2200015-0.2097092-0.5720868,0.0102921-0.7864044
			s0.5720825-0.2097096,0.7863998,0.0102918c0.214325,0.2200015,0.2097168,0.5720866-0.0102921,0.7864041
			c-0.1038132,0.1011384-0.2430191,0.1577477-0.3879623,0.1577716C66.8300018,3.9728894,66.6856842,3.9120154,66.5819397,3.8031392z
			 M67.4184799,8.8884687h-0.8922501V4.6481762h0.8922501V8.8884687z"/>
		<path fill="#FFFFFF" d="M69.674118,8.8884687H68.781868V2.9750972h0.8922501v3.474566l1.7212296-1.801487h1.1481171
			l-1.6098251,1.6778002l1.7297363,2.5587158h-1.0839157L70.319931,7.0312757l-0.6458206,0.6533694L69.674118,8.8884687z"/>
		<path fill="#FFFFFF" d="M74.3279572,8.8884687h-0.8922501V2.9750972h0.8922501v3.474566l1.7221756-1.801487h1.147171
			l-1.6098175,1.6778002l1.7268982,2.5624924h-1.0810852l-1.2595291-1.857193l-0.645813,0.6533694V8.8884687z"/>
	</g>
</g>
</svg>
