<?xml version="1.0" encoding="utf-8"?>
<!-- Generator: Adobe Illustrator 24.0.1, SVG Export Plug-In . SVG Version: 6.00 Build 0)  -->
<svg version="1.1" id="Layer_1" xmlns="http://www.w3.org/2000/svg" xmlns:xlink="http://www.w3.org/1999/xlink" x="0px" y="0px"
	 width="69.4000015px" height="16px" viewBox="0 0 69.4000015 16" enable-background="new 0 0 69.4000015 16" xml:space="preserve">
<path fill="#FFFFFF" d="M67,8.5c1.4003906,0.2001953,2.5996094,0.5996094,2.5996094,2
	c0,1.2998047-1.0996094,2.0996094-2.7998047,2.0996094c-1.5996094,0-2.7001953-0.6992188-2.8994141-1.8994141l1.5-0.2001953
	C65.5,11.2001953,66,11.5,66.7998047,11.5C67.5,11.5,68,11.2001953,68,10.7001953S67.5996094,10,66.5,9.7998047
	c-1.5-0.2001953-2.5-0.7001953-2.5-2c0-1.3999023,1.2998047-2,2.7001953-2c1.3994141,0,2.5996094,0.7001953,2.7001953,1.800293
	l-1.5,0.2998047c-0.1005859-0.6000977-0.5-1-1.2001953-1c-0.6005859,0-1.1005859,0.300293-1.1005859,0.800293
	S66.2001953,8.2998047,67,8.5z"/>
<path fill="#FFFFFF" d="M62.7998047,12.2998047h-1.5v-1c-0.3994141,0.7001953-1,1.1005859-2,1.1005859
	C58,12.4003906,57,11.7001953,57,10.2001953v-4.300293h1.5996094V10c0,0.9003906,0.6005859,1.2998047,1.2001953,1.2998047
	c0.7998047,0,1.5-0.7001953,1.5-1.8994141V5.8999023h1.6005859L62.7998047,12.2998047z"/>
<path fill="#FFFFFF" d="M55.9003906,9.0996094c0,2.1005859-1.3007812,3.4003906-3,3.4003906
	c-1.1005859,0-1.8007812-0.5-2.1005859-1.0996094v1h-1.5V2.7998047h1.6005859v3.9003906c0.3994141-0.5,1.0996094-1,2.0996094-1
	C54.7001953,5.7001953,55.9003906,7,55.9003906,9.0996094z M50.9003906,9.4003906c0,1.2998047,1,1.8994141,1.7998047,1.8994141
	c1,0,1.7001953-0.8994141,1.7001953-2.2001953c0-1.199707-0.7001953-2.199707-1.7001953-2.199707
	c-0.7998047,0-1.7998047,0.5-1.7998047,1.8999023V9.4003906z"/>
<path fill="#FFFFFF" d="M38,5.8999023h1.5v1c0.4003906-0.699707,1-1.199707,2-1.199707c0.9003906,0,1.7001953,0.3999023,2,1.199707
	c0.4003906-0.6000977,1.0996094-1.199707,2.0996094-1.199707c1.2001953,0,2.2001953,0.699707,2.2001953,2.199707v4.5004883
	h-1.5996094V8.2998047c0-0.8999023-0.5-1.2998047-1.1005859-1.2998047c-0.6992188,0-1.3994141,0.7001953-1.3994141,1.8999023
	v3.3999023h-1.6005859v-4C42.0996094,7.3999023,41.5996094,7,41,7c-0.7001953,0-1.4003906,0.7001953-1.4003906,1.8999023v3.3999023
	H38V5.8999023z"/>
<path fill="#FFFFFF" d="M36.2998047,12.2998047h-1.5v-1c-0.3999023,0.7001953-1,1.1005859-2,1.1005859
	C31.5,12.4003906,30.5,11.7001953,30.5,10.2001953v-4.300293h1.6000977V10c0,0.9003906,0.6000977,1.2998047,1.199707,1.2998047
	c0.800293,0,1.5-0.7001953,1.5-1.8994141V5.8999023h1.6005859L36.2998047,12.2998047z"/>
<rect x="27.3999023" y="2.7998047" fill="#FFFFFF" width="1.6000977" height="9.5"/>
<path fill="#FFFFFF" d="M26.2998047,9.0996094C26.2998047,11.0996094,25,12.5,23,12.5s-3.2998047-1.4003906-3.2998047-3.4003906
	C19.7001953,7.1000977,21,5.7001953,23,5.7001953S26.2998047,7.1000977,26.2998047,9.0996094z M24.7001953,9.0996094
	c0-1.199707-0.5-2.199707-1.7001953-2.199707c-1.1000977,0-1.7001953,1-1.7001953,2.199707
	c0,1.2001953,0.5,2.2001953,1.7001953,2.2001953C24.1000977,11.2998047,24.7001953,10.2998047,24.7001953,9.0996094z"/>
<polygon fill="#FFFFFF" points="14.6000977,7.7998047 13.7001953,8.7998047 13.7001953,12.2998047 12.1000977,12.2998047 
	12.1000977,2.7998047 13.7001953,2.7998047 13.7001953,6.7998047 17.5,2.7998047 19.3999023,2.7998047 15.7998047,6.6000977 
	19.7001953,12.2998047 17.7001953,12.2998047 "/>
<polygon fill="#FFFFFF" points="0,10.5996094 0,14 7.7998047,9.7998047 7.7998047,6.3999023 "/>
<polygon fill="#FFFFFF" points="0,2 0,5.2998047 3.7998047,7.3999023 6.8999023,5.7001953 "/>
</svg>
