<svg width="51" height="16" viewBox="0 0 51 16" fill="none" xmlns="http://www.w3.org/2000/svg">
<g clip-path="url(#clip0_617_1079)">
<path fill-rule="evenodd" clip-rule="evenodd" d="M0.0599365 5.91927V0.506134H12.3781V5.91927C12.3781 11.3426 6.21829 15.3777 6.21829 15.3777C6.21829 15.3777 0.0599365 11.3426 0.0599365 5.91927ZM2.42678 2.27403L6.02099 2.36339L6.02543 2.05675C5.82768 2.03772 5.75235 1.94109 5.71565 1.89401C5.70385 1.87888 5.69605 1.86887 5.68945 1.86819C5.50121 1.85912 5.43866 1.80203 5.39824 1.76515C5.38012 1.74862 5.36645 1.73614 5.3479 1.73388L5.34383 1.7336C5.28457 1.72942 5.27342 1.72864 5.09174 1.82002C4.86105 1.93388 4.61387 1.77622 4.57942 1.74556C4.56334 1.73117 4.55129 1.71587 4.53934 1.7007C4.49674 1.64663 4.45547 1.59424 4.23787 1.59082C4.18526 1.58885 4.11869 1.61084 4.04771 1.6343C3.96105 1.66293 3.86783 1.69373 3.78547 1.68571C3.50834 1.65651 3.60421 1.49739 3.60421 1.49739C3.63717 1.57476 3.85438 1.52075 3.85438 1.52075C4.01743 1.46166 4.08547 1.40869 4.13523 1.36995C4.17644 1.33786 4.20511 1.31554 4.26483 1.30761C4.42962 1.28571 4.56144 1.34264 4.63035 1.39812C4.86854 1.58644 4.99587 1.48571 4.99587 1.48571C5.01984 1.46819 5.18162 1.3587 5.32543 1.36308C5.48572 1.36892 5.69245 1.47403 5.69245 1.47403C5.78345 1.50359 5.82917 1.46978 5.88378 1.42939C5.8912 1.42391 5.89878 1.4183 5.90666 1.41272C5.94608 1.38465 5.99584 1.37228 6.0354 1.3669L6.0371 1.2492L6.14102 1.27402L6.18328 2.36743L10.1191 2.46527C10.188 2.46819 10.1715 2.64046 10.0562 2.64046H9.87492C9.87492 2.64046 6.07894 5.47549 6.65568 8.04484C6.77608 8.57963 7.36826 9.2628 7.54777 9.46049C7.81597 9.453 8.09416 9.44215 8.38142 9.42731C8.38142 9.42731 8.82649 9.36293 9.17643 9.00416L7.74325 9.29447C7.67434 9.30468 7.64138 9.3952 7.64138 9.3952C7.64138 9.3952 7.6279 9.41563 7.6234 9.41563C7.50506 9.42585 7.57547 9.30468 7.57547 9.30468C7.59794 9.25943 7.67584 9.19374 7.67584 9.19374L9.27915 8.88601C9.40829 8.71892 9.51381 8.50173 9.56186 8.22001C9.56186 8.22001 9.77758 7.20395 9.51542 6.46673C9.51542 6.46673 9.48247 6.39957 9.66522 6.45505C9.66522 6.45505 9.84499 6.53388 9.8345 6.62293L9.833 6.62731C9.833 6.62731 9.79816 7.81834 9.75258 8.79514L9.87111 8.77239C9.93159 7.83548 9.99758 6.79038 9.99178 6.77183L9.99328 6.77037C9.99328 6.77037 10.0008 6.70468 10.17 6.66672C10.1835 6.6638 10.2689 6.67694 10.209 6.79957L10.197 6.82877C10.197 6.82877 10.1521 6.94993 10.1296 7.3295L10.0727 8.58935L10.0726 8.59867C10.0719 8.65881 10.0695 8.85073 10.218 9.07256C10.218 9.07256 10.3438 9.26088 10.3213 9.56453C10.3213 9.56453 10.2405 10.2361 10.23 10.2667L10.2277 10.2756C10.2166 10.3207 10.1823 10.4598 9.9798 10.4463C9.9798 10.4463 9.76408 10.4142 9.77607 10.2331L9.79328 9.96867V9.96866L9.79334 9.96784L9.79358 9.96405C9.81019 9.71004 9.83677 9.30362 9.86515 8.86466L9.74816 8.88835C9.72038 9.46602 9.68899 9.95014 9.65923 10.0361C9.65923 10.0361 9.64425 10.404 9.17088 10.5193C9.17088 10.5193 2.98107 10.5193 2.77434 10.512C2.77434 10.512 1.9744 10.4521 1.96392 9.72512C1.96392 9.72512 1.92416 8.80229 1.88778 7.82064C1.77883 7.71519 1.4616 7.40618 1.36169 7.28718C1.36169 7.28718 1.27781 7.20397 1.39615 7.19521H1.71972C1.71972 7.19521 1.78863 7.20397 1.79612 7.26236C1.80511 7.32222 1.79612 7.34558 1.79612 7.34558C1.79612 7.34558 1.8211 7.37834 1.87182 7.37865C1.84134 6.51037 1.81859 5.69749 1.83359 5.54118C1.83359 5.54118 1.87853 5.48716 1.9804 5.5733L2.19761 5.73096C2.19761 5.73096 2.26652 5.79081 2.20809 5.9441C2.20809 5.9441 2.03999 6.67507 2.0799 7.36C2.10298 7.36312 2.13188 7.3596 2.16313 7.33828C2.16313 7.33828 2.11969 7.20397 2.19759 7.18645C2.19759 7.18645 2.57808 7.17331 2.63801 7.16601C2.63801 7.16601 2.73088 7.19813 2.641 7.29886C2.641 7.29886 2.27219 7.69506 2.14486 7.81514C2.15966 7.8745 2.17713 7.93182 2.19761 7.98643C2.19761 7.98643 2.47924 9.19228 3.37655 9.30322C3.37655 9.30322 4.14607 9.41004 5.44289 9.45475C4.67931 8.85135 2.41875 6.69448 2.65448 2.45506H2.39981C2.35188 2.45214 2.32941 2.27987 2.42678 2.27403ZM5.56315 9.45867C5.66167 9.46169 5.76304 9.46435 5.86718 9.46656L5.87633 8.58676C5.43395 8.56392 5.08508 8.8916 5.56315 9.45867ZM6.10876 9.47081C6.48509 9.47606 6.89387 9.47538 7.33093 9.46588C7.16232 9.27971 6.71714 8.83826 6.1253 8.63561L6.10876 9.47081ZM6.03399 1.46381C6.03399 1.46381 5.76285 1.48425 5.75686 1.69447C5.75267 1.87014 5.92371 1.93505 6.02685 1.9582L6.03399 1.46381Z" fill="white"/>
<path d="M17.4819 12.4682C17.0654 12.4638 16.7463 12.4594 16.4722 12.4507V13.35C16.7284 13.3456 17.0205 13.3412 17.395 13.3368C17.5043 13.3368 17.5088 13.3864 17.5088 13.4813V13.5441C17.5088 13.639 17.5043 13.6886 17.395 13.6886C17.0205 13.6843 16.7269 13.6799 16.4722 13.6755V14.9587C16.4722 15.0624 16.4437 15.0886 16.3583 15.0886H16.1666C16.0528 15.0886 16.0243 15.0711 16.0243 14.9587V12.201C16.0243 12.0886 16.0737 12.0843 16.1666 12.0843H17.4834C17.5568 12.0843 17.5972 12.0974 17.5972 12.201V12.3266C17.5972 12.4215 17.5927 12.4711 17.4834 12.4711L17.4819 12.4682Z" fill="white"/>
<path d="M20.2982 12.2522L19.3934 13.9164V14.9558C19.3934 15.0595 19.3619 15.0857 19.2795 15.0857H19.0878C18.9694 15.0857 18.9454 15.0682 18.9454 14.9558V13.9573L18.0212 12.2522C17.9987 12.2113 17.9942 12.1806 17.9942 12.1529C17.9942 12.1033 18.0302 12.0814 18.0901 12.0814H18.3328C18.4331 12.0814 18.4511 12.1076 18.4885 12.1762L19.1686 13.4682L19.8727 12.1762C19.9087 12.1091 19.9281 12.0814 20.0285 12.0814H20.2247C20.2847 12.0814 20.3251 12.1033 20.3251 12.1529C20.3296 12.1806 20.3206 12.2113 20.2982 12.2522Z" fill="white"/>
<path d="M22.292 15.0857H21.0172C20.9033 15.0857 20.8749 15.0682 20.8749 14.9558V12.1981C20.8749 12.0857 20.9243 12.0814 21.0172 12.0814H21.2089C21.3093 12.0814 21.3228 12.1222 21.3228 12.1981V14.7135C21.5879 14.7091 21.895 14.7047 22.292 14.7003C22.4014 14.7003 22.4014 14.75 22.4014 14.8449V14.9704C22.4014 15.0741 22.3654 15.0872 22.292 15.0872V15.0857Z" fill="white"/>
<path d="M24.9569 15.0857H24.6469C24.5465 15.0857 24.5045 15.0682 24.4311 14.9865L23.3526 13.8434V14.9543C23.3526 15.058 23.3256 15.0843 23.2387 15.0843H23.047C22.9331 15.0843 22.9047 15.0668 22.9047 14.9543V12.1967C22.9047 12.0843 22.9556 12.0799 23.047 12.0799H23.2387C23.3391 12.0799 23.3526 12.1208 23.3526 12.1967V13.439L24.4311 12.1792C24.5045 12.093 24.5315 12.0799 24.6244 12.0799H24.8581C24.9584 12.0799 24.9629 12.147 24.9135 12.2054L23.7391 13.5865L24.9914 14.9222C25.0783 15.0127 25.0513 15.0843 24.9599 15.0843L24.9569 15.0857Z" fill="white"/>
<path d="M27.1336 15.0857H25.73C25.6161 15.0857 25.5876 15.0682 25.5876 14.9558V12.1981C25.5876 12.0857 25.6386 12.0814 25.73 12.0814H27.1336C27.2055 12.0814 27.2474 12.0945 27.2474 12.1981V12.3237C27.2474 12.4186 27.243 12.4682 27.1336 12.4682C26.7172 12.4638 26.3202 12.4595 26.0356 12.4507V13.3544C26.3052 13.3456 26.6213 13.3412 27.0317 13.3368C27.1411 13.3368 27.1456 13.3865 27.1456 13.4814V13.5441C27.1456 13.639 27.1411 13.6887 27.0317 13.6887C26.6198 13.6843 26.3052 13.6799 26.0356 13.6711V14.7193C26.3187 14.7106 26.7172 14.7062 27.1336 14.7018C27.243 14.7018 27.2474 14.7514 27.2474 14.8463V14.9719C27.2474 15.0755 27.2055 15.0887 27.1336 15.0887V15.0857Z" fill="white"/>
<path d="M29.487 14.8113C29.3357 15.1135 28.9297 15.1266 28.6181 15.1266C28.362 15.1266 28.1103 15.1047 27.959 15.0916C27.8406 15.0828 27.7987 15.074 27.7987 15.0054V14.8478C27.7987 14.7441 27.8032 14.6989 27.8901 14.6989C28.1417 14.6989 28.0818 14.7354 28.6855 14.7354C29.0106 14.7354 29.1289 14.7032 29.1289 14.3529C29.1289 14.02 29.1245 13.9485 28.9192 13.8624C28.732 13.7821 28.5402 13.7003 28.3515 13.6142C27.9036 13.4127 27.8302 13.3397 27.8302 12.8127C27.8302 12.5967 27.8302 12.3631 28.0039 12.2098C28.1867 12.0434 28.4518 12.0478 28.8323 12.0478C29.0376 12.0478 29.1484 12.0565 29.3447 12.0697C29.4585 12.0784 29.5049 12.0872 29.5049 12.1558V12.3135C29.5049 12.4171 29.5005 12.4624 29.4136 12.4624C29.2353 12.4624 29.2802 12.4405 28.9192 12.4405C28.8368 12.4405 28.6765 12.4361 28.5942 12.4361C28.2691 12.4361 28.2646 12.5704 28.2646 12.8594C28.2646 13.0711 28.2781 13.1208 28.4713 13.2098C28.5942 13.2638 28.723 13.3178 28.8458 13.3719C29.43 13.6288 29.5634 13.6916 29.5634 14.1908C29.5634 14.3616 29.5634 14.658 29.4855 14.8113H29.487Z" fill="white"/>
<path d="M32.2987 15.0857H31.9887C31.8883 15.0857 31.8463 15.0682 31.7729 14.9865L30.6944 13.8434V14.9543C30.6944 15.058 30.6674 15.0843 30.5805 15.0843H30.3888C30.2749 15.0843 30.2465 15.0668 30.2465 14.9543V12.1967C30.2465 12.0843 30.2959 12.0799 30.3888 12.0799H30.5805C30.6809 12.0799 30.6944 12.1208 30.6944 12.1967V13.439L31.7729 12.1792C31.8463 12.093 31.8733 12.0799 31.9647 12.0799H32.1984C32.2987 12.0799 32.3032 12.147 32.2538 12.2054L31.0794 13.5865L32.3317 14.9222C32.4186 15.0127 32.3916 15.0843 32.3002 15.0843L32.2987 15.0857Z" fill="white"/>
<path d="M35.0011 14.7806C34.7734 15.0784 34.4753 15.1806 34.0828 15.1806C33.6904 15.1806 33.3923 15.077 33.1631 14.7806C32.9024 14.4346 32.8665 14.0113 32.8665 13.5879C32.8665 13.1646 32.9024 12.7383 33.1631 12.3908C33.4012 12.0755 33.7113 11.9952 34.0828 11.9952C34.4544 11.9952 34.7599 12.0755 35.0011 12.3908C35.2618 12.7368 35.2977 13.1646 35.2977 13.5879C35.2977 14.0113 35.2603 14.4332 35.0011 14.7806ZM34.718 12.7383C34.5997 12.4726 34.348 12.3879 34.0828 12.3879C33.8177 12.3879 33.566 12.4726 33.4477 12.7383C33.3518 12.9543 33.3383 13.35 33.3383 13.5879C33.3383 13.8259 33.3518 14.2186 33.4477 14.4332C33.5615 14.6989 33.8132 14.7835 34.0828 14.7835C34.3525 14.7835 34.5997 14.6974 34.718 14.4332C34.8139 14.2171 34.8274 13.8259 34.8274 13.5879C34.8274 13.35 34.8139 12.9543 34.718 12.7383Z" fill="white"/>
<path d="M38.8016 15.0857H38.6099C38.5275 15.0857 38.5005 15.0595 38.496 14.9558L38.3582 12.6478C38.3208 12.7646 38.2668 12.9763 38.2204 13.1018C38.0332 13.6376 37.8264 14.2259 37.6856 14.5952C37.6497 14.6945 37.6167 14.731 37.5118 14.731H37.3935C37.2871 14.731 37.2602 14.6945 37.2242 14.5952C37.0834 14.2259 36.8677 13.6376 36.6804 13.1018C36.634 12.9763 36.5846 12.7646 36.5516 12.6478L36.4048 14.9558C36.4003 15.0595 36.3778 15.0857 36.291 15.0857H36.0992C35.9854 15.0857 35.9479 15.0682 35.9569 14.9558L36.1906 12.1981C36.1996 12.0857 36.24 12.0814 36.3314 12.0814H36.5876C36.6879 12.0814 36.7104 12.1033 36.7389 12.1762C36.9261 12.6668 37.2317 13.5354 37.4519 14.1646C37.6706 13.5339 37.9777 12.6668 38.1605 12.1762C38.1875 12.1047 38.2159 12.0814 38.3163 12.0814H38.5724C38.6638 12.0814 38.7013 12.0857 38.7103 12.1981L38.9425 14.9558C38.9514 15.0682 38.92 15.0857 38.8016 15.0857Z" fill="white"/>
<path d="M42.4449 15.0857H42.2531C42.1707 15.0857 42.1438 15.0595 42.1393 14.9558L42.0014 12.6478C41.9655 12.7646 41.9101 12.9763 41.8636 13.1018C41.6764 13.6376 41.4712 14.2259 41.3288 14.5952C41.2929 14.6945 41.2599 14.731 41.1551 14.731H41.0367C40.9319 14.731 40.9049 14.6945 40.8674 14.5952C40.7266 14.2259 40.5109 13.6376 40.3237 13.1018C40.2787 12.9763 40.2278 12.7646 40.1963 12.6478L40.0495 14.9558C40.045 15.0595 40.0226 15.0857 39.9357 15.0857H39.7439C39.6301 15.0857 39.5926 15.0682 39.6016 14.9558L39.8338 12.1981C39.8428 12.0857 39.8847 12.0814 39.9761 12.0814H40.2323C40.3327 12.0814 40.3551 12.1033 40.3836 12.1762C40.5708 12.6668 40.8764 13.5354 41.0966 14.1646C41.3169 13.5339 41.6224 12.6668 41.8052 12.1762C41.8322 12.1047 41.8606 12.0814 41.961 12.0814H42.2172C42.3085 12.0814 42.3445 12.0857 42.3535 12.1981L42.5872 14.9558C42.5962 15.0682 42.5647 15.0857 42.4449 15.0857Z" fill="white"/>
<path d="M45.4993 14.3441C45.4633 14.5821 45.3704 14.785 45.2431 14.9193C45.0873 15.0814 44.8356 15.1529 44.3967 15.1529C43.9578 15.1529 43.7106 15.0814 43.5563 14.9193C43.4275 14.785 43.3376 14.5821 43.3002 14.3441C43.2537 14.0653 43.2448 13.8361 43.2448 13.1967V12.1981C43.2448 12.0857 43.2942 12.0814 43.3871 12.0814H43.5788C43.6792 12.0814 43.6927 12.1222 43.6927 12.1981V13.5923C43.6927 14.1193 43.7151 14.2989 43.7975 14.4784C43.8889 14.6814 44.0582 14.7573 44.3967 14.7573C44.7353 14.7573 44.909 14.6814 45.0004 14.4784C45.0828 14.2989 45.1053 14.1179 45.1053 13.5923V12.1981C45.1053 12.0857 45.1607 12.0814 45.2521 12.0814H45.4438C45.5442 12.0814 45.5532 12.1222 45.5532 12.1981V13.1967C45.5532 13.8361 45.5442 14.0653 45.4978 14.3441H45.4993Z" fill="white"/>
<path d="M48.4429 15.0857H48.2916C48.2137 15.0857 48.1582 15.0901 48.1043 15.0186C47.7343 14.496 47.1261 13.5558 46.6812 12.877V14.9558C46.6812 15.0595 46.6497 15.0857 46.5673 15.0857H46.3756C46.2557 15.0857 46.2333 15.0682 46.2333 14.9558V12.1981C46.2333 12.0857 46.2782 12.0814 46.3756 12.0814H46.5029C46.5988 12.0814 46.6258 12.0857 46.6677 12.1441C47.0422 12.6799 47.6055 13.5485 48.1073 14.2945V12.1981C48.1073 12.0857 48.1537 12.0814 48.2451 12.0814H48.4414C48.5417 12.0814 48.5552 12.1222 48.5552 12.1981V14.9558C48.5552 15.0595 48.5237 15.0857 48.4414 15.0857H48.4429Z" fill="white"/>
<path d="M50.8442 15.0857H49.4406C49.3267 15.0857 49.2982 15.0682 49.2982 14.9558V12.1981C49.2982 12.0857 49.3477 12.0814 49.4406 12.0814H50.8442C50.9176 12.0814 50.9581 12.0945 50.9581 12.1981V12.3237C50.9581 12.4186 50.9536 12.4682 50.8442 12.4682C50.4278 12.4638 50.0308 12.4595 49.7462 12.4507V13.3544C50.0158 13.3456 50.3319 13.3412 50.7423 13.3368C50.8517 13.3368 50.8562 13.3865 50.8562 13.4814V13.5441C50.8562 13.639 50.8517 13.6887 50.7423 13.6887C50.3319 13.6843 50.0158 13.6799 49.7462 13.6711V14.7193C50.0293 14.7106 50.4278 14.7062 50.8442 14.7018C50.9536 14.7018 50.9581 14.7514 50.9581 14.8463V14.9719C50.9581 15.0755 50.9161 15.0887 50.8442 15.0887V15.0857Z" fill="white"/>
<path d="M21.0487 1.12514C21.0247 1.38646 21.0187 2.40106 21.0352 3.64047L21.0382 3.07697C21.0562 4.55288 21.1056 6.34704 21.1895 7.57624C21.1895 7.57624 18.3133 4.30179 17.1149 2.52952C17.1149 2.52952 17.0789 2.02733 17.0729 1.65653C17.0669 1.28427 16.8602 1.17478 16.8602 1.17478C16.8602 1.17478 16.258 0.777699 16.0003 0.631714C16.0003 0.631714 15.9958 5.49741 15.9958 7.95142C15.9958 9.92661 17.2677 10.0317 17.2677 10.0317L17.1943 4.31055C18.6728 6.32952 21.2599 10.4025 22.2561 10.2011C22.2561 10.2011 22.3774 4.98062 22.4283 3.35142C22.4793 1.72222 21.0472 1.1266 21.0472 1.1266L21.0487 1.12514Z" fill="white"/>
<path d="M42.5512 6.53536C42.5512 6.53536 42.2501 7.89302 42.7549 8.97331C43.1968 8.43317 43.2867 6.89448 44.0507 7.04777C44.8147 7.20251 44.3683 9.91346 45.9127 10.2594C46.1854 6.84485 44.945 3.62003 42.5512 6.5339V6.53536Z" fill="white"/>
<path d="M27.4796 8.24486C27.5111 9.32807 27.8751 10.1996 27.8751 10.1996C28.7215 9.59377 28.1762 7.82442 28.5747 7.37917C28.9732 6.93391 29.3791 7.03318 29.469 7.08428C29.6008 6.75873 29.3851 6.13537 29.12 5.98355C28.8563 5.83172 28.4414 5.78063 28.0744 6.0653C27.7073 6.34851 27.3493 6.66822 27.1366 6.73829C27.1366 6.73829 27.4482 7.16165 27.4796 8.24486Z" fill="white"/>
<path d="M36.4991 1.18208C36.5081 0.941201 36.228 0.830252 36.228 0.830252C36.228 0.830252 35.828 0.65215 35.3876 0.506165C35.3876 0.506165 35.3651 6.53244 35.2873 8.69887C35.2243 10.4376 36.3044 10.1222 36.3044 10.1222L36.4093 4.78354C36.4093 4.78354 36.4857 1.55726 36.4991 1.18208Z" fill="white"/>
<path d="M31.0599 10.1237C31.0599 10.1237 31.3415 10.35 31.6247 10.2156C31.9512 10.0361 32.5504 9.64485 33.0733 8.94703C33.2995 10.1076 34.0964 10.0711 34.0964 10.0711L34.2013 4.46528C34.2013 4.46528 34.2612 2.59959 34.2657 2.22295C34.2702 1.79083 34.029 1.67696 34.029 1.67696C34.029 1.67696 33.3444 1.28426 33.0867 1.13828C33.0867 1.13828 33.0987 3.23317 33.0643 5.83025C31.9482 5.77477 30.1222 6.30908 30.0787 7.54849C30.0218 9.14266 30.6569 9.78937 31.0599 10.1251V10.1237ZM33.0283 7.67258C32.7497 8.312 32.4171 8.79375 31.5198 9.37623C31.1603 9.00981 31.0974 7.85068 31.3326 7.44338C31.5677 7.03755 32.5025 6.6682 33.0148 6.76747C33.0942 6.79083 33.0792 7.53536 33.0298 7.67112L33.0283 7.67258Z" fill="white"/>
<path d="M48.7874 10.2317C49.0601 9.9952 49.487 9.56892 49.899 8.93972C50.0892 10.2332 50.9536 9.99228 50.9536 9.99228L50.97 3.88133C50.97 3.88133 50.9955 2.63753 51 2.26235C51.0045 1.88425 50.7633 1.71636 50.7633 1.71636C50.7633 1.71636 50.7004 1.63607 49.9154 1.42001C49.9154 1.42001 49.9409 3.46235 49.9139 5.85797C48.8593 6.06965 46.6722 6.88279 46.6228 8.26089C46.5853 9.30323 47.583 9.87111 48.1268 10.2551C48.1313 10.258 48.4743 10.4755 48.7889 10.2346L48.7874 10.2317ZM49.9019 6.7952C49.9559 6.81417 49.9319 7.54118 49.881 7.71928C49.5919 8.44775 49.2908 8.75724 48.6556 9.20834C48.2451 8.9587 47.6759 8.52658 47.9111 8.12074C48.1448 7.71345 49.487 6.82293 49.9019 6.7952Z" fill="white"/>
<path d="M26.5748 8.38646C26.5913 7.87551 26.4745 7.28281 26.1089 6.54704C25.7419 5.81128 24.8401 5.67697 24.8401 5.67697C24.8401 7.52953 26.1644 7.42004 25.9112 8.94121C25.9112 8.94121 25.6835 9.15726 24.9615 9.11639C23.9563 9.05945 24.2259 7.22734 24.4252 6.59668C22.1871 7.1558 22.6021 10.8215 25.8153 10.1996C26.3381 9.74413 26.5539 9.09157 26.5763 8.38646H26.5748Z" fill="white"/>
<path d="M37.0909 8.95286C37.0909 8.95286 36.9561 9.43169 37.1898 9.60541C37.9568 10.2171 39.9297 10.0594 40.5109 8.20103C40.5588 9.26235 40.8764 10.4609 42.2112 10.2974C42.2906 10.2857 42.0074 9.11928 41.6928 7.99227C41.3783 6.86527 41.221 6.41125 41.0637 6.02293C40.9064 5.63461 40.4645 5.65067 40.463 5.65067C38.4451 5.89154 37.5628 7.47403 37.0894 8.9514L37.0909 8.95286ZM37.7561 9.17914C37.7845 8.40103 39.0473 6.92804 40.3536 6.77038C39.5911 7.40249 39.1717 9.33534 37.7561 9.17914Z" fill="white"/>
</g>
<defs>
<clipPath id="clip0_617_1079">
<rect width="51" height="15" fill="white" transform="translate(0 0.447754)"/>
</clipPath>
</defs>
</svg>
