<svg width="74" height="11" viewBox="0 0 74 11" xmlns="http://www.w3.org/2000/svg">
<path d="M1.88161 6.375C1.88161 5.39773 2.66846 4.61364 3.63777 4.61364C3.90006 4.61364 4.15094 4.68182 4.36761 4.77273L5.73605 3.40909C5.14306 2.98864 4.42463 2.75 3.63777 2.75C1.63073 2.75 0 4.375 0 6.375C0 7.15909 0.250881 7.875 0.661413 8.46591L2.02985 7.10227C1.93863 6.88636 1.88161 6.63636 1.88161 6.375ZM5.2571 5.65909C5.35973 5.875 5.41675 6.125 5.41675 6.375C5.41675 7.35227 4.62989 8.13636 3.64918 8.13636C3.3983 8.13636 3.14742 8.07955 2.93075 7.97727L1.5623 9.34091C2.1553 9.76136 2.87373 10 3.64918 10C5.66763 10 7.29835 8.375 7.29835 6.36364C7.29835 5.59091 7.04747 4.875 6.63694 4.28409L5.2571 5.65909ZM41.8059 9.82955H44.6226C46.527 9.82955 48.1463 8.54545 48.1463 6.43182C48.1463 4.22727 46.641 2.95455 44.4515 2.95455H41.8059V9.82955ZM63.336 1C62.5606 1 61.9448 1.61364 61.9448 2.36364C61.9448 2.65909 62.0474 2.93182 62.2071 3.125L59.7325 9.82955H61.6255L62.0816 8.40909H64.3852L64.8299 9.82955H66.8142L64.4308 3.15909C64.6018 2.95455 64.7159 2.68182 64.7159 2.36364C64.7159 1.61364 64.1001 1 63.336 1ZM34.4277 9.82955H36.2295V5.88636L38.9892 9.82955H40.5515V2.95455H38.7497V6.79545L36.104 2.95455H34.4391V9.82955H34.4277ZM8.22205 9.82955H10.058V7.48864H10.8677L12.0651 9.82955H14.0835L12.5669 7.18182C13.2625 6.77273 13.6616 6.11364 13.6616 5.20455C13.6616 3.81818 12.7949 2.95455 11.2212 2.95455H8.22205V9.82955ZM70.6914 7.30682H71.9002V7.96591C71.5467 8.21591 71.1247 8.34091 70.6458 8.34091C69.5282 8.34091 68.7984 7.54545 68.7984 6.39773C68.7984 5.34091 69.437 4.46591 70.6458 4.46591C71.3072 4.46591 71.7519 4.76136 72.1853 5.19318L73.3713 3.98864C72.6984 3.125 71.7063 2.76136 70.5089 2.76136C68.4335 2.76136 66.9282 4.23864 66.9282 6.375C66.9282 8.44318 68.1256 9.98864 70.5089 9.98864C71.5011 9.98864 72.687 9.71591 73.5423 9.01136V5.89773H70.7028V7.30682H70.6914ZM27.3004 7.14773C27.3004 8.80682 28.4066 10 30.2882 10C32.0671 10 33.2531 8.875 33.2531 7.14773V2.95455H31.4057V6.97727C31.4057 7.69318 31.1206 8.27273 30.2882 8.27273C29.4899 8.27273 29.1478 7.75 29.1478 6.97727V2.95455H27.3118V7.14773H27.3004ZM14.8932 9.82955H20.0819V8.25H16.7292V7.09091H19.3064V5.61364H16.7292V4.52273H19.8652V2.95455H14.8932V9.82955ZM20.6749 8.97727C21.4389 9.68182 22.4196 9.98864 23.5828 9.98864C24.9627 9.98864 26.3881 9.22727 26.3881 7.81818C26.3881 6.90909 25.9092 6.21591 25.0767 5.86364C24.8258 5.76136 24.5977 5.69318 24.0275 5.5C23.5942 5.35227 23.0012 5.22727 23.0012 4.75C23.0012 4.375 23.3889 4.22727 23.7539 4.22727C24.324 4.22727 24.8258 4.46591 25.3162 4.82955L26.2513 3.65909C25.6127 3 24.5521 2.77273 23.7425 2.77273C22.3056 2.77273 21.074 3.52273 21.074 5.02273C21.074 6.13636 22.0433 6.68182 22.8188 6.94318L23.4802 7.17045C23.9249 7.31818 24.3469 7.51136 24.3469 7.875C24.3469 8.32955 23.9135 8.44318 23.5486 8.44318C22.8302 8.44318 22.2714 8.14773 21.7696 7.65909L20.6749 8.97727ZM48.42 8.97727C49.1841 9.68182 50.1648 9.98864 51.328 9.98864C52.7078 9.98864 54.1333 9.22727 54.1333 7.81818C54.1333 6.90909 53.6543 6.21591 52.8218 5.86364C52.571 5.76136 52.3429 5.69318 51.7727 5.5C51.3394 5.35227 50.7464 5.22727 50.7464 4.75C50.7464 4.375 51.1227 4.22727 51.499 4.22727C52.0578 4.22727 52.571 4.46591 53.0613 4.82955L53.9964 3.65909C53.3578 3 52.2973 2.77273 51.4876 2.77273C50.0507 2.77273 48.8191 3.52273 48.8191 5.02273C48.8191 6.13636 49.7885 6.68182 50.5639 6.94318L51.2253 7.17045C51.6701 7.31818 52.092 7.51136 52.092 7.875C52.092 8.32955 51.6587 8.44318 51.2937 8.44318C50.5753 8.44318 50.0165 8.14773 49.5148 7.65909L48.42 8.97727ZM56.4824 9.82955H58.3298V4.60227H60.3597V2.95455H54.4526V4.60227H56.4824V9.82955ZM43.6305 8.21591V4.54545H44.3831C45.4893 4.55682 46.2647 5.21591 46.2647 6.38636C46.2647 7.5 45.5121 8.21591 44.3831 8.22727H43.6305V8.21591ZM10.058 6.07955V4.38636H11.0274C11.5747 4.38636 11.8598 4.73864 11.8598 5.25C11.8598 5.71591 11.5747 6.07955 11.0502 6.07955H10.058ZM62.4579 7.06818L63.2562 4.48864L64.0202 7.06818H62.4579ZM62.743 2.375C62.743 2.05682 63.0053 1.79545 63.3246 1.79545C63.6439 1.79545 63.9062 2.05682 63.9062 2.375C63.9062 2.69318 63.6439 2.95455 63.3246 2.95455C63.0167 2.95455 62.743 2.69318 62.743 2.375Z" fill="white"/>
</svg>
