<?xml version="1.0" encoding="utf-8"?>
<!-- Generator: Adobe Illustrator 24.0.1, SVG Export Plug-In . SVG Version: 6.00 Build 0)  -->
<svg version="1.1" id="Layer_1" xmlns="http://www.w3.org/2000/svg" xmlns:xlink="http://www.w3.org/1999/xlink" x="0px" y="0px"
	 width="74.1534271px" height="16px" viewBox="0 0 74.1534271 16" enable-background="new 0 0 74.1534271 16" xml:space="preserve">
<title>Østfold kollektivtrafikk hvit</title>
<g>
	<path fill="#FFFFFF" d="M24.8428383,13.6634645v0.5533895H23.116787v-2.7713413h0.610487v2.1959915L24.8428383,13.6634645z"/>
	<path fill="#FFFFFF" d="M27.0520058,13.6634645v0.5533895h-1.7260513v-2.7713413h0.610487v2.1959915L27.0520058,13.6634645z"/>
	<path fill="#FFFFFF" d="M19.5021858,14.1553659l-0.0307426,0.0614882h-0.6060963l-0.737854-1.0804281
		c-0.1338787,0.0389929-0.2703819,0.0683479-0.4084549,0.0878401h-0.0614872v0.9881964h-0.6104851v-2.7669497h0.6104851v1.2648916
		l0,0c0.5514812-0.0603981,0.9694519-0.5256491,0.9706287-1.0804281v-0.1844635h0.6192703v0.2108145
		c0.0176125,0.4855843-0.2122478,0.9469595-0.6104851,1.2253647L19.5021858,14.1553659z"/>
	<path fill="#FFFFFF" d="M19.6471195,12.8289862c-0.0218315-0.8122911,0.6189632-1.4884796,1.4312553-1.5103121
		c0.8122921-0.0218306,1.4884796,0.6189642,1.5103111,1.4312553c0.0218296,0.8122911-0.6189632,1.4884815-1.4312553,1.5103121
		c-0.0129948,0.00035-0.0259972,0.0005264-0.0389977,0.0005312c-0.7829361,0.0291452-1.4412575-0.5819197-1.4704018-1.3648548
		C19.6471996,12.8736181,19.6468983,12.8513012,19.6471195,12.8289862z M21.9660854,12.8289862
		c-0.0145588-0.4703455-0.40765-0.8398333-0.8779964-0.8252764c-0.4703484,0.0145597-0.8398361,0.4076529-0.8252773,0.8779984
		c0.0142879,0.4616337,0.3937721,0.8278351,0.8556213,0.825675c0.4681473,0.0003099,0.8479042-0.3789454,0.8482132-0.8470917
		C21.9666519,12.8498535,21.9664688,12.8394175,21.9660854,12.8289862z"/>
	<path fill="#FFFFFF" d="M28.0753384,11.9857264v0.623661h1.0936031v0.4699421h-1.0936031v0.5929174h1.1550903v0.5402136h-1.756794
		v-2.7669477h1.756794v0.5402136H28.0753384z"/>
	<path fill="#FFFFFF" d="M32.2740746,14.1553659l-0.0307426,0.0614882h-0.6060944l-0.7378521-1.0804281
		c-0.1337662,0.0394506-0.270298,0.0688143-0.4084549,0.0878401h-0.0614872v0.9881964h-0.610487v-2.7669497h0.610487v1.2648916l0,0
		c0.5514793-0.0603981,0.9694519-0.5256491,0.9706268-1.0804281v-0.1844635h0.6192703v0.2108145
		c0.0176125,0.4855843-0.2122459,0.9469595-0.6104832,1.2253647L32.2740746,14.1553659z"/>
	<path fill="#FFFFFF" d="M34.8346024,11.9989014h-0.8783951v2.1959925h-0.6104889v-2.1959925h-0.8783951v-0.5533886h2.3980217
		L34.8346024,11.9989014z"/>
	<path fill="#FFFFFF" d="M35.2781944,11.4455128h0.6104851v2.7713423h-0.6104851V11.4455128z"/>
	<path fill="#FFFFFF" d="M41.4269714,11.9989014h-0.8783951v2.1959925h-0.6104851v-2.1959925h-0.8783989v-0.5533886h2.3980255
		L41.4269714,11.9989014z"/>
	<path fill="#FFFFFF" d="M44.158783,14.1553659l-0.0307465,0.0614882h-0.636837l-0.8256874-0.9267082h-0.2239914v0.9267092
		h-0.584137v-2.7713423h1.0013733c0.6631889,0,1.0979996,0.368926,1.0979996,0.9135313
		c0.0134888,0.4096079-0.2580681,0.7741117-0.6544037,0.878397L44.158783,14.1553659z M42.4546967,12.8377705h0.3513603
		c0.3645325,0,0.5753479-0.1888552,0.5753479-0.4391985c0-0.2503424-0.2108192-0.4391985-0.5753479-0.4391985h-0.3513603V12.8377705
		z"/>
	<path fill="#FFFFFF" d="M46.3372116,13.6810331h-1.3175964l-0.2327728,0.5358219h-0.6192741l1.273674-2.7713423h0.4743347
		l1.2824593,2.7713423h-0.623661L46.3372116,13.6810331z M46.1220016,13.1847382l-0.4391975-1.005765l-0.4391975,1.005765
		H46.1220016z"/>
	<path fill="#FFFFFF" d="M48.1159668,11.9857264v0.6500139h1.0408974v0.4787264h-1.0408974v1.0936041h-0.6192703v-2.762558h1.756794
		v0.5402136H48.1159668z"/>
	<path fill="#FFFFFF" d="M49.7937012,11.4455128h0.6104851v2.7713423h-0.6104851V11.4455128z"/>
	<path fill="#FFFFFF" d="M53.5444603,14.1553659l-0.0307465,0.0614882h-0.6060982l-0.7378502-1.0804281
		c-0.1337624,0.0394506-0.270298,0.0688143-0.4084511,0.0878401h-0.0614853v0.9881964h-0.6104889v-2.7669497h0.6104889v1.2648916
		l0,0c0.5514832-0.0603971,0.9694519-0.5256491,0.9706306-1.0804281v-0.1844635h0.6192703v0.2108145
		c0.0176125,0.4855843-0.2122459,0.9469595-0.6104851,1.2253647L53.5444603,14.1553659z"/>
	<path fill="#FFFFFF" d="M56.4475632,14.1553659l-0.0307503,0.0614882h-0.6060944l-0.7378502-1.0804281
		c-0.1338768,0.0389929-0.2703781,0.0683479-0.4084511,0.0878401h-0.065876v0.9881964h-0.6060982v-2.7669497h0.6060982v1.2648916
		h0.0219612c0.5497398-0.0624657,0.9653091-0.5271511,0.9662323-1.0804281v-0.1844635h0.623661v0.2108145
		c0.0174522,0.4865923-0.2143364,0.9485149-0.614872,1.2253647L56.4475632,14.1553659z"/>
	<path fill="#FFFFFF" d="M38.848877,11.4455128v0.0483122l-1.0540771,2.7230301h-0.4655495l-1.0452919-2.7230301v-0.0483122
		h0.584137l0.6983223,2.0247049l0.7071114-2.0247049H38.848877z"/>
	<path fill="#FFFFFF" d="M25.6817074,4.6686802c0.015871,2.4401278-1.9493809,4.4311066-4.3895111,4.4469748
		c-0.0579281,0.0003767-0.1158619-0.0003853-0.1737595-0.0022869c-0.852314,0.0068989-1.6909332-0.2145081-2.4287682-0.6412296
		l-0.7993393,0.9574528l-0.7861671-0.650013l0.7598114-0.9354935c-0.8612461-0.8367295-1.338129-1.9923716-1.3175945-3.1929731
		c-0.0135231-2.4401429,1.95364-4.4292312,4.3937798-4.4427552c0.0579739-0.0003217,0.1159458,0.0004984,0.1738853,0.0024587
		c0.8945198-0.006736,1.7733459,0.235018,2.5385666,0.6983256L24.4036388,0l0.7949486,0.6500135L24.451952,1.5284104
		C25.2668037,2.3676395,25.7099648,3.4992814,25.6817074,4.6686802z M19.0542049,6.4254737l3.4477081-4.1196818
		c-0.4137974-0.2615113-0.8939819-0.3987072-1.3834763-0.3952792C19.663063,1.9091455,18.4821396,3.087851,18.480772,4.5432272
		c-0.0000362,0.0389028,0.0007877,0.0778027,0.0024738,0.1166687c-0.013567,0.6386762,0.1874714,1.2634497,0.5709553,1.7743621
		L19.0542049,6.4254737z M23.7536278,4.6686802c0.0077839-0.590344-0.1670933-1.1686633-0.5006866-1.6557784l-3.4257488,4.0845451
		c0.3904533,0.2173076,0.8312778,0.3278909,1.2780685,0.3206148c1.4553509,0.0086451,2.6421547-1.1641412,2.650795-2.6194921
		C23.7563152,4.75526,23.7555046,4.7119508,23.7536278,4.6686802z"/>
	<path fill="#FFFFFF" d="M44.3915596,2.0422735v2.0247049h3.2281113v1.5108423h-3.2281113v3.38622h-1.8885574V0.3777109h5.4855919
		v1.6689538L44.3915596,2.0422735z"/>
	<path fill="#FFFFFF" d="M74.0901642,4.6686802c0,2.564919-1.7567978,4.2953606-4.3085403,4.2953606h-3.6189957V0.3777109h3.6189957
		C72.3948593,0.3777109,74.0901642,2.1345048,74.0901642,4.6686802z M72.2016068,4.6686802
		c0-1.5679386-0.9838028-2.635191-2.4551163-2.635191h-1.655777v5.2703815h1.655777
		C71.2441559,7.2950869,72.2016068,6.2278342,72.2016068,4.6686802z"/>
	<path fill="#FFFFFF" d="M48.8977394,4.6686802c-0.0285378-2.4254582,1.9145584-4.4148121,4.3400116-4.443346
		c0.0744362-0.0008754,0.14888,0.0001407,0.223259,0.0030493c2.6132317,0,4.5632744,1.888553,4.5632744,4.4402966
		c-0.0011597,2.5202255-2.0451546,4.5623283-4.5653763,4.5611658C50.9403229,9.2286844,48.8988991,7.1872606,48.8977394,4.6686802z
		 M56.1005898,4.6686802c0-1.4553761-1.1798134-2.635191-2.6351891-2.635191s-2.6351929,1.1798148-2.6351929,2.635191
		s1.1798172,2.6351905,2.6351929,2.6351905S56.1005898,6.1240559,56.1005898,4.6686802z"/>
	<path fill="#FFFFFF" d="M64.9680099,7.2467747v1.7172661h-5.3582191V0.3777109h1.8885536v6.8690639H64.9680099z"/>
	<path fill="#FFFFFF" d="M27.1574154,8.5336266l-0.3074379-1.756794l0.039526-0.0219598
		c0.9262905,0.4789829,1.9485645,0.7431831,2.9909401,0.7729883c1.0321159,0,1.730444-0.3469667,1.730444-0.935493
		c0-0.4391985-0.3074379-0.6851501-0.7949486-0.878397l-2.2047787-0.6148767
		c-1.0137196-0.2891955-1.7013531-1.2301657-1.6689548-2.2838323c0-1.6426022,1.361515-2.5868788,3.3510838-2.5868788
		c0.9225864-0.0170088,1.8370438,0.1751917,2.6747208,0.5621743v1.7084826
		c-0.7926941-0.4619355-1.6958275-0.7002406-2.6132298-0.6895415c-1.1287403,0-1.5240192,0.4391984-1.5240192,0.9969805
		c0,0.2810869,0.101017,0.6851504,0.764204,0.9047496l2.1345043,0.6412294
		c1.1023903,0.3162231,1.756794,1.0892119,1.756794,2.195992c0,1.629426-1.4713135,2.5780945-3.513588,2.5780945
		C29.0065346,9.0972891,28.0532875,8.8965263,27.1574154,8.5336266z"/>
	<path fill="#FFFFFF" d="M41.2864304,2.0949769h-2.8460083v6.8690639h-1.8929443V2.0949769h-2.8460083v-1.717266h7.5849609
		V2.0949769z"/>
	<path fill="#FFFFFF" d="M0.0632613,0.3777109v6.5352736c0,3.074389,2.4507282,6.8866324,6.3595934,9.0870152
		c3.9044738-2.1959925,6.3508096-5.9994507,6.3552022-9.0870171l0.0219593-6.5352721H0.0632613z M6.4316392,13.1144667
		c-1.1858363,0-2.1476803-0.2239904-2.1476803-0.3030472c0-0.0790558,0.961844-0.3074389,2.1476803-0.3074389
		s2.1432891,0.2239904,2.1432891,0.3074389c0,0.0834494-0.9706302,0.3030472-2.1520734,0.3030472H6.4316392z M6.4316392,11.4718637
		c-1.8226743,0-3.2939887-0.3293991-3.2939887-0.469943c0-0.140543,1.4713144-0.4743347,3.2939887-0.4743347
		s3.2939878,0.3162251,3.2939878,0.456768c0,0.1405439-1.4844904,0.469943-3.302772,0.469943L6.4316392,11.4718637z
		 M6.4316392,9.5613508c-2.2355204,0-4.0450177-0.4084549-4.0450177-0.5797424c0-0.1712866,1.8094974-0.5797415,4.0450177-0.5797415
		s4.040626,0.4084549,4.040626,0.5797415c0,0.1712875-1.8182812,0.5621738-4.0494103,0.5621738L6.4316392,9.5613508z
		 M10.6040239,7.0754876c-1.3905067,0.182169-2.7920122,0.2672877-4.1943445,0.2547359
		C5.0059881,7.3389487,3.603282,7.2538466,2.2109416,7.0754876c-0.0351367,0-0.0570962,0-0.0483122-0.0527034
		c0.8337824-2.1932969,2.2881649-4.0963588,4.1855612-5.4768057c0.0348802-0.0271081,0.0837035-0.0271081,0.1185837,0
		c1.8973961,1.3804467,3.351778,3.2835085,4.1855612,5.4768057C10.6786871,7.0535278,10.6523361,7.0710964,10.6040239,7.0754876z"/>
</g>
</svg>
