<?xml version="1.0" encoding="UTF-8"?>
<svg xmlns="http://www.w3.org/2000/svg" version="1.1" viewBox="0 0 641 329">
  <!-- Generator: Adobe Illustrator 28.6.0, SVG Export Plug-In . SVG Version: 1.2.0 Build 709)  -->
  <g>
    <g id="Layer_1">
      <g id="Layer_1-2" data-name="Layer_1">
        <path d="M613.6,162.1c-.7,3.4-2.2,6.5-3.9,9.1-5.2,8-12.9,12.5-22,14.3-15.9,3.2-31.4,1.9-46.7-4.7,1.1-6.4,2.1-12.5,3.1-18,8.4,1.8,16.6,4.1,24.9,5.2,4.3.6,9-.3,13.3-1.4,4.2-1,6.6-4.3,6.8-8.8.2-4.4-1.8-7.5-5.8-9-6.2-2.4-12.5-4.4-18.7-6.8-3.6-1.3-7.2-2.6-10.6-4.4-9.9-5.1-15.2-13.1-15.1-24.4,0-11.4,5.3-19.8,15-25.3,11.2-6.3,23.3-6.3,35.5-4.5,6.6,1,13.1,3.1,20.1,4.8-3.2,6.2-8.7,17.1-8.7,17.1-2.2-1.3-12.5-3.7-17.8-3.9-4.1,0-8.3.2-12.3,1.1s-6.7,3.7-7,8.1c-.3,4.1,1.7,7.2,5.3,8.8,4.8,2.1,10,3.6,14.9,5.6,6.1,2.5,12.4,4.7,18.2,7.9,3.8,2.1,6.7,5,8.8,8.6s2.9,7.4,3.1,11.4.2,5.1-.3,9.1h0Z" style="fill: #fff;"/>
        <path d="M96.3,197.7c-11.3-.6-21.5-3.5-30.6-9.5-8-5.2-16-10.3-26.2-10v-38.1c9.4-.3,18,1.5,26.3,5.3,3,1.4,6,2.9,8.7,4.9,16.6,12.1,33.1,12.1,49.8.1,11.2-8,24.1-10.8,37.8-10.4,13.1.4,24.8,4.7,35.4,12.1,7.5,5.3,15.7,7.6,24.9,7.1,7.7-.4,14.1-3.6,20.2-7.8,10.3-7,21.5-11.2,34.1-11.4.8,0,1.6,0,2.7.1v38c-10.8-.4-18.9,5.9-27.8,10.9-22.1,12.3-44.1,11.7-66-.9-5.9-3.4-11.8-7.1-18.2-8.9-10.4-2.9-20.4-.4-29.4,5.8-10,7-20.9,11.7-33.3,12.3-2.7.1-5.3.1-8.4.2v.2Z" style="fill: #fff;"/>
        <path d="M279.3,105.9v3.7H38.3v-4.4c19.7-14.8,43.1-32,63-46.6.4-.3.9-.4,1.5-.7,19,13.7,37.9,27.5,57.1,41.4,19.1-13.9,38.1-27.6,57.4-41.6" style="fill: #fff;"/>
        <path d="M435,140.4h-18.4c-1.8,9.4,2.6,18.8,11.4,23.6,11.2,6.1,23.2,5,35.1,2.5,3.6-.7,7-2.1,10.9-3.4,1.1,6,2.2,12,3.4,18.9-6.7,1.5-13.1,3.7-19.5,4.1-9.4.6-19.1,1-28.3-.6-23.8-4.2-38.1-21-39.1-45.5-.3-7.8.5-16.1,2.7-23.6,8.5-29.1,43.4-43.1,70.1-28.4,13.1,7.2,19.1,19.1,20.5,33.5.6,6.1,0,12.3,0,19h-48.8M428.1,103.3c-7,4.6-10.6,11.2-11.6,19.6h41.5c.8-18.1-12.6-27.1-29.9-19.6Z" style="fill: #fff;"/>
        <path d="M326.9,115v-30.8h19.3c1,5.3,2,10.8,3.2,17.2,10.8-18.9,26.4-23.3,46.4-16.3-4.8,6.6-9.2,12.7-13.7,18.6-.7.9-2.1,1.5-3.3,1.6-17.6,1.2-26.4,9.8-26.9,27.4-.4,15.5-.1,31-.2,46.5v4.7h-24.9v-68.9h.1Z" style="fill: #fff;"/>
        <path d="M523.9,122v62h-25.8v-4.8c0-16.5.1-33,0-49.4,0-3.9,1-7,3.3-10,4.6-5.9,8.8-12,13.7-18.6h-14.2c-1.2-7-2.4-13.7-3.5-20.6h26.6v41.5h0Z" style="fill: #fff;"/>
        <path d="M104.4,230.9h1.1v35H39.2v-35.1" style="fill: #fff;"/>
        <path d="M133.1,266.4h-6.6v-35.2h66v35.2h-59.4Z" style="fill: #fff;"/>
        <path d="M213.2,253v-21.8h66.2v34.8h-66.2v-13Z" style="fill: #fff;"/>
        <path d="M459.8,263.9c-9.9,6.5-21,2.6-23.7-8.4-1-4-1-8.6-.2-12.7,1.9-9.9,10.8-14.7,20.4-11.7,1.1.3,2.1.8,3.7,1.4v-16.9h8.8v50.3c-3.6,2.1-6.1-.2-8.9-2M452.7,236.9c-5.3.3-7.7,3.8-8.4,8.4-.8,5-.8,10.4,4.1,13.5,2,1.3,5.7,1.4,7.9.5,1.8-.8,3.1-3.9,3.6-6.2.6-2.9,0-6,.2-9,.5-5-2-7-7.4-7.3h0Z" style="fill: #fff;"/>
        <path d="M606.5,217.1c0,15.7,0,31.3-.2,47.5-.7.9-1.1,1.3-1.4,1.7-1.1,0-2.1,0-3.7-.2-.8-.5-1.1-.8-1.4-1-.9-.3-2-1.2-2.5-.9-11.9,6.8-23.5.7-24.5-13-.9-11.9,4.1-19.8,13.6-20.8,3.5-.4,7.1.7,11.2,1.2v-16.4c2.5,0,4.5,0,6.9.3,1,.7,1.5,1.1,2,1.5M597.8,249.4c0-1.3,0-2.7,0-4,.5-4.5-.6-7.9-5.8-8.5-4.7-.6-8.7,2.1-9.8,7.1-.5,2.1-.5,4.3-.4,6.4.4,6.3,3.8,10.1,8.8,10,5.1-.1,7.2-3,7.2-11Z" style="fill: #fff;"/>
        <path d="M398.4,260.3c-7.2,7.5-17.9,8.9-25.5,3.6-6.8-4.9-9-15.9-4.8-24.4,3.8-7.7,13.1-11.2,22.3-8.5,9.7,2.9,14.4,14.3,10.3,25-.5,1.4-1.4,2.6-2.3,4.3M391.6,242.2c-1.6-3.5-4.3-5.9-8.2-5-2.4.5-6,2.4-6.4,4.3-1,4.5-1,9.4-.2,13.9.6,3.5,3.9,5.1,7.7,5,3.8-.1,6.6-2.2,7.2-5.7.6-3.8.1-7.8-.1-12.4h0Z" style="fill: #fff;"/>
        <path d="M336,243.5v22.6h-8.8v-35.1h6.5c.5,1,1.1,2.3,1.7,3.8,1.4-.9,2.7-1.9,4.2-2.7,10.2-5.6,19.5-.2,19.5,11.3v21.5c0,.3-.1.6-.3,1.2h-8.6v-21c0-3.5-.3-6.8-4.5-7.8-3.6-.9-8.1,1.9-9.6,6.3h-.1Z" style="fill: #fff;"/>
        <path d="M524.6,263c0,.3,0,.7,0,1.3s-.2.4-.3.6c-.3.4-.6.6-.8.8s-.7.4-1,.4c-.8,0-1.7,0-2.7-.2s-.4-.1-.6-.2c-.8-.5-1.2-.8-1.6-.9-.7-.3-1.6-1-2.2-.8-3.6.9-7.2,2.6-10.8,2.7-5.5.2-9.5-3.4-10.4-8.2-1-5.5,1.5-10.5,7.1-12.2,4.1-1.3,8.5-1.5,12.9-2.1s1.3-.8,1.3-1.5c0-6.2-4.2-7.3-14.6-3.5s-1.6,0-1.9-.8-1-2-1.5-2.9-.1-1.7.6-2.1c9.2-5.4,19.1-4.5,24,2.3s1.7,3.6,1.6,5.6c-.3,6.8-.5,13.1-.5,19.3s.9,1.5,1.4,2.3M512.8,259.4c3.2-1.8,3.5-4.3,2.8-7.4s-.8-1.3-1.6-1.2c-2,0-3.8,0-5.7.5-3.2.6-5.8,2.2-5.1,5.9.6,3.5,3.6,3.9,6.6,3.5.8-.1,1.6-.5,3-1.1h0Z" style="fill: #fff;"/>
        <path d="M535,231.1c3-.3,6.2-1.3,6.3,3.6,2.8-1.3,5.3-3,8-3.8,9.1-2.7,15.7,1.9,16,11.3.3,7.3,0,14.6-.3,22.5-.6.9-.8,1.2-1.1,1.5-1.7,0-3.4.2-5.7-.1-.9-.6-1.2-.8-1.5-1,0-6.8-.2-13.6-.3-20.4,0-5.1-2.1-7.5-6-7.4-4.7.2-8.1,3.5-8.2,8,0,6.3,0,12.6-.4,19.5-.6.9-.8,1.2-1,1.5-1.7,0-3.4.2-5.7-.1-.9-.6-1.2-.8-1.5-1,0-10.7-.2-21.3,0-32.6.6-.8.8-1.1,1.1-1.3l.2-.2Z" style="fill: #fff;"/>
        <path d="M486.9,249v17.2h-8.7v-50.7h8.7v33.5h0Z" style="fill: #fff;"/>
        <path d="M417.9,265.4c-2.8.7-5.6.9-8.6,1.2v-35.5h6.5c.4,1.6.8,3.2,1.4,5.2,4.2-5.5,9.1-7.6,16-4.9-.4,2.1-.8,4.3-1.2,6.7-2-.1-3.8-.4-5.6-.4-5,.2-8.2,3.6-8.4,9.3-.2,6,0,12-.2,18.4h.1Z" style="fill: #fff;"/>
        <path d="M605.1,266.4c.2-.5.5-.9,1.1-1.3,0,.4-.5,1-1.1,1.3Z" style="fill: #fff;"/>
        <path d="M606.7,216.8c-.6-.1-1.1-.5-1.7-1.2.6.1,1.2.5,1.7,1.2Z" style="fill: #fff;"/>
        <path d="M534.7,231c0,.3,0,.5-.6.9,0-.2,0-.6.6-.9Z" style="fill: #fff;"/>
        <path d="M533.8,265.3c.4-.2.7,0,1.1.5-.3.1-.7,0-1.1-.5Z" style="fill: #fff;"/>
        <path d="M541.3,266.1c0-.3,0-.6.5-1,0,.3,0,.7-.5,1Z" style="fill: #fff;"/>
        <path d="M556.8,265.3c.3-.2.7,0,1.1.5-.3.1-.7,0-1.1-.5Z" style="fill: #fff;"/>
        <path d="M564.3,266.2c0-.3,0-.6.6-1.1,0,.3,0,.7-.6,1.1Z" style="fill: #fff;"/>
        <path d="M599.9,265.4c.3-.1.6,0,1,.6-.2,0-.6,0-1-.6Z" style="fill: #fff;"/>
      </g>
    </g>
  </g>
</svg>