<?xml version="1.0" encoding="utf-8"?>
<!-- Generator: Adobe Illustrator 24.0.1, SVG Export Plug-In . SVG Version: 6.00 Build 0)  -->
<svg version="1.1" id="Layer_1" xmlns="http://www.w3.org/2000/svg" xmlns:xlink="http://www.w3.org/1999/xlink" x="0px" y="0px"
	 width="55.9px" height="16px" viewBox="0 0 55.9 16" style="enable-background:new 0 0 55.9 16;" xml:space="preserve">
<style type="text/css">
	.st0{fill:#FFFFFF;}
</style>
<g>
	<path class="st0" d="M55.5,6.6l0.4-1.8H53L53.5,2h-1.9l-0.5,2.7h-2.9L48.7,2h-1.9l-0.5,2.7h-2.9L43,6.6h2.9l-0.5,2.7h-2.9l-0.4,1.8
		H45l-0.5,2.7h1.9l0.5-2.7h2.9l-0.5,2.7h1.9l0.5-2.7h2.9L55,9.3h-2.9l0.5-2.7L55.5,6.6z M50.2,9.3h-2.9l0.5-2.7h2.9L50.2,9.3z
		 M6.3,13.9L4,9.2H2.3v4.7H0V2h4.7c2.4,0,3.9,1.7,3.9,3.6c0,1.7-1,2.7-2.2,3.1L9,13.9H6.3z M4.5,4.1H2.3v3.1h2.2
		c1,0,1.7-0.7,1.7-1.6S5.5,4.1,4.5,4.1L4.5,4.1z M15.6,13.9v-0.8C15,13.7,14.2,14,13.4,14c-0.9,0-1.6-0.3-2.1-0.8
		c-0.7-0.7-0.9-1.5-0.9-2.5V5.2h2.2v5.3c0,1.2,0.8,1.6,1.4,1.6c0.7,0,1.5-0.4,1.5-1.6V5.2h2.2v8.7H15.6z M22.9,13.9
		c-1.8,0-2.5-1.3-2.5-2.5V6.8h-0.9V5.2h0.9V2.9h2.2v2.3h1.5v1.7h-1.5v4.4c0,0.5,0.2,0.8,0.8,0.8h0.8v1.8H22.9z M27.7,10.2
		c0,1.1,0.7,1.9,1.9,1.9c1,0,1.4-0.3,2-0.8l1.3,1.3C32,13.5,31.1,14,29.6,14c-2.1,0-4-0.9-4-4.5c0-2.8,1.5-4.4,3.8-4.4
		c2.4,0,3.8,1.8,3.8,4.2v1L27.7,10.2z M30.8,7.8c-0.2-0.5-0.7-0.9-1.5-0.9c-0.7,0-1.2,0.4-1.5,0.9c-0.1,0.3-0.2,0.6-0.2,0.9H31
		C31,8.4,30.9,8.1,30.8,7.8z M40.7,5.4c-0.4-0.2-0.8-0.3-1.4-0.3c-0.9,0-1.8,0.4-2.2,0.9V5.2h-2.1v8.7h2.2V8.7
		c0-1.1,0.7-1.5,1.4-1.6c0.8-0.1,1.2,0.3,1.2,0.3L40.7,5.4z"/>
</g>
</svg>
