<?xml version="1.0" encoding="utf-8"?>
<!-- Generator: Adobe Illustrator 24.0.1, SVG Export Plug-In . SVG Version: 6.00 Build 0)  -->
<svg version="1.1" id="Layer_1" xmlns="http://www.w3.org/2000/svg" xmlns:xlink="http://www.w3.org/1999/xlink" x="0px" y="0px"
	 width="24px" height="16px" viewBox="0 0 24 16" enable-background="new 0 0 24 16" xml:space="preserve">
<title>Misc/Logo/SJ</title>
<desc>Created with Sketch.</desc>
<g id="Min-Sida">
	<g id="Account---Membership-card-Black" transform="translate(-161.000000, -134.000000)">
		<g id="Misc_x2F_Logo_x2F_SJ" transform="translate(161.000000, 134.000000)">
			<path id="Shape" fill-rule="evenodd" clip-rule="evenodd" fill="#FFFFFF" d="M15.7707129,5.5579572
				c-0.2546244,1.7285442-1.8230333,1.8054299-2.8725443,1.7485723c-0.0738497-0.0038943-0.1517181-0.0168014-0.2140827-0.024034
				c-0.0984278-0.0115714-0.1060085-0.1205029-0.0210171-0.1564426c0.213048-0.0907941,1.2642822-0.6454639,1.3787889-1.8196726
				c0.0233145-0.2420068,0.0223951-0.5797048,0.0223951-0.6450186V0.1251985h1.7352877v4.5975828
				C15.7995405,5.2588692,15.7846107,5.4595966,15.7707129,5.5579572z M13.8498726,10.3912048
				c0.0717812-1.7723837,1.5623217-2.9931021,3.8683052-2.9931021h6.1979485c0.0853329,0,0.106926,0.0527411,0.0584602,0.1413097
				C23.7490177,7.957891,23.022583,9.1634769,22.122839,9.1634769h-3.6078243c-1.9926682,0-3.3276997,1.058712-3.709466,2.1471338
				c-0.0693693,0.1987238-0.2654209,0.6710548-0.5493326,0.6710548
				C13.8684778,11.9816656,13.8064585,11.4707241,13.8498726,10.3912048z M10.1504097,10.3912048
				c0.0434132,1.0795193-0.0179176,1.5904608-0.4066887,1.5904608c-0.2837973,0-0.4792738-0.472331-0.548645-0.6710548
				c-0.3823395-1.0884218-1.7171407-2.1471338-3.7096953-2.1471338H1.8772136c-0.8991707,0-1.6266385-1.205586-1.8522065-1.6240644
				c-0.0477781-0.0885687-0.0265306-0.1413097,0.0589187-0.1413097h6.1979485
				C8.5878582,7.3981028,10.0786266,8.6188211,10.1504097,10.3912048z M12.0002499,14.0624952
				c1.2978191,0,2.6006927-0.6678295,3.1458902-1.3960772c0.6759005-0.9031601,0.7982168-2.5435801,3.8236284-2.5435801h2.6713257
				c0.0854492,0,0.1073875,0.053854,0.0589199,0.1419773c-0.2255688,0.4185896-1.0562878,1.7545815-1.9561481,1.7545815h-1.2431507
				c-0.6713047,0-0.8277321,0.4479637-1.1505775,0.9748163C16.4003162,14.7840662,14.5250244,16,12.0002499,16
				c-2.5246601,0-4.4000673-1.2159338-5.3502312-3.0057869c-0.3221579-0.5268526-0.4792743-0.9748163-1.1502357-0.9748163H4.2566333
				c-0.8998599,0-1.7309234-1.3359919-1.9564915-1.7545815C2.2527082,10.176692,2.273726,10.122838,2.3590605,10.122838h2.6716702
				c3.0254121,0,3.1477284,1.64042,3.8236279,2.5435801C9.3993282,13.3946657,10.702775,14.0624952,12.0002499,14.0624952z
				 M12.6188164,0.348268v1.1062238c0,0-0.8994007-0.4248202-1.5787458-0.4248202
				c-0.6777372,0-1.1900892,0.2346636-1.1900892,0.7210149c0,0.6040725,1.1536808,0.8885843,1.5778275,1.032231
				c0.4239149,0.1435351,1.678091,0.6816258,1.678091,1.7757215c0,1.1609674-0.6543074,2.2255774-2.923768,2.2255774
				c-1.1951427,0-1.8781633-0.361064-1.8781633-0.361064V5.3290572c0.3948593,0.1443143,1.2821999,0.3611751,1.7393074,0.3611751
				c0.7773142,0,1.2463655-0.1636753,1.2463655-0.6532531c0-0.620985-1.2185707-0.9497814-1.6888876-1.1386027
				C9.1298647,3.7095549,8.0495739,3.2632601,8.0495739,1.9935842C8.0495739,0.5790373,9.3514118,0,10.9015598,0
				C11.954401,0,12.6188164,0.348268,12.6188164,0.348268z"/>
		</g>
	</g>
</g>
</svg>
