<svg fill="none" height="12" viewBox="0 0 72 12" width="72" xmlns="http://www.w3.org/2000/svg"
    xmlns:xlink="http://www.w3.org/1999/xlink">
    <g fill="#fff">
        <path
            d="m70.5457 5.94596c0 1.66047-1.1232 1.80563-2.4283 1.80563h-2.8109v-3.61126h2.8109c1.3051 0 2.4283.14516 2.4283 1.80563zm-2.4364-3.07812h-4.2543v6.15488h4.2543c2.2383 0 3.8907-.49923 3.8907-3.07812s-1.6524-3.07811-3.8907-3.07811z" />
        <path
            d="m59.2222 8.83144c-.1682-.16686-1.655-1.53838-2.0511-1.9033.0379-.00543.0746-.01221.1058-.01899.9984-.21435 1.6713-.81532 1.6713-1.94672v-.05291c0-1.45698-1.1097-2.04032-2.6155-2.04032h-5.3884v6.15488h1.4502v-2.02133h3.1012l1.7798 1.64962c.3242.29574.6498.369 1.1273.369h.8167s.1967.00407.0027-.18857zm-6.8277-4.69246h3.7388c.7949 0 1.3253.08003 1.3253.79496s-.5304.79497-1.3253.79497h-3.7388z" />
        <path
            d="m44.3716 6.3136-2.351 2.35098c-.2388.2469-.4246.44225-.5087.8126l-.1181.46532-.118-.46532c-.0841-.37035-.2699-.5657-.5087-.8126l-2.351-2.35098c-.2469-.23876-.4409-.42326-.8112-.50737l-.4653-.11802.4653-.11802c.3703-.08411.5643-.26861.8112-.50737l2.9791-2.97909 2.9764 2.97637c.2469.23877.4422.42598.8139.51009l.4653.11802-.4653.11802c-.3703.08411-.5643.26861-.8112.50737zm-2.256-5.590534-.7231 1.359314v-2.08238l-5.6882 5.68821 5.6882 5.68819 5.6882-5.68819z" />
        <path
            d="m30.5695 2.86786v4.39401s-4.4808-3.72928-4.805-4.02502c-.3242-.29573-.6498-.36899-1.1274-.36899h-.761v6.15488h1.4502v-4.39402s4.4808 3.72929 4.8051 4.02502c.3242.29574.6498.369 1.1273.369h.761v-6.15488z" />
        <path d="m18.3249 0h-.2754v11.3751h.2754z" />
        <path
            d="m8.21551 4.62599c-.13294.92249-.94962.96454-1.49632.93334-.03935-.00271-.07869-.00814-.1126-.01221-.05155-.00678-.05427-.06512-.01085-.08275.10988-.04748.65794-.34593.71899-.97268.01221-.12888.01221-.31066.01221-.34322v-2.42424h.90485v2.4568c-.00271.2876-.01085.39341-.01628.44632m-1.00252 2.58296c.03798-.94826.81531-1.60079 2.01454-1.60079h3.22737c.0434 0 .0556.02985.0312.07462-.1167.22519-.4965.86822-.9646.86822h-1.87885c-1.03779 0-1.73373.56706-1.93179 1.14768-.03527.10581-.13702.35814-.28489.35814-.20213 0-.23333-.27267-.21298-.85058m-1.92501.00271c-.03799-.94826-.81532-1.60079-2.01455-1.60079h-3.2300542c-.04341113 0-.0556205.02985-.0312018.07462.116667.22519.496514.86822.96454.86822h1.878886c1.0378 0 1.73373.56706 1.93179 1.14768.03527.10581.13702.35814.28489.35814.20484 0 .23605-.27267.21434-.85058m.96454 1.9657c-.67558 0-1.35388-.35678-1.63741-.74612-.35272-.48295-.41648-1.35796-1.99148-1.35796h-1.39187c-.04341 0-.05562.02985-.0312.07462.11666.22248.54942.9374 1.0188.9374h.64845c.35 0 .4314.24012.59962.52094.4938.9564 1.47055 1.60622 2.78509 1.60622s2.29129-.64982 2.78781-1.60622c.16821-.28082.24961-.52094.59961-.52094h.64842c.4694 0 .9022-.71492 1.0188-.9374.0245-.04749.015-.07462-.0312-.07462h-1.39183c-1.57501 0-1.64013.87772-1.99149 1.35796-.28488.38798-.96453.74612-1.64012.74612zm.32287-7.33104v.59147s-.46938-.22655-.82345-.22655c-.35408 0-.62132.12481-.62132.38527 0 .32287.59961.47481.82074.55214.22112.07732.875.36492.875.94826 0 .62132-.34186 1.18973-1.52346 1.18973-.62267 0-.97946-.19399-.97946-.19399v-.58605c.2062.07733.6688.19399.90621.19399.40426 0 .64981-.08817.64981-.35 0-.33101-.63489-.50872-.87908-.60775-.24554-.10039-.80853-.33915-.80853-1.01745 0-.75698.67694-1.06493 1.48547-1.06493.54943 0 .89536.18586.89536.18586" />
    </g>
</svg>
