<svg width="7" height="8" viewBox="0 0 6.1 8" fill="none" xmlns="http://www.w3.org/2000/svg">
    <path
        d="M5.97 0.00015625C5.97 0.00015625 5.95 0.00015625 5.94 0.00015625H3.07C2.84 0.00015625 2.6 0.00015625 2.37 0.00015625C1.63 0.00015625 0.91 0.00015625 0.18 0.00015625C0.04 0.00015625 0 0.0301563 0 0.190156C0 0.990156 0.02 1.79016 0.1 2.59016C0.19 3.47016 0.32 4.33016 0.68 5.14016C1.2 6.30016 2.05 7.14016 2.98 7.91016C3.06 7.97016 3.1 7.94016 3.15 7.89016C3.23 7.82016 3.31 7.75016 3.39 7.67016C3.55 7.53016 3.72 7.39016 3.88 7.24016C4.74 6.43016 5.43 5.47016 5.73 4.26016C6.07 2.91016 6.11 1.52016 6.11 0.130156C6.11 -0.00984375 6.04 0.00015625 5.97 0.00015625ZM0.25 0.250156C0.95 0.250156 1.66 0.250156 2.36 0.250156C2.59 0.250156 2.83 0.250156 3.06 0.250156H5.86C5.12 1.21016 4.26 2.38016 3.52 3.34016C3.38 3.53016 3.23 3.71016 3.09 3.90016L1.49 6.01016C1.27 5.71016 1.07 5.39016 0.91 5.04016C0.75 4.69016 0.64 4.32016 0.56 3.95016C0.57 3.95016 0.57 3.95016 0.59 3.95016C1.16 3.95016 1.72 3.95016 2.29 3.95016C2.49 3.95016 2.7 3.95016 2.9 3.95016H2.92C2.97 3.95016 3.04 3.95016 3.04 3.95016M3.71 7.06016C3.56 7.21016 3.4 7.34016 3.24 7.48016C3.18 7.53016 3.12 7.59016 3.05 7.64016C2.46 7.15016 1.93 6.62016 1.49 6.01016C1.72 6.01016 1.94 6.01016 2.16 6.01016C2.96 6.01016 3.75 6.01016 4.54 6.01016C4.58 6.01016 4.61 6.00016 4.63 5.99016C4.36 6.37016 4.05 6.73016 3.7 7.06016H3.71Z"
        fill="white" />
</svg>