<svg width="47" height="12" viewBox="0 0 47 12" fill="none" xmlns="http://www.w3.org/2000/svg">
<path fill-rule="evenodd" clip-rule="evenodd" d="M11.2475 5.745L15.065 9.4125L12.9275 9.4125L9.76254 6.33H9.46255V9.4125H7.82755V0H9.46254V5.145H9.80005L12.815 2.85H14.99L11.2475 5.745ZM4.31004 5.49002C6.07254 5.78252 6.81504 6.33752 6.80754 7.45502C6.80754 8.82752 5.53254 9.48752 3.27504 9.48752C2.55504 9.48752 1.70754 9.43502 0.740042 9.34502L0.590042 9.33002L0.785042 8.22752L0.807542 8.10002L0.935042 8.11502C1.91004 8.22002 2.56254 8.25752 3.21504 8.25752C3.86754 8.25752 4.36254 8.17502 4.67754 8.04002C4.98504 7.89752 5.10504 7.73252 5.11254 7.50002C5.11254 7.24502 4.94004 7.03502 4.42254 6.84752C4.22004 6.77252 4.00254 6.72752 3.41754 6.62252C2.58504 6.46502 1.99254 6.34501 1.70004 6.23252C0.935042 5.96252 0.500042 5.37002 0.507542 4.60502C0.507542 3.36752 1.60254 2.79752 3.58254 2.79752C4.28004 2.79752 5.22504 2.84252 6.10254 2.94752L6.23754 2.96252L6.05754 4.15502L5.93004 4.14002C5.16504 4.05002 4.53504 4.01252 3.89754 4.01252C3.24504 4.01252 2.78004 4.06502 2.51004 4.17752C2.24004 4.29752 2.16504 4.41002 2.15754 4.62752C2.15754 4.92002 2.39004 5.13002 2.91504 5.25002C3.08004 5.28752 3.53004 5.36252 4.31004 5.49002ZM22.805 9.18V2.85H21.1025V8.1675C20.66 8.2275 20.15 8.2725 19.7975 8.2725C17.825 8.2725 17.615 7.68 17.615 6.6V2.85H15.9125V6.615C15.9125 8.9475 17.3 9.51 19.6025 9.51C20.045 9.51 20.705 9.435 21.0875 9.3375L21.0869 9.37192C21.0798 9.74628 21.0718 10.1708 20.8025 10.44C20.5475 10.695 19.9925 10.74 19.1225 10.74C18.335 10.74 17.4125 10.6425 16.6325 10.5225L16.43 11.7375C17.48 11.9175 18.35 12 19.205 12C22.1375 12 22.805 11.1525 22.805 9.18ZM27.7175 5.49C29.48 5.7825 30.23 6.3375 30.215 7.455C30.215 8.8275 28.94 9.4875 26.675 9.48C25.9475 9.48 25.1075 9.4275 24.14 9.3375L23.99 9.3225L24.185 8.22L24.2075 8.0925L24.335 8.1075C25.31 8.2125 25.9625 8.25 26.615 8.25C27.2675 8.25 27.7625 8.1675 28.0775 8.0325C28.385 7.89 28.505 7.725 28.5125 7.4925C28.5125 7.2375 28.34 7.035 27.8225 6.84C27.62 6.765 27.4025 6.72 26.8175 6.615C25.985 6.4575 25.3925 6.3375 25.1 6.225C24.3425 5.955 23.9 5.3625 23.9075 4.5975C23.915 3.3675 25.0026 2.79 26.9825 2.79C27.68 2.79 28.6325 2.8425 29.51 2.9475L29.6525 2.9625L29.4725 4.155L29.345 4.14C28.58 4.05 27.95 4.0125 27.3125 4.0125C26.66 4.0125 26.195 4.065 25.925 4.1775C25.655 4.2975 25.58 4.41 25.5725 4.6275C25.5725 4.9125 25.805 5.13 26.33 5.25C26.4875 5.2875 26.9375 5.3625 27.7175 5.49ZM37.2725 7.455C37.28 6.3375 36.5375 5.7825 34.775 5.49C33.995 5.3625 33.5525 5.2875 33.3875 5.25C32.8625 5.13 32.63 4.9125 32.63 4.6275C32.6375 4.41 32.7125 4.2975 32.9825 4.1775C33.2525 4.065 33.7175 4.0125 34.37 4.0125C35.0075 4.0125 35.6375 4.05 36.4025 4.14L36.53 4.155L36.71 2.9625L36.5675 2.9475C35.69 2.8425 34.7375 2.79 34.04 2.79C32.06 2.79 30.965 3.3675 30.965 4.5975C30.9575 5.3625 31.3925 5.955 32.1575 6.225C32.45 6.3375 33.0425 6.4575 33.875 6.615C34.46 6.72 34.6775 6.765 34.88 6.84C35.3975 7.035 35.57 7.2375 35.57 7.4925C35.5625 7.725 35.4425 7.89 35.135 8.0325C34.82 8.1675 34.325 8.25 33.6725 8.25C33.02 8.25 32.3675 8.2125 31.3925 8.1075L31.265 8.0925L31.2425 8.22L31.0475 9.3225L31.1975 9.3375C32.165 9.4275 33.005 9.48 33.7325 9.48C35.9975 9.4875 37.2725 8.8275 37.2725 7.455ZM46.83 2.78662H46.86C46.8644 2.78662 46.8688 2.78659 46.8732 2.78655C46.9385 2.78596 47 2.78541 47 2.91662C47 4.30662 46.96 5.69663 46.62 7.04663C46.32 8.25663 45.63 9.21662 44.77 10.0266C44.6606 10.1292 44.5464 10.2272 44.434 10.3236C44.3821 10.3682 44.3306 10.4124 44.28 10.4566C44.2 10.5366 44.1201 10.6066 44.0401 10.6766L44.04 10.6766C43.99 10.7266 43.95 10.7566 43.87 10.6966C42.94 9.92662 42.09 9.08663 41.57 7.92662C41.21 7.11662 41.08 6.25662 40.99 5.37662C40.91 4.57662 40.89 3.77662 40.89 2.97662C40.89 2.81662 40.93 2.78662 41.07 2.78662H43.26H43.96H46.83ZM43.25 3.03662H41.14L43.93 6.73662H43.81H43.79H43.18H41.48H41.45C41.53 7.10662 41.64 7.47662 41.8 7.82662C41.96 8.17663 42.16 8.49662 42.38 8.79663C42.82 9.40662 43.35 9.93662 43.94 10.4266C43.9858 10.3939 44.0273 10.3569 44.0673 10.3213C44.0885 10.3024 44.1093 10.2839 44.13 10.2666C44.1715 10.2303 44.2129 10.1947 44.2542 10.1593C44.3723 10.0579 44.4889 9.95776 44.6 9.84662H44.59C44.94 9.51662 45.25 9.15662 45.52 8.77662C45.5 8.78662 45.47 8.79663 45.43 8.79663H43.05H42.38L43.98 6.68662C44.05 6.59163 44.1225 6.49913 44.195 6.40663C44.2675 6.31413 44.34 6.22163 44.41 6.12662C44.78 5.64665 45.18 5.11418 45.58 4.58171C45.98 4.04918 46.38 3.51665 46.75 3.03662H43.95H43.25Z" fill="white"/>
</svg>
