<svg width="63" height="12" viewBox="0 0 63 12" fill="none" xmlns="http://www.w3.org/2000/svg">
<g clip-path="url(#clip0_617_1078)">
<path d="M51.3085 8.09316C51.0879 8.30618 50.8307 8.45876 50.54 8.55696C50.3665 8.61588 50.1899 8.65516 50.0058 8.67631C49.8049 8.70048 49.607 8.68387 49.4077 8.67178C49.327 8.66725 49.2463 8.65365 49.1687 8.6325C49.0317 8.59473 48.8917 8.56149 48.7639 8.50257C48.6193 8.4361 48.4793 8.35301 48.3499 8.26085C47.9907 8.00855 47.7457 7.66561 47.5677 7.26979C47.4459 6.99936 47.3774 6.71534 47.3287 6.42376C47.2648 6.04154 47.2739 5.65932 47.3089 5.27558C47.3302 5.04746 47.382 4.82689 47.4459 4.60934C47.5692 4.18179 47.7685 3.7905 48.0638 3.45209C48.4199 3.04267 48.8689 2.79038 49.4046 2.69369C49.642 2.64988 49.881 2.63628 50.1199 2.668C50.5019 2.71635 50.8581 2.83268 51.1609 3.08044C51.167 3.08649 51.1761 3.08951 51.1959 3.10008C51.1974 3.06836 51.202 3.04418 51.202 3.02001C51.202 2.27672 51.202 1.53191 51.202 0.788614C51.202 0.704011 51.202 0.619409 51.2142 0.536317C51.237 0.368622 51.3375 0.288551 51.5064 0.268911C51.721 0.244739 51.9341 0.208481 52.1486 0.181287C52.2674 0.166179 52.3876 0.157115 52.5078 0.143518C52.5702 0.135964 52.6326 0.120856 52.695 0.116324C52.7422 0.113303 52.7924 0.116324 52.8381 0.12841C52.9111 0.146539 52.9614 0.196395 52.9735 0.271933C52.9827 0.32481 52.9857 0.379197 52.9857 0.433585C52.9857 2.4006 52.9857 4.3661 52.9857 6.33312C52.9857 6.94498 52.9857 7.55533 52.9857 8.16718C52.9857 8.21251 52.9842 8.25783 52.975 8.30164C52.9507 8.4361 52.8685 8.51466 52.7331 8.53279C52.6935 8.53883 52.6539 8.54034 52.6144 8.54034C52.31 8.54034 52.0056 8.54034 51.7027 8.54034C51.6784 8.54034 51.654 8.54034 51.6297 8.53732C51.4501 8.51919 51.3694 8.44063 51.3512 8.26387C51.3451 8.20798 51.339 8.15057 51.3329 8.09467C51.3298 8.09014 51.3283 8.0856 51.3253 8.08107C51.3192 8.0856 51.3146 8.09014 51.3085 8.09467V8.09316ZM51.199 5.64421C51.199 5.27105 51.199 4.89789 51.2005 4.52473C51.2005 4.46732 51.1837 4.42955 51.1381 4.39632C51.0057 4.30114 50.8657 4.22409 50.7089 4.1697C50.5019 4.0987 50.2995 4.05791 50.0788 4.09719C49.9129 4.1274 49.7699 4.18934 49.6405 4.29208C49.4472 4.44617 49.3285 4.65466 49.2524 4.87976C49.1839 5.08523 49.1368 5.29976 49.1352 5.52033C49.1337 5.81039 49.1307 6.10046 49.2098 6.38297C49.257 6.55369 49.3179 6.71685 49.4229 6.86188C49.572 7.06886 49.7729 7.20634 50.0256 7.24109C50.4441 7.2985 50.8017 7.14289 51.1305 6.89965C51.1807 6.86188 51.199 6.81656 51.199 6.75462C51.1959 6.38448 51.199 6.01435 51.199 5.64421Z" fill="white"/>
<path d="M14.7748 8.6733C14.6348 8.6733 14.4963 8.6733 14.3563 8.6733C14.3213 8.6733 14.2863 8.65517 14.2513 8.65215C14.1371 8.64007 14.023 8.63704 13.9104 8.6174C13.7475 8.59021 13.5877 8.55395 13.4264 8.51921C13.2544 8.48144 13.0809 8.4482 12.912 8.39985C12.7583 8.35604 12.6061 8.30166 12.4569 8.24274C12.3245 8.19137 12.2819 8.11734 12.2865 7.97684C12.2895 7.86807 12.3276 7.76836 12.3626 7.66865C12.4523 7.40426 12.5421 7.13988 12.6319 6.87549C12.6411 6.8483 12.6532 6.82111 12.6654 6.79391C12.7324 6.64284 12.842 6.63377 12.9728 6.65341C13.0079 6.65946 13.0429 6.67305 13.0779 6.68514C13.1905 6.72593 13.3001 6.77276 13.4142 6.806C13.5618 6.84981 13.7125 6.88305 13.8632 6.91931C13.9941 6.95103 14.1249 6.99031 14.2589 7.00542C14.5541 7.04017 14.8524 7.07491 15.1492 7.04017C15.4094 7.00995 15.6545 6.92233 15.8493 6.73499C16.1567 6.43737 16.1339 5.96148 15.8021 5.68048C15.659 5.55962 15.4916 5.47955 15.3257 5.39948C15.2162 5.34509 15.099 5.30581 14.9879 5.25444C14.8007 5.16833 14.618 5.07617 14.4308 4.98855C14.2056 4.8828 13.9773 4.78007 13.7505 4.67582C13.364 4.49906 13.0261 4.26036 12.7598 3.92648C12.568 3.68476 12.4387 3.41433 12.3595 3.11671C12.2941 2.86895 12.3017 2.61816 12.3047 2.36738C12.3047 2.19817 12.3473 2.03501 12.4036 1.88091C12.5513 1.4866 12.7948 1.15725 13.1311 0.895891C13.3503 0.725175 13.5877 0.587695 13.8449 0.481942C14.0884 0.382231 14.3411 0.314247 14.6013 0.265902C15.0427 0.184321 15.484 0.205472 15.9239 0.252306C16.2998 0.291585 16.6696 0.368634 17.0288 0.489496C17.2007 0.548415 17.3697 0.61791 17.5386 0.684384C17.5751 0.697981 17.6101 0.717621 17.6436 0.738771C17.7715 0.817331 17.8126 0.910999 17.7699 1.05301C17.738 1.15725 17.6954 1.25847 17.6558 1.36121C17.601 1.49869 17.5447 1.63617 17.4899 1.77516C17.4549 1.86278 17.4184 1.9504 17.3864 2.03803C17.2966 2.27824 17.152 2.27824 16.9588 2.21932C16.8294 2.18004 16.7046 2.12112 16.5768 2.07731C16.423 2.02443 16.2709 1.97004 16.1141 1.93076C15.9817 1.89753 15.8447 1.88091 15.7077 1.86127C15.6088 1.84616 15.5099 1.83256 15.411 1.82803C15.2101 1.81595 15.0122 1.84616 14.8174 1.89753C14.5283 1.97307 14.3243 2.22838 14.3121 2.52298C14.3045 2.71485 14.3974 2.85837 14.5374 2.97168C14.6454 3.05779 14.7657 3.13333 14.8874 3.1983C15.0351 3.27685 15.1903 3.3388 15.341 3.40829C15.516 3.48836 15.6895 3.57145 15.8645 3.65152C16.143 3.77843 16.4261 3.89627 16.7 4.03073C16.9968 4.17576 17.2586 4.37065 17.4793 4.61841C17.7182 4.88582 17.875 5.19553 17.9389 5.54753C17.98 5.7681 18.0043 5.99321 17.9785 6.2168C17.9587 6.39658 17.9374 6.57787 17.8902 6.7501C17.6832 7.51606 17.1962 8.05087 16.4778 8.38475C16.2039 8.51165 15.9162 8.59625 15.6164 8.64309C15.3364 8.6869 15.0564 8.70201 14.7733 8.67632L14.7748 8.6733Z" fill="white"/>
<path d="M38.0557 3.27836C38.0633 3.20131 38.0648 3.12426 38.08 3.04872C38.1074 2.91124 38.1927 2.83722 38.3205 2.8206C38.354 2.81607 38.3875 2.81758 38.4209 2.81758C38.7406 2.81758 39.0602 2.81758 39.3798 2.81758C39.4193 2.81758 39.4589 2.81758 39.4985 2.82513C39.6111 2.84779 39.6826 2.91427 39.7055 3.02606C39.7146 3.0729 39.7192 3.12124 39.7192 3.16958C39.7192 4.48244 39.7207 5.7968 39.7192 7.10966C39.7192 7.30606 39.7937 7.36346 39.9687 7.35289C40.1636 7.3408 40.2427 7.42994 40.2366 7.61425C40.229 7.82727 40.2366 8.0418 40.2351 8.25633C40.2351 8.43006 40.1559 8.5192 39.9824 8.53582C39.9185 8.54186 39.8546 8.53733 39.7907 8.53733C39.5533 8.53431 39.3158 8.53431 39.0799 8.52826C38.9506 8.52524 38.8212 8.50409 38.6995 8.4633C38.5047 8.39834 38.3449 8.28503 38.2398 8.10525C38.2201 8.07201 38.2003 8.03878 38.1774 7.99799C38.1607 8.01309 38.144 8.02518 38.1303 8.03878C37.9842 8.1823 37.8167 8.29561 37.6341 8.38776C37.2886 8.56301 36.9249 8.68085 36.5322 8.69143C36.2903 8.69747 36.0513 8.67028 35.8139 8.61136C35.1427 8.44064 34.6755 8.02971 34.3589 7.43145C34.2417 7.21088 34.1626 6.97671 34.1063 6.73499C33.9967 6.26212 33.9769 5.78472 34.0256 5.30127C34.05 5.05653 34.1002 4.81934 34.1717 4.58517C34.3635 3.95065 34.7196 3.43095 35.2767 3.05477C35.546 2.87347 35.8443 2.75564 36.1624 2.69672C36.4074 2.65139 36.657 2.63326 36.9036 2.67708C37.036 2.69974 37.1715 2.71484 37.2947 2.78132C37.3526 2.81153 37.4195 2.82211 37.4789 2.8493C37.6813 2.94146 37.8517 3.07441 37.9979 3.23908C38.0131 3.25721 38.0237 3.27836 38.0374 3.298C38.045 3.29196 38.0526 3.28591 38.0603 3.27987L38.0557 3.27836ZM37.9294 5.6427C37.9294 5.2907 37.9294 4.93869 37.9294 4.58517C37.9294 4.53229 37.9141 4.49604 37.8715 4.46431C37.7102 4.34647 37.5382 4.25431 37.3465 4.18784C37.1364 4.11381 36.9295 4.09417 36.7179 4.14856C36.3374 4.24676 36.1152 4.51265 35.9813 4.85862C35.9159 5.0248 35.8748 5.19854 35.8626 5.37983C35.8413 5.72126 35.8398 6.05968 35.9265 6.39507C35.9707 6.56729 36.0376 6.73045 36.1381 6.87851C36.2826 7.09002 36.4896 7.2139 36.7362 7.26073C36.8473 7.28188 36.9675 7.27131 37.0801 7.25469C37.3891 7.20635 37.6463 7.05376 37.8715 6.84376C37.9157 6.80297 37.9309 6.76067 37.9309 6.70175C37.9278 6.34974 37.9309 5.99773 37.9309 5.64422L37.9294 5.6427Z" fill="white"/>
<path d="M60.9302 7.99043C60.7841 8.14302 60.6227 8.25935 60.4462 8.35604C60.192 8.49503 59.9242 8.59323 59.6411 8.65215C59.4356 8.69596 59.2271 8.69747 59.0171 8.68236C58.7964 8.66725 58.5803 8.62646 58.3733 8.55395C57.8178 8.35755 57.413 7.9859 57.136 7.47224C56.9854 7.19275 56.8864 6.89513 56.8301 6.58542C56.7936 6.38902 56.7738 6.18658 56.7662 5.98716C56.7571 5.76508 56.7647 5.54148 56.7708 5.3194C56.7738 5.23933 56.7921 5.15926 56.8088 5.0807C56.8438 4.91452 56.8697 4.7438 56.9199 4.58215C57.0234 4.2528 57.1741 3.94461 57.3826 3.66663C57.6702 3.28289 58.0355 2.99736 58.4829 2.81909C58.6458 2.75412 58.8162 2.71484 58.9912 2.68765C59.1967 2.65441 59.4006 2.64233 59.6061 2.66952C59.8648 2.70427 60.1129 2.77678 60.3427 2.90369C60.4873 2.98376 60.6151 3.08498 60.7262 3.20735C60.7506 3.23304 60.7749 3.25872 60.8145 3.30253C60.8191 3.24814 60.8191 3.2134 60.8236 3.18016C60.8343 3.11671 60.8404 3.05174 60.8602 2.99131C60.8982 2.87347 60.991 2.8206 61.1098 2.81909C61.3411 2.81455 61.5724 2.81758 61.8038 2.81758C61.9346 2.81758 62.0655 2.81758 62.1964 2.81909C62.2999 2.8206 62.3927 2.85686 62.4369 2.95505C62.4643 3.01851 62.4704 3.09405 62.478 3.16354C62.4841 3.23455 62.4795 3.30857 62.4795 3.37958C62.4795 4.59272 62.4795 5.80738 62.4795 7.02052C62.4795 7.07491 62.4795 7.1293 62.481 7.18368C62.4856 7.2849 62.5358 7.33929 62.6362 7.35138C62.6819 7.35591 62.7276 7.35289 62.7732 7.3544C62.9224 7.35893 62.9924 7.42238 62.9939 7.57044C62.9985 7.80461 62.9985 8.04029 62.9939 8.27446C62.9909 8.43309 62.9087 8.51769 62.7489 8.53431C62.6743 8.54186 62.5967 8.53733 62.5206 8.53733C62.3014 8.53582 62.0823 8.53582 61.8631 8.53129C61.7246 8.52826 61.5861 8.50711 61.4552 8.4633C61.2498 8.39532 61.0854 8.27446 60.9819 8.08108C60.9682 8.0554 60.953 8.02971 60.9302 7.99043ZM60.6928 5.64573C60.6928 5.59134 60.6928 5.53695 60.6928 5.48256C60.6928 5.18494 60.6928 4.88732 60.6928 4.58819C60.6928 4.54891 60.6958 4.51265 60.6547 4.48395C60.4782 4.36309 60.3031 4.2392 60.0901 4.1818C60.0185 4.16216 59.947 4.14705 59.874 4.13194C59.6913 4.09568 59.5209 4.11985 59.3535 4.18935C58.9943 4.3374 58.8025 4.62445 58.7006 4.97797C58.5742 5.41609 58.5818 5.86025 58.6671 6.30593C58.699 6.4706 58.7523 6.62923 58.8345 6.77729C58.9517 6.99031 59.1236 7.1444 59.3535 7.21994C59.5193 7.27433 59.6974 7.28793 59.874 7.24865C60.1707 7.18217 60.4264 7.04016 60.6425 6.83016C60.6791 6.79391 60.6943 6.75312 60.6943 6.70175C60.6928 6.34974 60.6943 5.99773 60.6943 5.64573H60.6928Z" fill="white"/>
<path d="M26.8345 6.14579C26.8467 6.25758 26.8756 6.35729 26.9198 6.44945C27.0872 6.79088 27.352 7.03261 27.7096 7.17311C27.9014 7.24713 28.0977 7.28944 28.3047 7.28793C28.4995 7.28641 28.6913 7.27584 28.8846 7.25016C29.2163 7.20483 29.5314 7.11117 29.8403 6.9903C29.886 6.97218 29.9393 6.96311 29.9895 6.9616C30.0762 6.95858 30.1462 7.01146 30.1721 7.09757C30.2026 7.19426 30.2284 7.29246 30.2543 7.39066C30.2984 7.55986 30.3426 7.72756 30.3837 7.89827C30.3989 7.96173 30.4111 8.02518 30.3898 8.09316C30.3547 8.1974 30.2771 8.2533 30.1843 8.29409C30.058 8.34697 29.9301 8.39834 29.8008 8.44064C29.5664 8.5192 29.3244 8.56452 29.0794 8.60833C28.7461 8.66876 28.4128 8.68689 28.078 8.69294C27.8877 8.69596 27.6959 8.67481 27.5042 8.6597C27.2576 8.64006 27.0202 8.57963 26.7904 8.49805C26.0842 8.24575 25.5653 7.78799 25.2426 7.11117C25.1498 6.91477 25.0859 6.7093 25.0387 6.4978C24.9504 6.10802 24.9321 5.71371 24.9687 5.31789C24.9763 5.23178 24.9824 5.14566 24.9915 5.05955C24.9961 5.0248 25.0113 4.99156 25.0189 4.95682C25.06 4.73776 25.1178 4.52172 25.2137 4.32078C25.3674 3.99446 25.5653 3.69684 25.8331 3.44907C26.2425 3.07138 26.7265 2.83721 27.2729 2.73146C27.6107 2.6665 27.9516 2.63175 28.2941 2.67405C28.463 2.69369 28.6335 2.72088 28.7963 2.76923C29.4903 2.97167 29.9895 3.40526 30.2923 4.05489C30.4004 4.28604 30.4658 4.53078 30.5054 4.7861C30.5587 5.12753 30.5754 5.47048 30.5693 5.81493C30.5693 5.85421 30.5663 5.89349 30.5587 5.93126C30.5419 6.02493 30.4902 6.0914 30.3958 6.11859C30.3441 6.1337 30.2908 6.1473 30.2376 6.1473C29.4949 6.15032 28.7537 6.15032 28.011 6.15183C27.6518 6.15183 27.2926 6.15183 26.935 6.15183C26.9015 6.15183 26.8695 6.15183 26.8315 6.15183L26.8345 6.14579ZM28.8191 5.01422C28.8404 4.84351 28.7887 4.69092 28.7278 4.54136C28.6106 4.2528 28.3762 4.10021 28.081 4.03223C27.9532 4.00352 27.8238 4.01863 27.6929 4.0428C27.2394 4.1259 26.9 4.58517 26.8604 5.01422H28.8191Z" fill="white"/>
<path d="M42.7143 3.30405C42.7524 3.27686 42.7782 3.26024 42.8011 3.24362C43.18 2.97168 43.5955 2.78737 44.0567 2.70579C44.3352 2.65593 44.6167 2.6378 44.8998 2.66953C45.1464 2.69824 45.3823 2.75716 45.6014 2.87348C45.8997 3.0306 46.1143 3.26628 46.2543 3.56844C46.335 3.74368 46.3913 3.92498 46.4217 4.11835C46.4628 4.38123 46.4856 4.64561 46.4872 4.9115C46.4872 5.9781 46.4872 7.0447 46.4872 8.10979C46.4872 8.17476 46.4811 8.24123 46.472 8.30619C46.4552 8.42554 46.3745 8.50863 46.2543 8.52827C46.2071 8.53583 46.1569 8.54036 46.1097 8.54036C45.7658 8.54036 45.4218 8.54036 45.0794 8.53885C45.0018 8.53885 44.9226 8.54338 44.8511 8.50108C44.7598 8.44669 44.705 8.37115 44.705 8.26238C44.705 8.19893 44.7035 8.13548 44.7035 8.07202C44.7035 7.08398 44.7035 6.09594 44.7035 5.1079C44.7035 4.94172 44.6883 4.77856 44.6365 4.61691C44.5802 4.43864 44.4615 4.33741 44.291 4.28001C44.1586 4.23468 44.0201 4.2377 43.8847 4.2513C43.699 4.27094 43.5179 4.31475 43.3459 4.38878C43.1755 4.4613 43.0141 4.54892 42.8665 4.66223C42.8315 4.68942 42.8193 4.71813 42.8209 4.76194C42.8239 4.87676 42.8209 4.99158 42.8209 5.10488C42.8209 6.12314 42.8209 7.14139 42.8209 8.15965C42.8209 8.20799 42.8178 8.25634 42.8102 8.30317C42.7859 8.44367 42.7128 8.51317 42.5713 8.53281C42.5347 8.53734 42.4982 8.54036 42.4617 8.54036C42.1086 8.54036 41.7555 8.54036 41.4039 8.53885C41.3339 8.53885 41.2594 8.54489 41.1939 8.5041C41.0935 8.44065 41.0372 8.35605 41.0372 8.23216C41.0372 6.60205 41.0341 4.97345 41.0341 3.34333C41.0341 3.2406 41.0402 3.13787 41.0539 3.03816C41.0691 2.92787 41.1391 2.8614 41.2487 2.83723C41.2928 2.82816 41.3385 2.82212 41.3842 2.82061C41.4511 2.81759 41.5181 2.8191 41.5851 2.8191C41.8316 2.8191 42.0782 2.8191 42.3247 2.8191C42.3978 2.8191 42.4662 2.83118 42.5378 2.85384C42.6367 2.88557 42.6656 2.95204 42.6839 3.04722C42.6991 3.1288 42.7067 3.2119 42.7189 3.30858L42.7143 3.30405Z" fill="white"/>
<path d="M20.3831 3.29799C20.4181 3.27684 20.447 3.26173 20.4714 3.2436C20.7834 3.02001 21.1212 2.85383 21.4941 2.75714C21.8959 2.6529 22.3022 2.62117 22.7132 2.68915C23.0069 2.7375 23.2778 2.84174 23.5106 3.02908C23.7252 3.20281 23.8774 3.42036 23.9687 3.6787C24.0083 3.7905 24.0494 3.9023 24.0768 4.01712C24.1285 4.2392 24.1529 4.46732 24.1529 4.69545C24.1529 5.8542 24.1529 7.01447 24.1529 8.17323C24.1529 8.22762 24.1468 8.282 24.1361 8.33337C24.1118 8.44214 24.0387 8.50409 23.9307 8.52373C23.8805 8.53279 23.8272 8.53581 23.777 8.53581C23.43 8.53581 23.083 8.53581 22.7375 8.53581C22.7223 8.53581 22.7071 8.53581 22.6918 8.53581C22.4818 8.52221 22.3829 8.4225 22.3768 8.21553C22.3738 8.0705 22.3753 7.92697 22.3753 7.78194C22.3753 6.88152 22.3798 5.98111 22.3753 5.08069C22.3753 4.93566 22.3555 4.78761 22.322 4.64559C22.2764 4.45373 22.1455 4.32682 21.9507 4.27243C21.9354 4.2679 21.9218 4.26337 21.9065 4.26186C21.5702 4.21351 21.2506 4.27395 20.9477 4.41898C20.8138 4.48243 20.6905 4.56703 20.5627 4.64106C20.5094 4.67128 20.4957 4.71509 20.4957 4.77552C20.4988 5.87838 20.4988 6.97972 20.4972 8.08258C20.4972 8.14906 20.4927 8.21553 20.4851 8.28049C20.4683 8.42855 20.3831 8.51466 20.2339 8.52977C20.1624 8.53732 20.0878 8.5343 20.0163 8.5343C19.7028 8.5343 19.3893 8.53732 19.0773 8.53732C18.9997 8.53732 18.9205 8.53732 18.8505 8.492C18.7668 8.43912 18.7135 8.36661 18.7151 8.26538C18.7151 8.20798 18.7151 8.15057 18.7151 8.09316C18.7151 6.45851 18.7151 4.82235 18.7151 3.18771C18.7151 3.16656 18.7151 3.1454 18.7151 3.12425C18.7211 2.91426 18.8125 2.83117 19.021 2.81757C19.1153 2.81153 19.2097 2.81455 19.304 2.81455C19.5384 2.81455 19.7728 2.81455 20.0072 2.81757C20.0665 2.81757 20.1274 2.82663 20.1852 2.84023C20.2963 2.86742 20.3526 2.94598 20.3618 3.06231C20.3663 3.13634 20.3785 3.20886 20.3877 3.29799H20.3831Z" fill="white"/>
<path d="M33.184 4.29057C33.184 5.57925 33.184 6.86944 33.184 8.15812C33.184 8.21251 33.1794 8.2669 33.1703 8.31978C33.149 8.43459 33.0668 8.51164 32.9496 8.53128C32.9085 8.53732 32.8644 8.54186 32.8233 8.54186C32.4672 8.54186 32.1111 8.54186 31.7564 8.54186C31.6316 8.54186 31.5221 8.51768 31.446 8.40589C31.4171 8.3651 31.4064 8.32129 31.4034 8.27596C31.3973 8.21251 31.3988 8.14906 31.3988 8.08712C31.3988 5.65026 31.3988 3.21339 31.3988 0.776532C31.3988 0.697973 31.3988 0.619413 31.411 0.542364C31.4338 0.37618 31.5251 0.294599 31.6925 0.273448C31.863 0.252297 32.0334 0.228125 32.2039 0.205464C32.4367 0.175248 32.6696 0.143522 32.9025 0.116329C33.0744 0.095178 33.1764 0.182802 33.187 0.353519C33.1886 0.380712 33.187 0.407906 33.187 0.4351C33.187 1.72076 33.187 3.00793 33.187 4.29359L33.184 4.29057Z" fill="white"/>
<path d="M54.1211 5.66387C54.1211 4.83899 54.1211 4.0126 54.1211 3.18772C54.1211 3.14844 54.1211 3.10916 54.1241 3.06988C54.1378 2.94449 54.2078 2.86442 54.3311 2.83572C54.3813 2.82363 54.4331 2.81608 54.4848 2.81608C54.844 2.81456 55.2032 2.81305 55.5608 2.81608C55.6308 2.81608 55.7008 2.83572 55.7693 2.85384C55.8409 2.87348 55.8759 2.9324 55.8896 3.00039C55.9017 3.05931 55.9063 3.11974 55.9063 3.17866C55.9063 4.83899 55.9063 6.49781 55.9063 8.15814C55.9063 8.2095 55.9017 8.26087 55.8911 8.31072C55.8667 8.4331 55.7876 8.50712 55.6643 8.52676C55.6171 8.53432 55.5669 8.53734 55.5182 8.53734C55.1803 8.53734 54.8425 8.53734 54.5061 8.53583C54.4377 8.53583 54.3661 8.53281 54.3007 8.51317C54.1881 8.47842 54.1348 8.38777 54.1226 8.27296C54.118 8.23368 54.1196 8.1944 54.1196 8.15512C54.1196 7.3242 54.1196 6.49177 54.1196 5.66084L54.1211 5.66387Z" fill="white"/>
<path d="M54.9582 0.355042C55.3219 0.364106 55.5989 0.475903 55.7968 0.74784C55.8713 0.850572 55.9063 0.968412 55.9337 1.0938C55.9611 1.22222 55.9535 1.3461 55.9231 1.46545C55.8622 1.70566 55.7161 1.88847 55.4954 2.00933C55.2732 2.1317 55.0373 2.17249 54.7862 2.1181C54.4925 2.05465 54.2718 1.89904 54.1242 1.63768C54.0557 1.51531 54.0374 1.38387 54.0374 1.25092C54.0374 0.812803 54.3296 0.487989 54.7329 0.388278C54.8166 0.367128 54.9049 0.362595 54.9582 0.355042Z" fill="white"/>
<path d="M33.493 11.6132H33.1779C33.2662 11.5286 33.2373 11.4335 33.2266 11.3413C33.2069 11.1827 33.1886 11.0225 33.1688 10.8639C33.1627 10.808 33.1551 10.7521 33.146 10.6962C33.1445 10.6856 33.1323 10.6781 33.1171 10.6569C32.9892 10.9833 32.8629 11.302 32.7366 11.6238C32.6803 11.6132 32.6544 11.5694 32.6316 11.5301C32.5874 11.4501 32.5479 11.3655 32.5098 11.2809C32.455 11.1555 32.4063 11.0286 32.3531 10.9032C32.318 10.8186 32.28 10.737 32.2359 10.6373C32.2206 10.6841 32.2054 10.7189 32.1993 10.7536C32.1796 10.879 32.1582 11.0044 32.1461 11.1313C32.1339 11.2507 32.1263 11.3715 32.1248 11.4909C32.1248 11.5286 32.1461 11.5664 32.1598 11.6117H31.8934C31.901 11.5966 31.9071 11.5815 31.9163 11.5679C31.9589 11.5105 31.9741 11.4425 31.9832 11.3745C32.0061 11.2129 32.0365 11.0527 32.0487 10.8911C32.0563 10.7959 32.0822 10.7038 32.0898 10.6086C32.0974 10.5179 32.0943 10.5028 32.0548 10.4273C32.0669 10.4273 32.0791 10.4258 32.0913 10.4258C32.1765 10.4258 32.2617 10.4258 32.3454 10.4258C32.4687 10.7113 32.589 10.9923 32.7107 11.2718C32.7168 11.2718 32.7229 11.2718 32.729 11.2733C32.8385 10.9938 32.9466 10.7158 33.0577 10.4288H33.3393C33.3012 10.5149 33.3134 10.601 33.3256 10.6887C33.3423 10.8095 33.3545 10.9319 33.3682 11.0527C33.3727 11.0875 33.3804 11.1222 33.3849 11.157C33.3986 11.2597 33.4077 11.3625 33.4245 11.4637C33.4321 11.509 33.4595 11.5498 33.4945 11.583C33.493 11.5936 33.4915 11.6027 33.4899 11.6132H33.493Z" fill="white"/>
<path d="M16.3561 10.4258H16.6392C16.7609 10.7083 16.8827 10.9893 17.0136 11.2914C17.1323 10.9923 17.2418 10.7128 17.3545 10.4288H17.6375C17.5812 10.5225 17.6193 10.6176 17.6284 10.7128C17.636 10.802 17.6451 10.8911 17.6573 10.9802C17.6802 11.1404 17.7015 11.3005 17.7319 11.4591C17.741 11.509 17.773 11.5558 17.7973 11.6072H17.4777C17.5097 11.5604 17.5432 11.5135 17.5325 11.4501C17.5112 11.3217 17.493 11.1932 17.4762 11.0648C17.4656 10.9817 17.464 10.8971 17.4564 10.814C17.4519 10.7612 17.4412 10.7083 17.4321 10.6464C17.3819 10.7023 17.3697 10.7702 17.3453 10.8307C17.3195 10.8956 17.289 10.9606 17.2616 11.0256C17.2342 11.0935 17.2084 11.1615 17.184 11.231C17.1597 11.2975 17.1353 11.364 17.111 11.4289C17.0851 11.4939 17.0592 11.5573 17.0303 11.6268C16.9359 11.5694 16.8933 11.4803 16.8553 11.3896C16.7929 11.2461 16.7305 11.1011 16.6696 10.9561C16.6346 10.8715 16.5996 10.7869 16.5646 10.7023C16.5555 10.6826 16.5433 10.663 16.5235 10.6267C16.5113 10.7038 16.5007 10.7597 16.4915 10.8156C16.4672 10.9817 16.4413 11.1479 16.42 11.3156C16.4139 11.3655 16.417 11.4168 16.4154 11.4682C16.4139 11.5196 16.4154 11.5694 16.4657 11.6087H16.1917C16.2008 11.5921 16.2115 11.5755 16.2191 11.5589C16.2374 11.515 16.2632 11.4712 16.2709 11.4259C16.3028 11.222 16.3317 11.018 16.3591 10.8156C16.3713 10.7294 16.3865 10.6448 16.3896 10.5587C16.3911 10.5179 16.3713 10.4756 16.3591 10.4288L16.3561 10.4258Z" fill="white"/>
<path d="M42.8284 11.6027H42.5392C42.6336 11.4924 42.6443 11.367 42.6549 11.2431C42.6656 11.1102 42.6975 10.9802 42.7097 10.8473C42.7173 10.7582 42.734 10.6721 42.7462 10.5844C42.7538 10.5346 42.7614 10.4817 42.7173 10.4409C42.7173 10.4318 42.7173 10.4228 42.7173 10.4122H43.0004C43.1221 10.6932 43.2424 10.9742 43.3717 11.2748C43.4494 11.1223 43.4904 10.9757 43.5468 10.8367C43.6031 10.6977 43.6563 10.5587 43.7142 10.4137H44.0201C43.9531 10.4711 43.9699 10.5361 43.9759 10.598C43.9881 10.7189 43.9972 10.8413 44.014 10.9606C44.0246 11.0452 44.0459 11.1283 44.0596 11.2129C44.0703 11.2794 44.0779 11.3474 44.0855 11.4153C44.0931 11.4818 44.119 11.5407 44.1844 11.6012C44.0566 11.6012 43.9485 11.6012 43.842 11.6012C43.842 11.5936 43.842 11.5876 43.842 11.58C43.8922 11.5483 43.9029 11.4984 43.8953 11.4456C43.8816 11.3428 43.8618 11.2401 43.8481 11.1374C43.842 11.0936 43.8481 11.0467 43.842 11.0029C43.8283 10.8851 43.8116 10.7672 43.7948 10.6479C43.7705 10.6464 43.7629 10.6615 43.7522 10.6872C43.6776 10.8775 43.5985 11.0679 43.5239 11.2582C43.4874 11.3519 43.4554 11.4456 43.4204 11.5392C43.4113 11.5649 43.3991 11.5876 43.3854 11.6193C43.3002 11.5679 43.2606 11.4879 43.2241 11.4093C43.1708 11.293 43.1191 11.1766 43.0704 11.0588C43.0217 10.9455 42.9776 10.8292 42.9319 10.7144C42.9212 10.6872 42.9075 10.6615 42.8786 10.6373C42.8665 10.7234 42.8573 10.8095 42.8436 10.8941C42.8345 10.9531 42.8193 11.0105 42.8086 11.0694C42.801 11.1162 42.7965 11.1631 42.7919 11.2099C42.7843 11.302 42.7751 11.3942 42.7706 11.4864C42.7675 11.5287 42.7919 11.5604 42.8284 11.5815C42.8284 11.5891 42.8284 11.5951 42.8284 11.6027Z" fill="white"/>
<path d="M31.7975 11.6133C31.7017 11.6133 31.6058 11.6133 31.5099 11.6148C31.5099 11.6042 31.5069 11.5921 31.5053 11.5815C31.5343 11.5543 31.5464 11.5226 31.5419 11.4833C31.5327 11.4123 31.5221 11.3428 31.5145 11.2718C31.5053 11.1827 31.5008 11.092 31.4916 11.0029C31.4779 10.8866 31.4627 10.7687 31.4399 10.6509C31.2892 10.9667 31.1766 11.2975 31.0396 11.6269C30.9635 11.5906 30.9209 11.5241 30.892 11.4607C30.8129 11.2884 30.7459 11.1117 30.6744 10.9364C30.6409 10.8533 30.6059 10.7718 30.5709 10.6902C30.5648 10.6751 30.5541 10.6615 30.5283 10.6509C30.5161 10.7415 30.5039 10.8337 30.4917 10.9243C30.4765 11.0346 30.4567 11.1464 30.4446 11.2567C30.4354 11.3428 30.4293 11.4289 30.4309 11.5151C30.4309 11.5438 30.4567 11.5725 30.4735 11.6072H30.1995C30.2848 11.4773 30.2939 11.3338 30.3076 11.1887C30.3258 10.9969 30.3669 10.808 30.3943 10.6162C30.4096 10.5089 30.4065 10.5089 30.3639 10.4273H30.6515C30.7763 10.7159 30.8981 10.9969 31.0259 11.293C31.1416 10.9969 31.2512 10.7189 31.3638 10.4303H31.6545C31.6119 10.4908 31.618 10.5557 31.6271 10.6207C31.6484 10.7703 31.6697 10.9183 31.6895 11.0679C31.7047 11.1842 31.7093 11.3036 31.7306 11.4184C31.7412 11.4743 31.7793 11.5241 31.8036 11.5785C31.8021 11.5891 31.8006 11.6012 31.7975 11.6117V11.6133Z" fill="white"/>
<path d="M29.4705 11.6404C29.1631 11.6419 28.9059 11.4365 28.8359 11.1842C28.7248 10.7778 29.0352 10.4575 29.3411 10.4076C29.4964 10.382 29.6425 10.3895 29.7825 10.453C30.0123 10.5587 30.1401 10.7415 30.1462 10.9923C30.1523 11.2416 30.0366 11.4319 29.8175 11.5543C29.711 11.6147 29.5953 11.6465 29.4705 11.6419V11.6404ZM29.4903 11.4969C29.7277 11.512 29.9012 11.3383 29.9301 11.1298C29.9438 11.0361 29.9301 10.9485 29.9042 10.8563C29.819 10.5527 29.4811 10.4333 29.2224 10.5995C29.0565 10.7068 29.0094 10.8714 29.0261 11.0558C29.0474 11.2869 29.2361 11.5165 29.4888 11.4969H29.4903Z" fill="white"/>
<path d="M40.891 10.4137C40.9747 10.4137 41.06 10.4137 41.1437 10.4137V10.4439C41.0874 10.4877 41.0858 10.5512 41.0858 10.6161C41.0858 10.9228 41.0858 11.2295 41.0858 11.5377C41.0858 11.574 41.0858 11.6102 41.0858 11.6571C41.0554 11.648 41.0326 11.645 41.0128 11.6344C40.9276 11.5936 40.8682 11.5271 40.8119 11.4546C40.6308 11.225 40.4466 10.9953 40.264 10.7672C40.2457 10.7446 40.2275 10.7219 40.1925 10.7038C40.1925 10.7264 40.1925 10.7491 40.1925 10.7717C40.1925 10.9742 40.1925 11.1751 40.1925 11.3776C40.1925 11.4607 40.1955 11.5407 40.2716 11.6012H39.9657C40.0616 11.5226 40.0555 11.4229 40.0555 11.3232C40.054 11.086 40.054 10.8473 40.054 10.6101C40.054 10.5466 40.0433 10.4907 39.9961 10.4454C39.9961 10.4364 39.9961 10.4258 39.9961 10.4167H40.2168C40.4481 10.7023 40.6764 10.9833 40.9032 11.2643C40.9139 11.2733 40.926 11.2824 40.9367 11.2914L40.9397 11.2597C40.9397 11.0361 40.9397 10.811 40.9428 10.5874C40.9428 10.5346 40.9276 10.4877 40.888 10.45C40.888 10.4394 40.8895 10.4273 40.891 10.4167V10.4137Z" fill="white"/>
<path d="M14.9301 10.4273C15.0229 10.4273 15.1082 10.4046 15.1721 10.4333C15.233 10.462 15.271 10.5406 15.3182 10.598C15.4856 10.805 15.6515 11.012 15.8189 11.2189C15.8372 11.2416 15.8569 11.2612 15.8904 11.299C15.8965 11.2567 15.9026 11.2355 15.9026 11.2144C15.9026 11.024 15.9026 10.8352 15.9026 10.6448C15.9026 10.5648 15.9026 10.4877 15.8098 10.4243H16.1248C16.0228 10.5104 16.0457 10.6176 16.0457 10.7204C16.0457 10.9968 16.0457 11.2748 16.0457 11.5513C16.0457 11.5845 16.0457 11.6163 16.0457 11.6586C16.0167 11.6525 15.997 11.651 15.9787 11.6435C15.9011 11.6102 15.8432 11.5528 15.793 11.4878C15.615 11.2627 15.4354 11.0391 15.2573 10.814C15.2284 10.7793 15.201 10.743 15.1645 10.6992C15.1599 10.7219 15.1538 10.737 15.1538 10.7521C15.1538 10.9712 15.1538 11.1917 15.1538 11.4108C15.1538 11.4833 15.1721 11.5468 15.2512 11.6042H14.921C15.0199 11.5286 15.0184 11.4289 15.0168 11.3277C15.0153 11.1056 15.0153 10.882 15.0168 10.6599C15.0168 10.5738 15.0047 10.4953 14.9331 10.4258L14.9301 10.4273ZM15.8965 11.293C15.8965 11.293 15.8904 11.2809 15.8874 11.2748C15.8874 11.2824 15.8859 11.2884 15.8843 11.296C15.8874 11.3005 15.8904 11.3035 15.8935 11.3081C15.8935 11.3035 15.8965 11.299 15.8965 11.2945V11.293Z" fill="white"/>
<path d="M60.6578 10.4137C60.848 10.4182 61.0413 10.4077 61.23 10.4288C61.4522 10.453 61.6288 10.5633 61.7018 10.7853C61.8312 11.1842 61.5983 11.5302 61.2011 11.5845C61.0109 11.6102 60.8222 11.5966 60.6152 11.6042C60.708 11.512 60.7034 11.4093 60.705 11.3081C60.708 11.086 60.708 10.8624 60.705 10.6403C60.705 10.5708 60.7004 10.5013 60.6578 10.4424C60.6578 10.4333 60.6578 10.4228 60.6578 10.4137ZM60.8937 11.4501C61.1692 11.4878 61.3792 11.4108 61.4751 11.2401C61.5633 11.0815 61.5314 10.8125 61.4096 10.6751C61.3137 10.5678 61.0611 10.5119 60.8937 10.5723V11.4501Z" fill="white"/>
<path d="M35.8093 11.293C35.8093 11.0709 35.8124 10.8473 35.8093 10.6252C35.8093 10.5527 35.8002 10.4817 35.7104 10.4288H36.0102C35.9874 10.4817 35.9585 10.5315 35.9478 10.5844C35.9371 10.6358 35.9432 10.6917 35.9432 10.7461C35.9432 11.0195 35.9432 11.293 35.9432 11.5679C35.9432 11.5966 35.9432 11.6268 35.9432 11.6616C35.8671 11.648 35.8154 11.6117 35.7713 11.5679C35.7195 11.5166 35.6739 11.4607 35.6282 11.4048C35.4608 11.1948 35.2934 10.9848 35.126 10.7748C35.1107 10.7551 35.0925 10.737 35.062 10.7023C35.062 10.7491 35.062 10.7748 35.062 10.8005C35.062 11.0014 35.0636 11.2038 35.062 11.4048C35.062 11.4803 35.0697 11.5483 35.1366 11.6117C35.0879 11.6117 35.0392 11.6148 34.9905 11.6148C34.9418 11.6148 34.8946 11.6148 34.8475 11.6148C34.8459 11.6042 34.8429 11.5951 34.8444 11.5936C34.9083 11.5407 34.922 11.4712 34.9205 11.3912C34.9159 11.163 34.919 10.9334 34.919 10.7053C34.919 10.5985 34.8956 10.5053 34.849 10.4258H35.0864C35.3208 10.7189 35.5506 11.0059 35.7804 11.293C35.788 11.3005 35.7956 11.3066 35.8047 11.3141C35.8063 11.3066 35.8078 11.299 35.8093 11.293Z" fill="white"/>
<path d="M14.5846 11.293C14.5846 11.0709 14.5861 10.8488 14.5846 10.6252C14.5846 10.5618 14.5709 10.4998 14.5237 10.45C14.5161 10.4409 14.5161 10.4243 14.5131 10.4107C14.5191 10.4122 14.5268 10.4137 14.5328 10.4152C14.6165 10.4197 14.6987 10.4228 14.7977 10.4273C14.7124 10.5074 14.714 10.6025 14.714 10.6992C14.714 11.0104 14.7139 11.3232 14.7124 11.6344C14.6972 11.6359 14.6805 11.6374 14.6652 11.6389C14.58 11.6117 14.5222 11.5498 14.4689 11.4833C14.2878 11.2567 14.1067 11.0301 13.9256 10.8035C13.9012 10.7733 13.8769 10.7446 13.8419 10.7007C13.8388 10.7355 13.8358 10.7536 13.8358 10.7733C13.8358 10.9863 13.8358 11.2008 13.8358 11.4138C13.8358 11.4773 13.8495 11.5332 13.8952 11.5785L13.8921 11.6072H13.6121C13.6121 11.6072 13.6075 11.5936 13.609 11.5921C13.6806 11.5286 13.6927 11.4471 13.6912 11.3549C13.6882 11.1238 13.6897 10.8926 13.6912 10.66C13.6912 10.5738 13.6851 10.4923 13.5953 10.4258H13.8617C14.0945 10.7158 14.3243 11.0029 14.5541 11.2899C14.5618 11.296 14.5694 11.302 14.577 11.3096C14.58 11.3035 14.5815 11.2975 14.5846 11.2899V11.293Z" fill="white"/>
<path d="M42.206 10.4137H42.4799C42.4662 10.4333 42.4556 10.4454 42.448 10.4605C42.4328 10.4953 42.4099 10.53 42.4069 10.5678C42.3993 10.6358 42.4008 10.7053 42.4008 10.7748C42.4008 11.0331 42.4008 11.2915 42.4008 11.5513C42.4008 11.583 42.3978 11.6163 42.3962 11.6586C42.3064 11.6299 42.238 11.583 42.1832 11.5181C42.1208 11.444 42.0629 11.367 42.0021 11.2915C41.8499 11.1011 41.6961 10.9107 41.5424 10.7189L41.5257 10.7023C41.5257 10.7023 41.5181 10.7128 41.515 10.7189C41.5135 10.95 41.512 11.1812 41.5105 11.4123C41.5105 11.4848 41.5409 11.5438 41.6109 11.5997H41.2898C41.3811 11.5166 41.3796 11.4093 41.3796 11.3035C41.3796 11.0815 41.3796 10.8594 41.3796 10.6373C41.3796 10.5602 41.3674 10.4877 41.305 10.4333C41.3065 10.4273 41.3096 10.4213 41.3111 10.4152C41.372 10.4152 41.4329 10.4152 41.4922 10.4122C41.5333 10.4092 41.5546 10.4273 41.5805 10.459C41.792 10.7295 42.0081 10.9969 42.2212 11.2658C42.2288 11.2748 42.2364 11.2839 42.2532 11.3051C42.2577 11.2748 42.2623 11.2567 42.2638 11.2386C42.2654 11.0437 42.2684 10.8488 42.2684 10.6524C42.2684 10.5784 42.2684 10.4998 42.2029 10.4439C42.2029 10.4333 42.2029 10.4228 42.2029 10.4137H42.206Z" fill="white"/>
<path d="M49.2342 10.4303C49.19 10.4817 49.1763 10.5421 49.1763 10.6056C49.1763 10.7884 49.1763 10.9727 49.1763 11.1555C49.1763 11.1917 49.184 11.228 49.19 11.2627C49.225 11.4455 49.3605 11.5271 49.5462 11.4773C49.7136 11.4319 49.7653 11.367 49.7653 11.1993C49.7653 11.0074 49.7638 10.814 49.7623 10.6222C49.7623 10.5512 49.7653 10.4771 49.6892 10.4152H50.0225C49.9343 10.5164 49.9586 10.6358 49.9571 10.7476C49.9556 10.9636 49.9571 11.1812 49.9571 11.3972C49.9571 11.4682 49.9525 11.5407 50.0408 11.5966H49.7714C49.7684 11.5709 49.7638 11.5422 49.7592 11.512C49.7501 11.5135 49.741 11.512 49.7349 11.5181C49.6207 11.6132 49.4883 11.6359 49.3422 11.6223C49.2098 11.6102 49.1109 11.5468 49.0363 11.4395C48.9922 11.3745 48.9892 11.299 48.9892 11.225C48.9861 11.0482 48.9892 10.8699 48.9892 10.6917C48.9892 10.6705 48.9922 10.6494 48.9892 10.6282C48.977 10.5587 48.9633 10.4892 48.9465 10.4107C48.9831 10.4031 49.0333 10.4107 49.082 10.4092C49.1307 10.4092 49.1794 10.4107 49.2281 10.4122C49.2266 10.4182 49.2281 10.4243 49.2327 10.4273L49.2342 10.4303Z" fill="white"/>
<path d="M46.7291 11.5936C46.65 11.5951 46.5724 11.6012 46.4932 11.5966C46.4156 11.5921 46.3578 11.5468 46.3121 11.4863C46.1873 11.3232 46.0625 11.1615 45.9331 10.9923C45.9605 10.9817 45.9773 10.9742 45.9925 10.9681C46.0427 10.95 46.0975 10.9379 46.1432 10.9122C46.2345 10.8624 46.2695 10.7687 46.2406 10.6735C46.2117 10.5784 46.1432 10.5315 46.0336 10.533C45.994 10.533 45.956 10.5406 45.9103 10.5451C45.9073 10.5753 45.9027 10.6025 45.9027 10.6282C45.9027 10.8866 45.9027 11.1464 45.9027 11.4048C45.9027 11.4743 45.9027 11.5437 45.9879 11.5996H45.6425C45.6871 11.5392 45.7094 11.4667 45.7094 11.3821C45.7094 11.1328 45.7094 10.882 45.7064 10.6328C45.7064 10.5587 45.7125 10.4817 45.6485 10.4182C45.8373 10.4182 46.0199 10.3925 46.201 10.4303C46.3258 10.456 46.4141 10.5285 46.4384 10.6599C46.4582 10.7748 46.4126 10.8669 46.3243 10.9379C46.2786 10.9742 46.2223 10.9984 46.1645 11.0331C46.3273 11.2265 46.4612 11.4501 46.6926 11.5845C46.7032 11.5906 46.7139 11.5936 46.7261 11.5981V11.5951L46.7291 11.5936Z" fill="white"/>
<path d="M19.5872 11.6102H19.2752C19.3604 11.5347 19.3498 11.4425 19.3498 11.3534C19.3498 11.1071 19.3498 10.8609 19.3498 10.6131C19.3498 10.5451 19.3406 10.4817 19.2706 10.4258C19.3072 10.4243 19.3254 10.4213 19.3452 10.4213C19.473 10.4213 19.6009 10.4182 19.7272 10.4243C19.7866 10.4273 19.8474 10.4364 19.9022 10.456C20.0925 10.527 20.1488 10.7491 20.0103 10.8971C19.957 10.9546 19.884 10.9938 19.814 11.0452C19.9692 11.2401 20.1168 11.4531 20.336 11.5997L20.3314 11.6042L20.3345 11.6102C20.2644 11.6072 20.1944 11.6102 20.126 11.5997C20.0833 11.5936 20.0346 11.5755 20.0057 11.5453C19.8429 11.3791 19.7044 11.1948 19.5857 10.9938C19.6435 10.9742 19.6998 10.9606 19.75 10.9364C19.8642 10.882 19.9038 10.8005 19.8809 10.6796C19.8703 10.6282 19.8368 10.595 19.7926 10.5723C19.7166 10.5346 19.6389 10.527 19.5491 10.5587C19.5491 10.6872 19.5491 10.8186 19.5491 10.9515C19.5491 11.1132 19.5491 11.2763 19.5491 11.438C19.5491 11.4909 19.5552 11.5392 19.5933 11.58C19.5933 11.5891 19.5902 11.5997 19.5887 11.6087L19.5872 11.6102Z" fill="white"/>
<path d="M34.4046 11.5241C34.26 11.6405 34.0956 11.6631 33.9191 11.6208C33.7836 11.5876 33.6665 11.4607 33.6604 11.3232C33.6528 11.1706 33.6558 11.0165 33.6543 10.8624C33.6543 10.7808 33.6543 10.6992 33.6497 10.6192C33.6467 10.5527 33.6406 10.4877 33.5782 10.4288H33.8963C33.8384 10.4998 33.84 10.5799 33.84 10.6615C33.8415 10.8246 33.84 10.9863 33.84 11.1495C33.84 11.1766 33.84 11.2038 33.8415 11.231C33.8521 11.3428 33.8887 11.4425 34.0028 11.4803C34.123 11.5196 34.2433 11.512 34.3437 11.4184C34.3939 11.3715 34.4229 11.3126 34.4229 11.2416C34.4229 11.0241 34.4259 10.808 34.4213 10.592C34.4213 10.5376 34.397 10.4847 34.3833 10.4273H34.6892C34.604 10.5089 34.6085 10.6086 34.6085 10.7068C34.6085 10.944 34.6116 11.1827 34.6085 11.4199C34.6085 11.4894 34.6283 11.5468 34.6816 11.6042C34.5948 11.6208 34.5157 11.6072 34.4305 11.6133C34.4259 11.583 34.4229 11.5574 34.4198 11.5317C34.4198 11.5271 34.4198 11.5226 34.4198 11.5166C34.4137 11.5196 34.4076 11.5211 34.4015 11.5241H34.4046Z" fill="white"/>
<path d="M57.9381 10.9923H58.18V11.574C57.9913 11.6148 57.8087 11.6465 57.62 11.6223C57.378 11.5906 57.1801 11.4954 57.0614 11.2703C57.028 11.2069 57.0234 11.1419 57.0158 11.0754C56.9838 10.7733 57.1375 10.5618 57.3902 10.453C57.5667 10.3775 57.7524 10.3699 57.9411 10.4031C57.9731 10.4092 58.005 10.4092 58.0431 10.4137V10.6207C57.9761 10.5754 57.9076 10.5361 57.827 10.527C57.7143 10.5134 57.6017 10.5134 57.4967 10.5633C57.3232 10.6433 57.2365 10.7778 57.2228 10.9667C57.2075 11.1933 57.3308 11.3353 57.5043 11.4501C57.5348 11.4697 57.5789 11.4712 57.6169 11.4818C57.7204 11.5075 57.8726 11.4984 57.9868 11.4577C57.9868 11.3474 57.9898 11.2325 57.9852 11.1192C57.9837 11.0875 57.9548 11.0558 57.9396 11.0241C57.9396 11.0135 57.9396 11.0029 57.9411 10.9923H57.9381Z" fill="white"/>
<path d="M17.9085 11.5815C17.9815 11.5226 18.0135 11.441 18.0455 11.3549C18.1033 11.1948 18.1763 11.0392 18.2403 10.8805C18.2798 10.7808 18.3164 10.6796 18.3514 10.5769C18.3742 10.5089 18.3727 10.5013 18.3529 10.4273H18.6223C18.6481 10.4908 18.674 10.5572 18.7014 10.6222C18.7912 10.8443 18.8825 11.0648 18.9738 11.2869C18.9921 11.3307 19.0043 11.3776 19.0286 11.4184C19.0651 11.4818 19.1093 11.5423 19.1534 11.6087C19.1078 11.6238 19.0514 11.6148 18.9967 11.6163C18.9388 11.6178 18.8825 11.6163 18.8125 11.6163C18.8247 11.5951 18.8292 11.58 18.8384 11.574C18.8673 11.5558 18.8688 11.5302 18.8582 11.503C18.8414 11.4592 18.8232 11.4153 18.8064 11.3715C18.7805 11.3051 18.7562 11.2386 18.7303 11.1676H18.2692C18.2327 11.2733 18.1976 11.3776 18.1596 11.4788C18.1429 11.5211 18.1474 11.5543 18.187 11.58L18.1961 11.6057C18.0972 11.6057 17.9968 11.6057 17.8978 11.6057C17.9024 11.5966 17.9054 11.5891 17.91 11.58L17.9085 11.5815ZM18.6664 11.0225C18.6101 10.876 18.5583 10.7415 18.5066 10.6086C18.5005 10.6086 18.4929 10.6086 18.4868 10.6086C18.4366 10.7461 18.3666 10.876 18.3301 11.0225H18.6664Z" fill="white"/>
<path d="M44.7247 10.4152H44.9835C45.0367 10.5436 45.0885 10.6721 45.1402 10.799C45.2285 11.015 45.3153 11.231 45.4096 11.4456C45.434 11.5015 45.4811 11.5468 45.5238 11.6057C45.405 11.6057 45.2894 11.6057 45.1737 11.6057C45.1737 11.5981 45.1737 11.5921 45.1737 11.5846C45.2224 11.5604 45.2224 11.5241 45.2057 11.4803C45.1707 11.3851 45.1357 11.2884 45.1007 11.1918C45.09 11.1615 45.0672 11.154 45.0367 11.154C44.9059 11.154 44.7765 11.154 44.6365 11.154C44.6045 11.2386 44.571 11.3232 44.5391 11.4078C44.5345 11.4184 44.533 11.4305 44.5284 11.4425C44.5071 11.503 44.5188 11.5564 44.5634 11.6027H44.2377C44.3169 11.5589 44.3549 11.4848 44.3869 11.4093C44.4949 11.1464 44.6015 10.882 44.7034 10.6177C44.7247 10.5603 44.7689 10.4983 44.7156 10.4349C44.7187 10.4288 44.7202 10.4228 44.7232 10.4182L44.7247 10.4152ZM45.0322 11.018C44.9743 10.873 44.9196 10.7355 44.8648 10.5965C44.8587 10.5965 44.8526 10.5965 44.8465 10.5965C44.7932 10.734 44.7415 10.8715 44.6852 11.018H45.0307H45.0322Z" fill="white"/>
<path d="M61.7307 11.583C61.8038 11.5453 61.8357 11.4773 61.8646 11.4063C61.962 11.1676 62.0564 10.9289 62.1538 10.6902C62.1706 10.6494 62.1903 10.6086 62.204 10.5678C62.2193 10.521 62.2527 10.4711 62.1736 10.4228C62.2801 10.4061 62.3654 10.4152 62.4597 10.4137C62.5115 10.5466 62.5602 10.6796 62.615 10.8125C62.688 10.9908 62.7702 11.1661 62.8417 11.3458C62.8782 11.438 62.9193 11.5256 63.003 11.5876C62.9437 11.6102 62.7732 11.6148 62.6576 11.5981C62.7124 11.5347 62.7139 11.5347 62.685 11.4591C62.6469 11.3609 62.6073 11.2628 62.5647 11.16H62.1112C62.0731 11.2673 62.0351 11.3791 61.9955 11.4909C61.9773 11.5407 62.0123 11.5664 62.0397 11.6072H61.7353C61.7353 11.6072 61.7338 11.5921 61.7322 11.5845L61.7307 11.583ZM62.1645 11.0165H62.5054C62.4506 10.8745 62.3988 10.74 62.3395 10.5844C62.2603 10.734 62.2162 10.873 62.1645 11.0165Z" fill="white"/>
<path d="M56.2411 10.4137H56.4801C56.5135 10.4908 56.5485 10.5648 56.579 10.6403C56.6399 10.7884 56.7007 10.9379 56.7601 11.086C56.8058 11.1978 56.8468 11.3111 56.8986 11.4199C56.929 11.4833 56.9762 11.5377 57.0203 11.6027C56.9716 11.6087 56.9123 11.6027 56.8545 11.6042C56.7966 11.6042 56.7388 11.6042 56.6673 11.6042C56.7479 11.5347 56.7068 11.4652 56.687 11.4002C56.6642 11.3307 56.6292 11.2643 56.6049 11.1948C56.5942 11.1631 56.5775 11.151 56.547 11.151C56.4253 11.151 56.3035 11.151 56.1818 11.1479C56.1437 11.1479 56.1239 11.1676 56.1133 11.1948C56.0844 11.2733 56.0585 11.3549 56.0341 11.435C56.0083 11.5241 56.0098 11.5256 56.063 11.5966H55.7571C55.7982 11.5438 55.8439 11.4984 55.8713 11.4456C55.9093 11.373 55.9337 11.2945 55.9641 11.2174C56.0052 11.1147 56.0448 11.012 56.0859 10.9077C56.1346 10.7854 56.1863 10.6645 56.232 10.5406C56.2426 10.5119 56.235 10.4757 56.2366 10.4439L56.2411 10.4092V10.4137ZM56.5364 11.0195C56.4785 10.8745 56.4314 10.737 56.3644 10.598C56.2548 10.811 56.2092 10.9364 56.2107 11.0195H56.5364Z" fill="white"/>
<path d="M26.8467 11.3579C26.9776 11.4637 27.1115 11.512 27.2622 11.4954C27.3093 11.4909 27.358 11.4773 27.3991 11.4546C27.5011 11.3972 27.5163 11.2794 27.4296 11.2023C27.3733 11.154 27.3048 11.1192 27.2393 11.0815C27.1541 11.0316 27.0582 10.9953 26.9821 10.9349C26.8071 10.7974 26.8406 10.5482 27.043 10.4545C27.1024 10.4273 27.1693 10.4122 27.2348 10.4001C27.3504 10.3805 27.4996 10.4001 27.6031 10.4409V10.6328C27.5696 10.6131 27.5483 10.5995 27.5255 10.5859C27.4326 10.53 27.3322 10.5164 27.2272 10.5376C27.1617 10.5512 27.1069 10.5829 27.0902 10.6539C27.075 10.7234 27.1024 10.7793 27.1602 10.8171C27.2028 10.8458 27.2485 10.8715 27.2941 10.8941C27.3596 10.9274 27.4265 10.9546 27.4904 10.9893C27.5331 11.012 27.5742 11.0392 27.6107 11.0709C27.7218 11.1676 27.74 11.296 27.6624 11.4199C27.6152 11.4954 27.5468 11.5468 27.4646 11.5861C27.285 11.6707 27.1039 11.642 26.9243 11.5951C26.9045 11.5906 26.8817 11.5604 26.8756 11.5377C26.8619 11.4863 26.8573 11.432 26.8452 11.3579H26.8467Z" fill="white"/>
<path d="M58.8147 10.4152H59.463V10.6116C59.3367 10.5482 59.2073 10.5406 59.0719 10.5587V10.882C59.1632 10.882 59.253 10.882 59.3428 10.882C59.3489 10.8866 59.355 10.8926 59.3611 10.8972V11.0769C59.2713 11.0074 59.1739 11.0286 59.0719 11.0271V11.4486C59.3489 11.4758 59.3763 11.4728 59.6244 11.37C59.6 11.4486 59.5772 11.5211 59.5528 11.5981H58.7873C58.8603 11.5407 58.868 11.4712 58.8664 11.3987C58.8664 11.1343 58.8664 10.87 58.8664 10.6056C58.8664 10.5406 58.8543 10.4802 58.8101 10.4303C58.8147 10.4258 58.8162 10.4213 58.8147 10.4152Z" fill="white"/>
<path d="M36.1548 11.6117C36.2354 11.5377 36.2339 11.4546 36.2339 11.37C36.2339 11.1207 36.2339 10.87 36.2339 10.6207C36.2339 10.5542 36.2339 10.4877 36.1578 10.4243H36.832V10.6282C36.7118 10.5331 36.5794 10.5542 36.4409 10.5633V10.8911H36.727V11.0588C36.6327 11.0482 36.5383 11.0377 36.4394 11.0271V11.4501C36.5277 11.4939 36.6251 11.4652 36.7194 11.4728C36.8168 11.4803 36.8975 11.4335 36.9873 11.3806C36.9629 11.4637 36.9431 11.5362 36.9218 11.6102H36.1578L36.1548 11.6117Z" fill="white"/>
<path d="M25.961 10.4182C26.1527 10.4182 26.343 10.4197 26.5347 10.4213C26.55 10.4213 26.5636 10.4212 26.591 10.4182C26.5926 10.4832 26.5941 10.5451 26.5956 10.6071C26.5834 10.6071 26.5713 10.6101 26.5591 10.6116C26.4449 10.5451 26.3232 10.5482 26.1969 10.5708V10.8911H26.4891V11.0527C26.3917 11.0467 26.2988 11.0407 26.1999 11.0346V11.4486C26.3856 11.4924 26.5682 11.4999 26.7524 11.3776C26.7341 11.4682 26.7113 11.5407 26.6732 11.6117H25.926C25.9366 11.5951 25.9488 11.583 25.9534 11.5694C25.9671 11.5317 25.9899 11.4924 25.9899 11.4531C25.9929 11.1706 25.9914 10.8881 25.9914 10.6041C25.9914 10.5482 25.9792 10.4968 25.9442 10.4515C25.9381 10.4424 25.9412 10.4258 25.9397 10.4137C25.9457 10.4152 25.9534 10.4167 25.9594 10.4182H25.961Z" fill="white"/>
<path d="M52.2263 10.4137H52.5079C52.4972 10.4379 52.4911 10.456 52.4805 10.4711C52.3663 10.6418 52.2537 10.8125 52.1365 10.9802C52.0909 11.0452 52.065 11.1102 52.0726 11.1887C52.0772 11.2431 52.0741 11.2975 52.0726 11.3504C52.0716 11.442 52.0975 11.5241 52.1502 11.5966H51.8078C51.8854 11.5271 51.8748 11.4395 51.8824 11.3534C51.8991 11.166 51.8565 10.9999 51.7378 10.8503C51.6739 10.7702 51.6297 10.6766 51.5734 10.592C51.5384 10.5406 51.4958 10.4938 51.4562 10.4439C51.4562 10.4333 51.4562 10.4228 51.4578 10.4122C51.7241 10.3986 51.6921 10.4333 51.7895 10.5889C51.8428 10.672 51.893 10.7581 51.9463 10.8412C51.9615 10.8654 51.9798 10.8896 52.0026 10.9243C52.0817 10.805 52.1609 10.6962 52.2294 10.5814C52.2568 10.5361 52.2552 10.4787 52.2187 10.4303C52.2202 10.4243 52.2218 10.4197 52.2248 10.4137H52.2263Z" fill="white"/>
<path d="M22.7147 10.4258C22.7771 10.4258 22.8365 10.4258 22.8958 10.4258C22.9506 10.4258 22.9841 10.4575 23.0115 10.5013C23.0861 10.6252 23.1637 10.7476 23.2398 10.87C23.252 10.8896 23.2657 10.9092 23.2839 10.9334C23.3539 10.8307 23.4194 10.734 23.4848 10.6373C23.5487 10.5421 23.5487 10.524 23.5 10.4243H23.7892C23.774 10.4515 23.7648 10.4726 23.7511 10.4908C23.6324 10.669 23.5137 10.8458 23.392 11.0225C23.3631 11.0633 23.3478 11.1056 23.3494 11.157C23.3524 11.2265 23.3539 11.296 23.3494 11.364C23.3448 11.4516 23.357 11.5317 23.4452 11.6072C23.3174 11.6117 23.2109 11.6117 23.0952 11.6117C23.1058 11.5936 23.115 11.58 23.1195 11.5649C23.1348 11.5196 23.1561 11.4743 23.1576 11.4289C23.1606 11.3217 23.1546 11.2129 23.1485 11.1041C23.1485 11.0784 23.1348 11.0513 23.1211 11.0301C23.0252 10.876 22.9308 10.7234 22.8319 10.5708C22.7999 10.521 22.7573 10.4787 22.7117 10.4243L22.7147 10.4258Z" fill="white"/>
<path d="M39.3691 10.6146C39.255 10.5255 39.1256 10.5527 38.9932 10.5557V10.882H39.2656C39.2656 10.882 39.2778 10.8926 39.2839 10.8971V11.0754C39.191 11.012 39.0936 11.0286 38.9886 11.0286C38.9886 11.1102 38.9886 11.1842 38.9886 11.2582C38.9886 11.3156 38.9886 11.373 38.9886 11.4289C38.9871 11.4894 38.9886 11.5498 39.0617 11.5997H38.7192C38.7923 11.5347 38.7908 11.4516 38.7908 11.367C38.7908 11.1207 38.7892 10.8745 38.7908 10.6282C38.7908 10.5572 38.7862 10.4908 38.7375 10.4333C38.7923 10.4077 39.1028 10.3986 39.3874 10.4137V10.6071C39.3874 10.6071 39.3752 10.6131 39.3691 10.6161V10.6146Z" fill="white"/>
<path d="M50.7043 11.583C50.753 11.5513 50.7652 11.503 50.7667 11.4501C50.7698 11.3277 50.7713 11.2038 50.7713 11.0815C50.7713 10.9319 50.7744 10.7808 50.7744 10.6313C50.7744 10.5648 50.7713 10.4983 50.7272 10.4439C50.7272 10.4349 50.7272 10.4243 50.7272 10.4152H51.3603V10.6207C51.2401 10.5285 51.1046 10.5497 50.9646 10.5572V10.882C51.0559 10.882 51.1457 10.882 51.2355 10.882C51.2416 10.8866 51.2477 10.8911 51.2553 10.8972V11.0664C51.1624 11.012 51.0666 11.0286 50.9676 11.0286C50.9646 11.0513 50.9615 11.0709 50.9615 11.0905C50.9615 11.2038 50.9615 11.3187 50.9615 11.432C50.9615 11.4894 50.9676 11.5468 51.0239 11.583C51.0239 11.5906 51.0239 11.5966 51.0239 11.6042C50.9174 11.6042 50.8109 11.6042 50.7028 11.6042C50.7028 11.5966 50.7028 11.5906 50.7028 11.583H50.7043Z" fill="white"/>
<path d="M21.9963 11.58C22.042 11.5362 22.0496 11.4788 22.0496 11.4214C22.0496 11.1509 22.0526 10.879 22.0496 10.6086C22.0496 10.5482 22.0222 10.4892 22.0055 10.4228H22.6462V10.6146C22.4742 10.5497 22.3723 10.5391 22.2383 10.5753C22.2383 10.6237 22.2383 10.6735 22.2383 10.7249C22.2383 10.7763 22.2383 10.8276 22.2383 10.8896C22.3418 10.8971 22.4407 10.8896 22.5412 10.8926V11.0709C22.4453 11.018 22.3479 11.0407 22.2459 11.0346C22.2429 11.0603 22.2398 11.083 22.2398 11.1056C22.2398 11.1933 22.2398 11.2809 22.2398 11.367C22.2398 11.4516 22.2414 11.5332 22.319 11.6102H22.0039C22.0024 11.5996 22.0009 11.5876 21.9994 11.577L21.9963 11.58Z" fill="white"/>
<path d="M12.9227 10.8896V11.0648C12.874 11.0558 12.8268 11.0437 12.7781 11.0392C12.7294 11.0346 12.6822 11.0392 12.6198 11.0392C12.6198 11.0784 12.6198 11.1147 12.6198 11.1494C12.6198 11.2401 12.6198 11.3292 12.6198 11.4199C12.6198 11.4848 12.6229 11.5468 12.6822 11.5981C12.6259 11.6238 12.5757 11.6117 12.5254 11.6132C12.4752 11.6163 12.4235 11.6132 12.3596 11.6132C12.4387 11.515 12.4341 11.4048 12.4341 11.296C12.4341 11.089 12.4341 10.8805 12.4341 10.6735C12.4341 10.5663 12.4189 10.5089 12.3687 10.4228H13.017V10.6131C12.9592 10.595 12.8953 10.5678 12.8298 10.5587C12.7659 10.5497 12.6974 10.5602 12.6274 10.5633V10.8896H12.9242H12.9227Z" fill="white"/>
<path d="M52.899 10.4454C52.8503 10.4953 52.8503 10.5618 52.8503 10.6237C52.8503 10.882 52.8564 11.1404 52.8594 11.3987C52.8594 11.4138 52.861 11.4289 52.8625 11.4425C53.0603 11.4924 53.2612 11.4652 53.4073 11.3609C53.4134 11.4546 53.3449 11.5181 53.3312 11.5996H52.5809C52.6631 11.5362 52.6616 11.4591 52.6616 11.3806C52.6616 11.1222 52.6616 10.8639 52.6616 10.6041C52.6616 10.5391 52.6525 10.4787 52.6038 10.4303C52.6068 10.4243 52.6083 10.4182 52.6114 10.4137C52.7073 10.4137 52.8031 10.4137 52.899 10.4137C52.899 10.4243 52.899 10.4348 52.9005 10.4454H52.899Z" fill="white"/>
<path d="M24.1316 11.4576C24.3234 11.4758 24.5076 11.512 24.6871 11.373C24.6795 11.4138 24.678 11.435 24.6704 11.4561C24.6658 11.4727 24.6537 11.4863 24.6476 11.503C24.6034 11.6193 24.6034 11.6178 24.4802 11.6163C24.3219 11.6148 24.1651 11.6163 24.0068 11.6178C23.9627 11.6178 23.9186 11.6178 23.8699 11.6102C23.9384 11.5468 23.9414 11.4682 23.9414 11.3912C23.9429 11.157 23.946 10.9213 23.9444 10.6871C23.9444 10.598 23.9414 10.5074 23.876 10.4288H24.194C24.1316 10.5059 24.1316 10.5889 24.1316 10.6735C24.1316 10.9319 24.1316 11.1902 24.1316 11.4591V11.4576Z" fill="white"/>
<path d="M59.7461 10.4137H60.0535C59.9698 10.4908 59.979 10.5754 59.979 10.6585C59.979 10.8896 59.979 11.1223 59.979 11.3534V11.4531C60.1738 11.4531 60.3686 11.503 60.5466 11.373C60.5162 11.4486 60.4873 11.5241 60.4568 11.6012H59.7035C59.7628 11.5543 59.7841 11.4984 59.7857 11.4335C59.7872 11.3096 59.7902 11.1872 59.7902 11.0633C59.7902 10.9183 59.7918 10.7748 59.7918 10.6298C59.7918 10.5633 59.7887 10.4968 59.7446 10.4409C59.7446 10.4318 59.7446 10.4213 59.7446 10.4122L59.7461 10.4137Z" fill="white"/>
<path d="M47.0107 10.9833C47.0929 10.876 47.169 10.7793 47.2435 10.6811C47.2648 10.6524 47.2861 10.6222 47.3075 10.5935C47.3622 10.5134 47.3622 10.5059 47.3196 10.4137C47.3714 10.4137 47.4186 10.4137 47.4642 10.4137C47.5099 10.4137 47.5601 10.4137 47.6271 10.4137C47.557 10.5179 47.484 10.601 47.4186 10.6871C47.3531 10.7733 47.2846 10.8579 47.2146 10.9485C47.2344 10.9757 47.2542 11.0014 47.274 11.0286C47.3562 11.1358 47.4399 11.2446 47.522 11.3519C47.5951 11.4486 47.6712 11.5392 47.7869 11.5951C47.6879 11.6117 47.5936 11.6132 47.5023 11.58C47.4703 11.5679 47.4368 11.5453 47.4155 11.5181C47.2816 11.3443 47.1492 11.1676 47.0122 10.9863L47.0107 10.9833Z" fill="white"/>
<path d="M25.8194 11.6193C25.7388 11.6117 25.6581 11.6133 25.579 11.5966C25.5348 11.5876 25.4876 11.5574 25.4587 11.5226C25.3263 11.3579 25.2 11.1902 25.0722 11.0225C25.0554 10.9999 25.0645 10.9818 25.0828 10.9591C25.165 10.8549 25.2457 10.7491 25.3248 10.6433C25.3461 10.6146 25.3583 10.5799 25.3765 10.5497C25.4009 10.5089 25.4039 10.4711 25.3537 10.4303H25.6703C25.6551 10.453 25.6459 10.4711 25.6337 10.4862C25.5211 10.6282 25.41 10.7718 25.2959 10.9123C25.2639 10.95 25.2654 10.9712 25.2974 11.009C25.3796 11.1056 25.4557 11.2069 25.5303 11.3096C25.6124 11.4214 25.6961 11.5317 25.827 11.5951C25.824 11.6042 25.8209 11.6117 25.8179 11.6208L25.8194 11.6193Z" fill="white"/>
<path d="M55.2382 10.4152H55.5258C55.5152 10.4741 55.465 10.5074 55.433 10.5527C55.4026 10.598 55.366 10.6388 55.3326 10.6811C55.2975 10.7264 55.261 10.7718 55.226 10.8171C55.1925 10.8594 55.1606 10.9032 55.124 10.9485C55.1697 11.009 55.2123 11.0664 55.2565 11.1223C55.3036 11.1842 55.3539 11.2461 55.3995 11.3096C55.4787 11.4199 55.5624 11.5256 55.7024 11.5876C55.5152 11.6374 55.3752 11.5906 55.2732 11.4561C55.1575 11.302 55.0419 11.1464 54.9216 10.9863C54.9429 10.9561 54.9627 10.9274 54.984 10.8987C55.0616 10.7944 55.1408 10.6917 55.2184 10.5874C55.2549 10.5376 55.2702 10.4862 55.2291 10.4318C55.2351 10.4273 55.2367 10.4228 55.2351 10.4152H55.2382Z" fill="white"/>
<path d="M48.1552 10.9697C48.2465 10.8533 48.3363 10.737 48.4276 10.6207C48.4763 10.5587 48.5082 10.4938 48.458 10.4137H48.7563C48.732 10.4862 48.6756 10.533 48.6346 10.5905C48.5904 10.6509 48.5417 10.7098 48.4945 10.7687C48.4504 10.8261 48.4047 10.882 48.356 10.9425C48.3682 10.9621 48.3804 10.9833 48.3941 11.0014C48.4915 11.1283 48.5904 11.2552 48.6863 11.3821C48.7472 11.4622 48.8157 11.5332 48.91 11.5755C48.9176 11.5785 48.9268 11.58 48.9359 11.583L48.9237 11.5996C48.84 11.5996 48.7548 11.6117 48.6741 11.5951C48.6117 11.583 48.5615 11.5317 48.5204 11.4758C48.4032 11.3186 48.2845 11.163 48.1658 11.0059C48.1628 10.9938 48.1582 10.9817 48.1552 10.9697Z" fill="white"/>
<path d="M20.6707 10.953C20.7651 10.8307 20.8579 10.7098 20.9523 10.5889C20.9934 10.5361 20.9782 10.4832 20.9553 10.4288H21.2643C21.1212 10.6101 20.9888 10.7793 20.8503 10.9545C20.861 10.9681 20.8762 10.9893 20.8914 11.0104C20.9782 11.1238 21.0649 11.2356 21.1501 11.3489C21.2247 11.4486 21.3008 11.5453 21.4332 11.5951C21.2536 11.6495 21.1014 11.5996 21.004 11.4682C20.8884 11.3141 20.7697 11.1615 20.6525 11.0074C20.6586 10.9893 20.6646 10.9712 20.6707 10.953Z" fill="white"/>
<path d="M53.7893 10.9682C53.8806 10.8488 53.9719 10.731 54.0648 10.6116C54.0739 10.5995 54.0815 10.5874 54.0891 10.5739C54.1302 10.5044 54.1302 10.4998 54.0891 10.4152H54.3768C54.3768 10.4152 54.3813 10.4273 54.3829 10.4334C54.252 10.6026 54.1211 10.7703 53.9856 10.947C54.0191 10.9923 54.0511 11.0392 54.0861 11.083C54.1652 11.1857 54.2444 11.2884 54.322 11.3912C54.3844 11.4728 54.4574 11.5423 54.5624 11.5876C54.3813 11.6374 54.2383 11.5921 54.1378 11.4592C54.0237 11.3081 53.908 11.157 53.7939 11.0059C53.7939 10.9938 53.7924 10.9802 53.7908 10.9682H53.7893Z" fill="white"/>
<path d="M28.1266 10.9666C28.218 10.8473 28.3108 10.7264 28.4021 10.6086C28.4447 10.5542 28.4554 10.4953 28.4219 10.4288H28.7278C28.5832 10.6116 28.4493 10.7838 28.3123 10.9576C28.4402 11.1222 28.5619 11.2869 28.6928 11.4455C28.743 11.506 28.813 11.5513 28.8724 11.6012C28.708 11.6465 28.568 11.6012 28.4691 11.4712C28.3565 11.3217 28.2423 11.1736 28.1297 11.024C28.1297 11.0044 28.1282 10.9863 28.1266 10.9666Z" fill="white"/>
<path d="M58.6519 11.6012H58.2972C58.3825 11.5392 58.3809 11.4607 58.3809 11.3836C58.3809 11.1253 58.3794 10.8669 58.3779 10.6086C58.3779 10.5421 58.3779 10.4757 58.3018 10.4182H58.6321C58.556 10.518 58.5697 10.6313 58.5697 10.7446C58.5697 10.9606 58.5697 11.1782 58.5697 11.3942C58.5697 11.4667 58.5697 11.5392 58.6503 11.6027L58.6519 11.6012Z" fill="white"/>
<path d="M28.1556 10.4469C28.1054 10.4907 28.1008 10.5512 28.0993 10.6101C28.0977 10.7234 28.0993 10.8367 28.0993 10.95C28.0993 10.9802 28.0993 11.0104 28.0993 11.0422C28.0993 11.1751 28.0932 11.3066 28.0993 11.4395C28.1023 11.4954 28.1282 11.5498 28.1449 11.6087H27.8253C27.9136 11.5407 27.9014 11.4561 27.9014 11.373C27.9014 11.1268 27.8999 10.8805 27.9014 10.6328C27.9014 10.5602 27.906 10.4877 27.8497 10.4197H28.1541C28.1541 10.4288 28.1571 10.4379 28.1571 10.4469H28.1556Z" fill="white"/>
<path d="M46.7291 11.5936V11.5966C46.7839 11.5513 46.8007 11.4909 46.8007 11.4214C46.7991 11.1525 46.8007 10.882 46.8007 10.6131C46.8007 10.5512 46.787 10.4953 46.7474 10.4454C46.7474 10.4348 46.7474 10.4243 46.7489 10.4137H47.0381C47.0381 10.4243 47.0381 10.4348 47.0381 10.4439C47.0046 10.4787 46.9955 10.5225 46.9955 10.5678C46.9955 10.8911 46.9955 11.2144 46.9955 11.5317C47.0229 11.5528 47.0411 11.5664 47.0609 11.5815C47.0609 11.5891 47.0609 11.5951 47.0609 11.6027C46.9498 11.5996 46.8387 11.5966 46.7276 11.5936H46.7291Z" fill="white"/>
<path d="M48.1399 11.0059C48.1399 11.1495 48.1384 11.2945 48.1354 11.438C48.1354 11.4984 48.1552 11.5483 48.2145 11.5966H47.8736C47.9345 11.5105 47.936 11.5105 47.936 11.3897C47.936 11.1192 47.936 10.8488 47.936 10.5784C47.936 10.5285 47.9284 10.4832 47.8949 10.4439V10.4122C47.9862 10.4122 48.0775 10.4122 48.1673 10.4122C48.1734 10.4198 48.181 10.4273 48.1871 10.4334C48.146 10.4711 48.1323 10.518 48.1323 10.5708C48.1323 10.7023 48.1354 10.8337 48.1354 10.9651C48.1354 10.9787 48.1354 10.9908 48.1354 11.0044L48.1399 11.0059Z" fill="white"/>
<path d="M25.0798 11.6117H24.7784C24.8743 11.512 24.8561 11.3897 24.8576 11.2733C24.8606 11.0845 24.8576 10.8941 24.8576 10.7053C24.8576 10.6101 24.8485 10.5164 24.7876 10.4273H25.1072C25.0356 10.4953 25.0448 10.5739 25.0448 10.6509C25.0448 10.9062 25.0448 11.1615 25.0448 11.4184C25.0448 11.4758 25.0478 11.5332 25.0889 11.58C25.0859 11.5906 25.0828 11.6027 25.0798 11.6133V11.6117Z" fill="white"/>
<path d="M54.6477 11.583C54.6888 11.5558 54.704 11.5135 54.7086 11.4682C54.7131 11.4259 54.7162 11.3851 54.7162 11.3428C54.7177 11.1056 54.7192 10.8699 54.7192 10.6328C54.7192 10.5663 54.7162 10.4998 54.6721 10.4454C54.6721 10.4364 54.6721 10.4258 54.6721 10.4167H54.981C54.8912 10.4877 54.9049 10.5693 54.9049 10.6479C54.9049 10.8971 54.9049 11.1464 54.9049 11.3972C54.9049 11.4712 54.911 11.5407 54.9917 11.6072H54.6477C54.6477 11.6072 54.6477 11.5936 54.6477 11.586V11.583Z" fill="white"/>
<path d="M13.1449 10.4273H13.4599C13.3945 10.4968 13.399 10.5739 13.399 10.6509C13.399 10.9032 13.399 11.1555 13.399 11.4093C13.399 11.4788 13.399 11.5483 13.4751 11.6087H13.1342C13.2194 11.5226 13.2103 11.4138 13.2118 11.3081C13.2118 11.1072 13.2149 10.9047 13.2118 10.7038C13.2118 10.6086 13.2134 10.5119 13.1433 10.4273H13.1449Z" fill="white"/>
<path d="M20.3755 11.6042C20.4288 11.5483 20.444 11.4788 20.444 11.4048C20.444 11.1434 20.444 10.882 20.444 10.6207C20.444 10.5572 20.4409 10.4938 20.3861 10.4469C20.3877 10.4379 20.3892 10.4288 20.3907 10.4197H20.6966C20.6266 10.5089 20.6281 10.598 20.6296 10.6887C20.6327 10.7763 20.6342 10.8624 20.6357 10.95C20.6357 10.9697 20.6357 10.9878 20.6357 11.0074C20.6342 11.1449 20.6327 11.2824 20.6296 11.4199C20.6296 11.4878 20.6433 11.5498 20.7149 11.6117C20.6449 11.6117 20.5931 11.6132 20.5414 11.6132C20.4866 11.6132 20.4333 11.6132 20.3785 11.6132L20.3816 11.6072L20.377 11.6027L20.3755 11.6042Z" fill="white"/>
<path d="M39.5152 10.4137H39.815C39.8059 10.4318 39.7968 10.4454 39.7922 10.4605C39.78 10.5059 39.7587 10.5527 39.7587 10.598C39.7557 10.8715 39.7587 11.1464 39.7587 11.4199C39.7587 11.4848 39.7755 11.5437 39.8424 11.6027C39.7207 11.6072 39.6172 11.6042 39.5046 11.6042C39.5685 11.512 39.5761 11.4138 39.5746 11.3126C39.5715 11.1102 39.5746 10.9092 39.5746 10.7068C39.5746 10.6554 39.5776 10.6041 39.5685 10.5542C39.5609 10.5089 39.5381 10.4666 39.5168 10.4137H39.5152Z" fill="white"/>
<path d="M53.7619 11.0059C53.7619 11.1555 53.7604 11.3066 53.7665 11.4561C53.768 11.503 53.7954 11.5468 53.8137 11.5997C53.7178 11.6087 53.6128 11.6042 53.4926 11.5997C53.5702 11.5302 53.5732 11.4516 53.5732 11.37C53.5732 11.1268 53.5732 10.8836 53.5732 10.6403C53.5732 10.5648 53.5778 10.4892 53.5002 10.4137C53.6189 10.4092 53.7148 10.4092 53.8106 10.4137C53.8106 10.4243 53.8106 10.4333 53.8106 10.4439C53.7665 10.4938 53.7589 10.5572 53.7589 10.6192C53.7589 10.7295 53.7604 10.8397 53.7619 10.95C53.7619 10.9682 53.7619 10.9878 53.7619 11.0059Z" fill="white"/>
<path d="M38.0054 10.9425C38.0054 11.0573 37.9309 11.1298 37.8137 11.1298C37.7011 11.1298 37.5976 11.0361 37.6036 10.9379C37.6082 10.8503 37.6904 10.7476 37.8182 10.7506C37.9354 10.7536 38.0054 10.8231 38.0039 10.9425H38.0054Z" fill="white"/>
<path d="M45.1707 10.2093C45.0048 10.259 44.8496 10.3057 44.6958 10.3524C44.6928 10.3479 44.6913 10.3449 44.6882 10.3404C44.8115 10.253 44.9363 10.1657 45.0657 10.0738C45.0991 10.1175 45.1296 10.1566 45.1707 10.2108V10.2093Z" fill="white"/>
<path d="M28.0993 11.0419C28.0993 11.0118 28.0993 10.9816 28.0993 10.95C28.1083 10.956 28.1174 10.9606 28.1264 10.9666C28.1264 10.9862 28.1279 11.0042 28.1294 11.0238C28.1189 11.0298 28.1083 11.0359 28.0978 11.0419H28.0993Z" fill="white"/>
<path d="M20.6357 11.0057C20.6357 10.9862 20.6357 10.9681 20.6357 10.9485C20.6478 10.9485 20.6583 10.9515 20.6704 10.953C20.6644 10.9711 20.6583 10.9892 20.6523 11.0073C20.6463 11.0073 20.6418 11.0073 20.6357 11.0057Z" fill="white"/>
<path d="M53.7619 11.0057C53.7619 10.9877 53.7619 10.9681 53.7619 10.95C53.7709 10.956 53.78 10.9621 53.789 10.9666L53.792 11.0042C53.7815 11.0042 53.7724 11.0042 53.7619 11.0042V11.0057Z" fill="white"/>
<path d="M61.7305 11.583C61.7305 11.583 61.732 11.5981 61.7335 11.6056C61.7244 11.6056 61.7154 11.6056 61.7064 11.6056L61.7305 11.5815V11.583Z" fill="white"/>
<path d="M25.0798 11.6116C25.0828 11.6011 25.0858 11.589 25.0888 11.5785L25.1144 11.6056C25.1039 11.6071 25.0918 11.6101 25.0813 11.6116H25.0798Z" fill="white"/>
<path d="M51.4589 10.4137C51.4589 10.4242 51.4589 10.4348 51.4574 10.4453C51.4469 10.4348 51.4378 10.4257 51.4273 10.4152C51.4378 10.4152 51.4484 10.4152 51.4589 10.4137Z" fill="white"/>
<path d="M21.9961 11.58C21.9976 11.5906 21.9991 11.6026 22.0006 11.6131C21.9916 11.6116 21.9825 11.6086 21.9735 11.6071C21.981 11.5981 21.9886 11.5891 21.9961 11.58Z" fill="white"/>
<path d="M19.5872 11.6102C19.5872 11.6011 19.5902 11.5906 19.5917 11.5815C19.6007 11.5906 19.6082 11.5996 19.6173 11.6087C19.6067 11.6087 19.5977 11.6087 19.5872 11.6087V11.6102Z" fill="white"/>
<path d="M56.2408 10.4137L56.2363 10.4483C56.2273 10.4378 56.2182 10.4273 56.2107 10.4167C56.2212 10.4167 56.2303 10.4167 56.2408 10.4152V10.4137Z" fill="white"/>
<path d="M20.3904 10.4197C20.3889 10.4288 20.3874 10.4378 20.3859 10.4468C20.3784 10.4378 20.3709 10.4288 20.3633 10.4197C20.3724 10.4197 20.3814 10.4197 20.3904 10.4197Z" fill="white"/>
<path d="M28.1555 10.4468C28.1555 10.4378 28.1525 10.4288 28.1525 10.4197C28.1616 10.4197 28.1706 10.4197 28.1796 10.4197C28.1721 10.4288 28.1646 10.4378 28.157 10.4468H28.1555Z" fill="white"/>
<path d="M40.9418 11.2567L40.9386 11.2905C40.9273 11.2809 40.9145 11.2712 40.9032 11.2615C40.9161 11.2615 40.929 11.2583 40.9418 11.2583V11.2567Z" fill="white"/>
<path d="M48.14 11.0058C48.14 10.9922 48.14 10.9802 48.14 10.9666C48.146 10.9636 48.1505 10.9651 48.155 10.9696C48.158 10.9817 48.1625 10.9937 48.1656 11.0058C48.1565 11.0058 48.1475 11.0058 48.14 11.0058Z" fill="white"/>
<path d="M42.7156 10.4152C42.7156 10.4243 42.7156 10.4333 42.7156 10.4438C42.7096 10.4363 42.7036 10.4288 42.6976 10.4228C42.7036 10.4212 42.7096 10.4182 42.7156 10.4167V10.4152Z" fill="white"/>
<path d="M14.5843 11.293C14.5843 11.293 14.5797 11.305 14.5767 11.3125C14.5692 11.3065 14.5617 11.3005 14.5541 11.293C14.5632 11.293 14.5737 11.293 14.5828 11.293H14.5843Z" fill="white"/>
<path d="M40.8908 10.4137C40.8908 10.4242 40.8893 10.4363 40.8878 10.4468L40.8652 10.4167C40.8742 10.4167 40.8817 10.4152 40.8908 10.4137Z" fill="white"/>
<path d="M39.9959 10.4137C39.9959 10.4227 39.9959 10.4333 39.9959 10.4423C39.9899 10.4348 39.9839 10.4273 39.9778 10.4197C39.9839 10.4167 39.9899 10.4152 39.9959 10.4122V10.4137Z" fill="white"/>
<path d="M20.375 11.6042L20.3795 11.6087L20.3765 11.6147C20.3615 11.6147 20.3479 11.6147 20.3328 11.6147L20.3298 11.6087L20.3344 11.6042C20.3479 11.6042 20.36 11.6042 20.3735 11.6042H20.375Z" fill="white"/>
<path d="M59.7459 10.4137C59.7459 10.4227 59.7459 10.4333 59.7459 10.4423C59.7399 10.4348 59.7338 10.4273 59.7263 10.4197C59.7323 10.4182 59.7399 10.4152 59.7459 10.4137Z" fill="white"/>
<path d="M26.5591 10.6104C26.572 10.6104 26.5848 10.6072 26.5977 10.6056C26.5945 10.6136 26.5913 10.6201 26.5881 10.6281C26.5784 10.6217 26.5687 10.6152 26.5591 10.6104Z" fill="white"/>
<path d="M33.493 11.6132C33.4945 11.6026 33.496 11.5936 33.4975 11.583C33.5035 11.5906 33.5095 11.5966 33.5156 11.6041C33.508 11.6071 33.499 11.6101 33.4915 11.6132H33.493Z" fill="white"/>
<path d="M42.2057 10.4137V10.4438C42.1982 10.4363 42.1907 10.4273 42.1846 10.4197C42.1922 10.4182 42.1982 10.4152 42.2057 10.4137Z" fill="white"/>
<path d="M31.7975 11.6131C31.7991 11.6026 31.8006 11.5906 31.8036 11.58C31.8096 11.5891 31.8141 11.5981 31.8201 11.6071C31.8126 11.6086 31.8051 11.6116 31.7975 11.6131Z" fill="white"/>
<path d="M31.5051 11.58C31.5051 11.5905 31.5081 11.6026 31.5096 11.6131C31.5021 11.6131 31.4931 11.6116 31.4855 11.6101C31.4916 11.5996 31.4991 11.589 31.5051 11.5785V11.58Z" fill="white"/>
<path d="M41.515 10.7173C41.515 10.7173 41.5225 10.7068 41.5256 10.7007L41.5421 10.7173C41.5331 10.7173 41.5241 10.7173 41.515 10.7173Z" fill="white"/>
<path d="M53.8121 10.4438C53.8121 10.4333 53.8121 10.4242 53.8121 10.4137C53.8182 10.4167 53.8242 10.4182 53.8317 10.4212C53.8257 10.4288 53.8197 10.4363 53.8136 10.4438H53.8121Z" fill="white"/>
<path d="M60.6575 10.4137C60.6575 10.4227 60.6575 10.4333 60.6575 10.4423C60.6515 10.4348 60.6455 10.4273 60.6395 10.4197L60.659 10.4137H60.6575Z" fill="white"/>
<path d="M50.7285 10.4137C50.7285 10.4227 50.7285 10.4333 50.7285 10.4423C50.7225 10.4348 50.7165 10.4273 50.7089 10.4197C50.7149 10.4182 50.7225 10.4152 50.7285 10.4137Z" fill="white"/>
<path d="M14.6668 11.6434C14.6819 11.6419 14.6984 11.6404 14.7135 11.6389C14.703 11.6826 14.6834 11.654 14.6668 11.6434Z" fill="white"/>
<path d="M13.8921 11.6117L13.8951 11.583C13.9011 11.5906 13.9071 11.5996 13.9132 11.6071C13.9056 11.6071 13.8981 11.6101 13.8906 11.6117H13.8921Z" fill="white"/>
<path d="M48.1915 10.4363C48.1915 10.4363 48.1779 10.4212 48.1719 10.4152C48.1824 10.4152 48.1915 10.4167 48.202 10.4182C48.199 10.4243 48.196 10.4318 48.1915 10.4378V10.4363Z" fill="white"/>
<path d="M54.6719 10.4137C54.6719 10.4227 54.6719 10.4333 54.6719 10.4423C54.6658 10.4348 54.6598 10.4273 54.6523 10.4197C54.6583 10.4182 54.6658 10.4152 54.6719 10.4137Z" fill="white"/>
<path d="M46.7502 10.4137C46.7502 10.4242 46.7502 10.4348 46.7487 10.4453C46.7427 10.4378 46.7367 10.4288 46.7307 10.4212C46.7367 10.4182 46.7442 10.4167 46.7502 10.4137Z" fill="white"/>
<path d="M47.8993 10.4137V10.4453C47.8917 10.4378 47.8842 10.4288 47.8782 10.4212C47.8857 10.4197 47.8917 10.4167 47.8993 10.4152V10.4137Z" fill="white"/>
<path d="M57.9379 10.9923C57.9379 11.0029 57.9379 11.0134 57.9364 11.024C57.9304 11.0164 57.9228 11.0074 57.9168 10.9999C57.9243 10.9969 57.9304 10.9954 57.9379 10.9923Z" fill="white"/>
<path d="M52.899 10.4453C52.899 10.4348 52.899 10.4242 52.8975 10.4137C52.905 10.4167 52.911 10.4182 52.9185 10.4212L52.9005 10.4453H52.899Z" fill="white"/>
<path d="M47.0396 10.4438C47.0396 10.4333 47.0396 10.4242 47.0396 10.4137C47.0471 10.4137 47.0547 10.4152 47.0622 10.4167C47.0547 10.4257 47.0486 10.4348 47.0411 10.4438H47.0396Z" fill="white"/>
<path d="M41.1452 10.4438V10.4137C41.1452 10.4137 41.1573 10.4182 41.1648 10.4212C41.1588 10.4288 41.1527 10.4363 41.1452 10.4438Z" fill="white"/>
<path d="M35.809 11.293C35.809 11.293 35.806 11.308 35.8045 11.3141C35.797 11.3065 35.7894 11.3005 35.7804 11.293C35.7894 11.293 35.7985 11.293 35.809 11.293Z" fill="white"/>
<path d="M25.9607 10.4182C25.9607 10.4182 25.9472 10.4152 25.9412 10.4137C25.9472 10.4152 25.9547 10.4167 25.9607 10.4182Z" fill="white"/>
<path d="M55.238 10.4152C55.238 10.4152 55.238 10.4273 55.232 10.4318C55.229 10.4273 55.2275 10.4212 55.2245 10.4167H55.238V10.4152Z" fill="white"/>
<path d="M14.5342 10.4182C14.5342 10.4182 14.5206 10.4152 14.5146 10.4137C14.5206 10.4152 14.5281 10.4167 14.5342 10.4182Z" fill="white"/>
<path d="M44.7246 10.4152C44.7246 10.4152 44.7201 10.4273 44.7171 10.4318C44.7141 10.4258 44.7125 10.4212 44.7095 10.4152C44.7141 10.4152 44.7186 10.4152 44.7231 10.4152H44.7246Z" fill="white"/>
<path d="M51.3086 8.09311C51.3086 8.09311 51.3191 8.08408 51.3252 8.07956C51.3282 8.08408 51.3297 8.0886 51.3327 8.09311C51.3252 8.09311 51.3161 8.09311 51.3086 8.09311Z" fill="white"/>
<path d="M49.2341 10.4303C49.2341 10.4303 49.2281 10.4212 49.2296 10.4152C49.2341 10.4152 49.2386 10.4152 49.2432 10.4152C49.2402 10.4197 49.2371 10.4258 49.2341 10.4303Z" fill="white"/>
<path d="M34.4046 11.5241C34.4046 11.5241 34.4166 11.5196 34.4227 11.5165C34.4227 11.5211 34.4227 11.5256 34.4227 11.5316C34.4166 11.5286 34.4106 11.5271 34.4046 11.5241Z" fill="white"/>
<path d="M59.3608 10.8971C59.3608 10.8971 59.3488 10.8866 59.3428 10.882C59.3488 10.8866 59.3548 10.8926 59.3608 10.8971Z" fill="white"/>
<path d="M51.2566 10.8971C51.2566 10.8971 51.2446 10.8881 51.2371 10.882C51.2431 10.8866 51.2491 10.8911 51.2566 10.8971Z" fill="white"/>
<path d="M52.6097 10.4137C52.6097 10.4137 52.6051 10.4257 52.6021 10.4303C52.5991 10.4242 52.5976 10.4197 52.5946 10.4137C52.5991 10.4137 52.6036 10.4137 52.6097 10.4137Z" fill="white"/>
<path d="M39.2822 10.8971C39.2822 10.8971 39.2701 10.8866 39.2641 10.882C39.2701 10.8866 39.2761 10.8926 39.2822 10.8971Z" fill="white"/>
<path d="M38.7238 10.422C38.7238 10.422 38.7255 10.4186 38.7272 10.4152C38.7306 10.4169 38.7323 10.4186 38.7356 10.4203L38.7306 10.427C38.7306 10.427 38.7272 10.4237 38.7238 10.422Z" fill="white"/>
<path d="M54.3828 10.4333C54.3828 10.4333 54.3783 10.4212 54.3768 10.4152C54.3813 10.4152 54.3858 10.4152 54.3903 10.4152C54.3873 10.4212 54.3858 10.4273 54.3828 10.4333Z" fill="white"/>
<path d="M52.2262 10.4137C52.2262 10.4137 52.2232 10.4242 52.2202 10.4303C52.2172 10.4257 52.2142 10.4197 52.2126 10.4152C52.2172 10.4152 52.2217 10.4152 52.2262 10.4152V10.4137Z" fill="white"/>
<path d="M39.3691 10.6146C39.3691 10.6146 39.3811 10.6086 39.3872 10.6056C39.3872 10.6101 39.3872 10.6146 39.3872 10.6206C39.3811 10.6191 39.3751 10.6161 39.3691 10.6146Z" fill="white"/>
<path d="M42.8284 11.6026C42.8284 11.6026 42.8284 11.5891 42.8284 11.5815C42.8314 11.5861 42.8359 11.5906 42.839 11.5951L42.8269 11.6011L42.8284 11.6026Z" fill="white"/>
<path d="M43.8419 11.583C43.8419 11.583 43.8419 11.5966 43.8419 11.6041C43.8374 11.6011 43.8344 11.5996 43.8298 11.5966C43.8344 11.5921 43.8389 11.5876 43.8419 11.583Z" fill="white"/>
<path d="M45.1736 11.583C45.1736 11.583 45.1736 11.5966 45.1736 11.6041C45.1706 11.6011 45.1661 11.5996 45.1631 11.5966C45.1676 11.5921 45.1706 11.5876 45.1751 11.583H45.1736Z" fill="white"/>
<path d="M47.0624 11.6026C47.0624 11.6026 47.0624 11.5891 47.0624 11.5815C47.0669 11.5861 47.0699 11.5906 47.073 11.5951C47.0684 11.5966 47.0654 11.5996 47.0609 11.6011L47.0624 11.6026Z" fill="white"/>
<path d="M50.7043 11.583C50.7043 11.583 50.7043 11.5966 50.7043 11.6041C50.6997 11.6011 50.6967 11.5996 50.6922 11.5966C50.6967 11.5921 50.7012 11.5876 50.7043 11.583Z" fill="white"/>
<path d="M51.024 11.6041C51.024 11.6041 51.024 11.5906 51.024 11.583C51.0285 11.5876 51.0315 11.5921 51.036 11.5966C51.0315 11.5996 51.0285 11.6011 51.024 11.6041Z" fill="white"/>
<path d="M54.6475 11.583C54.6475 11.583 54.6475 11.5966 54.6475 11.6041C54.643 11.6011 54.64 11.5996 54.6355 11.5966C54.64 11.5921 54.643 11.5876 54.6475 11.583Z" fill="white"/>
<path d="M41.3109 10.4137C41.3109 10.4137 41.3064 10.4257 41.3049 10.4318C41.3019 10.4257 41.3004 10.4212 41.2974 10.4152C41.3019 10.4152 41.3064 10.4152 41.3109 10.4152V10.4137Z" fill="white"/>
<path d="M58.8145 10.4152C58.8145 10.4152 58.8145 10.4258 58.81 10.4303C58.807 10.4258 58.804 10.4212 58.801 10.4152C58.8055 10.4152 58.81 10.4152 58.8145 10.4152Z" fill="white"/>
<path d="M53.5196 10.4204L53.5162 10.4255C53.5162 10.4255 53.5111 10.4204 53.5078 10.4188C53.5094 10.4171 53.5128 10.4154 53.5145 10.4137C53.5162 10.4154 53.5179 10.4188 53.5196 10.4204Z" fill="white"/>
<path d="M15.8843 11.2944C15.8843 11.2944 15.8858 11.2808 15.8873 11.2733C15.8904 11.2793 15.8934 11.2854 15.8964 11.2914C15.8919 11.2884 15.8874 11.2884 15.8843 11.2929V11.2944Z" fill="white"/>
<path d="M15.8843 11.2945C15.8843 11.2945 15.8919 11.29 15.8964 11.293C15.8964 11.2975 15.8934 11.302 15.8934 11.3065C15.8904 11.302 15.8874 11.299 15.8843 11.2945Z" fill="white"/>
<path fill-rule="evenodd" clip-rule="evenodd" d="M0.00590063 0H0.0500364H9.74012H9.85731V0.077049C9.84915 0.269337 9.84134 0.461794 9.83352 0.654307L9.83348 0.655282C9.81798 1.03721 9.80246 1.41935 9.78426 1.80083C9.75991 2.33564 9.73099 2.87196 9.70207 3.40677C9.68229 3.76785 9.6625 4.12892 9.63815 4.48848C9.61989 4.76193 9.6001 5.03538 9.56814 5.30731C9.52857 5.63968 9.46161 5.96903 9.3566 6.28931C9.33471 6.3558 9.31572 6.42343 9.29672 6.49109C9.27211 6.57871 9.24749 6.66636 9.21658 6.7516C9.16242 6.90587 9.10189 7.05742 9.04133 7.20906C9.0236 7.25344 9.00587 7.29784 8.98829 7.34231L8.95945 7.41528C8.90991 7.54083 8.86023 7.66676 8.80414 7.7895C8.42061 8.62646 7.95034 9.40904 7.35831 10.1176C6.90782 10.6554 6.40102 11.1343 5.80747 11.5196C5.53505 11.6963 5.25045 11.8519 4.94911 11.9758C4.9414 11.9787 4.9343 11.984 4.92703 11.9894L4.92702 11.9894C4.92282 11.9925 4.91856 11.9957 4.9141 11.9985H4.87758C4.87444 11.9963 4.87131 11.9938 4.86813 11.9913C4.86052 11.9852 4.85269 11.979 4.84409 11.9758C4.55189 11.8429 4.26729 11.6963 4.00095 11.5196C3.33891 11.0784 2.77732 10.5315 2.28879 9.9091C1.73481 9.19904 1.28584 8.42704 0.928186 7.60368L0.888136 7.5118C0.835421 7.39124 0.782536 7.27029 0.736424 7.14743C0.666415 6.95858 0.599451 6.76822 0.540096 6.57636C0.400079 6.12162 0.269193 5.66385 0.235711 5.18645C0.200707 4.70301 0.165703 4.21956 0.13222 3.73612C0.119175 3.54512 0.110013 3.35411 0.10085 3.16311C0.0971849 3.08671 0.0935199 3.01031 0.0896064 2.9339C0.0821238 2.77743 0.0744777 2.62079 0.0668289 2.46409L0.0668287 2.46409C0.0511416 2.14272 0.035443 1.82111 0.0211199 1.50019C0.0140331 1.33638 0.00964016 1.1719 0.00525311 1.00764L0.00525308 1.00764C0.00304512 0.924972 0.000838654 0.842358 -0.00170898 0.759914V0.489488C0.00133486 0.41546 0.00590063 0.0755382 0.00590063 0ZM5.33982 1.6595L5.33982 1.65946C5.3385 1.63832 5.3372 1.6176 5.3372 1.59688V0.512149C5.3372 0.49053 5.33578 0.46891 5.3344 0.447768L5.33263 0.418482C5.20022 0.398842 4.5458 0.404885 4.47427 0.426035V0.61186V1.42465C4.47427 1.48675 4.4691 1.54812 4.4639 1.60978L4.4639 1.60981C4.46164 1.63664 4.45937 1.66352 4.45753 1.69054H3.69352V0.419992C3.53828 0.397331 2.88234 0.404885 2.82146 0.429057C2.8032 0.648118 2.81233 2.49125 2.83363 2.56075C2.94248 2.56477 3.05193 2.56403 3.16172 2.56328C3.29907 2.56235 3.43694 2.56141 3.57481 2.56981V5.68954C3.39831 5.70809 3.22393 5.70695 3.04636 5.7058C2.96364 5.70526 2.88023 5.70472 2.79559 5.70616V4.84955H1.92961V6.08234L2.02616 6.08646L2.14268 6.0914V9.27307C2.2553 9.29422 7.59421 9.28969 7.66878 9.26854V6.09291C7.7384 6.08892 7.79977 6.08611 7.85808 6.08343L7.85821 6.08342L7.88185 6.08234C7.90012 5.94335 7.89403 4.90847 7.87576 4.85106C7.7327 4.83293 7.09654 4.84049 7.02044 4.86466V5.68349C6.93674 5.71371 6.32492 5.71522 6.24426 5.68803V5.60947L6.24883 2.58341C6.24883 2.58158 6.24995 2.5803 6.25116 2.57891C6.25151 2.57851 6.25186 2.57811 6.2522 2.57768C6.25264 2.57712 6.25306 2.57652 6.25339 2.57585C6.25492 2.57434 6.25796 2.57132 6.27166 2.55923H6.98696V0.41546H6.11642V1.69357H5.34176C5.34124 1.68205 5.34052 1.67071 5.33982 1.6595ZM4.90669 7.1414C4.91392 7.1496 4.92045 7.15659 4.92634 7.16289C4.9378 7.17515 4.94683 7.18481 4.95387 7.19578L5.00046 7.27035C5.05681 7.36037 5.11327 7.4506 5.16694 7.54175C5.18063 7.56441 5.18824 7.5916 5.18824 7.61729V8.87122C5.18824 8.87928 5.18621 8.88666 5.18351 8.89651L5.1835 8.89653C5.18215 8.90145 5.18063 8.90698 5.17911 8.91352C5.0828 8.92557 4.98692 8.92053 4.89009 8.91545H4.89008C4.80484 8.91097 4.71886 8.90645 4.63122 8.91352L4.62915 8.88999L4.62915 8.88998C4.62693 8.86534 4.62513 8.84531 4.62513 8.82439V7.66865C4.62513 7.60671 4.63883 7.55232 4.67383 7.49945C4.71378 7.43798 4.75176 7.37522 4.78949 7.31287L4.7895 7.31286C4.80927 7.28019 4.82897 7.24763 4.84885 7.21542C4.85862 7.19991 4.87027 7.18502 4.883 7.16875L4.88301 7.16874C4.8901 7.15966 4.89754 7.15016 4.90517 7.13988L4.90669 7.1414ZM4.7355 3.91684C4.73622 3.92498 4.73698 3.93367 4.73774 3.94311L4.73926 3.9416C4.76705 3.9416 4.7934 3.94196 4.81886 3.94231C4.8673 3.94297 4.91253 3.94358 4.95842 3.9416C4.97965 3.94067 5.00102 3.94176 5.02254 3.94286C5.07045 3.94532 5.11909 3.94781 5.16844 3.928C5.16738 3.91271 5.16595 3.89761 5.16453 3.88269C5.16189 3.85485 5.15931 3.82766 5.15931 3.8011C5.16007 3.74559 5.16093 3.69008 5.16179 3.63456C5.16435 3.46799 5.16692 3.30142 5.16692 3.13485C5.16692 3.09406 5.15627 3.05025 5.138 3.01399C5.10845 2.95532 5.07392 2.89961 5.03924 2.84367C5.03105 2.83047 5.02286 2.81726 5.01473 2.804C5.00214 2.78355 4.98784 2.76397 4.97181 2.74202C4.96652 2.73477 4.96104 2.72727 4.95537 2.71939C4.95141 2.72333 4.9478 2.72684 4.9445 2.73005C4.93263 2.7416 4.9248 2.74921 4.91885 2.75867C4.89876 2.7901 4.87916 2.822 4.85955 2.85391C4.83015 2.90177 4.80075 2.94963 4.7697 2.99586C4.74078 3.03816 4.73165 3.08198 4.73165 3.13183V3.85247C4.73165 3.87286 4.73336 3.89241 4.7355 3.91684Z" fill="white"/>
</g>
<defs>
<clipPath id="clip0_617_1078">
<rect width="63" height="12" fill="white"/>
</clipPath>
</defs>
</svg>
