<svg xmlns="http://www.w3.org/2000/svg" width="148" height="32" viewBox="0 0 148 32" fill="none">
    <path d="M6.65049 7.73472C6.74799 9.20246 7.02527 10.3609 7.48231 11.2167C7.93935 12.0733 8.92428 12.442 9.95948 12.442C10.3883 12.442 10.6458 12.3759 11.2095 12.125C11.7732 11.8742 12.6743 11.2904 13.9121 10.373C15.3092 9.30888 16.4982 8.58755 17.4786 8.20826C18.4589 7.82897 19.4126 7.63971 20.2825 7.63971C22.9181 7.63971 24.8728 8.40741 26.202 9.94204C27.532 11.4767 28.3349 13.969 28.5558 17.1493H23.5923C23.4338 15.4375 23.1604 14.3749 22.6051 13.4278C22.1846 12.7103 21.2096 12.442 20.2833 12.442C19.8049 12.442 19.434 12.572 18.7476 12.8958C18.0613 13.2196 17.2463 13.7668 16.3025 14.5376C15.4691 15.2224 14.4979 15.8495 13.3888 16.418C12.2797 16.9866 11.1364 17.245 9.96024 17.245C7.30101 17.245 5.31517 16.4796 4.00345 14.8956C2.6925 13.3115 1.9201 10.9271 1.68701 7.73548H6.65049V7.73472Z" fill="white"/>
    <path d="M33.7889 17.1485H38.9504C38.9504 18.5919 40.397 19.7077 42.1718 19.7077C43.8484 19.7077 45.1304 18.8549 45.1304 17.3788C45.1304 16.4925 44.6376 15.6724 42.6319 15.0164L39.9361 14.1963C34.9391 12.8517 33.9862 9.80066 33.9862 7.6686C33.9862 3.60133 37.4711 0.747932 41.9745 0.747932C46.4779 0.747932 49.6338 3.3391 49.6338 7.73473H44.4723C44.4723 6.39012 43.6504 5.24161 41.8755 5.24161C40.2644 5.24161 39.2125 6.32399 39.2125 7.57055C39.2125 8.0304 39.3443 9.04665 41.4482 9.63724L43.8149 10.3913C47.0363 11.3756 50.3239 13.0159 50.3239 17.1166C50.3239 21.9713 46.1161 24.1361 41.9738 24.1361C37.1413 24.1361 33.7881 21.3153 33.7881 17.1485H33.7889Z" fill="white"/>
    <path d="M62.6526 8.42337H67.9452L61.4362 23.7423H57.1956L50.6865 8.42337H55.9791L59.3322 17.543L62.6526 8.42337Z" fill="white"/>
    <path d="M68.7344 3.30641C68.7344 1.69881 70.1154 0.48494 71.7585 0.48494C73.4015 0.48494 74.7171 1.69881 74.7171 3.30641C74.7171 4.91401 73.4023 6.12712 71.7585 6.12712C70.1146 6.12712 68.7344 4.84788 68.7344 3.30641ZM69.3262 23.7423V8.42337H74.1915V23.7423H69.3262Z" fill="white"/>
    <path d="M94.6723 16.0661C94.6723 21.0197 91.0563 24.1361 87.2103 24.1361C85.632 24.1361 83.5943 23.4801 82.4768 22.0367V31.287H77.6116V8.42338H82.4768V10.0637C83.5943 8.65293 85.6327 8.02965 87.2103 8.02965C91.0563 8.02965 94.6723 11.146 94.6723 16.0661ZM89.7408 16.0661C89.7408 14.1309 88.0969 12.5241 86.1903 12.5241C84.2837 12.5241 82.6399 14.0982 82.6399 16.0661C82.6399 18.034 84.3492 19.6416 86.1903 19.6416C88.0314 19.6416 89.7408 18.034 89.7408 16.0661Z" fill="white"/>
    <path d="M114.266 16.0661C114.266 21.0197 110.65 24.1361 106.804 24.1361C105.225 24.1361 103.188 23.4801 102.07 22.0367V31.287H97.2043V8.42338H102.07V10.0637C103.188 8.65293 105.225 8.02965 106.804 8.02965C110.65 8.02965 114.266 11.146 114.266 16.0661ZM109.334 16.0661C109.334 14.1309 107.69 12.5241 105.784 12.5241C103.877 12.5241 102.233 14.0982 102.233 16.0661C102.233 18.034 103.943 19.6416 105.784 19.6416C107.625 19.6416 109.334 18.034 109.334 16.0661Z" fill="white"/>
    <path d="M132.215 17.5103H120.972C121.433 18.9864 122.715 19.9046 124.555 19.9046C126.002 19.9046 127.481 19.2487 128.435 18.3305L130.933 21.4788C129.421 23.1191 126.791 24.1361 124.227 24.1361C119.362 24.1361 115.943 20.7901 115.943 16.1323C115.943 11.146 119.789 8.03041 124.194 8.03041C128.599 8.03041 132.282 11.1141 132.282 15.772C132.282 16.1976 132.249 16.7555 132.216 17.5103H132.215ZM127.448 14.6562C127.383 13.1474 126.034 12.1296 124.292 12.1296C122.846 12.1296 121.432 12.8182 120.939 14.6562H127.448Z" fill="white"/>
    <path d="M146.417 8.48875L145.266 13.1139C144.313 12.556 143.557 12.5241 143.064 12.5241C141.157 12.5241 139.579 14.1317 139.579 18.6581V23.7431H134.714V8.42338H139.513V11.6705C140.401 9.14471 142.242 8.02965 144.116 8.02965C144.84 8.02965 145.628 8.09502 146.417 8.48875Z" fill="white"/>
</svg>