<svg xmlns="http://www.w3.org/2000/svg" width="39" height="9" viewBox="0 0 39 9" fill="none">
    <g clip-path="url(#clip0_617_1080)">
        <path fill-rule="evenodd" clip-rule="evenodd"
            d="M8.6651 0.860105L11.7293 8.7865H11.7272H4.2473C3.58585 8.7865 3.37079 8.55518 3.18374 8.00819L0.119263 0.0817871H7.59913C8.26058 0.0817871 8.47805 0.313264 8.6651 0.860105ZM8.93604 7.43541H7.49387C6.49582 7.43541 5.37382 6.62667 4.98813 5.63089L4.65846 4.7848H3.73978L3.22095 3.44548L5.42759 0.834473L6.92127 4.67486C7.01829 4.9105 7.17901 5.11447 7.38543 5.26391C7.59185 5.41334 7.8358 5.50235 8.08995 5.52095H9.14418L9.64433 6.81116L8.93604 7.43541ZM3.81929 4.67486H4.74023L5.10018 5.5982C5.46945 6.5449 6.54476 7.31388 7.49371 7.31388H8.89613L9.50412 6.77863L9.50383 6.77788L8.12867 6.75997C7.1488 6.75997 6.04675 5.96796 5.66598 4.99085L5.32048 4.10508H4.39466L3.90125 2.83039H4.82479L4.53685 2.0734L3.35694 3.46657L3.81929 4.67486Z"
            fill="white" />
        <path d="M12.8912 1.75801H12.4213V1.42819H13.7584V1.75801H13.2838V3.16751H12.8912V1.75801Z"
            fill="white" />
        <path
            d="M14.4222 2.19958H14.5764C14.7722 2.19958 14.8873 2.10138 14.8873 1.94943C14.8873 1.79747 14.7798 1.71569 14.5998 1.71569C14.5402 1.7124 14.4804 1.71711 14.4221 1.7297L14.4222 2.19958ZM14.0248 1.45394C14.1979 1.42571 14.3731 1.4124 14.5484 1.41418C14.7467 1.39521 14.9455 1.44469 15.1117 1.55439C15.1657 1.5979 15.2085 1.65369 15.2366 1.71712C15.2646 1.78055 15.2771 1.84977 15.273 1.919C15.2696 2.01043 15.2394 2.09883 15.1861 2.17324C15.1329 2.24765 15.059 2.30478 14.9736 2.33753C15.0359 2.36814 15.0898 2.41355 15.1305 2.46978C15.1713 2.52601 15.1976 2.59136 15.2073 2.66012C15.2611 2.85877 15.3148 3.08558 15.3475 3.15335H14.9435C14.8915 3.0217 14.8515 2.88559 14.8242 2.74672C14.7751 2.5294 14.7002 2.47322 14.5367 2.46856H14.4221V3.1535H14.0248V1.45394Z"
            fill="white" />
        <path
            d="M16.3739 2.8821C16.6403 2.8821 16.7923 2.63195 16.7923 2.29309C16.7923 1.95424 16.645 1.71101 16.3739 1.71101C16.1028 1.71101 15.9508 1.97472 15.9508 2.30002C15.9508 2.62533 16.1075 2.8821 16.3716 2.8821H16.3739ZM16.3623 3.19461C16.2487 3.19573 16.1361 3.17305 16.0318 3.12802C15.9275 3.08298 15.8338 3.0166 15.7568 2.93314C15.6797 2.84968 15.621 2.751 15.5844 2.64346C15.5477 2.53592 15.5341 2.4219 15.5442 2.30876C15.5356 2.19318 15.5508 2.07706 15.5891 1.96764C15.6273 1.85823 15.6877 1.75786 15.7664 1.67282C15.8451 1.58777 15.9406 1.51987 16.0467 1.47335C16.1529 1.42683 16.2675 1.40268 16.3834 1.40243C16.497 1.40007 16.6099 1.42161 16.7147 1.46568C16.8195 1.50974 16.9138 1.57533 16.9916 1.65821C17.0694 1.74108 17.1289 1.83937 17.1663 1.94672C17.2037 2.05407 17.2181 2.16808 17.2085 2.28135C17.2085 2.85364 16.8649 3.19762 16.3576 3.19762L16.3623 3.19461Z"
            fill="white" />
        <path
            d="M19.0012 2.50109C19.0012 2.29311 18.9848 2.03422 18.9848 1.78587C18.9288 2.01961 18.8562 2.25274 18.789 2.45907L18.5763 3.13935H18.2649L18.0803 2.46389C18.0218 2.26284 17.9656 2.0175 17.9236 1.78618C17.9236 2.01991 17.9072 2.291 17.8956 2.50606L17.8632 3.16721H17.4912L17.601 1.42819H18.1269L18.2952 2.00786C18.3536 2.20892 18.405 2.42624 18.4425 2.62955C18.4891 2.4285 18.5479 2.19943 18.606 2.00545L18.7908 1.42819H19.3074L19.4009 3.16721H19.0294L19.0012 2.50109Z"
            fill="white" />
        <path
            d="M19.789 2.76058C19.924 2.83068 20.0736 2.86828 20.2257 2.87037C20.4065 2.87037 20.5015 2.79507 20.5015 2.68106C20.5015 2.56705 20.4197 2.51043 20.2116 2.44732C19.9217 2.34687 19.7297 2.18558 19.7297 1.93301C19.7306 1.63617 19.9807 1.40229 20.3898 1.40229C20.5424 1.3977 20.6941 1.42723 20.8339 1.48873L20.745 1.805C20.6322 1.75069 20.5086 1.72253 20.3834 1.72262C20.2152 1.72262 20.131 1.80214 20.131 1.88828C20.131 1.97443 20.2268 2.04958 20.4536 2.13377C20.7598 2.24838 20.9024 2.40726 20.9024 2.65275C20.9024 2.94492 20.6687 3.19266 20.2012 3.19266C20.0308 3.19402 19.8623 3.15728 19.708 3.08513L19.789 2.76058Z"
            fill="white" />
        <path
            d="M21.8086 3.16719V2.10363H21.6355V1.91899H21.8086V1.86944C21.8024 1.79097 21.8121 1.71206 21.837 1.63738C21.8619 1.5627 21.9015 1.49377 21.9534 1.43465C22.0355 1.35737 22.1446 1.31541 22.2574 1.31778C22.3229 1.3177 22.3878 1.3296 22.4491 1.35287L22.4211 1.52818C22.3744 1.50893 22.3243 1.4994 22.2738 1.50016C22.0845 1.50016 22.04 1.6708 22.04 1.86252V1.93029H22.3412V2.10333H22.0352V3.17864L21.8086 3.16719Z"
            fill="white" />
        <path
            d="M22.7388 1.91901L23.0099 2.65531C23.04 2.73949 23.0702 2.83769 23.0917 2.91238C23.115 2.83708 23.1408 2.74175 23.1735 2.65064L23.4075 1.91901H23.6413L23.3233 2.80485C23.2492 3.09606 23.1065 3.36533 22.9072 3.59025C22.8283 3.66096 22.7325 3.71009 22.629 3.73287L22.573 3.54582C22.6453 3.52148 22.7126 3.48429 22.7717 3.43603C22.8534 3.36668 22.9182 3.27951 22.961 3.18121C22.9713 3.16498 22.9777 3.14658 22.9797 3.12745C22.9777 3.10684 22.9714 3.0869 22.961 3.06901L22.4934 1.91901H22.7388Z"
            fill="white" />
        <path d="M24.1625 1.33466H23.9357V3.1672H24.1625V1.33466Z" fill="white" />
        <path
            d="M24.7773 2.48933C24.8099 2.44731 24.8497 2.39355 24.887 2.34912L25.2563 1.919H25.5274L25.0435 2.43105L25.5928 3.16735H25.317L24.9009 2.57126L24.784 2.69987V3.16674H24.5504V1.33466H24.7842L24.7773 2.48933Z"
            fill="white" />
        <path
            d="M26.5723 2.42172C26.5789 2.37658 26.5759 2.33056 26.5634 2.28668C26.5509 2.24281 26.5293 2.20208 26.4999 2.16718C26.4705 2.13228 26.4341 2.10401 26.393 2.08423C26.3519 2.06445 26.307 2.05362 26.2614 2.05244C26.1674 2.05835 26.0791 2.09979 26.0144 2.16834C25.9497 2.2369 25.9135 2.32747 25.9131 2.42172H26.5723ZM25.9084 2.58301C25.9035 2.64062 25.9112 2.69861 25.9309 2.75297C25.9506 2.80733 25.9819 2.85677 26.0225 2.89787C26.0632 2.93898 26.1123 2.97077 26.1664 2.99106C26.2206 3.01135 26.2785 3.01965 26.3361 3.01539C26.4542 3.01975 26.5717 2.99736 26.6798 2.94988L26.7218 3.11344C26.5894 3.16858 26.4469 3.19566 26.3035 3.19296C26.2202 3.1976 26.1369 3.1843 26.0592 3.15396C25.9816 3.12362 25.9113 3.07694 25.8533 3.01709C25.7952 2.95724 25.7507 2.88562 25.7227 2.80706C25.6947 2.72851 25.6839 2.64486 25.6911 2.56178C25.682 2.47833 25.6903 2.39391 25.7155 2.31384C25.7407 2.23376 25.7821 2.15977 25.8373 2.09652C25.8925 2.03328 25.9602 1.98215 26.0361 1.94636C26.112 1.91057 26.1945 1.8909 26.2785 1.88858C26.3521 1.89004 26.4246 1.90688 26.4913 1.938C26.558 1.96912 26.6175 2.01385 26.6659 2.0693C26.7143 2.12476 26.7506 2.18973 26.7725 2.26004C26.7943 2.33035 26.8012 2.40445 26.7928 2.47759C26.7973 2.51259 26.7973 2.54801 26.7928 2.58301H25.9084Z"
            fill="white" />
        <path
            d="M27.1146 2.93363C27.2069 2.98831 27.3114 3.01887 27.4186 3.02249C27.5798 3.02249 27.6523 2.94297 27.6523 2.83785C27.6523 2.73273 27.5892 2.67218 27.4186 2.60411C27.1848 2.52233 27.0872 2.39839 27.0872 2.2511C27.0894 2.19807 27.1026 2.14607 27.1258 2.09835C27.149 2.05063 27.1819 2.00822 27.2222 1.97377C27.2626 1.93932 27.3097 1.91357 27.3604 1.89814C27.4112 1.8827 27.4646 1.87792 27.5173 1.88408C27.6241 1.88149 27.7294 1.90905 27.8213 1.96359L27.7675 2.12489C27.6903 2.079 27.6025 2.05404 27.5127 2.05245C27.3771 2.05245 27.3047 2.12956 27.3047 2.22308C27.3047 2.31661 27.3771 2.37263 27.5384 2.43815C27.7535 2.51766 27.8657 2.62519 27.8657 2.81209C27.8657 2.99899 27.6926 3.1886 27.3988 3.1886C27.2763 3.1893 27.1556 3.15872 27.0482 3.09975L27.1146 2.93363Z"
            fill="white" />
        <path
            d="M28.4961 1.6199V1.91915H28.821V2.10379H28.4961V2.77232C28.4961 2.92895 28.5405 3.00606 28.6667 3.00606C28.7116 3.00765 28.7565 3.00294 28.8 2.99205V3.16509C28.7349 3.18525 28.6671 3.19541 28.599 3.19521C28.5556 3.19566 28.5126 3.18742 28.4724 3.17097C28.4323 3.15452 28.3958 3.13019 28.3652 3.09943C28.2979 3.00427 28.2664 2.88833 28.2764 2.77217V2.10379H28.0847V1.91915H28.2833V1.68542L28.4961 1.6199Z"
            fill="white" />
        <path
            d="M29.1412 2.30711V1.91855H29.3398V2.15289C29.3618 2.07655 29.4072 2.00907 29.4697 1.95998C29.5322 1.9109 29.6085 1.88271 29.6878 1.87939H29.7481V2.10379H29.685C29.6077 2.1069 29.5343 2.13805 29.4783 2.19142C29.4224 2.24478 29.3878 2.31669 29.3811 2.3937C29.3775 2.42875 29.3775 2.46408 29.3811 2.49913V3.16765H29.1473L29.1412 2.30711Z"
            fill="white" />
        <path
            d="M30.6957 2.5291C30.4479 2.5291 30.1673 2.56886 30.1673 2.81193C30.1644 2.84053 30.1678 2.86942 30.1773 2.89656C30.1868 2.92369 30.2022 2.9484 30.2223 2.96893C30.2424 2.98946 30.2668 3.00531 30.2938 3.01534C30.3207 3.02538 30.3495 3.02935 30.3782 3.02699C30.4447 3.02934 30.5102 3.01045 30.5653 2.97306C30.6203 2.93566 30.662 2.88171 30.6844 2.81901C30.6877 2.79498 30.6877 2.7706 30.6844 2.74657L30.6957 2.5291ZM30.9294 2.86796C30.928 2.96804 30.9342 3.06808 30.9481 3.1672H30.7424L30.7213 3.00832C30.6768 3.0677 30.6189 3.11564 30.5522 3.14817C30.4856 3.18069 30.4121 3.19687 30.338 3.19537C30.289 3.19893 30.2398 3.1923 30.1935 3.17589C30.1472 3.15949 30.1049 3.13367 30.0691 3.10006C30.0333 3.06644 30.0048 3.02578 29.9855 2.98062C29.9662 2.93546 29.9565 2.88679 29.957 2.83768C29.957 2.53377 30.2258 2.37081 30.7073 2.37081V2.33813C30.7125 2.29945 30.7088 2.26008 30.6966 2.22302C30.6843 2.18597 30.6638 2.15218 30.6365 2.12424C30.6092 2.0963 30.576 2.07494 30.5392 2.06176C30.5025 2.04859 30.4632 2.04396 30.4244 2.04822C30.3087 2.04772 30.1952 2.08016 30.0972 2.14175L30.0458 1.98919C30.1712 1.91542 30.3145 1.8774 30.46 1.87925C30.8433 1.87925 30.9268 2.14099 30.9268 2.3913L30.9294 2.86796Z"
            fill="white" />
        <path
            d="M31.3666 3.16719V2.10378H31.1934V1.91899H31.3666V1.84956C31.3605 1.77641 31.3705 1.7028 31.3959 1.63393C31.4213 1.56505 31.4615 1.50258 31.5137 1.4509C31.5658 1.39922 31.6286 1.35959 31.6977 1.33479C31.7668 1.31 31.8405 1.30065 31.9136 1.30739C32.0245 1.30563 32.1338 1.33389 32.2299 1.38917L32.1668 1.56221C32.0873 1.51361 31.9957 1.48849 31.9026 1.48977C31.6689 1.48977 31.5918 1.658 31.5918 1.85679V1.9199H32.3187V3.16809H32.085V2.10378H31.5871V3.17909L31.3666 3.16719Z"
            fill="white" />
        <path
            d="M32.9864 2.48933C33.0165 2.44731 33.0588 2.39355 33.0939 2.34912L33.4632 1.919H33.7343L33.2523 2.43105L33.8016 3.16735H33.5258L33.1028 2.57126L32.9859 2.69987V3.16674H32.7526V1.33466H32.9864V2.48933Z"
            fill="white" />
        <path
            d="M34.3046 2.48933C34.3347 2.44731 34.377 2.39355 34.4121 2.34912L34.7814 1.919H35.0618L34.5779 2.43105L35.1296 3.16735H34.8538L34.419 2.57126L34.3044 2.69987V3.16674H34.0708V1.33466H34.3046V2.48933Z"
            fill="white" />
        <path
            d="M12.8374 5.56781H12.9916C13.1874 5.56781 13.3049 5.46962 13.3049 5.31766C13.3049 5.1657 13.1951 5.08392 13.015 5.08392C12.9554 5.08064 12.8956 5.08535 12.8373 5.09793L12.8374 5.56781ZM12.4471 4.82217C12.6209 4.79396 12.7968 4.78066 12.973 4.78242C13.1705 4.76359 13.3685 4.81308 13.534 4.92263C13.5881 4.96567 13.6311 5.021 13.6596 5.08401C13.688 5.14703 13.701 5.21593 13.6975 5.28498C13.6947 5.37875 13.6637 5.46949 13.6085 5.54538C13.5534 5.62128 13.4766 5.67879 13.3883 5.71043C13.4502 5.74169 13.5037 5.78727 13.5443 5.84338C13.585 5.8995 13.6116 5.96452 13.6221 6.03302C13.6758 6.23167 13.7275 6.45848 13.76 6.52625H13.3582C13.3062 6.3946 13.2663 6.2585 13.2389 6.11962C13.1898 5.89989 13.115 5.84387 12.9537 5.84146H12.8368V6.54508H12.4471V4.82217Z"
            fill="white" />
        <path
            d="M14.7915 6.25051C15.0557 6.25051 15.2076 6.00036 15.2076 5.6615C15.2076 5.32264 15.0603 5.07942 14.7915 5.07942C14.5227 5.07942 14.3684 5.34358 14.3684 5.66843C14.3684 5.99328 14.5251 6.25051 14.7868 6.25051H14.7915ZM14.7704 6.56377C14.6568 6.56485 14.5443 6.54213 14.44 6.49707C14.3357 6.45201 14.2421 6.38561 14.165 6.30214C14.088 6.21867 14.0293 6.11998 13.9927 6.01245C13.9561 5.90491 13.9425 5.7909 13.9526 5.67777C13.9432 5.56133 13.9581 5.4442 13.9964 5.33384C14.0348 5.22347 14.0956 5.1223 14.1752 5.03676C14.2548 4.95122 14.3513 4.88318 14.4586 4.83698C14.5659 4.79079 14.6816 4.76744 14.7984 4.76842C14.9121 4.76606 15.0249 4.78761 15.1297 4.83168C15.2345 4.87574 15.3289 4.94133 15.4067 5.0242C15.4845 5.10707 15.544 5.20537 15.5813 5.31272C15.6187 5.42007 15.6331 5.53408 15.6236 5.64735C15.6236 6.21964 15.2799 6.56361 14.7727 6.56361L14.7704 6.56377Z"
            fill="white" />
        <path
            d="M17.4164 5.86931C17.4164 5.65847 17.4024 5.40244 17.4024 5.1541C17.3463 5.37609 17.2737 5.62097 17.2084 5.82729L16.9957 6.50757H16.682L16.495 5.84371C16.4389 5.6404 16.3828 5.39491 16.3383 5.166C16.3383 5.39973 16.3219 5.66856 16.3103 5.88588L16.2706 6.54507H15.9064L16.0186 4.80605H16.5423L16.7121 5.37609C16.7682 5.57714 16.8197 5.79446 16.8594 5.99778C16.9061 5.79672 16.9648 5.56765 17.0251 5.37368L17.2075 4.79626H17.724L17.8245 6.54462H17.4435L17.4164 5.86931Z"
            fill="white" />
        <path
            d="M18.2064 6.12897C18.3412 6.19808 18.4899 6.23562 18.6412 6.23876C18.8236 6.23876 18.9194 6.16346 18.9194 6.04946C18.9194 5.93545 18.8352 5.87882 18.6272 5.81572C18.3373 5.71286 18.1604 5.55397 18.1604 5.30141C18.1604 5.00457 18.4081 4.78017 18.8171 4.78017C18.9698 4.77535 19.1216 4.80489 19.2613 4.86662L19.1677 5.17279C19.0555 5.11855 18.9324 5.09058 18.8078 5.09102C18.6372 5.09102 18.5554 5.17054 18.5554 5.25668C18.5554 5.34283 18.6489 5.41798 18.878 5.50216C19.1842 5.61677 19.3268 5.77566 19.3268 6.02114C19.3268 6.31331 19.093 6.56106 18.6256 6.56106C18.4556 6.56325 18.2876 6.52565 18.1348 6.45127L18.2064 6.12897Z"
            fill="white" />
        <path
            d="M19.7165 6.12895C19.8511 6.19837 19.9999 6.23593 20.1513 6.23874C20.3321 6.23874 20.4271 6.16344 20.4271 6.04943C20.4271 5.93543 20.3453 5.8788 20.1349 5.8157C19.8474 5.71284 19.668 5.55395 19.668 5.30139C19.668 5.00455 19.9182 4.78015 20.3272 4.78015C20.4791 4.77528 20.6301 4.80483 20.769 4.8666L20.6825 5.18286C20.5694 5.12865 20.4456 5.10069 20.3202 5.10109C20.1519 5.10109 20.0677 5.1806 20.0677 5.26675C20.0677 5.35289 20.1635 5.42804 20.3903 5.51223C20.6989 5.62684 20.8391 5.78573 20.8391 6.03121C20.8391 6.32338 20.6171 6.57112 20.1379 6.57112C19.9631 6.57147 19.7907 6.53044 19.6348 6.45139L19.7165 6.12895Z"
            fill="white" />
        <path
            d="M22.0026 5.7945L21.8956 5.42522C21.8676 5.32236 21.8372 5.19148 21.8114 5.09103C21.7904 5.19389 21.7601 5.32476 21.7343 5.42522L21.6289 5.7945H22.0026ZM21.5631 6.08908L21.4416 6.54495H21.0372L21.5678 4.80579H22.0821L22.6197 6.5448H22.2059L22.0726 6.09841L21.5631 6.08908Z"
            fill="white" />
        <path
            d="M23.5404 6.54493V5.46963H23.3747V5.29432H23.5477V5.23544C23.5419 5.1568 23.552 5.07779 23.5773 5.0031C23.6026 4.92842 23.6426 4.85957 23.695 4.80065C23.7763 4.72381 23.8844 4.68186 23.9962 4.68378C24.0625 4.68398 24.1281 4.69586 24.1902 4.71887L24.1622 4.89658C24.1159 4.87588 24.0656 4.8656 24.0149 4.86646C23.8232 4.86646 23.7812 5.03709 23.7812 5.22881V5.29432H24.0758V5.46963H23.7768V6.54493H23.5404Z"
            fill="white" />
        <path
            d="M24.5247 5.285L24.7958 6.02295C24.8259 6.10473 24.856 6.20368 24.8776 6.27777C24.9009 6.20247 24.9267 6.10955 24.9571 6.01828L25.2048 5.28439H25.4386L25.0973 6.17491C25.0184 6.466 24.8718 6.73434 24.6696 6.95805C24.589 7.02672 24.4939 7.07626 24.3914 7.10293L24.3352 6.91362C24.4075 6.88928 24.4748 6.85209 24.5339 6.80383C24.6144 6.73336 24.679 6.64648 24.7232 6.54901C24.7333 6.53286 24.7398 6.51473 24.7423 6.49585C24.7404 6.47524 24.734 6.4553 24.7236 6.43741L24.2568 5.285H24.5247Z"
            fill="white" />
        <path d="M25.9482 4.70306H25.7214V6.5356H25.9482V4.70306Z" fill="white" />
        <path
            d="M26.5699 5.8597C26.6 5.81527 26.6423 5.7615 26.6797 5.71708L27.0467 5.28469H27.3178L26.8359 5.799L27.3898 6.54464H27.114L26.6871 5.94419L26.5702 6.07506V6.54193H26.3362V4.70306H26.5699V5.8597Z"
            fill="white" />
        <path
            d="M27.8369 5.8597C27.867 5.81527 27.9094 5.7615 27.9467 5.71708L28.3137 5.28469H28.5848L28.1029 5.799L28.6568 6.54464H28.381L27.9511 5.94419L27.8366 6.07506V6.54193H27.6032V4.70306H27.8369V5.8597Z"
            fill="white" />
        <path
            d="M29.5924 5.89749C29.3586 5.89749 29.064 5.93484 29.064 6.17791C29.0613 6.20658 29.0648 6.23551 29.0743 6.2627C29.0838 6.28988 29.0991 6.31467 29.1192 6.33534C29.1393 6.35602 29.1636 6.37208 29.1905 6.38242C29.2173 6.39276 29.2461 6.39713 29.2749 6.39523C29.3417 6.39763 29.4076 6.3788 29.463 6.34143C29.5185 6.30406 29.5606 6.25008 29.5835 6.18725C29.5869 6.16322 29.5869 6.13883 29.5835 6.11481L29.5924 5.89749ZM29.8261 6.23574C29.8258 6.33579 29.8321 6.43575 29.8448 6.53499H29.6415L29.6204 6.3761C29.5759 6.43549 29.518 6.48343 29.4513 6.51595C29.3847 6.54848 29.3112 6.56466 29.2371 6.56315C29.1879 6.56673 29.1385 6.56004 29.0921 6.5435C29.0457 6.52696 29.0032 6.50093 28.9673 6.46708C28.9315 6.43322 28.9031 6.39228 28.8839 6.34685C28.8648 6.30142 28.8553 6.25251 28.8561 6.20321C28.8561 5.90201 29.1249 5.73634 29.6064 5.73634V5.71059C29.6116 5.67191 29.6079 5.63254 29.5957 5.59548C29.5834 5.55842 29.5629 5.52464 29.5356 5.4967C29.5084 5.46876 29.4751 5.44739 29.4383 5.43422C29.4016 5.42105 29.3623 5.41642 29.3235 5.42068C29.2076 5.41869 29.0937 5.45124 28.9963 5.5142L28.9449 5.36224C29.0695 5.2889 29.2118 5.25094 29.3564 5.25245C29.7421 5.25245 29.8232 5.5142 29.8232 5.76451L29.8261 6.23574Z"
            fill="white" />
        <path
            d="M30.3871 5.07459C30.3687 5.07459 30.3504 5.07096 30.3334 5.06392C30.3164 5.05687 30.301 5.04654 30.2879 5.03352C30.2749 5.0205 30.2646 5.00505 30.2576 4.98803C30.2505 4.97102 30.2469 4.95279 30.2469 4.93438C30.2469 4.91596 30.2505 4.89773 30.2576 4.88072C30.2646 4.86371 30.2749 4.84825 30.2879 4.83523C30.301 4.82221 30.3164 4.81189 30.3334 4.80484C30.3504 4.79779 30.3687 4.79417 30.3871 4.79417C30.4058 4.79317 30.4244 4.79611 30.4419 4.8028C30.4594 4.8095 30.4752 4.81979 30.4885 4.83301C30.5017 4.84624 30.512 4.8621 30.5187 4.87956C30.5254 4.89703 30.5283 4.9157 30.5273 4.93438C30.528 4.95318 30.5247 4.97191 30.5178 4.98939C30.5108 5.00687 30.5003 5.0227 30.4869 5.03589C30.4735 5.04908 30.4574 5.05933 30.4398 5.06599C30.4223 5.07266 30.4035 5.07558 30.3847 5.07459H30.3871ZM29.943 6.9002C30.0344 6.9014 30.1229 6.86799 30.1907 6.80668C30.2538 6.7365 30.2796 6.63604 30.2796 6.33981V5.28724H30.5133V6.42565C30.5335 6.61012 30.4797 6.79507 30.3637 6.93996C30.2561 7.03287 30.118 7.0828 29.9758 7.08017L29.943 6.9002Z"
            fill="white" />
        <path
            d="M31.4529 6.39298C31.6702 6.39298 31.8339 6.18966 31.8339 5.90442C31.8339 5.69357 31.7264 5.43755 31.4574 5.43755C31.1884 5.43755 31.0881 5.67595 31.0881 5.91436C31.0881 6.15276 31.2424 6.39358 31.4621 6.39358L31.4529 6.39298ZM31.4529 6.56361C31.3702 6.56454 31.2883 6.5482 31.2123 6.51563C31.1363 6.48307 31.068 6.43499 31.0117 6.37448C30.9553 6.31397 30.9123 6.24236 30.8852 6.16424C30.8582 6.08613 30.8477 6.00322 30.8546 5.92084C30.8474 5.8356 30.8581 5.74979 30.8861 5.66896C30.9141 5.58812 30.9587 5.51405 31.017 5.4515C31.0754 5.38896 31.1462 5.33933 31.2249 5.30583C31.3036 5.27233 31.3885 5.25568 31.474 5.25698C31.5568 5.25538 31.6389 5.27118 31.7152 5.30334C31.7915 5.3355 31.8601 5.38332 31.9168 5.44369C31.9734 5.50406 32.0167 5.57565 32.0439 5.65382C32.0711 5.73199 32.0816 5.81501 32.0747 5.89749C32.0823 5.98291 32.0718 6.06896 32.044 6.15007C32.0161 6.23117 31.9716 6.30553 31.9132 6.36833C31.8548 6.43112 31.7839 6.48095 31.705 6.51459C31.6261 6.54823 31.5411 6.56493 31.4553 6.56361H31.4529Z"
            fill="white" />
        <path
            d="M32.4156 4.70306H32.6493V5.48319C32.687 5.41466 32.7438 5.3586 32.8129 5.32189C32.8829 5.27818 32.964 5.25545 33.0466 5.25638C33.2148 5.25638 33.4833 5.3618 33.4833 5.79162V6.54464H33.2496V5.81572C33.2496 5.61466 33.1743 5.44644 32.9597 5.44644C32.8908 5.44812 32.8242 5.47167 32.7696 5.51369C32.7149 5.55571 32.6751 5.61402 32.6558 5.68018C32.6426 5.71442 32.637 5.7511 32.6394 5.78771V6.54494H32.4065L32.4156 4.70306Z"
            fill="white" />
        <path
            d="M34.1739 4.98816V5.285H34.5011V5.45804H34.1739V6.12883C34.1739 6.28546 34.2183 6.36256 34.3445 6.36256C34.3895 6.36474 34.4346 6.35919 34.4778 6.34615V6.51919C34.4132 6.54177 34.3451 6.55283 34.2767 6.55187C34.2314 6.55365 34.1862 6.54606 34.144 6.52957C34.1017 6.51309 34.0634 6.48808 34.0312 6.45609C33.9647 6.36061 33.9341 6.2447 33.9448 6.12883V5.45804H33.7507V5.285H33.9446V5.05126L34.1739 4.98816Z"
            fill="white" />
        <path
            d="M35.3237 6.39298C35.5388 6.39298 35.7023 6.18966 35.7023 5.90442C35.7023 5.69357 35.5969 5.43755 35.3284 5.43755C35.0598 5.43755 34.9473 5.68529 34.9473 5.9237C34.9473 6.1621 35.1016 6.40292 35.319 6.40292L35.3237 6.39298ZM35.3119 6.56361C35.2294 6.56418 35.1476 6.54759 35.0718 6.51489C34.996 6.4822 34.9278 6.43411 34.8716 6.37369C34.8153 6.31326 34.7722 6.2418 34.745 6.16385C34.7178 6.08589 34.7071 6.00314 34.7136 5.92084C34.7064 5.8356 34.7171 5.74979 34.7451 5.66896C34.7731 5.58812 34.8177 5.51405 34.8761 5.4515C34.9344 5.38896 35.0052 5.33933 35.0839 5.30583C35.1626 5.27233 35.2475 5.25568 35.333 5.25698C35.4158 5.25538 35.498 5.27118 35.5742 5.30334C35.6505 5.3355 35.7192 5.38332 35.7758 5.44369C35.8324 5.50406 35.8757 5.57565 35.903 5.65382C35.9302 5.73199 35.9407 5.81501 35.9338 5.89749C35.9413 5.98291 35.9308 6.06896 35.903 6.15007C35.8752 6.23117 35.8306 6.30553 35.7722 6.36833C35.7138 6.43112 35.6429 6.48095 35.564 6.51459C35.4852 6.54823 35.4001 6.56493 35.3144 6.56361H35.3119Z"
            fill="white" />
        <path d="M36.5112 4.70306H36.2844V6.5356H36.5112V4.70306Z" fill="white" />
        <path
            d="M37.6168 5.89749C37.3691 5.89749 37.0885 5.93483 37.0885 6.17791C37.0857 6.20658 37.0892 6.23551 37.0987 6.26269C37.1083 6.28988 37.1236 6.31467 37.1436 6.33534C37.1637 6.35601 37.188 6.37208 37.2149 6.38242C37.2418 6.39276 37.2706 6.39713 37.2993 6.39523C37.3658 6.39758 37.4314 6.37869 37.4864 6.34129C37.5415 6.3039 37.5832 6.24994 37.6055 6.18725C37.614 6.16406 37.6179 6.13948 37.6173 6.11481L37.6168 5.89749ZM37.8388 6.23634C37.8413 6.33971 37.8507 6.4428 37.8668 6.54493H37.6635L37.6424 6.38604C37.5982 6.44511 37.5406 6.49286 37.4744 6.52537C37.4081 6.55789 37.3352 6.57424 37.2614 6.57309C37.2122 6.57667 37.1628 6.56998 37.1164 6.55344C37.0699 6.5369 37.0275 6.51087 36.9916 6.47702C36.9558 6.44316 36.9274 6.40222 36.9082 6.35679C36.8891 6.31136 36.8796 6.26244 36.8804 6.21315C36.8804 5.91194 37.1468 5.74628 37.6307 5.74628V5.72053C37.6355 5.68171 37.6314 5.64231 37.6189 5.60527C37.6063 5.56823 37.5855 5.53451 37.5581 5.50663C37.5307 5.47875 37.4973 5.45743 37.4605 5.44427C37.4236 5.4311 37.3843 5.42644 37.3454 5.43061C37.2296 5.42932 37.1158 5.46182 37.0182 5.52414L36.9668 5.37218C37.0921 5.29855 37.2352 5.26058 37.3805 5.26239C37.7638 5.26239 37.8474 5.52414 37.8474 5.77444L37.8388 6.23634Z"
            fill="white" />
        <path
            d="M38.5284 4.98816V5.285H38.8554V5.45804H38.5281V6.12883C38.5281 6.28546 38.5725 6.36256 38.6987 6.36256C38.7438 6.36474 38.7889 6.35919 38.832 6.34615V6.51919C38.7674 6.54154 38.6994 6.5526 38.631 6.55187C38.5857 6.55366 38.5405 6.54607 38.4982 6.52959C38.456 6.51311 38.4176 6.48808 38.3855 6.45609C38.3181 6.36093 38.2866 6.24499 38.2966 6.12883V5.45804H38.1054V5.285H38.2971V5.05126L38.5284 4.98816Z"
            fill="white" />
    </g>
    <defs>
        <clipPath id="clip0_617_1080">
            <rect width="38.8557" height="8.86827" fill="white" />
        </clipPath>
    </defs>
</svg>