<?xml version="1.0" encoding="utf-8"?>
<svg width="56" height="15" viewBox="0 0 56 15" fill="none" xmlns="http://www.w3.org/2000/svg">
    <g clip-path="url(#clip0_3224_3438)">
        <path
            d="M19.8442 6.31355L18.6467 2.3841L18.6409 2.36091C18.6409 2.32224 18.6622 2.30283 18.7048 2.30283H19.4371C19.4798 2.30283 19.5069 2.32224 19.5186 2.36091L20.2917 5.1975C20.2954 5.20919 20.3013 5.21503 20.3092 5.21503C20.3171 5.21503 20.3228 5.20919 20.3265 5.1975L21.0881 2.36091C21.0998 2.32224 21.1268 2.30283 21.1695 2.30283H21.8845C21.9077 2.30283 21.9253 2.31056 21.9368 2.32602C21.9485 2.34149 21.9504 2.36091 21.9426 2.3841L20.7278 6.31355C20.7161 6.35239 20.6908 6.37163 20.6522 6.37163H19.9198C19.881 6.37163 19.8559 6.35222 19.8442 6.31355Z"
            fill="white" />
        <path
            d="M24.8548 5.06352C24.8508 5.11009 24.8257 5.13329 24.7792 5.13329H22.983C22.9598 5.13329 22.9519 5.14308 22.9598 5.16233C22.9715 5.23982 22.9926 5.31732 23.0237 5.39482C23.1244 5.61184 23.3298 5.72027 23.6399 5.72027C23.8879 5.71649 24.0836 5.61562 24.2271 5.41801C24.2425 5.39482 24.2599 5.38313 24.2793 5.38313C24.291 5.38313 24.3044 5.39086 24.32 5.40633L24.7386 5.81907C24.758 5.83849 24.7677 5.85601 24.7677 5.87131C24.7677 5.87904 24.7599 5.8945 24.7445 5.91787C24.6166 6.07682 24.4518 6.19985 24.2504 6.28697C24.0489 6.37409 23.8281 6.41773 23.5879 6.41773C23.2545 6.41773 22.9725 6.34212 22.7421 6.19108C22.5115 6.03987 22.3459 5.82886 22.2452 5.55754C22.1637 5.36389 22.1232 5.10992 22.1232 4.79598C22.1232 4.58291 22.1522 4.39493 22.2103 4.2322C22.2995 3.9571 22.4553 3.73819 22.6782 3.57529C22.9011 3.41256 23.1655 3.33112 23.4717 3.33112C23.8592 3.33112 24.1702 3.44349 24.4048 3.66825C24.6391 3.89301 24.7816 4.19337 24.8319 4.56916C24.8551 4.71642 24.8629 4.88121 24.8551 5.06318L24.8548 5.06352ZM22.9947 4.38341C22.9792 4.43376 22.9657 4.49579 22.954 4.56951C22.954 4.58892 22.9636 4.59855 22.983 4.59855H23.9886C24.0118 4.59855 24.0195 4.58892 24.0118 4.56951C23.9924 4.45713 23.9827 4.403 23.9827 4.40678C23.9479 4.29045 23.8869 4.20041 23.7996 4.13649C23.7123 4.07257 23.6049 4.04061 23.477 4.04061C23.2329 4.04061 23.072 4.15488 22.9945 4.38359L22.9947 4.38341Z"
            fill="white" />
        <path
            d="M25.9767 6.30158C25.7829 6.22803 25.6327 6.12528 25.5262 5.99348C25.4195 5.86186 25.3664 5.71254 25.3664 5.54586V5.48778C25.3664 5.46836 25.3731 5.45204 25.3867 5.43829C25.4002 5.42455 25.4166 5.41802 25.4362 5.41802H26.0814C26.1008 5.41802 26.1171 5.42489 26.1309 5.43829C26.1444 5.45187 26.1512 5.46836 26.1512 5.48778V5.49362C26.1512 5.57885 26.1986 5.65154 26.2936 5.71168C26.3884 5.77182 26.5077 5.80172 26.651 5.80172C26.7826 5.80172 26.8893 5.7756 26.9708 5.72319C27.0522 5.67095 27.0928 5.606 27.0928 5.52851C27.0928 5.45874 27.0579 5.4065 26.9881 5.37162C26.9184 5.33674 26.8041 5.29997 26.6452 5.26113C26.463 5.21457 26.3197 5.17006 26.2151 5.12745C25.9669 5.04222 25.7693 4.93758 25.6223 4.81351C25.475 4.68945 25.4014 4.51126 25.4014 4.27877C25.4014 3.99198 25.5128 3.76431 25.7357 3.59574C25.9585 3.42717 26.2539 3.3428 26.6221 3.3428C26.8701 3.3428 27.0871 3.3825 27.2732 3.46188C27.4593 3.54127 27.6035 3.65279 27.7062 3.7961C27.8088 3.93958 27.8602 4.1023 27.8602 4.28444C27.8602 4.30386 27.8533 4.32036 27.8399 4.33393C27.8265 4.3475 27.8098 4.35421 27.7904 4.35421H27.1684C27.149 4.35421 27.1325 4.3475 27.1189 4.33393C27.1053 4.32036 27.0986 4.30403 27.0986 4.28444C27.0986 4.19921 27.055 4.12756 26.9679 4.06931C26.8807 4.01123 26.7653 3.98219 26.622 3.98219C26.4941 3.98219 26.3895 4.00539 26.308 4.05195C26.2266 4.09852 26.186 4.16244 26.186 4.24372C26.186 4.32499 26.2257 4.37947 26.3053 4.41813C26.3847 4.45696 26.5175 4.49751 26.7034 4.54013C26.746 4.55181 26.7945 4.56436 26.8488 4.57793C26.9031 4.59151 26.9612 4.608 27.0232 4.62742C27.2983 4.70887 27.5153 4.81351 27.6743 4.94136C27.833 5.0692 27.9126 5.25529 27.9126 5.49947C27.9126 5.78625 27.7992 6.01015 27.5725 6.17081C27.3459 6.33165 27.0407 6.41206 26.657 6.41206C26.3974 6.41206 26.1706 6.37512 25.9769 6.30158H25.9767Z"
            fill="white" />
        <path
            d="M30.2172 4.01997C30.2036 4.03355 30.1871 4.04025 30.1677 4.04025H29.6096C29.5902 4.04025 29.5806 4.05004 29.5806 4.06929V5.30166C29.5806 5.42951 29.6067 5.52453 29.6591 5.58656C29.7113 5.64859 29.7957 5.67952 29.912 5.67952H30.1038C30.1232 5.67952 30.1395 5.6864 30.1533 5.6998C30.1668 5.71337 30.1735 5.72987 30.1735 5.74929V6.30155C30.1735 6.34417 30.1504 6.36943 30.1038 6.37716C29.9411 6.38489 29.8247 6.38884 29.755 6.38884C29.4333 6.38884 29.1931 6.33558 29.0341 6.22904C28.8752 6.12251 28.7937 5.92198 28.79 5.62746V4.06963C28.79 4.05021 28.7802 4.04059 28.7609 4.04059H28.4296C28.4102 4.04059 28.3937 4.03389 28.3801 4.02031C28.3666 4.00674 28.3599 3.99042 28.3599 3.97083V3.45344C28.3599 3.43402 28.3666 3.4177 28.3801 3.40395C28.3937 3.39038 28.41 3.38368 28.4296 3.38368H28.7609C28.7803 3.38368 28.79 3.37405 28.79 3.35464V2.66284C28.79 2.64343 28.7967 2.6271 28.8102 2.61335C28.8238 2.59978 28.8401 2.59308 28.8597 2.59308H29.5108C29.5302 2.59308 29.5465 2.59995 29.5603 2.61335C29.5739 2.62693 29.5806 2.64343 29.5806 2.66284V3.35464C29.5806 3.37405 29.5902 3.38368 29.6096 3.38368H30.1677C30.1871 3.38368 30.2034 3.39055 30.2172 3.40395C30.2308 3.41753 30.2375 3.43402 30.2375 3.45344V3.97083C30.2375 3.99024 30.2306 4.00674 30.2172 4.02031V4.01997Z"
            fill="white" />
        <path
            d="M32.6296 3.39812C32.6431 3.41169 32.6498 3.42819 32.6498 3.44761V3.99988C32.6498 4.01929 32.643 4.03579 32.6296 4.04936C32.6162 4.06294 32.5995 4.06964 32.5801 4.06964H32.0163C31.9969 4.06964 31.9872 4.07943 31.9872 4.09868V6.30173C31.9872 6.32115 31.9804 6.33765 31.967 6.35122C31.9534 6.3648 31.9369 6.3715 31.9175 6.3715H31.2374C31.218 6.3715 31.2015 6.3648 31.1879 6.35122C31.1743 6.33765 31.1676 6.32132 31.1676 6.30173V4.09868C31.1676 4.07926 31.1578 4.06964 31.1386 4.06964H30.7956C30.7762 4.06964 30.7597 4.06294 30.7461 4.04936C30.7325 4.03579 30.7258 4.01946 30.7258 3.99988V3.44761C30.7258 3.42819 30.7325 3.41187 30.7461 3.39812C30.7597 3.38455 30.776 3.37784 30.7956 3.37784H31.1386C31.158 3.37784 31.1676 3.36822 31.1676 3.3488V3.22096C31.1676 2.98074 31.2044 2.79379 31.2781 2.6601C31.3516 2.52642 31.4709 2.43157 31.6355 2.3752C31.8001 2.31902 32.0278 2.29479 32.3185 2.30252H32.5393C32.5588 2.30252 32.5751 2.30939 32.5888 2.3228C32.6024 2.33637 32.6091 2.35287 32.6091 2.37228V2.8431C32.6091 2.86252 32.6022 2.87902 32.5888 2.89259C32.5754 2.90617 32.5588 2.91287 32.5393 2.91287H32.3476C32.2118 2.91682 32.118 2.94483 32.0656 2.99724C32.0134 3.04947 31.9871 3.14553 31.9871 3.28505V3.34898C31.9871 3.36839 31.9967 3.37802 32.0161 3.37802H32.5799C32.5993 3.37802 32.6156 3.38489 32.6294 3.39829L32.6296 3.39812Z"
            fill="white" />
        <path
            d="M33.5741 6.16203C33.3416 5.99157 33.1827 5.75909 33.0974 5.46457C33.0431 5.28242 33.016 5.08482 33.016 4.87157C33.016 4.64304 33.0431 4.43753 33.0974 4.25539C33.1866 3.9686 33.3475 3.74384 33.5799 3.58112C33.8124 3.41839 34.0915 3.33694 34.4169 3.33694C34.7424 3.33694 35.006 3.41736 35.2307 3.5782C35.4555 3.73903 35.6144 3.96276 35.7074 4.24954C35.7693 4.44337 35.8004 4.64682 35.8004 4.85989C35.8004 5.07296 35.7732 5.2649 35.7189 5.44704C35.6337 5.74929 35.4756 5.98676 35.2452 6.15911C35.0146 6.33163 34.7365 6.41772 34.4111 6.41772C34.0856 6.41772 33.8066 6.33249 33.5741 6.16203ZM34.7367 5.59825C34.8259 5.52076 34.8898 5.41422 34.9285 5.27847C34.9594 5.15441 34.975 5.01883 34.975 4.87157C34.975 4.70885 34.9596 4.57138 34.9285 4.45883C34.8859 4.32721 34.8199 4.22446 34.7309 4.15074C34.6417 4.0772 34.5333 4.04025 34.4054 4.04025C34.2776 4.04025 34.1642 4.0772 34.0771 4.15074C33.9899 4.22446 33.9269 4.32721 33.8882 4.45883C33.8571 4.5518 33.8416 4.68943 33.8416 4.87157C33.8416 5.05372 33.8552 5.18173 33.8824 5.27847C33.921 5.41422 33.986 5.52076 34.0771 5.59825C34.1681 5.67575 34.2795 5.71458 34.4113 5.71458C34.5431 5.71458 34.6475 5.67592 34.7367 5.59825Z"
            fill="white" />
        <path
            d="M36.4951 6.35107C36.4815 6.33749 36.4748 6.32117 36.4748 6.30158V2.37213C36.4748 2.35271 36.4815 2.33639 36.4951 2.32264C36.5086 2.30907 36.525 2.30237 36.5446 2.30237H37.2247C37.2441 2.30237 37.2604 2.30924 37.2742 2.32264C37.2877 2.33622 37.2944 2.35271 37.2944 2.37213V6.30158C37.2944 6.321 37.2876 6.33749 37.2742 6.35107C37.2606 6.36464 37.2441 6.37135 37.2247 6.37135H36.5446C36.5251 6.37135 36.5086 6.36464 36.4951 6.35107Z"
            fill="white" />
        <path
            d="M39.9128 2.32264C39.9264 2.30907 39.9427 2.30237 39.9623 2.30237H40.6424C40.6618 2.30237 40.6781 2.30924 40.6919 2.32264C40.7054 2.33622 40.7121 2.35271 40.7121 2.37213V6.30158C40.7121 6.321 40.7053 6.3375 40.6919 6.35107C40.6785 6.36465 40.6618 6.37135 40.6424 6.37135H39.9623C39.9429 6.37135 39.9264 6.36465 39.9128 6.35107C39.8992 6.3375 39.8925 6.32117 39.8925 6.30158V6.10982C39.8925 6.09813 39.8886 6.09143 39.8808 6.08954C39.8731 6.08765 39.8654 6.09057 39.8576 6.09831C39.6949 6.31155 39.472 6.41809 39.1892 6.41809C38.9064 6.41809 38.6844 6.34248 38.4888 6.19144C38.2931 6.04023 38.1525 5.833 38.0673 5.56941C38.0013 5.36802 37.9685 5.13347 37.9685 4.8661C37.9685 4.59873 38.0034 4.35078 38.0732 4.14526C38.1623 3.89731 38.3027 3.70056 38.4947 3.55519C38.6864 3.40982 38.9237 3.33714 39.2067 3.33714C39.4897 3.33714 39.7028 3.43405 39.8578 3.62771C39.8655 3.63939 39.8733 3.64317 39.881 3.63939C39.8887 3.63561 39.8927 3.62771 39.8927 3.61619V2.3723C39.8927 2.35289 39.8994 2.33656 39.913 2.32282L39.9128 2.32264ZM39.8867 4.87744C39.8867 4.6178 39.8441 4.41435 39.7588 4.26709C39.6696 4.11588 39.5399 4.04045 39.3693 4.04045C39.1871 4.04045 39.0495 4.11605 38.9565 4.26709C38.8596 4.41831 38.8112 4.62364 38.8112 4.88328C38.8112 5.11577 38.8519 5.3096 38.9332 5.46459C39.0299 5.63127 39.1734 5.71461 39.3633 5.71461C39.5377 5.71461 39.6733 5.63127 39.7702 5.46459C39.8477 5.32128 39.8865 5.12557 39.8865 4.87744H39.8867Z"
            fill="white" />
        <path
            d="M18.9489 12.0143V8.06165C18.9489 8.02299 18.9684 8.00357 19.007 8.00357H19.3034C19.3421 8.00357 19.3615 8.02299 19.3615 8.06165V10.4391C19.3615 10.4468 19.3644 10.4527 19.3703 10.4566C19.3761 10.4606 19.3828 10.4587 19.3906 10.4508L20.6229 9.16034C20.6423 9.14093 20.6655 9.1313 20.6927 9.1313H21.0415C21.0647 9.1313 21.0802 9.13904 21.0881 9.1545C21.0958 9.16997 21.0919 9.1856 21.0764 9.20107L20.3324 10.0265C20.3246 10.0343 20.3226 10.0439 20.3265 10.0556L21.2159 12.003L21.2218 12.0262C21.2218 12.0573 21.2044 12.0727 21.1695 12.0727H20.8556C20.8245 12.0727 20.8034 12.0573 20.7917 12.0262L20.0418 10.3288C20.0341 10.3133 20.0244 10.3113 20.0128 10.323L19.3734 10.9972C19.3656 11.005 19.3617 11.0146 19.3617 11.0263V12.0145C19.3617 12.0533 19.3423 12.0725 19.3036 12.0725H19.0072C18.9684 12.0725 18.9491 12.0531 18.9491 12.0145L18.9489 12.0143Z"
            fill="white" />
        <path
            d="M22.1519 11.9038C21.9503 11.7605 21.8108 11.5629 21.7333 11.311C21.679 11.1328 21.6519 10.8945 21.6519 10.596C21.6519 10.2975 21.679 10.0613 21.7333 9.88685C21.8068 9.63889 21.9445 9.44318 22.146 9.2997C22.3474 9.15639 22.5916 9.08456 22.8784 9.08456C23.1652 9.08456 23.3908 9.15639 23.5905 9.2997C23.79 9.44318 23.9266 9.63683 24.0003 9.881C24.0546 10.0477 24.0817 10.286 24.0817 10.596C24.0817 10.906 24.0546 11.1483 24.0003 11.311C23.9266 11.5629 23.79 11.7605 23.5905 11.9038C23.3908 12.0473 23.1516 12.1189 22.8725 12.1189C22.5935 12.1189 22.3533 12.0473 22.1517 11.9038H22.1519ZM23.3492 11.6045C23.4808 11.5019 23.57 11.3632 23.6166 11.1888C23.6515 11.0493 23.6688 10.8537 23.6688 10.6017C23.6688 10.3496 23.6534 10.1503 23.6222 10.0145C23.5757 9.84011 23.4856 9.70161 23.352 9.59886C23.2183 9.49627 23.0564 9.4449 22.8665 9.4449C22.6767 9.4449 22.5158 9.49627 22.384 9.59886C22.2522 9.70161 22.1632 9.84011 22.1167 10.0145C22.0856 10.1503 22.0701 10.3458 22.0701 10.6017C22.0701 10.8575 22.0856 11.0532 22.1167 11.1888C22.1593 11.3632 22.2474 11.5017 22.3811 11.6045C22.5148 11.7072 22.6785 11.7584 22.8722 11.7584C23.0659 11.7584 23.2171 11.7071 23.3489 11.6045H23.3492Z"
            fill="white" />
        <path
            d="M24.9187 12.0143V8.06165C24.9187 8.02299 24.9381 8.00357 24.9768 8.00357H25.2732C25.3119 8.00357 25.3313 8.02299 25.3313 8.06165V12.0143C25.3313 12.0531 25.3119 12.0724 25.2732 12.0724H24.9768C24.9379 12.0724 24.9187 12.053 24.9187 12.0143Z"
            fill="white" />
        <path
            d="M26.2556 12.0143V8.06165C26.2556 8.02299 26.275 8.00357 26.3137 8.00357H26.6101C26.6488 8.00357 26.6682 8.02299 26.6682 8.06165V12.0143C26.6682 12.0531 26.6488 12.0724 26.6101 12.0724H26.3137C26.2749 12.0724 26.2556 12.053 26.2556 12.0143Z"
            fill="white" />
        <path
            d="M29.8713 10.5145V10.7006C29.8713 10.7395 29.8519 10.7587 29.8132 10.7587H27.9356C27.9202 10.7587 27.9124 10.7664 27.9124 10.7819C27.9202 10.9952 27.9319 11.1326 27.9473 11.1947C27.9899 11.3691 28.081 11.5067 28.2205 11.6074C28.3601 11.7083 28.5383 11.7586 28.7553 11.7586C28.918 11.7586 29.0613 11.7218 29.1854 11.6481C29.3093 11.5746 29.4062 11.4699 29.4759 11.3342C29.4991 11.2993 29.5263 11.2916 29.5574 11.311L29.784 11.4447C29.815 11.4641 29.8227 11.4912 29.8072 11.5261C29.7103 11.7122 29.5649 11.8584 29.3713 11.965C29.1775 12.0717 28.9546 12.1248 28.7029 12.1248C28.4276 12.1208 28.1972 12.055 28.0111 11.9272C27.825 11.7993 27.6913 11.6211 27.61 11.3924C27.5403 11.2063 27.5054 10.939 27.5054 10.5903C27.5054 10.4276 27.5083 10.2949 27.5141 10.1922C27.52 10.0896 27.5344 9.9975 27.5578 9.91605C27.6236 9.66415 27.7562 9.46259 27.9559 9.31155C28.1554 9.16033 28.3967 9.0849 28.6797 9.0849C29.0323 9.0849 29.3036 9.17408 29.4935 9.35227C29.6833 9.53063 29.8016 9.78237 29.8481 10.108C29.8636 10.2166 29.8713 10.3522 29.8713 10.5149V10.5145ZM28.2059 9.59318C28.08 9.69198 27.9975 9.82481 27.9588 9.99131C27.9356 10.0728 27.92 10.2046 27.9123 10.3865C27.9123 10.402 27.92 10.4097 27.9355 10.4097H29.4411C29.4565 10.4097 29.4643 10.402 29.4643 10.3865C29.4565 10.2121 29.4448 10.0882 29.4294 10.0145C29.3868 9.8401 29.3005 9.7016 29.1708 9.59885C29.0409 9.49626 28.8773 9.44489 28.6795 9.44489C28.4817 9.44489 28.3317 9.49437 28.2058 9.59318H28.2059Z"
            fill="white" />
        <path
            d="M30.6907 12.0143V8.06165C30.6907 8.02299 30.7102 8.00357 30.7488 8.00357H31.0452C31.0839 8.00357 31.1033 8.02299 31.1033 8.06165V10.4391C31.1033 10.4468 31.1062 10.4527 31.1121 10.4566C31.1179 10.4606 31.1246 10.4587 31.1323 10.4508L32.3647 9.16034C32.3841 9.14093 32.4073 9.1313 32.4345 9.1313H32.7833C32.8065 9.1313 32.822 9.13904 32.8299 9.1545C32.8376 9.16997 32.8337 9.1856 32.8182 9.20107L32.0742 10.0265C32.0664 10.0343 32.0644 10.0439 32.0683 10.0556L32.9577 12.003L32.9636 12.0262C32.9636 12.0573 32.9462 12.0727 32.9113 12.0727H32.5974C32.5663 12.0727 32.5451 12.0573 32.5335 12.0262L31.7836 10.3288C31.7759 10.3133 31.7662 10.3113 31.7545 10.323L31.1152 10.9972C31.1074 11.005 31.1035 11.0146 31.1035 11.0263V12.0145C31.1035 12.0533 31.0841 12.0725 31.0454 12.0725H30.749C30.7102 12.0725 30.6909 12.0531 30.6909 12.0145L30.6907 12.0143Z"
            fill="white" />
        <path
            d="M34.8644 9.4741H34.2075C34.192 9.4741 34.1843 9.48183 34.1843 9.4973V11.212C34.1843 11.3981 34.2259 11.5289 34.3092 11.6043C34.3925 11.6799 34.5233 11.7177 34.7015 11.7177H34.8469C34.8855 11.7177 34.9049 11.7371 34.9049 11.7758V12.0141C34.9049 12.053 34.8855 12.0722 34.8469 12.0722C34.8003 12.076 34.7286 12.078 34.6317 12.078C34.3527 12.078 34.1415 12.0258 33.9982 11.9212C33.8547 11.8165 33.783 11.6229 33.783 11.3399V9.49713C33.783 9.48166 33.7753 9.47393 33.7598 9.47393H33.4052C33.3664 9.47393 33.3471 9.45451 33.3471 9.41585V9.1892C33.3471 9.15054 33.3665 9.13113 33.4052 9.13113H33.7598C33.7753 9.13113 33.783 9.12339 33.783 9.10793V8.43366C33.783 8.395 33.8025 8.37558 33.8411 8.37558H34.126C34.1647 8.37558 34.1841 8.395 34.1841 8.43366V9.10793C34.1841 9.12339 34.1918 9.13113 34.2073 9.13113H34.8642C34.9029 9.13113 34.9223 9.15054 34.9223 9.1892V9.41585C34.9223 9.45468 34.9029 9.47393 34.8642 9.47393L34.8644 9.4741Z"
            fill="white" />
        <path
            d="M35.7653 8.50325C35.7033 8.44139 35.6723 8.36372 35.6723 8.27076C35.6723 8.1778 35.7033 8.09549 35.7653 8.03535C35.8272 7.97538 35.9048 7.94531 35.9978 7.94531C36.0907 7.94531 36.1682 7.97538 36.2303 8.03535C36.2921 8.09549 36.3232 8.17402 36.3232 8.27076C36.3232 8.3675 36.2921 8.44139 36.2303 8.50325C36.1682 8.56528 36.0907 8.59621 35.9978 8.59621C35.9048 8.59621 35.8272 8.56528 35.7653 8.50325ZM35.777 12.0084V9.18336C35.777 9.1447 35.7964 9.12528 35.8351 9.12528H36.1315C36.1701 9.12528 36.1895 9.1447 36.1895 9.18336V12.0084C36.1895 12.0473 36.1701 12.0665 36.1315 12.0665H35.8351C35.7962 12.0665 35.777 12.0471 35.777 12.0084Z"
            fill="white" />
        <path
            d="M37.881 12.026L36.9277 9.19505L36.9219 9.17186C36.9219 9.14471 36.9394 9.13113 36.9741 9.13113H37.3054C37.3403 9.13113 37.3635 9.1466 37.3752 9.1777L38.1018 11.4564C38.1056 11.4641 38.1115 11.468 38.1192 11.468C38.1269 11.468 38.1328 11.4643 38.1367 11.4564L38.8634 9.1777C38.8751 9.14677 38.8983 9.13113 38.9332 9.13113L39.2645 9.13698C39.3071 9.13698 39.3225 9.15828 39.311 9.2009L38.3577 12.026C38.346 12.0571 38.3228 12.0726 38.2879 12.0726H37.9508C37.9159 12.0726 37.8927 12.0571 37.881 12.026Z"
            fill="white" />
        <path
            d="M41.2235 9.4741H40.5666C40.5512 9.4741 40.5434 9.48183 40.5434 9.4973V11.212C40.5434 11.3981 40.585 11.5289 40.6684 11.6043C40.7517 11.6799 40.8825 11.7177 41.0606 11.7177H41.206C41.2447 11.7177 41.2641 11.7371 41.2641 11.7758V12.0141C41.2641 12.053 41.2447 12.0722 41.206 12.0722C41.1595 12.076 41.0878 12.078 40.9909 12.078C40.7118 12.078 40.5006 12.0258 40.3573 11.9212C40.2139 11.8165 40.1422 11.6229 40.1422 11.3399V9.49713C40.1422 9.48166 40.1345 9.47393 40.119 9.47393H39.7643C39.7255 9.47393 39.7063 9.45451 39.7063 9.41585V9.1892C39.7063 9.15054 39.7257 9.13113 39.7643 9.13113H40.119C40.1345 9.13113 40.1422 9.12339 40.1422 9.10793V8.43366C40.1422 8.395 40.1616 8.37558 40.2003 8.37558H40.4852C40.5238 8.37558 40.5433 8.395 40.5433 8.43366V9.10793C40.5433 9.12339 40.551 9.13113 40.5665 9.13113H41.2234C41.262 9.13113 41.2814 9.15054 41.2814 9.1892V9.41585C41.2814 9.45468 41.262 9.47393 41.2234 9.47393L41.2235 9.4741Z"
            fill="white" />
        <path
            d="M43.5951 9.17769C43.626 9.19315 43.6377 9.21841 43.63 9.25329L43.5661 9.53819C43.5544 9.57702 43.5291 9.58854 43.4905 9.57307C43.4245 9.54592 43.3489 9.53235 43.2638 9.53235L43.1882 9.53819C42.9867 9.54592 42.82 9.6205 42.6884 9.76191C42.5566 9.90333 42.4908 10.0826 42.4908 10.2996V12.0143C42.4908 12.0531 42.4713 12.0724 42.4327 12.0724H42.1363C42.0974 12.0724 42.0782 12.0529 42.0782 12.0143V9.1892C42.0782 9.15054 42.0976 9.13112 42.1363 9.13112H42.4327C42.4713 9.13112 42.4908 9.15054 42.4908 9.1892V9.54386C42.4908 9.55554 42.4937 9.56225 42.4995 9.56414C42.5054 9.5662 42.5102 9.56328 42.5141 9.55537C42.5956 9.41207 42.6992 9.30055 42.8251 9.22116C42.9511 9.14177 43.0973 9.10208 43.264 9.10208C43.3918 9.10208 43.5023 9.12734 43.5953 9.17769H43.5951Z"
            fill="white" />
        <path
            d="M46.0073 9.35194C46.1972 9.5303 46.2922 9.76657 46.2922 10.0611V12.0141C46.2922 12.053 46.2728 12.0722 46.2341 12.0722H45.9377C45.8989 12.0722 45.8796 12.0528 45.8796 12.0141V11.7758C45.8796 11.7681 45.8767 11.7622 45.8709 11.7583C45.865 11.7545 45.8583 11.7564 45.8506 11.7641C45.7537 11.8804 45.6277 11.9686 45.4727 12.0286C45.3177 12.0885 45.1452 12.1186 44.9553 12.1186C44.6801 12.1186 44.4496 12.0488 44.2636 11.9093C44.0775 11.7698 43.9845 11.5567 43.9845 11.2699C43.9845 10.9831 44.09 10.7496 44.3014 10.5811C44.5125 10.4125 44.806 10.3281 45.182 10.3281H45.8563C45.8717 10.3281 45.8795 10.3204 45.8795 10.3049V10.0841C45.8795 9.88651 45.8243 9.73049 45.7138 9.61622C45.6033 9.50195 45.4318 9.44473 45.1993 9.44473C45.0133 9.44473 44.8622 9.48064 44.7459 9.5523C44.6296 9.62412 44.5579 9.72379 44.5308 9.85163C44.5191 9.89046 44.4959 9.90782 44.461 9.90387L44.147 9.86314C44.1044 9.85541 44.0869 9.83994 44.0948 9.81658C44.1257 9.59955 44.2421 9.42325 44.4436 9.28768C44.645 9.1521 44.8971 9.08423 45.1993 9.08423C45.5482 9.08423 45.8174 9.17341 46.0073 9.3516V9.35194ZM45.6296 11.5928C45.7961 11.4785 45.8796 11.3246 45.8796 11.1307V10.6773C45.8796 10.6618 45.8719 10.6541 45.8564 10.6541H45.2461C44.9904 10.6541 44.7849 10.7063 44.6299 10.811C44.4749 10.9156 44.3974 11.061 44.3974 11.2469C44.3974 11.4175 44.4565 11.5462 44.5747 11.6335C44.693 11.7206 44.8469 11.7643 45.0368 11.7643C45.2653 11.7643 45.4631 11.7072 45.6296 11.5928Z"
            fill="white" />
        <path
            d="M47.8791 8.50617C47.8016 8.60119 47.7628 8.76289 47.7628 8.9916V9.10793C47.7628 9.12339 47.7705 9.13112 47.786 9.13112H48.4371C48.4757 9.13112 48.4951 9.15054 48.4951 9.1892V9.45073C48.4951 9.48957 48.4757 9.50881 48.4371 9.50881H47.786C47.7705 9.50881 47.7628 9.51654 47.7628 9.53201V12.0141C47.7628 12.053 47.7434 12.0722 47.7047 12.0722H47.4142C47.3753 12.0722 47.3561 12.0528 47.3561 12.0141V9.53201C47.3561 9.51654 47.3483 9.50881 47.3329 9.50881H46.9433C46.9045 9.50881 46.8853 9.48939 46.8853 9.45073V9.1892C46.8853 9.15054 46.9047 9.13112 46.9433 9.13112H47.3329C47.3483 9.13112 47.3561 9.12339 47.3561 9.10793V8.9684C47.3561 8.72818 47.3832 8.53916 47.4375 8.4017C47.4918 8.26423 47.5858 8.16337 47.7195 8.09945C47.8532 8.03552 48.0401 8.00356 48.2804 8.00356H48.4489C48.4876 8.00356 48.507 8.02298 48.507 8.06164V8.30582C48.507 8.34465 48.4876 8.36389 48.4489 8.36389H48.3152C48.102 8.36389 47.9568 8.41132 47.8793 8.50634L47.8791 8.50617ZM49.2684 8.50325C49.2064 8.44139 49.1754 8.36372 49.1754 8.27076C49.1754 8.1778 49.2064 8.09549 49.2684 8.03535C49.3302 7.97538 49.4079 7.94531 49.5009 7.94531C49.5938 7.94531 49.6713 7.97538 49.7334 8.03535C49.7952 8.09549 49.8263 8.17402 49.8263 8.27076C49.8263 8.3675 49.7952 8.44139 49.7334 8.50325C49.6715 8.56511 49.5938 8.59621 49.5009 8.59621C49.4079 8.59621 49.3302 8.56528 49.2684 8.50325ZM49.2801 12.0084V9.18336C49.2801 9.1447 49.2995 9.12528 49.3382 9.12528H49.6346C49.6732 9.12528 49.6926 9.1447 49.6926 9.18336V12.0084C49.6926 12.0473 49.6732 12.0665 49.6346 12.0665H49.3382C49.2993 12.0665 49.2801 12.0471 49.2801 12.0084Z"
            fill="white" />
        <path
            d="M50.7098 12.0143V8.06165C50.7098 8.02299 50.7293 8.00357 50.7679 8.00357H51.0643C51.103 8.00357 51.1224 8.02299 51.1224 8.06165V10.4391C51.1224 10.4468 51.1253 10.4527 51.1312 10.4566C51.137 10.4606 51.1437 10.4587 51.1515 10.4508L52.3838 9.16034C52.4032 9.14093 52.4264 9.1313 52.4536 9.1313H52.8024C52.8256 9.1313 52.8411 9.13904 52.849 9.1545C52.8567 9.16997 52.8528 9.1856 52.8373 9.20107L52.0933 10.0265C52.0855 10.0343 52.0835 10.0439 52.0874 10.0556L52.9768 12.003L52.9827 12.0262C52.9827 12.0573 52.9651 12.0727 52.9304 12.0727H52.6165C52.5854 12.0727 52.5643 12.0573 52.5526 12.0262L51.8027 10.3288C51.795 10.3133 51.7853 10.3113 51.7737 10.323L51.1343 10.9972C51.1265 11.005 51.1226 11.0146 51.1226 11.0263V12.0145C51.1226 12.0533 51.1032 12.0725 51.0645 12.0725H50.7681C50.7293 12.0725 50.71 12.0531 50.71 12.0145L50.7098 12.0143Z"
            fill="white" />
        <path
            d="M53.6221 12.0143V8.06165C53.6221 8.02299 53.6415 8.00357 53.6801 8.00357H53.9766C54.0152 8.00357 54.0346 8.02299 54.0346 8.06165V10.4391C54.0346 10.4468 54.0376 10.4527 54.0434 10.4566C54.0492 10.4606 54.0559 10.4587 54.0637 10.4508L55.2961 9.16034C55.3155 9.14093 55.3387 9.1313 55.3658 9.1313H55.7146C55.7378 9.1313 55.7533 9.13904 55.7612 9.1545C55.7689 9.16997 55.765 9.1856 55.7495 9.20107L55.0055 10.0265C54.9978 10.0343 54.9957 10.0439 54.9996 10.0556L55.889 12.003L55.8949 12.0262C55.8949 12.0573 55.8774 12.0727 55.8427 12.0727H55.5287C55.4976 12.0727 55.4765 12.0573 55.4648 12.0262L54.7149 10.3288C54.7072 10.3133 54.6976 10.3113 54.6859 10.323L54.0465 10.9972C54.0388 11.005 54.0348 11.0146 54.0348 11.0263V12.0145C54.0348 12.0533 54.0154 12.0725 53.9767 12.0725H53.6803C53.6415 12.0725 53.6222 12.0531 53.6222 12.0145L53.6221 12.0143Z"
            fill="white" />
        <path
            d="M12.154 1.92931C10.8816 0.791782 9.20197 0.100159 7.36079 0.100159H7.2802C3.30641 0.100159 0.085083 3.32149 0.085083 7.2951V7.37569C0.085083 7.90785 0.142819 8.42644 0.252447 8.92561L12.154 1.92931Z"
            fill="white" />
        <path
            d="M0.5177 9.83856C1.52343 12.5994 4.17153 14.5706 7.28014 14.5706H7.36073C10.4693 14.5706 13.1174 12.5992 14.1232 9.83856H0.5177Z"
            fill="white" />
        <path
            d="M11.4751 5.37488V5.41543C11.4751 7.16914 12.7236 8.63109 14.3804 8.96101C14.4952 8.45101 14.5557 7.92039 14.5557 7.37569V7.2951C14.5557 5.49172 13.8923 3.84351 12.7961 2.58072C11.9896 3.24382 11.4751 4.24921 11.4751 5.37488Z"
            fill="white" />
    </g>
    <defs>
        <clipPath id="clip0_3224_3438">
            <rect width="56" height="14.6057" fill="white" />
        </clipPath>
    </defs>
</svg>
