<?xml version="1.0" encoding="utf-8"?>
<!-- Generator: Adobe Illustrator 24.0.1, SVG Export Plug-In . SVG Version: 6.00 Build 0)  -->
<svg version="1.1" id="Layer_1" xmlns="http://www.w3.org/2000/svg" xmlns:xlink="http://www.w3.org/1999/xlink" x="0px" y="0px"
	 width="31.6000004px" height="16px" viewBox="0 0 31.6000004 16" enable-background="new 0 0 31.6000004 16" xml:space="preserve">
<path fill="#FFFFFF" d="M23.7276821,10C23.8272915,10,23.8272915,10,23.7276821,10
	C23.8272915,9.9003906,23.8272915,9.9003906,23.7276821,10c-0.2001953-0.0996094-0.5-0.0996094-0.7001953-0.2998047
	c-0.5-0.2998047-0.7998047-0.9003906-1.1005859-1.800293c0-0.1000977-1.5996094-5.3999023-1.6992188-5.7998047
	c-0.4003906-1.2001953-1-1.7001953-1.6005859-2C18.3272915,0.1000977,18.0274868,0,17.7276821,0h-0.4003906
	c0.2001953,0,0.4003906,0.1000977,0.5,0.1000977c0.5996094,0.199707,1.2001953,0.7998047,1.5,1.8999023
	c0.0996094,0.2998047,1.5996094,5.6000977,1.7001953,5.7001953c0.2998047,1,0.7001953,1.5996094,1.2001953,1.8994141
	c0.2998047,0.2001953,0.5996094,0.3007812,1,0.3007812L23.7276821,10z"/>
<path fill="#FFFFFF" d="M25.1270962,10L25.1270962,10C25.1270962,9.9003906,25.1270962,9.9003906,25.1270962,10
	c-0.7001953-0.0996094-1.0996094-1.1000977-1.3994141-1.8999023C23.4269009,7.2001953,22.5274868,4,21.9269009,2.2001953
	C21.4269009,0.2998047,19.6270962,0,18.8272915,0c0.7001953,0.1000977,1.7998047,0.5,2.2998047,2.1000977
	c0.4003906,1.5,1.7001953,5.7998047,1.7001953,5.8999023c0.2998047,0.8999023,0.7001953,1.4003906,1.0996094,1.7001953
	C24.2276821,9.7998047,24.6270962,9.9003906,25.1270962,10z"/>
<path fill="#FFFFFF" d="M6.9273887,16H6.7271934c-0.6000977,0-1.3999023-0.2998047-1.7998047-1.7998047l-3.800293-12.800293
	c-0.1997071-0.7998047-0.5000001-1.199707-1-1.2998047h0.6000977c0.7001954,0,1.1000977,0.3999023,1.3999023,1.2998047
	c0,0,3.5000002,11.800293,3.8002932,12.8999023c0.199707,0.7998047,0.5,1.4003906,0.8999023,1.6005859L6.9273887,16
	C6.9273887,16,7.0274863,16,6.9273887,16C7.0274863,16,6.9273887,16,6.9273887,16z"/>
<path fill="#FFFFFF" d="M5.7271934,1.8999023c-0.3999023-1.2998047-1-1.7998047-2.0000002-1.7998047h-0.5
	c0.8002932,0.1000977,1.3002932,0.699707,1.6000979,1.7998047c0,0,3.1000977,10.6000977,3.4999995,11.8999023
	C8.4273882,13.5,8.5274858,13,8.7271929,12.2998047C8.4273882,11.0996094,5.7271934,1.8999023,5.7271934,1.8999023z"/>
<path fill="#FFFFFF" d="M7.2271934,16h0.3999023c0.4999995,0,0.8002925-0.0996094,0.9999995-0.2998047
	c0.4003906-0.2998047,0.6000977-0.9003906,0.800293-1.5c0-0.1005859,3.2998047-11.2001953,3.5-11.7001953
	c0.3999023-1.5,1.2998047-2.1000977,2.199707-2.3999023c0.2001953,0,0.300293-0.1000977,0.5-0.1000977h-0.3999023
	c-1.199707,0-2.6000977,0.5-3.1000977,2.5c-0.199707,0.7001953-3.3999023,11.5996094-3.5,11.7001953
	c-0.199707,0.5996094-0.3999023,1.2001953-0.7998042,1.5C7.6270957,15.9003906,7.4273887,15.9003906,7.2271934,16z"/>
<path fill="#FFFFFF" d="M24.1270962,8.2998047l1.9003906-6.5C26.4269009,0.7001953,26.9269009,0.1000977,27.7276821,0h-0.5
	c-1,0-1.6005859,0.5-2,1.7998047L23.7276821,7C23.7276821,6.8999023,24.1270962,8.2001953,24.1270962,8.2998047z"/>
<path fill="#FFFFFF" d="M29.3272915,0.1000977h-0.5c-0.9003906,0-1.4003906,0.3999023-1.7001953,1.5
	c0,0-1.8994141,6.3999023-1.8994141,6.5c-0.1005859,0.5-0.3007812,0.8999023-0.5,1.199707
	c0.1992188,0.2001953,0.2998047,0.4003906,0.5,0.4003906C25.5274868,9.2998047,25.8272915,8.7998047,26.1270962,8l1.9003906-6.5
	C28.2276821,0.7001953,28.6270962,0.2001953,29.3272915,0.1000977z"/>
<path fill="#FFFFFF" d="M25.3272915,10.2998047h-0.9003906c-0.3994141,1.2998047-0.8994141,3-1.0996094,3.7001953
	c-0.5,1.7998047,0.2998047,2,0.5996094,2h0.7001953c-0.3994141-0.0996094-0.8994141-0.5-0.3994141-2
	C24.2276821,14,25.0274868,11.2998047,25.3272915,10.2998047z"/>
<path fill="#FFFFFF" d="M30.4269009,0.1000977L30.4269009,0.1000977c-0.8994141,0-1.2998047,0.3999023-1.5,1.2998047
	c0,0-1.5,5-2,6.6000977c-0.5,1.5996094-0.7998047,2-1.3994141,2.0996094h0.3994141c1.1005859,0,1.5-0.6992188,1.9003906-1.9995117
	c0.2998047-1.1000977,2.2001953-7.5,2.2001953-7.5C30.1270962,0.3999023,30.2276821,0.2001953,30.4269009,0.1000977z"/>
<path fill="#FFFFFF" d="M26.2276821,10.2998047c-0.3007812,1-1.2001953,4-1.2001953,4c-0.5,1.5,0.2998047,1.7001953,0.5,1.7001953
	h0.7001953c-0.3007812-0.0996094-0.7001953-0.4003906-0.4003906-1.7001953c0,0,1-3.2001953,1.2998047-4.5
	C27.0274868,10,26.7276821,10.2001953,26.2276821,10.2998047z"/>
<path fill="#FFFFFF" d="M27.8272915,16C27.9269009,16,27.9269009,16,27.8272915,16C27.9269009,16,27.9269009,16,27.8272915,16
	c-0.2998047-0.0996094-0.5996094-0.4003906-0.2998047-1.4003906c0,0,3.7001953-12.4995117,3.8994141-13.199707
	c0.2001953-0.699707-0.2998047-1.199707-0.6992188-1.199707c0.0996094,0,0.1992188,0.199707,0.0996094,0.2998047
	l-4.2001953,14.0996094C26.3272915,15.7998047,26.9269009,16,27.2276821,16H27.8272915z"/>
<path fill="#FFFFFF" d="M22.0274868,10L22.0274868,10C22.0274868,9.9003906,22.0274868,9.9003906,22.0274868,10
	c-0.2001953-0.0996094-0.5-0.0996094-0.7001953-0.2998047c-0.5-0.2998047-0.9003906-0.9003906-1.2001953-1.9003906
	c0-0.0996094-1.5996094-5.3999023-1.7001953-5.5996094C18.1270962,1.1000977,17.5274868,0.5,17.0274868,0.2998047
	C16.8272915,0.1000977,16.5274868,0,16.2271938,0h-0.3999033c0.1000977,0,1.2998056,0.1000977,1.9003916,2.1000977
	c0.5996094,2,1.2998047,4.5,1.5996094,5.3999023c0.5,1.9003906,1.2001953,2.5,2.2998047,2.5H22.0274868z"/>
<path fill="#FFFFFF" d="M16.4273891,0.7998047L16.4273891,0.7998047c-0.3999023,0.4003906-0.8002939,0.9003906-1.000001,1.800293
	c0,0.1000977-3.300293,11.199707-3.3999023,11.3999023c-0.300293,0.9003906-0.5,1.9003906-1.6000977,2h0.199707
	c0,0,0.1000977,0,0.2001953,0c1.1000977,0,1.6000977-0.5,2-2c0.2998047-1.0996094,3.2998056-11.2998047,3.3999033-11.3999023
	c0.1000977-0.3999023,0.300293-0.8999023,0.5-1.300293C16.7271938,1.1000977,16.6270962,0.8999023,16.4273891,0.7998047z"/>
<path fill="#FFFFFF" d="M16.0274868,0.5c-0.3002939-0.1000977-0.8002939-0.1000977-1.2001963,0.2998047
	c-0.3999023,0.300293-0.7998047,0.9003906-1,1.7001953c0,0.1000977-3.5,11.7001953-3.5,11.7001953
	c-0.2001953,0.5996094-0.3999023,1.0996094-0.7998047,1.5C9.3272905,15.9003906,9.0274858,16,8.8272905,16h0.5
	c0.5,0,0.7998047-0.0996094,1-0.2998047c0.3999023-0.2998047,0.6000977-0.9003906,0.7998047-1.5
	c0-0.1005859,3.4003906-11.6000977,3.5-11.7001953c0.2001953-0.7998047,0.6000977-1.3999023,1-1.7998047
	C15.8272905,0.7001953,15.9273882,0.6000977,16.0274868,0.5z"/>
<path fill="#FFFFFF" d="M7.9273887,15c-0.2001953-0.2001953-0.300293-0.5-0.3999023-0.7998047
	c-0.1000977-0.5-3.7001956-12.6000977-3.7001956-12.6000977c-0.2998047-1-0.7998047-1.5-1.6000977-1.5H1.6270956
	c0.7001952,0.1000977,1.1000975,0.6000977,1.4003905,1.5l3.6997073,12.6000977
	c0.2001953,0.7001953,0.5,1.0996094,0.7001953,1.3994141C7.6270957,15.5,7.827291,15.2998047,7.9273887,15z"/>
</svg>
