<?xml version="1.0" encoding="utf-8"?>
<!-- Generator: Adobe Illustrator 25.2.0, SVG Export Plug-In . SVG Version: 6.00 Build 0)  -->
<svg version="1.1" id="Layer_1" xmlns="http://www.w3.org/2000/svg" xmlns:xlink="http://www.w3.org/1999/xlink" x="0px" y="0px"
	 viewBox="0 0 24 24" enable-background="new 0 0 24 24" xml:space="preserve">
<g>
	<g>
		<path fill="#181C56" d="M19.3423271,18.0311203c-0.3535461,0-0.6891918-0.2049675-0.840456-0.5486679
			c-0.2031765-0.4636364,0.0080566-1.0042496,0.471693-1.2074261c1.5788727-0.6918755,2.4694519-2.4193277,2.1176949-4.1078453
			c-0.3526497-1.6880693-1.8599186-2.9147396-3.5837917-2.9165297H16.35285c-0.4179897,0-0.7831717-0.282836-0.8869982-0.6873999
			c-0.7008257-2.7142482-3.052577-4.6439824-5.851408-4.8015118c-2.8024101-0.1552918-5.3519683,1.4960806-6.353085,4.11411
			c-1.001564,2.6184773-0.2027295,5.553803,1.9870176,7.3036313c0.3956132,0.3159542,0.4600568,0.8923683,0.1441035,1.287981
			c-0.3177438,0.3956146-0.8941579,0.4591618-1.2879815,0.144104c-2.8162837-2.2501631-3.8429093-6.0237055-2.5553758-9.3904476
			c1.287086-3.3658464,4.563427-5.4938345,8.168252-5.2897625c3.3577909,0.1893038,6.2139053,2.3615971,7.3139248,5.4862266
			h0.4770641c2.5875969,0.0026851,4.8485012,1.8429136,5.3765812,4.3750181
			c0.5289764,2.5321045-0.8064423,5.1232824-3.1756477,6.1615438
			C19.5893612,18.0069542,19.4649487,18.0311203,19.3423271,18.0311203z"/>
	</g>
	<g>
		<path fill="#181C56" d="M8.3515244,16.5829239c-0.5061522,0-0.9210091-0.4099331-0.9210091-0.9165335
			c0-0.5065994,0.4059062-0.9165335,0.9120588-0.9165335h0.0089502c0.5061522,0,0.9165344,0.409934,0.9165344,0.9165335
			C9.2680588,16.1729908,8.8576765,16.5829239,8.3515244,16.5829239z"/>
	</g>
	<g>
		<path fill="#181C56" d="M8.3515244,20.2490616c-0.5061522,0-0.9210091-0.409935-0.9210091-0.9165344
			s0.4059062-0.9165344,0.9120588-0.9165344h0.0089502c0.5061522,0,0.9165344,0.409935,0.9165344,0.9165344
			S8.8576765,20.2490616,8.3515244,20.2490616z"/>
	</g>
	<g>
		<path fill="#181C56" d="M12.0181084,18.4159927c-0.5061522,0-0.9210091-0.4099331-0.9210091-0.9165344
			c0-0.5065994,0.4054585-0.9165344,0.9116116-0.9165344h0.0093975c0.5061522,0,0.9165344,0.409935,0.9165344,0.9165344
			C12.9346428,18.0060596,12.5242605,18.4159927,12.0181084,18.4159927z"/>
	</g>
	<g>
		<path fill="#181C56" d="M12.0181084,22.0821304c-0.5061522,0-0.9210091-0.409935-0.9210091-0.9165344
			c0-0.5066013,0.4054585-0.9165344,0.9116116-0.9165344h0.0093975c0.5061522,0,0.9165344,0.4099331,0.9165344,0.9165344
			C12.9346428,21.6721954,12.5242605,22.0821304,12.0181084,22.0821304z"/>
	</g>
	<g>
		<path fill="#181C56" d="M15.6842451,16.5829239c-0.5065994,0-0.9210091-0.4099331-0.9210091-0.9165335
			c0-0.5065994,0.4054585-0.9165335,0.9120588-0.9165335h0.0089502c0.5066004,0,0.9165335,0.409934,0.9165335,0.9165335
			C16.6007786,16.1729908,16.1908455,16.5829239,15.6842451,16.5829239z"/>
	</g>
	<g>
		<path fill="#181C56" d="M15.6842451,20.2490616c-0.5065994,0-0.9210091-0.409935-0.9210091-0.9165344
			s0.4054585-0.9165344,0.9120588-0.9165344h0.0089502c0.5066004,0,0.9165335,0.409935,0.9165335,0.9165344
			S16.1908455,20.2490616,15.6842451,20.2490616z"/>
	</g>
</g>
</svg>
