<?xml version="1.0" encoding="utf-8"?>
<!-- Generator: Adobe Illustrator 25.2.0, SVG Export Plug-In . SVG Version: 6.00 Build 0)  -->
<svg version="1.1" id="Layer_1" xmlns="http://www.w3.org/2000/svg" xmlns:xlink="http://www.w3.org/1999/xlink" x="0px" y="0px"
	 viewBox="0 0 24 24" enable-background="new 0 0 24 24" xml:space="preserve">
<g>
	<g>
		<path fill="#181C56" d="M9.2475109,20.2474804c-4.2494345,0-7.8589478-3.3150616-8.2182884-7.5506239
			C0.6694346,8.4599514,3.6712468,4.5819397,7.8629546,3.8681815c3.9522967-0.6739311,7.8401532,1.6593201,9.1611652,5.3816032
			h0.4770317c3.0322418,0,5.498848,2.4666052,5.498848,5.498848s-2.4666061,5.498848-5.498848,5.498848H9.2533293
			C9.2515392,20.2474804,9.249301,20.2474804,9.2475109,20.2474804z M9.232296,5.5852289
			c-0.351285,0-0.7057028,0.0295348-1.0614634,0.0899467c-3.2604656,0.5548968-5.5950594,3.5710287-5.3149261,6.866847
			c0.2792382,3.2940283,3.0868366,5.8725071,6.3924999,5.8725071c0.0013428,0,0.0026846,0,0.0044746,0h8.248271
			c2.0217934,0,3.6658993-1.644104,3.6658993-3.6658974c0-2.0213461-1.6441059-3.6658983-3.6658993-3.6658983h-1.1545429
			c-0.4179621,0-0.7831202-0.2828188-0.8878345-0.687356C14.7230892,7.5421348,12.101202,5.5852289,9.232296,5.5852289z"/>
	</g>
</g>
</svg>
