<?xml version="1.0" encoding="utf-8"?>
<!-- Generator: Adobe Illustrator 25.2.0, SVG Export Plug-In . SVG Version: 6.00 Build 0)  -->
<svg version="1.1" id="Layer_1" xmlns="http://www.w3.org/2000/svg" xmlns:xlink="http://www.w3.org/1999/xlink" x="0px" y="0px"
	 viewBox="0 0 24 24" enable-background="new 0 0 24 24" xml:space="preserve">
<g>
	<g>
		<path fill="#181C56" d="M8.3425741,21.1656494c-0.5061526,0-0.9165344-0.4099331-0.9165344-0.9165344V18.416048
			c0-0.5066013,0.4103818-0.9165344,0.9165344-0.9165344s0.9165344,0.4099331,0.9165344,0.9165344v1.8330669
			C9.2591085,20.7557163,8.8487263,21.1656494,8.3425741,21.1656494z"/>
	</g>
	<g>
		<path fill="#181C56" d="M8.3425741,15.6664448c-0.5061526,0-0.9165344-0.409934-0.9165344-0.9165344v-1.8330679
			c0-0.5061522,0.4103818-0.9165344,0.9165344-0.9165344s0.9165344,0.4103823,0.9165344,0.9165344v1.8330679
			C9.2591085,15.2565107,8.8487263,15.6664448,8.3425741,15.6664448z"/>
	</g>
	<g>
		<path fill="#181C56" d="M15.6743994,21.1656494c-0.5065994,0-0.9165335-0.4099331-0.9165335-0.9165344V18.416048
			c0-0.5066013,0.409934-0.9165344,0.9165335-0.9165344c0.5066004,0,0.9165335,0.4099331,0.9165335,0.9165344v1.8330669
			C16.5909328,20.7557163,16.1809998,21.1656494,15.6743994,21.1656494z"/>
	</g>
	<g>
		<path fill="#181C56" d="M15.6743994,15.6664448c-0.5065994,0-0.9165335-0.409934-0.9165335-0.9165344v-1.8330679
			c0-0.5061522,0.409934-0.9165344,0.9165335-0.9165344c0.5066004,0,0.9165335,0.4103823,0.9165335,0.9165344v1.8330679
			C16.5909328,15.2565107,16.1809998,15.6664448,15.6743994,15.6664448z"/>
	</g>
	<g>
		<path fill="#181C56" d="M12.0087109,22.9987183c-0.5061531,0-0.9165344-0.409935-0.9165344-0.9165344V20.249115
			c0-0.5065994,0.4103813-0.9165325,0.9165344-0.9165325c0.5061522,0,0.9160862,0.4099331,0.9160862,0.9165325v1.8330688
			C12.9247971,22.5887833,12.514863,22.9987183,12.0087109,22.9987183z"/>
	</g>
	<g>
		<path fill="#181C56" d="M12.0087109,17.4995136c-0.5061531,0-0.9165344-0.409935-0.9165344-0.9165344v-1.8330688
			c0-0.5065994,0.4103813-0.9165335,0.9165344-0.9165335c0.5061522,0,0.9160862,0.409934,0.9160862,0.9165335v1.8330688
			C12.9247971,17.0895786,12.514863,17.4995136,12.0087109,17.4995136z"/>
	</g>
	<g>
		<path fill="#181C56" d="M19.3423271,17.1146412c-0.3535461,0-0.6891918-0.2049675-0.840456-0.5486679
			c-0.2031765-0.4636383,0.0080566-1.0042496,0.471693-1.2074261c1.5788727-0.6918764,2.4694519-2.4193287,2.1176949-4.1078453
			c-0.3526497-1.6880703-1.8599186-2.9147396-3.5837917-2.9165297H16.35285c-0.4179897,0-0.7831717-0.2828369-0.8869982-0.6874008
			c-0.7008257-2.7142482-3.052577-4.6439819-5.851408-4.8015113c-2.8024101-0.1566343-5.3519683,1.4956331-6.353085,4.1141105
			c-1.001564,2.6184769-0.2027295,5.5538034,1.9870176,7.3036318c0.3956132,0.3159533,0.4600568,0.8923674,0.1441035,1.287981
			c-0.3177438,0.3956127-0.8941579,0.4600563-1.2879815,0.1441031C1.2882147,13.4449234,0.2615891,9.671381,1.5491226,6.3046393
			c1.287086-3.3658462,4.563427-5.4947295,8.168252-5.2897625c3.3577909,0.1893036,6.2139053,2.3615971,7.3139248,5.4862266
			h0.4770641c2.5875969,0.0026851,4.8485012,1.8429136,5.3765812,4.3750181
			c0.5289764,2.5321054-0.8064423,5.1232834-3.1756477,6.1615448
			C19.5893612,17.0904732,19.4649487,17.1146412,19.3423271,17.1146412z"/>
	</g>
</g>
</svg>
