<?xml version="1.0" encoding="utf-8"?>
<!-- Generator: Adobe Illustrator 25.2.0, SVG Export Plug-In . SVG Version: 6.00 Build 0)  -->
<svg version="1.1" id="Layer_1" xmlns="http://www.w3.org/2000/svg" xmlns:xlink="http://www.w3.org/1999/xlink" x="0px" y="0px"
	 viewBox="0 0 24 24" enable-background="new 0 0 24 24" xml:space="preserve">
<g>
	<g>
		<path fill="#181C56" d="M18.4130554,17.4053745c-0.426775,0-0.8088169-0.2997265-0.8973923-0.7336597
			c-0.1002064-0.496563,0.2200985-0.9797039,0.7157669-1.0808058c1.8529377-0.3757772,3.1064243-2.0784063,2.9167461-3.9595289
			c-0.1896782-1.8797798-1.7563114-3.2961016-3.6450386-3.2961016c-0.0017891,0-0.0026836,0-0.0044727,0H16.342701
			c-0.4178276,0-0.7828684-0.2827282-0.8866539-0.6871357c-0.7318707-2.8317494-3.2849188-4.8095002-6.2092705-4.8095002
			c-2.9247985,0-5.4782939,1.9777508-6.2097173,4.8095002c-0.7314234,2.8313017,0.5448768,5.798152,3.1037402,7.2144737
			c0.4424329,0.2451496,0.6030331,0.8025532,0.357883,1.2454329c-0.2451496,0.4437752-0.8016577,0.6039276-1.2454329,0.3578835
			c-3.2898393-1.8207302-4.9307327-5.6353159-3.9903953-9.2758808C2.203192,3.5490403,5.486321,1.0062816,9.2467766,1.0062816
			c3.5188847,0,6.6190462,2.226927,7.7732182,5.4966354h0.4777737c0.001791,0,0.0044746,0,0.0062637,0
			c2.8326435,0,5.1830406,2.1244831,5.4675579,4.9441538c0.2845173,2.8223543-1.596159,5.3758488-4.3751202,5.9404106
			C18.5347347,17.3991127,18.4729996,17.4053745,18.4130554,17.4053745z"/>
	</g>
	<g>
		<path fill="#181C56" d="M11.0831642,22.9937191c-0.174468,0-0.3511734-0.0501041-0.5072994-0.1538906
			c-0.4209604-0.2809372-0.5345879-0.8499718-0.254097-1.2704849l2.7158842-4.0727081H9.2516975
			c-0.3377523,0-0.6482153-0.1861-0.8079205-0.4840374c-0.1592579-0.2979374-0.1418114-0.659399,0.0456295-0.9403362
			l3.6651697-5.4966364c0.2804909-0.4214067,0.8472881-0.536377,1.270484-0.254097
			c0.4214077,0.2809381,0.5350351,0.8495255,0.254097,1.2704849l-2.7154369,4.0722609h3.7855072
			c0.3381996,0,0.6486635,0.1860991,0.8079214,0.4840374c0.1592579,0.2979374,0.1413631,0.659399-0.0456305,0.9403381
			l-3.6651688,5.4970818C11.6696444,22.850565,11.3793116,22.9937191,11.0831642,22.9937191z"/>
	</g>
</g>
</svg>
