<?xml version="1.0" encoding="utf-8"?>
<!-- Generator: Adobe Illustrator 25.2.0, SVG Export Plug-In . SVG Version: 6.00 Build 0)  -->
<svg version="1.1" id="Layer_1" xmlns="http://www.w3.org/2000/svg" xmlns:xlink="http://www.w3.org/1999/xlink" x="0px" y="0px"
	 viewBox="0 0 24 24" enable-background="new 0 0 24 24" xml:space="preserve">
<g>
	<g>
		<path fill="#181C56" d="M12,17.5c-3.0328779,0-5.5-2.4671221-5.5-5.5S8.9671221,6.5,12,6.5s5.5,2.4671221,5.5,5.5
			S15.0328779,17.5,12,17.5z M12,8.333333c-2.0217695,0-3.666667,1.6448975-3.666667,3.666667
			c0,2.0222168,1.6448975,3.666667,3.666667,3.666667c2.0222168,0,3.666667-1.6444502,3.666667-3.666667
			C15.666667,9.9782305,14.0222168,8.333333,12,8.333333z"/>
	</g>
	<g>
		<path fill="#181C56" d="M12,4.6666665c-0.5062256,0-0.916667-0.4104409-0.916667-0.9166665V1.9166666
			C11.083333,1.410441,11.4937744,1,12,1s0.916667,0.410441,0.916667,0.9166666V3.75
			C12.916667,4.2562256,12.5062256,4.6666665,12,4.6666665z"/>
	</g>
	<g>
		<path fill="#181C56" d="M12,23c-0.5062256,0-0.916667-0.4099941-0.916667-0.916666V20.25
			c0-0.5066738,0.4104414-0.916666,0.916667-0.916666s0.916667,0.4099922,0.916667,0.916666v1.833334
			C12.916667,22.5900059,12.5062256,23,12,23z"/>
	</g>
	<g>
		<path fill="#181C56" d="M6.1701255,7.086792c-0.2345381,0-0.4690757-0.0895181-0.6481123-0.2685547L4.2199707,5.5161948
			c-0.358073-0.3580732-0.358073-0.9381514,0-1.2962241s0.9381509-0.358073,1.2962241,0l1.3020425,1.3020425
			c0.3580728,0.3580732,0.3580728,0.9381514,0,1.2962241C6.6392007,6.9972739,6.4046631,7.086792,6.1701255,7.086792z"/>
	</g>
	<g>
		<path fill="#181C56" d="M19.131918,20.048584c-0.234539,0-0.4690762-0.0895176-0.6481133-0.2685547l-1.3015938-1.3015957
			c-0.3580742-0.3580723-0.3580742-0.9381504,0-1.2962227c0.3580723-0.3580742,0.9381504-0.3580742,1.2962227,0l1.3015957,1.3015938
			c0.3580723,0.3580742,0.3580723,0.9381523,0,1.2962246C19.6009922,19.9590664,19.3664551,20.048584,19.131918,20.048584z"/>
	</g>
	<g>
		<path fill="#181C56" d="M3.75,12.916667H1.9166666C1.410441,12.916667,1,12.5062256,1,12s0.410441-0.916667,0.9166666-0.916667
			H3.75c0.5062256,0,0.9166665,0.4104414,0.9166665,0.916667S4.2562256,12.916667,3.75,12.916667z"/>
	</g>
	<g>
		<path fill="#181C56" d="M22.083334,12.916667H20.25c-0.5066738,0-0.916666-0.4104414-0.916666-0.916667
			s0.4099922-0.916667,0.916666-0.916667h1.833334C22.5900059,11.083333,23,11.4937744,23,12
			S22.5900059,12.916667,22.083334,12.916667z"/>
	</g>
	<g>
		<path fill="#181C56" d="M4.8680825,20.048584c-0.2345376,0-0.4690752-0.0895176-0.6481118-0.2685547
			c-0.358073-0.3580723-0.358073-0.9381504,0-1.2962246l1.3020425-1.3015938c0.3580732-0.3580742,0.9381514-0.3580742,1.2962241,0
			c0.3580728,0.3580723,0.3580728,0.9381504,0,1.2962227l-1.3020425,1.3015957
			C5.3371582,19.9590664,5.1026206,20.048584,4.8680825,20.048584z"/>
	</g>
	<g>
		<path fill="#181C56" d="M17.8303223,7.086792c-0.2345371,0-0.4690762-0.0895181-0.6481113-0.2685547
			c-0.3580742-0.3576255-0.3580742-0.9381509,0-1.2962241l1.3015938-1.3020425c0.3580742-0.358073,0.9381523-0.358073,1.2962246,0
			c0.3580723,0.3576255,0.3580723,0.9381509,0,1.2962241l-1.3015957,1.3020425
			C18.2993984,6.9972739,18.0648594,7.086792,17.8303223,7.086792z"/>
	</g>
</g>
</svg>
