<?xml version="1.0" encoding="utf-8"?>
<!-- Generator: Adobe Illustrator 25.2.0, SVG Export Plug-In . SVG Version: 6.00 Build 0)  -->
<svg version="1.1" id="Layer_1" xmlns="http://www.w3.org/2000/svg" xmlns:xlink="http://www.w3.org/1999/xlink" x="0px" y="0px"
	 viewBox="0 0 24 24" enable-background="new 0 0 24 24" xml:space="preserve">
<g>
	<path fill="#181C56" d="M8.7647057,5.5294118c0.357336,0,0.6470594-0.2897229,0.6470594-0.647059V3.5882354
		c0-0.3573358-0.2897234-0.647059-0.6470594-0.647059c-0.3573351,0-0.6470585,0.2897232-0.6470585,0.647059v1.2941175
		C8.1176472,5.2396889,8.4073706,5.5294118,8.7647057,5.5294118z"/>
	<path fill="#181C56" d="M4.1920094,7.0481677c0.1263785,0.1263785,0.2919345,0.189568,0.4574909,0.189568
		c0.165556,0,0.3311119-0.0631895,0.4574904-0.189568c0.2527575-0.2527575,0.2527575-0.6622243,0-0.9149818L4.187902,5.214097
		c-0.2527573-0.2527575-0.6622241-0.2527575-0.9149814,0c-0.2527575,0.2527571-0.2527575,0.6622243,0,0.9149814L4.1920094,7.0481677
		z"/>
	<path fill="#181C56" d="M3.5882354,10.7058821c0-0.3573351-0.2897232-0.6470585-0.647059-0.6470585H1.6470588
		C1.2897232,10.0588236,1,10.348547,1,10.7058821c0,0.357336,0.2897232,0.6470594,0.6470588,0.6470594h1.2941176
		C3.2985122,11.3529415,3.5882354,11.0632181,3.5882354,10.7058821z"/>
	<path fill="#181C56" d="M4.1920094,14.3639135l-0.9190888,0.9187727c-0.2527575,0.2527571-0.2527575,0.6622238,0,0.9149818
		c0.1263785,0.126379,0.2919347,0.1895676,0.4574907,0.1895676c0.1655562,0,0.3311121-0.0631886,0.4574907-0.1895676
		l0.9190888-0.9187737c0.2527575-0.2527571,0.2527575-0.6622238,0-0.9149809
		C4.8542337,14.1111555,4.444767,14.1111555,4.1920094,14.3639135z"/>
	<path fill="#181C56" d="M12.8802271,7.2377357c0.1655569,0,0.3311129-0.0631895,0.4574909-0.189568l0.9187737-0.9190893
		c0.2527571-0.2527571,0.2527571-0.66254,0-0.9149814c-0.252758-0.2527575-0.6622248-0.2527575-0.9149818,0l-0.9187727,0.9190888
		c-0.252758,0.2527575-0.252758,0.6625404,0,0.9149818C12.5491152,7.1745462,12.7146711,7.2377357,12.8802271,7.2377357z"/>
	<path fill="#181C56" d="M19.1176472,13.2941179h-0.3367996c-0.8829517-2.4876852-3.3920822-4.0941954-6.0235624-3.8547077
		c-0.8465796-1.4763007-2.4955845-2.2854795-4.1881504-2.0158982C6.802361,7.7059684,5.4365234,9.0891829,5.1711283,10.8648033
		c-0.2653952,1.7740412,0.6334729,3.5010052,2.2365866,4.2984552c0.0195098,0.0097151,0.0400066,0.0139799,0.0599904,0.0215635
		c-0.0018167,0.1798916,0.0041862,0.3610868,0.019628,0.5433493c0.2540212,2.990119,2.802763,5.3306513,5.8029928,5.3306513
		c0.0012636,0,0.0025282,0,0.0037918,0h5.8235292C21.2585011,21.0588226,23,19.3173256,23,17.1764698
		S21.2585011,13.2941179,19.1176472,13.2941179z M6.4507122,11.0562668
		c0.1819854-1.2154465,1.1152921-2.1617069,2.3231564-2.3550663c1.0133591-0.1622782,2.0079594,0.2463989,2.6295843,1.0316849
		c-1.86061,0.6431484-3.2634134,2.200489-3.7477198,4.074172C6.7670541,13.2036781,6.287921,12.1445847,6.4507122,11.0562668z
		 M19.1176472,19.7647057h-5.8241615c-0.0012636,0-0.0018959,0-0.0031595,0c-2.3332663,0-4.3158312-1.8204842-4.513298-4.1464844
		c-0.1974669-2.3266315,1.4508266-4.4561119,3.7524986-4.8478861c0.2508612-0.0426521,0.501091-0.0635052,0.7494259-0.0635052
		c2.025218,0,3.8766661,1.3816347,4.3973455,3.3961115c0.0732994,0.2856159,0.3311119,0.4852934,0.6262074,0.4852934h0.8151417
		c1.4274464,0,2.5882359,1.1607885,2.5882359,2.5882349C21.705883,18.6039181,20.5450935,19.7647057,19.1176472,19.7647057z"/>
</g>
</svg>
