<?xml version="1.0" encoding="utf-8"?>
<!-- Generator: Adobe Illustrator 25.2.0, SVG Export Plug-In . SVG Version: 6.00 Build 0)  -->
<svg version="1.1" id="Layer_1" xmlns="http://www.w3.org/2000/svg" xmlns:xlink="http://www.w3.org/1999/xlink" x="0px" y="0px"
	 viewBox="0 0 24 24" enable-background="new 0 0 24 24" xml:space="preserve">
<g>
	<path fill="#181C56" d="M8.7670794,3.5882354c0.357336,0,0.6470594-0.2897232,0.6470594-0.647059V1.6470588
		C9.4141388,1.2897232,9.1244154,1,8.7670794,1C8.4097443,1,8.1200209,1.2897232,8.1200209,1.6470588v1.2941176
		C8.1200209,3.2985122,8.4097443,3.5882354,8.7670794,3.5882354z"/>
	<path fill="#181C56" d="M4.1943831,5.1069908c0.1263785,0.126379,0.291935,0.189568,0.4574909,0.189568
		s0.3311119-0.063189,0.4574909-0.189568c0.2527571-0.2527571,0.2527571-0.6622238,0-0.9149814L4.1902761,3.2729206
		c-0.2527575-0.2527575-0.6622245-0.2527575-0.9149818,0s-0.2527573,0.6622241,0,0.9149814L4.1943831,5.1069908z"/>
	<path fill="#181C56" d="M3.5906091,8.7647057c0-0.3573351-0.2897232-0.6470585-0.6470587-0.6470585H1.6494327
		c-0.3573357,0-0.6470588,0.2897234-0.6470588,0.6470585c0,0.357336,0.2897232,0.6470594,0.6470588,0.6470594h1.2941177
		C3.3008859,9.4117651,3.5906091,9.1220417,3.5906091,8.7647057z"/>
	<path fill="#181C56" d="M4.1943831,12.4227371l-0.9190888,0.9187727c-0.2527573,0.2527571-0.2527573,0.6622238,0,0.9149818
		c0.1263788,0.1263781,0.2919347,0.1895676,0.4574909,0.1895676c0.165556,0,0.3311119-0.0631895,0.4574909-0.1895676
		L5.109365,13.337718c0.2527571-0.2527571,0.2527571-0.6622238,0-0.9149809
		C4.8566074,12.1699791,4.4471407,12.1699791,4.1943831,12.4227371z"/>
	<path fill="#181C56" d="M12.8826017,5.2965589c0.165556,0,0.3311119-0.063189,0.45749-0.189568l0.9187737-0.9190888
		c0.2527571-0.2527573,0.2527571-0.66254,0-0.9149814c-0.252758-0.2527575-0.6622248-0.2527575-0.9149818,0l-0.9187727,0.9190888
		c-0.252758,0.2527575-0.252758,0.66254,0,0.9149814C12.5514889,5.2333698,12.7170448,5.2965589,12.8826017,5.2965589z"/>
	<path fill="#181C56" d="M22.9164371,14.4422684c-0.372818-1.7876272-1.9696121-3.0871153-3.7964172-3.0893269h-0.3361664
		c-0.7772293-2.2062559-2.793601-3.7395453-5.1632004-3.8728747c-0.2906713-0.0163898-0.5781431-0.0086493-0.8616266,0.0171399
		c-0.8468161-1.4759054-2.495347-2.2837811-4.1875181-2.0148711C6.8047347,5.764792,5.4388971,7.1480064,5.173502,8.9236269
		c-0.2653952,1.7740412,0.6334734,3.5016375,2.2365866,4.2984552c0.0196676,0.0097942,0.0402832,0.0140991,0.0603852,0.0216818
		C7.4525046,14.9955301,8.224678,16.6990356,9.6574173,17.84375c0.2780333,0.2224274,0.6862364,0.1775627,0.9092951-0.1017342
		c0.2230577-0.2792969,0.1775618-0.6862373-0.1017351-0.909296c-1.5462427-1.2353506-2.1098919-3.3073292-1.4028034-5.156249
		c0.7067728-1.8479719,2.5007181-3.0185547,4.4858112-2.9041824c1.9752989,0.110898,3.6352825,1.4732599,4.1306877,3.3894768
		c0.0732994,0.285615,0.3311119,0.4852934,0.6262054,0.4852934h0.8145103c1.217659,0.0012646,2.2817669,0.86759,2.5307331,2.0593405
		c0.2483349,1.1917515-0.3803997,2.4113054-1.4956913,2.8997583c-0.3273201,0.1434402-0.4764481,0.5251045-0.3330078,0.8524246
		c0.1061573,0.2426472,0.34375,0.3873501,0.5933475,0.3873501c0.0865688,0,0.1744022-0.0170593,0.2590771-0.0543423
		C22.346468,18.0585938,23.2898846,16.2298946,22.9164371,14.4422684z M7.8533621,11.214241
		c-0.0817909,0.2138958-0.1457305,0.4305563-0.2013373,0.6481247c-0.8851247-0.6038132-1.3613749-1.6610498-1.1989388-2.7472754
		C6.6350713,7.8996439,7.568378,6.9533834,8.7762423,6.7600241c1.0110292-0.1619225,2.0032597,0.2447009,2.6251612,1.026432
		C9.8051624,8.3333988,8.4856901,9.5607338,7.8533621,11.214241z"/>
	<path fill="#181C56" d="M12.6494322,19.1176472c-0.3576508,0-0.6470585,0.2894077-0.6470585,0.6470585v1.294117
		c0,0.3576527,0.2894077,0.6470604,0.6470585,0.6470604c0.3576517,0,0.6470594-0.2894077,0.6470594-0.6470604v-1.294117
		C13.2964916,19.4070549,13.0070839,19.1176472,12.6494322,19.1176472z"/>
	<path fill="#181C56" d="M12.6494322,15.2352943c-0.3576508,0-0.6470585,0.2894068-0.6470585,0.6470585v1.294117
		c0,0.3576527,0.2894077,0.6470604,0.6470585,0.6470604c0.3576517,0,0.6470594-0.2894077,0.6470594-0.6470604v-1.294117
		C13.2964916,15.5247011,13.0070839,15.2352943,12.6494322,15.2352943z"/>
	<path fill="#181C56" d="M17.8259029,19.1176472c-0.3576508,0-0.6470585,0.2894077-0.6470585,0.6470585v1.294117
		c0,0.3576527,0.2894077,0.6470604,0.6470585,0.6470604c0.3576527,0,0.6470585-0.2894077,0.6470585-0.6470604v-1.294117
		C18.4729614,19.4070549,18.1835556,19.1176472,17.8259029,19.1176472z"/>
	<path fill="#181C56" d="M17.8259029,15.2352943c-0.3576508,0-0.6470585,0.2894068-0.6470585,0.6470585v1.294117
		c0,0.3576527,0.2894077,0.6470604,0.6470585,0.6470604c0.3576527,0,0.6470585-0.2894077,0.6470585-0.6470604v-1.294117
		C18.4729614,15.5247011,18.1835556,15.2352943,17.8259029,15.2352943z"/>
	<path fill="#181C56" d="M15.237668,20.4117641c-0.3576517,0-0.6470585,0.2894077-0.6470585,0.6470585v1.2941189
		C14.5906096,22.7105923,14.8800163,23,15.237668,23s0.6470585-0.2894077,0.6470585-0.6470585v-1.2941189
		C15.8847265,20.7011719,15.5953197,20.4117641,15.237668,20.4117641z"/>
	<path fill="#181C56" d="M15.237668,16.5294113c-0.3576517,0-0.6470585,0.2894077-0.6470585,0.6470585v1.2941189
		c0,0.3576508,0.2894068,0.6470585,0.6470585,0.6470585s0.6470585-0.2894077,0.6470585-0.6470585v-1.2941189
		C15.8847265,16.818819,15.5953197,16.5294113,15.237668,16.5294113z"/>
</g>
</svg>
