<?xml version="1.0" encoding="UTF-8"?>
<svg id="Layer_1" xmlns="http://www.w3.org/2000/svg" width="16" height="16" viewBox="0 0 16 16">
  <polygon points="0 0 0 7.98 0 16 8 16 16 16 16 8 16 0 8 0 0 0 0 0" fill="#fff"/>
  <path d="m13.15,3.93l.51-1.39h2.34V0H0v16h16v-2.53h-2.21l-.82-.95-.85.95h-6.27v-5.08h-2.07l2.59-5.86h2.52l.61,1.33v-1.33h3.13l.52,1.39h0Zm-1.77.92v-.56s.21.56.21.56l1.04,2.78h1.03l1.05-2.78.2-.55v3.33h1.09V3.36h-1.81l-.82,2.17-.22.59-.22-.59-.83-2.17h-1.81v4.27h1.09v-2.78h0Zm-2.34,2.78h1.25l-1.88-4.27h-1.46l-1.89,4.27h1.24l.33-.82h2.07l.33.82h0Zm-1.58-2.82l.21-.53.21.53.44,1.08h-1.31l.44-1.08h0Zm-.73,3.59v4.25h3.56v-.92h-2.47v-.74h2.43v-.92h-2.43v-.75h2.47v-.92h-3.56Zm7.53,4.25h1.41l-1.99-2.13,1.99-2.12h-1.39l-1.29,1.38-1.28-1.38h-1.42l1.99,2.13-1.99,2.12h1.38l1.3-1.39,1.29,1.39h0Zm.54-2.14l1.21,1.23v-2.44l-1.21,1.21h0Z" fill="#006fcf"/>
</svg>