<?xml version="1.0" encoding="utf-8"?>
<svg xmlns="http://www.w3.org/2000/svg" width="14" height="10" viewBox="0 0 14 10" fill="none">
    <path
        d="M12.7497 0.5H1.2541C1.20623 0.5 1.15826 0.5 1.11047 0.500279C1.07007 0.500567 1.02977 0.501015 0.989462 0.502115C0.901558 0.504492 0.812901 0.509679 0.726097 0.52528C0.637906 0.541152 0.55584 0.56704 0.475779 0.607803C0.397071 0.647829 0.325014 0.700182 0.262568 0.762654C0.200096 0.825126 0.147742 0.897065 0.107725 0.975857C0.0669538 1.05592 0.041048 1.13801 0.0252862 1.22627C0.0096014 1.3131 0.00438047 1.40174 0.00201155 1.48955C0.000928617 1.52985 0.000464139 1.57016 0.00020102 1.61046C-7.81744e-05 1.65835 1.48904e-05 1.70621 1.48904e-05 1.75419V8.21101C1.48904e-05 8.25898 -7.81744e-05 8.30676 0.00020102 8.35475C0.000464139 8.39505 0.000928617 8.43535 0.00201155 8.47566C0.00438047 8.56339 0.0096014 8.65203 0.0252862 8.73883C0.041048 8.82713 0.0669538 8.90919 0.107725 8.98925C0.147742 9.06805 0.200096 9.14008 0.262568 9.20246C0.325014 9.26503 0.397071 9.31738 0.475779 9.3573C0.55584 9.39817 0.637906 9.42407 0.726097 9.43993C0.812901 9.45543 0.901558 9.46071 0.989462 9.46309C1.02977 9.464 1.07007 9.46455 1.11047 9.46473C1.15826 9.4651 1.20623 9.4651 1.2541 9.4651H12.7497C12.7975 9.4651 12.8455 9.4651 12.8932 9.46473C12.9335 9.46455 12.9739 9.464 13.0143 9.46309C13.1021 9.46071 13.1907 9.45543 13.2777 9.43993C13.3658 9.42407 13.4479 9.39817 13.5279 9.3573C13.6067 9.31738 13.6786 9.26503 13.7412 9.20246C13.8035 9.14008 13.8559 9.06805 13.896 8.98925C13.9369 8.90919 13.9627 8.82713 13.9784 8.73883C13.9941 8.65203 13.9992 8.56339 14.0016 8.47566C14.0027 8.43535 14.0032 8.39505 14.0034 8.35475C14.0038 8.30676 14.0038 8.25899 14.0038 8.21101V1.75419C14.0038 1.70621 14.0038 1.65835 14.0034 1.61046C14.0032 1.57016 14.0027 1.52985 14.0016 1.48955C13.9992 1.40174 13.9941 1.3131 13.9784 1.22627C13.9627 1.13801 13.9369 1.05592 13.896 0.975857C13.8559 0.897065 13.8035 0.825126 13.7412 0.762654C13.6786 0.700182 13.6067 0.647829 13.5279 0.607803C13.4479 0.56704 13.3658 0.541152 13.2777 0.52528C13.1907 0.509679 13.1021 0.504492 13.0143 0.502115C12.9739 0.501015 12.9335 0.500567 12.8932 0.500279C12.8455 0.5 12.7975 0.5 12.7497 0.5Z"
        fill="black" />
    <path
        d="M12.7497 0.798828L12.8911 0.799099C12.9294 0.79937 12.9677 0.799784 13.0063 0.800833C13.0733 0.802644 13.1517 0.806273 13.2247 0.81937C13.2882 0.830809 13.3415 0.848203 13.3926 0.874227C13.4431 0.899871 13.4893 0.933476 13.5297 0.97379C13.5702 1.01437 13.6039 1.06069 13.6298 1.11171C13.6557 1.16243 13.673 1.21545 13.6844 1.27942C13.6974 1.35169 13.7011 1.43029 13.7029 1.49771C13.7039 1.53577 13.7044 1.57382 13.7046 1.61278C13.705 1.6599 13.705 1.70699 13.705 1.7542V8.21101C13.705 8.25822 13.705 8.30523 13.7046 8.35335C13.7044 8.3914 13.7039 8.42945 13.7029 8.46757C13.7011 8.53489 13.6974 8.61345 13.6842 8.68657C13.673 8.74967 13.6557 8.80269 13.6297 8.85367C13.6038 8.90456 13.5702 8.95082 13.5299 8.99116C13.4893 9.03177 13.4432 9.06527 13.3921 9.09115C13.3414 9.11705 13.2882 9.13443 13.2253 9.14574C13.1508 9.15903 13.0691 9.16268 13.0076 9.16435C12.9689 9.16522 12.9304 9.16574 12.8909 9.16593C12.8439 9.1663 12.7967 9.16629 12.7497 9.16629H1.2541C1.25348 9.16629 1.25287 9.16629 1.25223 9.16629C1.20575 9.16629 1.15918 9.16629 1.11185 9.16592C1.07326 9.16574 1.03476 9.16523 0.997533 9.16438C0.934621 9.16268 0.852902 9.15904 0.778966 9.14583C0.715539 9.13442 0.662364 9.11705 0.610959 9.09081C0.560375 9.06516 0.514324 9.03169 0.473705 8.991C0.4334 8.95077 0.399905 8.90465 0.374008 8.85367C0.348085 8.80275 0.330741 8.74957 0.319337 8.68572C0.306155 8.61274 0.302534 8.5345 0.300724 8.46763C0.299691 8.42935 0.29926 8.39107 0.299014 8.35302L0.298828 8.24067L0.298837 8.21101V1.7542L0.298828 1.72453L0.299006 1.61243C0.29926 1.57414 0.299691 1.53587 0.300724 1.49762C0.302534 1.43069 0.306155 1.35241 0.319446 1.27882C0.330749 1.21555 0.348085 1.16236 0.374143 1.11119C0.399837 1.0606 0.433391 1.01443 0.473909 0.973917C0.514265 0.933544 0.560467 0.899981 0.611373 0.874092C0.662229 0.848195 0.715504 0.830809 0.778932 0.819395C0.852013 0.806265 0.93045 0.802644 0.997626 0.800825C1.03592 0.799784 1.07421 0.79937 1.11221 0.799107L1.2541 0.798828H12.7497Z"
        fill="white" />
    <path
        d="M3.82289 3.51532C3.9428 3.36534 4.02416 3.16397 4.0027 2.95819C3.82718 2.96692 3.61299 3.07399 3.48898 3.22408C3.37763 3.35261 3.27908 3.56242 3.30478 3.75957C3.50181 3.77666 3.69866 3.66108 3.82289 3.51532Z"
        fill="black" />
    <path
        d="M4.00046 3.79808C3.71432 3.78103 3.47103 3.96048 3.33438 3.96048C3.19766 3.96048 2.98841 3.80667 2.76208 3.81081C2.46751 3.81514 2.19418 3.98169 2.0447 4.24659C1.73724 4.77652 1.96356 5.56259 2.26255 5.99418C2.40775 6.20771 2.58273 6.44281 2.8133 6.43437C3.03115 6.42582 3.11654 6.29331 3.38135 6.29331C3.64596 6.29331 3.72288 6.43437 3.95349 6.43009C4.19264 6.42582 4.34214 6.21646 4.48734 6.00273C4.65391 5.75932 4.72209 5.5243 4.72638 5.51139C4.72209 5.50712 4.26524 5.33186 4.261 4.80634C4.25669 4.36631 4.61968 4.15701 4.63677 4.14403C4.43178 3.84085 4.1115 3.80667 4.00046 3.79808Z"
        fill="black" />
    <path
        d="M6.49197 3.20258C7.11389 3.20258 7.54696 3.63127 7.54696 4.25542C7.54696 4.8818 7.10498 5.31273 6.47638 5.31273H5.78779V6.40778H5.29028V3.20258L6.49197 3.20258ZM5.78779 4.89513H6.35864C6.79179 4.89513 7.03832 4.66193 7.03832 4.25765C7.03832 3.85342 6.79179 3.6224 6.36087 3.6224H5.78779V4.89513Z"
        fill="black" />
    <path
        d="M7.677 5.74366C7.677 5.33492 7.99019 5.08395 8.54554 5.05284L9.1852 5.0151V4.83519C9.1852 4.5753 9.00971 4.41982 8.71657 4.41982C8.43885 4.41982 8.26559 4.55307 8.22343 4.76189H7.77032C7.79697 4.33983 8.15677 4.02887 8.73431 4.02887C9.3007 4.02887 9.66273 4.32873 9.66273 4.79741V6.40778H9.20293V6.02351H9.19188C9.05641 6.2834 8.76095 6.44775 8.45445 6.44775C7.99687 6.44775 7.677 6.16344 7.677 5.74366ZM9.1852 5.53265V5.34829L8.60989 5.38381C8.32335 5.40382 8.16122 5.53042 8.16122 5.73033C8.16122 5.93466 8.33003 6.06794 8.58769 6.06794C8.92308 6.06794 9.1852 5.83693 9.1852 5.53265Z"
        fill="black" />
    <path
        d="M10.0968 7.26738V6.87865C10.1323 6.88752 10.2122 6.88752 10.2522 6.88752C10.4743 6.88752 10.5943 6.79425 10.6676 6.55437C10.6676 6.54991 10.7098 6.41221 10.7098 6.40998L9.86578 4.07104H10.3855L10.9764 5.97242H10.9852L11.5761 4.07104H12.0825L11.2073 6.5299C11.0075 7.09634 10.7765 7.27847 10.2923 7.27847C10.2522 7.27847 10.1323 7.27402 10.0968 7.26738Z"
        fill="black" />
</svg>
