<?xml version="1.0" encoding="utf-8"?>
<!-- Generator: Adobe Illustrator 24.0.1, SVG Export Plug-In . SVG Version: 6.00 Build 0)  -->
<svg version="1.1" id="Layer_1" xmlns="http://www.w3.org/2000/svg" xmlns:xlink="http://www.w3.org/1999/xlink" x="0px" y="0px"
	 width="16px" height="16px" viewBox="0 0 16 16" enable-background="new 0 0 16 16" xml:space="preserve">
<path id="path-1_1_" fill-rule="evenodd" clip-rule="evenodd" fill="#181C56" d="M13.2066116,2
	c0.3221664,0,0.5884161,0.234241,0.6305542,0.5381527l0.0058098,0.0844889L13.842,3.698l0.521636,0.0001132
	c0.3195038,0,0.584012,0.2303853,0.6294641,0.5306323L15,4.3207545v9.0566044C15,13.7212343,14.7150908,14,14.363636,14l0,0
	H1.6363636C1.2849097,14,1,13.7212343,1,13.3773584l0,0V4.3207545c0-0.3438752,0.2849097-0.6226413,0.6363636-0.6226413l0,0
	L2.1570001,3.698l0.0000248-1.0753584c0-0.3152192,0.2394032-0.5757284,0.5500128-0.6169577L2.7933884,2H13.2066116z
	 M13.727273,4.9433155H2.2727273v7.8105927h11.454546V4.9433155z M10.8925619,5.5741239
	c0.2510386,0,0.454545,0.1991186,0.454545,0.4447441c0,0.6922994,0.5734358,1.2533693,1.2809925,1.2533693
	c0.2510386,0,0.454545,0.1991186,0.454545,0.4447436l0,0v2.2641516c0,0.2456245-0.2035065,0.4447432-0.454545,0.4447432
	c-0.7075567,0-1.2809925,0.5610704-1.2809925,1.2533693c0,0.2456255-0.2035065,0.4447441-0.454545,0.4447441l0,0H5.1074381
	c-0.2510386,0-0.4545455-0.1991186-0.4545455-0.4447441c0-0.6922989-0.5734353-1.2533693-1.2809918-1.2533693
	c-0.2510386,0-0.4545455-0.1991186-0.4545455-0.4447432l0,0V7.7169809c0-0.245625,0.2035069-0.4447436,0.4545455-0.4447436
	c0.7075565,0,1.2809918-0.56107,1.2809918-1.2533693c0-0.2456255,0.2035069-0.4447441,0.4545455-0.4447441l0,0H10.8925619z
	 M10.4854546,6.46345h-4.971818L5.4897623,6.5667391C5.2894945,7.3099618,4.6914487,7.895112,3.9318464,8.0910606l0,0
	L3.8263636,8.1143398v1.468544l0.1054828,0.024168c0.7596023,0.1959496,1.3576481,0.7810993,1.5579159,1.5243225l0,0
	l0.0238743,0.1023989h4.971818l0.0247831-0.1023989c0.2002678-0.7432232,0.7983131-1.328373,1.5579157-1.5243225l0,0
	l0.1045742-0.024168v-1.468544l-0.1045742-0.0232792c-0.7596025-0.1959486-1.3576479-0.7810988-1.5579157-1.5243216l0,0
	L10.4854546,6.46345z M8,7.23c0.890295,0,1.6115704,0.7205729,1.6115704,1.6100001S8.890295,10.4499998,8,10.4499998
	S6.3884296,9.7294273,6.3884296,8.8400002S7.1097054,7.23,8,7.23z M8,8.1382055
	c-0.3882174,0-0.7024794,0.3139553-0.7024794,0.7017946S7.6117826,9.5417948,8,9.5417948
	c0.3882179,0,0.7024794-0.3139553,0.7024794-0.7017946S8.3882179,8.1382055,8,8.1382055z M12.5699997,3.2452831H3.429091
	L3.4289999,3.698h9.1409998V3.2452831z"/>
</svg>
