<?xml version="1.0" encoding="utf-8"?>
<!-- Generator: Adobe Illustrator 24.0.1, SVG Export Plug-In . SVG Version: 6.00 Build 0)  -->
<svg version="1.1" id="Layer_1" xmlns="http://www.w3.org/2000/svg" xmlns:xlink="http://www.w3.org/1999/xlink" x="0px" y="0px"
	 width="16px" height="16px" viewBox="0 0 16 16" enable-background="new 0 0 16 16" xml:space="preserve">
<path id="path-1_1_" fill-rule="evenodd" clip-rule="evenodd" fill="#181C56" d="M14.363636,2.5H1.6363636
	C1.2849097,2.5,1,2.7976568,1,3.1648352v9.67033C1,13.202343,1.2849097,13.5,1.6363636,13.5h12.727272
	C14.7150908,13.5,15,13.202343,15,12.835165v-9.67033C15,2.7976568,14.7150908,2.5,14.363636,2.5z M13.727273,3.8296704v8.3398819
	H2.2727273V3.8296704H13.727273z M8,6.4000001c-0.8902946,0-1.6115704,0.7205725-1.6115704,1.6100001
	S7.1097054,9.6199999,8,9.6199999s1.6115704-0.7205725,1.6115704-1.6099997S8.890295,6.4000001,8,6.4000001z M8,7.3082051
	c0.3882179,0,0.7024794,0.3139558,0.7024794,0.7017951S8.3882179,8.7117949,8,8.7117949
	c-0.3882174,0-0.7024794-0.3139553-0.7024794-0.7017946S7.6117826,7.3082051,8,7.3082051z M10.8925619,4.5031395H5.1074381
	c-0.2510386,0-0.4545455,0.2126122-0.4545455,0.4748826c0,0.739213-0.5734353,1.3383045-1.2809918,1.3383045
	c-0.2510386,0-0.4545455,0.2126122-0.4545455,0.4748821v2.417582c0,0.2622709,0.2035069,0.4748831,0.4545455,0.4748831
	c0.7075565,0,1.2809918,0.5990906,1.2809918,1.3383045c0,0.26227,0.2035069,0.4748821,0.4545455,0.4748821h5.7851238
	c0.2510386,0,0.454545-0.2126122,0.454545-0.4748821c0-0.7392139,0.5734358-1.3383045,1.2809925-1.3383045
	c0.2510386,0,0.454545-0.2126122,0.454545-0.4748831v-2.417582c0-0.26227-0.2035065-0.4748821-0.454545-0.4748821
	c-0.7075567,0-1.2809925-0.5990915-1.2809925-1.3383045C11.3471069,4.7157516,11.1436005,4.5031395,10.8925619,4.5031395z
	 M10.4854546,5.4528179l0.0247831,0.1102023c0.2002678,0.7935872,0.7983131,1.4183903,1.5579157,1.6276183l0.1045742,0.0249424
	v1.5680609l-0.1045742,0.0257196c-0.7596025,0.2092276-1.3576479,0.8340311-1.5579157,1.6276188l-0.0247831,0.1094246h-4.971818
	l-0.0238743-0.1094246C5.2894945,9.6433926,4.6914487,9.018589,3.9318464,8.8093615L3.8263636,8.7836418V7.2155809
	l0.1054828-0.0249424c0.7596023-0.209228,1.3576481-0.8340311,1.5579159-1.6276183l0.0238743-0.1102023H10.4854546z"/>
</svg>
