<?xml version="1.0" encoding="utf-8"?>
<!-- Generator: Adobe Illustrator 24.0.1, SVG Export Plug-In . SVG Version: 6.00 Build 0)  -->
<svg version="1.1" id="Layer_1" xmlns="http://www.w3.org/2000/svg" xmlns:xlink="http://www.w3.org/1999/xlink" x="0px" y="0px"
	 width="16px" height="16px" viewBox="0 0 16 16" enable-background="new 0 0 16 16" xml:space="preserve">
<path id="path-1_1_" fill-rule="evenodd" clip-rule="evenodd" fill="#181C56" d="M14.4771786,5.5288591v1.2862043
	l-1.2101784-0.0000634l1.0610247,1.65696c0.3787174,0.6352444,0.6151028,1.3483543,0.6629572,2.0543814L15,10.7906036
	C15,13.1335497,13.145443,15,10.8174276,15l0,0H5.1825728C2.8545566,15,1,13.1335497,1,10.7906036
	C1,9.9226332,1.2294984,9.1053543,1.6882334,8.446105l0,0l1.0797665-1.6311049L1.5809128,6.8150635V5.5288591H14.4771786z
	 M11.7480001,6.8150001H4.302L2.7434096,9.171629C2.508568,9.5092678,2.3614154,9.9145708,2.3046556,10.3609285
	l-0.0208344,0.2264767l-0.0058129,0.2031984c0,1.6325951,1.282373,2.923192,2.9045646,2.923192l0,0h5.6348548
	c1.6221914,0,2.9045639-1.290597,2.9045639-2.923192c0-0.5455208-0.1778059-1.1334877-0.4790373-1.6394005l0,0L11.7480001,6.8150001
	z M5.5,1C6.3286352,1,7,1.6710552,7,2.4993088S6.3286352,3.9986174,5.5,3.9986174S4,3.3275623,4,2.4993088S4.6713648,1,5.5,1z
	 M10.5,1C11.3286352,1,12,1.6710552,12,2.4993088s-0.6713648,1.4993086-1.5,1.4993086S9,3.3275623,9,2.4993088S9.6713648,1,10.5,1z"
	/>
</svg>
