<?xml version="1.0" encoding="utf-8"?>
<!-- Generator: Adobe Illustrator 24.0.1, SVG Export Plug-In . SVG Version: 6.00 Build 0)  -->
<svg version="1.1" id="Layer_1" xmlns="http://www.w3.org/2000/svg" xmlns:xlink="http://www.w3.org/1999/xlink" x="0px" y="0px"
	 width="16px" height="16px" viewBox="0 0 16 16" enable-background="new 0 0 16 16" xml:space="preserve">
<path id="Icon-Fill" fill-rule="evenodd" clip-rule="evenodd" fill="#181C56" d="M6.102962,8.8846684l1.0123701,1.0123692
	l-2.045332,2.0449629l2.045332,2.0456295L6.102962,15l-2.0459619-2.0450001L2.0123699,15L1,13.9876299l2.0450001-2.0456295
	L1,9.8970375l1.0123699-1.0123692l2.0446303,2.0443316L6.102962,8.8846684z M15,12.2491283v1.4317074H9.4777002v-1.4317074H15z
	 M15,9.1811848v1.4317064H9.4777002V9.1811848H15z M4.7735195,1L4.7729998,3.0450001l2.0458159,0.0002961v1.4317069
	L4.7729998,4.4770002l0.0005198,2.0452991H3.3418124L3.3410001,4.4770002L1.2965163,4.4770031V3.0452962l2.0444837-0.0002961
	L3.3418124,1H4.7735195z M15,3.0452962v1.4317069H9.4777002V3.0452962H15z"/>
</svg>
