<?xml version="1.0" encoding="utf-8"?>
<!-- Generator: Adobe Illustrator 24.0.1, SVG Export Plug-In . SVG Version: 6.00 Build 0)  -->
<svg version="1.1" id="Layer_1" xmlns="http://www.w3.org/2000/svg" xmlns:xlink="http://www.w3.org/1999/xlink" x="0px" y="0px"
	 width="16px" height="16px" viewBox="0 0 16 16" enable-background="new 0 0 16 16" xml:space="preserve">
<path id="path-1_1_" fill-rule="evenodd" clip-rule="evenodd" fill="#181C56" d="M8,1C4.1340833,1,1,4.1340833,1,8s3.1340833,7,7,7
	s7-3.1340837,7-7S11.8659163,1,8,1z M8,2.2727273c3.1630087,0,5.727273,2.5642641,5.727273,5.727273
	S11.1630087,13.727273,8,13.727273S2.2727273,11.1630087,2.2727273,8S4.8369913,2.2727273,8,2.2727273z M8.5785122,4.4710746
	c0.6795521,0,1.3739138,0.2138948,1.9353399,0.5786858l0.1820154,0.127099l0.5090914,0.3818183l-0.7636366,1.0181818
	L9.9322309,6.1950412C9.5610304,5.9166403,9.0548601,5.7438016,8.5785122,5.7438016
	c-0.7346511,0-1.3751802,0.3313909-1.7841597,0.8567452L9,6.5999999v1L6.3559222,7.6001425
	C6.3338127,7.7295699,6.3223143,7.863152,6.3223143,8c0,0.1144485,0.0080423,0.2266121,0.0236077,0.3359728L9,8.335537v1
	l-2.2532725,0.000412c0.4058743,0.5620127,1.067956,0.920249,1.8317847,0.920249
	c0.4168043,0,0.8564415-0.132329,1.2085142-0.3519182l0.1452045-0.0993214l0.5090914-0.3818178l0.7636366,1.0181818
	l-0.5090914,0.3818178c-0.5889559,0.4417181-1.362298,0.7057858-2.1173553,0.7057858
	c-1.4966331,0-2.7548342-0.8978357-3.2739735-2.1928768L4.3000002,9.335537v-1L5.064826,8.3358011
	C5.054739,8.2253809,5.0495868,8.1133747,5.0495868,8c0-0.1352434,0.0073318-0.2685404,0.0216255-0.3995204L4.3000002,7.5999999v-1
	l1.0308843,0.000062C5.8653369,5.3394742,7.106617,4.4710746,8.5785122,4.4710746z"/>
</svg>
