<svg xmlns="http://www.w3.org/2000/svg" width="14" height="8" viewBox="0 0 14 8" fill="none">
    <path
        d="M10.2766 0H3.7234C1.67553 0 0 1.7325 0 3.85C0 5.9675 1.67553 7.7 3.7234 7.7H10.2766C12.3245 7.7 14 5.9675 14 3.85C14 1.7325 12.3245 0 10.2766 0Z"
        fill="white" />
    <path
        d="M10.2766 0.31185C10.7364 0.31185 11.1832 0.406175 11.604 0.590975C12.0117 0.77 12.3766 1.02602 12.6931 1.35135C13.0077 1.67667 13.2553 2.0559 13.4285 2.47747C13.6072 2.91252 13.6984 3.37452 13.6984 3.85C13.6984 4.32547 13.6072 4.78747 13.4285 5.22252C13.2553 5.6441 13.0077 6.0214 12.6931 6.34865C12.3785 6.67397 12.0117 6.93 11.604 7.10902C11.1832 7.29382 10.7364 7.38815 10.2766 7.38815H3.7234C3.26356 7.38815 2.81676 7.29382 2.39601 7.10902C1.9883 6.93 1.6234 6.67397 1.30691 6.34865C0.992287 6.02332 0.744681 5.6441 0.571543 5.22252C0.392819 4.78747 0.301596 4.32547 0.301596 3.85C0.301596 3.37452 0.392819 2.91252 0.571543 2.47747C0.744681 2.0559 0.992287 1.6786 1.30691 1.35135C1.62154 1.02602 1.9883 0.77 2.39601 0.590975C2.81676 0.406175 3.26356 0.31185 3.7234 0.31185H10.2766ZM10.2766 0H3.7234C1.67553 0 0 1.7325 0 3.85C0 5.9675 1.67553 7.7 3.7234 7.7H10.2766C12.3245 7.7 14 5.9675 14 3.85C14 1.7325 12.3245 0 10.2766 0Z"
        fill="#3C4043" />
    <path
        d="M6.67605 4.12337V5.288H6.3186V2.41205H7.26621C7.50637 2.41205 7.71116 2.49482 7.87871 2.66037C8.04999 2.82592 8.13562 3.02805 8.13562 3.26675C8.13562 3.50545 8.04999 3.71335 7.87871 3.87697C7.71302 4.0406 7.50823 4.12145 7.26621 4.12145H6.67605V4.12337ZM6.67605 2.76625V3.76917H7.27366C7.41515 3.76917 7.5343 3.71912 7.62738 3.62095C7.72233 3.52277 7.77073 3.40342 7.77073 3.26867C7.77073 3.13392 7.72233 3.01842 7.62738 2.92025C7.5343 2.81822 7.41701 2.76817 7.27366 2.76817H6.67605V2.76625Z"
        fill="#3C4043" />
    <path
        d="M9.07025 3.25519C9.33461 3.25519 9.54312 3.32834 9.69578 3.47464C9.84844 3.62094 9.92477 3.82114 9.92477 4.07524V5.28799H9.58408V5.01464H9.56918C9.42211 5.23986 9.22477 5.35151 8.97902 5.35151C8.76865 5.35151 8.59365 5.28799 8.45216 5.15901C8.31067 5.03004 8.23993 4.87026 8.23993 4.67776C8.23993 4.47371 8.3144 4.31201 8.46333 4.19266C8.61227 4.07139 8.81147 4.01171 9.05908 4.01171C9.27131 4.01171 9.44631 4.05214 9.58222 4.13299V4.04829C9.58222 3.91931 9.53381 3.81151 9.43514 3.72104C9.33647 3.63056 9.22105 3.58629 9.08887 3.58629C8.88966 3.58629 8.73142 3.67291 8.61599 3.84809L8.30137 3.64404C8.4745 3.38416 8.73142 3.25519 9.07025 3.25519ZM8.60855 4.68354C8.60855 4.77979 8.64764 4.86064 8.72769 4.92416C8.80589 4.98769 8.89897 5.02041 9.00509 5.02041C9.15589 5.02041 9.28993 4.96266 9.40722 4.84716C9.5245 4.73166 9.58408 4.59691 9.58408 4.44099C9.47238 4.35051 9.31785 4.30431 9.11865 4.30431C8.97344 4.30431 8.85243 4.34089 8.75562 4.41211C8.65695 4.48719 8.60855 4.57766 8.60855 4.68354Z"
        fill="#3C4043" />
    <path
        d="M11.8684 3.31866L10.6769 6.15226H10.3083L10.7513 5.16089L9.9657 3.31866H10.3548L10.9208 4.73161H10.9282L11.4793 3.31866H11.8684Z"
        fill="#3C4043" />
    <path
        d="M5.25428 3.8885C5.25428 3.768 5.24386 3.65269 5.22449 3.54181H3.7262V4.17706H4.5891C4.5541 4.38862 4.44146 4.5688 4.26888 4.68892V5.10106H4.78253C5.08245 4.81404 5.25428 4.38977 5.25428 3.8885Z"
        fill="#4285F4" />
    <path
        d="M4.26909 4.68896C4.12611 4.78867 3.94199 4.847 3.72659 4.847C3.3105 4.847 2.95752 4.5571 2.83111 4.16632H2.30127V4.59136C2.56377 5.12998 3.10329 5.49958 3.72659 5.49958C4.15739 5.49958 4.5193 5.35308 4.78273 5.10091L4.26909 4.68896Z"
        fill="#34A853" />
    <path
        d="M2.7812 3.85096C2.7812 3.74124 2.79889 3.63517 2.83109 3.53545V3.11041H2.30125C2.19272 3.33314 2.13165 3.58454 2.13165 3.85096C2.13165 4.11738 2.1929 4.36879 2.30125 4.59151L2.83109 4.16647C2.79889 4.06675 2.7812 3.96069 2.7812 3.85096Z"
        fill="#FABB05" />
    <path
        d="M3.72659 2.85478C3.96172 2.85478 4.17228 2.93852 4.33853 3.10215L4.79372 2.63187C4.51725 2.36564 4.15683 2.20221 3.72659 2.20221C3.10348 2.20221 2.56377 2.57181 2.30127 3.11042L2.83111 3.53546C2.95752 3.14469 3.3105 2.85478 3.72659 2.85478Z"
        fill="#E94235" />
</svg>
