<?xml version="1.0" encoding="utf-8"?>
<!-- Generator: Adobe Illustrator 24.0.1, SVG Export Plug-In . SVG Version: 6.00 Build 0)  -->
<svg version="1.1" id="Layer_1" xmlns="http://www.w3.org/2000/svg" xmlns:xlink="http://www.w3.org/1999/xlink" x="0px" y="0px"
	 width="16px" height="16px" viewBox="0 0 16 16" enable-background="new 0 0 16 16" xml:space="preserve">
<title>mc_vrt_rgb_pos</title>
<g id="_Group_">
	<rect x="6.1070094" y="4.5985222" fill="#FF5F00" width="3.7855303" height="6.8031383"/>
	<path id="_Path_" fill="#EB001B" d="M6.3473606,8.0006924c-0.0014153-1.3277607,0.6079493-2.582387,1.6524138-3.4021702
		c-1.8786349-1.4764061-4.598433-1.1503356-6.0748396,0.7282991S0.7745991,9.9252539,2.653234,11.4016609
		c1.5689173,1.2330017,3.7776232,1.2330017,5.3465405,0C6.9556417,10.5821381,6.3463149,9.3280315,6.3473606,8.0006924z"/>
	<path fill="#F79E1B" d="M15,8.0006924c-0.0000572,2.3893614-1.9370604,4.3262749-4.3264217,4.3262186
		c-0.9697781-0.0000229-1.9114275-0.3258734-2.6738038-0.9252501c1.8786349-1.4764071,2.2047048-4.1962047,0.7282996-6.0748396
		C8.5151749,5.0559201,8.2706757,4.8114214,7.9997745,4.5985222c1.8783593-1.476757,4.5982175-1.1511946,6.0749745,0.7271647
		C14.6741276,6.0880632,14.9999781,7.0297122,15,7.9994903V8.0006924z"/>
	<path fill="#F79E1B" d="M14.5865974,10.6806078v-0.1394033h0.0564833v-0.028842h-0.1430092v0.028842h0.0612888v0.1394043
		L14.5865974,10.6806078z M14.8642025,10.6806078v-0.1682463H14.82094l-0.0504742,0.1201754l-0.0504732-0.1201754h-0.0384569
		v0.1682463h0.0312452v-0.1261845l0.0468683,0.1093607h0.0324478l0.0468683-0.1093607v0.1273861L14.8642025,10.6806078z"/>
</g>
</svg>
