<?xml version="1.0" encoding="utf-8"?>
<!-- Generator: Adobe Illustrator 24.0.1, SVG Export Plug-In . SVG Version: 6.00 Build 0)  -->
<svg version="1.1" id="Layer_1" xmlns="http://www.w3.org/2000/svg" xmlns:xlink="http://www.w3.org/1999/xlink" x="0px" y="0px"
	 width="16px" height="16px" viewBox="0 0 16 16" enable-background="new 0 0 16 16" xml:space="preserve">
<path id="path-1_1_" fill-rule="evenodd" clip-rule="evenodd" fill="#181C56" d="M5.9718404,1
	c1.7759938,0,3.2917733,0.7577587,3.2917733,1.9432778c0,0.3871176-0.161624,0.7286243-0.4411545,1.0130301
	c0.2793684,0.2837334,0.4413567,0.624743,0.4413567,1.0094433L9.2574253,5.0932446
	c0.2450819-0.0314932,0.4996986-0.0477591,0.759901-0.0477591c1.7759933,0,3.2917728,0.7577586,3.2917728,1.9432778
	c0,0.3873482-0.1618156,0.7290306-0.4416533,1.0135379c0.2800303,0.2834511,0.4417877,0.6242685,0.4417877,1.0090027
	c0,0.3875732-0.1620045,0.7294283-0.4421425,1.0140352c0.2801609,0.283205,0.4418736,0.6241713,0.4418736,1.0085726
	c0,0.3873482-0.1618166,0.7290306-0.4416542,1.0135374c0.2799082,0.2841043,0.4416542,0.6249008,0.4416542,1.0092726
	C13.3089647,14.2422409,11.7931852,15,10.0171909,15s-3.2917728-0.7577591-3.2917728-1.9432783l0.0068526-0.1277971
	c-0.2460332,0.0321074-0.5009804,0.0486698-0.7604303,0.0486698c-1.7755175,0-3.2917731-0.7582588-3.2917731-1.9432783
	c0-0.3844299,0.1614494-0.7251539,0.442184-1.0098648c-0.2803171-0.2839994-0.442184-0.6256256-0.442184-1.0128098
	c0-0.3841753,0.1615918-0.7250462,0.4424603-1.0099497C2.8418667,7.7177086,2.6800001,7.3760829,2.6800001,6.9888983
	c0-0.3848257,0.1617811-0.7258549,0.4430494-1.0107427C2.8420856,5.6947813,2.6802697,5.3530989,2.6802697,4.9657512
	c0-0.3845692,0.1616809-0.7254448,0.4429109-1.01035C2.841691,3.6719022,2.6800673,3.3303955,2.6800673,2.9432778
	C2.6800673,1.7577587,4.1958466,1,5.9718404,1z M11.7745333,12.6976633l-0.0586567,0.0208244
	c-0.5003309,0.1679058-1.0839186,0.2587023-1.6986856,0.2587023c-0.6393404,0-1.2449598-0.0982008-1.7582817-0.2792063
	C8.0238056,12.835104,7.9149837,12.97089,7.9149837,13.0567217c0,0.3043356,0.8989096,0.7537127,2.1022072,0.7537127
	s2.1022081-0.4493771,2.1022081-0.7537127C12.1193991,12.9709148,12.0101538,12.834753,11.7745333,12.6976633z M4.213769,10.6755886
	c-0.2348115,0.1361389-0.3441362,0.2722349-0.3441362,0.3587275c0,0.3039532,0.8993649,0.7537127,2.1022077,0.7537127
	c0.3284044,0,0.6434994-0.0331039,0.9281516-0.0932646c-0.1134276-0.20189-0.1745739-0.4227438-0.1745739-0.6608524
	l0.0069814-0.1277189c-0.2461057,0.0321398-0.501111,0.0487261-0.7605591,0.0487261
	C5.3326707,10.9549189,4.7270999,10.8566542,4.213769,10.6755886z M11.7753515,10.6751661l-0.0592051,0.0207138
	c-0.5003309,0.1679058-1.0839186,0.2587023-1.6986856,0.2587023c-0.6389246,0-1.2441711-0.098073-1.7572784-0.2788525
	c-0.2360611,0.1362143-0.3451986,0.2723656-0.3451986,0.358182c0,0.1124067,0.1226282,0.2445993,0.3379297,0.3666277
	c0.0145559,0.0049963,0.026638,0.0116129,0.0384951,0.0186558l-0.0384951-0.0186558
	c0.0401764,0.0227709,0.0835791,0.045188,0.1300144,0.0670567c0.0602674,0.013999,0.1166286,0.0378389,0.1683817,0.0697699
	c0.3710947,0.144721,0.8827448,0.2502584,1.4658813,0.2502584c0.5797062,0,1.0887642-0.1042986,1.4606981-0.2464314
	c0.0542526-0.036397,0.115591-0.062171,0.1797295-0.0773897c0.2919416-0.1379166,0.4617805-0.2976055,0.4617805-0.4298916
	C12.1193991,10.9480944,12.0109615,10.8121881,11.7753515,10.6751661z M11.7749062,8.6522732L11.716012,8.6733389
	c-0.5003309,0.1679058-1.0839186,0.2587023-1.6986856,0.2587023c-0.639492,0-1.2452459-0.0982466-1.758646-0.2793341
	C8.0239429,8.7894354,7.9152532,8.925333,7.9152532,9.0113039c0,0.0961514,0.0897279,0.2067814,0.2504334,0.3131428
	C8.2532854,9.3486538,8.3337765,9.3920603,8.401885,9.4527779L8.413064,9.458787l0,0
	c0.0430431,0.0113125,0.0830288,0.0291395,0.1207218,0.051178c0.3734331,0.1462994,0.8917217,0.2550516,1.483675,0.2550516
	c1.2032976,0,2.1022081-0.4493771,2.1022081-0.7537127C12.119669,8.9251528,12.0103264,8.7891331,11.7749062,8.6522732z
	 M4.2137017,8.6528454c-0.2353518,0.1368113-0.344069,0.2729139-0.344069,0.3587961
	c0,0.1288357,0.1615839,0.2838678,0.4393725,0.4197416C4.3969898,9.4457436,4.4788799,9.4801683,4.550312,9.5309191
	C4.9165382,9.667655,5.4112282,9.7653532,5.9718404,9.7653532c0.3285756,0,0.64395-0.0332136,0.9287219-0.0934458
	C6.7870026,9.4708738,6.725688,9.2497406,6.725688,9.0113039l0.007618-0.127986
	c-0.246428,0.0322266-0.5017681,0.0488586-0.7615328,0.0488586C5.3326035,8.9321766,4.7270322,8.8339109,4.2137017,8.6528454z
	 M4.2147641,6.6301765C3.9791808,6.7659469,3.8695655,6.9022908,3.8695655,6.9888983
	c0,0.141192,0.1940632,0.3138456,0.5224619,0.4582658l0.0086994,0.002811
	c0.3766699,0.1652408,0.9308777,0.2926359,1.5710464,0.2926359c0.3284407,0,0.6437802-0.0331941,0.9285984-0.0934224
	C6.7867942,7.4480677,6.725553,7.227057,6.725553,6.9887633l0.0073853-0.1276212
	C6.4875503,6.8927193,6.2325969,6.909029,5.9720426,6.909029C5.333118,6.909029,4.7278719,6.8109565,4.2147641,6.6301765z
	 M10.0173264,6.2350512c-1.2032986,0-2.1022081,0.4493771-2.1022081,0.7537122c0,0.1010327,0.0990686,0.2180505,0.2754536,0.3293052
	c0.046319,0.0140023,0.0903625,0.0353413,0.1314316,0.0619755l0.0425091,0.0335603
	C8.3720026,7.4172187,8.3795748,7.4208188,8.387229,7.4244041c0.0553188,0.013495,0.1081057,0.0358357,0.1568985,0.0653133
	C8.9160252,7.6355906,9.4304762,7.742476,10.0173264,7.742476c0.5625668,0,1.0586023-0.0982232,1.4273529-0.2339263
	c0.0681362-0.0509691,0.1483498-0.0846643,0.2326145-0.1003079c0.2800922-0.1348042,0.4422398-0.2902226,0.4422398-0.4194784
	C12.1195335,6.6844282,11.220624,6.2350512,10.0173264,6.2350512z M7.7299075,4.6071239L7.670526,4.6278534
	C7.1701951,4.7957592,6.5866075,4.8865557,5.9718404,4.8865557c-0.6393409,0-1.2449598-0.0982003-1.7582822-0.2792058
	c-0.234472,0.1361117-0.3437231,0.2721424-0.3437231,0.3584013c0,0.1291542,0.1618941,0.284431,0.4402425,0.4203978
	c0.0870795,0.0143704,0.1682496,0.0484772,0.2391677,0.0986438C4.9156137,5.6216702,5.410708,5.7194633,5.9720426,5.7194633
	c1.2032981,0,2.1022077-0.4493771,2.1022077-0.7537122C8.0742502,4.8800526,7.9653111,4.7441301,7.7299075,4.6071239z
	 M5.9718404,2.1895654c-1.2032976,0-2.1022077,0.4493773-2.1022077,0.7537124c0,0.128998,0.1615024,0.284055,0.4392309,0.4199035
	c0.0889902,0.0141101,0.1715217,0.0489657,0.243372,0.1003995c0.3658772,0.1361489,0.8598008,0.2334096,1.4196048,0.2334096
	c0.58634,0,1.1004062-0.1066999,1.473413-0.2513258c0.0467291-0.0304997,0.0988069-0.0526752,0.1530957-0.067234
	C7.8985348,3.2405522,8.074048,3.0777552,8.074048,2.9432778C8.074048,2.6389427,7.1751385,2.1895654,5.9718404,2.1895654z"/>
</svg>
