<?xml version="1.0" encoding="utf-8"?>
<!-- Generator: Adobe Illustrator 24.0.1, SVG Export Plug-In . SVG Version: 6.00 Build 0)  -->
<svg version="1.1" id="Layer_1" xmlns="http://www.w3.org/2000/svg" xmlns:xlink="http://www.w3.org/1999/xlink" x="0px" y="0px"
	 width="16px" height="16px" viewBox="0 0 16 16" enable-background="new 0 0 16 16" xml:space="preserve">
<path id="Icon-Fill" fill-rule="evenodd" clip-rule="evenodd" fill="#181C56" d="M9.9199982,12.1131992
	c-0.4100208,0.0456743-0.705122,0.3578749-0.705122,0.7561398l0,0v1.494297C9.2148762,14.7150908,8.929966,15,8.5785122,15l0,0
	H1.6363636C1.2849097,15,1,14.7150908,1,14.363636l0,0v-1.7355366c0-0.9907103,0.8026783-1.7933884,1.7933884-1.7933884l0,0
	l1.6776118-0.0007114l0.0000744-9.1976357c0-0.3221661,0.2394032-0.5884166,0.5500126-0.6305543L5.1074381,1h9.2561979
	c0.3221664,0,0.5884171,0.2394032,0.6305552,0.5500128L15,1.6363636v11.2809916C15,14.0677347,14.0677347,15,12.9173555,15
	s-2.0826445-0.9322653-2.0826445-2.0826445c0-0.4555511-0.2918034-0.7601919-0.704361-0.8043642l-0.1055565-0.0055532
	L9.9199982,12.1131992z M12.1074381,12.9173555c0,0.4474716,0.3624458,0.8099174,0.8099174,0.8099174
	c0.4130507,0,0.7536535-0.3088293,0.8036098-0.7082901l0.0063076-0.1016273V2.2727273H5.7436361L5.743,10.8339996
	l4.2817936,0.0007114l0,0C11.1736441,10.8347111,12.1074381,11.6974497,12.1074381,12.9173555z M8.0890913,12.1072731
	l-5.2957029,0.000165c-0.2878022,0-0.5206611,0.2328587-0.5206611,0.5206614l0,0v1.0991735h5.6690912l0.0003304-0.857934
	c0-0.2391825,0.040329-0.4670143,0.1146121-0.6778431l0,0L8.0890913,12.1072731z M12.1074381,4.4710746v1.272727H7.3636365
	v-1.272727H12.1074381z M12.1074381,7.3636365V8.636364H7.3636365V7.3636365H12.1074381z"/>
</svg>
