<?xml version="1.0" encoding="utf-8"?>
<!-- Generator: Adobe Illustrator 22.0.1, SVG Export Plug-In . SVG Version: 6.00 Build 0)  -->
<svg version="1.1" id="Layer_1" xmlns="http://www.w3.org/2000/svg" xmlns:xlink="http://www.w3.org/1999/xlink" x="0px" y="0px"
	 viewBox="0 0 16 16" enable-background="new 0 0 16 16" xml:space="preserve">
<title>Icon/Shopping/Price From</title>
<desc>Created with Sketch.</desc>
<g id="Icon_x2F_Shopping_x2F_Price-From">
	<g id="Icon-Fill">
		<path id="path-1_1_" fill="#181C56" d="M9.03684,1.01806l2.14705,0.54748c0.06921,0.01769,0.13509,0.04927,0.19337,0.0915
			c0.11681,0.08562,0.19355,0.21138,0.21253,0.35033c0.00929,0.06915,0.00562,0.13937-0.01303,0.20578l-0.57519,2.04286
			c-0.07937,0.28192-0.38473,0.44927-0.68041,0.37387C10.0244,4.55421,9.84894,4.26424,9.92832,3.98233l0.22805-0.81L6.5544,5.15109
			C6.37704,5.24855,5.6974,5.61964,4.5155,6.26437L4.12764,6.49101C3.9951,6.56341,3.84349,6.57894,3.70611,6.54394
			C3.56874,6.50887,3.4456,6.42328,3.36939,6.29765C3.21525,6.04432,3.30613,5.72154,3.57271,5.5755l2.90781-1.60425
			l3.11984-1.71471L8.74927,2.0395C8.45359,1.9641,8.27706,1.67385,8.35643,1.39193C8.4358,1.11002,8.74116,0.94266,9.03684,1.01806
			z M5.77833,13.94252c1.10333,0,2.05722-0.26807,2.74556-0.72066c0.01222,0.06345,0.03167,0.12584,0.03167,0.19193
			c0,0.90466-1.19444,1.5862-2.77722,1.5862C4.19444,14.99999,3,14.31845,3,13.41378c0-0.06609,0.02-0.12848,0.03167-0.19193
			C3.72,13.67445,4.67389,13.94252,5.77833,13.94252z M3,11.29885c0-0.90413,1.19389-1.5862,2.77778-1.5862
			s2.77778,0.68207,2.77778,1.5862c0,0.90413-1.19389,1.5862-2.77778,1.5862S3,12.20299,3,11.29885z M10.22222,10.76959
			c1.10389,0,2.05833-0.26754,2.74611-0.72013C12.98056,10.1129,13,10.17476,13,10.24138c0,0.90413-1.19389,1.5862-2.77778,1.5862
			c-0.215,0-0.42056-0.0148-0.61944-0.0386c0.04-0.15968,0.06389-0.32253,0.06389-0.49014c0-0.19775-0.03167-0.3865-0.085-0.56786
			C9.79,10.75161,10.00056,10.76959,10.22222,10.76959z M7.445,8.12645c0-0.90413,1.19333-1.5862,2.77722-1.5862
			S13,7.22232,13,8.12645s-1.19389,1.5862-2.77778,1.5862S7.445,9.03059,7.445,8.12645z M10.22222,12.88505
			c1.10389,0,2.05833-0.26807,2.74611-0.72066C12.98056,12.22784,13,12.29023,13,12.35632c0,0.90413-1.19389,1.5862-2.77778,1.5862
			c-0.215,0-0.42056-0.0148-0.61944-0.0386c0.04-0.16021,0.06389-0.322,0.06389-0.49014c0-0.19457-0.02889-0.38386-0.08278-0.56786
			C9.79111,12.86655,10.00111,12.88505,10.22222,12.88505z"/>
	</g>
</g>
</svg>
