<?xml version="1.0" encoding="utf-8"?>
<!-- Generator: Adobe Illustrator 24.0.1, SVG Export Plug-In . SVG Version: 6.00 Build 0)  -->
<svg version="1.1" id="Layer_1" xmlns="http://www.w3.org/2000/svg" xmlns:xlink="http://www.w3.org/1999/xlink" x="0px" y="0px"
	 width="16px" height="16px" viewBox="0 0 16 16" enable-background="new 0 0 16 16" xml:space="preserve">
<path id="path-1_1_" fill-rule="evenodd" clip-rule="evenodd" fill="#181C56" d="M7.6969695,1
	c0.1687741,0,0.3306355,0.0670452,0.4499774,0.1863866l0,0l6.666666,6.6666665c0.2485161,0.2485161,0.2485161,0.6514387,0,0.8999538
	l0,0l-6.060606,6.060606c-0.2485151,0.2485161-0.6514378,0.2485161-0.8999538,0l0,0l-6.6666665-6.666666
	C1.0670452,8.0276051,1,7.8657436,1,7.6969695l0,0v-4.242424c0-0.1687741,0.0670452-0.3306358,0.1863866-0.4499772l0,0
	l1.8181818-1.8181818C3.1239097,1.0670452,3.2857714,1,3.4545455,1l0,0H7.6969695z M7.4336362,2.2727273H3.7163637
	L2.2727273,3.7163637v3.7172725l6.0300007,6.0300002l5.1609087-5.1609087L7.4336362,2.2727273z M5.0999999,4
	c0.6080117,0,1.0999999,0.4919882,1.0999999,1.0999999S5.7080116,6.1999998,5.0999999,6.1999998S4,5.7080116,4,5.0999999
	S4.4919882,4,5.0999999,4z"/>
</svg>
