<?xml version="1.0" encoding="utf-8"?>
<!-- Generator: Adobe Illustrator 24.0.1, SVG Export Plug-In . SVG Version: 6.00 Build 0)  -->
<svg version="1.1" id="Layer_1" xmlns="http://www.w3.org/2000/svg" xmlns:xlink="http://www.w3.org/1999/xlink" x="0px" y="0px"
	 width="16px" height="16px" viewBox="0 0 16 16" enable-background="new 0 0 16 16" xml:space="preserve">
<path id="path-1_1_" fill-rule="evenodd" clip-rule="evenodd" fill="#181C56" d="M9.280488,2.5H6.719512
	c-0.3300238,0-0.5975609,0.2780168-0.5975609,0.6209676v9.7580643C6.1219511,13.221983,6.3894882,13.5,6.719512,13.5h2.560976
	c0.3300238,0,0.5975609-0.278017,0.5975609-0.6209679V3.1209676C9.8780489,2.7780168,9.6105118,2.5,9.280488,2.5z
	 M8.6829271,3.7419353v8.5161285H7.3170733V3.7419353H8.6829271z M4.1585364,8.7096777H1.597561
	C1.2675371,8.7096777,1,8.9876938,1,9.3306456v3.5483866C1,13.221983,1.2675371,13.5,1.597561,13.5h2.5609756
	c0.3300238,0,0.5975614-0.278017,0.5975614-0.6209679V9.3306456C4.7560978,8.9876938,4.4885602,8.7096777,4.1585364,8.7096777z
	 M3.5609756,9.9516125v2.3064518H2.195122V9.9516125H3.5609756z M14.4024391,5.1612902h-2.560976
	c-0.3300238,0-0.5975609,0.278017-0.5975609,0.6209679v7.0967741c0,0.3429508,0.2675371,0.6209679,0.5975609,0.6209679h2.560976
	C14.7324629,13.5,15,13.221983,15,12.8790321V5.782258C15,5.4393072,14.7324629,5.1612902,14.4024391,5.1612902z
	 M13.8048782,6.4032259v5.8548384H12.439024V6.4032259H13.8048782z"/>
</svg>
