<?xml version="1.0" encoding="utf-8"?>
<!-- Generator: Adobe Illustrator 24.0.1, SVG Export Plug-In . SVG Version: 6.00 Build 0)  -->
<svg version="1.1" id="Layer_1" xmlns="http://www.w3.org/2000/svg" xmlns:xlink="http://www.w3.org/1999/xlink" x="0px" y="0px"
	 width="16px" height="16px" viewBox="0 0 16 16" enable-background="new 0 0 16 16" xml:space="preserve">
<title>mc_vrt_rgb_pos</title>
<path fill="#FF5B24" d="M2.0208333,3.3333333h11.958334C14.5429583,3.3333333,15,3.7903759,15,4.3541665v7.2916665
	c0,0.5637913-0.4570417,1.020834-1.020833,1.020834H2.0208333C1.4570426,12.666667,1,12.2096243,1,11.645833V4.3541665
	C1,3.7903759,1.4570426,3.3333333,2.0208333,3.3333333z"/>
<path fill="#FF5B24" d="M5.8125,3.9166667h4.375c2.1746216,0,3.9375,1.7628787,3.9375,3.9374998l0,0
	c0,2.1746211-1.7628784,3.9375005-3.9375,3.9375005h-4.375c-2.1746213,0-3.9375-1.7628794-3.9375-3.9375005l0,0
	C1.875,5.6795454,3.6378787,3.9166667,5.8125,3.9166667z"/>
<path fill-rule="evenodd" clip-rule="evenodd" fill="#FFFFFF" d="M9.1269999,6.9098959
	c0.4016247,0,0.745821-0.3049083,0.745821-0.7431664h0.0000877c0-0.4383636-0.3442841-0.7431669-0.7459087-0.7431669
	c-0.4015369,0-0.7456455,0.3048034-0.7456455,0.7431669C8.3813543,6.6049876,8.7254629,6.9098959,9.1269999,6.9098959z
	 M10.1022463,8.1106586c-0.4972916,0.6477919-1.023138,1.0956745-1.9506378,1.0956745h0.0001163
	c-0.9462829,0-1.6826539-0.5717249-2.2562747-1.4101791C5.6659083,7.4530668,5.3121457,7.3768835,5.0539622,7.5579209
	C4.814971,7.7294793,4.7577457,8.0915546,4.9775167,8.4060583c0.7935081,1.210125,1.8929749,1.9151125,3.1740918,1.9151125
	c1.1761456,0,2.0940495-0.5716076,2.8110247-1.5245123c0.2676334-0.3525085,0.2580957-0.7145834,0-0.9147253
	C10.723525,7.6911836,10.369792,7.7581792,10.1022463,8.1106586z"/>
</svg>
