<?xml version="1.0" encoding="utf-8"?>
<!-- Generator: Adobe Illustrator 24.0.1, SVG Export Plug-In . SVG Version: 6.00 Build 0)  -->
<svg version="1.1" id="Layer_1" xmlns="http://www.w3.org/2000/svg" xmlns:xlink="http://www.w3.org/1999/xlink" x="0px" y="0px"
	 width="119.4px" height="30.4px" viewBox="0 0 119.4 30.4" style="enable-background:new 0 0 119.4 30.4;" xml:space="preserve">
<style type="text/css">
	.st0{fill:#FF5B24;}
</style>
<path fill="#FF5B24" d="M6,0.6l5.1,14.9l5-14.9H22l-8.8,22.1H8.8L0,0.6H6z"/>
<path fill="#FF5B24" d="M35.3,19.2c3.7,0,5.8-1.8,7.8-4.4c1.1-1.4,2.5-1.7,3.5-0.9s1.1,2.3,0,3.7c-2.9,3.8-6.6,6.1-11.3,6.1
	c-5.1,0-9.6-2.8-12.7-7.7c-0.9-1.3-0.7-2.7,0.3-3.4s2.5-0.4,3.4,1C28.5,16.9,31.5,19.2,35.3,19.2z M42.2,6.9c0,1.8-1.4,3-3,3
	s-3-1.2-3-3s1.4-3,3-3C40.8,3.9,42.2,5.2,42.2,6.9z"/>
<path fill="#FF5B24" d="M56.3,0.6v3C57.8,1.5,60.1,0,63.5,0c4.3,0,9.3,3.6,9.3,11.3c0,8.1-4.8,12-9.8,12c-2.6,0-5-1-6.8-3.5v10.6h-5.4
	V0.6H56.3z M56.3,11.6c0,4.5,2.6,6.9,5.5,6.9c2.8,0,5.6-2.2,5.6-6.9c0-4.6-2.8-6.8-5.6-6.8C59,4.8,56.3,6.9,56.3,11.6z"/>
<path fill="#FF5B24" d="M82.3,0.6v3C83.8,1.5,86.1,0,89.5,0c4.3,0,9.3,3.6,9.3,11.3c0,8.1-4.8,12-9.8,12c-2.6,0-5-1-6.8-3.5v10.6h-5.4
	V0.6H82.3z M82.3,11.6c0,4.5,2.6,6.9,5.5,6.9c2.8,0,5.6-2.2,5.6-6.9c0-4.6-2.8-6.8-5.6-6.8C84.9,4.8,82.3,6.9,82.3,11.6z"/>
<path fill="#FF5B24" d="M110.3,0c4.5,0,7.7,2.1,9.1,7.3l-4.9,0.8c-0.1-2.6-1.7-3.5-4.1-3.5c-1.8,0-3.2,0.8-3.2,2.1c0,1,0.7,2,2.8,2.4
	l3.7,0.7c3.6,0.7,5.6,3.1,5.6,6.3c0,4.8-4.3,7.2-8.4,7.2c-4.3,0-9.1-2.2-9.8-7.6l4.9-0.8c0.3,2.8,2,3.8,4.8,3.8
	c2.1,0,3.5-0.8,3.5-2.1c0-1.2-0.7-2.1-3-2.5l-3.4-0.6c-3.6-0.7-5.8-3.2-5.8-6.4C102.2,2.1,106.7,0,110.3,0z"/>
</svg>
