<?xml version="1.0" encoding="utf-8"?>
<!-- Generator: Adobe Illustrator 24.0.1, SVG Export Plug-In . SVG Version: 6.00 Build 0)  -->
<svg version="1.1" id="Layer_1" xmlns="http://www.w3.org/2000/svg" xmlns:xlink="http://www.w3.org/1999/xlink" x="0px" y="0px"
	 width="16px" height="16px" viewBox="0 0 16 16" enable-background="new 0 0 16 16" xml:space="preserve">
<title>mc_vrt_rgb_pos</title>
<rect x="1" y="3.5533829" fill="#FFFFFF" width="14" height="8.8932343"/>
<rect x="1.2331516" y="11.0015774" fill="#F7B600" width="13.5334816" height="1.2133139"/>
<rect x="1.2331516" y="3.7866254" fill="#1A1F71" width="13.5334816" height="1.2133462"/>
<path fill="#1A1F71" d="M6.6503153,6.3367448l-1.3979778,3.335053H4.3403673l-0.68799-2.6616139
	c-0.0416825-0.163651-0.0780435-0.2238183-0.2048862-0.2929692c-0.207485-0.1127262-0.5500119-0.2181149-0.8511415-0.2836881
	l0.0203519-0.0967817h1.4681787c0.1870036,0,0.3552432,0.1244383,0.3980341,0.3398371l0.36341,1.9300103l0.897562-2.2698474
	H6.6503153z M10.2237053,8.5829868c0.0037975-0.880127-1.2166719-0.9289327-1.2085695-1.3221836
	C9.0177994,7.1412978,9.131731,7.014008,9.3809891,6.9814773c0.1235504-0.0159507,0.4644632-0.0288038,0.8509474,0.1492491
	l0.1511478-0.7075186c-0.2076082-0.0750685-0.4747162-0.1473823-0.8070221-0.1473823
	c-0.8529692,0-1.4530115,0.4530363-1.4578209,1.1023574C8.1127968,7.8583441,8.546874,8.1260548,8.87323,8.2859402
	c0.3364801,0.1634245,0.4492702,0.2683077,0.4476242,0.4143286C9.3185139,8.9240227,9.0524817,9.0230789,8.8048706,9.0268126
	C8.3707857,9.0335855,8.1192522,8.9095297,7.9187284,8.816041L7.7621355,9.5471649
	C7.9640532,9.6395779,8.3361034,9.720026,8.7213173,9.7241421C9.6280956,9.7241421,10.2210474,9.2763882,10.2237053,8.5829868
	 M12.4761496,9.6717978h0.7977791l-0.6970119-3.335053h-0.73594c-0.1658993,0-0.3056526,0.096179-0.3675575,0.2444816
	l-1.2946501,3.0905714h0.9061365l0.1798878-0.4980764h1.1067905L12.4761496,9.6717978z M11.5130405,8.4902563l0.4542093-1.2524624
	l0.2612877,1.2524624H11.5130405z M7.8831577,6.3367448l-0.7133451,3.335053H6.3069978l0.7134099-3.335053H7.8831577z"/>
</svg>
