<?xml version="1.0" encoding="utf-8"?>
<!-- Generator: Adobe Illustrator 26.5.0, SVG Export Plug-In . SVG Version: 6.00 Build 0)  -->
<svg version="1.1" id="Layer_1" xmlns="http://www.w3.org/2000/svg" xmlns:xlink="http://www.w3.org/1999/xlink" x="0px" y="0px"
	 width="16px" height="16px" viewBox="0 0 16 16" enable-background="new 0 0 16 16" xml:space="preserve">
<g>
	<polygon id="Icon-Fill_1_" fill="#0035AD" points="14.7,3 7.4,3 7.4,13 14.7,13 	"/>
	<rect x="1.3" y="3" fill="#DC241F" width="4.3" height="10"/>
	<rect x="5.6" y="3" fill="#007229" width="0.9" height="10"/>
	<rect x="6.5" y="3" fill="#FFCE00" width="0.9" height="10"/>
	<path fill="none" d="M9.2,8c0-1.5-1.2-2.7-2.7-2.7v5.3C8,10.7,9.2,9.5,9.2,8z"/>
	<path fill="#DC241F" d="M6.5,4.8v0.5C8,5.3,9.2,6.5,9.2,8S8,10.7,6.5,10.7v0.5c1.8,0,3.2-1.4,3.2-3.2S8.3,4.8,6.5,4.8z"/>
	<path fill="#0035AD" d="M3.8,8c0-1.5,1.2-2.7,2.7-2.7V4.8C4.7,4.8,3.3,6.2,3.3,8s1.4,3.2,3.2,3.2v-0.5C5,10.7,3.8,9.5,3.8,8z"/>
</g>
</svg>
