<?xml version="1.0" encoding="utf-8"?>
<!-- Generator: Adobe Illustrator 24.0.3, SVG Export Plug-In . SVG Version: 6.00 Build 0)  -->
<svg version="1.1" id="Layer_1" xmlns="http://www.w3.org/2000/svg" xmlns:xlink="http://www.w3.org/1999/xlink" x="0px" y="0px"
	 width="14px" height="10px" viewBox="0 0 14 10" enable-background="new 0 0 14 10" xml:space="preserve">
<title>Flag</title>
<desc>Created with Sketch.</desc>
<g id="Symbols">
	<g id="Icon_x2F_Flag_x2F_UK" transform="translate(-1.000000, -4.000000)">
		<g id="Flag" transform="translate(1.000000, 4.000000)">
			<rect id="Fill" fill-rule="evenodd" clip-rule="evenodd" fill="#FFFFFF" width="14" height="10"/>
			<polygon id="Fill-1" fill-rule="evenodd" clip-rule="evenodd" fill="#D80027" points="4.8099999,6.2862 0,9.9991999 
				0.582,9.9991999 5.4000001,6.2862 			"/>
			<polygon id="Fill-2" fill-rule="evenodd" clip-rule="evenodd" fill="#0052B4" points="0,6.2862 0,9.3221998 3.9349999,6.2862 			
				"/>
			<polygon id="Fill-3" fill-rule="evenodd" clip-rule="evenodd" fill="#0052B4" points="1.7343,9.9996004 5.7242999,9.9996004 
				5.7242999,6.9256001 			"/>
			<polygon id="Fill-4" fill-rule="evenodd" clip-rule="evenodd" fill="#0052B4" points="8.2736998,9.9996004 12.2636995,9.9996004 
				8.2736998,6.9256001 			"/>
			<polygon id="Fill-5" fill-rule="evenodd" clip-rule="evenodd" fill="#D80027" points="8.599,6.2862 13.4169998,9.9991999 
				14,9.9991999 9.1890001,6.2862 			"/>
			<polygon id="Fill-6" fill-rule="evenodd" clip-rule="evenodd" fill="#0052B4" points="10.0633001,6.2862 14.0003004,9.3221998 
				14.0003004,6.2862 			"/>
			<polygon id="Fill-7" fill-rule="evenodd" clip-rule="evenodd" fill="#0052B4" points="10.0628996,3.7131 10.0628996,3.7151 
				13.9998999,3.7151 13.9998999,0.6771 			"/>
			<polygon id="Fill-8" fill-rule="evenodd" clip-rule="evenodd" fill="#D80027" points="13.4167004,-0.0003 8.5986996,3.7126999 
				9.1886997,3.7126999 13.9996996,-0.0003 			"/>
			<polygon id="Fill-9" fill-rule="evenodd" clip-rule="evenodd" fill="#0052B4" points="8.2736998,-0.0003 8.2736998,3.0747001 
				12.2636995,-0.0003 			"/>
			<polygon id="Fill-10" fill-rule="evenodd" clip-rule="evenodd" fill="#0052B4" points="0,3.7149 3.9349999,3.7149 
				3.9349999,3.7128999 0,0.6769 			"/>
			<polygon id="Fill-11" fill-rule="evenodd" clip-rule="evenodd" fill="#D80027" points="0.0004,-0.0003 4.8104,3.7126999 
				5.3994002,3.7126999 0.5814,-0.0003 			"/>
			<polygon id="Fill-12" fill-rule="evenodd" clip-rule="evenodd" fill="#0052B4" points="1.7343,-0.0003 5.7242999,3.0747001 
				5.7242999,-0.0003 			"/>
			<polygon id="Fill-13" fill-rule="evenodd" clip-rule="evenodd" fill="#D80027" points="14,4.3476 7.652,4.3476 7.652,4.2756 
				7.652,3.4056001 7.652,-0.0004 6.348,-0.0004 6.348,3.4056001 6.348,4.2756 6.348,4.3476 5.9850001,4.3476 4.7680001,4.3476 
				0,4.3476 0,5.6525998 4.7680001,5.6525998 5.9850001,5.6525998 6.348,5.6525998 6.348,9.9996004 7.652,9.9996004 
				7.652,5.6525998 14,5.6525998 			"/>
		</g>
	</g>
</g>
</svg>
