<svg width="87" height="85" viewBox="0 0 87 85" fill="none" xmlns="http://www.w3.org/2000/svg">
<path fill-rule="evenodd" clip-rule="evenodd" d="M61.2396 26.8209L71.4868 40.9529L77.3407 59.941C84.7734 84.0489 84.2108 82.4094 85.0467 82.4094C85.4406 82.4094 86.0572 82.7542 86.417 83.1751C87.9764 85.001 85.6335 85.0957 42.5432 84.956C3.0851 84.828 0.218185 84.7568 0.0484725 83.9012C-0.0688933 83.3073 0.317367 82.872 1.14334 82.668C2.27236 82.3891 2.86415 80.9525 6.27657 70.1996L10.1337 58.0465L13.6651 53.763C15.6074 51.407 18.3261 48.1542 19.7059 46.5344C21.2851 44.6812 21.6096 44.1169 20.5825 45.0121C17.3806 47.8024 12.3846 47.8966 10.008 45.2119C8.9286 43.9927 8.5236 43.8647 6.96865 44.2518C5.98178 44.4976 4.64723 44.617 4.00309 44.5174C2.18971 44.2357 0.431427 42.0431 0.10137 39.6523C-0.157606 37.7745 0.0148614 37.276 1.38633 35.9385C2.25748 35.0887 3.39478 33.523 3.91273 32.4586C4.43123 31.3941 5.53601 30.0898 6.36859 29.5602C8.42112 28.2532 12.6788 28.2719 14.1831 29.595C15.1457 30.441 15.5854 30.5021 17.0786 29.9966C20.9027 28.7008 22.3524 29.2641 25.7213 33.3565C26.1125 33.8309 26.6084 34.2186 26.8233 34.2181C27.0387 34.217 28.4549 31.8782 29.9701 29.0199C31.4854 26.1617 33.0233 23.7367 33.3881 23.6307C33.7545 23.5241 34.9337 25.1401 36.0219 27.2401L37.9923 31.0429L42.9917 21.2527C45.7412 15.8683 48.2753 11.2832 48.623 11.0642C49.449 10.5438 49.3096 10.3692 61.2396 26.8209ZM40.1639 32.8382C40.1633 32.5673 42.1922 28.3094 44.6717 23.3763C47.1513 18.4432 49.2385 14.4076 49.3096 14.4076C49.4363 14.4076 60.4726 29.5431 61.1856 30.6948C61.3834 31.0134 60.8588 32.5855 60.0207 34.1886L58.4966 37.1031L56.6309 34.3219C55.5586 32.7236 54.4142 31.5981 53.9392 31.6752C53.4846 31.7491 52.2107 33.5787 51.1081 35.7409L49.1035 39.6721L47.8819 36.1039C46.4085 31.8027 45.4872 31.2817 43.5113 33.6344C42.0952 35.3205 42.0335 35.3388 41.1105 34.3482C40.5898 33.7892 40.1639 33.1097 40.1639 32.8382ZM29.488 38.1161C29.2125 36.1628 29.4764 35.1899 31.2022 31.8005C32.3241 29.5966 33.3737 27.7964 33.5346 27.7997C33.6955 27.8023 35.8897 31.763 38.4111 36.6008C42.4952 44.4381 42.9223 45.5315 42.3327 46.6345C40.9006 49.3139 40.6532 49.3268 39.0123 46.8129C38.0353 45.3152 37.1603 44.519 36.6864 44.6957C36.2688 44.8515 35.467 46.7743 34.9045 48.9691C34.3424 51.1639 33.7314 52.9598 33.5479 52.9598C33.3638 52.9598 32.7753 51.3192 32.2398 49.3134C30.6402 43.3191 29.9734 43.0904 27.7986 47.7911L26.5224 50.5503L25.3653 48.1408C23.8693 45.0245 23.8958 44.4837 25.5637 44.0767C26.3224 43.8915 27.5887 42.9946 28.3783 42.0827C29.6015 40.6697 29.7652 40.0844 29.488 38.1161ZM5.96525 33.7961C6.37135 32.8275 7.22101 31.6827 7.85247 31.2528C9.6069 30.0587 11.2842 30.3104 13.3554 32.0773C15.5782 33.9739 15.9788 34.028 17.2968 32.6128C17.8451 32.0238 18.8871 31.5419 19.6111 31.5419C21.0564 31.5419 23.6335 33.719 23.6335 34.9398C23.6335 35.3634 24.2462 35.8587 24.995 36.0413C27.7259 36.7074 28.0972 39.8831 25.6282 41.4552C24.6248 42.0934 24.0793 42.1191 22.6483 41.5944C20.9809 40.9829 20.8057 41.0477 19.0221 42.94C17.5657 44.4853 16.732 44.9281 15.279 44.9281C13.0662 44.9281 11.0864 43.7142 10.3882 41.929C9.81683 40.4689 8.66356 40.2654 7.65411 41.4477C6.13882 43.2221 2.14398 41.7647 2.14398 39.4376C2.14398 38.8652 2.8377 37.7579 3.68516 36.9772C4.53317 36.1965 5.55915 34.7653 5.96525 33.7961ZM58.8752 40.1091C59.4598 40.1091 60.3767 38.9327 61.3779 36.8964C62.2468 35.1294 63.0982 33.6917 63.2701 33.7014C63.4414 33.711 64.9457 35.6659 66.6125 38.0454C69.5615 42.2551 69.8078 42.9062 75.7681 62.2568C81.4171 80.5969 81.81 82.1556 80.8248 82.3178C80.2374 82.4148 79.4627 82.3842 79.1034 82.2504C78.7442 82.1165 74.3614 74.6299 69.3632 65.6135C64.3649 56.5971 59.98 49.2181 59.619 49.2159C59.2576 49.2138 57.2739 50.6531 55.2109 52.4152C53.1474 54.1769 51.3318 55.6226 51.1759 55.6279C51.0199 55.6327 48.9718 51.8959 46.6245 47.3226L42.3575 39.0087L43.568 37.4168C44.2342 36.5419 44.9318 35.8255 45.118 35.8255C45.3037 35.8255 45.9159 37.0902 46.4774 38.6366C46.5896 38.9456 46.6951 39.2367 46.7944 39.5108C47.9608 42.7295 48.278 43.6048 48.7051 43.6588C48.8646 43.6789 49.0394 43.5845 49.2795 43.4548C49.3341 43.4254 49.3921 43.3941 49.454 43.3619C50.0232 43.0658 51.3065 41.0161 52.3055 38.8074L54.1216 34.7915L56.0369 37.45C57.0905 38.9123 58.3677 40.1091 58.8752 40.1091ZM16.829 53.7057C19.2078 50.894 21.3964 48.257 21.6928 47.8463C22.3838 46.8878 22.5722 47.14 24.4325 51.5087C25.2838 53.5086 26.258 55.0646 26.5979 54.9666C26.9374 54.8692 27.8228 53.5284 28.5656 51.988L29.9167 49.187L31.3262 54.1522C33.3693 61.3503 34.2168 60.8485 36.8699 50.8699L37.497 48.5118L38.8618 50.7361C39.6123 51.959 40.5793 52.9598 41.0113 52.9598C41.4428 52.9598 42.3905 51.8225 43.1179 50.4319L44.4397 47.9041L47.2659 53.3769C48.8203 56.3872 50.3235 58.8497 50.6067 58.8497C50.8899 58.8497 52.8862 57.3703 55.0429 55.5621C57.3087 53.6623 59.1667 52.4752 59.4438 52.751C59.7072 53.0128 63.5357 59.7332 67.9509 67.6846L75.9792 82.1417L40.6267 82.2793C21.1831 82.3553 5.20485 82.3494 5.11945 82.267C5.03459 82.184 6.66118 76.8745 8.73464 70.4673L12.5041 58.8187L16.829 53.7057Z" fill="#E04A5E"/>
<path fill-rule="evenodd" clip-rule="evenodd" d="M71.7573 5.33174C72.9409 6.23665 73.4015 6.32125 74.3779 5.81365C75.8888 5.02814 78.8153 5.02279 80.3157 5.80294C80.9548 6.13545 81.832 7.07141 82.2635 7.88315C82.6955 8.69489 83.6625 9.67797 84.4124 10.0678C86.0677 10.9288 87 12.7739 87 15.1883C87 18.0775 83.9413 20.1577 80.2358 19.7878C79.698 19.7342 78.5006 20.3087 77.576 21.0648C74.5432 23.545 70.3721 23.575 67.7515 21.1349C66.5547 20.0207 65.9579 19.8456 64.2652 20.1128C58.5407 21.0155 55.3035 15.1899 59.2361 11.0632C60.1491 10.1047 61.1856 8.65741 61.5393 7.84728C62.9846 4.53339 68.8303 3.09464 71.7573 5.33174ZM63.3064 10.063C63.3064 9.48093 63.9153 8.41324 64.6592 7.69039C66.6136 5.79062 69.0502 5.93251 71.1 8.06467L72.7238 9.754L74.3295 8.60011C75.2127 7.96561 76.5649 7.44676 77.3352 7.44676C78.8417 7.44676 80.9389 9.12271 80.9389 10.3269C80.9389 10.7328 81.686 11.3657 82.5991 11.733C86.7013 13.3843 84.462 18.7431 80.3063 17.2187C78.6163 16.5992 78.4604 16.6602 76.5197 18.7024C74.9637 20.3409 74.0848 20.8329 72.7161 20.8329C70.9561 20.8329 68.767 19.1955 67.4357 16.884C66.9095 15.9695 66.8087 15.9775 65.4207 17.0388C63.4817 18.5203 61.9702 18.4486 60.6445 16.8107C59.2901 15.1374 59.6356 13.6617 61.7201 12.2197C62.5929 11.6158 63.3064 10.6455 63.3064 10.063Z" fill="#E04A5E"/>
<path fill-rule="evenodd" clip-rule="evenodd" d="M20.7049 0.52182C21.5578 0.835592 22.8031 1.59111 23.472 2.19991C24.6341 3.25742 24.7735 3.26759 26.5858 2.43176C29.6842 1.00319 32.6409 1.28269 34.91 3.21887C35.9811 4.13288 36.8578 5.19306 36.8578 5.57537C36.8578 5.95768 37.7075 6.7571 38.7456 7.35252C44.4138 10.6022 44.0303 17.7311 38.0794 19.7455C36.2704 20.358 35.3949 20.3998 34.1281 19.9355C32.6734 19.4017 32.41 19.4734 31.6408 20.6145C30.4385 22.397 26.8542 24.0456 24.179 24.0456C21.4675 24.0456 19.2788 23.0245 17.4401 20.9009L16.0747 19.3235L13.5951 20.1171C11.4026 20.8185 10.888 20.818 9.15176 20.1133C6.47329 19.0258 5.17455 16.9311 5.17455 13.7008C5.17455 11.3523 5.38559 10.8934 7.15489 9.39365C8.24424 8.47 9.29227 7.09122 9.48457 6.32875C10.0229 4.19659 12.0203 2.05962 14.4982 0.965705C17.088 -0.17694 18.5272 -0.280281 20.7049 0.52182ZM11.5095 8.24993C11.5189 6.49152 13.6133 3.69006 15.5171 2.89064C16.4957 2.47942 17.6688 2.23311 18.1234 2.34287C20.7864 2.98702 21.5126 3.37254 22.7475 4.7979C24.4066 6.7148 25.1714 6.75764 26.8597 5.02815C28.5921 3.25314 31.2727 3.25635 33.4492 5.03564C34.3485 5.77081 35.2323 6.9156 35.4125 7.57902C35.5927 8.24244 36.5498 9.14681 37.5389 9.58855C41.1353 11.1944 41.3458 15.6509 37.9075 17.3788C36.4996 18.0861 36.0958 18.0845 34.3182 17.3627C31.6353 16.2731 31.6221 16.2768 30.3184 18.4234C27.9055 22.3981 22.8907 22.8955 19.4023 19.5056C18.3961 18.5278 17.5723 17.3418 17.5723 16.8706C17.5723 15.7167 16.6588 15.7922 14.9677 17.0848C12.4055 19.0435 8.86468 18.3179 7.7048 15.5973C6.83585 13.5589 7.68717 11.4316 9.8499 10.2359C10.8175 9.70046 11.5068 8.8764 11.5095 8.24993Z" fill="#E04A5E"/>
<path d="M31.2022 31.8005C29.4764 35.1899 29.2125 36.1628 29.488 38.1161C29.7652 40.0844 29.6015 40.6697 28.3783 42.0827C27.5887 42.9946 26.3224 43.8915 25.5637 44.0767C23.8958 44.4837 23.8693 45.0245 25.3653 48.1408L26.5224 50.5503L27.7986 47.7911C29.9734 43.0904 30.6402 43.3191 32.2398 49.3134C32.7753 51.3192 33.3638 52.9598 33.5479 52.9598C33.7314 52.9598 34.3424 51.1639 34.9045 48.9691C35.467 46.7743 36.2688 44.8515 36.6864 44.6957C37.1603 44.519 38.0353 45.3152 39.0123 46.8129C40.6532 49.3268 40.9006 49.3139 42.3327 46.6345C42.9223 45.5315 42.4952 44.4381 38.4111 36.6008C35.8897 31.763 33.6955 27.8023 33.5346 27.7997C33.3737 27.7964 32.3241 29.5966 31.2022 31.8005Z" fill="#E04A5E" fill-opacity="0.5"/>
<path d="M44.6717 23.3763C42.1922 28.3094 40.1633 32.5673 40.1639 32.8382C40.1639 33.1097 40.5898 33.7892 41.1105 34.3482C42.0335 35.3388 42.0952 35.3205 43.5113 33.6344C45.4872 31.2817 46.4085 31.8027 47.8819 36.1039L49.1035 39.6721L51.1081 35.7409C52.2107 33.5787 53.4846 31.7491 53.9392 31.6752C54.4142 31.5981 55.5586 32.7236 56.6309 34.3219L58.4966 37.1031L60.0207 34.1886C60.8588 32.5855 61.3834 31.0134 61.1856 30.6948C60.4726 29.5431 49.4363 14.4076 49.3096 14.4076C49.2385 14.4076 47.1513 18.4432 44.6717 23.3763Z" fill="#E04A5E" fill-opacity="0.5"/>
</svg>
