<?xml version="1.0" encoding="utf-8"?>
<!-- Generator: Adobe Illustrator 23.0.1, SVG Export Plug-In . SVG Version: 6.00 Build 0)  -->
<svg xmlns="http://www.w3.org/2000/svg" width="16" height="16" viewBox="0 0 16 16" fill="none">
	<path fill-rule="evenodd" clip-rule="evenodd"
		d="M10.2002 2.00781C10.4262 2.04539 10.6147 2.21046 10.6787 2.43652L11.5674 5.5752L11.7314 6.15234L11.7227 6.1543L12.0322 7.26953C12.0727 7.26782 12.1134 7.26367 12.1543 7.26367C13.7283 7.26367 15.0039 8.53927 15.0039 10.1133C15.0039 11.6873 13.7283 12.9629 12.1543 12.9629C10.5803 12.9629 9.30469 11.6873 9.30469 10.1133C9.30469 9.00123 9.94227 8.03985 10.8711 7.57031L10.6387 6.73633L8.36523 9.67969C8.24148 9.83964 8.04538 9.92692 7.84375 9.91113C7.64195 9.89528 7.4615 9.77811 7.36426 9.60059L6.14062 7.36719L5.75098 8.03418C6.33173 8.55582 6.69922 9.3101 6.69922 10.1523C6.69922 11.7264 5.42362 13.002 3.84961 13.002C2.2756 13.002 1 11.7264 1 10.1523C1 8.57833 2.2756 7.30273 3.84961 7.30273C4.15053 7.30273 4.44061 7.34913 4.71289 7.43555L5.46875 6.14062L4.84766 5.00586H4.20312C3.87175 5.00586 3.60352 4.73762 3.60352 4.40625C3.60352 4.07488 3.87175 3.80664 4.20312 3.80664H6.45312L6.57422 3.81836C6.84755 3.87436 7.05273 4.11635 7.05273 4.40625C7.05273 4.69615 6.84755 4.93814 6.57422 4.99414L6.45312 5.00586H6.21582L6.5 5.52441L10.1338 4.91602L9.64844 3.19922H8V2H10.1016L10.2002 2.00781ZM3.84961 8.50195C2.93834 8.50195 2.19922 9.24107 2.19922 10.1523C2.19922 11.0636 2.93834 11.8027 3.84961 11.8027C4.76088 11.8027 5.5 11.0636 5.5 10.1523C5.5 9.75539 5.35961 9.3912 5.12598 9.10645L4.42969 10.2988C4.26245 10.5848 3.89541 10.6808 3.60938 10.5137C3.32345 10.3464 3.22741 9.97939 3.39453 9.69336L4.08008 8.51953C4.00469 8.50898 3.9279 8.50195 3.84961 8.50195ZM12.7168 9.73438L12.7373 9.85352C12.7567 10.132 12.5783 10.3951 12.2988 10.4727C12.0194 10.5501 11.7314 10.4166 11.6045 10.168L11.5605 10.0547L11.2021 8.76562C10.7799 9.06458 10.5039 9.55668 10.5039 10.1133C10.5039 11.0246 11.243 11.7637 12.1543 11.7637C13.0656 11.7637 13.8047 11.0246 13.8047 10.1133C13.8047 9.27419 13.1779 8.58208 12.3672 8.47754L12.7168 9.73438ZM7.10938 6.63867L7.97559 8.21973L9.50684 6.2373L7.10938 6.63867Z"
		fill="#181C56" />
</svg>
