<svg xmlns="http://www.w3.org/2000/svg" width="16" height="16" viewBox="0 0 16 16" fill="none">
    <path d="M11.0938 11.5156C11.7841 11.5156 12.3438 10.956 12.3438 10.2656C12.3438 9.57525 11.7841 9.0156 11.0938 9.0156C10.4034 9.0156 9.84375 9.57525 9.84375 10.2656C9.84375 10.956 10.4034 11.5156 11.0938 11.5156Z" fill="#388F76"/>
    <path d="M12.8931 6.25576C11.8875 5.25016 10.2571 5.25016 9.25151 6.25576L8.65047 5.65472C9.98801 4.31718 12.1566 4.31718 13.4942 5.65472L12.8931 6.25576Z" fill="#388F76"/>
    <path d="M10.3122 7.86606C10.732 7.44624 11.4126 7.44624 11.8324 7.86606L12.4335 7.26502C11.6817 6.51326 10.4629 6.51326 9.71112 7.26502L10.3122 7.86606Z" fill="#388F76"/>
    <path fill-rule="evenodd" clip-rule="evenodd" d="M8.625 1.99683C7.83799 1.99683 7.2 2.63482 7.2 3.42183V4.49998H6.82843C6.16539 4.49998 5.5295 4.76337 5.06066 5.23221L3.75349 6.53937L2.20583 6.84891C1.50469 6.98914 1 7.60476 1 8.31978V9.99998C1 10.2761 1.22386 10.5 1.5 10.5H2.25C2.25 9.39541 3.14543 8.49998 4.25 8.49998C5.35457 8.49998 6.25 9.39541 6.25 10.5H7.2V12.5742C7.2 13.3612 7.83799 13.9992 8.625 13.9992H13.5781C14.3651 13.9992 15.0031 13.3612 15.0031 12.5742V3.42183C15.0031 2.63482 14.3651 1.99683 13.5781 1.99683H8.625ZM8.05 3.42183C8.05 3.10426 8.30744 2.84683 8.625 2.84683H13.5781C13.8957 2.84683 14.1531 3.10426 14.1531 3.42183V12.5742C14.1531 12.8918 13.8957 13.1492 13.5781 13.1492H8.625C8.30744 13.1492 8.05 12.8918 8.05 12.5742V3.42183Z" fill="#388F76"/>
    <path d="M5.51562 10.5C5.51562 11.1903 4.95598 11.75 4.26562 11.75C3.57527 11.75 3.01562 11.1903 3.01562 10.5C3.01562 9.80962 3.57527 9.24998 4.26562 9.24998C4.95598 9.24998 5.51562 9.80962 5.51562 10.5Z" fill="#388F76"/>
</svg>