<?xml version="1.0" encoding="utf-8"?>
<!-- Generator: Adobe Illustrator 23.0.1, SVG Export Plug-In . SVG Version: 6.00 Build 0)  -->
<svg version="1.1" id="running" xmlns="http://www.w3.org/2000/svg" xmlns:xlink="http://www.w3.org/1999/xlink" x="0px" y="0px"
	 width="16px" height="16px" viewBox="0 0 16 16" enable-background="new 0 0 16 16" xml:space="preserve">
<g>
	<path fill-rule="evenodd" clip-rule="evenodd" fill="#181C56" d="M10.1318874,3.999979c0.6901855,0,1.25-0.5596313,1.25-1.2495728
		c0-0.6898804-0.5598145-1.2504272-1.25-1.2504272c-0.6911011,0-1.25,0.5605469-1.25,1.2504272
		C8.8818874,3.4403477,9.4407864,3.999979,10.1318874,3.999979z"/>
	<path fill-rule="evenodd" clip-rule="evenodd" fill="#181C56" d="M13.5334377,6.5856934L11.7988796,6.703186
		c-0.0452881,0.0031128-0.0894775-0.0145264-0.1203003-0.0478516l-1.362854-1.4755249
		c-0.0990601-0.1072998-0.2163086-0.196228-0.3463135-0.2628174L8.3684597,4.09729
		C8.1077785,3.9730225,7.8060818,3.9675293,7.5410061,4.0822144L5.3284206,5.0319824
		C5.2350979,5.0720215,5.1534939,5.1350708,5.091238,5.21521L3.5003569,7.2631836
		C3.3297026,7.4266357,3.3239043,7.6974487,3.4873564,7.868103c0.1633911,0.1706543,0.4342651,0.1764526,0.6048582,0.0130005
		l1.578064-1.7437744C5.6971951,6.107605,5.7307644,6.0847778,5.768301,6.0708008L7.17626,5.5458984L6.1664944,7.9575806
		c-0.156189,0.3283691-0.1784668,0.7046509-0.0621338,1.0491333l0.0374146,0.1108398
		c0.1116333,0.3305664,0.3426514,0.6075439,0.6478271,0.7766724l2.6674194,1.4780884
		c0.0271606,0.02771,0.0526123,0.0536499,0.0797119,0.0813599l1.6902466,3.2049561
		c0.1430054,0.2990112,0.5012817,0.4254761,0.8001709,0.2825317c0.2988892-0.1430054,0.425415-0.5012207,0.2824707-0.8002319
		l-1.4226685-3.4282227c-0.0692749-0.1668701-0.182373-0.3118896-0.3273926-0.4196167L8.5011501,8.7642212l1.1417236-2.4397583
		l1.5186157,1.3532715c0.1142578,0.1018677,0.2689209,0.145752,0.4196777,0.1190796l2.0296631-0.3589478
		c0.2352905-0.0213623,0.4087524-0.2294922,0.3873901-0.4648438C13.9768581,6.7377319,13.7687283,6.5643311,13.5334377,6.5856934z"
		/>
	<path fill-rule="evenodd" clip-rule="evenodd" fill="#181C56" d="M5.70751,9.6004639
		C5.6545925,9.4736328,5.6333523,9.3178711,5.6333523,9.3178711l-0.9754028,1.7506714l-2.8862302,1.133606
		c-0.3130493,0.1088257-0.4786377,0.4507446-0.369812,0.7637329c0.1087646,0.3129883,0.4506836,0.4785767,0.7637939,0.369812
		l3.3713987-0.958374l1.1328125-1.8517456l-0.3292236-0.1824341C5.98699,10.1150513,5.8271999,9.8874512,5.70751,9.6004639z"/>
</g>
</svg>
