<?xml version="1.0" encoding="utf-8"?>
<!-- Generator: Adobe Illustrator 23.0.1, SVG Export Plug-In . SVG Version: 6.00 Build 0)  -->
<svg version="1.1" id="standing" xmlns="http://www.w3.org/2000/svg" xmlns:xlink="http://www.w3.org/1999/xlink" x="0px" y="0px"
	 width="16px" height="16px" viewBox="0 0 16 16" enable-background="new 0 0 16 16" xml:space="preserve">
<g>
	<path fill-rule="evenodd" clip-rule="evenodd" fill="#181C56" d="M7.9999933,3.5c-0.6911106,0-1.25-0.5596175-1.25-1.2495313
		S7.3088827,1,7.9999933,1c0.6901722,0,1.25,0.560555,1.25,1.2504687S8.6901655,3.5,7.9999933,3.5z"/>
	<path fill-rule="evenodd" clip-rule="evenodd" fill="#181C56" d="M10.9898615,8.786499l-0.8249512-3.9890137
		C10.068841,4.3330688,9.6598444,4,9.1856012,4H6.8143244c-0.4742432,0-0.8832397,0.3330688-0.979248,0.7974854L5.0101252,8.786499
		C4.9592218,9.0172119,5.1049738,9.2455444,5.3356867,9.2964478c0.2307739,0.0509033,0.4591064-0.0948486,0.5100098-0.3255615
		L6.433404,6.7744141h0.046814L6.4999933,10v4.3999634C6.4999933,14.7313843,6.768609,15,7.0999689,15
		s0.6000366-0.2686157,0.6000366-0.6000366l0.1013184-4.3380737C7.8046198,10.0291748,7.8265314,10,7.8572321,10H8.146966
		c0.0315552,0,0.0551758,0.0297241,0.0574951,0.0635986l0.09552,4.3363647C8.2999811,14.7313843,8.5685968,15,8.8999567,15
		c0.3314209,0,0.6000366-0.2686157,0.6000366-0.6000366V10l0.0197754-3.2255859h0.0467529l0.5877686,2.1964722
		C10.2051935,9.2015991,10.433526,9.3473511,10.6643,9.2964478C10.8950129,9.2455444,11.0407648,9.0172119,10.9898615,8.786499z"/>
</g>
</svg>
