<?xml version="1.0" encoding="utf-8"?>
<!-- Generator: Adobe Illustrator 23.0.1, SVG Export Plug-In . SVG Version: 6.00 Build 0)  -->
<svg version="1.1" id="strolling" xmlns="http://www.w3.org/2000/svg" xmlns:xlink="http://www.w3.org/1999/xlink" x="0px" y="0px"
	 width="16px" height="16px" viewBox="0 0 16 16" enable-background="new 0 0 16 16" xml:space="preserve">
<g>
	<path fill-rule="evenodd" clip-rule="evenodd" fill="#181C56" d="M11.9171219,8.5101929L10.555809,6.8294325
		c-0.0115919-0.0143123-0.0211515-0.0301571-0.0284071-0.0470853L9.5945663,4.60605
		C9.4369736,4.2383852,9.0754385,4.0000095,8.6754217,4.0000176l-1.56879,0.0000324
		C6.7690077,4.0000567,6.4541826,4.1704273,6.2695084,4.4530673L5.1428642,6.1773691
		C5.0645313,6.297256,5.0136929,6.4269753,4.9921904,6.5685616C4.9047842,7.1440992,4.6698074,8.7045288,4.6698074,8.7045288
		C4.6074295,8.932373,4.7416458,9.1677246,4.9695511,9.2301025s0.4631958-0.0718384,0.5255737-0.2996826L6.049324,6.7976074
		l0.517334-0.7401123l0.0110931,1.9262295c0.0017462,0.3032541,0.090714,0.5996008,0.2562847,0.853673l1.707983,2.6209326
		c0.0113516,0.0174198,0.0199184,0.0365019,0.0253897,0.0565615l0.8237123,3.0196543
		c0.0744629,0.322998,0.3965454,0.5244141,0.7194214,0.4499512c0.322876-0.0744019,0.5244141-0.3964844,0.4499512-0.7194824
		l-0.5302334-3.01898c-0.0115128-0.0655518-0.029542-0.1297913-0.0538177-0.191761L8.9978914,8.556284
		c-0.0098-0.0250187-0.0144596-0.051755-0.0136986-0.0786133l0.0621109-2.1922784L9.552701,7.1794167
		c0.0382938,0.0676074,0.0818853,0.127955,0.1347752,0.1848745c0.3223572,0.3469138,1.5397043,1.6520052,1.5397043,1.6520052
		c0.1397095,0.1905518,0.4075317,0.2316284,0.5980225,0.0919189C12.0157547,8.9684448,12.0568314,8.7006836,11.9171219,8.5101929z"
		/>
	<path fill-rule="evenodd" clip-rule="evenodd" fill="#181C56" d="M6.5066204,9.3621511l-0.0726619,1.8147516
		c-0.0007229,0.0208006-0.0046744,0.0413351-0.0117154,0.060935l-1.0588264,2.9454041
		c-0.1244006,0.3072424,0.0236845,0.6570854,0.3308673,0.7814226c0.3070593,0.1243963,0.6569614-0.0236263,0.7814231-0.3308668
		l1.2987294-2.7764702c0.028183-0.0602636,0.0503292-0.123188,0.0659881-0.1878672l0.0713916-0.2520456L6.5066204,9.3621511z"/>
	<path fill-rule="evenodd" clip-rule="evenodd" fill="#181C56" d="M8.0029306,3.5c-0.6911101,0-1.25-0.5596175-1.25-1.2495313
		S7.3118205,1,8.0029306,1c0.6901731,0,1.25,0.560555,1.25,1.2504687S8.6931038,3.5,8.0029306,3.5z"/>
</g>
</svg>
