<?xml version="1.0" encoding="utf-8"?>
<!-- Generator: Adobe Illustrator 24.2.1, SVG Export Plug-In . SVG Version: 6.00 Build 0)  -->
<svg version="1.1" id="Layer_1" xmlns="http://www.w3.org/2000/svg" xmlns:xlink="http://www.w3.org/1999/xlink" x="0px" y="0px"
	 width="14px" height="14px" viewBox="0 0 14 14" enable-background="new 0 0 14 14" xml:space="preserve">
<g id="_x30_5.-Icons">
	<g id="_x30_3---Iconography" transform="translate(-1137.000000, -141.000000)">
		<g id="Icon_x2F_Social-Media_x2F_Linkedin" transform="translate(1136.000000, 140.000000)">
			<path id="Icon-Fill" fill-rule="evenodd" clip-rule="evenodd" fill="#181C56" d="M13,12.9240503h-1.9459457V10.113924
				c0-0.6835442,0-1.5189877-0.9729729-1.5189877S8.9459457,9.3544302,8.9459457,10.113924V13H7V7.1518989h1.8648653v0.7594934
				C9.1081085,7.4556961,9.7567568,7,10.6486483,7c1.9459467,0,2.2702703,1.2151899,2.2702703,2.7341776v3.1898727H13z M4,5
				C3.4285715,5,3,4.5,3,4c0-0.5714285,0.4285715-1,1-1s1,0.4285715,1,1C4.9285712,4.5,4.5,5,4,5L4,5z M4.9166665,13H3V7h2v6
				H4.9166665z M14.304348,1H1.6086956C1.2608696,1,1,1.2625,1,1.6125v12.8625002C1,14.7375002,1.2608696,15,1.6086956,15h12.782608
				C14.73913,15,15,14.7375002,15,14.3874998V1.6125C14.913044,1.2625,14.652174,1,14.304348,1L14.304348,1z"/>
		</g>
	</g>
</g>
</svg>
