<?xml version="1.0" encoding="utf-8"?>
<!-- Generator: Adobe Illustrator 22.0.1, SVG Export Plug-In . SVG Version: 6.00 Build 0)  -->
<svg version="1.1" id="Layer_1" xmlns="http://www.w3.org/2000/svg" xmlns:xlink="http://www.w3.org/1999/xlink" x="0px" y="0px"
	 viewBox="0 0 16 16" enable-background="new 0 0 16 16" xml:space="preserve">
<title>Icon/Social Media/Skype</title>
<desc>Created with Sketch.</desc>
<g id="Icon_x2F_Social-Media_x2F_Skype">
	<path id="Icon-Fill" fill="#181C56" d="M8,12.02499c-2.3625,0-3.4125-1.1375-3.4125-2.0125c0-0.4375,0.35-0.7875,0.7875-0.7875
		c0.9625,0,0.7875,1.4,2.625,1.4c0.9625,0,1.4875-0.525,1.4875-1.05c0-1.05-1.225-0.875-2.8875-1.3125
		c-1.6625-0.4375-1.925-1.3125-1.925-2.1875c0-1.75,1.6625-2.45,3.2375-2.45c1.4875,0,3.15,0.7875,3.15,1.8375
		c0,0.4375-0.4375,0.7-0.875,0.7c-0.875,0-0.7-1.225-2.45-1.225c-0.875,0-1.3125,0.35-1.3125,0.9625
		c0,0.7875,1.575,0.9625,2.8,1.225c1.6625,0.4375,2.1,1.4,2.1,2.275C11.4125,10.97499,10.275,12.02499,8,12.02499 M14.475,9.13749
		c0.0875-0.35,0.525-3.325-1.8375-5.8625c-2.1875-2.3625-5.6-1.925-5.95-1.8375c-0.525-0.2625-1.1375-0.4375-1.75-0.4375
		C1.875,0.99999,1,3.88749,1,4.93749s0.525,1.925,0.525,1.925c-0.35,1.4,0.0875,2.8875,0.35,3.675
		c0.7875,2.0125,2.7125,3.15,3.5,3.5c1.925,0.7875,3.5,0.4375,3.7625,0.4375c0.6125,0.35,1.225,0.525,1.925,0.525
		c1.05,0,3.9375-0.875,3.9375-3.9375C15,10.01249,14.475,9.13749,14.475,9.13749"/>
</g>
</svg>
