<?xml version="1.0" encoding="utf-8"?>
<!-- Generator: Adobe Illustrator 22.0.1, SVG Export Plug-In . SVG Version: 6.00 Build 0)  -->
<svg version="1.1" id="Layer_1" xmlns="http://www.w3.org/2000/svg" xmlns:xlink="http://www.w3.org/1999/xlink" x="0px" y="0px"
	 viewBox="0 0 16 16" enable-background="new 0 0 16 16" xml:space="preserve">
<title>Icon/Social Media/Twitter</title>
<desc>Created with Sketch.</desc>
<g id="Icon_x2F_Social-Media_x2F_Twitter">
	<path id="Icon-Fill" fill="#181C56" d="M15,4.26922c-0.525,0.25385-1.05,0.33846-1.6625,0.42308
		c0.6125-0.33846,1.05-0.84615,1.225-1.52308c-0.525,0.33846-1.1375,0.50769-1.8375,0.67692
		c-0.525-0.50769-1.3125-0.84615-2.1-0.84615c-1.4875,0-2.8,1.26923-2.8,2.79231c0,0.25385,0,0.42308,0.0875,0.59231
		c-2.3625-0.08462-4.55-1.18462-5.95-2.87692c-0.2625,0.42308-0.35,0.84615-0.35,1.43846c0,0.93077,0.525,1.77692,1.3125,2.28462
		c-0.4375,0-0.875-0.16923-1.3125-0.33846c0,1.35385,0.9625,2.45385,2.275,2.70769C3.625,9.6846,3.3625,9.6846,3.1,9.6846
		c-0.175,0-0.35,0-0.525-0.08461c0.35,1.1,1.4,1.94615,2.7125,1.94615C4.325,12.30768,3.1,12.73075,1.7,12.73075H1
		c1.3125,0.76154,2.8,1.26923,4.375,1.26923c5.25,0,8.1375-4.23077,8.1375-7.86923V5.79229C14.125,5.36922,14.65,4.86152,15,4.26922
		"/>
</g>
</svg>
