<?xml version="1.0" encoding="utf-8"?>
<!-- Generator: Adobe Illustrator 22.0.1, SVG Export Plug-In . SVG Version: 6.00 Build 0)  -->
<svg version="1.1" id="Layer_1" xmlns="http://www.w3.org/2000/svg" xmlns:xlink="http://www.w3.org/1999/xlink" x="0px" y="0px"
	 viewBox="0 0 16 16" enable-background="new 0 0 16 16" xml:space="preserve">
<title>Icon/Social Media/Vimeo</title>
<desc>Created with Sketch.</desc>
<g id="Icon_x2F_Social-Media_x2F_Vimeo">
	<path id="Icon-Fill" fill="#181C56" d="M14.99271,4.84891c-0.08745,1.3813-1.04945,3.19424-2.886,5.52518
		c-1.924,2.41727-3.49818,3.6259-4.80999,3.6259c-0.78709,0-1.48673-0.77698-2.09891-2.2446
		C4.49818,9.68344,3.97345,5.45322,2.74909,5.45322c-0.08745,0-0.43727,0.25899-1.04945,0.69065L1,5.28056
		c0.69964-0.60432,3.06091-2.93525,4.11036-3.02158c1.04945-0.08633,1.74909,0.60432,2.01145,2.15827
		c0.26236,1.72662,0.69964,5.26619,1.57418,5.26619c0.78709,0,2.18636-2.93525,2.27382-3.45324
		c0.08745-0.77698-0.26236-1.64029-2.01145-0.94964c0.69964-2.2446,2.01145-3.28058,3.93545-3.28058
		C14.38053,2.08632,15.08017,3.03596,14.99271,4.84891"/>
</g>
</svg>
