<?xml version="1.0" encoding="utf-8"?>
<!-- Generator: Adobe Illustrator 22.0.1, SVG Export Plug-In . SVG Version: 6.00 Build 0)  -->
<svg version="1.1" id="Layer_1" xmlns="http://www.w3.org/2000/svg" xmlns:xlink="http://www.w3.org/1999/xlink" x="0px" y="0px"
	 viewBox="0 0 16 16" enable-background="new 0 0 16 16" xml:space="preserve">
<title>Icon/Social Media/Youtube</title>
<desc>Created with Sketch.</desc>
<g id="Icon_x2F_Social-Media_x2F_Youtube">
	<path id="Icon-Fill" fill="#181C56" d="M6.25,10.49999v-5l4.375,2.5L6.25,10.49999z M14.825,5.33332
		c-0.175-1.08333-0.7-1.83333-1.925-2C10.975,2.99999,8,2.99999,8,2.99999s-2.975,0-4.9,0.33333
		c-1.225,0.16667-1.8375,0.91667-1.925,2C1,6.41665,1,7.99999,1,7.99999s0,1.58333,0.175,2.66667s0.7,1.83333,1.925,2
		C5.025,12.99999,8,12.99999,8,12.99999s2.975,0,4.9-0.33333c1.225-0.25,1.75-0.91667,1.925-2S15,7.99999,15,7.99999
		S15,6.41665,14.825,5.33332L14.825,5.33332z"/>
</g>
</svg>
