<?xml version="1.0" encoding="utf-8"?>
<!-- Generator: Adobe Illustrator 24.3.0, SVG Export Plug-In . SVG Version: 6.00 Build 0)  -->
<svg version="1.1" id="Layer_1" xmlns="http://www.w3.org/2000/svg" xmlns:xlink="http://www.w3.org/1999/xlink" x="0px" y="0px"
	 width="16px" height="16px" viewBox="0 0 16 16" enable-background="new 0 0 16 16" xml:space="preserve">
<path fill="#181C56" d="M7.9971299,15c-3.8659897,0-6.999999-3.1339998-6.999999-7c0-3.8659902,3.1340094-7,6.999999-7
	c3.8659701,0,6.99997,3.1340098,6.99997,7C14.9970999,11.8660002,11.8631001,15,7.9971299,15z M7.9971299,14
	c3.3136697,0,5.99997-2.6863003,5.99997-6c0-3.3137102-2.6863003-6-5.99997-6c-3.3137097,0-6,2.6862898-6,6
	C1.99713,11.3136997,4.6834202,14,7.9971299,14z"/>
<path fill-rule="evenodd" clip-rule="evenodd" fill="#181C56" d="M8.9344997,6.29319l0.0011606,2.1337996l0.8575792,3.5195103
	c0.0572405,0.2300005,0.0544605,0.4658003-0.1732292,0.5230999c-0.2265301,0.0571003-0.40625-0.007-0.4634905-0.2357998
	L8.2029495,9.33496C8.1924896,9.3095903,8.1764097,9.2985001,8.1564503,9.2984505H7.6708398
	C7.6523299,9.2985001,7.6375699,9.3084803,7.62958,9.3344297l-0.9064002,2.8993702
	c-0.0857396,0.2208004-0.24368,0.3214998-0.46349,0.2357998C6.0411601,12.3849001,6.0445199,12.1365004,6.1303802,11.9157
	L6.95748,8.4636002V6.29319L4.5214801,6.0766201c-0.2127399-0.0171499-0.3647599-0.1347599-0.34762-0.34762
	C4.18997,5.5149899,4.39113,5.3877602,4.6028299,5.4049101h3.8583298L11.3645,5.40027
	c0.2128-0.0079899,0.4500999,0.1135602,0.4569998,0.3287301c0.0092001,0.2117-0.2441998,0.33847-0.4569998,0.34762
	L8.9344997,6.29319z M7.9971399,5.1099501c-0.4450698,0-0.8049798-0.3603802-0.8049798-0.8046699
	C7.1921601,3.86099,7.5520701,3.5,7.9971399,3.5c0.4444504,0,0.8049698,0.36099,0.8049698,0.8052802
	C8.8021097,4.7495699,8.4415903,5.1099501,7.9971399,5.1099501z"/>
</svg>
