<?xml version="1.0" encoding="utf-8"?>
<!-- Generator: Adobe Illustrator 24.3.0, SVG Export Plug-In . SVG Version: 6.00 Build 0)  -->
<svg version="1.1" id="Layer_1" xmlns="http://www.w3.org/2000/svg" xmlns:xlink="http://www.w3.org/1999/xlink" x="0px" y="0px"
	 width="16px" height="16px" viewBox="0 0 16 16" enable-background="new 0 0 16 16" xml:space="preserve">
<path fill-rule="evenodd" clip-rule="evenodd" fill="#181C56" d="M2.73352,10.3002005L2.6438,10.2931004
	c-0.2929101-0.0460005-0.5173399-0.3146505-0.5173399-0.6395102l-0.00018-2.91222h11.7469206h1.1266994V4.3464799
	C14.9998999,3.3264,14.2241001,2.5,13.2664003,2.5H2.73352C1.77588,2.5,1,3.3264,1,4.3464799v1.8102803v1.3364096v2.1604204
	C1,10.6736002,1.77588,11.5,2.73352,11.5h5.2458501l-0.0013399-1.1997995H2.73352z M2.1259799,4.8102698l0.0004802-0.37427
	c0-0.3452697,0.2715499-0.6247499,0.60706-0.6247499h10.5328808L13.3561001,3.81796
	c0.2931004,0.04456,0.5173998,0.3040798,0.5173998,0.6180398l-0.0002995,0.2548304l0,0v1.0592599H2.12604L2.1259799,4.8102698z
	 M13.0011997,10.5V8.4999704h-1V10.5h-2v1h2v2h1v-2h2v-1H13.0011997z"/>
</svg>
