<?xml version="1.0" encoding="utf-8"?>
<!-- Generator: Adobe Illustrator 24.0.1, SVG Export Plug-In . SVG Version: 6.00 Build 0)  -->
<svg version="1.1" id="Layer_1" xmlns="http://www.w3.org/2000/svg" xmlns:xlink="http://www.w3.org/1999/xlink" x="0px" y="0px"
	 width="16px" height="16px" viewBox="0 0 16 16" enable-background="new 0 0 16 16" xml:space="preserve">
<path id="Icon-Fill" fill-rule="evenodd" clip-rule="evenodd" fill="#181C56" d="M7.787879,13.242424v-1.333333H2.3329005V2.3338528
	h9.5761909V7.787879h1.333333V1.6666666c0-0.3375072-0.250803-0.6164364-0.5762033-0.6605808L12.575758,1H1.6666666
	C1.3291594,1,1.0502303,1.2508035,1.0060859,1.5762039L1,1.6666666v10.909091c0,0.3375072,0.2508035,0.616436,0.5762039,0.6605806
	l0.0904627,0.0060854H7.787879z M13.242424,10.151515l-0.0004244,1.7574854L15,11.909091v1.333333l-1.7580004-0.0004244
	L13.242424,15h-1.333333l-0.0000906-1.7580004L10.151515,13.242424v-1.333333l1.7574854-0.0000906l0.0000906-1.7574854H13.242424z"
	/>
</svg>
