<?xml version="1.0" encoding="utf-8"?>
<!-- Generator: Adobe Illustrator 24.0.1, SVG Export Plug-In . SVG Version: 6.00 Build 0)  -->
<svg version="1.1" id="Layer_1" xmlns="http://www.w3.org/2000/svg" xmlns:xlink="http://www.w3.org/1999/xlink" x="0px" y="0px"
	 width="16px" height="16px" viewBox="0 0 16 16" enable-background="new 0 0 16 16" xml:space="preserve">
<path id="Icon-Fill" fill-rule="evenodd" clip-rule="evenodd" fill="#181C56" d="M5,10.6199999c1.1046405,0,2,0.895359,2,2
	s-0.8953595,2-2,2c-0.8788772,0-1.6252763-0.5667763-1.8936594-1.3547916L1,13.2644625v-1.272727l2.1009548-0.000906
	C3.3646219,11.194478,4.1151719,10.6199999,5,10.6199999z M15,11.9917355v1.272727H8.5206614v-1.272727H15z M9.6300001,6
	c1.104641,0,2,0.8953595,2,2s-0.895359,2-2,2C8.748147,10,7.999671,9.4293795,7.7336311,8.6371965L1,8.636364V7.3636365
	l6.7336311-0.000833C7.999671,6.570621,8.748147,6,9.6300001,6z M15,7.3636365V8.636364h-1.8512402V7.3636365H15z M5,1.38
	c1.1046405,0,2,0.8953594,2,2s-0.8953595,2-2,2c-0.8848281,0-1.6353781-0.5744781-1.8990452-1.3708296L1,4.0082645V2.7355373
	l2.1063406-0.0007451C3.3747237,1.9467766,4.1211228,1.38,5,1.38z M15,2.7355373v1.2727273H8.5206614V2.7355373H15z"/>
</svg>
