<?xml version="1.0" encoding="utf-8"?>
<!-- Generator: Adobe Illustrator 24.3.0, SVG Export Plug-In . SVG Version: 6.00 Build 0)  -->
<svg version="1.1" id="Layer_1" xmlns="http://www.w3.org/2000/svg" xmlns:xlink="http://www.w3.org/1999/xlink" x="0px" y="0px"
	 width="16px" height="16px" viewBox="0 0 16 16" enable-background="new 0 0 16 16" xml:space="preserve">
<g>
	<g>
		<path fill="#181C56" d="M14.180481,11.5l-0.0025024-0.1089478c-0.003479-0.0735474-0.010498-0.1480103-0.0209961-0.2250366
			l-0.0044556-0.026001L15,10.4450073L14.1820068,9.055542l-1.036499,0.3709717l-0.0280151-0.0214844
			c-0.1754761-0.1300049-0.3670044-0.2385254-0.5725098-0.322998l-0.0369873-0.0145264L12.3179932,8h-1.6359863l-0.15625,0.8735352
			c-0.3146973-0.2188721-0.6481934-0.4126587-1.0061035-0.5612793c0.7579346-0.6582031,1.237915-1.6339111,1.237915-2.7229614
			C10.7575684,3.6068726,9.1669922,2,7.2045288,2C5.2421265,2,3.6514893,3.6068726,3.6514893,5.5892944
			c0,1.0135498,0.4157715,1.9289551,1.0845337,2.5809937C2.5661011,8.8918457,1,10.9404907,1,13.3571777V14h1.2727051v-0.6428223
			l0.0045776-0.1965942c0.1027832-2.215271,1.9335327-3.9819946,4.1799927-3.9819946h0.9642334l0.1970825,0.0045776
			C7.9718018,9.1995239,8.3100586,9.2678223,8.6350708,9.366272L8,10.4450073l0.8469849,0.6950073
			c0,0-0.0274658,0.2155151-0.0274658,0.3599854l0.0025024,0.1090088c0.003479,0.0735474,0.010498,0.1484985,0.0209961,0.2255249
			l0.0039673,0.0255127L8,12.555542l0.8179932,1.3894653l1.036499-0.3720093l0.0280151,0.022522
			c0.1754761,0.1295166,0.3670044,0.2379761,0.5725098,0.322998l0.0360107,0.0134888L10.6820068,15h1.6359863l0.1904907-1.0679932
			l0.036499-0.0139771c0.2055054-0.0845337,0.3970337-0.1929932,0.5720215-0.3225098l0.0280151-0.022522l1.0369873,0.3720093
			L15,12.555542l-0.8474731-0.6960449C14.1525269,11.8594971,14.180481,11.6445312,14.180481,11.5z M7.2045288,7.8928833
			c-1.2595215,0-2.2802734-1.031189-2.2802734-2.3035889c0-1.2723389,1.020752-2.3035278,2.2802734-2.3035278
			s2.2803345,1.031189,2.2803345,2.3035278C9.4848633,6.8616943,8.4640503,7.8928833,7.2045288,7.8928833z M14.1995239,12.6935425
			l-0.2955322,0.5020142l-0.6309814-0.2260132c-0.1530151-0.055542-0.3270264-0.0255127-0.4530029,0.0784912
			c-0.1795044,0.147522-0.3859863,0.2639771-0.6140137,0.3460083l-0.0494995,0.0209961
			c-0.128479,0.0639648-0.2194824,0.1834717-0.2445068,0.3239746l-0.1165161,0.651001h-0.59198l-0.1149902-0.651001
			c-0.0285034-0.1585083-0.1409912-0.289978-0.2944946-0.3449707c-0.2280273-0.0820312-0.4345093-0.1984863-0.614502-0.3464966
			l-0.0435181-0.0314941c-0.1204834-0.0775146-0.2724609-0.09552-0.4099731-0.0460205L9.09552,13.1955566l-0.2960205-0.5020142
			l0.5175171-0.4235229c0.1254883-0.1029663,0.1854858-0.2634888,0.1574707-0.4219971
			C9.4520264,11.7214966,9.4415283,11.6080322,9.4415283,11.5c0-0.1079712,0.010498-0.2209473,0.032959-0.3474731
			l0.0060425-0.0529785c0.0074463-0.1410522-0.0525513-0.2780151-0.1640015-0.3695068L8.7994995,10.305542L9.09552,9.8035278
			l0.6314697,0.2269897c0.1535034,0.055481,0.3270264,0.0255127,0.4525146-0.0780029
			c0.1799927-0.1480103,0.3864746-0.2644653,0.614502-0.3460083l0.0494995-0.0214844
			c0.1279907-0.0640259,0.2194824-0.1829834,0.2449951-0.3239746l0.1149902-0.651001h0.59198l0.1165161,0.651001
			c0.0280151,0.1585083,0.1400146,0.289978,0.2940063,0.3449707c0.2280273,0.0820312,0.4345093,0.1984863,0.614502,0.3464966
			l0.0435181,0.0319824c0.1204834,0.0775146,0.2730103,0.09552,0.4104614,0.0455322l0.6295166-0.2265015l0.2955322,0.5020142
			l-0.5165405,0.4244995c-0.1254883,0.1029663-0.1854858,0.2639771-0.1574707,0.4219971
			c0.0219727,0.1270142,0.032959,0.2399902,0.032959,0.3479614c0,0.1080322-0.0109863,0.2214966-0.032959,0.3475342
			l-0.0060425,0.0529785c-0.0074463,0.1409912,0.052002,0.2780151,0.1640015,0.3695068L14.1995239,12.6935425z"/>
	</g>
	<path fill="#181C56" d="M11.499939,10.2501221c-0.6889648,0-1.2504883,0.5609741-1.2504883,1.2495117
		c0,0.6895142,0.5615234,1.2504883,1.2504883,1.2504883c0.6890259,0,1.25-0.5609741,1.25-1.2504883
		C12.749939,10.8110962,12.1889648,10.2501221,11.499939,10.2501221z M11.499939,12.2250977
		c-0.3994751,0-0.7249756-0.3255005-0.7249756-0.7254639c0-0.3989868,0.3255005-0.7244873,0.7249756-0.7244873
		c0.3995361,0,0.7250366,0.3255005,0.7250366,0.7244873C12.2249756,11.8995972,11.8994751,12.2250977,11.499939,12.2250977z"/>
</g>
</svg>
