<?xml version="1.0" encoding="utf-8"?>
<!-- Generator: Adobe Illustrator 24.0.1, SVG Export Plug-In . SVG Version: 6.00 Build 0)  -->
<svg version="1.1" id="Layer_1" xmlns="http://www.w3.org/2000/svg" xmlns:xlink="http://www.w3.org/1999/xlink" x="0px" y="0px"
	 width="16px" height="16px" viewBox="0 0 16 16" enable-background="new 0 0 16 16" xml:space="preserve">
<path id="Icon-Fill" fill-rule="evenodd" clip-rule="evenodd" fill="#181C56" d="M9.9526529,1.8535798V3.102787H2.2492073
	v10.0525494h10.0525494l0.0005951-5.3234062h1.2492075v5.9486046c0,0.3162136-0.2349787,0.5775433-0.5398483,0.6189022
	l-0.0847549,0.005703H1.6246037c-0.3162127,0-0.5775428-0.2349796-0.6189017-0.5398483L1,13.7805347V2.4781837
	c0-0.3162127,0.2349792-0.5775428,0.5398488-0.618902l0.0847549-0.005702H9.9526529z M14.1166773,1.5948606L15,2.4781837
	L8.0148716,9.4633121c-0.2195301,0.2195301-0.56182,0.2414837-0.8059025,0.0658588L7.1315479,9.4633121l-2.8211036-2.821104
	l0.8833232-0.8833232l2.3788471,2.3791003L14.1166773,1.5948606z"/>
</svg>
