<?xml version="1.0" encoding="utf-8"?>
<!-- Generator: Adobe Illustrator 24.3.0, SVG Export Plug-In . SVG Version: 6.00 Build 0)  -->
<svg version="1.1" id="Layer_1" xmlns="http://www.w3.org/2000/svg" xmlns:xlink="http://www.w3.org/1999/xlink" x="0px" y="0px"
	 width="14px" height="14px" viewBox="0 0 14 14" enable-background="new 0 0 14 14" xml:space="preserve">
<g id="_x30_5.-Icons">
	<g id="_x30_3---Iconography" transform="translate(-669.000000, -233.000000)">
		<g id="Group" transform="translate(668.000000, 232.000000)">
			<g id="Icon-Fill">
				<path id="path-1_1_" fill-rule="evenodd" clip-rule="evenodd" fill="#181C56" d="M12.2323656,5.6557832l0.2360783-0.2760592
					c0.2037125-0.2379818,0.5387907-0.3027129,0.8119936-0.1713471l0.0799627,0.0456924l0.0856733,0.0647311
					c0.2674913,0.2294145,0.3008089,0.6587338,0.0571156,0.9452643l-0.2360783,0.2760592
					c-0.2256069,0.2646356-0.6158972,0.3150878-0.8995714,0.1208944l-0.0780582-0.0609231
					C12.0210381,6.3706808,11.9877205,5.9413614,12.2323656,5.6557832 M11.7354593,7.2845311l0.1161356,0.0894814
					c0.6739645,0.4616847,1.5659208,0.3455496,2.0847206-0.2617803l0.2360783-0.2760592
					c0.5597334-0.6558781,0.4826279-1.6411233-0.1732502-2.2008567l-0.1151838-0.0894809l-0.0190382-0.0142789
					c-0.6558781-0.4474063-1.5468826-0.3312712-2.0666351,0.2760587l-0.2351265,0.2760592
					C11.0024748,5.7395525,11.0795813,6.7247977,11.7354593,7.2845311 M11.1679201,8.4851027
					c-0.672061-0.9500241-1.6687288-1.4669209-2.7072821-1.6039982l4.2179909,4.2179909
					c-0.0618753-0.1742029-0.1370773-0.3474531-0.2398853-0.517848L11.1679201,8.4851027z M3.5758209,6.6156116l-0.078058,0.0590196
					c-0.2655878,0.1808662-0.6558781,0.130414-0.881485-0.1351738l-0.236078-0.2760592L2.3211803,6.1824846
					C2.1622086,5.9292717,2.1879106,5.6008568,2.3840077,5.3752499L2.4506426,5.307663l0.0837696-0.0628271
					C2.800952,5.0649214,3.1893384,5.1153736,3.4149454,5.3800097l0.236078,0.2760587
					C3.8956687,5.9416471,3.8623512,6.3709664,3.5758209,6.6156116L3.5758209,6.6156116z M4.1298428,7.3000474
					c0.673965-0.574964,0.751071-1.5602093,0.1903858-2.2160873l-0.235126-0.2760592
					c-0.5197527-0.6082816-1.4107571-0.723465-2.0666351-0.2760592L1.8842456,4.6346502
					C1.2283674,5.1953354,1.1512613,6.1805806,1.7109947,6.8355069l0.2360781,0.2760592
					C2.4658735,7.7198477,3.3578296,7.8359828,4.0127559,7.388577L4.1298428,7.3000474z M5.1543074,3.0919561
					c-0.106616-0.3598285,0.0990005-0.7386959,0.4578772-0.8462636l0.0904331-0.0218942
					C6.0215135,2.1638267,6.359448,2.3684912,6.4584484,2.7035697L6.778296,3.778296
					c0.106616,0.3607807-0.0980487,0.7396479-0.4578772,0.8462639L6.2299857,4.6455021
					c-0.0009518,0.0009518-0.0028558,0-0.0038075,0l0.6730127,0.673965c0.618753-0.3579249,0.932889-1.0890055,0.723465-1.791528
					L7.3028083,2.4532127C7.0743456,1.6840552,6.2994766,1.2147549,5.5169921,1.3642075L5.3618279,1.4013327
					C4.7564015,1.581247,4.3451691,2.0971918,4.2633033,2.6835792L5.3589721,3.778296L5.1543074,3.0919561z M9.105093,3.7784865
					l0.3198471-1.0747263c0.0904331-0.3046169,0.3769636-0.5007141,0.6853886-0.4854832l0.0856733,0.0095193l0.0961447,0.0237982
					c0.3388863,0.1009042,0.5435505,0.4797714,0.4369345,0.8405521L10.409234,4.1659212
					c-0.0990009,0.33603-0.4369354,0.5397429-0.7777252,0.4750118L9.5420275,4.6190386
					C9.204093,4.5171824,8.998477,4.1383152,9.105093,3.7784865 M9.3126135,5.46911L9.444931,5.5014753
					c0.8053312,0.1542125,1.5802002-0.3150878,1.8086624-1.0842457l0.3198481-1.0747261
					c0.2455969-0.8262732-0.2256069-1.6953831-1.0518799-1.9409804L10.3663969,1.363446
					c-0.7824841-0.1485007-1.557354,0.3198477-1.7858162,1.0890052L8.2607327,3.5271776
					C8.0151358,4.3534508,8.4863396,5.2235126,9.3126135,5.46911 M9.4416943,13.4264631l-0.1094713-0.0409327
					c-0.8957644-0.3322229-1.8857689-0.3322229-2.780581,0l-0.1094713,0.0409327
					c-1.4716802,0.545455-2.8158023-0.980485-2.0380774-2.2646351L5.673965,9.0656834
					c0.4131365-0.5816278,1.0204663-0.9176588,1.6725368-1.0461693l4.2912898,4.2912903
					C11.4255114,13.1684914,10.4745359,13.8091383,9.4416943,13.4264631L9.4416943,13.4264631z M15,14.3269873L1.6730129,1
					L1,1.6730129l5.4431224,5.4431224C5.7824845,7.3779154,5.1846738,7.8196096,4.737268,8.450738l-1.2927177,2.130414
					c-1.3393624,2.2122793,0.9414566,4.8043785,3.3869584,3.8962393l0.1104236-0.0409327
					c0.6435032-0.2389336,1.3564973-0.2389336,2.0000005,0l0.1094713,0.0409327
					c1.4602575,0.541647,2.8481674-0.1703949,3.454546-1.2984285L14.3269873,15L15,14.3269873z"/>
			</g>
		</g>
	</g>
</g>
</svg>
