<svg xmlns="http://www.w3.org/2000/svg" width="16" height="16" viewBox="0 0 16 16" fill="none">
    <path fill-rule="evenodd" clip-rule="evenodd"
        d="M7.88756 1C5.69787 1 3.92278 2.77509 3.92278 4.96478C3.92278 6.29742 4.58025 7.47649 5.58853 8.19532C3.4793 9.09082 2 11.1812 2 13.6171V14H3.2V13.6171C3.2 11.0282 5.29867 8.92956 7.88751 8.92956C8.91894 8.92956 9.87097 9.26199 10.6446 9.82569L11.3513 8.85583C10.9917 8.59384 10.6012 8.37156 10.1864 8.19546C11.1948 7.47664 11.8523 6.2975 11.8523 4.96478C11.8523 2.77509 10.0772 1 7.88756 1ZM5.12278 4.96478C5.12278 3.43783 6.36061 2.2 7.88756 2.2C9.4145 2.2 10.6523 3.43783 10.6523 4.96478C10.6523 6.49172 9.4145 7.72956 7.88756 7.72956C6.36061 7.72956 5.12278 6.49172 5.12278 4.96478Z"
        fill="#181C56" />
    <path
        d="M11.5757 10.1539L12.4243 11.0024L11.4485 11.9781H15V13.1781H11.4485L12.4243 14.1539L11.5757 15.0024L9.15147 12.5781L11.5757 10.1539Z"
        fill="#181C56" />
</svg>