<svg xmlns="http://www.w3.org/2000/svg" width="16" height="16" viewBox="0 0 16 16" fill="none">
    <path
        d="M7.88751 1C5.69782 1 3.92273 2.77509 3.92273 4.96478C3.92273 6.2974 4.5802 7.47647 5.58845 8.1953C3.68039 9.00541 2.28805 10.7934 2.03963 12.9307C2.01658 13.129 2.00159 13.2842 2.00159 13.3984V13.9984H6.23775L11.4574 8.86712L10.7594 8.47643C10.5912 8.38229 10.4179 8.29613 10.24 8.2185L10.1864 8.19544C11.1947 7.47662 11.8523 6.29749 11.8523 4.96478C11.8523 2.77509 10.0772 1 7.88751 1Z"
        fill="#181C56" />
    <path
        d="M11.5758 10.1539L12.4243 11.0024L11.4485 11.9781H15V13.1781H11.4485L12.4243 14.1539L11.5758 15.0024L9.15149 12.5781L11.5758 10.1539Z"
        fill="#181C56" />
</svg>