<?xml version="1.0" encoding="utf-8"?>
<!-- Generator: Adobe Illustrator 24.0.1, SVG Export Plug-In . SVG Version: 6.00 Build 0)  -->
<svg version="1.1" id="Layer_1" xmlns="http://www.w3.org/2000/svg" xmlns:xlink="http://www.w3.org/1999/xlink" x="0px" y="0px"
	 width="16px" height="16px" viewBox="0 0 16 16" enable-background="new 0 0 16 16" xml:space="preserve">
<path id="path-1_1_" fill-rule="evenodd" clip-rule="evenodd" fill="#181C56" d="M8,1
	c2.6541672,0,4.7790127,1.8506336,4.8950109,4.21699l0.0049887,0.2040625v1.8947372
	C12.8999996,9.3999996,15,9.9052629,15,11.1052628c0,0.817976-1.5844946,1.4893246-4.2272978,1.7627058
	C10.5869942,14.1031923,9.429513,15,8,15s-2.5869942-0.8968077-2.7736692-2.131835C2.5842445,12.5944815,1,11.9231749,1,11.1052628
	c0-1.1499996,1.9286458-1.6619511,2.0893664-3.5370064l0.0106335-0.2524667V5.4210525C3.0999999,2.9578948,5.27,1,8,1z
	 M9.2936945,12.9732351c-0.3160172,0.0135279-0.6372528,0.0218582-0.9682903,0.0251551L8,13
	c-0.4488974,0-0.880775-0.0090742-1.2942495-0.0265617C6.9099078,13.3853178,7.3894043,13.666667,8,13.666667
	S9.0900927,13.3853178,9.2936945,12.9732351z M8,2.3894737c-1.9165521,0-3.3949585,1.274272-3.4946384,2.8604786L4.5,5.4210525
	v1.8947372c0,1.2292533-0.433383,2.1019378-1.2618299,3.0008788l-0.5781701,0.5902786l0.0944934,0.0392942l0.2138622,0.0769701
	c0.0381796,0.0127726,0.0776105,0.0254984,0.1182673,0.0381489l0.1911454,0.0563173
	C4.3966408,11.4299717,6.0460038,11.6105261,8,11.6105261s3.6033592-0.1805544,4.7222319-0.4928484
	c0.1992502-0.0556135,0.3744411-0.1136293,0.5232744-0.1714363l0.0934935-0.0392942l-0.3936129-0.3971081
	c-0.8846884-0.904644-1.3770514-1.7556877-1.4387674-2.935956L11.5,7.3157897V5.4210525
	C11.5,3.7563906,9.9850006,2.3894737,8,2.3894737z"/>
</svg>
