<?xml version="1.0" encoding="utf-8"?>
<svg width="16" height="16" viewBox="0 0 16 16" fill="none" xmlns="http://www.w3.org/2000/svg">
    <path
        d="M4.95038 1.88867V1H6.15038V1.88867H9.85095V1H11.051V1.88867H12.9012C13.2325 1.88867 13.5012 2.1573 13.5012 2.48867V4.8661L2.5 4.8661V2.48867C2.5 2.1573 2.76863 1.88867 3.1 1.88867H4.95038Z"
        fill="#181C56" />
    <path fill-rule="evenodd" clip-rule="evenodd"
        d="M2.5 6.0661V14.3984C2.5 14.7297 2.76863 14.9984 3.1 14.9984H12.9012C13.2325 14.9984 13.5012 14.7297 13.5012 14.3984V6.0661L2.5 6.0661ZM8.00064 7.45103L8.85039 8.7479L10.331 9.16549L9.37556 10.3846L9.44089 11.9395L8.00064 11.3961L6.5604 11.9395L6.62573 10.3846L5.67028 9.16549L7.1509 8.7479L8.00064 7.45103Z"
        fill="#181C56" />
</svg>
