<?xml version="1.0" encoding="utf-8"?>
<svg width="16" height="16" viewBox="0 0 16 16" fill="none" xmlns="http://www.w3.org/2000/svg">
    <path fill-rule="evenodd" clip-rule="evenodd"
        d="M8.50253 7.12224C8.39166 6.95302 8.20297 6.85108 8.00067 6.85108C7.79836 6.85108 7.60968 6.95302 7.4988 7.12224L6.77206 8.23139L5.50744 8.58806C5.31486 8.64237 5.16203 8.78911 5.09993 8.97931C5.03783 9.16952 5.07463 9.37816 5.19806 9.53565L6.01699 10.5806L5.96095 11.9144C5.9525 12.1157 6.04562 12.3078 6.20888 12.4258C6.37214 12.5438 6.58374 12.5721 6.77223 12.5009L8.00067 12.0374L9.2291 12.5009C9.41759 12.5721 9.62919 12.5438 9.79245 12.4258C9.95571 12.3078 10.0488 12.1157 10.0404 11.9144L9.98434 10.5806L10.8033 9.53565C10.9267 9.37816 10.9635 9.16952 10.9014 8.97931C10.8393 8.78911 10.6865 8.64237 10.4939 8.58806L9.22928 8.23139L8.50253 7.12224ZM7.65279 9.07678L8.00067 8.54585L8.34855 9.07678C8.42786 9.19783 8.54826 9.28613 8.68754 9.32541L9.30658 9.5L8.90334 10.0145C8.81523 10.1269 8.77011 10.2671 8.77611 10.4098L8.80333 11.0577L8.21248 10.8348C8.07597 10.7833 7.92537 10.7833 7.78886 10.8348L7.198 11.0577L7.22522 10.4098C7.23122 10.2671 7.18611 10.1269 7.098 10.0145L6.69476 9.5L7.31379 9.32541C7.45308 9.28613 7.57347 9.19783 7.65279 9.07678Z"
        fill="#181C56" />
    <path fill-rule="evenodd" clip-rule="evenodd"
        d="M12.9012 1.88871H11.051V1H9.85095V1.88871H6.15038V1H4.95038V1.88871H3.1C2.76863 1.88871 2.5 2.15734 2.5 2.48871V14.3984C2.5 14.7298 2.76863 14.9984 3.1 14.9984H12.9012C13.2325 14.9984 13.5012 14.7298 13.5012 14.3984V2.48871C13.5012 2.15734 13.2325 1.88871 12.9012 1.88871ZM4.95038 3.97742V3.08871H3.7V4.86613L12.3012 4.86614V3.08871H11.051V3.97742H9.85095V3.08871H6.15038V3.97742H4.95038ZM12.3012 6.06614L3.7 6.06613V13.7984H12.3012V6.06614Z"
        fill="#181C56" />
</svg>
