<?xml version="1.0" encoding="utf-8"?>
<svg width="16" height="16" viewBox="0 0 16 16" fill="none" xmlns="http://www.w3.org/2000/svg">
    <path fill-rule="evenodd" clip-rule="evenodd"
        d="M1.6 2.5C1.26863 2.5 1 2.76863 1 3.1V12.9023C1 13.2337 1.26863 13.5023 1.6 13.5023H14.4014C14.7328 13.5023 15.0014 13.2337 15.0014 12.9023V3.1C15.0014 2.76863 14.7328 2.5 14.4014 2.5H1.6ZM12.9244 6.16045H3.07709V4.96045H12.9244V6.16045ZM4.06181 8.62102H3.07709V7.42102H4.06181V8.62102ZM9.47784 8.62102H12.9244V7.42102H9.47784V8.62102ZM8.49311 8.62102H5.04657V7.42102H8.49311V8.62102ZM3.07709 11.0419H4.06181V9.84192H3.07709V11.0419ZM12.9244 11.0419H9.47784V9.84192H12.9244V11.0419ZM5.04657 11.0419H8.49311V9.84192H5.04657V11.0419Z"
        fill="#181C56" />
</svg>
