<?xml version="1.0" encoding="utf-8"?>
<svg width="16" height="16" viewBox="0 0 16 16" fill="none" xmlns="http://www.w3.org/2000/svg">
    <path d="M3.07709 6.16047H12.9244V4.96047H3.07709V6.16047Z" fill="#181C56" />
    <path d="M4.06181 8.62093H3.07709V7.42094H4.06181V8.62093Z" fill="#181C56" />
    <path d="M9.47784 8.62093H12.9244V7.42094H9.47784V8.62093Z" fill="#181C56" />
    <path d="M8.49311 8.62093H5.04657V7.42094H8.49311V8.62093Z" fill="#181C56" />
    <path d="M3.07709 11.0419H4.06181V9.84186H3.07709V11.0419Z" fill="#181C56" />
    <path d="M12.9244 11.0419H9.47784V9.84186H12.9244V11.0419Z" fill="#181C56" />
    <path d="M5.04657 11.0419H8.49311V9.84186H5.04657V11.0419Z" fill="#181C56" />
    <path fill-rule="evenodd" clip-rule="evenodd"
        d="M1.6 2.5C1.26863 2.5 1 2.76863 1 3.1V12.9023C1 13.2337 1.26863 13.5023 1.6 13.5023H14.4014C14.7328 13.5023 15.0014 13.2337 15.0014 12.9023V3.1C15.0014 2.76863 14.7328 2.5 14.4014 2.5H1.6ZM2.2 12.3023V3.7H13.8014V12.3023H2.2Z"
        fill="#181C56" />
</svg>
