<?xml version="1.0" encoding="utf-8"?>
<!-- Generator: Adobe Illustrator 24.3.0, SVG Export Plug-In . SVG Version: 6.00 Build 0)  -->
<svg version="1.1" id="Layer_1" xmlns="http://www.w3.org/2000/svg" xmlns:xlink="http://www.w3.org/1999/xlink" x="0px" y="0px"
	 width="16px" height="16px" viewBox="0 0 16 16" enable-background="new 0 0 16 16" xml:space="preserve">
<path fill="#181C56" d="M12.79,15.0000267c-0.1307001,0-0.2615004-0.0367002-0.3762999-0.1079998L8,12.1311264l-4.4136701,2.7609005
	C3.36748,15.0277271,3.09219,15.0357265,2.8659101,14.9108267C2.64012,14.786027,2.5,14.5483265,2.5,14.2897263V1.7103262
	c0-0.3923,0.3178799-0.7103,0.7100301-0.7103H12.79c0.3921003,0,0.71,0.318,0.71,0.7103v12.5794001
	c0,0.2586002-0.1406002,0.4963007-0.3663998,0.6211004C13.0265999,14.9703264,12.9088001,15.0000267,12.79,15.0000267z
	 M8,10.5836267c0.1307201,0,0.2609396,0.0367002,0.3763103,0.1079998l3.7035894,2.3171997V2.4206362H3.9200599v10.5881901
	l3.7036302-2.3171997C7.7390599,10.620327,7.8692799,10.5836267,8,10.5836267z"/>
</svg>
