<?xml version="1.0" encoding="utf-8"?>
<!-- Generator: Adobe Illustrator 24.0.1, SVG Export Plug-In . SVG Version: 6.00 Build 0)  -->
<svg version="1.1" id="Layer_1" xmlns="http://www.w3.org/2000/svg" xmlns:xlink="http://www.w3.org/1999/xlink" x="0px" y="0px"
	 width="16px" height="16px" viewBox="0 0 16 16" enable-background="new 0 0 16 16" xml:space="preserve">
<path id="Icon-Fill" fill-rule="evenodd" clip-rule="evenodd" fill="#181C56" d="M2.8512397,7.3636365V8.636364H1V7.3636365
	H2.8512397z M3.4876034,2.5876491l1.3049128,1.3049128L3.8925619,4.7925162L2.5876491,3.4876034L3.4876034,2.5876491z M8.636364,1
	v1.8512397H7.3636365V1H8.636364z M12.5123968,2.5876491l0.8999538,0.8999543l-1.3049126,1.3049128l-0.8999538-0.8999543
	L12.5123968,2.5876491z M15,7.3636365V8.636364h-1.8512402V7.3636365H15z M12.1074381,11.2074842l1.3049126,1.3049126
	l-0.8999538,0.8999538l-1.3049126-1.3049126L12.1074381,11.2074842z M8.636364,13.1487598V15H7.3636365v-1.8512402H8.636364z
	 M3.8925619,11.2074842l0.8999543,0.8999538l-1.3049128,1.3049126l-0.8999543-0.8999538L3.8925619,11.2074842z M8,3.8925619
	C5.7313561,3.8925619,3.8925619,5.7313561,3.8925619,8S5.7313561,12.1074381,8,12.1074381S12.1074381,10.2686443,12.1074381,8
	S10.2686443,3.8925619,8,3.8925619z M8,5.1652894c1.5657358,0,2.8347111,1.2689743,2.8347111,2.8347106
	S9.5657358,10.8347111,8,10.8347111S5.1652894,9.5657358,5.1652894,8S6.4342637,5.1652894,8,5.1652894z"/>
</svg>
