<?xml version="1.0" encoding="utf-8"?>
<!-- Generator: Adobe Illustrator 24.0.1, SVG Export Plug-In . SVG Version: 6.00 Build 0)  -->
<svg version="1.1" id="Layer_1" xmlns="http://www.w3.org/2000/svg" xmlns:xlink="http://www.w3.org/1999/xlink" x="0px" y="0px"
	 width="16px" height="16px" viewBox="0 0 16 16" enable-background="new 0 0 16 16" xml:space="preserve">
<path id="Icon-Fill" fill-rule="evenodd" clip-rule="evenodd" fill="#181C56" d="M10.784091,1l0.8662052,0.8662058
	l-1.2563715,1.2556096c0.1441717,0.2218506,0.2594376,0.4653506,0.3399849,0.725292
	c0.2104044,0.1523864,0.409132,0.321816,0.5947895,0.5061946l1.1258459-1.1260293l0.8662062,0.8662059L12.0974274,5.316504
	c0.4777489,0.7582698,0.7936935,1.6531358,0.9144897,2.6185827l1.7255831,0.0004373v1.2250004l-1.6786098,0.0003204
	c-0.0571728,1.1699505-0.4122629,2.2575722-0.9802237,3.1554117l1.2420845,1.2431307l-0.8662062,0.8662062l-1.1425505-1.1416206
	c-0.8386545,0.8486032-1.9187469,1.3845596-3.1073914,1.4399729L8,14.7287054l0,0
	c-1.2691436,0-2.4254646-0.5476856-3.311995-1.4447327l-1.1425507,1.1416206l-0.8662057-0.8662062l1.242084-1.2431307
	c-0.5679607-0.8978395-0.9230511-1.9854612-0.9802232-3.1554117L1.2624998,9.1605244V7.935524l1.728488-0.0001025
	c0.1249003-0.9522767,0.4471779-1.8436942,0.9256458-2.6037955l-1.237385-1.2381473l0.8662057-0.8662059L4.6813798,4.36344
	c0.1827474-0.185092,0.3776007-0.3556881,0.5834794-0.5099382C5.3445778,3.5915229,5.4606137,3.34565,5.6060743,3.1218154
	l-1.256371-1.2556096L5.215909,1l1.2586069,1.2583325C6.918561,1.9739738,7.442884,1.810524,8,1.810524
	s1.081439,0.1634498,1.5254831,0.4478085L10.784091,1z M5.7143474,5.0704288L5.6746898,5.105835
	C5.6317935,5.1458344,5.5896316,5.1868825,5.5482268,5.2289433l0.0327516,0.0338535L5.1622543,5.679358
	C4.5337195,6.5211315,4.1579542,7.633369,4.1579542,8.8264332c0,1.2266436,0.3968849,2.3429775,1.0366344,3.1771812
	l0.3863897,0.3864546l-0.0269527,0.0267687c0.5186419,0.5252228,1.1490993,0.8885679,1.8339128,1.0259342l0.000494-7.6837339
	c-0.3978677-0.0768805-0.7975903-0.2236948-1.1936011-0.4217C6.0124331,5.2461386,5.8508363,5.1547275,5.7143474,5.0704288z
	 M10.2957668,5.0637584l-0.0269966,0.0170546c-0.1328669,0.0813956-0.2886677,0.1690578-0.4636021,0.256525
	c-0.3960114,0.1980052-0.7957335,0.3448195-1.1936016,0.4217l0.000495,7.6837339
	c0.6848135-0.1373663,1.3152704-0.5007114,1.8339119-1.0259342l-0.0269518-0.0267687l0.3863888-0.3864546
	c0.6397505-0.8342037,1.0366354-1.9505377,1.0366354-3.1771812c0-1.169765-0.3348608-2.2386909-0.9146919-3.0568552
	l-0.5083323-0.5067811l0.0433426-0.043273C10.4081793,5.1658254,10.3526325,5.1138797,10.2957668,5.0637584z M8,3.0355239
	c-0.6710548,0-1.2644548,0.4224188-1.5147028,1.037148l0,0L6.47575,4.097456l0.1340466,0.0753798l0.1328716,0.0688286
	C7.1870475,4.4638543,7.6229162,4.594615,8,4.594615s0.812952-0.1307607,1.2573318-0.3529506
	C9.349515,4.1955729,9.4347363,4.1495676,9.5115414,4.1056013l0,0L9.5233746,4.097456L9.5147028,4.0726719
	C9.2811375,3.4989247,8.7486496,3.0927012,8.1330967,3.0410881l0,0L8,3.0355239z"/>
</svg>
