<svg xmlns="http://www.w3.org/2000/svg" width="16" height="16" viewBox="0 0 16 16" fill="none">
    <path
        d="M4.06115 7.84681C3.72977 7.84681 3.46115 8.11544 3.46115 8.44681C3.46115 8.77818 3.72977 9.04681 4.06115 9.04681H5.04582C5.37719 9.04681 5.64582 8.77818 5.64582 8.44681C5.64582 8.11544 5.37719 7.84681 5.04582 7.84681H4.06115Z"
        fill="#181C56" />
    <path
        d="M3.46115 11.4255C3.46115 11.0942 3.72977 10.8255 4.06115 10.8255H5.04582C5.37719 10.8255 5.64582 11.0942 5.64582 11.4255C5.64582 11.7569 5.37719 12.0255 5.04582 12.0255H4.06115C3.72977 12.0255 3.46115 11.7569 3.46115 11.4255Z"
        fill="#181C56" />
    <path
        d="M7.50748 7.84681C7.17611 7.84681 6.90748 8.11544 6.90748 8.44681C6.90748 8.77818 7.17611 9.04681 7.50748 9.04681H8.49216C8.82353 9.04681 9.09216 8.77818 9.09216 8.44681C9.09216 8.11544 8.82353 7.84681 8.49216 7.84681H7.50748Z"
        fill="#181C56" />
    <path
        d="M6.90748 11.4255C6.90748 11.0942 7.17611 10.8255 7.50748 10.8255H8.49216C8.82353 10.8255 9.09216 11.0942 9.09216 11.4255C9.09216 11.7569 8.82353 12.0255 8.49216 12.0255H7.50748C7.17611 12.0255 6.90748 11.7569 6.90748 11.4255Z"
        fill="#181C56" />
    <path
        d="M10.9538 7.84681C10.6225 7.84681 10.3538 8.11544 10.3538 8.44681C10.3538 8.77818 10.6225 9.04681 10.9538 9.04681H11.9385C12.2699 9.04681 12.5385 8.77818 12.5385 8.44681C12.5385 8.11544 12.2699 7.84681 11.9385 7.84681H10.9538Z"
        fill="#181C56" />
    <path fill-rule="evenodd" clip-rule="evenodd"
        d="M5.15344 1.88936H10.8462V1H12.0462V1.88936H14.4004C14.7317 1.88936 15.0004 2.15799 15.0004 2.48936V11.4255C15.0004 11.5838 14.9378 11.7357 14.8264 11.848L11.8724 14.8268C11.7597 14.9404 11.6063 15.0043 11.4463 15.0043H1.59959C1.26822 15.0043 0.999588 14.7356 0.999588 14.4043V2.48936C0.999588 2.15799 1.26822 1.88936 1.59959 1.88936H3.95344V1H5.15344V1.88936ZM3.95344 3.08936V4.22695H5.15344V3.08936H10.8462V4.22695H12.0462V3.08936H13.8004V4.86808H2.19959V3.08936H3.95344ZM2.19959 6.06808H13.8004V10.3291H10.9538C10.6225 10.3291 10.3538 10.5977 10.3538 10.9291V13.8043H2.19959V6.06808ZM11.5538 13.4438L13.4527 11.5291H11.5538V13.4438Z"
        fill="#181C56" />
</svg>