<?xml version="1.0" encoding="utf-8"?>
<!-- Generator: Adobe Illustrator 24.0.1, SVG Export Plug-In . SVG Version: 6.00 Build 0)  -->
<svg version="1.1" id="Layer_1" xmlns="http://www.w3.org/2000/svg" xmlns:xlink="http://www.w3.org/1999/xlink" x="0px" y="0px"
	 width="16px" height="16px" viewBox="0 0 16 16" enable-background="new 0 0 16 16" xml:space="preserve">
<path id="path-1_1_" fill-rule="evenodd" clip-rule="evenodd" fill="#181C56" d="M5.2727275,1L5.2719998,2.1570001h5.4270005
	L10.6999998,1h1.272728l-0.0007277,1.161l0.0775871-0.0039752h2.3140488c0.3221664,0,0.5884171,0.2394032,0.6305552,0.5500128
	L15,2.7933884V14.363636c0,0.3221664-0.2394037,0.5884171-0.5500126,0.6305552L14.363636,15H1.6363636
	c-0.3221661,0-0.5884166-0.2394037-0.6305543-0.5500126L1,14.363636V2.7933884c0-0.322166,0.2394032-0.5884166,0.5500128-0.6305544
	l0.0863508-0.0058091h2.3140497l0.0485868,0.0029752L4,1H5.2727275z M13.7270002,6.9000001H2.2720001l0.0007272,6.8272729h11.454546
	L13.7270002,6.9000001z M11.9720001,3.4230001l0.0007277,1.1637766h-1.272728l-0.0009995-1.1577768H5.2719998l0.0007277,1.1577768H4
	L3.9990001,3.4260001l-0.0485868,0.003752L2.2727273,3.429091L2.2720001,5.6279998h11.4549999L13.727273,3.429091
	l-1.6776857,0.0006611L11.9720001,3.4230001z"/>
</svg>
