<svg xmlns="http://www.w3.org/2000/svg" width="16" height="16" viewBox="0 0 16 16" fill="none">
    <path
        d="M12 1.99955H14.5C14.7761 1.99955 15 2.22341 15 2.49955L15 4.89821H1V2.49955C1 2.22341 1.22386 1.99955 1.5 1.99955H4V1H5V1.99955H11V1H12V1.99955Z"
        fill="#181C56" />
    <path fill-rule="evenodd" clip-rule="evenodd"
        d="M1 6.09821H15V11.4953H14.9972C14.988 11.6362 14.9295 11.7744 14.8215 11.8818L11.8605 14.8257C11.7209 14.9646 11.53 15.0206 11.3491 14.9938H1.5C1.22386 14.9938 1 14.7699 1 14.4938V6.09821ZM11.5 11.4953H13.5082L11.5 13.492L11.5 11.4953ZM4 7.89665C3.66863 7.89665 3.4 8.16528 3.4 8.49665C3.4 8.82802 3.66863 9.09665 4 9.09665H5C5.33137 9.09665 5.6 8.82802 5.6 8.49665C5.6 8.16528 5.33137 7.89665 5 7.89665H4ZM3.4 11.4953C3.4 11.1639 3.66863 10.8953 4 10.8953H5C5.33137 10.8953 5.6 11.1639 5.6 11.4953C5.6 11.8267 5.33137 12.0953 5 12.0953H4C3.66863 12.0953 3.4 11.8267 3.4 11.4953ZM7.5 7.89665C7.16863 7.89665 6.9 8.16528 6.9 8.49665C6.9 8.82802 7.16863 9.09665 7.5 9.09665H8.5C8.83137 9.09665 9.1 8.82802 9.1 8.49665C9.1 8.16528 8.83137 7.89665 8.5 7.89665H7.5ZM6.9 11.4953C6.9 11.1639 7.16863 10.8953 7.5 10.8953H8.5C8.83137 10.8953 9.1 11.1639 9.1 11.4953C9.1 11.8267 8.83137 12.0953 8.5 12.0953H7.5C7.16863 12.0953 6.9 11.8267 6.9 11.4953ZM11 7.89665C10.6686 7.89665 10.4 8.16528 10.4 8.49665C10.4 8.82802 10.6686 9.09665 11 9.09665H12C12.3314 9.09665 12.6 8.82802 12.6 8.49665C12.6 8.16528 12.3314 7.89665 12 7.89665H11Z"
        fill="#181C56" />
</svg>