<?xml version="1.0" encoding="utf-8"?>
<!-- Generator: Adobe Illustrator 24.3.0, SVG Export Plug-In . SVG Version: 6.00 Build 0)  -->
<svg version="1.1" id="Layer_1" xmlns="http://www.w3.org/2000/svg" xmlns:xlink="http://www.w3.org/1999/xlink" x="0px"
	y="0px" width="16px" height="16px" viewBox="0 0 16 16" enable-background="new 0 0 16 16" xml:space="preserve">
	<path fill-rule="evenodd" clip-rule="evenodd" fill="#181C56" d="M13.2704,3.00372H2.7374599
	C1.77982,3.00372,1.00394,3.8022499,1.00394,4.7879v0.2537899v0.1217599v6.0529504
	c0,0.9855995,0.77588,1.7840996,1.7335199,1.7840996H13.2704c0.9576998,0,1.7334995-0.7985001,1.7334995-1.7840996V5.1905499
	V5.0376601V4.7879C15.0038996,3.8022499,14.2280998,3.00372,13.2704,3.00372z M13.2704,11.8411999H2.7374599l-0.08972-0.0067997
	c-0.2928998-0.0445004-0.5173299-0.3041-0.5173299-0.618L2.1301,7.1019902H13.8771l0.0003996,4.1144099
	C13.8774996,11.5616999,13.6058998,11.8411999,13.2704,11.8411999z M13.8768997,5.0427198L13.8771,6.1019902H2.1299801
	L2.12992,5.1621699c0.0000601,0,0.0001199,0,0.00018,0L2.13041,4.7879c0-0.3453298,0.2715399-0.6248097,0.6070499-0.6248097H13.2704
	l0.0896997,0.0067697c0.2930002,0.04456,0.5173998,0.30408,0.5173998,0.6180401l-0.0002995,0.2548199
	C13.8771,5.0427198,13.8771,5.0427198,13.8768997,5.0427198z" />
</svg>