<?xml version="1.0" encoding="utf-8"?>
<!-- Generator: Adobe Illustrator 24.0.3, SVG Export Plug-In . SVG Version: 6.00 Build 0)  -->
<svg version="1.1" id="Layer_1" xmlns="http://www.w3.org/2000/svg" xmlns:xlink="http://www.w3.org/1999/xlink" x="0px" y="0px"
	 width="16px" height="16px" viewBox="0 0 16 16" enable-background="new 0 0 16 16" xml:space="preserve">
<g id="Icon_x2F_UI_x2F_Channels">
	<path id="Channels" fill-rule="evenodd" clip-rule="evenodd" fill="#181C56" d="M11.6319008,1
		c1.3100491,0,2.3719006,1.0618517,2.3719006,2.3719008s-1.0618515,2.3719008-2.3719006,2.3719008
		c-0.6776457,0-1.2888823-0.2841148-1.721097-0.7397323l-4.240139,2.4091139C5.7184205,7.6008515,5.7438016,7.7974596,5.7438016,8
		S5.7184205,8.399148,5.6706648,8.5868168l4.240139,2.4091139c0.4322147-0.4556179,1.0434513-0.7397327,1.721097-0.7397327
		c1.3100491,0,2.3719006,1.0618525,2.3719006,2.3719015S12.9419498,15,11.6319008,15s-2.3719006-1.0618515-2.3719006-2.3719006
		c0-0.1741028,0.018754-0.3438215,0.0543528-0.507247L5.0355315,9.6906986
		c-0.428103,0.4212904-1.015491,0.6812019-1.6636307,0.6812019C2.0618517,10.3719006,1,9.3100491,1,8
		s1.0618517-2.371901,2.3719008-2.371901c0.6481397,0,1.2355278,0.259912,1.6636307,0.6812029L9.314353,3.8791473
		C9.2787542,3.7157218,9.2600002,3.5460031,9.2600002,3.3719008C9.2600002,2.0618517,10.3218517,1,11.6319008,1z
		 M11.6319008,11.5289259c-0.6071415,0-1.0991735,0.4920321-1.0991735,1.0991735
		c0,0.6071405,0.4920321,1.0991735,1.0991735,1.0991735s1.0991735-0.492033,1.0991735-1.0991735
		C12.7310743,12.0209579,12.2390423,11.5289259,11.6319008,11.5289259z M3.3719008,6.9008265
		C2.7647598,6.9008265,2.2727273,7.392859,2.2727273,8s0.4920325,1.0991735,1.0991735,1.0991735S4.4710746,8.6071415,4.4710746,8
		S3.9790421,6.9008265,3.3719008,6.9008265z M11.6319008,2.2727273c-0.6071415,0-1.0991735,0.4920325-1.0991735,1.0991735
		s0.4920321,1.0991738,1.0991735,1.0991738s1.0991735-0.4920325,1.0991735-1.0991738S12.2390423,2.2727273,11.6319008,2.2727273z"/>
</g>
</svg>
