<?xml version="1.0" encoding="UTF-8"?>
<svg width="16" height="16" viewBox="0 0 16 16" fill="none" xmlns="http://www.w3.org/2000/svg">
    <path
        d="M12.4 2.40002C12.0686 2.40002 11.8 2.66865 11.8 3.00002V11.6H15V3.00002C15 2.66865 14.7314 2.40002 14.4 2.40002H12.4Z"
        fill="#181C56" />
    <path
        d="M1.6 4.90002C1.26863 4.90002 1 5.16865 1 5.50002V11.6H4.2V5.50002C4.2 5.16865 3.93137 4.90002 3.6 4.90002H1.6Z"
        fill="#181C56" />
    <path
        d="M7 6.90002C6.66863 6.90002 6.4 7.16865 6.4 7.50002V11.6H9.6V7.50002C9.6 7.16865 9.33137 6.90002 9 6.90002H7Z"
        fill="#181C56" />
    <path d="M1 13.6H15V12.4H1V13.6Z" fill="#181C56" />
</svg>
