<?xml version="1.0" encoding="utf-8"?>
<svg width="16" height="16" viewBox="0 0 16 16" fill="none" xmlns="http://www.w3.org/2000/svg">
    <path fill-rule="evenodd" clip-rule="evenodd"
        d="M11.8999 2.40002C11.7408 2.40002 11.5882 2.46324 11.4757 2.57576C11.3632 2.68828 11.2999 2.8409 11.2999 3.00003L11.3 12.4H9.84993V7.50002C9.84993 7.16865 9.5813 6.90002 9.24993 6.90002H6.74994C6.41857 6.90002 6.14994 7.16865 6.14994 7.50002V12.4H4.69989L4.69988 5.50002C4.69988 5.16865 4.43125 4.90002 4.09988 4.90002H1.59992C1.44079 4.90002 1.28818 4.96324 1.17566 5.07576C1.06314 5.18828 0.999924 5.3409 0.999924 5.50002L0.999932 13.6H14.9999L14.9999 3.00002C14.9999 2.66865 14.7313 2.40002 14.3999 2.40002H11.8999ZM13.7999 12.4L13.7999 3.60002H12.4999L12.5 12.4H13.7999ZM8.64993 8.10002V12.4H7.34994V8.10002H8.64993ZM3.49989 12.4L3.49988 6.10002H2.19992L2.19993 12.4H3.49989Z"
        fill="#181C56" />
</svg>
