<?xml version="1.0" encoding="utf-8"?>
<!-- Generator: Adobe Illustrator 24.0.1, SVG Export Plug-In . SVG Version: 6.00 Build 0)  -->
<svg version="1.1" id="Layer_1" xmlns="http://www.w3.org/2000/svg" xmlns:xlink="http://www.w3.org/1999/xlink" x="0px" y="0px"
	 width="16px" height="16px" viewBox="0 0 16 16" enable-background="new 0 0 16 16" xml:space="preserve">
<path id="path-1_1_" fill-rule="evenodd" clip-rule="evenodd" fill="#181C56" d="M7.4214878,1.5
	c3.5165062,0,6.4214878,2.2449884,6.4214878,5.1025333c0,0.0974894-0.0033817,0.1942654-0.0100527,0.2902637
	C14.5759459,7.5865011,15,8.4599056,15,9.3966761c0,0.8888807-0.3816328,1.7213106-1.0557871,2.3984213l-0.1014853,0.0961456
	l0.000248,1.9760599c0,0.4356155-0.4286146,0.7309284-0.8294153,0.6023884l-0.0852938-0.0341358l-2.3046303-1.1125946
	l-0.0669708,0.0092344c-0.1817284,0.0217686-0.363987,0.0364485-0.5467072,0.0438166l-0.2744207,0.0055408
	c-1.7650571,0-3.3841667-0.6592159-4.3525138-1.7396879l-2.3113372,1.1172285
	c-0.3944945,0.1904964-0.8493712-0.063077-0.9082682-0.4771843l0,0l-0.0063934-0.0910912l-0.0006611-2.670125l-0.143564-0.1695776
	C1.4098189,8.6038933,1.0570562,7.7406883,1.0063529,6.8309083l0,0L1,6.6025333C1,3.7449884,3.9049811,1.5,7.4214878,1.5z
	 M13.4392776,8.3961868l-0.0387888,0.0800638c-0.941741,1.9065924-3.2802868,3.228816-5.979001,3.228816l0.2124844-0.0025749
	c0.6144218,0.2641068,1.3361826,0.4152489,2.1015654,0.4152489c0.2978745,0,0.5952978-0.0242243,0.8921394-0.0714102
	c0.0968056-0.0153875,0.1954298-0.0082932,0.2882833,0.0201674l0.0906487,0.0355425l1.5633907,0.7551165l0.000248-1.2475204
	c0-0.1568012,0.0586424-0.3068056,0.1626301-0.4219246l0.0677271-0.0646601
	c0.6028957-0.4960337,0.9266682-1.1017084,0.9266682-1.7263756C13.727273,9.0524092,13.628726,8.7138205,13.4392776,8.3961868z
	 M7.4214878,2.7638121c-2.8735418,0-5.1487608,1.7583041-5.1487608,3.8387213c0,0.804647,0.3423283,1.5788002,0.9791481,2.2357826
	C3.365999,8.9560528,3.4297521,9.1131134,3.4297521,9.2765274l0,0l-0.0006611,1.904273l1.8819499-0.9083872
	c0.1090012-0.0526352,0.2302718-0.0729952,0.3494997-0.0596647l0,0l0.0888143,0.0163374
	c0.5412722,0.1396379,1.1024261,0.2121687,1.672133,0.2121687c2.6517735,0,4.794013-1.4973793,5.1088762-3.3634639
	c-0.0003996-0.0265503,0.0041075-0.0525613,0.0102787-0.0783038c0.0201788-0.1304641,0.0296049-0.2630415,0.0296049-0.3969536
	C12.5702477,4.5221162,10.2950296,2.7638121,7.4214878,2.7638121z"/>
</svg>
