<?xml version="1.0" encoding="utf-8"?>
<!-- Generator: Adobe Illustrator 24.0.1, SVG Export Plug-In . SVG Version: 6.00 Build 0)  -->
<svg version="1.1" id="Layer_1" xmlns="http://www.w3.org/2000/svg" xmlns:xlink="http://www.w3.org/1999/xlink" x="0px" y="0px"
	 width="16px" height="16px" viewBox="0 0 16 16" enable-background="new 0 0 16 16" xml:space="preserve">
<path id="Icon-Fill" fill-rule="evenodd" clip-rule="evenodd" fill="#181C56" d="M9,8.0057793
	c0-0.9524856,0.7878885-1.731792,1.7508621-1.731792s1.7508631,0.7793064,1.7508631,1.731792
	s-0.7878885,1.7317924-1.7508631,1.7317924S9,8.9582653,9,8.0057793z M8.8788815,12.4317923
	c-0.525259,0-0.875432-0.3463583-0.875432-0.8658962s0.350173-0.8658962,0.875432-0.8658962
	c0.5252581,0,0.8754311,0.3463583,0.8754311,0.8658962S9.4041395,12.4317923,8.8788815,12.4317923 M5.0754313,11.2317924
	c-0.525259,0-0.8754315-0.3463583-0.8754315-0.8658962S4.5501723,9.5,5.0754313,9.5s0.8754311,0.3463583,0.8754311,0.8658962
	S5.6006899,11.2317924,5.0754313,11.2317924 M3.8754313,8.2317924C3.3501725,8.2317924,3,7.8854337,3,7.3658962
	S3.3501725,6.5,3.8754313,6.5s0.8754313,0.3463583,0.8754313,0.8658962S4.4006901,8.2317924,3.8754313,8.2317924
	 M4.000814,1.9612602C2.1230283,3.2326057,1,5.3188944,1,7.6040554C1,11.426753,4.1304407,14.5,8.0242796,14.5
	c3.1480494,0,5.924468-2.0854292,6.7680044-5.0157156c0.5116587-2.1321301,0.1422882-4.2905931-1.8318033-5.2872915
	c-1.3096008-0.6039083-2.4146605-0.5652266-4.0114117-0.1071582L8.1604013,4.3242388
	c-0.9687462,0.278697-1.1872683,0.2643523-1.387115,0.0289183c0.0030723,0.0037298,0.0059586,0.0027609,0.0095854-0.0042372
	l0.2122407-0.7000775c0.1653132-0.5793865,0.1646566-1.0391777-0.1331425-1.461134l-0.047924-0.0606122
	C6.2477427,1.2931612,4.8957462,1.3462529,4.000814,1.9612602z M5.7513995,2.8225839l0.0407596,0.0535903
	C5.8338723,2.9253156,5.8418875,3.0113149,5.7908626,3.215615l-0.0681257,0.235815L5.7022099,3.5162523
	C5.4424238,4.3323174,5.4046512,4.680491,5.7840829,5.1461153C6.474719,5.9599185,6.9814668,5.9778976,8.6369028,5.4932642
	l0.4200411-0.1258121c1.4679585-0.4474168,2.3392887-0.5066752,3.3401546-0.045464
	C13.6678371,5.9640317,13.941433,7.56282,13.5561848,9.170208c-0.6817589,2.3660402-2.9582787,4.075984-5.5319052,4.075984
	c-3.1884928,0-5.747138-2.511898-5.747138-5.6421366c0-1.871696,0.9155996-3.5726376,2.4524062-4.6131401
	C5.115416,2.7257614,5.6708388,2.7039504,5.7513995,2.8225839z"/>
</svg>
