<?xml version="1.0" encoding="utf-8"?>
<!-- Generator: Adobe Illustrator 24.0.1, SVG Export Plug-In . SVG Version: 6.00 Build 0)  -->
<svg version="1.1" id="Layer_1" xmlns="http://www.w3.org/2000/svg" xmlns:xlink="http://www.w3.org/1999/xlink" x="0px" y="0px"
	 width="16px" height="16px" viewBox="0 0 16 16" enable-background="new 0 0 16 16" xml:space="preserve">
<path id="Icon-Fill" fill-rule="evenodd" clip-rule="evenodd" fill="#181C56" d="M8,1.5c3.8575249,0,7,2.6005545,7,5.9140072
	c0,1.2531576-0.4748983,2.4420424-1.3289185,3.4557381l0,0l-0.145627,0.164772l0.3133268,2.7466583
	c0.0519629,0.4558268-0.3661861,0.8083353-0.787734,0.6986599l0,0l-0.0842161-0.028204l-3.2141037-1.3237896l-0.0382013,0.0113888
	c-0.4387226,0.110301-0.8927307,0.1678667-1.4020081,0.1839914l0,0L8,13.3280144c-3.8575244,0-7-2.6005545-7-5.9140072
	S4.1424756,1.5,8,1.5z M8,2.7881997c-3.2047768,0-5.727273,2.0874903-5.727273,4.6258078S4.7952232,12.0398149,8,12.0398149
	c0.630682,0,1.1327209-0.0619688,1.6105309-0.2070541c0.1390438-0.0422201,0.2881708-0.0350542,0.4226379,0.0203094l0,0
	l2.4177399,0.9950485l-0.2235737-1.9641199c-0.0185556-0.1627693,0.0249472-0.3252602,0.1194553-0.4553604l0,0l0.0627365-0.0739155
	c0.8533459-0.8637199,1.3177462-1.8821526,1.3177462-2.9407158C13.727273,4.87569,11.2047768,2.7881997,8,2.7881997z
	 M9.2148762,7.9409981v1.2881994H5.0495868V7.9409981H9.2148762z M10.9504128,5.5988169v1.2881999h-5.900826V5.5988169H10.9504128z"
	/>
</svg>
