<?xml version="1.0" encoding="utf-8"?>
<svg width="16" height="16" viewBox="0 0 16 16" fill="none" xmlns="http://www.w3.org/2000/svg">
    <path fill-rule="evenodd" clip-rule="evenodd"
        d="M5.21832 3.53389C4.98401 3.76821 4.98401 4.14811 5.21832 4.38242L7.57648 6.74058C7.81079 6.97489 8.19069 6.97489 8.42501 6.74058L10.7832 4.38242C11.0175 4.14811 11.0175 3.76821 10.7832 3.53389L8.42501 1.17574C8.19069 0.941421 7.81079 0.941421 7.57648 1.17574L5.21832 3.53389ZM8.00074 5.46778L6.49112 3.95816L8.00074 2.44853L9.51037 3.95816L8.00074 5.46778Z"
        fill="#181C56" />
    <path fill-rule="evenodd" clip-rule="evenodd"
        d="M1.17574 7.57646C0.941421 7.81078 0.941421 8.19068 1.17574 8.42499L3.53389 10.7831C3.76821 11.0175 4.14811 11.0175 4.38242 10.7831L6.74058 8.42499C6.97489 8.19068 6.97489 7.81078 6.74058 7.57646L4.38242 5.21831C4.14811 4.98399 3.76821 4.98399 3.53389 5.21831L1.17574 7.57646ZM3.95816 9.51036L2.44853 8.00073L3.95816 6.4911L5.46778 8.00073L3.95816 9.51036Z"
        fill="#181C56" />
    <path fill-rule="evenodd" clip-rule="evenodd"
        d="M5.21832 12.4675C4.98401 12.2332 4.98401 11.8533 5.21832 11.619L7.57648 9.26086C7.81079 9.02655 8.19069 9.02655 8.42501 9.26086L10.7832 11.619C11.0175 11.8533 11.0175 12.2332 10.7832 12.4675L8.42501 14.8257C8.19069 15.06 7.81079 15.06 7.57648 14.8257L5.21832 12.4675ZM6.49112 12.0433L8.00074 13.5529L9.51037 12.0433L8.00074 10.5337L6.49112 12.0433Z"
        fill="#181C56" />
    <path fill-rule="evenodd" clip-rule="evenodd"
        d="M11.6191 5.21831L9.26091 7.57646C9.0266 7.81078 9.0266 8.19068 9.26091 8.42499L11.6191 10.7831C11.8534 11.0175 12.2333 11.0175 12.4676 10.7831L14.8258 8.42499C15.0601 8.19068 15.0601 7.81078 14.8258 7.57646L12.4676 5.21831C12.2333 4.98399 11.8534 4.98399 11.6191 5.21831ZM12.0433 9.51036L10.5337 8.00073L12.0433 6.4911L13.553 8.00073L12.0433 9.51036Z"
        fill="#181C56" />
</svg>
