<?xml version="1.0" encoding="utf-8"?>
<!-- Generator: Adobe Illustrator 24.0.1, SVG Export Plug-In . SVG Version: 6.00 Build 0)  -->
<svg version="1.1" id="Layer_1" xmlns="http://www.w3.org/2000/svg" xmlns:xlink="http://www.w3.org/1999/xlink" x="0px" y="0px"
	 width="16px" height="16px" viewBox="0 0 16 16" enable-background="new 0 0 16 16" xml:space="preserve">
<path id="Icon-Fill" fill-rule="evenodd" clip-rule="evenodd" fill="#181C56" d="M10.7863779,1l-0.0482836,0.0017145
	c-2.03337,0.1445912-3.6570272,1.9381258-3.585752,3.995868l0.0086074,0.241982
	c0.0058389,0.0797105,0.0146675,0.1585464,0.0265431,0.2367363L7.22855,5.6948748l-5.3401561,4.7086487
	c-1.1194901,1.0346174-1.1943846,2.7743387-0.1482872,3.8157578l0.1308461,0.1221876
	c1.1134646,0.9746456,2.7865555,0.8603201,3.7156188-0.2958155l4.7233143-5.3106308l0.1443024,0.0264282
	c0.4023304,0.0611763,0.8309832,0.0579729,1.344841,0.0068178c1.4921942-0.2938213,2.6379137-1.3557549,3.0654593-2.7745337
	c0.2057981-0.7503934,0.1701174-1.5141053-0.0590754-2.2746651l-0.0357246-0.093889
	c-0.1940174-0.4167581-0.7562351-0.5304914-1.0962009-0.1920459L12.3809633,4.718761l-1.1036024-1.0976422l1.2889223-1.2818489
	c0.3684826-0.3668345,0.2061367-0.9946067-0.2939987-1.1368637C11.7908134,1.0654583,11.3141088,1,10.7863779,1z
	 M10.5266552,2.4019666l0.0574293-0.0107126L9.8335381,3.139075c-0.2672071,0.2660127-0.2672071,0.6985404,0,0.9645531
	l2.0676651,2.0584178l0.0842543,0.0713811c0.2655373,0.1903496,0.6372004,0.1665559,0.8762064-0.0713811l0.7376385-0.7355051
	l-0.0017862,0.0130949c-0.0113649,0.059876-0.0250797,0.1192064-0.0411758,0.1779618
	c-0.2791529,0.9255948-1.029686,1.6212416-1.9576683,1.8060083c-0.5318012,0.049706-0.9324484,0.0281463-1.3068171-0.0960855
	c-0.2580538-0.0856333-0.5423203-0.00949-0.7230024,0.1936622L4.54738,13.1671286
	c-0.4763665,0.5914373-1.3051908,0.6267996-1.8468127,0.0875998c-0.4866455-0.4844685-0.4501402-1.3324451,0.0999744-1.8409815
	l5.6593523-4.9882207C8.676137,6.2349176,8.7488365,5.9287729,8.6413717,5.6613116
	C8.5531149,5.4416575,8.5132065,5.2330737,8.5132065,4.9740262C8.470644,3.7343993,9.3671341,2.6411812,10.5266552,2.4019666z"/>
</svg>
