<?xml version="1.0" encoding="utf-8"?>
<!-- Generator: Adobe Illustrator 24.0.1, SVG Export Plug-In . SVG Version: 6.00 Build 0)  -->
<svg version="1.1" id="Layer_1" xmlns="http://www.w3.org/2000/svg" xmlns:xlink="http://www.w3.org/1999/xlink" x="0px" y="0px"
	 width="16px" height="16px" viewBox="0 0 16 16" enable-background="new 0 0 16 16" xml:space="preserve">
<path id="Icon-Fill" fill-rule="evenodd" clip-rule="evenodd" fill="#181C56" d="M14.4367819,1.5H1.5632184
	C1.2521615,1.5,1,1.7443638,1,2.0458016v9.640131l0.0051415,0.0740623c0.0372944,0.2664061,0.2729414,0.4717398,0.5580769,0.4717398
	l4.2225285-0.0004969l1.781559,2.0723543l0.060029,0.0600138c0.2329988,0.2000456,0.5989499,0.1800404,0.8053594-0.0600138
	l1.7807541-2.0723543l4.2233334,0.0004969C14.747839,12.2317343,15,11.9873705,15,11.6859322v-9.640131
	C15,1.7443638,14.747839,1.5,14.4367819,1.5z M13.8735628,2.591603v8.5480318L9.950345,11.140131l-0.0826626,0.0059061
	c-0.13591,0.0195379-0.2608585,0.0867929-0.3500319,0.1905022L8,13.1014013l-1.5176506-1.7648621l-0.0575986-0.0577612
	C6.3222599,11.1901016,6.1889563,11.140131,6.049655,11.140131l-3.9232183-0.0004959V2.591603H13.8735628z M8,3.6406479
	c0.9576607,0,1.7335424,0.7758813,1.7335424,1.7335424l0,0V5.959352c0,0.3535781-0.1061878,0.6837487-0.2908831,0.9592094
	l0.7677898,0.5797668c0.4003477,0.3002605,0.6493874,0.7566366,0.6881142,1.2511187l0.0053024,0.1357155v1.1483803H5.0961337
	V8.8851624c0-0.5004358,0.2156773-0.9734926,0.5873241-1.3006353l0.1051807-0.0855136l0.7681441-0.5787582
	C6.3733606,6.6452565,6.2664576,6.3148274,6.2664576,5.959352l0,0V5.3741903C6.2664576,4.4165292,7.0423393,3.6406479,8,3.6406479z
	 M8.4951763,7.6171551C8.3815565,7.6515665,8.26262,7.6752338,8.1394691,7.6869049l0,0L8,7.6928949
	c-0.1734891,0-0.341013-0.0254641-0.4990382-0.0728588L6.4654126,8.399478
	C6.3341842,8.4978991,6.2495041,8.6438255,6.2279882,8.8040257L6.2225704,8.8851624L6.221839,8.9066668h3.5555172
	l0.0000734-0.0215044c0-0.1640358-0.0659332-0.3193359-0.1817589-0.4331007L9.5336752,8.3987923L8.4951763,7.6171551z M8,4.7670846
	c-0.335547,0-0.6071057,0.2715588-0.6071057,0.6071057l0,0V5.959352c0,0.2238455,0.1208515,0.4192138,0.2929983,0.5246701
	c0.016067,0.0040197,0.0304661,0.0126348,0.0445099,0.0219269C7.804985,6.5459361,7.887702,6.566916,7.9732804,6.5670919l0,0
	L8.0592146,6.563653C8.368453,6.5341258,8.6071053,6.2730131,8.6071053,5.959352l0,0V5.3741903
	C8.6071053,5.0386434,8.3355474,4.7670846,8,4.7670846z"/>
</svg>
