<?xml version="1.0" encoding="utf-8"?>
<svg xmlns="http://www.w3.org/2000/svg" width="16" height="16" viewBox="0 0 16 16" fill="none">
    <g clip-path="url(#clip0_4048_1603)">
        <path
            d="M8 0.900391C8.37083 0.900391 8.73564 0.928403 9.0918 0.983398L9.1582 0.998047C9.31161 1.04 9.44332 1.14117 9.52246 1.28125C9.61284 1.44145 9.62468 1.63459 9.55469 1.80469C9.41074 2.15454 9.32406 2.70431 9.49805 3.19824C9.65595 3.64645 10.0658 4.15686 11.1406 4.41699C11.439 4.48918 11.6352 4.7748 11.5947 5.0791C11.5323 5.54714 11.6787 6.2504 12.1152 6.76953C12.5185 7.24894 13.2134 7.62451 14.3926 7.41016C14.5676 7.37833 14.7482 7.42506 14.8848 7.53906C15.0213 7.65306 15.0996 7.82211 15.0996 8C15.0996 11.9212 11.9212 15.0996 8 15.0996C4.07878 15.0996 0.900391 11.9212 0.900391 8C0.900391 4.07878 4.07878 0.900391 8 0.900391ZM2.09961 8C2.09961 11.2585 4.74152 13.9004 8 13.9004C11.0329 13.9004 13.5289 11.6113 13.8604 8.66699C12.6706 8.69784 11.7817 8.23747 11.1973 7.54297C10.6702 6.9165 10.4177 6.13159 10.3857 5.44434C9.27727 5.06129 8.64276 4.38176 8.36621 3.59668C8.18422 3.07992 8.17215 2.55678 8.24023 2.10449C8.16058 2.10131 8.08049 2.09961 8 2.09961C4.74152 2.09961 2.09961 4.74152 2.09961 8Z"
            fill="#181C56" />
        <circle cx="5" cy="8" r="1" fill="#181C56" />
        <circle cx="9" cy="10.5" r="1.5" fill="#181C56" />
        <circle cx="6.75" cy="4.75" r="0.75" fill="#181C56" />
    </g>
    <defs>
        <clipPath id="clip0_4048_1603">
            <rect width="16" height="16" fill="white" />
        </clipPath>
    </defs>
</svg>
