<?xml version="1.0" encoding="utf-8"?>
<svg xmlns="http://www.w3.org/2000/svg" width="16" height="16" viewBox="0 0 16 16" fill="none">
    <path
        d="M8 1C8.36564 1 8.7251 1.02783 9.07617 1.08203L9.18555 1.1123C9.29028 1.15418 9.37904 1.23088 9.43555 1.33105C9.49188 1.43104 9.51135 1.54616 9.49316 1.65723L9.46191 1.7666C9.31142 2.13241 9.22001 2.70829 9.4043 3.23145C9.57522 3.71647 10.0151 4.24692 11.1172 4.51367C11.3347 4.5663 11.4869 4.75547 11.499 4.97168L11.4961 5.06641C11.4303 5.56065 11.5832 6.29208 12.0391 6.83398C12.4671 7.34284 13.1984 7.72803 14.4102 7.50781C14.556 7.48129 14.7065 7.52121 14.8203 7.61621C14.9341 7.71121 15 7.85174 15 8C15 11.866 11.866 15 8 15C4.13401 15 1 11.866 1 8C1 4.13401 4.13401 1 8 1ZM9 9C8.17157 9 7.5 9.67157 7.5 10.5C7.5 11.3284 8.17157 12 9 12C9.82843 12 10.5 11.3284 10.5 10.5C10.5 9.67157 9.82843 9 9 9ZM5 7C4.44772 7 4 7.44772 4 8C4 8.55228 4.44772 9 5 9C5.55228 9 6 8.55228 6 8C6 7.44772 5.55228 7 5 7ZM6.75 4C6.33579 4 6 4.33579 6 4.75C6 5.16421 6.33579 5.5 6.75 5.5C7.16421 5.5 7.5 5.16421 7.5 4.75C7.5 4.33579 7.16421 4 6.75 4Z"
        fill="#181C56" />
</svg>
