<?xml version="1.0" encoding="utf-8"?>
<!-- Generator: Adobe Illustrator 24.0.1, SVG Export Plug-In . SVG Version: 6.00 Build 0)  -->
<svg version="1.1" id="Layer_1" xmlns="http://www.w3.org/2000/svg" xmlns:xlink="http://www.w3.org/1999/xlink" x="0px" y="0px"
	 width="16px" height="16px" viewBox="0 0 16 16" enable-background="new 0 0 16 16" xml:space="preserve">
<path id="Icon-Fill" fill-rule="evenodd" clip-rule="evenodd" fill="#181C56" d="M10.9601116,3.3993144
	c0.357111,0,0.6466064,0.3007789,0.6466064,0.6718082l0,0v10.2570686C11.6067181,14.6992216,11.3172226,15,10.9601116,15l0,0
	H2.646606C2.2894955,15,2,14.6992216,2,14.3281918l0,0V4.0711226c0-0.3710294,0.2894955-0.6718082,0.646606-0.6718082l0,0
	H10.9601116z M10.3135061,4.7429304H3.2932119v8.9129734h7.0202942V4.7429304z M13.3533936,1
	c0.3273516,0,0.597888,0.2527376,0.6407032,0.5806477L14,1.671808V12.926774h-1.2932119L12.7059479,2.343616h-8.421833V1H13.3533936
	z"/>
</svg>
