<svg width="16" height="16" viewBox="0 0 16 16" fill="none" xmlns="http://www.w3.org/2000/svg">
<path fill-rule="evenodd" clip-rule="evenodd" d="M10.1273 8.38804C11.2523 7.68015 12 6.42739 12 5C12 2.79086 10.2091 1 8 1C5.79086 1 4 2.79086 4 5C4 6.42739 4.74765 7.68015 5.87271 8.38804C3.60905 9.24658 2 11.4354 2 14V15H14V14C14 11.4354 12.3909 9.24658 10.1273 8.38804ZM12.4 3.5H13.6L13.6 6.5H12.4V3.5ZM2.4 6.5C2.4 7.6598 3.3402 8.6 4.5 8.6V7.4C4.00294 7.4 3.6 6.99706 3.6 6.5V3.5H2.4L2.4 6.5Z" fill="#181C56"/>
</svg>
