<svg width="16" height="16" viewBox="0 0 16 16" fill="none" xmlns="http://www.w3.org/2000/svg">
<path fill-rule="evenodd" clip-rule="evenodd" d="M5.16411 5.0709C5.16411 3.47672 6.44051 2.19573 8.0011 2.19573C9.56169 2.19573 10.8381 3.47672 10.8381 5.0709C10.8381 6.66509 9.56169 7.94608 8.0011 7.94608C6.44051 7.94608 5.16411 6.66509 5.16411 5.0709ZM8.0011 0.995728C5.7653 0.995728 3.96411 2.82651 3.96411 5.0709C3.96411 6.45071 4.64488 7.6742 5.68888 8.41206C3.52009 9.32727 2 11.491 2 14.0071V15H3.2V14.0071C3.2 11.3162 5.35571 9.14608 8.00098 9.14608C10.6463 9.14608 12.802 11.3162 12.802 14.0071V15H14.002V14.0071C14.002 11.4911 12.4819 9.32737 10.3132 8.41212C11.3573 7.67426 12.0381 6.45075 12.0381 5.0709C12.0381 2.82651 10.2369 0.995728 8.0011 0.995728ZM12.311 3.58154H13.511L13.511 6.56027H12.311V3.58154ZM2.49112 6.57663C2.49112 7.72152 3.41923 8.64963 4.56411 8.64963V7.44963C4.08197 7.44963 3.69112 7.05877 3.69112 6.57663L3.69112 3.58154H2.49112L2.49112 6.57663Z" fill="#181C56"/>
</svg>
