<?xml version="1.0" encoding="utf-8"?>
<!-- Generator: Adobe Illustrator 22.0.1, SVG Export Plug-In . SVG Version: 6.00 Build 0)  -->
<svg version="1.1" id="Layer_1" xmlns="http://www.w3.org/2000/svg" xmlns:xlink="http://www.w3.org/1999/xlink" x="0px" y="0px"
	 viewBox="0 0 16 16" enable-background="new 0 0 16 16" xml:space="preserve">
<title>Icon/UI/Date</title>
<desc>Created with Sketch.</desc>
<g id="Icon_x2F_UI_x2F_Date">
	<g id="Icon-Fill">
		<path id="path-1_1_" fill="#181C56" d="M13.25,13.24999H2.75v-6.125h10.5V13.24999z M14.125,2.74999h-1.75v-0.875
			c0-0.525-0.35-0.875-0.875-0.875h-0.875c-0.525,0-0.875,0.35-0.875,0.875v0.875h-3.5v-0.875c0-0.525-0.35-0.875-0.875-0.875H4.5
			c-0.525,0-0.875,0.35-0.875,0.875v0.875h-1.75c-0.525,0-0.875,0.35-0.875,0.875v10.5c0,0.525,0.35,0.875,0.875,0.875h12.25
			c0.525,0,0.875-0.35,0.875-0.875v-10.5C15,3.09999,14.65,2.74999,14.125,2.74999L14.125,2.74999z"/>
	</g>
</g>
</svg>
