<?xml version="1.0" encoding="utf-8"?>
<!-- Generator: Adobe Illustrator 24.3.0, SVG Export Plug-In . SVG Version: 6.00 Build 0)  -->
<svg version="1.1" id="Layer_1" xmlns="http://www.w3.org/2000/svg" xmlns:xlink="http://www.w3.org/1999/xlink" x="0px" y="0px"
	 width="16px" height="16px" viewBox="0 0 16 16" enable-background="new 0 0 16 16" xml:space="preserve">
<g id="Icon_x2F_UI_x2F_Delete">
	<g id="Icon-Fill">
		<path id="path-1_1_" fill-rule="evenodd" clip-rule="evenodd" fill="#181C56" d="M10.3140497,1.0000262
			c0.3221664,0,0.5884161,0.2394032,0.6305542,0.5500128l0.0058088,0.0863508l-0.0004129,1.6776363l3.25,0.0000496V4.586803
			L13.099,4.5860262l0.0001736,9.7776365c0,0.3221664-0.2394028,0.5884171-0.5500126,0.6305552l-0.0863514,0.0058088h-9.090909
			c-0.322166,0-0.5884166-0.2394037-0.6305544-0.5500126l-0.0058091-0.0863514L2.7349999,4.5860262L1.8,4.586803V3.3140757
			l3.2489998-0.0000496l0.000587-1.6776363c0-0.3221661,0.2394032-0.5884166,0.5500131-0.6305543l0.0863504-0.0058093H10.3140497z
			 M11.8260002,4.5860262H4.0079999l0.0001822,9.1412735h7.8181815L11.8260002,4.5860262z M9.9427271,6.4779606v5.3574047h-1.272727
			V6.4779606H9.9427271z M7.1727271,6.4779606v5.3574047h-1.272727V6.4779606H7.1727271z M9.6772728,2.2727535H6.3218184
			L6.322,3.3140261h3.355L9.6772728,2.2727535z"/>
	</g>
</g>
</svg>
