<?xml version="1.0" encoding="utf-8"?>
<!-- Generator: Adobe Illustrator 24.0.1, SVG Export Plug-In . SVG Version: 6.00 Build 0)  -->
<svg version="1.1" id="Layer_1" xmlns="http://www.w3.org/2000/svg" xmlns:xlink="http://www.w3.org/1999/xlink" x="0px" y="0px"
	 width="16px" height="16px" viewBox="0 0 16 16" enable-background="new 0 0 16 16" xml:space="preserve">
<path id="path-1_1_" fill-rule="evenodd" clip-rule="evenodd" fill="#181C56" d="M5.3706031,14.5581026
	c-0.1148658,0.1148663-0.2706575,0.1793976-0.4331026,0.1793976l0,0H1.8750001c-0.3382744,0-0.6125-0.2742262-0.6125-0.6125002l0,0
	v-3.0625c0-0.1624451,0.0645311-0.3182373,0.1793971-0.4331036l0,0l9.187499-9.1875
	c0.2391968-0.2391962,0.6270103-0.2391962,0.8662062,0l0,0l3.0625,3.0625c0.2391958,0.2391963,0.2391958,0.6270099,0,0.8662057l0,0
	L5.3706031,14.5581026z M9.2235003,4.5774999l-6.7360001,6.737v2.198h2.19625l6.7377501-6.7379999L9.2235003,4.5774999z
	 M11.0625,2.7403748l-0.9730005,0.970125l2.198,2.198L13.2596245,4.9375L11.0625,2.7403748z"/>
</svg>
