<?xml version="1.0" encoding="utf-8"?>
<!-- Generator: Adobe Illustrator 24.0.1, SVG Export Plug-In . SVG Version: 6.00 Build 0)  -->
<svg version="1.1" id="Layer_1" xmlns="http://www.w3.org/2000/svg" xmlns:xlink="http://www.w3.org/1999/xlink" x="0px" y="0px"
	 width="16px" height="16px" viewBox="0 0 16 16" enable-background="new 0 0 16 16" xml:space="preserve">
<path id="path-1_1_" fill-rule="evenodd" clip-rule="evenodd" fill="#181C56" d="M15,13.3390503
	c0,0.3346128-0.2394037,0.6111498-0.5500126,0.6549158L14.363636,14H1.6363636
	c-0.3221661,0-0.5884166-0.2486525-0.6305543-0.5712633L1,13.3390503V2.6609502C1,2.2959175,1.2849097,2,1.6363636,2l0,0h12.727272
	C14.7150908,2,15,2.2959175,15,2.6609502l0,0V13.3390503z M13.7270002,6.7779999L8.3047237,9.8506966
	c-0.1899395,0.1076069-0.4195075,0.1076069-0.609448,0l0,0L2.2720001,6.7779999l0.0007272,5.8995848h11.454546L13.7270002,6.7779999
	z M13.727273,3.3219001H2.2727273v1.9507473l5.7263641,3.2443204l5.7281818-3.2443204V3.3219001z"/>
</svg>
