<?xml version="1.0" encoding="UTF-8"?>
<svg xmlns="http://www.w3.org/2000/svg" width="16" height="16" viewBox="0 0 16 16" fill="none">
    <path fill-rule="evenodd" clip-rule="evenodd"
        d="M0.997681 3.08488C0.997681 1.92976 1.93875 0.999512 3.092 0.999512C4.24526 0.999512 5.18633 1.92976 5.18633 3.08488C5.18633 4.23999 4.24526 5.17024 3.092 5.17024C1.93875 5.17024 0.997681 4.23999 0.997681 3.08488ZM3.092 2.19951C2.59468 2.19951 2.19768 2.5993 2.19768 3.08488C2.19768 3.57045 2.59468 3.97024 3.092 3.97024C3.58933 3.97024 3.98633 3.57045 3.98633 3.08488C3.98633 2.5993 3.58933 2.19951 3.092 2.19951Z"
        fill="#181C56" />
    <path fill-rule="evenodd" clip-rule="evenodd"
        d="M11.5598 8.42633C11.7877 8.42633 11.9959 8.55541 12.0972 8.75951L12.8356 10.2465L14.488 10.4852C14.7144 10.5179 14.9026 10.6766 14.973 10.8943C15.0435 11.1119 14.984 11.3508 14.8197 11.51L13.6262 12.6664L13.9078 14.2984C13.9466 14.5233 13.8544 14.7508 13.67 14.8852C13.4856 15.0197 13.2409 15.0379 13.0386 14.9322L11.5598 14.1594L10.081 14.9322C9.87877 15.0379 9.63405 15.0197 9.44964 14.8852C9.26523 14.7508 9.17309 14.5233 9.21189 14.2984L9.49349 12.6664L8.29995 11.51C8.13563 11.3508 8.07616 11.1119 8.14663 10.8943C8.2171 10.6766 8.40524 10.5179 8.63169 10.4852L10.2841 10.2465L11.0224 8.75951C11.1238 8.55541 11.332 8.42633 11.5598 8.42633ZM11.5598 10.3755L11.2189 11.0622C11.1312 11.2388 10.9624 11.361 10.7673 11.3892L10.0124 11.4983L10.5562 12.0252C10.6986 12.1632 10.7636 12.3626 10.7299 12.5581L10.6008 13.3066L11.2819 12.9507C11.456 12.8597 11.6636 12.8597 11.8377 12.9507L12.5189 13.3066L12.3898 12.5581C12.356 12.3626 12.4211 12.1632 12.5635 12.0252L13.1073 11.4983L12.3524 11.3892C12.1573 11.361 11.9884 11.2388 11.9008 11.0622L11.5598 10.3755Z"
        fill="#181C56" />
    <path
        d="M6.00002 3.68488H9.43794C10.2785 3.68488 10.9599 4.36628 10.9599 5.20683C10.9599 6.04738 10.2785 6.72878 9.43794 6.72878H5.67377C3.91656 6.72878 2.49207 8.15328 2.49207 9.91048C2.49207 11.6677 3.91656 13.0922 5.67377 13.0922H8.00002V11.8922H5.67377C4.5793 11.8922 3.69207 11.0049 3.69207 9.91048C3.69207 8.81602 4.5793 7.92878 5.67377 7.92878H9.43794C10.9412 7.92878 12.1599 6.71012 12.1599 5.20683C12.1599 3.70354 10.9412 2.48488 9.43794 2.48488H6.00002V3.68488Z"
        fill="#181C56" />
</svg>
