<?xml version="1.0" encoding="UTF-8"?>
<svg xmlns="http://www.w3.org/2000/svg" width="16" height="16" viewBox="0 0 16 16" fill="none">
    <path fill-rule="evenodd" clip-rule="evenodd"
        d="M8.5424 3.17122C8.44301 2.962 8.23207 2.82867 8.00044 2.82867C7.76881 2.82867 7.55787 2.962 7.45848 3.17122L6.81945 4.51646L5.39989 4.73076C5.1767 4.76446 4.9913 4.92057 4.92009 5.13476C4.84889 5.34896 4.90392 5.585 5.06252 5.74561L6.10315 6.79947L5.85658 8.29308C5.81921 8.51945 5.9142 8.74731 6.10129 8.8801C6.28839 9.01289 6.53483 9.02736 6.73618 8.91738L8.00044 8.22684L9.2647 8.91738C9.46605 9.02736 9.71249 9.01289 9.89958 8.8801C10.0867 8.74731 10.1817 8.51945 10.1443 8.29308L9.89773 6.79947L10.9384 5.74561C11.097 5.585 11.152 5.34896 11.0808 5.13476C11.0096 4.92057 10.8242 4.76446 10.601 4.73076L9.18143 4.51646L8.5424 3.17122ZM7.76646 5.31955L8.00044 4.827L8.23442 5.31955C8.32001 5.49974 8.48956 5.6256 8.68681 5.65538L9.25615 5.74133L8.82899 6.17392C8.69401 6.31061 8.63265 6.50368 8.66394 6.69322L8.75987 7.27431L8.28805 7.0166C8.10881 6.9187 7.89207 6.9187 7.71282 7.0166L7.241 7.27431L7.33694 6.69322C7.36823 6.50368 7.30686 6.31061 7.17188 6.17392L6.74473 5.74133L7.31407 5.65538C7.51132 5.6256 7.68087 5.49974 7.76646 5.31955Z"
        fill="#181C56" />
    <path fill-rule="evenodd" clip-rule="evenodd"
        d="M7.56958 14.8184C7.56969 14.8185 7.5698 14.8186 8.00034 14.4007L7.56958 14.8184C7.68257 14.9348 7.83811 15.0007 8.00034 15.0007C8.16257 15.0007 8.31789 14.935 8.43088 14.8186L8.00034 14.4007C8.43088 14.8186 8.43076 14.8187 8.43088 14.8186L8.43237 14.817L8.43544 14.8139L8.44628 14.8026L8.48597 14.7608C8.52016 14.7246 8.5695 14.6719 8.63181 14.6038C8.7564 14.4679 8.93308 14.2707 9.1445 14.0227C9.56677 13.5273 10.1305 12.8259 10.6954 12.002C11.8045 10.3842 13.0007 8.17754 13.0007 6.09754C13.0007 3.29467 10.7742 1 8.00034 1C5.22644 1 3 3.29467 3 6.09754C3 8.17754 4.19619 10.3842 5.3053 12.002C5.87017 12.8259 6.43391 13.5273 6.85618 14.0227C7.0676 14.2707 7.24428 14.4679 7.36887 14.6038C7.43118 14.6719 7.48051 14.7246 7.51471 14.7608L7.5544 14.8026L7.56524 14.8139L7.56831 14.817L7.56958 14.8184ZM4.2 6.09754C4.2 3.93256 5.91376 2.2 8.00034 2.2C10.0869 2.2 11.8007 3.93256 11.8007 6.09754C11.8007 7.78711 10.7967 9.732 9.70564 11.3234C9.17043 12.1041 8.63408 12.7717 8.23129 13.2442C8.14808 13.3418 8.07069 13.4309 8.00034 13.5109C7.92998 13.4309 7.8526 13.3418 7.76939 13.2442C7.3666 12.7717 6.83025 12.1041 6.29504 11.3234C5.20398 9.732 4.2 7.78711 4.2 6.09754Z"
        fill="#181C56" />
</svg>
