<?xml version="1.0" encoding="UTF-8"?>
<svg xmlns="http://www.w3.org/2000/svg" width="16" height="16" viewBox="0 0 16 16" fill="none">
    <path fill-rule="evenodd" clip-rule="evenodd"
        d="M7.56958 14.8184C7.56958 14.8184 7.5698 14.8186 8.00034 14.4007C8.43088 14.8186 8.43142 14.818 8.43142 14.818C8.31843 14.9344 8.16257 15.0007 8.00034 15.0007C7.83811 15.0007 7.68257 14.9348 7.56958 14.8184ZM7.56958 14.8184L8.00034 14.4007L8.43142 14.818L8.43237 14.817L8.48597 14.7608C8.52016 14.7246 8.5695 14.6719 8.63181 14.6038C8.7564 14.4679 8.93308 14.2707 9.1445 14.0227C9.56677 13.5273 10.1305 12.8259 10.6954 12.002C11.8045 10.3842 13.0007 8.17754 13.0007 6.09754C13.0007 3.29467 10.7742 1 8.00034 1C5.22644 1 3 3.29467 3 6.09754C3 8.17754 4.19619 10.3842 5.3053 12.002C5.87017 12.8259 6.43391 13.5273 6.85618 14.0227C7.0676 14.2707 7.24428 14.4679 7.36887 14.6038C7.43009 14.6707 7.49196 14.7369 7.5544 14.8026L7.56524 14.8139L7.56831 14.817L7.56958 14.8184ZM8.65296 3.17122C8.55357 2.962 8.34263 2.82867 8.111 2.82867C7.87937 2.82867 7.66843 2.962 7.56904 3.17122L6.93001 4.51646L5.51045 4.73076C5.28726 4.76446 5.10186 4.92057 5.03065 5.13476C4.95945 5.34896 5.01448 5.585 5.17308 5.74561L6.21371 6.79948L5.96714 8.29308C5.92977 8.51945 6.02476 8.74731 6.21185 8.8801C6.39895 9.01289 6.64539 9.02736 6.84674 8.91738L8.111 8.22684L9.37526 8.91738C9.57661 9.02736 9.82305 9.01289 10.0101 8.8801C10.1972 8.74731 10.2922 8.51945 10.2549 8.29308L10.0083 6.79948L11.0489 5.74561C11.2075 5.585 11.2626 5.34896 11.1913 5.13476C11.1201 4.92057 10.9347 4.76446 10.7115 4.73076L9.29199 4.51646L8.65296 3.17122Z"
        fill="#181C56" />
</svg>
