<?xml version="1.0" encoding="UTF-8"?>
<svg xmlns="http://www.w3.org/2000/svg" width="16" height="16" viewBox="0 0 16 16" fill="none">
    <path fill-rule="evenodd" clip-rule="evenodd"
        d="M1 3.08488C1 1.92976 1.94107 0.999512 3.09432 0.999512C4.24758 0.999512 5.18865 1.92976 5.18865 3.08488C5.18865 4.23999 4.24758 5.17024 3.09432 5.17024C1.94107 5.17024 1 4.23999 1 3.08488ZM11.5622 8.42633C11.79 8.42633 11.9982 8.55541 12.0996 8.75951L12.8379 10.2466L14.4903 10.4852C14.7168 10.5179 14.9049 10.6766 14.9754 10.8943C15.0458 11.1119 14.9864 11.3508 14.822 11.51L13.6285 12.6664L13.9101 14.2984C13.9489 14.5233 13.8568 14.7508 13.6724 14.8852C13.4879 15.0197 13.2432 15.0379 13.0409 14.9322L11.5622 14.1594L10.0834 14.9322C9.88109 15.0379 9.63637 15.0197 9.45196 14.8852C9.26755 14.7508 9.17541 14.5233 9.21421 14.2984L9.49581 12.6664L8.30227 11.51C8.13795 11.3508 8.07848 11.1119 8.14895 10.8943C8.21942 10.6766 8.40756 10.5179 8.63401 10.4852L10.2864 10.2465L11.0248 8.75951C11.1261 8.55541 11.3343 8.42633 11.5622 8.42633ZM6.00234 3.68488H9.44026C10.2808 3.68488 10.9622 4.36628 10.9622 5.20683C10.9622 6.04738 10.2808 6.72878 9.44026 6.72878H5.67609C3.91888 6.72878 2.49438 8.15328 2.49438 9.91048C2.49438 11.6677 3.91888 13.0922 5.67609 13.0922H8.00234V11.8922H5.67609C4.58162 11.8922 3.69438 11.0049 3.69438 9.91048C3.69438 8.81602 4.58162 7.92878 5.67609 7.92878H9.44026C10.9436 7.92878 12.1622 6.71012 12.1622 5.20683C12.1622 3.70354 10.9436 2.48488 9.44026 2.48488H6.00234V3.68488Z"
        fill="#181C56" />
</svg>
