<svg width="16" height="16" viewBox="0 0 16 16" fill="none" xmlns="http://www.w3.org/2000/svg">
<path fill-rule="evenodd" clip-rule="evenodd" d="M2.5 1C2.22386 1 2 1.22386 2 1.5V14.5C2 14.7761 2.22386 15 2.5 15H12.5C12.7761 15 13 14.7761 13 14.5V7.43548L14.9243 5.51122C15.0368 5.3987 15.1 5.24609 15.1 5.08696C15.1 4.92783 15.0368 4.77521 14.9243 4.66269L13 2.73843V1.5C13 1.22386 12.7761 1 12.5 1H2.5ZM10.6645 3.9H4.5V5.1H9.46452L10.6645 3.9ZM7.16452 7.4H4.5V8.6H6.66754L6.97427 7.67983C7.00372 7.59146 7.05335 7.51117 7.11921 7.4453L7.16452 7.4ZM5.5 12.1H4.5V10.9H5.5V12.1ZM8.0679 8.19367L12.413 3.84853L13.6515 5.08696L9.30633 9.4321L7.44868 10.0513L8.0679 8.19367Z" fill="#181C56"/>
</svg>
