<svg width="16" height="16" viewBox="0 0 16 16" fill="none" xmlns="http://www.w3.org/2000/svg">
<path fill-rule="evenodd" clip-rule="evenodd" d="M1.99872 1.6C1.99872 1.26863 2.26735 1 2.59872 1H12.4341C12.7655 1 13.0341 1.26863 13.0341 1.6V2.91428L14.8258 4.70805C15.0597 4.94231 15.0597 5.32182 14.8258 5.55608L13.0341 7.34985V14.4011C13.0341 14.7325 12.7655 15.0011 12.4341 15.0011H2.59872C2.26735 15.0011 1.99872 14.7325 1.99872 14.4011V1.6ZM11.8341 2.2V2.74315L10.1328 4.44643H4.56587V5.64643H8.93426L7.18222 7.40054H4.56587V8.60054H6.79627L6.43428 10.3546H4.56587V11.5546H6.53294V11.1767L9.73339 10.5147C9.84819 10.4909 9.95351 10.4341 10.0364 10.3511L11.8341 8.55127V13.8011H3.19872V2.2H11.8341ZM12.3486 3.92606L8.11059 8.16914L7.79675 9.68989L9.31433 9.37597L13.5532 5.13206L12.3486 3.92606Z" fill="#181C56"/>
</svg>
