<?xml version="1.0" encoding="utf-8"?>
<!-- Generator: Adobe Illustrator 24.0.1, SVG Export Plug-In . SVG Version: 6.00 Build 0)  -->
<svg version="1.1" id="Layer_1" xmlns="http://www.w3.org/2000/svg" xmlns:xlink="http://www.w3.org/1999/xlink" x="0px" y="0px"
	 width="16px" height="16px" viewBox="0 0 16 16" enable-background="new 0 0 16 16" xml:space="preserve">
<path id="path-1_1_" fill-rule="evenodd" clip-rule="evenodd" fill="#181C56" d="M9.7821779,1
	c0.0511179,0,0.1016178,0.0058327,0.1505623,0.0171194C9.9491796,1.0207578,9.9650574,1.0250461,9.9806795,1.029891
	C9.9893761,1.0327669,9.99821,1.0357118,10.0069742,1.0388387c0.0214195,0.0074683,0.0420475,0.0160549,0.0620995,0.025612
	c0.0114651,0.0056099,0.0229855,0.0115068,0.0343237,0.0177391c0.0178928,0.0097331,0.0351372,0.0203071,0.051815,0.0316187
	c0.0316019,0.0214602,0.0614271,0.045692,0.089036,0.0725781L10.18466,1.1349951
	c0.0155144,0.0118273,0.0304651,0.0243227,0.0448074,0.0374417l0.014781,0.0139498l3.5643559,3.4710746
	c0.0054827,0.0053387,0.0108576,0.0107627,0.0161238,0.0162687c0.0114889,0.0119915,0.022727,0.0246878,0.0334444,0.0378056
	c0.0103865,0.0127792,0.0200424,0.025589,0.0291777,0.0387063c0.0100775,0.0143018,0.0198488,0.0296283,0.0289526,0.0453696
	C13.92276,4.8070488,13.9287271,4.8181672,13.93435,4.8294425c0.0102777,0.0202098,0.0194817,0.0414467,0.0275011,0.0632334
	c0.0026846,0.007822,0.0052528,0.0152426,0.0076799,0.0227094c0.0111656,0.0337272,0.0194216,0.0692234,0.0245037,0.1057019
	l0.002965,0.054913L14,5.1074381v9.2561979C14,14.7150908,13.7074337,15,13.3465347,15l0,0H2.6534653
	C2.2925663,15,2,14.7150908,2,14.363636l0,0V1.6363636C2,1.2849097,2.2925663,1,2.6534653,1l0,0H9.7821779z M9.1280003,2.2720001
	L3.3069308,2.2727273v11.454546h9.3856297L12.6920004,5.743L9.7821779,5.7438016c-0.3308239,0-0.6042299-0.2394032-0.6475-0.5500126
	L9.1287127,5.1074381L9.1280003,2.2720001z M10.9702969,10.8347111v1.272727H5.0297031v-1.272727H10.9702969z M10.9702969,7.9421487
	v1.2727275H5.0297031V7.9421487H10.9702969z M7.4059405,5.0495868v1.2727275H5.0297031V5.0495868H7.4059405z M10.4350004,3.171
	l0.0003033,1.2999091l1.3336964-0.0009093L10.4350004,3.171z"/>
</svg>
