<svg xmlns="http://www.w3.org/2000/svg" width="16" height="16" viewBox="0 0 16 16" fill="none">
    <path fill-rule="evenodd" clip-rule="evenodd"
        d="M13.9008 1.0011L2.09914 1.00114C1.76777 1.00114 1.49915 1.26977 1.49915 1.60114V3.99258C1.49915 4.15316 1.56351 4.30704 1.67785 4.4198L6.07091 8.75202V14.3988C6.07091 14.6132 6.18531 14.8113 6.37099 14.9185C6.55668 15.0257 6.78544 15.0256 6.97107 14.9184L9.62911 13.3826C9.81466 13.2754 9.92895 13.0774 9.92895 12.8631V8.75202L14.3221 4.41976C14.4365 4.30701 14.5008 4.15312 14.5008 3.99254V1.6011C14.5008 1.44197 14.4376 1.28936 14.3251 1.17683C14.2126 1.06431 14.0599 1.0011 13.9008 1.0011ZM10.4587 5.09347H5.54132V3.89347H10.4587V5.09347Z"
        fill="#181C56" />
</svg>