<svg width="16" height="16" viewBox="0 0 16 16" fill="none" xmlns="http://www.w3.org/2000/svg">
<path fill-rule="evenodd" clip-rule="evenodd" d="M1.33334 1.99998C1.33334 1.63179 1.63181 1.33331 2 1.33331H14C14.3682 1.33331 14.6667 1.63179 14.6667 1.99998V3.99998C14.6667 4.17679 14.5964 4.34636 14.4714 4.47138L10 8.94279V12.6666C10 12.9192 9.85733 13.15 9.63148 13.2629L6.96481 14.5963C6.75815 14.6996 6.51273 14.6886 6.31618 14.5671C6.11964 14.4456 6 14.231 6 14V8.94279L1.5286 4.47138C1.40357 4.34636 1.33334 4.17679 1.33334 3.99998V1.99998ZM2.66667 2.66665V3.72384L7.13807 8.19524C7.2631 8.32027 7.33334 8.48984 7.33334 8.66665V12.9213L8.66667 12.2546V8.66665C8.66667 8.48984 8.73691 8.32027 8.86193 8.19524L13.3333 3.72384V2.66665H2.66667Z" fill="#181C56"/>
</svg>
