<?xml version="1.0" encoding="utf-8"?>
<svg width="16" height="16" viewBox="0 0 16 16" fill="none" xmlns="http://www.w3.org/2000/svg">
    <path fill-rule="evenodd" clip-rule="evenodd"
        d="M0.999184 3.5994C0.99918 2.99188 1.49167 2.49939 2.09918 2.49939H6.03045C6.18806 2.49939 6.33935 2.56141 6.4516 2.67204L7.75351 3.95506H13.9006C14.5081 3.95506 15.0006 4.44754 15.0006 5.05505L15.0007 12.4006C15.0007 13.0081 14.5082 13.5006 13.9007 13.5006H2.09924C1.49173 13.5006 0.999242 13.0081 0.999238 12.4006L0.999184 3.5994ZM2.19918 3.69939L2.19924 12.3006H13.8007L13.8006 5.15506H7.50754C7.34993 5.15506 7.19865 5.09304 7.08639 4.98241L5.78448 3.69939H2.19918Z"
        fill="#181C56" />
</svg>
