<?xml version="1.0" encoding="utf-8"?>
<!-- Generator: Adobe Illustrator 24.0.1, SVG Export Plug-In . SVG Version: 6.00 Build 0)  -->
<svg version="1.1" id="Layer_1" xmlns="http://www.w3.org/2000/svg" xmlns:xlink="http://www.w3.org/1999/xlink" x="0px" y="0px"
	 width="16px" height="16px" viewBox="0 0 16 16" enable-background="new 0 0 16 16" xml:space="preserve">
<path id="path-1_1_" fill-rule="evenodd" clip-rule="evenodd" fill="#181C56" d="M6.8429751,1H1.6363636
	C1.2849097,1,1,1.2849097,1,1.6363636v5.2066116c0,0.3514538,0.2849097,0.6363635,0.6363636,0.6363635h5.2066116
	c0.3514538,0,0.6363635-0.2849097,0.6363635-0.6363635V1.6363636C7.4793386,1.2849097,7.1944289,1,6.8429751,1z
	 M6.2063637,2.2727273v3.9336364H2.2727273V2.2727273H6.2063637z M14.363636,1H9.1570244
	c-0.3514538,0-0.636363,0.2849097-0.636363,0.6363636v5.2066116c0,0.3514538,0.2849092,0.6363635,0.636363,0.6363635h5.2066116
	C14.7150908,7.4793386,15,7.1944289,15,6.8429751V1.6363636C15,1.2849097,14.7150908,1,14.363636,1z M13.727273,2.2727273v3.9336364
	H9.7927275V2.2727273H13.727273z M6.8429751,8.5206614H1.6363636C1.2849097,8.5206614,1,8.8055706,1,9.1570244v5.2066116
	C1,14.7150908,1.2849097,15,1.6363636,15h5.2066116c0.3514538,0,0.6363635-0.2849092,0.6363635-0.636364V9.1570244
	C7.4793386,8.8055706,7.1944289,8.5206614,6.8429751,8.5206614z M6.2063637,9.7927275v3.9345455H2.2727273V9.7927275H6.2063637z
	 M14.363636,8.5206614H9.1570244c-0.3514538,0-0.636363,0.2849092-0.636363,0.636363v5.2066116
	C8.5206614,14.7150908,8.8055706,15,9.1570244,15h5.2066116C14.7150908,15,15,14.7150908,15,14.363636V9.1570244
	C15,8.8055706,14.7150908,8.5206614,14.363636,8.5206614z M13.727273,9.7927275v3.9345455H9.7927275V9.7927275H13.727273z"/>
</svg>
