<?xml version="1.0" encoding="utf-8"?>
<!-- Generator: Adobe Illustrator 24.2.1, SVG Export Plug-In . SVG Version: 6.00 Build 0)  -->
<svg version="1.1" id="Layer_1" xmlns="http://www.w3.org/2000/svg" xmlns:xlink="http://www.w3.org/1999/xlink" x="0px" y="0px"
	 width="12px" height="14px" viewBox="0 0 12 14" enable-background="new 0 0 12 14" xml:space="preserve">
<g id="_x30_5.-Icons">
	<g id="_x30_3---Iconography" transform="translate(-1246.000000, -463.000000)">
		<g id="Icon_x2F_UI_x2F_Hand-Tool" transform="translate(1244.000000, 462.000000)">
			<g id="Icon-Fill">
				<path id="path-1_1_" fill-rule="evenodd" clip-rule="evenodd" fill="#181C56" d="M8.0451384,1
					c0.6720409,0,1.2540398,0.3774151,1.5370941,0.9276474c0.1801863-0.0633658,0.3760767-0.098212,0.5802803-0.098212
					c0.6720409,0,1.2540398,0.3774149,1.5370951,0.9276474c0.1801853-0.0633659,0.3760757-0.098212,0.5802803-0.098212
					c0.902524,0,1.6426535,0.6806841,1.7144098,1.5464983L14,4.3435431v7.1500063
					c0,1.1427002-0.2898121,2.0307655-0.7859926,2.6794262c-0.3190775,0.4171324-0.6561031,0.660346-0.9179716,0.7726412
					c-0.0557604,0.0239115-0.1144876,0.0401115-0.1744976,0.048254L12.0307722,15H4.8659348
					c-0.1674209,0-0.3272777-0.0621109-0.4485459-0.1717281L4.3495069,14.756917l-1.4798768-1.8115988
					c-0.5159431-0.6317892-0.8167214-1.4039621-0.8632681-2.207777L2,10.5176163V8.3482161
					c0.0001101-0.9365039,0.7957788-1.6848345,1.7637625-1.6848345c0.152132,0,0.3000078,0.0184841,0.4412069,0.053277
					L4.2046757,3.5565889l0.0029759-0.0426431l0,0c0-0.9304519,0.7700868-1.6846725,1.7201123-1.6846725
					c0.2043591,0,0.4003925,0.0348994,0.5822253,0.098945C6.791223,1.3773346,7.3731694,1,8.0451384,1z M8.0451384,2.2954867
					c-0.1951079,0-0.3573308,0.1376486-0.3909717,0.3192203L7.6477656,2.6846724v3.9398985
					c0,0.357739-0.2961054,0.6477437-0.6613698,0.6477437c-0.3348255,0-0.6115384-0.2436848-0.6553321-0.5598488
					L6.3250265,6.6245708l0.0001101-3.110625c0-0.2149744-0.1778765-0.3891859-0.3973727-0.3891859
					c-0.1951084,0-0.3573313,0.1376486-0.3909721,0.3192205L5.5303907,3.5139458L5.527,3.5550001l0.0004148,5.5149641
					c0,0.3577385-0.2961054,0.6477432-0.6613698,0.6477432c-0.3348255,0-0.6115384-0.2436848-0.6553321-0.5598488
					L4.2046757,9.0699644V8.3480539c0-0.2088575-0.1917357-0.3891854-0.4409132-0.3891854
					c-0.2214909,0-0.3975959,0.1424813-0.433996,0.3208318L3.3227391,8.3482161v2.1694002
					c0,0.522665,0.1616211,1.0318556,0.4610922,1.4612885l0.118717,0.1571693l1.280529,1.5680227h6.6703849l0.0388699-0.0291176
					c0.0548048-0.0447826,0.1202927-0.1071758,0.1909227-0.1895809l0.0721407-0.0891647
					c0.2920275-0.3817711,0.4843893-0.9245768,0.5169506-1.6722069l0.0049143-0.2304773V4.3435431
					c0-0.2149744-0.1778755-0.3891859-0.3973722-0.3891859c-0.1951084,0-0.3573313,0.1376486-0.3909721,0.3192205
					L11.882515,4.3435431l0.0001106,2.2808123c0,0.3577385-0.2961054,0.6477432-0.6613703,0.6477432
					c-0.3348255,0-0.6115379-0.2436843-0.6553316-0.5598483L10.559886,6.6243553V3.5141077
					c0-0.2149744-0.1778765-0.3891857-0.3973732-0.3891857c-0.1951075,0-0.3573303,0.1376483-0.3909712,0.3192203
					L9.7651405,3.5141077l0.0001097,3.1104631c0,0.357739-0.2961054,0.6477437-0.6613693,0.6477437
					c-0.3348255,0-0.6115379-0.2436848-0.6553316-0.5598488L8.4425116,6.6245708V2.6846724
					C8.4425116,2.4696982,8.2646351,2.2954867,8.0451384,2.2954867z"/>
			</g>
		</g>
	</g>
</g>
</svg>
