<?xml version="1.0" encoding="utf-8"?>
<svg width="16" height="16" viewBox="0 0 16 16" fill="none" xmlns="http://www.w3.org/2000/svg">
    <path
        d="M2.69229 3.43595V2.09229H1.49229V5.64602H5.04602V4.44602H3.41588C4.36223 3.22714 5.78276 2.39675 7.39987 2.23064V7.99977C7.39987 8.33114 7.6685 8.59977 7.99987 8.59977H13.7689C13.4686 11.521 11.0003 13.7995 7.99976 13.7995C4.79664 13.7995 2.2 11.2029 2.2 7.99976H1C1 11.8656 4.1339 14.9995 7.99976 14.9995C11.8656 14.9995 14.9995 11.8656 14.9995 7.99976C14.9995 4.1339 11.8656 1 7.99976 1C5.87702 1 3.97537 1.94521 2.69229 3.43595Z"
        fill="#181C56" />
</svg>
