<?xml version="1.0" encoding="utf-8"?>
<svg width="16" height="16" viewBox="0 0 16 16" fill="none" xmlns="http://www.w3.org/2000/svg">
    <path fill-rule="evenodd" clip-rule="evenodd"
        d="M2.69229 2.09229V3.43595C3.97537 1.94521 5.87702 1 7.99976 1C11.8656 1 14.9995 4.1339 14.9995 7.99976C14.9995 11.8656 11.8656 14.9995 7.99976 14.9995C4.1339 14.9995 1 11.8656 1 7.99976H2.2C2.2 11.2029 4.79664 13.7995 7.99976 13.7995C11.2029 13.7995 13.7995 11.2029 13.7995 7.99976C13.7995 4.79664 11.2029 2.2 7.99976 2.2C6.13628 2.2 4.47764 3.0785 3.41588 4.44602H5.04602V5.64602H1.49229V2.09229H2.69229ZM7.39987 4.06145V7.99977C7.39987 8.33114 7.6685 8.59977 7.99987 8.59977H11.9382V7.39977H8.59987V4.06145H7.39987Z"
        fill="#181C56" />
</svg>
