<?xml version="1.0" encoding="utf-8"?>
<svg width="16" height="16" viewBox="0 0 16 16" fill="none" xmlns="http://www.w3.org/2000/svg">
    <path fill-rule="evenodd" clip-rule="evenodd"
        d="M1 1.6C1 1.26863 1.26863 1 1.6 1H6.52362C6.85499 1 7.12362 1.26863 7.12362 1.6V6.49038C7.12362 6.82175 6.85499 7.09038 6.52362 7.09038H1.6C1.26863 7.09038 1 6.82175 1 6.49038V1.6ZM2.2 2.2V5.89038H5.92362V2.2H2.2Z"
        fill="#181C56" />
    <path
        d="M14.8296 2.50935L10.9892 6.42166C10.8764 6.5366 10.7221 6.60135 10.561 6.60135C10.4 6.60135 10.2457 6.5366 10.1329 6.42166L8.06495 4.31503L8.92131 3.47441L10.561 5.14484L13.9733 1.66873L14.8296 2.50935Z"
        fill="#181C56" />
    <path fill-rule="evenodd" clip-rule="evenodd"
        d="M11.6935 8.33558C9.87037 8.33558 8.3855 9.80461 8.3855 11.6253C8.3855 13.446 9.87037 14.915 11.6935 14.915C13.5166 14.915 15.0015 13.446 15.0015 11.6253C15.0015 9.80461 13.5166 8.33558 11.6935 8.33558ZM9.5855 11.6253C9.5855 10.475 10.5254 9.53558 11.6935 9.53558C12.8615 9.53558 13.8015 10.475 13.8015 11.6253C13.8015 12.7756 12.8615 13.715 11.6935 13.715C10.5254 13.715 9.5855 12.7756 9.5855 11.6253Z"
        fill="#181C56" />
    <path
        d="M5.31433 11.1556L3.5078 9.36127L4.35345 8.50988L7.19265 11.3299C7.30605 11.4425 7.36982 11.5958 7.36982 11.7556C7.36982 11.9154 7.30605 12.0687 7.19265 12.1813L4.35345 15.0013L3.5078 14.1499L5.31433 12.3556H1.10787L1.10787 11.1556H5.31433Z"
        fill="#181C56" />
</svg>
