<svg xmlns="http://www.w3.org/2000/svg" width="16" height="16" viewBox="0 0 16 16" fill="none">
    <path
        d="M2 1C1.44772 1 1 1.44772 1 2V3.39999L4.55147 3.39999L3.07574 1.92426L3.92426 1.07573L5.42426 2.57573L4.6 3.39999L8 3.39999V4.59999H6.98705C6.72079 5.65604 6.18593 6.61325 5.4486 7.38621C5.63211 7.49785 5.82381 7.59843 6.02293 7.68693L7.74368 8.45171L7.25632 9.54828L5.53557 8.7835C5.169 8.62058 4.82275 8.42459 4.5 8.19967C4.17726 8.42459 3.831 8.62058 3.46443 8.7835L1.74368 9.54828L1.25632 8.45171L2.97707 7.68693C3.17619 7.59843 3.3679 7.49785 3.5514 7.38621C2.81407 6.61325 2.27921 5.65604 2.01295 4.59999H1V14C1 14.5523 1.44772 15 2 15H5.07918L9.96334 5.23167C10.068 5.02241 10.2847 4.89305 10.5185 4.90028C10.7524 4.9075 10.9607 5.04999 11.0522 5.26531L14.9256 14.3792C14.9736 14.2623 15 14.1342 15 14V2C15 1.44772 14.5523 1 14 1H2Z"
        fill="#181C56" />
    <path d="M13.8856 15L12.8656 12.6H7.62082L6.42082 15H13.8856Z" fill="#181C56" />
    <path
        d="M5.73998 4.59999L3.26002 4.59999C3.50585 5.37422 3.93343 6.0727 4.5 6.6402C5.06657 6.0727 5.49415 5.37422 5.73998 4.59999Z"
        fill="#181C56" />
    <path d="M12.3556 11.4H8.22082L10.4558 6.93L12.3556 11.4Z" fill="#181C56" />
</svg>