<svg xmlns="http://www.w3.org/2000/svg" width="16" height="16" viewBox="0 0 16 16" fill="none">
    <path fill-rule="evenodd" clip-rule="evenodd"
        d="M4.44819 3.28683L7.72924 3.28683V4.48683H6.77001C6.50793 5.48878 5.99982 6.40004 5.30279 7.14347C5.42405 7.21882 5.54907 7.28925 5.67761 7.35446L7.52 8.28905L6.97713 9.35923L5.13474 8.42464C4.86508 8.28785 4.60791 8.13253 4.36461 7.96053C4.12131 8.13253 3.86414 8.28785 3.59448 8.42464L1.75209 9.35923L1.20922 8.28905L3.05161 7.35446C3.18015 7.28925 3.30517 7.21882 3.42643 7.14347C2.7294 6.40004 2.22128 5.48878 1.95921 4.48683H1V3.28683L4.38393 3.28683L2.97319 1.83645L3.83339 0.999756L5.27537 2.48226L4.44819 3.28683ZM3.21004 4.48683L5.51918 4.48683C5.282 5.20331 4.88559 5.85278 4.36461 6.38843C3.84363 5.85278 3.44722 5.20331 3.21004 4.48683Z"
        fill="#181C56" />
    <path fill-rule="evenodd" clip-rule="evenodd"
        d="M10.1326 4.76788C10.3667 4.76788 10.5794 4.90404 10.6774 5.11663L15.0034 14.4977L13.9136 15.0002L12.7084 12.3865H7.55675L6.35147 15.0002L5.26175 14.4977L9.58769 5.11663C9.68573 4.90404 9.89845 4.76788 10.1326 4.76788ZM12.155 11.1865L10.1326 6.8007L8.11011 11.1865H12.155Z"
        fill="#181C56" />
</svg>