<?xml version="1.0" encoding="utf-8"?>
<!-- Generator: Adobe Illustrator 24.0.1, SVG Export Plug-In . SVG Version: 6.00 Build 0)  -->
<svg version="1.1" id="Layer_1" xmlns="http://www.w3.org/2000/svg" xmlns:xlink="http://www.w3.org/1999/xlink" x="0px" y="0px"
	 width="16px" height="16px" viewBox="0 0 16 16" enable-background="new 0 0 16 16" xml:space="preserve">
<path id="Icon-Fill" fill-rule="evenodd" clip-rule="evenodd" fill="#181C56" d="M8.6482725,1.13613
	c1.0575485,0.6351396,1.8278255,2.1511221,1.8956652,3.4801931l0.0048685,0.1884804l-0.0009098,1.2737412l2.5472584,0.000658
	c1.0060911,0,1.8347912,0.7857122,1.9006481,1.8445964L15,8.0698376l-0.631671,5.0185633
	c0,1.0070601-0.7849569,1.8365574-1.7737217,1.9067841L12.4585676,15h-4.45611
	c-0.8523717,0-1.6901126-0.1807747-2.3987551-0.5177593l-0.231276-0.1180801L4.8189998,14.099l0.0005226,0.2638006
	c0,0.3199234-0.2355452,0.5847788-0.5425167,0.63029L4.1829352,15H1.636587C1.2850097,15,1,14.714716,1,14.3628006l0,0V7.3536024
	c0-0.3519158,0.2850097-0.6371999,0.636587-0.6371999l0,0h2.5463481c0.22013,0,0.4141636,0.1118393,0.5284824,0.2818475
	l2.0178661-2.4253178V2.2560041C6.7292838,1.2810971,7.708971,0.7268277,8.6482725,1.13613z M8.0042772,2.2493684
	L8.0024576,2.2560041v2.5487993c0,0.1192513-0.0334144,0.2354836-0.095593,0.3358378L7.8549104,5.2127285L4.8189998,8.8570004
	v3.8289995l1.1329169,0.5439253c0.5256681,0.2870045,1.1524024,0.4554234,1.8048258,0.4893064l0.2457151,0.0063686h4.45611
	c0.3196125,0,0.5881786-0.2421646,0.6345062-0.6122236L13.10007,13.009366l0.6316719-5.0185637
	c0-0.3199205-0.2419319-0.5887451-0.5508175-0.6313272l-0.0857697-0.0058727H9.912219
	c-0.322279,0-0.588623-0.239718-0.6307755-0.5507355L9.2756319,6.7164025V4.8048034
	c0-0.9500532-0.5866461-2.1580293-1.2056446-2.5366001C8.0234137,2.2482238,8.0087147,2.2449574,8.0042772,2.2493684z
	 M3.545439,7.9901438H2.273174v5.7347984h1.272265V7.9901438z"/>
</svg>
