<?xml version="1.0" encoding="utf-8"?>
<!-- Generator: Adobe Illustrator 24.0.1, SVG Export Plug-In . SVG Version: 6.00 Build 0)  -->
<svg version="1.1" id="Layer_1" xmlns="http://www.w3.org/2000/svg" xmlns:xlink="http://www.w3.org/1999/xlink" x="0px" y="0px"
	 width="16px" height="16px" viewBox="0 0 16 16" enable-background="new 0 0 16 16" xml:space="preserve">
<path id="path-1_1_" fill-rule="evenodd" clip-rule="evenodd" fill="#181C56" d="M3,7.5c0.8284271,0,1.5,0.6715727,1.5,1.5
	S3.8284271,10.5,3,10.5S1.5,9.8284273,1.5,9S2.1715729,7.5,3,7.5z M8,6c0.8284273,0,1.5,0.6715727,1.5,1.5S8.8284273,9,8,9
	S6.5,8.3284273,6.5,7.5S7.1715727,6,8,6z M13,5.4000001c0.8284273,0,1.5,0.6715727,1.5,1.5S13.8284273,8.3999996,13,8.3999996
	s-1.5-0.6715727-1.5-1.4999995S12.1715727,5.4000001,13,5.4000001z"/>
</svg>
