<svg xmlns="http://www.w3.org/2000/svg" width="16" height="16" viewBox="0 0 16 16" fill="none">
    <path fill-rule="evenodd" clip-rule="evenodd"
        d="M13.423 0.999268C14.298 0.999268 15.008 1.70855 15.008 2.58399C15.008 2.91537 14.7394 3.18399 14.408 3.18399C14.0766 3.18399 13.808 2.91537 13.808 2.58399C13.808 2.37174 13.6357 2.19927 13.423 2.19927C13.21 2.19927 13.0374 2.37199 13.0374 2.58455V4.93816H14.9007C15.0882 4.93816 15.2649 5.02582 15.3784 5.17512C15.4919 5.32441 15.529 5.51816 15.4788 5.69883L13.0156 14.5614C12.9434 14.821 12.707 15.0007 12.4375 15.0007C12.168 15.0007 11.9316 14.821 11.8594 14.5614L9.39618 5.69883C9.34597 5.51816 9.3831 5.32441 9.49656 5.17512C9.61002 5.02582 9.78675 4.93816 9.97427 4.93816H11.8374V2.58455C11.8374 1.7088 12.5477 0.999268 13.423 0.999268ZM12.4327 6.13816H10.7638L12.4375 12.1601L14.1112 6.13816H12.4421L12.4374 6.13817L12.4327 6.13816Z"
        fill="#181C56" />
    <path fill-rule="evenodd" clip-rule="evenodd"
        d="M0.999298 5.06108C0.999298 4.17742 1.71564 3.46107 2.5993 3.46107H2.96986L2.96986 2.18968C2.68973 2.13907 2.47725 1.89398 2.47725 1.59927C2.47725 1.2679 2.74588 0.999268 3.07725 0.999268H7.01839C7.34976 0.999268 7.61839 1.2679 7.61839 1.59927C7.61839 1.89399 7.40589 2.13908 7.12576 2.18969V3.46107H7.49629C8.37995 3.46107 9.09629 4.17742 9.09629 5.06108V12.416C9.09629 13.2586 8.44499 13.949 7.61837 14.0114V14.4007C7.61837 14.7321 7.34974 15.0007 7.01837 15.0007C6.687 15.0007 6.41837 14.7321 6.41837 14.4007V14.016H3.67725V14.4007C3.67725 14.7321 3.40862 15.0007 3.07725 15.0007C2.74588 15.0007 2.47725 14.7321 2.47725 14.4007V14.0114C1.65061 13.949 0.999298 13.2586 0.999298 12.416V5.06108ZM7.49629 12.816H2.5993C2.37838 12.816 2.1993 12.6369 2.1993 12.416V7.61525H7.89629V12.416C7.89629 12.6369 7.7172 12.816 7.49629 12.816ZM7.89629 6.41525H2.1993V5.06108C2.1993 4.84016 2.37839 4.66108 2.5993 4.66108L3.56986 4.66108H6.52576L7.49629 4.66108C7.71721 4.66108 7.89629 4.84016 7.89629 5.06108V6.41525ZM5.92576 3.46107V2.19927L4.16986 2.19927L4.16986 3.46107H5.92576Z"
        fill="#181C56" />
</svg>