<svg xmlns="http://www.w3.org/2000/svg" width="16" height="16" viewBox="0 0 16 16" fill="none">
    <path
        d="M13.423 0.999268C14.298 0.999268 15.008 1.70855 15.008 2.58399C15.008 2.91537 14.7393 3.18399 14.408 3.18399C14.0766 3.18399 13.808 2.91537 13.808 2.58399C13.808 2.37174 13.6357 2.19927 13.423 2.19927C13.2099 2.19927 13.0374 2.37199 13.0374 2.58455V4.93815H14.9007C15.0882 4.93815 15.2649 5.02582 15.3784 5.17511C15.4919 5.3244 15.529 5.51816 15.4788 5.69882L13.0156 14.5614C12.9434 14.821 12.707 15.0007 12.4375 15.0007C12.168 15.0007 11.9316 14.821 11.8594 14.5614L9.39619 5.69882C9.34597 5.51816 9.38311 5.3244 9.49657 5.17511C9.61003 5.02582 9.78676 4.93815 9.97427 4.93815H11.8374V2.58455C11.8374 1.7088 12.5476 0.999268 13.423 0.999268Z"
        fill="#181C56" />
    <path fill-rule="evenodd" clip-rule="evenodd"
        d="M2.47727 14.0114V14.4007C2.47727 14.7321 2.7459 15.0007 3.07727 15.0007C3.40864 15.0007 3.67727 14.7321 3.67727 14.4007V14.016H6.41831V14.4007C6.41831 14.7321 6.68694 15.0007 7.01831 15.0007C7.34968 15.0007 7.61831 14.7321 7.61831 14.4007V14.0114C8.44495 13.949 9.09626 13.2586 9.09626 12.416V5.06107C9.09626 4.17741 8.37992 3.46107 7.49626 3.46107H7.12576V2.18969C7.4059 2.13909 7.61841 1.894 7.61841 1.59927C7.61841 1.2679 7.34978 0.999268 7.01841 0.999268H3.07727C2.7459 0.999268 2.47727 1.2679 2.47727 1.59927C2.47727 1.89396 2.68973 2.13903 2.96982 2.18967L2.96982 3.46107H2.59927C1.71561 3.46107 0.999268 4.17742 0.999268 5.06107V12.416C0.999268 13.2586 1.65061 13.9491 2.47727 14.0114ZM4.16982 3.46107H5.92576V2.19927L4.16982 2.19927L4.16982 3.46107ZM8 6.39998H2V7.59998H8V6.39998Z"
        fill="#181C56" />
</svg>