<svg width="16" height="16" viewBox="0 0 16 16" fill="none" xmlns="http://www.w3.org/2000/svg">
<path fill-rule="evenodd" clip-rule="evenodd" d="M8 2C4.13401 2 1 5.13401 1 9C1 10.387 1.40392 11.6812 2.10073 12.7696L2.24824 13H13.7518L13.8993 12.7696C14.5961 11.6812 15 10.387 15 9C15 5.13401 11.866 2 8 2ZM5.05449 7.30044C5.64327 6.28261 6.74228 5.6 8 5.6V4.4C6.2966 4.4 4.81022 5.32619 4.01577 6.69956C3.62402 7.37677 3.4 8.16314 3.4 9H4.6C4.6 8.37971 4.76556 7.79992 5.05449 7.30044ZM9.84759 8.00094L11.9243 5.92426L11.0757 5.07574L8.99906 7.15241C8.70196 6.99142 8.36166 6.9 8 6.9C6.8402 6.9 5.9 7.8402 5.9 9C5.9 10.1598 6.8402 11.1 8 11.1C9.1598 11.1 10.1 10.1598 10.1 9C10.1 8.63835 10.0086 8.29804 9.84759 8.00094ZM7.1 9C7.1 8.50294 7.50294 8.1 8 8.1C8.49706 8.1 8.9 8.50294 8.9 9C8.9 9.49706 8.49706 9.9 8 9.9C7.50294 9.9 7.1 9.49706 7.1 9Z" fill="#181C56"/>
</svg>
