<svg width="16" height="16" viewBox="0 0 16 16" fill="none" xmlns="http://www.w3.org/2000/svg">
<path d="M8.00056 3.20488C4.81017 3.20488 2.2 5.85649 2.2 9.15719C2.2 10.3412 2.53628 11.442 3.11489 12.3672L2.09748 13.0035C1.40224 11.8918 1 10.5712 1 9.15719C1 5.22041 4.12108 2.00488 8.00056 2.00488C11.88 2.00488 15.0011 5.22041 15.0011 9.15719C15.0011 10.5712 14.5989 11.8918 13.9036 13.0035L12.8862 12.3672C13.4648 11.442 13.8011 10.3412 13.8011 9.15719C13.8011 5.85649 11.1909 3.20488 8.00056 3.20488Z" fill="#181C56"/>
<path d="M8.00066 5.72498C7.39433 5.72498 6.82685 5.89059 6.33698 6.18068C5.83043 6.48065 5.40607 6.91436 5.11117 7.43625C4.82587 7.94114 4.66185 8.52829 4.66185 9.15717H3.46185C3.46185 8.31718 3.68145 7.52718 4.06642 6.8459C4.46333 6.14351 5.03615 5.55639 5.72553 5.14815C6.39435 4.75208 7.17213 4.52498 8.00066 4.52498V5.72498Z" fill="#181C56"/>
<path fill-rule="evenodd" clip-rule="evenodd" d="M9.86728 8.23097L11.8763 6.17428L11.0179 5.33575L9.06031 7.33978C8.75138 7.15295 8.38967 7.04511 8.00058 7.04511C6.84027 7.04511 5.92352 8.00405 5.92352 9.15718C5.92352 10.3103 6.84027 11.2693 8.00058 11.2693C9.16088 11.2693 10.0776 10.3103 10.0776 9.15718C10.0776 8.82646 10.0022 8.5117 9.86728 8.23097ZM7.12352 9.15718C7.12352 8.64013 7.52937 8.24511 8.00058 8.24511C8.47178 8.24511 8.87763 8.64013 8.87763 9.15718C8.87763 9.67424 8.47178 10.0693 8.00058 10.0693C7.52937 10.0693 7.12352 9.67424 7.12352 9.15718Z" fill="#181C56"/>
</svg>
