<?xml version="1.0" encoding="utf-8"?>
<!-- Generator: Adobe Illustrator 24.0.1, SVG Export Plug-In . SVG Version: 6.00 Build 0)  -->
<svg version="1.1" id="Layer_1" xmlns="http://www.w3.org/2000/svg" xmlns:xlink="http://www.w3.org/1999/xlink" x="0px" y="0px"
	 width="16px" height="16px" viewBox="0 0 16 16" enable-background="new 0 0 16 16" xml:space="preserve">
<path id="Icon-Fill" fill-rule="evenodd" clip-rule="evenodd" fill="#181C56" d="M6.9610658,1.0158035
	c-1.2900777,0.288929-2.4720116,0.9371169-3.4205141,1.9008423c-2.7207355,2.7637594-2.7207355,7.2456551,0,10.0100584
	s7.1318355,2.7644033,9.8519897-0.0000525c0.3849077-0.3910856,0.7206297-0.830389,1.0134745-1.3164911
	c0.2882996-0.4785557-0.129796-1.0744534-0.6690569-0.9535875c-1.8963671,0.4250383-3.8813066-0.1408453-5.2760248-1.5579481
	C6.5851879,7.1927738,6.2621908,4.2406874,7.6300745,1.9693315C7.9182549,1.4908123,7.5002556,0.8950452,6.9610658,1.0158035z
	 M5.9044871,2.735322l-0.055759,0.171685C5.1030254,5.3575697,5.7089071,8.1022234,7.5752516,9.9985218l0.1849337,0.181159
	c1.250782,1.1811552,2.8542919,1.8298569,4.5066662,1.8839893l0.1991749,0.0019703l0.040781-0.0388336
	c-2.2310505,2.2673864-5.8490033,2.2673864-8.080574,0S2.194664,6.0834012,4.4261823,3.8165953
	c0.3888192-0.3950596,0.8251138-0.7252421,1.2966189-0.986316L5.9044871,2.735322z"/>
</svg>
