<?xml version="1.0" encoding="utf-8"?>
<!-- Generator: Adobe Illustrator 24.0.1, SVG Export Plug-In . SVG Version: 6.00 Build 0)  -->
<svg version="1.1" id="Layer_1" xmlns="http://www.w3.org/2000/svg" xmlns:xlink="http://www.w3.org/1999/xlink" x="0px" y="0px"
	 width="16px" height="16px" viewBox="0 0 16 16" enable-background="new 0 0 16 16" xml:space="preserve">
<path id="Icon-Fill" fill-rule="evenodd" clip-rule="evenodd" fill="#181C56" d="M8,1
	c1.4057274,0,2.545454,1.1397274,2.545454,2.5454545c0,1.1651106-0.7829475,2.1474895-1.851366,2.4496584
	C8.6935167,5.9952397,8.6935635,5.9955816,8.6936102,5.995923l0.0063896,0.094986V8.283l2.3884239,1.7628889
	c0.0646334,0.0477057,0.1186876,0.1044216,0.1617098,0.1671343c0.3569117-0.1940002,0.7678328-0.3039322,1.2044125-0.3039322
	C13.8602724,9.909091,15,11.0488186,15,12.454546S13.8602724,15,12.454546,15s-2.545455-1.1397276-2.545455-2.545454
	c0-0.4681597,0.1264114-0.9068155,0.3469601-1.2836952L8,9.5059996l-2.2560511,1.6648512
	c0.2205486,0.3768797,0.3469601,0.8155355,0.3469601,1.2836952C6.090909,13.8602724,4.9511819,15,3.5454545,15
	S1,13.8602724,1,12.454546s1.1397274-2.545455,2.5454545-2.545455c0.4361773,0,0.8467445,0.1097298,1.2056007,0.3030882
	c0.0234041-0.0349054,0.0509224-0.0680294,0.0818024-0.0987549l0.0787187-0.0675354L7.3000002,8.283V6.090909L7.305912,5.9951129
	C6.237494,5.692944,5.4545455,4.7105651,5.4545455,3.5454545C5.4545455,2.1397274,6.5942726,1,8,1z M3.5454545,11.3090906
	c-0.6325285,0-1.1454544,0.5129261-1.1454544,1.1454554c0,0.6325283,0.5129259,1.1454544,1.1454544,1.1454544
	s1.1454544-0.5129261,1.1454544-1.1454544C4.6909089,11.8220167,4.1779833,11.3090906,3.5454545,11.3090906z M12.454546,11.3090906
	c-0.6325293,0-1.1454554,0.5129261-1.1454554,1.1454554c0,0.6325283,0.5129261,1.1454544,1.1454554,1.1454544
	c0.6325283,0,1.1454544-0.5129261,1.1454544-1.1454544C13.6000004,11.8220167,13.0870743,11.3090906,12.454546,11.3090906z
	 M8,2.4000001c-0.6325288,0-1.1454544,0.5129259-1.1454544,1.1454544S7.3674712,4.6909089,8,4.6909089
	s1.1454544-0.5129256,1.1454544-1.1454544S8.6325283,2.4000001,8,2.4000001z"/>
</svg>
