<?xml version="1.0" encoding="utf-8"?>
<!-- Generator: Adobe Illustrator 24.0.1, SVG Export Plug-In . SVG Version: 6.00 Build 0)  -->
<svg version="1.1" id="Layer_1" xmlns="http://www.w3.org/2000/svg" xmlns:xlink="http://www.w3.org/1999/xlink" x="0px" y="0px"
	 width="16px" height="16px" viewBox="0 0 16 16" enable-background="new 0 0 16 16" xml:space="preserve">
<path id="Icon-Fill" fill-rule="evenodd" clip-rule="evenodd" fill="#181C56" d="M7.1369143,1.0671813
	c0.1791506-0.0895751,0.3900194-0.0895751,0.5691695,0l0,0l6.9420104,3.4710052
	c0.00175,0.000875,0.0034952,0.0017571,0.0052338,0.0026469c0.0172148,0.0087376,0.0341511,0.0183773,0.0506449,0.0287986
	c0.0122042,0.007822,0.0241661,0.0159798,0.0357981,0.0245061c0.055253,0.040349,0.1042128,0.0897918,0.1446829,0.1476111
	l0.0348854,0.0557718c0.0203867,0.0365686,0.0371904,0.0751815,0.0500765,0.1153007l-0.0367365-0.0900502
	c0.0227022,0.0454049,0.0394678,0.092227,0.0505896,0.1395822c0.0108385,0.0467935,0.016592,0.0954609,0.016592,0.1450024
	l-0.0068331-0.0941715c0.0015469,0.010324,0.0028324,0.0206585,0.0038614,0.0309939l0.0029716,0.0631776v5.7850094
	c0,0.223526-0.1172791,0.4306622-0.3089514,0.5456657l0,0L8.905901,14.9090366
	c-0.0080976,0.004858-0.0162783,0.0095224-0.0245361,0.0139923c-0.0170364,0.009387-0.034894,0.0180321-0.0531921,0.0258455
	c-0.0135412,0.0056009-0.0269346,0.0107765-0.0404549,0.0154829c-0.0177097,0.0063438-0.0360966,0.011837-0.0548105,0.0165014
	c-0.0143223,0.0034351-0.0286932,0.0065002-0.0431366,0.0090637c-0.0166674,0.0030451-0.0336361,0.0053453-0.0508041,0.0069637
	c-0.0169773,0.0015764-0.0340319,0.0025148-0.0511007,0.0027666l-0.0093651,0.0000687L8.5386677,14.998476
	c-0.0167503-0.001049-0.033474-0.0027609-0.0501308-0.0051384l0.0899639,0.0063839
	c-0.0551252,0-0.108613-0.0070095-0.1596212-0.0201855c-0.0423079-0.0110626-0.0844221-0.0267258-0.1249638-0.0469961
	l0.0925226,0.0376844c-0.0253477-0.0080147-0.0500097-0.0175743-0.0738745-0.0285673l-0.0186481-0.0091171l-6.9420099-3.4710054
	c-0.2155856-0.1077929-0.3517662-0.3281374-0.3517662-0.569169l0,0V4.5288553c0-0.0098867,0.0002291-0.0197387,0.0006835-0.0295496
	C1.0045612,4.4133921,1.0262021,4.326508,1.0673207,4.2442703c0.0311908-0.0621276,0.0717174-0.1182051,0.1205676-0.1667695
	l0.0761658-0.064784C1.2906948,3.9935277,1.3186958,3.9764993,1.3477648,3.961729l0.0041407-0.0020432L7.1369143,1.0671813z
	 M2.2721393,5.559l0.0007019,4.9399014l5.6692982,2.8340988L7.9419999,8.3933649L2.2721393,5.559z M13.7271395,6.1360002
	L9.2139997,8.3933649l0.0001392,4.8456354l4.5130196-2.7082806L13.7271395,6.1360002z M4.5891395,3.763L3.0581393,4.5279999
	l5.5200315,2.7600565l1.5309687-0.7650566L4.5891395,3.763z M7.4209208,2.3472459L6.0131392,3.0510001l5.52,2.7599998
	l1.4070005-0.704L7.4209208,2.3472459z"/>
</svg>
