<?xml version="1.0" encoding="utf-8"?>
<!-- Generator: Adobe Illustrator 24.3.0, SVG Export Plug-In . SVG Version: 6.00 Build 0)  -->
<svg version="1.1" id="Layer_1" xmlns="http://www.w3.org/2000/svg" xmlns:xlink="http://www.w3.org/1999/xlink" x="0px" y="0px"
	 width="16px" height="16px" viewBox="0 0 16 16" enable-background="new 0 0 16 16" xml:space="preserve">
<g id="Icon_x2F_UI_x2F_Privacy-1">
	<path id="Icon-Fill" fill-rule="evenodd" clip-rule="evenodd" fill="#181C56" d="M7.8258481,1.025081
		c0.1137795-0.0334064,0.2345538-0.0334063,0.3483338,0.0000002l0,0l5.3731194,1.5775915
		C13.8154411,2.6814008,14,2.9306226,14,3.2139814l0,0v5.9355927c0,1.507884-1.1574936,2.8942089-2.9805098,4.188344
		c-0.9250689,0.6566601-1.9016151,1.1999855-2.7551918,1.6028023c-0.1675596,0.0790749-0.3609505,0.0790749-0.5285101,0
		c-0.8536549-0.402853-1.8301597-0.9461479-2.7552271-1.602807C3.1575198,12.0437908,2,10.657464,2,9.1495743l0,0V3.2139814
		c0-0.2833593,0.1845591-0.5325811,0.4526992-0.6113088l0,0L7.8258481,1.025081z M8.0000162,2.2978814L3.252852,3.6924267
		l0.0008793,5.4571476c0,0.9070988,0.8498111,1.9680872,2.2337356,2.9920311l0,0l0.2115555,0.1532898
		c0.6422186,0.4558783,1.31814,0.8565807,1.9504151,1.1862736l0,0l0.3505788,0.176713l0.4139614-0.2099009
		c0.5080633-0.2675219,1.0424376-0.5801678,1.5634851-0.9298086l0,0l0.3235607-0.2232685
		c1.5083504-1.0707579,2.4452448-2.192873,2.4452448-3.1453295l0,0L12.745389,3.6924267L8.0000162,2.2978814z M10.25,5.7929196
		l0.7071066,0.7071066L7.25,10.2071333L5.0428934,8.0000267L5.75,7.2929196l1.5,1.5001073L10.25,5.7929196z"/>
</g>
</svg>
