<?xml version="1.0" encoding="utf-8"?>
<!-- Generator: Adobe Illustrator 24.1.0, SVG Export Plug-In . SVG Version: 6.00 Build 0)  -->
<svg version="1.1" id="Layer_1" xmlns="http://www.w3.org/2000/svg" xmlns:xlink="http://www.w3.org/1999/xlink" x="0px" y="0px"
	 width="14px" height="14px" viewBox="0 0 14 14" enable-background="new 0 0 14 14" xml:space="preserve">
<g id="_x30_5.-Icons">
	<g id="_x30_3---Iconography" transform="translate(-1137.000000, -463.000000)">
		<g id="Icon_x2F_UI_x2F_Purpose" transform="translate(1136.000000, 462.000000)">
			<g id="Icon-Fill">
				<path id="path-1_1_" fill-rule="evenodd" clip-rule="evenodd" fill="#181C56" d="M11.4605627,1.1687629
					c0.3024235-0.3024235,0.8173819-0.1808586,0.9526291,0.2248853l0,0L12.7580004,2.428l0.6203365-0.6199791
					c0.2246809-0.2246811,0.5889606-0.2246811,0.8136425,0c0.1997166,0.1997166,0.2219067,0.5097337,0.0665722,0.7339613
					l-0.0665722,0.0796812l-0.6209793,0.6193366l1.0353518,0.3458078c0.3745327,0.1248443,0.5069246,0.5732284,0.2872124,0.8793359
					l-0.0623274,0.0732932l-1.9177732,1.9177737c-0.1540928,0.1540928-0.382021,0.2078991-0.5887575,0.1389871l0,0
					l-0.5662022-0.1888223c0.4761896,0.8377137,0.7481384,1.8067169,0.7481384,2.839304
					C12.5066423,12.4244299,9.9310722,15,6.7533212,15S1,12.4244299,1,9.2466793s2.5755701-5.7533216,5.7533212-5.7533216
					c1.0325861,0,2.0015893,0.2719483,2.8393035,0.7481382L9.4038029,3.6752939
					C9.3348904,3.4685571,9.3886967,3.2406292,9.5427895,3.0865366l0,0L11.4605627,1.1687629z M6.7533212,4.8357997
					c-2.4363413,0-4.4108796,1.9745383-4.4108796,4.4108796s1.9745383,4.4108791,4.4108796,4.4108791
					s4.4108796-1.9745388,4.4108796-4.4108791c0-1.0105486-0.3397064-1.9416475-0.91117-2.6853466l-0.8696842,0.868681
					C9.7404118,7.9459081,9.9496107,8.571907,9.9496107,9.2466793c0,1.7649908-1.4312983,3.1962891-3.1962895,3.1962891
					s-3.1962895-1.4312983-3.1962895-3.1962891s1.4312983-3.19629,3.1962895-3.19629
					c0.6747718,0,1.3007703,0.209199,1.8166652,0.5662637l0.868681-0.8696833
					C8.6949682,5.1755061,7.7638698,4.8357997,6.7533212,4.8357997z M6.7533212,7.3928308
					c-1.023581,0-1.853848,0.830267-1.853848,1.8538485s0.830267,1.8538475,1.853848,1.8538475
					s1.853848-0.830267,1.853848-1.8538475c0-0.3022003-0.0723705-0.5875502-0.2007208-0.8396578l-1.2463059,1.246479
					c-0.2246814,0.2246809-0.5889616,0.2246809-0.8136425,0C6.1467834,9.453784,6.1245923,9.1437664,6.2799277,8.9195385
					l0.0665722-0.0796804l1.2464786-1.2463069C7.3408709,7.4652019,7.055521,7.3928308,6.7533212,7.3928308z M12.6619997,4.151
					L12.3509998,4.461L11.654192,5.1589441l0.6961517,0.2330098l1.008749-1.008749L12.6619997,4.151z M11.6158361,2.6399486
					l-1.008749,1.008749l0.2330093,0.696152l1.0077906-1.0077903L11.6158361,2.6399486z"/>
			</g>
		</g>
	</g>
</g>
</svg>
