<?xml version="1.0" encoding="utf-8"?>
<svg width="16" height="16" viewBox="0 0 16 16" fill="none" xmlns="http://www.w3.org/2000/svg">
    <path fill-rule="evenodd" clip-rule="evenodd"
        d="M5.43131 3.4964C5.43131 2.0965 6.60327 1 8.00076 1C9.39825 1 10.5702 2.0965 10.5702 3.4964C10.5702 3.78512 10.5197 4.06175 10.4275 4.3187H13.4014C14.2851 4.3187 15.0014 5.03504 15.0014 5.91869V13.4007C15.0014 14.2843 14.2851 15.0007 13.4014 15.0007H9.70672C9.4905 15.0007 9.291 14.8843 9.18452 14.6962C9.07804 14.508 9.08105 14.2771 9.1924 14.0917C9.30601 13.9026 9.3702 13.685 9.3702 13.4525C9.3702 12.7577 8.77865 12.1561 8.00075 12.1561C7.22285 12.1561 6.6313 12.7577 6.6313 13.4525C6.6313 13.685 6.69549 13.9026 6.8091 14.0917C6.92045 14.2771 6.92346 14.508 6.81698 14.6962C6.71049 14.8843 6.511 15.0007 6.29477 15.0007H2.6C1.71634 15.0007 1 14.2843 1 13.4007V11.3024C1 11.0897 1.11262 10.8929 1.29601 10.7851C1.4794 10.6773 1.70615 10.6747 1.89197 10.7782C2.0939 10.8907 2.32993 10.9561 2.58474 10.9561C3.36264 10.9561 3.95419 10.3545 3.95419 9.65969C3.95419 8.96488 3.36264 8.36329 2.58474 8.36329C2.32993 8.36329 2.0939 8.4287 1.89197 8.54117C1.70615 8.64468 1.4794 8.64207 1.29601 8.5343C1.11262 8.42653 1 8.22972 1 8.01701V5.91869C1 5.03504 1.71635 4.3187 2.6 4.3187H5.57404C5.48178 4.06175 5.43131 3.78512 5.43131 3.4964ZM8.00076 2.2C7.22286 2.2 6.63131 2.80159 6.63131 3.4964C6.63131 3.87509 6.80272 4.22023 7.08661 4.4615C7.27829 4.62441 7.348 4.88958 7.26122 5.12568C7.17444 5.36179 6.9496 5.5187 6.69805 5.5187H2.6C2.37909 5.5187 2.2 5.69778 2.2 5.91869V7.19116C2.32568 7.17279 2.45417 7.16329 2.58474 7.16329C3.98223 7.16329 5.15419 8.25979 5.15419 9.65969C5.15419 11.0596 3.98223 12.1561 2.58474 12.1561C2.45417 12.1561 2.32568 12.1466 2.2 12.1282V13.4007C2.2 13.6216 2.37909 13.8007 2.6 13.8007H5.45616C5.43978 13.6869 5.4313 13.5706 5.4313 13.4525C5.4313 12.0526 6.60326 10.9561 8.00075 10.9561C9.39824 10.9561 10.5702 12.0526 10.5702 13.4525C10.5702 13.5706 10.5617 13.6869 10.5453 13.8007H13.4014C13.6223 13.8007 13.8014 13.6216 13.8014 13.4007V5.91869C13.8014 5.69778 13.6223 5.5187 13.4014 5.5187H9.30347C9.05192 5.5187 8.82708 5.36179 8.7403 5.12568C8.65352 4.88958 8.72323 4.62441 8.91491 4.4615C9.1988 4.22023 9.37021 3.87509 9.37021 3.4964C9.37021 2.80159 8.77866 2.2 8.00076 2.2Z"
        fill="#181C56" />
</svg>
