<?xml version="1.0" encoding="utf-8"?>
<!-- Generator: Adobe Illustrator 24.2.1, SVG Export Plug-In . SVG Version: 6.00 Build 0)  -->
<svg version="1.1" id="Layer_1" xmlns="http://www.w3.org/2000/svg" xmlns:xlink="http://www.w3.org/1999/xlink" x="0px" y="0px"
	 width="14px" height="14px" viewBox="0 0 14 14" enable-background="new 0 0 14 14" xml:space="preserve">
<g id="_x30_5.-Icons">
	<g id="_x30_3---Iconography" transform="translate(-1281.000000, -233.000000)">
		<g id="Icon_x2F_Facilities_x2F_Quiet" transform="translate(1280.000000, 232.000000)">
			<path id="Icon-Fill" fill-rule="evenodd" clip-rule="evenodd" fill="#181C56" d="M13.9009647,6.7328639
				c0,0.0993404-0.0394144,0.1941657-0.1099949,0.2655106l-3.3731842,3.4444146V8.5092564H9.8687258H8.5698662
				C8.4662876,8.5110626,8.3251276,8.4550705,8.2380476,8.348505C8.169301,8.2681293,8.1308022,8.1660795,8.1289692,8.0685453
				V4.7478552h-1.424437l1.2713604-2.6632349h5.9250722V6.7328639z M5.4758863,7.1403413
				c0.547226,0,0.9927063,0.3937507,0.9927063,0.8769078l0,0v5.3264694
				c-0.0064168,0.1968756-0.0834131,0.3756895-0.2181573,0.5156689c-0.0146661,0.0316086-0.0889125,0.102953-0.1778255,0.1598482
				l0,0L4.6142573,15l-0.4656458-0.6719046l1.4666018-0.9852791l0.0284152-5.3255672
				C5.630796,7.9856405,5.3200598,7.9829316,5.3063102,8.0217648l0,0l0.000917,2.2514219H5.3035603v0.7884045H4.4776802v-0.7893076
				c-0.0238323-0.0298023-0.3189859-0.0325108-0.3318186,0.0054188l0,0l0.0009165,0.337759v1.1975069H3.3208978v-0.7875004
				c-0.0119162-0.0307055-0.3208191-0.034318-0.3354852,0.0045147l0,0l0.0009165,0.7477655H2.981746v0.3847189H2.1567824
				l0.0045831-0.3847189c-0.0128329-0.0298023-0.3226525-0.0352211-0.3364018,0.0045147l0,0l0.0009166,1.9335327H1v-1.9380474
				c0-0.5355377,0.5921406-0.9563808,1.1696153-0.8624592c0.0687468-0.4831572,0.6205559-0.8371706,1.1595321-0.7522802
				c0.068747-0.4804478,0.6178062-0.8344622,1.1531157-0.7531834l0,0V8.0172491
				C4.4822631,7.5340919,4.9277434,7.1403413,5.4758863,7.1403413z M14.0687075,1C14.5820189,1,15,1.4118125,15,1.9184502l0,0
				v4.8144135c0,0.38201-0.1484938,0.7441521-0.4179811,1.0186939l0,0l-3.7590847,3.8390679
				c-0.1530771,0.1598482-0.3648176,0.254674-0.5921412,0.2637043c-0.0155821,0.0009031-0.0339146,0.0018063-0.0513306,0.0018063
				c-0.0980787,0-0.2016582-0.0180616-0.3024864-0.055089c-0.3455687-0.1589451-0.5417261-0.4497423-0.5582256-0.7757607l0,0
				v-1.432313H8.5762825C8.1436357,9.6119385,7.6752391,9.3906803,7.3892517,9.0357628
				C7.1655951,8.7765732,7.0354342,8.4315901,7.0299344,8.0775757l0,0V5.8315721H6.4368773
				c-0.5133109,0-0.9303756-0.4118123-0.9303756-0.9175467c0-0.1038566,0.016499-0.2068095,0.051331-0.3052473l0,0
				L7.0143518,1.555405C7.13168,1.240224,7.4827476,1,7.8695641,1l0,0H14.0687075z"/>
		</g>
	</g>
</g>
</svg>
