<?xml version="1.0" encoding="utf-8"?>
<!-- Generator: Adobe Illustrator 24.0.1, SVG Export Plug-In . SVG Version: 6.00 Build 0)  -->
<svg version="1.1" id="Layer_1" xmlns="http://www.w3.org/2000/svg" xmlns:xlink="http://www.w3.org/1999/xlink" x="0px" y="0px"
	 width="16px" height="16px" viewBox="0 0 16 16" enable-background="new 0 0 16 16" xml:space="preserve">
<path id="quit-a" fill-rule="evenodd" clip-rule="evenodd" fill="#181C56" d="M10.6908712,2.6969686l0.5576715,0.3184755
	C13.2443151,4.1551905,14.5,6.2588367,14.5,8.5785656C14.5,12.1251144,11.5899401,15,8,15s-6.5-2.8748856-6.5-6.4214344
	c0-2.23562,1.1669211-4.2714691,3.0380898-5.4360476l0.2107821-0.125778l0.5575318-0.3187151l0.6452289,1.1015854
	L5.3941011,4.1183252C3.7942252,5.0329003,2.7882884,6.7190628,2.7882884,8.5785656
	c0,2.843646,2.3332736,5.1487179,5.2117119,5.1487179s5.2117119-2.3050718,5.2117119-5.1487179
	c0-1.7861786-0.9275351-3.4115229-2.4186182-4.3478456l-0.1892948-0.1134133l-0.5576715-0.3184755L10.6908712,2.6969686z
	 M8.6440268,1v5.3222699H7.3557386V1H8.6440268z"/>
</svg>
