<?xml version="1.0" encoding="utf-8"?>
<svg xmlns="http://www.w3.org/2000/svg" width="16" height="16" viewBox="0 0 16 16" fill="none">
    <path
        d="M13 11C14.1046 11 15 11.8954 15 13C15 14.1046 14.1046 15 13 15C11.8954 15 11 14.1046 11 13C11 11.8954 11.8954 11 13 11ZM9 2.40039C10.7121 2.40039 12.0996 3.78792 12.0996 5.5C12.0996 7.21208 10.7121 8.59961 9 8.59961H6C4.95066 8.59961 4.09961 9.45066 4.09961 10.5C4.09961 11.5493 4.95066 12.4004 6 12.4004H10V13.5996H6C4.28792 13.5996 2.90039 12.2121 2.90039 10.5C2.90039 8.78792 4.28792 7.40039 6 7.40039H9C10.0493 7.40039 10.9004 6.54934 10.9004 5.5C10.9004 4.45066 10.0493 3.59961 9 3.59961H6V2.40039H9ZM3 1C4.10457 1 5 1.89543 5 3C5 4.10457 4.10457 5 3 5C1.89543 5 1 4.10457 1 3C1 1.89543 1.89543 1 3 1Z"
        fill="#181C56" />
</svg>
