<?xml version="1.0" encoding="utf-8"?>
<svg xmlns="http://www.w3.org/2000/svg" width="16" height="16" viewBox="0 0 16 16" fill="none">
    <path
        d="M12.9004 10.8008C14.06 10.801 15 11.7407 15 12.9004C14.9998 14.0599 14.0599 14.9998 12.9004 15C11.7407 15 10.801 14.06 10.8008 12.9004C10.8008 11.7406 11.7406 10.8008 12.9004 10.8008ZM12.9004 12C12.4033 12 12 12.4033 12 12.9004C12.0002 13.3973 12.4035 13.8008 12.9004 13.8008C13.3971 13.8006 13.8006 13.3971 13.8008 12.9004C13.8008 12.4035 13.3973 12.0002 12.9004 12ZM9 2.40039C10.7121 2.40039 12.0996 3.78792 12.0996 5.5C12.0996 7.21208 10.7121 8.59961 9 8.59961H6C4.95066 8.59961 4.09961 9.45066 4.09961 10.5C4.09961 11.5493 4.95066 12.4004 6 12.4004H10V13.5996H6C4.28792 13.5996 2.90039 12.2121 2.90039 10.5C2.90039 8.78792 4.28792 7.40039 6 7.40039H9C10.0493 7.40039 10.9004 6.54934 10.9004 5.5C10.9004 4.45066 10.0493 3.59961 9 3.59961H6V2.40039H9ZM3.09961 1C4.25928 1 5.19901 1.93999 5.19922 3.09961C5.19922 4.25941 4.25941 5.19922 3.09961 5.19922C1.93998 5.19902 1 4.25929 1 3.09961C1.00021 1.94011 1.94011 1.0002 3.09961 1ZM3.09961 2.19922C2.60285 2.19942 2.19943 2.60285 2.19922 3.09961C2.19922 3.59654 2.60272 3.9998 3.09961 4C3.59667 4 4 3.59667 4 3.09961C3.99979 2.60273 3.59654 2.19922 3.09961 2.19922Z"
        fill="#181C56" />
</svg>
