<?xml version="1.0" encoding="utf-8"?>
<!-- Generator: Adobe Illustrator 24.0.1, SVG Export Plug-In . SVG Version: 6.00 Build 0)  -->
<svg version="1.1" id="Layer_1" xmlns="http://www.w3.org/2000/svg" xmlns:xlink="http://www.w3.org/1999/xlink" x="0px" y="0px"
	 width="16px" height="16px" viewBox="0 0 16 16" enable-background="new 0 0 16 16" xml:space="preserve">
<path id="path-1_1_" fill-rule="evenodd" clip-rule="evenodd" fill="#181C56" d="M1,6.8947368
	c4.3897157,0,7.9653549,3.4912219,8.1012564,7.8480039L9.1052628,15H7.6315789c0-3.5805197-2.8391643-6.4992514-6.3885031-6.6272039
	L1,8.3684206V6.8947368z M1,1c7.6237202,0,13.823164,6.0920668,13.9962835,13.6741543L15,15h-1.4736843
	c0-6.8122959-5.4363642-12.3534641-12.2079363-12.5223503L1,2.4736843V1z M2.4736843,12.0526314
	c0.8134735,0,1.4736841,0.6602106,1.4736841,1.4736843S3.2871578,15,2.4736843,15S1,14.3397894,1,13.5263157
	S1.6602105,12.0526314,2.4736843,12.0526314z"/>
</svg>
