<?xml version="1.0" encoding="utf-8"?>
<!-- Generator: Adobe Illustrator 24.0.1, SVG Export Plug-In . SVG Version: 6.00 Build 0)  -->
<svg version="1.1" id="Layer_1" xmlns="http://www.w3.org/2000/svg" xmlns:xlink="http://www.w3.org/1999/xlink" x="0px" y="0px"
	 width="16px" height="16px" viewBox="0 0 16 16" enable-background="new 0 0 16 16" xml:space="preserve">
<path id="Icon-Fill" fill-rule="evenodd" clip-rule="evenodd" fill="#181C56" d="M8.6367979,1.0285773
	c3.3577681,0.3028116,6.0318136,2.9768572,6.3346252,6.3346248v1.2735958
	c-0.3028116,3.3577681-2.9768572,6.0318136-6.3346252,6.3346252H7.3632021
	C4.0054345,14.6686115,1.331389,11.994566,1.0285773,8.6367979V7.3632021
	C1.331389,4.0054345,4.0054345,1.331389,7.3632021,1.0285773H8.6367979z M8.6366692,2.3077183L8.636364,4.5867767H7.3636365
	L7.3633308,2.3077183C4.7089715,2.6013064,2.6013064,4.7089715,2.3077183,7.3633308l2.2790585,0.0003057V8.636364
	L2.3077183,8.6366692c0.2935882,2.6543598,2.4012532,4.7620249,5.0556126,5.0556126l0.0003057-2.2790585H8.636364
	l0.0003052,2.2790585c2.6543598-0.2935877,4.7620249-2.4012527,5.0556126-5.0556126L11.4132233,8.636364V7.3636365
	l2.2790585-0.0003057C13.398694,4.7089715,11.291029,2.6013064,8.6366692,2.3077183z M8,6.2066116
	c0.9907103,0,1.7933884,0.8026781,1.7933884,1.7933884S8.9907103,9.7933884,8,9.7933884S6.2066116,8.9907103,6.2066116,8
	S7.0092897,6.2066116,8,6.2066116z M8,7.4793386C7.7121978,7.4793386,7.4793386,7.7121978,7.4793386,8
	c0,0.2878027,0.2328591,0.5206614,0.5206614,0.5206614c0.2878027,0,0.5206614-0.2328587,0.5206614-0.5206614
	C8.5206614,7.7121978,8.2878027,7.4793386,8,7.4793386z"/>
</svg>
