<?xml version="1.0" encoding="utf-8"?>
<!-- Generator: Adobe Illustrator 24.2.1, SVG Export Plug-In . SVG Version: 6.00 Build 0)  -->
<svg version="1.1" id="Layer_1" xmlns="http://www.w3.org/2000/svg" xmlns:xlink="http://www.w3.org/1999/xlink" x="0px" y="0px"
	 width="14px" height="14px" viewBox="0 0 14 14" enable-background="new 0 0 14 14" xml:space="preserve">
<g id="_x30_5.-Icons">
	<g id="_x30_3---Iconography" transform="translate(-1173.000000, -463.000000)">
		<g id="Icon_x2F_UI_x2F_Select" transform="translate(1172.000000, 462.000000)">
			<g id="Icon-Fill">
				<path id="path-1_1_" fill-rule="evenodd" clip-rule="evenodd" fill="#181C56" d="M4.373054,13.8641577l0.0347857,0.0967455
					c0.2183127,0.4867001,0.9403315,0.5036573,1.1632099-0.0163918l1.6393576-3.8251657l4.6938448,4.6942778
					c0.2485018,0.2485018,0.6514044,0.2485018,0.8999071,0l2.0094643-2.0094643l0.0670958-0.0788746
					c0.1789217-0.2486649,0.1565561-0.5973806-0.0670958-0.8210325l-4.6942778-4.6938448l3.8251657-1.6393576
					c0.5525522-0.2368083,0.4988747-1.0370994-0.0803537-1.1979957L1.8073723,1.0239468
					C1.3303971,0.8914536,0.8914536,1.3303971,1.0239468,1.8073723L4.373054,13.8641577z M2.5515602,2.5515602l9.2267895,2.5625932
					L8.7544355,6.4107542L8.6705532,6.4540806C8.3279743,6.6639867,8.2595558,7.1499987,8.5551443,7.4455876l4.9085722,4.9081874
					l-1.1099415,1.1099415L7.4455876,8.5551443L7.3742065,8.4933529c-0.322124-0.240119-0.7987843-0.1231432-0.9634523,0.2610826
					l-1.2966008,3.0239143L2.5515602,2.5515602z"/>
			</g>
		</g>
	</g>
</g>
</svg>
