<?xml version="1.0" encoding="utf-8"?>
<!-- Generator: Adobe Illustrator 24.0.1, SVG Export Plug-In . SVG Version: 6.00 Build 0)  -->
<svg version="1.1" id="Layer_1" xmlns="http://www.w3.org/2000/svg" xmlns:xlink="http://www.w3.org/1999/xlink" x="0px" y="0px"
	 width="16px" height="16px" viewBox="0 0 16 16" enable-background="new 0 0 16 16" xml:space="preserve">
<path id="Icon-Fill" fill-rule="evenodd" clip-rule="evenodd" fill="#181C56" d="M14.2256641,1.0069451
	c0.2155037-0.0312379,0.4184418,0.0452036,0.5624599,0.1829728c0.0035706,0.0034127,0.0073547,0.0071114,0.0111065,0.0108631
	l0.0108633,0.0111067c0.1377687,0.1440183,0.2142105,0.3469555,0.1829729,0.5624601
	c-0.0017815,0.0072669-0.0029001,0.014594-0.0041399,0.0219048c-0.0065527,0.0400809-0.0174322,0.0804735-0.0323439,0.1209491
	l0.0179501-0.0556505c-0.003665,0.0134449-0.0077496,0.0267993-0.0122538,0.0400426L14.956583,1.9172018l-4.6559362,12.6375399
	c-0.2060566,0.5592985-0.980607,0.6021967-1.2471685,0.0690746l0,0L6.493475,9.5055647L1.3761954,6.9465332
	c-0.4998022-0.2499008-0.493336-0.9462771-0.0297277-1.2021337l0,0l0.0988023-0.0450354l12.6375389-4.6559353
	c0.0053406-0.0019675,0.0106802-0.0038649,0.016017-0.0056927c0.0128345-0.0045078,0.0261889-0.0085922,0.0396338-0.012257
	c0.0220518-0.0062132,0.0436974-0.0111392,0.0652342-0.014982c0.0034409,0.0000153,0.0068197-0.0005313,0.0102024-0.0010524
	L14.2256641,1.0069451z M12.6070004,4.355L7.829,9.1330004l1.7383132,3.4745941L12.6070004,4.355z M11.6459999,3.3900001
	L3.3914452,6.431726l3.474555,1.7382741L11.6459999,3.3900001z"/>
</svg>
