<?xml version="1.0" encoding="utf-8"?>
<!-- Generator: Adobe Illustrator 24.2.1, SVG Export Plug-In . SVG Version: 6.00 Build 0)  -->
<svg version="1.1" id="Layer_1" xmlns="http://www.w3.org/2000/svg" xmlns:xlink="http://www.w3.org/1999/xlink" x="0px" y="0px"
	 width="14px" height="14px" viewBox="0 0 14 14" enable-background="new 0 0 14 14" xml:space="preserve">
<g id="_x30_5.-Icons">
	<g id="_x30_3---Iconography" transform="translate(-1317.000000, -233.000000)">
		<g id="Icon_x2F_Facilities_x2F_Standard" transform="translate(1316.000000, 232.000000)">
			<path id="Icon-Fill" fill-rule="evenodd" clip-rule="evenodd" fill="#181C56" d="M7.9994998,1c-3.8599997,0-7,3.1409998-7,7
				s3.1400001,7,7,7c3.8610005,0,7.0000005-3.1409998,7.0000005-7S11.8605003,1,7.9994998,1 M7.9994998,2
				c3.3090005,0,6.0000005,2.691,6.0000005,6s-2.691,6-6.0000005,6c-3.3079996,0-6-2.691-6-6S4.6915002,2,7.9994998,2
				 M8.0244617,3.9000001c-1.4052553,0-2.4581213,0.9751344-2.4581213,2.3228188c0,1.0305204,0.519177,1.6059837,1.62463,2.1286035
				l0.3398247,0.1516724c0.1722031,0.0737381,0.4124432,0.1752787,0.4270062,0.1815414
				C8.7862511,9.0408945,9.09863,9.2943153,9.09863,9.7234898c0,0.5233984-0.4756699,0.9416113-1.113307,0.9416113
				c-0.5594373,0-1.1418982-0.3141003-1.586771-0.84478L6.2457409,9.8197784l-0.8219175,0.9664431l0.0022602,0.1321383
				c0.2124214,0.2331209,0.492733,0.4766321,0.841331,0.6891699c0.5112762,0.3117218,1.0735226,0.4924707,1.6787696,0.4924707
				c1.4709206,0,2.6538162-1.0738773,2.6538162-2.5053692c0-1.0962029-0.5869551-1.6875658-1.8303318-2.2416763L8.1684589,7.0941501
				C7.3645911,6.744894,7.0579257,6.4947371,7.0579257,6.0832214c0-0.4320526,0.3521471-0.7590604,0.9763207-0.7590604
				c0.4658155,0,0.9442234,0.2280431,1.3434629,0.6852384l0.150032,0.0006976l0.8121338-0.9127517l0.0034809-0.1288137
				C9.8045511,4.292747,8.9098692,3.9000001,8.0244617,3.9000001z"/>
		</g>
	</g>
</g>
</svg>
