<svg width="16" height="16" viewBox="0 0 16 16" fill="none" xmlns="http://www.w3.org/2000/svg">
<path fill-rule="evenodd" clip-rule="evenodd" d="M7.8143 1.03576C7.93351 0.988079 8.06649 0.988079 8.1857 1.03576L13.1857 3.03576C13.3755 3.11169 13.5 3.29555 13.5 3.5V6.5H12.5V4.30902L11.1544 4.98184C11.3759 5.44136 11.5 5.95662 11.5 6.5C11.5 7.67646 10.9196 8.71734 10.0294 9.3519C12.3444 10.1838 14 12.3986 14 15H13C13 12.2386 10.7614 10 8 10C5.23858 10 3 12.2386 3 15H2C2 12.3986 3.65557 10.1838 5.97057 9.3519C5.08045 8.71734 4.5 7.67646 4.5 6.5C4.5 5.95652 4.62417 5.4413 4.84564 4.98184L2.77639 3.94721C2.60028 3.85916 2.49225 3.67595 2.50043 3.47922C2.50861 3.28249 2.63149 3.10889 2.8143 3.03576L7.8143 1.03576ZM5.74019 5.42911C5.58615 5.75348 5.5 6.11631 5.5 6.5C5.5 7.88071 6.61929 9 8 9C9.38071 9 10.5 7.88071 10.5 6.5C10.5 6.11622 10.4138 5.75342 10.2598 5.42911L8.22361 6.44721C8.08284 6.5176 7.91716 6.5176 7.77639 6.44721L5.74019 5.42911ZM11.7805 3.55072L8 2.03852L4.21948 3.55072L8 5.44098L11.7805 3.55072Z" fill="#181C56"/>
</svg>
