<svg width="16" height="16" viewBox="0 0 16 16" fill="none" xmlns="http://www.w3.org/2000/svg">
<path d="M2 15C2 11.6863 4.68629 9 8 9C11.3137 9 14 11.6863 14 15H2Z" fill="#181C56"/>
<path d="M4.61695 5.59985C4.54066 5.88721 4.5 6.18897 4.5 6.49998C4.5 8.43297 6.067 9.99998 8 9.99998C9.933 9.99998 11.5 8.43297 11.5 6.49998C11.5 6.189 11.4593 5.88723 11.383 5.59985L8.42718 6.67471C8.15123 6.77506 7.84877 6.77506 7.57282 6.67471L4.61695 5.59985Z" fill="#181C56"/>
<path d="M8.17087 1.0301C8.06049 0.989966 7.93951 0.989966 7.82913 1.0301L2.32913 3.0301C2.13153 3.10196 2 3.28975 2 3.5C2 3.71025 2.13153 3.89804 2.32913 3.9699L7.82913 5.9699C7.93951 6.01003 8.06049 6.01003 8.17087 5.9699L13 4.21385V7H14V3.5C14 3.28975 13.8685 3.10196 13.6709 3.0301L8.17087 1.0301Z" fill="#181C56"/>
</svg>
