<?xml version="1.0" encoding="utf-8"?>
<svg width="16" height="16" viewBox="0 0 16 16" fill="none" xmlns="http://www.w3.org/2000/svg">
    <path d="M9.01812 9.39987L5.57575 12.8681L4.73041 12.0164L8.17278 8.54817L9.01812 9.39987Z" fill="#181C56" />
    <path d="M4.11555 11.3375L6.52521 8.90967L5.67987 8.05797L3.27021 10.4858L4.11555 11.3375Z" fill="#181C56" />
    <path fill-rule="evenodd" clip-rule="evenodd"
        d="M13.9187 5.64158C14.2238 6.55178 14.0163 7.59789 13.2961 8.32321L7.42365 14.2376C6.4119 15.2566 4.77153 15.2566 3.75979 14.2376L1.75881 12.2223C0.747064 11.2034 0.747062 9.5513 1.75881 8.53233L7.63128 2.61795C8.39065 1.85316 9.50412 1.66239 10.4402 2.04562C10.4498 2.0357 10.4595 2.02584 10.4692 2.01603C11.5442 0.93289 13.2984 0.573152 14.3613 1.64405C15.4231 2.71387 15.0678 4.47869 13.9953 5.56212L13.9187 5.64158ZM11.4322 2.75598L13.258 4.59477C13.9548 3.80306 13.9118 2.8946 13.5159 2.49575C13.12 2.09684 12.2181 2.05357 11.4322 2.75598ZM10.7467 3.76872L12.4506 5.48475C12.9954 6.03342 12.9954 6.923 12.4506 7.47167L6.57814 13.3861C6.03335 13.9347 5.15008 13.9347 4.60529 13.3861L2.60432 11.3708C2.05953 10.8221 2.05953 9.93254 2.60432 9.38387L8.47679 3.46949C8.8193 3.12453 9.29562 2.99645 9.73748 3.08525C9.52732 3.55845 9.42811 4.06638 9.46929 4.55117C8.87046 4.77612 8.44698 5.35669 8.44698 6.03232C8.44698 6.90133 9.14759 7.6131 10.0208 7.6131C10.894 7.6131 11.5947 6.90133 11.5947 6.03232C11.5947 5.40345 11.2277 4.85693 10.694 4.6029C10.6385 4.35902 10.6493 4.0699 10.7467 3.76872ZM9.8803 5.6795C9.9454 5.76914 10.0185 5.8553 10.1 5.93738C10.1825 6.02051 10.2831 6.07425 10.3891 6.09862C10.358 6.28002 10.2018 6.4131 10.0208 6.4131C9.81837 6.4131 9.64698 6.24665 9.64698 6.03232C9.64698 5.87024 9.74498 5.73555 9.8803 5.6795Z"
        fill="#181C56" />
</svg>
