<svg width="16" height="16" viewBox="0 0 16 16" fill="none" xmlns="http://www.w3.org/2000/svg">
<path fill-rule="evenodd" clip-rule="evenodd" d="M5.51181 0.991577H6.11181H10.1302H10.7302V1.59158V2.47045H11.6414C12.5251 2.47045 13.2414 3.18679 13.2414 4.07045V13.4085C13.2414 14.2921 12.5251 15.0085 11.6414 15.0085H4.59997C3.71631 15.0085 2.99997 14.2921 2.99997 13.4085V4.07045C2.99997 3.18679 3.71631 2.47045 4.59997 2.47045H5.51181V1.59158V0.991577ZM10.7302 4.44932V3.67045H11.6414C11.8623 3.67045 12.0414 3.84954 12.0414 4.07045V13.4085C12.0414 13.6294 11.8623 13.8085 11.6414 13.8085H4.59997C4.37906 13.8085 4.19997 13.6294 4.19997 13.4085V4.07045C4.19997 3.84954 4.37905 3.67045 4.59997 3.67045H5.51181V4.44932H5.10715V5.64932H11.1348V4.44932H10.7302ZM6.71181 2.19158V4.40001H9.53023V2.19158H6.71181ZM13.7998 12.1902V5.28876H14.9998V12.1902H13.7998ZM5.60947 7.87115H10.6325V6.67115H5.60947V7.87115ZM5.60947 10.3148H6.61365V9.11481H5.60947V10.3148ZM6.61365 12.2866H5.60947V11.0866H6.61365V12.2866ZM7.61862 10.3148H8.62281V9.11481H7.61862V10.3148ZM8.62281 12.2866H7.61862V11.0866H8.62281V12.2866ZM9.6279 10.3148H10.6321V9.11481H9.6279V10.3148ZM10.6321 12.2866H9.6279V11.0866H10.6321V12.2866Z" fill="#181C56"/>
</svg>
