<svg width="16" height="16" viewBox="0 0 16 16" fill="none" xmlns="http://www.w3.org/2000/svg">
<path fill-rule="evenodd" clip-rule="evenodd" d="M10.7303 0.75H5.51184V2.22708H4.6C3.71634 2.22708 3 2.94257 3 3.82516V13.1519C3 14.0345 3.71634 14.75 4.6 14.75H11.6414C12.5251 14.75 13.2414 14.0345 13.2414 13.1519V3.82516C13.2414 2.94256 12.5251 2.22708 11.6414 2.22708H10.7303V0.75ZM6.71184 4.20418V1.94855H9.53026V4.20418H6.71184ZM10.6325 5.77291H5.6095V6.99236H10.6325V5.77291ZM5.6095 9.56109H6.61368V8.36254H5.6095V9.56109ZM8.62284 9.56109H7.61865V8.36254H8.62284V9.56109ZM7.61865 12.0305H8.62284V10.832H7.61865V12.0305ZM6.61368 12.0305H5.6095V10.832H6.61368V12.0305ZM9.62793 9.56109H10.6321V8.36254H9.62793V9.56109ZM10.6321 12.0305H9.62793V10.832H10.6321V12.0305Z" fill="#181C56"/>
<path d="M13.7998 5.042V11.9351H14.9998V5.042H13.7998Z" fill="#181C56"/>
</svg>
