<?xml version="1.0" encoding="utf-8"?>
<svg width="16" height="16" viewBox="0 0 16 16" fill="none" xmlns="http://www.w3.org/2000/svg">
    <path d="M9.95614 5.6458H6.04379V4.4458L9.95614 4.4458V5.6458Z" fill="#181C56" />
    <path
        d="M8.42569 9.54661C8.31306 9.43321 8.15983 9.36944 8 9.36944C7.84016 9.36944 7.68693 9.43321 7.5743 9.54661L5.12908 12.0084L5.98047 12.8541L8 10.8208L10.0195 12.8541L10.8709 12.0084L8.42569 9.54661Z"
        fill="#181C56" />
    <path fill-rule="evenodd" clip-rule="evenodd"
        d="M2.99854 1.59927C2.99854 1.2679 3.26717 0.999268 3.59854 0.999268H12.4013C12.7327 0.999268 13.0013 1.2679 13.0013 1.59927V5.04581C13.0013 5.20424 12.9387 5.35623 12.827 5.46864L10.3127 7.99999L12.827 10.5313C12.9387 10.6437 13.0013 10.7957 13.0013 10.9542V14.4007C13.0013 14.5598 12.9381 14.7125 12.8256 14.825C12.7131 14.9375 12.5605 15.0007 12.4013 15.0007L3.59854 15.0007C3.26716 15.0007 2.99854 14.7321 2.99854 14.4007V10.9542C2.99854 10.7957 3.06119 10.6437 3.17284 10.5313L5.68713 7.99999L3.17284 5.46864C3.0612 5.35623 2.99854 5.20424 2.99854 5.04581V1.59927ZM4.19854 2.19927V4.79847L6.9585 7.57716C7.19091 7.81114 7.19091 8.18883 6.9585 8.42281L4.19854 11.2015L4.19854 13.8007L11.8013 13.8007V11.2015L9.04137 8.42282C8.80897 8.18883 8.80897 7.81114 9.04137 7.57716L11.8013 4.79847V2.19927H4.19854Z"
        fill="#181C56" />
</svg>
