<?xml version="1.0" encoding="utf-8"?>
<svg width="16" height="16" viewBox="0 0 16 16" fill="none"
    xmlns="http://www.w3.org/2000/svg">
    <path fill-rule="evenodd" clip-rule="evenodd"
        d="M3.5 1C3.22386 1 3 1.22386 3 1.5V5C3 5.13261 3.05268 5.25979 3.14645 5.35355L5.79289 8L3.14645 10.6464C3.05268 10.7402 3 10.8674 3 11V14.5C3 14.7761 3.22386 15 3.5 15L12.5 15C12.6326 15 12.7598 14.9473 12.8536 14.8536C12.9473 14.7598 13 14.6326 13 14.5V11C13 10.8674 12.9473 10.7402 12.8536 10.6464L10.2071 8L12.8536 5.35355C12.9473 5.25979 13 5.13261 13 5V1.5C13 1.22386 12.7761 1 12.5 1H3.5ZM6 5.59999L10 5.59999V4.39999H6V5.59999ZM7.64646 9.64644C7.84172 9.45118 8.15831 9.45118 8.35357 9.64644L10.8536 12.1464C10.9966 12.2894 11.0393 12.5045 10.962 12.6913C10.8846 12.8782 10.7022 13 10.5 13H5.50001C5.29778 13 5.11547 12.8782 5.03807 12.6913C4.96068 12.5045 5.00346 12.2894 5.14646 12.1464L7.64646 9.64644Z"
        fill="#181C56" />
</svg>
