<?xml version="1.0" encoding="utf-8"?>
<svg width="16" height="16" viewBox="0 0 16 16" fill="none" xmlns="http://www.w3.org/2000/svg">
    <path fill-rule="evenodd" clip-rule="evenodd"
        d="M6.94795 3.63755C6.71364 3.40323 6.33374 3.40323 6.09942 3.63755L3.6376 6.09937C3.40329 6.33368 3.40329 6.71358 3.6376 6.94789L6.09942 9.40971C6.33374 9.64403 6.71364 9.64403 6.94795 9.40971L9.40977 6.94789C9.64409 6.71358 9.64409 6.33368 9.40977 6.09937L6.94795 3.63755ZM4.9104 6.52363L6.52369 4.91034L8.13698 6.52363L6.52369 8.13692L4.9104 6.52363Z"
        fill="#181C56" />
    <path fill-rule="evenodd" clip-rule="evenodd"
        d="M1 6.52363C1 3.47301 3.47302 1 6.52363 1C8.81564 1 10.7816 2.39599 11.6176 4.38411C13.6048 5.21986 15.0015 7.18502 15.0015 9.47781C15.0015 12.5284 12.5284 15.0014 9.47783 15.0014C7.18504 15.0014 5.21988 13.6048 4.38413 11.6176C2.39601 10.7816 1 8.81565 1 6.52363ZM6.52363 2.2C4.13576 2.2 2.2 4.13576 2.2 6.52363C2.2 8.91151 4.13576 10.8473 6.52363 10.8473C8.91151 10.8473 10.8473 8.91151 10.8473 6.52363C10.8473 4.13576 8.91151 2.2 6.52363 2.2ZM12.0473 6.52363C12.0473 6.34041 12.0383 6.15928 12.0209 5.98063C13.1005 6.76709 13.8015 8.04104 13.8015 9.47781C13.8015 11.8657 11.8657 13.8014 9.47783 13.8014C8.04106 13.8014 6.76711 13.1005 5.98066 12.0209C6.15929 12.0383 6.34042 12.0473 6.52363 12.0473C9.57425 12.0473 12.0473 9.57425 12.0473 6.52363Z"
        fill="#181C56" />
</svg>
