<?xml version="1.0" encoding="utf-8"?>
<svg width="16" height="16" viewBox="0 0 16 16" fill="none" xmlns="http://www.w3.org/2000/svg">
    <path d="M4.9389 5.05868V6.53389H6.1389V5.05868H4.9389Z" fill="#181C56" />
    <path d="M9.86261 6.53389V5.05868H11.0626V6.53389H9.86261Z" fill="#181C56" />
    <path
        d="M8.00072 8.88431C7.23926 8.88431 6.5212 8.44658 6.0473 7.69046L5.0305 8.32774C5.67948 9.36321 6.7489 10.0843 8.00072 10.0843C9.25254 10.0843 10.322 9.36321 10.9709 8.32774L9.95414 7.69046C9.48024 8.44658 8.76218 8.88431 8.00072 8.88431Z"
        fill="#181C56" />
    <path fill-rule="evenodd" clip-rule="evenodd"
        d="M2.6 2C1.71634 2 1 2.71635 1 3.6V10.943C1 11.8266 1.71635 12.543 2.6 12.543H3.46182V14.4017C3.46182 14.6264 3.58735 14.8322 3.78711 14.9351C3.98686 15.038 4.22735 15.0206 4.41027 14.8901L7.70044 12.543H13.4014C14.2851 12.543 15.0014 11.8266 15.0014 10.943V3.6C15.0014 2.71635 14.2851 2 13.4014 2H2.6ZM2.2 3.6C2.2 3.37909 2.37909 3.2 2.6 3.2H13.4014C13.6224 3.2 13.8014 3.37909 13.8014 3.6V10.943C13.8014 11.1639 13.6224 11.343 13.4014 11.343H7.50836C7.38343 11.343 7.26161 11.382 7.15991 11.4545L4.66182 13.2366V11.943C4.66182 11.6116 4.39319 11.343 4.06182 11.343H2.6C2.37909 11.343 2.2 11.1639 2.2 10.943V3.6Z"
        fill="#181C56" />
</svg>
