<?xml version="1.0" encoding="utf-8"?>
<!-- Generator: Adobe Illustrator 24.0.1, SVG Export Plug-In . SVG Version: 6.00 Build 0)  -->
<svg version="1.1" id="Layer_1" xmlns="http://www.w3.org/2000/svg" xmlns:xlink="http://www.w3.org/1999/xlink" x="0px" y="0px"
	 width="16px" height="16px" viewBox="0 0 16 16" enable-background="new 0 0 16 16" xml:space="preserve">
<path id="path-1_1_" fill-rule="evenodd" clip-rule="evenodd" fill="#181C56" d="M12.7791805,0.9987972l1.0139923,1.0139925
	l-2.4389601,2.4385056c0.5835247,0.3211899,1.1438417,0.7204595,1.6795206,1.1849899
	c0.5141373,0.4458494,0.9691992,0.9221153,1.3620005,1.3989959c0.1190205,0.1444974,0.2202291,0.2739019,0.3031015,0.38451
	l0.0767393,0.1042061l0.1163387,0.1675243c0.1441154,0.2187052,0.1441154,0.4993496,0,0.7180548
	c-0.0456724,0.0693102-0.1102066,0.1611214-0.193078,0.2717295L14.60987,8.7980433l-0.2141361,0.2677736
	c-0.3928013,0.4768801-0.8478632,0.953146-1.3620005,1.3989954C11.5376196,11.7622118,9.8493252,12.5505486,8,12.5505486
	c-1.3050694,0-2.529943-0.392602-3.6636739-1.0796547l-2.3223336,2.3210764L1,12.7779779l2.1550322-2.1530371
	c-0.0632567-0.0524721-0.1261795-0.105855-0.1887658-0.1601286C2.4521291,10.0189629,1.9970675,9.542697,1.6042665,9.0658169
	C1.4852457,8.921319,1.3840368,8.791914,1.3011651,8.6813059L1.2244252,8.5771008L1.1080868,8.4095764
	c-0.1441158-0.2187052-0.1441158-0.4993496,0-0.7180548C1.1994309,7.5529013,1.3662249,7.324276,1.6042665,7.0352812
	c0.3928009-0.4768806,0.8478626-0.9531465,1.3619999-1.3989959C4.4623799,4.3388858,6.1506743,3.550549,8,3.550549
	c0.666028,0,1.3111696,0.1022515,1.9339705,0.2937093L12.7791805,0.9987972z M11.0707331,5.8368211l0.0155544,0.0524373
	c0.0795116,0.2806754,0.1220455,0.5767918,0.1220455,0.8826022c0,1.7736983-1.4308577,3.2213111-3.208333,3.2213111
	c-0.6249237,0-1.2070026-0.178937-1.6991181-0.4880705L5.314353,10.4915581C6.1710267,10.9620314,7.0702901,11.2226801,8,11.2226801
	c1.4683828,0,2.8608179-0.6501875,4.1294603-1.750329c0.3628225-0.3146324,0.6939392-0.6481581,0.9899254-0.9851484
	l0.2153492-0.2531509l0.1476259-0.1839247l-0.1476259-0.1830807C12.9869766,7.444849,12.5829887,7.022037,12.1294603,6.628747
	C11.7853413,6.3303337,11.4321136,6.0650263,11.0707331,5.8368211z M4.9287877,5.8376956
	C4.5678864,6.0650263,4.2146587,6.3303337,3.8705392,6.628747C3.5077169,6.9433789,3.1766005,7.2769051,2.880614,7.6138954
	L2.6652648,7.8670464L2.5166667,8.050127l0.1485982,0.1839247C3.0130236,8.656249,3.4170113,9.0790606,3.8705392,9.4723511
	L4.1069999,9.67097l1.1799893-1.1790352C4.9730921,7.99368,4.7916665,7.4034433,4.7916665,6.7718606
	C4.7916665,6.4472594,4.8395886,6.1335802,4.9287877,5.8376956z M9.7216282,6.0839405l-2.433939,2.4351463
	C7.507266,8.6133251,7.7480288,8.6653032,8,8.6653032c1.0144558,0,1.8472223-0.8425179,1.8472223-1.8934426
	C9.8472223,6.5287895,9.8026724,6.2968674,9.7216282,6.0839405z M8,4.878418c-1.0144553,0-1.8472223,0.8425179-1.8472223,1.8934426
	c0,0.2541294,0.048696,0.4960728,0.1368814,0.7168632l2.4518247-2.4512653C8.5141296,4.935122,8.2631788,4.878418,8,4.878418z"/>
</svg>
