<?xml version="1.0" encoding="utf-8"?>
<!-- Generator: Adobe Illustrator 24.0.1, SVG Export Plug-In . SVG Version: 6.00 Build 0)  -->
<svg version="1.1" id="Layer_1" xmlns="http://www.w3.org/2000/svg" xmlns:xlink="http://www.w3.org/1999/xlink" x="0px" y="0px"
	 width="16px" height="16px" viewBox="0 0 16 16" enable-background="new 0 0 16 16" xml:space="preserve">
<path id="path-1_1_" fill-rule="evenodd" clip-rule="evenodd" fill="#181C56" d="M10.5076084,6.9851294
	c-0.2139864,0.538413-0.5557985,1.0121121-0.9879808,1.3836422c1.9127245,0.789465,3.27493,2.6273222,3.3553944,4.7910719
	l0.0037661,0.2028837v0.636364h-1.272727v-0.636364c0-2.2178526-1.7665567-4.0301113-3.9874654-4.1318579L7.4214878,9.2263632
	H6.4573002c-2.2464995,0-4.0772419,1.7488918-4.1800218,3.9417572l-0.0045512,0.1946068v0.636364H1v-0.636364
	c0-2.3922424,1.5660872-4.4202003,3.7360086-5.1345043c-0.668786-0.6455803-1.0844934-1.5516467-1.0844934-2.5548897
	c0-1.9624259,1.5906041-3.5530303,3.5530303-3.5530303c0.7273507,0,1.4036231,0.2185061,1.9667621,0.5934629
	C9.6194372,2.2726409,10.2361879,2,10.916667,2c1.3766174,0,2.492424,1.1158061,2.492424,2.492424
	c0,0.6020718-0.2134314,1.1542549-0.5687666,1.5850234c1.2237473,0.5856252,2.0850668,1.8195376,2.1550674,3.2624698L15,9.530303
	v0.636364h-1.272727V9.530303c0-1.3558722-1.0387592-2.4608288-2.3453417-2.5408177l-0.1519041-0.0046368L10.5076084,6.9851294z
	 M10.916667,3.1727273c-0.3416948,0-0.6505356,0.1404471-0.8719511,0.3667724
	c0.4477911,0.5935793,0.7128601,1.332725,0.7128601,2.1338334l-0.0020704-0.0717607
	c0.0527315,0.006958,0.1065264,0.0105486,0.1611614,0.0105486c0.6737099,0,1.219697-0.5459867,1.219697-1.219697
	S11.5903769,3.1727273,10.916667,3.1727273z M7.2045455,3.3930304c1.2595181,0,2.2803025,1.0207846,2.2803025,2.2803028
	s-1.0207844,2.280303-2.2803025,2.280303s-2.280303-1.0207844-2.280303-2.280303S5.9450274,3.3930304,7.2045455,3.3930304z"/>
</svg>
