<?xml version="1.0" encoding="utf-8"?>
<!-- Generator: Adobe Illustrator 24.1.0, SVG Export Plug-In . SVG Version: 6.00 Build 0)  -->
<svg version="1.1" id="Layer_1" xmlns="http://www.w3.org/2000/svg" xmlns:xlink="http://www.w3.org/1999/xlink" x="0px" y="0px"
	 width="14px" height="13px" viewBox="0 0 14 13" enable-background="new 0 0 14 13" xml:space="preserve">
<g id="_x30_5.-Icons">
	<g id="_x30_3---Iconography" transform="translate(-1101.000000, -464.000000)">
		<g id="Icon_x2F_UI_x2F_Value" transform="translate(1100.000000, 462.000000)">
			<g id="Icon-Fill">
				<path id="path-1_1_" fill-rule="evenodd" clip-rule="evenodd" fill="#181C56" d="M12.2784872,2.186686l0.0072641,0.0075245
					c0.0170288,0.0183215,0.0328169,0.0376203,0.0472927,0.0577598l0.0078812,0.0112851l2.5570774,3.7319782
					c0.0059414,0.0086703,0.0116215,0.0174527,0.0170403,0.0263367c0.0099478,0.0161028,0.0191336,0.0329185,0.0274858,0.0501919
					c0.0028152,0.0060968,0.005578,0.0120769,0.008234,0.0180888c0.0092001,0.0204902,0.0172215,0.0419364,0.0239639,0.06392
					c0.0032568,0.0110412,0.0061941,0.0217271,0.0088177,0.0324664c0.0046043,0.0183625,0.0083275,0.0378113,0.0110483,0.057569
					c0.0014544,0.0109739,0.0025873,0.0212755,0.0034418,0.0315924C14.99932,6.290524,15,6.3066869,15,6.3230042
					l-0.0001717,0.0140314c-0.000412,0.0168977-0.0015688,0.0337772-0.0034666,0.0505886L15,6.3230042
					c0,0.034668-0.0030689,0.0686393-0.008956,0.1016698c-0.0090828,0.0500631-0.0246363,0.0989609-0.0467482,0.1456332
					c-0.0050335,0.0108891-0.0107565,0.0220323-0.0168238,0.0329685C14.9118099,6.6312976,14.8941269,6.657897,14.8740597,6.68328
					l0,0l-6.3926945,8.0859528c-0.0040712,0.0051498-0.0082073,0.0102129-0.0124073,0.0151901l-0.0106688,0.0124779
					c-0.0094395,0.0105457-0.0192394,0.0207329-0.0293751,0.03055c-0.0023403,0.0022831-0.005291,0.0051003-0.0082722,0.0078897
					c-0.0136089,0.0125532-0.0213823,0.0192938-0.0292902,0.0258055l-0.0116892,0.009078
					c-0.0054893,0.0042696-0.0110521,0.0084448-0.0166845,0.0125227l-0.0163221,0.0115786l0,0l-0.00881,0.0061121
					c-0.0100813,0.0065765-0.0203257,0.0128269-0.0307159,0.0187502c-0.0125608,0.0066967-0.0253773,0.0134153-0.0384254,0.0196819
					c-0.0020332,0.00107-0.0041456,0.0020657-0.0062666,0.0030508c-0.0191126,0.0090017-0.0321789,0.0143557-0.0453882,0.0192451
					c-0.0102987,0.0035305-0.0206938,0.0070972-0.0311899,0.0103893l-0.0072594,0.0021687l-0.013092,0.0039854
					c-0.0120287,0.0032883-0.0241432,0.0062094-0.0363255,0.0087652C8.11763,14.988903,8.105567,14.9911079,8.09342,14.9929562
					L8.0811348,14.994648l0,0L8.060113,14.9969845c-0.0079727,0.0007629-0.0159578,0.0013742-0.0239506,0.001833
					c-0.0114279,0.0008287-0.0237503,0.0011959-0.0361166,0.001193l-0.015944-0.0001993l0,0l-0.022243-0.001111
					c-0.0069957-0.0004234-0.0139847-0.0009632-0.0209641-0.0016193c-0.0112705-0.0009975-0.0226679-0.002409-0.03407-0.0041456
					c-0.0065484-0.0009451-0.0121412-0.0018816-0.0177145-0.0028934l-0.0222611-0.0044136
					c-0.0108452-0.0023489-0.0216355-0.0049887-0.0323577-0.0079193c-0.0044055-0.0014362-0.0087504-0.0026855-0.0130916-0.0039854
					c-0.0186157-0.0057058-0.0309663-0.0099869-0.0431547-0.0146465c-0.0135241-0.0048151-0.0266223-0.0103188-0.0395441-0.0162916
					l0.0826988,0.0309381c-0.0339417-0.0101614-0.0663066-0.022954-0.096931-0.0380764
					c-0.0043926-0.002286-0.0085959-0.0044308-0.0127735-0.0066223l-0.022728-0.0120821
					c-0.0115523-0.0067005-0.0229192-0.0138073-0.0340791-0.0213203c-0.0045605-0.0033178-0.00915-0.0064907-0.0136871-0.0097218
					c-0.0029764-0.0022726-0.0058513-0.0043564-0.008708-0.006465L7.6096239,14.861948
					c-0.0328755-0.0269537-0.0634322-0.0578594-0.0909891-0.0927153l0.060442,0.0658445
					c-0.0028529-0.0026722-0.0056772-0.0053701-0.0084724-0.0080929c-0.0128751-0.0125217-0.024848-0.0252275-0.036262-0.0384722
					c-0.0001717-0.00033-0.0004644-0.0006714-0.0007567-0.0010128l-0.0149508-0.0182667L1.1259407,6.68328
					C1.1054009,6.6573,1.087359,6.6300454,1.0718255,6.6018243C1.0622357,6.5846109,1.0535556,6.5667901,1.0457913,6.5485072
					c-0.004795-0.0116191-0.0092245-0.0230794-0.0132766-0.0346375C1.0262746,6.496459,1.0209708,6.478641,1.0165271,6.4604979
					C1.0140274,6.4498115,1.0117792,6.4393902,1.0098228,6.4289265C1.0068775,6.4136181,1.0046122,6.3979211,1.002993,6.3820391
					C1.0012369,6.3644404,1.0002555,6.3472643,1.0000432,6.3300753C1.0000148,6.3278098,1,6.3254089,1,6.3230042l0.0005291-0.024754
					C1.0014014,6.2779226,1.0033514,6.2576218,1.006382,6.237433L1,6.3230042c0-0.0425315,0.0046183-0.084013,0.0133934-0.1239963
					c0.0039047-0.0173178,0.0085912-0.0347247,0.0141104-0.0519466c0.0049833-0.0160089,0.0109484-0.0321374,0.0175954-0.047924
					c0.0153763-0.0361395,0.03424-0.0708356,0.0568976-0.1039038L1.0601406,6.0663142
					c0.0078803-0.015873,0.0164689-0.0313511,0.0257255-0.0463953l0.0161308-0.0246854l2.5570776-3.7319782
					c0.0009751-0.0014231,0.001956-0.0028415,0.0029428-0.0042548c0.0155313-0.022388,0.033124-0.0442386,0.0522885-0.0648515
					c0.00401-0.0041604,0.0079005-0.008219,0.0118449-0.0122192c0.0122502-0.0126526,0.0260634-0.0254762,0.0405333-0.0376797
					c0.0344365-0.0287914,0.0716171-0.0536237,0.1111374-0.0742028c0.0155866-0.0080841,0.0278754-0.0138605,0.0404327-0.0192592
					c0.0767186-0.032985,0.1602218-0.0506589,0.2461293-0.0506589L4.0650001,2.0079999
					c0.0299902-0.0046697,0.0556993-0.0070114,0.0812669-0.0077634l0.0181165-0.0001073l7.6713843-0.0001602
					c0.0622635,0.0000238,0.1255627,0.0094385,0.1879168,0.0292072c0.0174131,0.0055239,0.0342064,0.0116732,0.0506735,0.0185246
					l-0.0466948-0.0172486c0.0337086,0.0109324,0.0657768,0.0244625,0.0960464,0.0402849
					c0.0292053,0.015383,0.0576534,0.0333765,0.084446,0.0536208c0.0230122,0.0171735,0.044714,0.0361953,0.0648241,0.0565314
					L12.2784872,2.186686z M9.7329998,6.9130001H6.2649999l1.7340002,5.4860001L9.7329998,6.9130001z M6.4299998,11.4549999
					L4.994,6.9130001H2.839L6.4299998,11.4549999z M13.1590004,6.9130001h-2.1540003l-1.4350004,4.54L13.1590004,6.9130001z
					 M13.257,5.7319999l-1.2390003-1.8089998l-0.6189995,1.8089998H13.257z M3.98,3.9219999L2.7409999,5.7319999h1.859
					L3.98,3.9219999z M7.9990001,3.6559999l-1.4219999,2.076h2.8439994L7.9990001,3.6559999z M6.8649998,3.181H5.006
					l0.6199999,1.8079998L6.8649998,3.181z M10.993,3.181H9.1339998l1.2390003,1.8079998L10.993,3.181z"/>
			</g>
		</g>
	</g>
</g>
</svg>
