<?xml version="1.0" encoding="utf-8"?>
<!-- Generator: Adobe Illustrator 24.0.1, SVG Export Plug-In . SVG Version: 6.00 Build 0)  -->
<svg version="1.1" id="Layer_1" xmlns="http://www.w3.org/2000/svg" xmlns:xlink="http://www.w3.org/1999/xlink" x="0px" y="0px"
	 width="16px" height="16px" viewBox="0 0 16 16" enable-background="new 0 0 16 16" xml:space="preserve">
<path id="path-1_1_" fill-rule="evenodd" clip-rule="evenodd" fill="#181C56" d="M8,3.5
	c1.8493252,0,3.5376196,0.7883372,5.0337334,2.0857363c0.5141373,0.4458494,0.9691992,0.9221153,1.3620005,1.3989959
	c0.1586943,0.1926632,0.2857227,0.3584952,0.3798409,0.4887156l0,0l0.1163387,0.1675243
	c0.1441154,0.2187052,0.1441154,0.4993505,0,0.7180557c-0.0608959,0.0924129-0.1553259,0.2248287-0.2820435,0.3884659l0,0
	l-0.2141361,0.2677746c-0.3928013,0.4768801-0.8478632,0.953146-1.3620005,1.3989954C11.5376196,11.7116632,9.8493252,12.5,8,12.5
	s-3.5376201-0.7883368-5.0337334-2.0857363C2.4521291,9.9684143,1.9970675,9.4921484,1.6042665,9.0152683
	C1.4455721,8.8226051,1.3185433,8.6567726,1.2244252,8.5265522l0,0L1.1080868,8.3590279
	c-0.1441158-0.2187052-0.1441158-0.4993505,0-0.7180557c0.0913441-0.1386204,0.2581381-0.3672452,0.4961797-0.65624
	c0.3928009-0.4768806,0.8478626-0.9531465,1.3619999-1.3989959C4.4623799,4.2883372,6.1506743,3.5,8,3.5z M11.0707331,5.786272
	l0.0155544,0.0524373c0.0795116,0.2806754,0.1220455,0.5767922,0.1220455,0.8826022
	c0,1.7736979-1.4308577,3.2213116-3.208333,3.2213116S4.7916665,8.4950094,4.7916665,6.7213116
	c0-0.3246007,0.0479221-0.6382804,0.1371212-0.9341645C4.5678864,6.0144773,4.2146587,6.2797847,3.8705392,6.578198
	C3.4170113,6.971488,3.0130236,7.3943,2.6652648,7.8164978l0,0L2.5166667,7.9995785l0.1485982,0.1839237
	C3.0130236,8.6056995,3.4170113,9.028512,3.8705392,9.4218016C5.1391826,10.521944,6.5316172,11.1721315,8,11.1721315
	s2.8608179-0.6501875,4.1294603-1.75033c0.4535284-0.3932896,0.8575163-0.816102,1.2052746-1.2382994l0,0l0.1476259-0.1839237
	l-0.1476259-0.1830807C12.9869766,7.3943,12.5829887,6.971488,12.1294603,6.578198
	C11.7853413,6.2797847,11.4321136,6.0144773,11.0707331,5.786272z M8,4.8278689
	c1.0144558,0,1.8472223,0.8425179,1.8472223,1.8934426S9.0144558,8.6147537,8,8.6147537S6.1527777,7.7722359,6.1527777,6.7213116
	S6.9855447,4.8278689,8,4.8278689z"/>
</svg>
