<?xml version="1.0" encoding="UTF-8"?>
<svg width="17.231px" height="16px" enable-background="new 0 0 17.2307701 16" version="1.1" viewBox="0 0 17.231 16" xml:space="preserve" xmlns="http://www.w3.org/2000/svg">
<path id="path-1_1_" d="m8.6152 1.5c-0.33128 0-0.6619 0.16537-0.8418 0.49609l-6.0449 11.125c-0.33879 0.62398 0.12322 1.3789 0.84375 1.3789h12.088c0.71958 0 1.1806-0.75493 0.8418-1.3789l-6.0449-11.125c-0.17942-0.33073-0.51052-0.49609-0.8418-0.49609zm-0.69922 4h1.3984v4.0996h-1.3984v-4.0996zm0.70508 5.5c0.48325 0 0.875 0.39175 0.875 0.875s-0.39175 0.875-0.875 0.875c-0.48325 0-0.875-0.39175-0.875-0.875 0-0.48325 0.39175-0.875 0.875-0.875z" fill="#181c56"/>
</svg>
