<?xml version="1.0" encoding="utf-8"?>
<!-- Generator: Adobe Illustrator 24.0.1, SVG Export Plug-In . SVG Version: 6.00 Build 0)  -->
<svg version="1.1" id="Layer_1" xmlns="http://www.w3.org/2000/svg" xmlns:xlink="http://www.w3.org/1999/xlink" x="0px" y="0px"
	 width="16px" height="16px" viewBox="0 0 16 16" enable-background="new 0 0 16 16" xml:space="preserve">
<path id="Icon-Fill" fill-rule="evenodd" clip-rule="evenodd" fill="#181C56" d="M12.0495872,4.0001359
	c0.3514538,0,0.636363,0.2774477,0.636363,0.6196971l0,0l-0.0009499,1.070303l1.6786356,0.0000834
	c0.3221664,0,0.5884171,0.2331333,0.6305552,0.5356078L15,6.3099165v3.380167c0,0.3137283-0.2394037,0.5730057-0.5500126,0.6140404
	l-0.0863514,0.0056572l-1.6786356-0.0006456l0.0009499,1.0710316c0,0.3111362-0.2354622,0.568717-0.542326,0.612978
	l-0.0940371,0.0067196H1.6363636C1.2849097,11.9998646,1,11.7224159,1,11.380167l0,0V4.619833
	c0-0.3422494,0.2849097-0.6196971,0.6363636-0.6196971l0,0H12.0495872z M5.2919998,5.2391357L2.2727273,5.2395301v5.520618
	l5.8532734-0.0000124L5.2919998,5.2391357z M11.4127274,5.2395301L6.7160001,5.2391357l2.8340001,5.5209999l1.8627272,0.0000124
	V5.2395301z M12.6850004,9.0701361l1.0422726,0.0000086V6.9295335l-1.0422726-0.0003977V9.0701361z"/>
</svg>
