<svg width="16" height="16" viewBox="0 0 16 16" fill="none" xmlns="http://www.w3.org/2000/svg">
<path d="M7.5 6.5H9V8H7.5V6.5Z" fill="#181C56"/>
<path d="M5 6.5H6.5V8H5V6.5Z" fill="#181C56"/>
<path d="M7.5 9H9V10.5H7.5V9Z" fill="#181C56"/>
<path d="M5 9H6.5V10.5H5V9Z" fill="#181C56"/>
<path d="M7.5 11.5H9V13H7.5V11.5Z" fill="#181C56"/>
<path d="M5 11.5H6.5V13H5V11.5Z" fill="#181C56"/>
<path d="M10 6.5H11V13H10V6.5Z" fill="#181C56"/>
<path fill-rule="evenodd" clip-rule="evenodd" d="M11.2895 1C12.2369 1 13 1.80522 13 2.79339V13.2066C13 14.1948 12.2369 15 11.2895 15H4.71053C3.76309 15 3 14.1948 3 13.2066V2.79339C3 1.80522 3.76309 1 4.71053 1H11.2895ZM4.228 10.371L4.22807 13.2066C4.22807 13.4647 4.40053 13.6754 4.6244 13.719L4.71053 13.7273H11.2895C11.5537 13.7273 11.7719 13.497 11.7719 13.2066L11.771 10.371V9.099V5.5H4.228V9.099V10.371ZM4.228 4.5H11.771V3.314L11.7719 2.79339C11.7719 2.53531 11.5995 2.32465 11.3756 2.28102L11.2895 2.27273H4.71053C4.44634 2.27273 4.22807 2.50305 4.22807 2.79339L4.228 3.314V4.5Z" fill="#181C56"/>
</svg>
