<?xml version="1.0" encoding="utf-8"?>
<!-- Generator: Adobe Illustrator 24.0.1, SVG Export Plug-In . SVG Version: 6.00 Build 0)  -->
<svg version="1.1" id="Layer_1" xmlns="http://www.w3.org/2000/svg" xmlns:xlink="http://www.w3.org/1999/xlink" x="0px" y="0px"
	 width="16px" height="16px" viewBox="0 0 16 16" enable-background="new 0 0 16 16" xml:space="preserve">
<path id="Icon-Fill" fill-rule="evenodd" clip-rule="evenodd" fill="#181C56" d="M7.4214878,1.5L7.3313565,1.5064847
	c-0.177762,0.0257292-0.3381925,0.1267524-0.4393554,0.2803526l-0.969274,1.4698358L1.6363636,3.2567568
	C1.2849097,3.2567568,1,3.5451498,1,3.9009008v9.9549551C1,14.211607,1.2849097,14.5,1.6363636,14.5h12.727272
	C14.7150908,14.5,15,14.211607,15,13.8558559V3.9009008l-0.0058088-0.0874066
	c-0.0421381-0.3144071-0.3083887-0.5567374-0.6305552-0.5567374l-1.9736357-0.0000837l-0.9679518-1.4698358
	C11.3040247,1.6076372,11.1053324,1.5,10.8925619,1.5H7.4214878z M10.5518179,2.7882884l0.9682827,1.4699194l0.0553265,0.0723133
	c0.1197538,0.1354437,0.2917852,0.2145238,0.4741602,0.2145238l1.6776857-0.0000834v8.6665001H2.2727273V4.5449615
	l3.9917357,0.0000834l0.0901313-0.0064845c0.177762-0.0257292,0.338192-0.1267524,0.4393549-0.2803526l0.9678693-1.4699194
	H10.5518179z M9,5C7.0672464,5,5.5,6.5672464,5.5,8.5S7.0672464,12,9,12s3.5-1.5672464,3.5-3.5S10.9327536,5,9,5z M9,6.2622952
	c1.2356071,0,2.2377052,1.0020976,2.2377052,2.2377048S10.2356071,10.7377052,9,10.7377052S6.7622952,9.7356071,6.7622952,8.5
	S7.7643929,6.2622952,9,6.2622952z M4.0749998,5.4000001C3.5917509,5.4000001,3.2,5.7917509,3.2,6.2750001
	s0.3917508,0.875,0.8749998,0.875s0.875-0.3917508,0.875-0.875S4.558249,5.4000001,4.0749998,5.4000001z"/>
</svg>
