<?xml version="1.0" encoding="utf-8"?>
<!-- Generator: Adobe Illustrator 24.0.1, SVG Export Plug-In . SVG Version: 6.00 Build 0)  -->
<svg version="1.1" id="Layer_1" xmlns="http://www.w3.org/2000/svg" xmlns:xlink="http://www.w3.org/1999/xlink" x="0px" y="0px"
	 width="16px" height="16px" viewBox="0 0 16 16" enable-background="new 0 0 16 16" xml:space="preserve">
<path id="Icon-Fill" fill-rule="evenodd" clip-rule="evenodd" fill="#181C56" d="M3.8925619,14.5v-1.2352943l3.470438-0.0007057
	v-1.7060003l-5.7266364,0.000824c-0.3195035,0-0.5840119-0.2285376-0.6294638-0.5263758L1,10.9411764V2.1176472
	C1,1.77653,1.2849097,1.5,1.6363636,1.5l0,0h12.727272C14.7150908,1.5,15,1.77653,15,2.1176472l0,0v8.8235292
	c0,0.3411169-0.2849092,0.6176472-0.636364,0.6176472l0,0l-5.7276363-0.000824v1.7060003l3.4714384,0.0007057V14.5H3.8925619z
	 M13.727273,2.7352941H2.2727273v7.5882349h11.454546V2.7352941z"/>
</svg>
