<svg xmlns="http://www.w3.org/2000/svg" width="24" height="25" viewBox="0 0 24 25" fill="none">
    <path
        d="M6 18.9141C6 17.2572 7.34316 15.9141 9 15.9141H12V18.9141C12 20.5709 10.6568 21.9141 9 21.9141C7.34316 21.9141 6 20.5709 6 18.9141Z"
        fill="#24CB71" />
    <path d="M12 3.91406V9.91406H15C16.6568 9.91406 18 8.5709 18 6.91406C18 5.25722 16.6568 3.91406 15 3.91406H12Z"
        fill="#FF7237" />
    <path
        d="M15 15.9141C16.6569 15.9141 18 14.5709 18 12.9141C18 11.2572 16.6569 9.91406 15 9.91406C13.3431 9.91406 12 11.2572 12 12.9141C12 14.5709 13.3431 15.9141 15 15.9141Z"
        fill="#00B6FF" />
    <path d="M6 6.91406C6 8.5709 7.34316 9.91406 9 9.91406H12V3.91406H9C7.34316 3.91406 6 5.25722 6 6.91406Z"
        fill="#FF3737" />
    <path d="M6 12.9141C6 14.5709 7.34316 15.9141 9 15.9141H12V9.91406H9C7.34316 9.91406 6 11.2572 6 12.9141Z"
        fill="#874FFF" />
</svg>
