<?xml version="1.0" encoding="utf-8"?>
<!-- Generator: Adobe Illustrator 24.0.1, SVG Export Plug-In . SVG Version: 6.00 Build 0)  -->
<svg version="1.1" id="Layer_1" xmlns="http://www.w3.org/2000/svg" xmlns:xlink="http://www.w3.org/1999/xlink" x="0px" y="0px"
	 width="16px" height="16px" viewBox="0 0 16 16" enable-background="new 0 0 16 16" xml:space="preserve">
<path id="Icon-Fill" fill-rule="evenodd" clip-rule="evenodd" fill="#181C56" d="M14.363636,1
	C14.7150908,1,15,1.2849097,15,1.6363636l0,0v12.727272C15,14.7150908,14.7150908,15,14.363636,15l0,0H1.6363636
	C1.2849097,15,1,14.7150908,1,14.363636l0,0V1.6363636C1,1.2849097,1.2849097,1,1.6363636,1l0,0H14.363636z M13.727273,2.2727273
	H2.2727273v11.454546h11.454546V2.2727273z M9.1128664,7.0726409c0.2490654-0.3113313,0.7310104-0.2833128,0.9423199,0.0547829l0,0
	l2.6296024,4.2073627c0.2408228,0.3853168-0.0361938,0.8851233-0.4905777,0.8851233l0,0H3.7794852
	c-0.4620552,0-0.7376537-0.5149603-0.4813516-0.8994131l0,0l2.1036813-3.1555223
	c0.2025037-0.3037548,0.6322794-0.3463111,0.8904219-0.0881691l0,0l1.120306,1.1198893L9.1128664,7.0726409z M9.5059319,8.4322309
	l-1.5932617,1.9927988c-0.215395,0.2692442-0.617002,0.2914867-0.8608127,0.047677l0,0l-1.0789838-1.079318l-1.1132231,1.6694212
	h6.2909088L9.5059319,8.4322309z M6.9350071,3.7c0.9006457,0,1.630353,0.7297075,1.630353,1.6303532
	s-0.7297072,1.630353-1.630353,1.630353s-1.630353-0.7297077-1.630353-1.630353S6.0343618,3.7,6.9350071,3.7z M6.9350071,4.8570247
	c-0.2616382,0-0.4733281,0.2116899-0.4733281,0.4733286c0,0.2616382,0.2116899,0.4733281,0.4733281,0.4733281
	c0.2616386,0,0.4733286-0.2116899,0.4733286-0.4733281C7.4083357,5.0687146,7.1966457,4.8570247,6.9350071,4.8570247z"/>
</svg>
