<?xml version="1.0" encoding="utf-8"?>
<!-- Generator: Adobe Illustrator 24.0.1, SVG Export Plug-In . SVG Version: 6.00 Build 0)  -->
<svg version="1.1" id="Layer_1" xmlns="http://www.w3.org/2000/svg" xmlns:xlink="http://www.w3.org/1999/xlink" x="0px" y="0px"
	 width="16px" height="16px" viewBox="0 0 16 16" enable-background="new 0 0 16 16" xml:space="preserve">
<path id="Icon-Fill" fill-rule="evenodd" clip-rule="evenodd" fill="#181C56" d="M12.2474251,2
	c0.6464424,0,1.1779633,0.4855318,1.2382584,1.1060393l0.0056963,0.1178412L13.4910002,9.066l1.4069748,3.2278557
	c0.3360033,0.7709675-0.1973104,1.6246529-1.0233116,1.7006683L13.754734,14H2.2454257
	c-0.8928171,0-1.4948893-0.8978167-1.1438771-1.7060766l0,0l1.4064513-3.2299232L2.508173,3.2238805
	c0-0.6360099,0.4934955-1.1589541,1.1241803-1.2182763L3.7521274,2H12.2474251z M12.4336863,9.8205967h-8.869091
	l-1.2742946,2.9256716h11.4176807L12.4336863,9.8205967z M12.2170563,3.2537313H3.7821357L3.7820001,8.5670004H12.217
	L12.2170563,3.2537313z"/>
</svg>
