<?xml version="1.0" encoding="utf-8"?>
<!-- Generator: Adobe Illustrator 24.0.1, SVG Export Plug-In . SVG Version: 6.00 Build 0)  -->
<svg version="1.1" id="Layer_1" xmlns="http://www.w3.org/2000/svg" xmlns:xlink="http://www.w3.org/1999/xlink" x="0px" y="0px"
	 width="16px" height="16px" viewBox="0 0 16 16" enable-background="new 0 0 16 16" xml:space="preserve">
<path id="Icon-Fill" fill-rule="evenodd" clip-rule="evenodd" fill="#181C56" d="M8,11.3000002
	c0.3864002,0,0.6999998,0.3135996,0.6999998,0.6999998S8.3864002,12.6999998,8,12.6999998S7.3000002,12.3864002,7.3000002,12
	S7.6135998,11.3000002,8,11.3000002 M11.2894735,1C12.236908,1,13,1.8052193,13,2.7933884l0,0v10.4132233
	C13,14.1947803,12.236908,15,11.2894735,15l0,0H4.7105265C3.7630916,15,3,14.1947803,3,13.2066116l0,0V2.7933884
	C3,1.8052193,3.7630916,1,4.7105265,1l0,0H11.2894735z M11.7709999,10.3710003H4.2280002l0.0000701,2.8356113
	c0,0.2580824,0.1724586,0.4687386,0.3963304,0.5123644l0.0861259,0.008297h6.5789471
	c0.2641878,0,0.4824562-0.2303181,0.4824562-0.5206614l0,0L11.7709999,10.3710003z M11.7709999,4.586H4.2280002v4.513h7.5429997
	V4.586z M11.2894735,2.2727273H4.7105265c-0.2641883,0-0.4824562,0.2303181-0.4824562,0.5206611l0,0L4.2280002,3.3139999h7.5429997
	l0.0009298-0.5206115c0-0.2580829-0.1724586-0.4687383-0.3963308-0.5123644L11.2894735,2.2727273z"/>
</svg>
