<svg xmlns="http://www.w3.org/2000/svg" width="24" height="25" viewBox="0 0 24 25" fill="none">
    <g clip-path="url(#clip0_5264_3973)">
        <path d="M19.6924 9.40625L22.8316 9.58705V21.5295H19.6924V9.40625Z" fill="black" />
        <path
            d="M16.027 9.5866C16.027 8.577 16.8398 7.7642 17.8494 7.7642C18.0574 6.6474 18.091 5.5898 17.8494 4.625C15.1278 4.625 12.9102 6.8426 12.9102 9.5866V18.4122L16.0494 18.6426V9.5866H16.027Z"
            fill="#00843F" />
        <path
            d="M19.6925 9.5866H22.8317C22.8093 6.8426 20.5933 4.625 17.8701 4.625V7.7642C18.8797 7.7642 19.6925 8.577 19.6925 9.5866Z"
            fill="#FC83FF" />
        <path d="M16.0273 21.522V18.3828H10.8945L11.0881 21.522H16.0273Z" fill="#FFAA00" />
        <path d="M7.96973 21.5216H11.0881V18.3824V9.57924L7.96973 9.39844V21.5216Z" fill="#5887FF" />
        <path d="M1.1875 9.57924L4.3267 9.39844V21.5216H1.1875V9.57924Z" fill="black" />
        <path
            d="M6.1491 7.7642C7.1587 7.7642 7.9715 8.577 7.9715 9.5866H11.1107C11.0883 6.8426 8.8723 4.625 6.1491 4.625C3.4259 4.625 1.1875 6.841 1.1875 9.585H4.3267C4.3267 8.5754 5.1395 7.7626 6.1491 7.7626V7.7642Z"
            fill="#FF4B4B" />
    </g>
    <defs>
        <clipPath id="clip0_5264_3973">
            <rect width="24" height="24" fill="white" transform="translate(0 0.914062)" />
        </clipPath>
    </defs>
</svg>
