<?xml version="1.0" encoding="utf-8"?>
<!-- Generator: Adobe Illustrator 24.0.1, SVG Export Plug-In . SVG Version: 6.00 Build 0)  -->
<svg version="1.1" id="Layer_1" xmlns="http://www.w3.org/2000/svg" xmlns:xlink="http://www.w3.org/1999/xlink" x="0px" y="0px"
	 width="16px" height="16px" viewBox="0 0 16 16" enable-background="new 0 0 16 16" xml:space="preserve">
<path id="Icon-Fill" fill-rule="evenodd" clip-rule="evenodd" fill="#181C56" d="M2.9219239,1.764899
	c0.2485154-0.2485155,0.6514385-0.2485155,0.8999541,0l0,0l2.8925619,2.8925622
	c0.2485156,0.2485151,0.2485156,0.6514382,0,0.8999538l0,0L5.4281816,6.8427272l3.7281818,3.7281823l1.2862215-1.2853489
	c0.2236643-0.2236643,0.5723982-0.2460308,0.8210764-0.0670996l0,0l0.0788774,0.0670996l2.8925619,2.8925619
	c0.2485161,0.2485151,0.2485161,0.6514387,0,0.8999538l0,0l-1.7355366,1.7355366C12.3802223,14.9329548,12.2183609,15,12.0495872,15
	C5.9471412,15,1,10.0528593,1,3.9504132c0-0.1687741,0.0670452-0.3306358,0.1863866-0.4499772l0,0L2.9219239,1.764899z
	 M3.3718181,3.1145453l-1.0956886,1.096324c0.1335409,5.1060605,4.1820354,9.2374306,9.2542248,9.5028515l0,0l0.2587366,0.0099163
	l1.0954542-1.096364l-1.9927273-1.9918184L9.6070023,11.921051c-0.2236643,0.2236643-0.5723982,0.2460308-0.8210764,0.0670996l0,0
	L8.7070475,11.921051l-4.628099-4.628099c-0.2485154-0.2485151-0.2485154-0.6514382,0-0.8999538l0,0l1.284688-1.2857256
	L3.3718181,3.1145453z M9.1570244,1c3.1570826,0,5.7289591,2.5032446,5.8392878,5.6333904L15,6.8429751h-1.272727
	c0-2.4579015-1.9396544-4.4622364-4.3719816-4.5660257l-0.198267-0.0042219V1z M9.1570244,3.3140495
	c1.8878298,0,3.4298038,1.48298,3.524334,3.3473494l0.0045919,0.1815763h-1.272727
	c0-1.1959858-0.9311657-2.1749911-2.1078796-2.2513981L9.1570244,4.5867767V3.3140495z"/>
</svg>
