<?xml version="1.0" encoding="utf-8"?>
<!-- Generator: Adobe Illustrator 24.0.1, SVG Export Plug-In . SVG Version: 6.00 Build 0)  -->
<svg version="1.1" id="Layer_1" xmlns="http://www.w3.org/2000/svg" xmlns:xlink="http://www.w3.org/1999/xlink" x="0px" y="0px"
	 width="16px" height="16px" viewBox="0 0 16 16" enable-background="new 0 0 16 16" xml:space="preserve">
<path id="Icon-Fill" fill-rule="evenodd" clip-rule="evenodd" fill="#181C56" d="M11.4710741,1
	c0.3221664,0,0.5884171,0.2394032,0.6305552,0.5500128l0.0058088,0.0863508l0.0001574,2.3116651
	c1.6015434,0.2833531,2.8052778,1.621094,2.8878765,3.2898972L15,7.4214878v4.6859503l-2.8929996-0.0004377l0.0004377,2.2566357
	c0,0.3195038-0.2354622,0.584012-0.5423269,0.6294641L11.4710741,15H4.5289254c-0.3514538,0-0.6363635-0.2849092-0.6363635-0.636364
	l0,0L3.892,12.1070004L1,12.1074381V7.4214878c0-1.7533336,1.2322383-3.1794291,2.8917756-3.4733474l0.0007863-2.3117766
	c0-0.3221661,0.2394032-0.5884166,0.5500131-0.6305543L4.5289254,1H11.4710741z M10.8345451,9.7927275H5.1645455v3.9345455
	h5.6699996V9.7927275z M11.4710741,5.1652894H4.5289254c-1.2176454,0-2.176724,0.9103727-2.2515018,2.1053843L2.2727273,7.4214878
	v3.4130573L3.892,10.8339996l0.000562-1.6769753c0-0.3195028,0.2354627-0.5840111,0.5423265-0.6294632l0.0940371-0.0068998
	h6.9421487c0.3514538,0,0.636364,0.2849092,0.636364,0.636363l0,0l-0.0004377,1.6769753l1.6202726,0.0005455V7.4214878
	c0-1.2176456-0.9103727-2.1767244-2.1053848-2.2515025L11.4710741,5.1652894z M10.8345451,2.2727273H5.1645455L5.165,3.892
	h5.6689997L10.8345451,2.2727273z M11.454546,6.181818c0.3512726,0,0.636363,0.2850909,0.636363,0.636364
	c0,0.3512726-0.2850904,0.6363635-0.636363,0.6363635c-0.3512735,0-0.636364-0.2850909-0.636364-0.6363635
	C10.818182,6.4669089,11.1032724,6.181818,11.454546,6.181818"/>
</svg>
