<?xml version="1.0" encoding="utf-8"?>
<!-- Generator: Adobe Illustrator 24.0.1, SVG Export Plug-In . SVG Version: 6.00 Build 0)  -->
<svg version="1.1" id="Layer_1" xmlns="http://www.w3.org/2000/svg" xmlns:xlink="http://www.w3.org/1999/xlink" x="0px" y="0px"
	 width="16px" height="16px" viewBox="0 0 16 16" enable-background="new 0 0 16 16" xml:space="preserve">
<path id="Icon-Fill" fill-rule="evenodd" clip-rule="evenodd" fill="#181C56" d="M13.5,10.5V12H15v3h-1.5v-1.5h-3V15H9v-1.5h1.5V12
	H12v-1.5H13.5z M12,9v1.5h-1.5V12H9V9H12z M15,9v1.5h-1.5V9H15z M6.4107141,1C6.7361679,1,7,1.2638322,7,1.5892857l0,0v4.8214283
	C7,6.7361679,6.7361679,7,6.4107141,7l0,0H1.5892857C1.2638322,7,1,6.7361679,1,6.4107141l0,0V1.5892857
	C1,1.2638322,1.2638322,1,1.5892857,1l0,0H6.4107141z M14.4107141,1C14.7361679,1,15,1.2638322,15,1.5892857l0,0v4.8214283
	C15,6.7361679,14.7361679,7,14.4107141,7l0,0H9.5892859C9.2638321,7,9,6.7361679,9,6.4107141l0,0V1.5892857
	C9,1.2638322,9.2638321,1,9.5892859,1l0,0H14.4107141z M6.4107141,9C6.7361679,9,7,9.2638321,7,9.5892859l0,0v4.8214283
	C7,14.7361679,6.7361679,15,6.4107141,15l0,0H1.5892857C1.2638322,15,1,14.7361679,1,14.4107141l0,0V9.5892859
	C1,9.2638321,1.2638322,9,1.5892857,9l0,0H6.4107141z M14,2v4h-4V2H14z M6,10v4H2v-4H6z"/>
</svg>
