<?xml version="1.0" encoding="utf-8"?>
<!-- Generator: Adobe Illustrator 24.0.1, SVG Export Plug-In . SVG Version: 6.00 Build 0)  -->
<svg version="1.1" id="Layer_1" xmlns="http://www.w3.org/2000/svg" xmlns:xlink="http://www.w3.org/1999/xlink" x="0px" y="0px"
	 width="16px" height="16px" viewBox="0 0 16 16" enable-background="new 0 0 16 16" xml:space="preserve">
<path id="Icon-Fill" fill-rule="evenodd" clip-rule="evenodd" fill="#181C56" d="M11.4710741,1
	c0.2055149,0,0.3983784,0.0992509,0.5178308,0.2664847l0,0l2.8925619,4.0495868C14.9585581,5.4239993,15,5.5533175,15,5.6859503l0,0
	v8.6776857C15,14.7150908,14.7150908,15,14.363636,15l0,0H1.6363636C1.2849097,15,1,14.7150908,1,14.363636l0,0V1.6363636
	C1,1.2849097,1.2849097,1,1.6363636,1l0,0H11.4710741z M11.1436367,2.2727273l-0.7726364-0.0007272l0.0009003,3.4139502
	c0,0.3221664-0.2394028,0.5884166-0.5500126,0.6305547L9.7355375,6.3223143H3.9504132
	c-0.3221662,0-0.5884166-0.2394037-0.6305544-0.5500131L3.3140495,5.6859503L3.3139999,2.2720001L2.2727273,2.2727273v11.454546
	l1.0412726-0.0002728l0.0000496-5.148488c0-0.3221655,0.2394035-0.5884166,0.5500131-0.6305542l0.0863507-0.0058093h8.0991745
	c0.3221655,0,0.5884161,0.2394032,0.6305542,0.5500131l0.0058088,0.0863504l-0.0009499,5.148488l1.0422726,0.0002728V5.8899999
	L11.1436367,2.2727273z M11.4127274,9.2145452H4.5863638L4.586,13.7270002h6.8270001L11.4127274,9.2145452z M9.7355375,10.8347111
	v1.272727H6.2644629v-1.272727H9.7355375z M9.099,2.2720001H4.586l0.0003638,2.7770908h4.5127268L9.099,2.2720001z"/>
</svg>
