<?xml version="1.0" encoding="utf-8"?>
<!-- Generator: Adobe Illustrator 24.0.1, SVG Export Plug-In . SVG Version: 6.00 Build 0)  -->
<svg version="1.1" id="Layer_1" xmlns="http://www.w3.org/2000/svg" xmlns:xlink="http://www.w3.org/1999/xlink" x="0px" y="0px"
	 width="16px" height="16px" viewBox="0 0 16 16" enable-background="new 0 0 16 16" xml:space="preserve">
<path id="path-1_1_" fill-rule="evenodd" clip-rule="evenodd" fill="#181C56" d="M6.7951117,1
	c3.2008333,0,5.7951117,2.5942783,5.7951117,5.7951117c0,1.3565283-0.4659595,2.6041136-1.2465734,3.5914488L15,14.0438557
	L14.0438557,15l-3.6572952-3.6563501c-0.9873352,0.7806139-2.2349205,1.2465734-3.5914488,1.2465734
	C3.5942783,12.5902233,1,9.995945,1,6.7951117S3.5942783,1,6.7951117,1z M6.7951117,2.3521929
	c-2.4540377,0-4.4429188,1.9888811-4.4429188,4.4429188s1.9888811,4.4429188,4.4429188,4.4429188
	s4.4429188-1.9888802,4.4429188-4.4429188S9.2491503,2.3521929,6.7951117,2.3521929z M9.1563931,6.3279657v0.9209228H4.4204612
	V6.3279657H9.1563931z"/>
</svg>
