<?xml version="1.0" encoding="utf-8"?>
<!-- Generator: Adobe Illustrator 24.0.1, SVG Export Plug-In . SVG Version: 6.00 Build 0)  -->
<svg version="1.1" id="Layer_1" xmlns="http://www.w3.org/2000/svg" xmlns:xlink="http://www.w3.org/1999/xlink" x="0px" y="0px"
	 width="16px" height="16px" viewBox="0 0 16 16" enable-background="new 0 0 16 16" xml:space="preserve">
<path id="Icon-Fill" fill-rule="evenodd" clip-rule="evenodd" fill="#181C56" d="M8.0175352,1.0002416l0.1809483,0.0052326
	c1.8575191,0.1027876,3.2787895,1.6296827,3.2787895,3.5234513l0,0l-0.0000906,1.0990744L12.545455,5.628099
	c0.3195038,0,0.584012,0.2354627,0.6294632,0.5423269l0.0068998,0.0940371v8.0991726
	C13.181818,14.7150908,12.8969088,15,12.545455,15l0,0h-9.090909c-0.351454,0-0.6363637-0.2849092-0.6363637-0.636364l0,0V6.2644629
	c0-0.3514543,0.2849097-0.636364,0.6363637-0.636364l0,0L4.522182,5.6279998l0.0005455-1.0990744
	c0-1.9031227,1.4318657-3.4244595,3.284194-3.5237675L8,1L8.0175352,1.0002416z M5.1458669,6.900692L4.0909095,6.9000001v6.8272729
	h7.8181815V6.9000001l-1.0559092-0.0009999L10.840909,6.9008265H5.159091
	C5.1546726,6.9008265,5.1502643,6.9007816,5.1458669,6.900692z M7.9981823,8.3000002
	c0.7754383,0,1.3999996,0.6293964,1.3999996,1.4017944c0,0.5431576-0.3088465,1.0156002-0.7618227,1.2481899l0.0000048,1.5062141
	H7.3636365l0.0005059-1.5040989c-0.4552317-0.2318316-0.7659602-0.7054958-0.7659602-1.2503052
	C6.5981822,8.9293966,7.222743,8.3000002,7.9981823,8.3000002z M8,2.2727273c-1.2368627,0-2.2045455,0.9852767-2.2045455,2.2561982
	l0,0v1.0983472h4.4090915V4.5289254c0-1.1717584-0.8247442-2.1066179-1.9150791-2.2392356l0,0l-0.1436787-0.012702L8,2.2727273z"/>
</svg>
