<?xml version="1.0" encoding="utf-8"?>
<!-- Generator: Adobe Illustrator 24.0.1, SVG Export Plug-In . SVG Version: 6.00 Build 0)  -->
<svg version="1.1" id="Layer_1" xmlns="http://www.w3.org/2000/svg" xmlns:xlink="http://www.w3.org/1999/xlink" x="0px" y="0px"
	 width="16px" height="16px" viewBox="0 0 16 16" enable-background="new 0 0 16 16" xml:space="preserve">
<path id="path-1_1_" fill-rule="evenodd" clip-rule="evenodd" fill="#181C56" d="M4.5723343,8.4741182
	c1.623343-2.2899303,5.1091461-2.2899303,6.7557125,0.0354033l0,0l1.3342276,2.2021046
	c1.4080925,2.3240261-0.9890051,5.0463781-3.5576572,4.0928478l0,0l-0.1156378-0.0429277
	c-0.675828-0.2508774-1.4249854-0.2508774-2.1008077-0.0000019l0,0l-0.1156473,0.0429306
	c-2.568646,0.9535313-4.965745-1.7688198-3.557647-4.0928497l0,0L4.5723343,8.4741182z M10.344243,9.1550722
	C9.1902008,7.527142,6.6869545,7.527142,5.5561376,9.1196699l0,0l-1.3342261,2.2021036
	c-0.8170424,1.3485079,0.5953674,2.9525614,2.1408391,2.3788519l0,0l0.1156497-0.0429316
	c0.9401917-0.3490124,1.9801531-0.3490124,2.920351,0.0000019l0,0l0.1156397,0.0429287
	c1.5454779,0.5737095,2.9578876-1.0303459,2.1408491-2.3788509l0,0L10.344243,9.1550722z M1.7163744,4.3567114
	c0.6882524-0.4699557,1.6253371-0.3481817,2.170562,0.2899451l0,0L4.13485,4.9368114
	c0.588377,0.688632,0.5070977,1.7238498-0.2008851,2.3278809l0,0L3.8116462,7.3574553
	c-0.6882484,0.4699574-1.625334,0.3481827-2.1705589-0.2899442l0,0L1.3931718,6.7773538
	C0.8047983,6.0887179,0.886075,5.0535011,1.5747061,4.4651251l0,0L1.7163744,4.3567114z M11.9902134,4.6466575
	c0.5452261-0.6381278,1.4823103-0.7599018,2.1705627-0.2899461l0,0l0.0202894,0.0146747l0.1213789,0.093739
	c0.6886311,0.588376,0.769908,1.6235929,0.1815357,2.3122277l0,0l-0.2479095,0.2901573
	c-0.5452261,0.6381278-1.4823122,0.7599025-2.1908493,0.27527l0,0l-0.121377-0.0937376
	c-0.6886349-0.5883813-0.7699146-1.6235991-0.1815405-2.3122277l0,0L11.9902134,4.6466575z M3.1835692,5.2476254
	C2.9459934,4.9695683,2.5372365,4.9164505,2.2583554,5.1060567l0,0L2.1703146,5.172574l-0.069922,0.0704355
	c-0.2060294,0.2364774-0.2331803,0.5822949-0.066581,0.8480268l0,0l0.0627294,0.085351l0.2479136,0.2901549
	c0.2375753,0.2780566,0.6463313,0.3311744,0.9252069,0.1415701l0,0l0.0826821-0.0624375
	c0.300179-0.2564774,0.3356082-0.707725,0.0791392-1.0078945l0,0L3.1835692,5.2476254z M13.5463266,5.0671368
	c-0.2864513-0.1378131-0.6389265-0.0697632-0.8527422,0.1804852l0,0l-0.2479095,0.2901573
	c-0.2564697,0.3001704-0.2210407,0.7514181,0.0597916,0.9922457l0,0l0.0817394,0.0634127
	c0.2991648,0.2042789,0.707921,0.1511612,0.9454937-0.1268921l0,0l0.2479076-0.2901554
	c0.2564716-0.3001757,0.2210436-0.7514248-0.0597811-0.9922462l0,0l-0.0907707-0.0689287L13.5463266,5.0671368z
	 M5.3908424,1.0288976c0.8230572-0.1563935,1.6364307,0.3357258,1.8767848,1.144188l0,0l0.3355389,1.1286309
	c0.2581158,0.8682048-0.2364593,1.7812712-1.1271915,2.04547l0,0L6.3359027,5.3806324
	c-0.8230553,0.1563864-1.6364264-0.335731-1.8767819-1.1441903l0,0L4.12359,3.1078131
	C3.8654649,2.2396126,4.3600402,1.3265432,5.2282462,1.0684274l0,0L5.3908424,1.0288976z M8.6095352,2.1730855
	c0.2403545-0.808462,1.0537281-1.3005813,1.8767853-1.1441878l0,0l0.1625957,0.0395298
	c0.868206,0.2581158,1.3627815,1.1711851,1.1046581,2.0393801l0,0l-0.3355398,1.128639
	c-0.2403536,0.808455-1.0537252,1.3005724-1.899725,1.1392202l0,0L9.3786545,5.3411031
	C8.5104504,5.0829878,8.0158749,4.1699214,8.2739916,3.3017147l0,0L8.6095352,2.1730855z M5.6872702,1.9220959L5.5864887,1.9328115
	l-0.094604,0.0223986c-0.3784466,0.1125115-0.5940294,0.5105137-0.481513,0.8889624l0,0l0.3355322,1.128633
	C5.450635,4.325079,5.8054171,4.5397339,6.140264,4.476717l0,0l0.0945997-0.0223966
	c0.3784475-0.1125116,0.5940318-0.5105162,0.4815197-0.8889654l0,0L6.3808446,2.4367242
	C6.276113,2.0844467,5.9213333,1.8697922,5.5864887,1.9328115L5.6872702,1.9220959z M10.2163,1.9261349
	C9.8933907,1.9099578,9.5915289,2.116472,9.4963179,2.4367261l0,0l-0.3355446,1.128629
	c-0.1125126,0.3784492,0.1030722,0.7764537,0.458992,0.8828819l0,0l0.094183,0.0235143
	c0.3577919,0.0679827,0.712574-0.1466722,0.8173046-0.4989438l0,0l0.3355408-1.1286428
	c0.1125135-0.3784409-0.1030693-0.776443-0.458992-0.882872l0,0l-0.1017838-0.0248671L10.2163,1.9261349z"/>
</svg>
