<?xml version="1.0" encoding="utf-8"?>
<!-- Generator: Adobe Illustrator 24.2.3, SVG Export Plug-In . SVG Version: 6.00 Build 0)  -->
<svg version="1.1" id="Layer_1" xmlns="http://www.w3.org/2000/svg" xmlns:xlink="http://www.w3.org/1999/xlink" x="0px" y="0px"
	 width="10px" height="14px" viewBox="0 0 10 14" enable-background="new 0 0 10 14" xml:space="preserve">
<g id="_x30_5.-Icons">
	<g id="_x30_3---Iconography" transform="translate(-527.000000, -279.000000)">
		<g id="Group" transform="translate(524.000000, 278.000000)">
			<g id="Icon-Fill">
				<path id="path-1_1_" fill-rule="evenodd" clip-rule="evenodd" fill="#181C56" d="M12.3202181,8.0587273L9.5612307,5.4287896
					c-0.1158943-0.1144977-0.2708139-0.177588-0.4328289-0.177588H6.3682313c-0.162015,0-0.3181171,0.0630903-0.4328289,0.177588
					L3.1764147,8.0587273C2.9363484,8.3017426,2.9422615,8.6896315,3.1882408,8.924469
					c0.2412488,0.2325001,0.6279564,0.2313309,0.8680227-0.0035057l1.7750711-1.6870856v1.8716836h3.8339639V7.2338777
					l1.7750711,1.6870856c0.2412491,0.2406788,0.6338701,0.241847,0.8763008,0.0035057
					c0.2412491-0.2360058,0.2447968-0.6203899,0.0082788-0.8610687L12.3202181,8.0587273z M5.9862542,13.1865797
					c-0.0614948-0.0607538-0.0614948-0.1588945,0-0.2184792l1.0111165-1.0012693l-1.4865189-1.38799l-1.1885052,1.1344595
					c-0.4044466,0.3995733-0.4044466,1.0491714,0,1.4487438l0.0130086,0.009347v0.0011683l1.6792812,1.6578779
					c0.2246923,0.2243214,0.5912957,0.2266579,0.8171711,0.0035048c0.2282405-0.2208166,0.2306056-0.583003,0.0047302-0.8073244
					l-0.0035477-0.0035048L6.8318076,14.021945L5.9862542,13.1865797z M9.9857817,10.5788412l-1.4877014,1.38799
					l1.0122986,1.0001001c0.0614948,0.0595856,0.0614948,0.1577263,0,0.2184801l-0.846736,0.8365335
					c-0.2258749,0.2219849-0.2270575,0.5841703-0.0011826,0.8073235c0.2258749,0.2243223,0.5912962,0.2254906,0.8183537,0.0011692
					h0.0011826l1.6804638-1.6590462l0.0118265-0.009347c0.4044466-0.4007406,0.4044466-1.0491705,0-1.4499121L9.9857817,10.5788412z
					 M8.3987427,4.6775455C9.3944855,4.3223696,9.9112778,3.23698,9.5517702,2.2520678
					c-0.3595085-0.983744-1.4581366-1.4943094-2.4538794-1.1391335C6.1009655,1.466942,5.5853553,2.5523317,5.9424982,3.5372438
					C6.3020062,4.5221562,7.4018173,5.0327215,8.3987427,4.6775455L8.3987427,4.6775455z"/>
			</g>
		</g>
	</g>
</g>
</svg>
