<?xml version="1.0" encoding="utf-8"?>
<!-- Generator: Adobe Illustrator 24.0.1, SVG Export Plug-In . SVG Version: 6.00 Build 0)  -->
<svg xmlns="http://www.w3.org/2000/svg" width="16" height="16" viewBox="0 0 16 16" fill="none">
	<path fill-rule="evenodd" clip-rule="evenodd"
		d="M9.87012 5.53906C10.0959 5.57684 10.2847 5.74192 10.3486 5.96777L11.0977 8.61523L11.2617 9.19238L11.2539 9.19434L11.4697 9.97168C11.4808 9.97153 11.4918 9.9707 11.5029 9.9707C12.8822 9.97092 14.0008 11.0894 14.001 12.4688C14.0008 13.848 12.8822 14.9666 11.5029 14.9668C10.1236 14.9666 9.0051 13.8481 9.00488 12.4688C9.00503 11.522 9.53206 10.698 10.3086 10.2744L10.1611 9.74316L8.44922 11.6787C8.32506 11.8188 8.1418 11.8937 7.95508 11.8799C7.76861 11.8659 7.59915 11.7651 7.49707 11.6084L6.54297 10.1436L6.2207 10.6963C6.69731 11.1512 6.99606 11.7912 6.99609 12.502C6.99587 13.8811 5.87714 14.9995 4.49805 15C3.11856 15 2.00022 13.8814 2 12.502C2.00007 11.1224 3.11847 10.0039 4.49805 10.0039C4.73489 10.004 4.96355 10.0389 5.18066 10.1006L5.81152 9.01953L5.31348 8.25391H4.79492C4.46377 8.25365 4.19531 7.98551 4.19531 7.6543C4.1954 7.32316 4.46382 7.05495 4.79492 7.05469H6.69336L6.81348 7.06641C7.08703 7.12219 7.2929 7.36428 7.29297 7.6543C7.29297 7.96933 7.04989 8.22432 6.74121 8.24902L6.88867 8.47559L9.67871 8.00879L9.31738 6.73047H7.99805V5.53125H9.77051L9.87012 5.53906ZM4.49805 11.2031C3.78121 11.2031 3.19929 11.7851 3.19922 12.502C3.19944 13.2186 3.7813 13.7998 4.49805 13.7998C5.2144 13.7993 5.79568 13.2184 5.7959 12.502C5.79587 12.239 5.71651 11.9946 5.58203 11.79L5.06738 12.6719L4.99609 12.7705C4.80985 12.9783 4.49739 13.034 4.24707 12.8877C3.9612 12.7205 3.8652 12.3534 4.03223 12.0674L4.53516 11.2051C4.52282 11.2047 4.51047 11.2031 4.49805 11.2031ZM12.0674 12.123L12.0879 12.2432C12.1072 12.5215 11.9296 12.7846 11.6504 12.8623C11.371 12.9398 11.082 12.8062 10.9551 12.5576L10.9111 12.4443L10.6465 11.4932C10.3756 11.7312 10.2042 12.0801 10.2041 12.4688C10.2043 13.1854 10.7863 13.7665 11.5029 13.7666C12.2195 13.7664 12.8006 13.1853 12.8008 12.4688C12.8006 11.8592 12.3801 11.3485 11.8135 11.209L12.0674 12.123ZM7.60254 9.57324L8.07129 10.293L8.90137 9.35547L7.60254 9.57324Z"
		fill="#181C56" />
	<path fill-rule="evenodd" clip-rule="evenodd"
		d="M8.67188 1C9.53827 1 10.2402 1.70196 10.2402 2.56836C10.2402 3.43476 9.53827 4.13672 8.67188 4.13672H7.33398V5.28711H6.13477V1H8.67188ZM7.33398 2.9375H8.67188C8.87553 2.9375 9.04102 2.77201 9.04102 2.56836C9.04102 2.3647 8.87553 2.19922 8.67188 2.19922H7.33398V2.9375Z"
		fill="#181C56" />
</svg>
