<?xml version="1.0" encoding="utf-8"?>
<!-- Generator: Adobe Illustrator 24.0.1, SVG Export Plug-In . SVG Version: 6.00 Build 0)  -->
<svg xmlns="http://www.w3.org/2000/svg" width="16" height="16" viewBox="0 0 16 16" fill="none">
	<path fill-rule="evenodd" clip-rule="evenodd"
		d="M9.87012 5.00781C10.0959 5.04559 10.2847 5.21067 10.3486 5.43652L11.0977 8.08398L11.2617 8.66113L11.2539 8.66309L11.4697 9.44043C11.4808 9.44028 11.4918 9.43945 11.5029 9.43945C12.8822 9.43967 14.0008 10.5582 14.001 11.9375C14.0008 13.3168 12.8822 14.4353 11.5029 14.4355C10.1236 14.4354 9.0051 13.3168 9.00488 11.9375C9.00503 10.9907 9.53206 10.1667 10.3086 9.74316L10.1611 9.21191L8.44922 11.1475C8.32506 11.2876 8.1418 11.3624 7.95508 11.3486C7.76861 11.3346 7.59915 11.2338 7.49707 11.0771L6.54297 9.6123L6.2207 10.165C6.69731 10.6199 6.99606 11.26 6.99609 11.9707C6.99587 13.3499 5.87714 14.4683 4.49805 14.4688C3.11856 14.4688 2.00022 13.3501 2 11.9707C2.00007 10.5911 3.11847 9.47266 4.49805 9.47266C4.73489 9.47274 4.96355 9.50767 5.18066 9.56934L5.81152 8.48828L5.31348 7.72266H4.79492C4.46377 7.7224 4.19531 7.45426 4.19531 7.12305C4.1954 6.79191 4.46382 6.5237 4.79492 6.52344H6.69336L6.81348 6.53516C7.08703 6.59094 7.2929 6.83303 7.29297 7.12305C7.29297 7.43808 7.04989 7.69307 6.74121 7.71777L6.88867 7.94434L9.67871 7.47754L9.31738 6.19922H7.99805V5H9.77051L9.87012 5.00781ZM4.49805 10.6719C3.78121 10.6719 3.19929 11.2539 3.19922 11.9707C3.19944 12.6874 3.7813 13.2686 4.49805 13.2686C5.2144 13.2681 5.79568 12.6871 5.7959 11.9707C5.79587 11.7077 5.71651 11.4634 5.58203 11.2588L5.06738 12.1406L4.99609 12.2393C4.80985 12.447 4.49739 12.5027 4.24707 12.3564C3.9612 12.1892 3.8652 11.8221 4.03223 11.5361L4.53516 10.6738C4.52282 10.6735 4.51047 10.6719 4.49805 10.6719ZM12.0674 11.5918L12.0879 11.7119C12.1072 11.9903 11.9296 12.2534 11.6504 12.3311C11.371 12.4086 11.082 12.275 10.9551 12.0264L10.9111 11.9131L10.6465 10.9619C10.3756 11.1999 10.2042 11.5489 10.2041 11.9375C10.2043 12.6541 10.7863 13.2352 11.5029 13.2354C12.2195 13.2351 12.8006 12.6541 12.8008 11.9375C12.8006 11.328 12.3801 10.8172 11.8135 10.6777L12.0674 11.5918ZM7.60254 9.04199L8.07129 9.76172L8.90137 8.82422L7.60254 9.04199Z"
		fill="#181C56" />
	<path d="M14.8145 5.73926L14.1855 6.76074L8 2.9541L1.81445 6.76074L1.18555 5.73926L8 1.5459L14.8145 5.73926Z"
		fill="#181C56" />
</svg>
