<?xml version="1.0" encoding="utf-8"?>
<!-- Generator: Adobe Illustrator 24.0.1, SVG Export Plug-In . SVG Version: 6.00 Build 0)  -->
<svg version="1.1" id="Layer_1" xmlns="http://www.w3.org/2000/svg" xmlns:xlink="http://www.w3.org/1999/xlink" x="0px" y="0px"
	 width="16px" height="16px" viewBox="0 0 16 16" enable-background="new 0 0 16 16" xml:space="preserve">
<path id="Icon-Fill" fill-rule="evenodd" clip-rule="evenodd" fill="#181C56" d="M7.9925351,4.6363635
	c1.8289065,0,3.311295,1.482389,3.311295,3.311295c0,0.9164877-0.3722477,1.7459593-0.9738102,2.3454828
	c1.8015528,0.7250986,3.0906572,2.4559422,3.1734343,4.4976883L13.5076866,15h-1.333333
	c0-2.0016222-1.5718136-3.6359863-3.5485277-3.7361794l-0.1925192-0.0048676H7.551764
	c-2.0016217,0-3.6359861,1.5718136-3.7361794,3.5485268L3.8107171,15H2.4773839c0-2.1320772,1.3148165-3.9569769,3.1778805-4.708128
	C5.0534883,9.6936178,4.6812406,8.8641462,4.6812406,7.9476585C4.6812406,6.1187525,6.1636291,4.6363635,7.9925351,4.6363635z
	 M7.9925351,5.969697c-1.0925264,0-1.9779611,0.8854351-1.9779611,1.9779615s0.8854346,1.9779615,1.9779611,1.9779615
	s1.977962-0.8854351,1.977962-1.9779615S9.085062,5.969697,7.9925351,5.969697z M8.1605415,1.021512L8.268404,1.0597557
	l6.666667,3.030303l-0.5517378,1.2138219L7.9925351,2.3990476L1.6017373,5.3038807L1.05,4.0900588l6.666667-3.030303
	C7.8568935,0.9960163,8.0136881,0.9832684,8.1605415,1.021512z"/>
</svg>
