<?xml version="1.0" encoding="utf-8"?>
<!-- Generator: Adobe Illustrator 24.0.1, SVG Export Plug-In . SVG Version: 6.00 Build 0)  -->
<svg version="1.1" id="Layer_1" xmlns="http://www.w3.org/2000/svg" xmlns:xlink="http://www.w3.org/1999/xlink" x="0px" y="0px"
	 width="16px" height="16px" viewBox="0 0 16 16" enable-background="new 0 0 16 16" xml:space="preserve">
<path id="Icon-Fill" fill-rule="evenodd" clip-rule="evenodd" fill="#181C56" d="M12.5310516,13.6451616V15H1.28v-1.3548384
	H12.5310516z M14.0527906,4.8485274c0.3429518,0,0.626379,0.2548485,0.671236,0.5854974l0.0061836,0.0919218v2.1991587
	c0,0.9325638-0.7178059,1.6969976-1.6312246,1.7711096l-0.1457739,0.0058889l-0.924942,0.0000906
	c-0.8535862,1.874856-2.7085609,3.2031746-4.8995094,3.2941608l0,0l-0.2232342,0.0044861
	c-3.1071329,0-5.6255264-2.5183935-5.6255264-5.625526l0,0V5.5259466c0-0.3741283,0.303291-0.6774192,0.6774194-0.6774192l0,0
	H14.0527906z M11.1762133,6.2025805H2.6348388v0.9727349c0,2.2894969,1.8010056,4.1578412,4.0508995,4.2658963l0,0
	l0.2057347,0.0049372l0.1950936-0.0039015c2.281301-0.0948496,4.0896468-1.9753828,4.0896468-4.266932l0,0V6.2025805z
	 M13.3748388,6.2025805l-0.8438387,0.0004196l0.0000515,0.9723153c0,0.3315611-0.0287361,0.6565871-0.0838976,0.9726806
	l0.5060577-0.0007305c0.2074566,0,0.3796597-0.1491528,0.4153662-0.3462143l0.006794-0.0759459L13.3748388,6.2025805z
	 M4.8339972,1.5497897v2.4544179H3.4791584V1.5497897H4.8339972z M10.331893,1.5497897v2.4544179H8.9770546V1.5497897H10.331893z
	 M7.5829453,1v2.4544179H6.2281065V1H7.5829453z"/>
</svg>
