<?xml version="1.0" encoding="utf-8"?>
<!-- Generator: Adobe Illustrator 25.2.0, SVG Export Plug-In . SVG Version: 6.00 Build 0)  -->
<svg version="1.1" id="Layer_1" xmlns="http://www.w3.org/2000/svg" xmlns:xlink="http://www.w3.org/1999/xlink" x="0px" y="0px"
	 viewBox="0 0 16 16" enable-background="new 0 0 16 16" xml:space="preserve">
<path fill-rule="evenodd" clip-rule="evenodd" fill="#181C56" d="M14.8969116,7.7556152
	c-0.0418701-0.3084717-0.3062744-0.5462036-0.6261597-0.5462036h-0.0891113V4.2478027
	c0-0.3779297-0.3066406-0.6850586-0.6845703-0.6850586h-3.3740234c-0.1405029,0-0.2664185,0.0446777-0.382019,0.1070557
	C9.5997314,3.6044312,9.4459839,3.5627441,9.2802734,3.5627441H6.6225586c-0.1659546,0-0.3199463,0.0418701-0.4614868,0.1074219
	C6.0452271,3.6075439,5.9190063,3.5627441,5.7783203,3.5627441H2.4057617c-0.3774414,0-0.6850586,0.3071289-0.6850586,0.6850586
	L1.7203369,7.2094116H1.631958c-0.3199463,0-0.5843506,0.2377319-0.6261597,0.5462036L1,7.8413696v4.5958862h1.263916
	l0.0007935-1.666687h1.7493896h2.7578125h6.8660889l0.0007935,1.666687h1.263855V7.8413696L14.8969116,7.7556152z
	 M13.0957031,4.6496582v2.5596924l-2.7060547-0.0002441V4.6496582H13.0957031z M9.3037109,4.6730957v2.5359497L6.6029053,7.2088623
	l0.0196533-2.5592041L9.3037109,4.6730957z M2.8076172,4.6496582H5.512207v2.559082l-1.2416992-0.000061
	c-0.000061,0.0001221-0.000061,0.0004272-0.0001221,0.0005493L2.8071899,7.2093506L2.8076172,4.6496582z M13.6380005,9.5065308
	H6.6897583H2.2647095L2.263916,8.4732056h11.3748779L13.6380005,9.5065308z"/>
</svg>
