<?xml version="1.0" encoding="utf-8"?>
<!-- Generator: Adobe Illustrator 24.0.1, SVG Export Plug-In . SVG Version: 6.00 Build 0)  -->
<svg version="1.1" id="Layer_1" xmlns="http://www.w3.org/2000/svg" xmlns:xlink="http://www.w3.org/1999/xlink" x="0px" y="0px"
	 width="16px" height="16px" viewBox="0 0 16 16" enable-background="new 0 0 16 16" xml:space="preserve">
<path id="path-1_1_" fill-rule="evenodd" clip-rule="evenodd" fill="#181C56" d="M3.2133334,1L3.2130001,4.0300002h1.0909998
	L4.3042426,1h1.333333L5.6370001,4.0300002h1.0910001L6.7284846,1h1.3333335v5.5151515
	c0,0.9907103-0.7661929,1.8019357-1.7385392,1.8736358L6.1830301,8.393939l-0.54603-0.0009394L5.6375756,15h-1.333333
	L4.3039999,8.3929996L3.7587879,8.393939c-0.99071,0-1.8019353-0.7661924-1.8736361-1.7385387L1.88,6.5151515V1H3.2133334z
	 M14.1224241,15h-1.333333l-0.0000916-4.1820002L9.8193941,10.818182c-0.3347178,0-0.6118221-0.2466755-0.6594381-0.5681515
	L9.1527271,10.151515V5.3030305C9.1527271,2.9263556,11.0790825,1,13.4557571,1c0.3347187,0,0.6118221,0.246675,0.6594391,0.5681516
	l0.0072279,0.098515V15z M12.7885714,2.407619L12.640274,2.4466686c-1.1871748,0.3382154-2.0707521,1.3964584-2.1486244,2.6726241
	l-0.0055895,0.1837378L10.485714,9.4847622h2.3028574V2.407619z M6.7280002,5.3629999H3.2130001l0.0003333,1.1521516
	c0,0.2713566,0.1975973,0.4960895,0.4569156,0.5383224L3.7587879,7.060606h2.4242423
	c0.2713566,0,0.4960895-0.1975975,0.5383224-0.4569154l0.0071321-0.0885391L6.7280002,5.3629999z"/>
</svg>
