<svg width="16" height="16" viewBox="0 0 16 16" fill="none" xmlns="http://www.w3.org/2000/svg">
<path fill-rule="evenodd" clip-rule="evenodd" d="M7.6034 6.2819C7.6034 4.9329 6.5114 3.8399 5.1624 3.8399C3.8124 3.8399 2.7204 4.9329 2.7204 6.2819C2.7204 7.0399 3.0644 7.7169 3.6064 8.1639C2.0924 8.6699 1.0004 10.1009 1.0004 11.7849V12.1639H9.3234V11.7849L9.3214 11.6569C9.2674 10.0269 8.1934 8.6569 6.7184 8.1649C7.2594 7.7169 7.6034 7.0399 7.6034 6.2819ZM12.1634 11.6571C12.1094 10.0271 11.0344 8.6571 9.5594 8.1651C10.1004 7.7171 10.4454 7.0401 10.4454 6.2821C10.4454 4.9331 9.3514 3.8401 8.0034 3.8401C7.7034 3.8401 7.4194 3.9011 7.1524 4.0011C7.7914 4.5581 8.2044 5.3691 8.2044 6.2821C8.2044 6.8851 8.0274 7.4631 7.7044 7.9531C9.0094 8.7051 9.8704 10.0971 9.9224 11.6471L9.9244 11.7851V12.1641H12.1654V11.7851L12.1634 11.6571ZM15.0013 11.6571C14.9473 10.0271 13.8733 8.65711 12.3973 8.16511C12.9383 7.71711 13.2833 7.04011 13.2833 6.28211C13.2833 4.93311 12.1903 3.84011 10.8413 3.84011C10.5413 3.84011 10.2573 3.90111 9.9913 4.00111C10.6303 4.55811 11.0423 5.36911 11.0423 6.28211C11.0423 6.88511 10.8653 7.46311 10.5423 7.95311C11.8483 8.70511 12.7083 10.0971 12.7603 11.6471L12.7623 11.7851V12.1641H15.0033V11.7851L15.0013 11.6571Z" fill="#181C56"/>
</svg>
