<?xml version="1.0" encoding="utf-8"?>
<!-- Generator: Adobe Illustrator 24.2.3, SVG Export Plug-In . SVG Version: 6.00 Build 0)  -->
<svg version="1.1" id="Layer_1" xmlns="http://www.w3.org/2000/svg" xmlns:xlink="http://www.w3.org/1999/xlink" x="0px" y="0px"
	 width="10px" height="14px" viewBox="0 0 10 14" enable-background="new 0 0 10 14" xml:space="preserve">
<g id="_x30_5.-Icons">
	<g id="_x30_3---Iconography" transform="translate(-1283.000000, -504.000000)">
		<g id="Icon-Fill" transform="translate(1280.000000, 503.000000)">
			<path fill-rule="evenodd" clip-rule="evenodd" fill="#181C56" d="M9.5172415,6.4502611
				c0.2444019,0,0.4463844,0.1866131,0.4783516,0.4287314L10,6.9463019v1.5816979l2.4814816,0.0009089
				c0.2545509,0,0.4662609,0.1642742,0.5101643,0.3809061L13,8.9932871v5.3071852
				c0,0.2564697-0.2321482,0.4643793-0.5185184,0.4643793l0,0H3.5185184C3.2321486,14.7648516,3,14.556942,3,14.3004723l0,0
				V8.9932871c0-0.2564688,0.2321486-0.4643784,0.5185184-0.4643784l0,0L6,8.5279999V6.9463019
				c0-0.2511258,0.1816163-0.4586663,0.4172511-0.4915123l0.0655074-0.0045285H9.5172415z M5,9.5679998L4,9.5682325v4.1572952
				l1-0.0005274V9.5679998z M10,9.5679998H6v4.1570005h4V9.5679998z M12,9.5682325l-1-0.0002327v4.1570005l1,0.0005274V9.5682325z
				 M9.0337934,7.4423432H6.965517L6.9650002,8.5279999h2.0690002L9.0337934,7.4423432z M5.9319105,1
				c0.7145839,0,1.3369303,0.4029381,1.6714163,1l0,0h4.1243143L12.5,3l-0.7723589,1h-0.6446457l-0.6436319-0.666317L9.7957306,4
				L9.1510849,3.333683L8.507453,4H7.6033268c-0.334486,0.5970621-0.9568324,1-1.6714163,1C4.8645959,5,4,4.1038823,4,3
				C4,1.8950682,4.8645959,1,5.9319105,1z M5.4998722,2.3787496c-0.3315001,0-0.5997224,0.2776756-0.5997224,0.6208594
				s0.2682223,0.6208591,0.5997224,0.6208591S6.0995946,3.3427925,6.0995946,2.999609S5.8313723,2.3787496,5.4998722,2.3787496z"/>
		</g>
	</g>
</g>
</svg>
