<svg width="16" height="16" viewBox="0 0 16 16" fill="none" xmlns="http://www.w3.org/2000/svg">
    <path fill-rule="evenodd" clip-rule="evenodd"
        d="M9.59411 8.16494C11.0701 8.65694 12.1441 10.0269 12.1981 11.6569L12.2011 11.7849V12.1639H11.4441V11.7849C11.4441 10.3089 10.3921 9.09694 9.00311 8.80994C8.98411 8.80593 8.86711 8.78894 8.77611 8.78094C8.41311 8.28694 7.78511 8.00194 7.78511 8.00194C7.88511 8.00194 8.00311 7.99794 8.04111 7.99394C8.90811 7.90993 9.72411 7.15794 9.72411 6.28194C9.72411 5.35094 8.96911 4.59594 8.03911 4.59594C7.92711 4.59594 7.80011 4.61594 7.74511 4.63794C7.73609 4.625 7.72703 4.6119 7.71784 4.5986C7.60976 4.44229 7.48302 4.25898 7.18811 4.00094C7.43411 3.89194 7.79611 3.83994 8.03911 3.83994C9.38711 3.83994 10.4801 4.93294 10.4801 6.28194C10.4801 7.03994 10.1351 7.71694 9.59411 8.16494ZM12.3949 8.16494C13.8699 8.65694 14.9449 10.0269 14.9989 11.6569L15.0009 11.7849V12.1639H14.2439V11.7849C14.2439 10.3089 13.1929 9.09694 11.8029 8.80994C11.7849 8.80593 11.6669 8.78894 11.5759 8.78094C11.2139 8.28694 10.5859 8.00194 10.5859 8.00194C10.6849 8.00194 10.8029 7.99794 10.8409 7.99394C11.7089 7.90993 12.5239 7.15794 12.5239 6.28194C12.5239 5.35094 11.7699 4.59594 10.8389 4.59594C10.7279 4.59594 10.6009 4.61594 10.5459 4.63794C10.536 4.62381 10.526 4.60948 10.5159 4.59492C10.4076 4.43941 10.2805 4.25696 9.98791 4.00094C10.2339 3.89194 10.5969 3.83994 10.8389 3.83994C12.1869 3.83994 13.2809 4.93294 13.2809 6.28194C13.2809 7.03994 12.9359 7.71694 12.3949 8.16494Z"
        fill="#181C56" />
    <path fill-rule="evenodd" clip-rule="evenodd"
        d="M5.16188 4.59735C4.23088 4.59735 3.47588 5.35135 3.47588 6.28335C3.47588 7.21335 4.23088 7.96835 5.16188 7.96835C6.09288 7.96835 6.84788 7.21335 6.84788 6.28335C6.84788 5.35135 6.09288 4.59735 5.16188 4.59735ZM5.16188 3.83994C6.51088 3.83994 7.60388 4.93294 7.60388 6.28294C7.60388 7.03994 7.25988 7.71694 6.71788 8.16494C8.19288 8.65794 9.26788 10.0279 9.32188 11.6579L9.32388 11.7849V12.1639H8.56688V11.7849C8.56688 10.1339 7.25988 8.78794 5.62388 8.72694L5.50588 8.72394H4.81788C3.16688 8.72394 1.82088 10.0329 1.75888 11.6679L1.75688 11.7849V12.1639H0.999878V11.7849C0.999878 10.1009 2.09188 8.66994 3.60688 8.16394C3.06488 7.71694 2.71988 7.03994 2.71988 6.28294C2.71988 4.93294 3.81288 3.83994 5.16188 3.83994Z"
        fill="#181C56" />
</svg>