<?xml version="1.0" encoding="utf-8"?>
<!-- Generator: Adobe Illustrator 24.0.1, SVG Export Plug-In . SVG Version: 6.00 Build 0)  -->
<svg version="1.1" id="Layer_1" xmlns="http://www.w3.org/2000/svg" xmlns:xlink="http://www.w3.org/1999/xlink" x="0px" y="0px"
	 width="16px" height="16px" viewBox="0 0 16 16" enable-background="new 0 0 16 16" xml:space="preserve">
<path id="Icon-Fill" fill-rule="evenodd" clip-rule="evenodd" fill="#181C56" d="M8.5957003,7.4141002H7.2256999v-2.02h1.3580003
	c0.8210001,0,1.2189999,0.369,1.2200022,0.9949999C9.8046999,6.9271002,9.4806995,7.4190998,8.5957003,7.4141002 M7.9994998,1
	c3.8610005,0,7.0000005,3.1409998,7.0000005,7s-3.1389999,7-7.0000005,7c-3.8599997,0-7-3.1409998-7-7S4.1395001,1,7.9994998,1z
	 M7.9994998,2c-3.3079996,0-6,2.691-6,6s2.6920002,6,6,6c3.3090005,0,6.0000005-2.691,6.0000005-6S11.3085003,2,7.9994998,2z
	 M8.5516996,4.0001001c1.6900005,0,2.7880001,0.789,2.7880001,2.348c0,1.599-1.007,2.5189996-2.7989998,2.5189996l0,0H7.2256999
	v3.1330004H5.6247001v-8H8.5516996z"/>
</svg>
