<?xml version="1.0" encoding="utf-8"?>
<!-- Generator: Adobe Illustrator 24.0.1, SVG Export Plug-In . SVG Version: 6.00 Build 0)  -->
<svg version="1.1" id="Layer_1" xmlns="http://www.w3.org/2000/svg" xmlns:xlink="http://www.w3.org/1999/xlink" x="0px" y="0px"
	 width="16px" height="16px" viewBox="0 0 16 16" enable-background="new 0 0 16 16" xml:space="preserve">
<path id="Combined-Shape" fill-rule="evenodd" clip-rule="evenodd" fill="#181C56" d="M7.9994998,1
	c3.8610005,0,7.0000005,3.1409998,7.0000005,7s-3.1389999,7-7.0000005,7c-3.8599997,0-7-3.1409998-7-7S4.1395001,1,7.9994998,1z
	 M7.9994998,2c-3.3079996,0-6,2.691-6,6s2.6920002,6,6,6c3.3090005,0,6.0000005-2.691,6.0000005-6S11.3085003,2,7.9994998,2z
	 M11.0042,7.6501999v1.3000002h1.3000002v1H11.0042v1.3000002h-1V9.9502001H8.7041998v-1H10.0042V7.6501999H11.0042z
	 M6.8091998,4.7498999c1.3730006,0,2.2649999,0.6410003,2.2649999,1.908c0,1.2990003-0.8179998,2.0469999-2.2739997,2.0469999l0,0
	H5.7322001v2.5450001H4.4312v-6.5H6.8091998z M6.8351998,5.8829002H5.7322001V7.5239h1.1129999
	c0.7189999,0.0040002,0.9819999-0.3959999,0.9810028-0.8330002C7.8252001,6.1829,7.5022001,5.8829002,6.8351998,5.8829002
	L6.8351998,5.8829002z"/>
</svg>
