<?xml version="1.0" encoding="utf-8"?>
<!-- Generator: Adobe Illustrator 24.0.1, SVG Export Plug-In . SVG Version: 6.00 Build 0)  -->
<svg version="1.1" id="Layer_1" xmlns="http://www.w3.org/2000/svg" xmlns:xlink="http://www.w3.org/1999/xlink" x="0px" y="0px"
	 width="16px" height="16px" viewBox="0 0 16 16" enable-background="new 0 0 16 16" xml:space="preserve">
<path id="path-1_1_" fill-rule="evenodd" clip-rule="evenodd" fill="#181C56" d="M8,1
	c3.6454554,0,6.6401663,2.7868218,6.9698687,6.3462024c0.0011044,0.0095768,0.0019903,0.0192943,0.0026541,0.029067
	C14.9907026,7.5810428,15,7.7894359,15,8c0,3.8659163-3.1340837,7-7,7s-7-3.1340837-7-7S4.1340833,1,8,1z M10.1890907,5.4654546
	c-1.4110832,1.0989056-2.7028127,1.385222-4.8452072,1.4060173L5.0595374,6.8727231
	c-1.6441581-0.0009418-2.2419498,0.122046-2.7735767,0.7519612C2.2767873,7.7492299,2.2727273,7.8741412,2.2727273,8
	c0,3.1630087,2.5642641,5.727273,5.727273,5.727273S13.727273,11.1630087,13.727273,8l-0.000145-0.0306911
	c-0.8147154-0.1869287-1.8181086-0.6824183-2.8066635-1.6626782c-0.24858-0.2464943-0.4860353-0.5171862-0.7111263-0.812891
	L10.1890907,5.4654546z M5.3966942,8.5785122c0.4790082,0,0.8677688,0.3887606,0.8677688,0.8677692
	c0,0.4790077-0.3887606,0.8677683-0.8677688,0.8677683S4.5289254,9.9252892,4.5289254,9.4462814
	C4.5289254,8.9672728,4.917686,8.5785122,5.3966942,8.5785122z M10.6033058,8.5785122
	c0.4790077,0,0.8677683,0.3887606,0.8677683,0.8677692c0,0.4790077-0.3887606,0.8677683-0.8677683,0.8677683
	c-0.4790087,0-0.8677683-0.3887606-0.8677683-0.8677683C9.7355375,8.9672728,10.1242971,8.5785122,10.6033058,8.5785122z
	 M8,2.2727273c-2.3983088,0-4.4523849,1.4742529-5.3054066,3.5659359C3.2370856,5.6658988,3.9078169,5.608449,4.8191643,5.6008825
	L5.060266,5.5999956c2.3170795,0.001327,3.4126725-0.2633958,4.8268247-1.5429435
	c0.2929287-0.2650471,0.7540483-0.2019427,0.9649973,0.1320596c0.2955456,0.4679465,0.6186237,0.8707762,0.9645319,1.2137814
	c0.5547705,0.5501156,1.1416245,0.9238505,1.7259493,1.1554523C12.9036894,4.0920553,10.6642475,2.2727273,8,2.2727273z"/>
</svg>
