<?xml version="1.0" encoding="utf-8"?>
<!-- Generator: Adobe Illustrator 24.2.1, SVG Export Plug-In . SVG Version: 6.00 Build 0)  -->
<svg version="1.1" id="Layer_1" xmlns="http://www.w3.org/2000/svg" xmlns:xlink="http://www.w3.org/1999/xlink" x="0px" y="0px"
	 width="14px" height="14px" viewBox="0 0 14 14" enable-background="new 0 0 14 14" xml:space="preserve">
<g id="_x30_5.-Icons">
	<g id="_x30_3---Iconography" transform="translate(-1245.000000, -233.000000)">
		<g id="Icon_x2F_Facilities_x2F_Power" transform="translate(1244.000000, 232.000000)">
			<path id="Icon-Fill" fill-rule="evenodd" clip-rule="evenodd" fill="#181C56" d="M1.1667154,8.9868174L1.1079329,9.0613213
				c-0.2777482,0.4090586,0.0097053,0.9897346,0.5295691,0.9897346l5.6289926-0.0005054l-0.6032939,4.2228851
				c-0.0886588,0.6206112,0.6789355,0.9818439,1.1006417,0.5179672l7.0694418-7.7763863l0.0587826-0.0745034
				c0.2777481-0.409059-0.0097055-0.9897342-0.5295687-0.9897342L8.7325964,5.9503751l0.6042032-4.2219763
				c0.0886583-0.6206106-0.678936-0.9818441-1.1006422-0.5179672L1.1667154,8.9868174z M7.7836752,3.5980687L7.3701448,6.4970493
				L7.3636408,6.5846486C7.3616767,6.931077,7.6425943,7.2232785,8,7.2232785l4.9236641-0.0004039L8.215416,12.4028568
				l0.4144392-2.8980722l0.0065041-0.0875988C8.6383238,9.0707579,8.3574057,8.7785559,8,8.7785559L3.0754266,8.7780514
				L7.7836752,3.5980687z"/>
		</g>
	</g>
</g>
</svg>
