<?xml version="1.0" encoding="utf-8"?>
<!-- Generator: Adobe Illustrator 24.0.1, SVG Export Plug-In . SVG Version: 6.00 Build 0)  -->
<svg version="1.1" id="Layer_1" xmlns="http://www.w3.org/2000/svg" xmlns:xlink="http://www.w3.org/1999/xlink" x="0px" y="0px"
	 width="16px" height="16px" viewBox="0 0 16 16" enable-background="new 0 0 16 16" xml:space="preserve">
<path id="Icon-Fill" fill-rule="evenodd" clip-rule="evenodd" fill="#181C56" d="M9.6789999,13.6630001l2.3673649,0.0002308V15
	H6.6063819v-1.3367691L8.342,13.6630001v-3.0390005l-0.8130889,0.0006542c-1.3380332,0-2.5549612-0.7550697-3.1531239-1.9393644
	l-0.085021-0.1808233L1.25,1.5345364L2.475244,1l1.8217559,4.1750002l3.3901172,0.0005803v1.3367696l-2.807117-0.00035
	l0.6360102,1.4579301C5.8434067,8.720377,6.5585041,9.2220945,7.3662205,9.2818775l0.1626906,0.0060072h4.5175538
	c0.1443806,0,0.2838516,0.0467091,0.3982935,0.1316299l0.0808239,0.0707235l2.2290154,2.291604l-0.9582338,0.9320621
	l-2.0330553-2.0892506l-2.0843086-0.0006542V13.6630001z"/>
</svg>
