<?xml version="1.0" encoding="utf-8"?>
<svg xmlns="http://www.w3.org/2000/svg" width="14" height="10" viewBox="0 0 14 10" fill="none">
    <path
        d="M1.61719 -0.000976562C2.15299 -0.00064868 2.6054 0.383927 2.69922 0.901367L2.71289 1.00684L3.12109 5.86816H4.53125C5.13842 5.86856 5.63086 6.36051 5.63086 6.96777V9.40234C5.63056 9.73321 5.3621 10.0016 5.03125 10.002H0.599609C0.268424 10.002 0.000300805 9.73346 0 9.40234V0.598633L0.0117188 0.477539C0.0677243 0.204204 0.309713 -0.000976562 0.599609 -0.000976562H1.61719Z"
        fill="#181C56" />
    <path
        d="M13.4004 -0.000976562C13.6903 -0.000976562 13.9323 0.204204 13.9883 0.477539L14 0.598633V9.40234C13.9997 9.73346 13.7316 10.002 13.4004 10.002H8.96875C8.6379 10.0016 8.36944 9.73322 8.36914 9.40234V6.96777C8.36914 6.3605 8.86157 5.86855 9.46875 5.86816H10.8789L11.2871 1.00684L11.3008 0.901367C11.3946 0.383922 11.847 -0.000655975 12.3828 -0.000976562H13.4004Z"
        fill="#181C56" />
    <path d="M8.96875 4.62109H7.59961V9.89062H6.40039V4.62109H5.03027V3.42188H8.96875V4.62109Z" fill="#181C56" />
</svg>
