<?xml version="1.0" encoding="utf-8"?>
<svg xmlns="http://www.w3.org/2000/svg" width="16" height="16" viewBox="0 0 16 16" fill="none">
    <path fill-rule="evenodd" clip-rule="evenodd"
        d="M2.61719 2.99902C3.15299 2.99935 3.6054 3.38393 3.69922 3.90137L3.71289 4.00684L4.12109 8.86816H5.53125C6.13842 8.86856 6.63086 9.36051 6.63086 9.96777V12.4023C6.63056 12.7332 6.3621 13.0016 6.03125 13.002H1.59961C1.26842 13.002 1.0003 12.7335 1 12.4023V3.59863L1.01172 3.47754C1.06772 3.2042 1.30971 2.99902 1.59961 2.99902H2.61719ZM2.19922 11.8018H5.43066V10.0674H3.56934C3.25756 10.0674 2.99699 9.82819 2.9707 9.51758L2.52539 4.19824H2.19922V11.8018Z"
        fill="#181C56" />
    <path fill-rule="evenodd" clip-rule="evenodd"
        d="M14.4004 2.99902C14.6903 2.99902 14.9323 3.2042 14.9883 3.47754L15 3.59863V12.4023C14.9997 12.7335 14.7316 13.002 14.4004 13.002H9.96875C9.6379 13.0016 9.36944 12.7332 9.36914 12.4023V9.96777C9.36914 9.36051 9.86158 8.86856 10.4688 8.86816H11.8789L12.2871 4.00684L12.3008 3.90137C12.3946 3.38393 12.847 2.99935 13.3828 2.99902H14.4004ZM13.4746 4.19824L13.0293 9.51758C13.003 9.82819 12.7424 10.0674 12.4307 10.0674H10.5693V11.8018H13.8008V4.19824H13.4746Z"
        fill="#181C56" />
    <path d="M9.96875 7.62109H8.59961V12.8906H7.40039V7.62109H6.03027V6.42188H9.96875V7.62109Z" fill="#181C56" />
</svg>
