<?xml version="1.0" encoding="utf-8"?>
<!-- Generator: Adobe Illustrator 24.0.1, SVG Export Plug-In . SVG Version: 6.00 Build 0)  -->
<svg version="1.1" id="Layer_1" xmlns="http://www.w3.org/2000/svg" xmlns:xlink="http://www.w3.org/1999/xlink" x="0px" y="0px"
	 width="16px" height="16px" viewBox="0 0 16 16" enable-background="new 0 0 16 16" xml:space="preserve">
<path id="Icon-Fill" fill-rule="evenodd" clip-rule="evenodd" fill="#181C56" d="M2.2638786,5.7888846L2.263,9.7519999
	l12.0077248,0.0008678c0.3199263,0,0.5843258,0.2377386,0.6261702,0.5461884l0.0057688,0.0857506v4.5959225h-1.2638788
	l-0.0007858-1.666729H2.263l0.0008786,1.666729H1V5.7888846H2.2638786z M13.6387854,11.0166636L2.263,11.0159998v1.0340004h11.375
	L13.6387854,11.0166636z M12.195178,1.4555514l0.0067739,0.0863917v1.0742967c0,0.61198,0.4649677,1.1151965,1.0609617,1.1757081
	l0.1208467,0.0061007h1.074297c0.354084,0,0.612957,0.3341594,0.5244789,0.6770115
	c-0.3826752,1.4828649-1.8745871,2.4129248-3.4244137,2.0507512c-1.0221939-0.2380352-1.845602-1.061645-2.0845041-2.0844884
	c-0.3609705-1.54985,0.5689421-3.0413096,2.051321-3.4238591C11.839221,0.9363589,12.1461983,1.147125,12.195178,1.4555514z
	 M11.1184492,2.4104083l-0.0152674,0.0119665c-0.4890652,0.4115787-0.7360058,1.0796807-0.5745544,1.7728815
	c0.1450596,0.6210656,0.6548796,1.1310101,1.2756014,1.2755561c0.6401186,0.1495867,1.2587214-0.0491524,1.6738768-0.4653201
	l0.0994453-0.1084962l0.0108786-0.0157051l-0.204669,0.000082c-1.1488199,0-2.0977745-0.855051-2.2452326-1.9635212
	l-0.0150833-0.1526694l-0.004817-0.1489425L11.1184492,2.4104083z"/>
</svg>
