<svg width="16" height="16" viewBox="0 0 16 16" fill="none" xmlns="http://www.w3.org/2000/svg">
    <path fill-rule="evenodd" clip-rule="evenodd"
        d="M14.9989 11.6569C14.9449 10.0269 13.8699 8.65694 12.3949 8.16494C12.9359 7.71694 13.2809 7.03994 13.2809 6.28194C13.2809 4.93294 12.1869 3.83994 10.8389 3.83994C10.5969 3.83994 10.2339 3.89194 9.98788 4.00094C10.3079 4.28094 10.4299 4.47294 10.5459 4.63794C10.6009 4.61594 10.7279 4.59594 10.8389 4.59594C11.7699 4.59594 12.5239 5.35094 12.5239 6.28194C12.5239 7.15794 11.7089 7.90993 10.8409 7.99394C10.8029 7.99794 10.6849 8.00194 10.5859 8.00194C10.5859 8.00194 11.2139 8.28694 11.5759 8.78094C11.6669 8.78894 11.7849 8.80593 11.8029 8.80994C13.1929 9.09694 14.2439 10.3089 14.2439 11.7849V12.1639H15.0009V11.7849L14.9989 11.6569Z"
        fill="#181C56" />
    <path fill-rule="evenodd" clip-rule="evenodd"
        d="M7.60409 6.28194C7.60409 4.93294 6.51109 3.83994 5.16209 3.83994C3.81309 3.83994 2.72009 4.93294 2.72009 6.28194C2.72009 7.03994 3.06409 7.71694 3.60609 8.16394C2.09209 8.66994 1.00009 10.1009 1.00009 11.7849V12.1639H9.32409V11.7849L9.32209 11.6569C9.26709 10.0269 8.19309 8.65694 6.71809 8.16494C7.25909 7.71694 7.60409 7.03994 7.60409 6.28194ZM9.55908 8.16514C11.0351 8.65714 12.1091 10.0271 12.1631 11.6571L12.1651 11.7851V12.1641H9.92408V11.7851L9.92208 11.6471C9.87108 10.0971 9.01008 8.70514 7.70508 7.95314C8.02708 7.46314 8.20408 6.88514 8.20408 6.28214C8.20408 5.36914 7.79208 4.55814 7.15308 4.00114C7.41908 3.90114 7.70308 3.84014 8.00408 3.84014C9.35208 3.84014 10.4451 4.93314 10.4451 6.28214C10.4451 7.04014 10.1001 7.71714 9.55908 8.16514Z"
        fill="#181C56" />
</svg>