<?xml version="1.0" encoding="utf-8"?>
<!-- Generator: Adobe Illustrator 24.0.1, SVG Export Plug-In . SVG Version: 6.00 Build 0)  -->
<svg version="1.1" id="Layer_1" xmlns="http://www.w3.org/2000/svg" xmlns:xlink="http://www.w3.org/1999/xlink" x="0px" y="0px"
	 width="16px" height="16px" viewBox="0 0 16 16" enable-background="new 0 0 16 16" xml:space="preserve">
<path id="Icon-Fill" fill-rule="evenodd" clip-rule="evenodd" fill="#181C56" d="M11.5396948,12.2213736
	c0.766901,0,1.3893127,0.6224127,1.3893127,1.3893137S12.3065958,15,11.5396948,15s-1.3893127-0.6224117-1.3893127-1.3893127
	S10.7727938,12.2213736,11.5396948,12.2213736z M5.9824429,12.2213736c0.7669005,0,1.3893127,0.6224127,1.3893127,1.3893137
	S6.7493434,15,5.9824429,15s-1.3893132-0.6224117-1.3893132-1.3893127S5.2155418,12.2213736,5.9824429,12.2213736z M8.9787941,1
	c2.7608585,0,5.0119038,2.180517,5.1255274,4.9131737l0.0045004,0.2168531v2.7228184
	c0,1.1578436-0.8983145,2.1068096-2.0360765,2.1871395l-0.1565714,0.0055084H5.6408277
	c-1.1582184,0-2.1075594-0.8986731-2.1879213-2.0361233L3.447396,8.8528452l0.0000784-3.8798966
	c0-0.484489-0.3672764-0.8840647-0.8382907-0.9351883L2.5067606,4.0322347H1.9V2.7779493h0.6067606
	c1.1633453,0,2.1159787,0.9060998,2.1903281,2.0507269l0.0046711,0.1442723L4.7010002,5.9629998h3.6499996l0.0006523-4.3358574
	C8.3516521,1.2807814,8.6324329,1,8.9787941,1z M8.9650002,7.2160001L4.7015357,7.2167754l0.0001459,1.6360698
	c0,0.4459324,0.3124175,0.8199873,0.7303343,0.9150219l0.1065574,0.0178261l0.1022544,0.0055141h6.2753463
	c0.4809933,0,0.8778114-0.362587,0.9320459-0.8290024l0.0063162-0.1093597L12.8540001,7.217l-3.875206,0.0003357
	L8.9650002,7.2160001z M9.6057911,2.3053527v3.6571374h3.2450161l-0.0146446-0.2123075
	C12.6758804,4.1021404,11.4835625,2.7564495,9.913518,2.367728L9.7153425,2.3241694L9.6057911,2.3053527z"/>
</svg>
