<?xml version="1.0" encoding="utf-8"?>
<!-- Generator: Adobe Illustrator 24.0.1, SVG Export Plug-In . SVG Version: 6.00 Build 0)  -->
<svg version="1.1" id="Layer_1" xmlns="http://www.w3.org/2000/svg" xmlns:xlink="http://www.w3.org/1999/xlink" x="0px" y="0px"
	 width="16px" height="16px" viewBox="0 0 16 16" enable-background="new 0 0 16 16" xml:space="preserve">
<title>Icon/Facilities/Toilet</title>
<desc>Created with Sketch.</desc>
<g id="_x30_5.-Icons">
	<g id="_x30_3---Iconography" transform="translate(-1173.000000, -237.000000)">
		<g id="Icon_x2F_Facilities_x2F_Toilet" transform="translate(1172.000000, 232.000000)">
			<path id="Icon-Fill" fill-rule="evenodd" clip-rule="evenodd" fill="#181C56" d="M5.092,15.8319998l1.0960002-3.8720007
				h0.0240002l1.0879998,3.8720007h1.3760004l1.6159992-5.6640005H8.8999996l-0.9359994,3.8480005H7.9400001l-1.0159998-3.8480005
				H5.4920001L4.5,14.0159998H4.4760003l-0.9280002-3.8480005H2.1160002l1.6000001,5.6640005H5.092z M13.6999998,15.9840002
				c0.9680004,0,1.7120008-0.3760004,2.184-0.9280005l-0.8959999-0.9200001
				c-0.2559996,0.3760004-0.7039995,0.6079998-1.2319994,0.6079998c-0.9520006,0-1.632-0.7360001-1.632-1.7439995
				c0-1,0.6719999-1.7520008,1.6479998-1.7520008c0.4879999,0,0.9279995,0.2160006,1.1680002,0.5440006l0.8959999-0.9440002
				c-0.4640007-0.5279999-1.2960005-0.8319998-2.1199999-0.8319998c-1.7200003,0-3.0480003,1.1920004-3.0480003,2.9840002
				C10.6680002,14.7600002,11.9720001,15.9840002,13.6999998,15.9840002z"/>
		</g>
	</g>
</g>
</svg>
