<?xml version="1.0" encoding="utf-8"?>
<!-- Generator: Adobe Illustrator 24.0.1, SVG Export Plug-In . SVG Version: 6.00 Build 0)  -->
<svg version="1.1" id="Layer_1" xmlns="http://www.w3.org/2000/svg" xmlns:xlink="http://www.w3.org/1999/xlink" x="0px" y="0px"
	 width="16px" height="16px" viewBox="0 0 16 16" enable-background="new 0 0 16 16" xml:space="preserve">
<path id="path-1_1_" fill-rule="evenodd" clip-rule="evenodd" fill="#181C56" d="M4,12.5c0.6900001,0,1.25,0.5600004,1.25,1.25
	S4.6900001,15,4,15s-1.25-0.5600004-1.25-1.25S3.3099999,12.5,4,12.5z M12,12.5c0.6899996,0,1.25,0.5600004,1.25,1.25
	S12.6899996,15,12,15s-1.25-0.5600004-1.25-1.25S11.3100004,12.5,12,12.5z M14,1c0.552,0,1,0.4072727,1,0.9090909l0,0v8.181818
	C15,10.5936365,14.552,11,14,11l0,0H2c-0.552,0-1-0.4063635-1-0.909091l0,0v-8.181818C1,1.4072727,1.448,1,2,1l0,0H14z
	 M13.8000002,7.1999998H2.2v2.6000004h11.6000004V7.1999998z M7.4000001,2.2H2.2V6h5.1999998V2.2z M13.8000002,2.2H8.6000004V6
	h5.1999998V2.2z"/>
</svg>
