<?xml version="1.0" encoding="utf-8"?>
<!-- Generator: Adobe Illustrator 24.0.1, SVG Export Plug-In . SVG Version: 6.00 Build 0)  -->
<svg version="1.1" id="Layer_1" xmlns="http://www.w3.org/2000/svg" xmlns:xlink="http://www.w3.org/1999/xlink" x="0px" y="0px"
	 width="16px" height="16px" viewBox="0 0 16 16" enable-background="new 0 0 16 16" xml:space="preserve">
<path id="Icon-Fill" fill-rule="evenodd" clip-rule="evenodd" fill="#181C56" d="M7.5603037,10.5693293V6.1992226H6.696569
	v4.3701067H7.5603037z M1,2.3936651h14V1H1V2.3936651z M3.8,14.4869604C3.8,14.7712002,4.01824,15,4.2892799,15h2.4437599
	c0.27104,0,0.4892802-0.2287998,0.4892802-0.5130396c0-0.5658407,0.4382401-1.0269604,0.9776797-1.0269604
	c0.5034771,0,0.9187984,0.4016867,0.9719372,0.9152937l0.005743,0.1116667C9.17768,14.7712002,9.3959198,15,9.6669598,15h2.4437599
	c0.27104,0,0.4892807-0.2287998,0.4892807-0.5130396V4h-1.2309999L11.368,13.7679996h-1.0735998l-0.0434446-0.121789
	c-0.307518-0.7822762-1.0316257-1.3551989-1.9041977-1.4133396l-0.1467581-0.0048714
	c-0.9375877,0-1.7263532,0.5924749-2.0509558,1.418211l-0.0443239,0.121789H5.0320001V4H3.8V14.4869604z M8.4240379,8.8212862
	h0.8637352V6.1992226H8.4240379V8.8212862z"/>
</svg>
