<?xml version="1.0" encoding="utf-8"?>
<!-- Generator: Adobe Illustrator 24.2.3, SVG Export Plug-In . SVG Version: 6.00 Build 0)  -->
<svg version="1.1" id="Layer_1" xmlns="http://www.w3.org/2000/svg" xmlns:xlink="http://www.w3.org/1999/xlink" x="0px" y="0px"
	 width="14px" height="14px" viewBox="0 0 14 14" enable-background="new 0 0 14 14" xml:space="preserve">
<g id="_x30_5.-Icons">
	<g id="_x30_3---Iconography" transform="translate(-1389.000000, -504.000000)">
		<g id="Group" transform="translate(1388.000000, 503.000000)">
			<g id="Icon-Fill">
				<path id="path-1_1_" fill-rule="evenodd" clip-rule="evenodd" fill="#181C56" d="M1,8
					c0,3.8590002,3.1399999,7.0010004,7.0010004,7.0010004l0,0c3.8599997,0,7-3.1420002,7-7.0010004l0,0
					c0-3.8590002-3.1400003-7-7-7l0,0C4.1399999,1,1,4.1409998,1,8L1,8z M2,8c0-3.309,2.6919999-6,6.0010004-6l0,0
					C11.309,2,14,4.691,14,8l0,0c0,3.309-2.691,6.0010004-5.9989996,6.0010004l0,0C4.6919999,14.0010004,2,11.309,2,8L2,8z
					 M7.0360932,5.1823001c0.138,0,0.25,0.112,0.25,0.25c0,0.1182857-0.0822854,0.2174692-0.1926994,0.2433934L7.0360932,5.6823001
					h-0.046l0.302,0.6849999C7.444665,6.6930141,7.5531545,6.9246879,7.581038,7.2392769l0.0070553,0.1650233v3.7579999
					c0.0080004,0.2279997-0.0779996,0.4589996-0.2419996,0.6370001c-0.1375003,0.1475-0.3166671,0.2443056-0.5131946,0.2771063
					l-0.1198058,0.0118933l-1.4169998,0.0010004c-0.4763079-0.0184612-0.8426981-0.3683786-0.8907418-0.8185129
					l-0.0052581-0.1144876V7.4043002c0-0.3488574,0.0874286-0.5845718,0.225131-0.8859887L4.6980934,6.3613l0.1360002-0.2979999
					c0.04-0.0913334,0.0777779-0.1782222,0.1127405-0.2606668l0.0502596-0.1203332H4.9520936c-0.138,0-0.25-0.112-0.25-0.25
					c0-0.1182857,0.0822854-0.2174697,0.1926994-0.2433939l0.0573006-0.0066061H7.0360932z M6.1150932,5.6823001h-0.25
					l-0.0409999,0.099c-0.0650001,0.1539998-0.1559997,0.3719997-0.257,0.6059999l0,0l-0.145,0.3130002
					c-0.1719999,0.369-0.2210155,0.4849997-0.2210155,0.704l0,0v3.7579999
					C5.2000933,11.2333002,5.2480936,11.2862997,5.3120933,11.2893l0,0l1.3690004-0.0010004
					c0.0559998-0.0009995,0.1079998-0.0619993,0.1070142-0.1119995l0,0L6.7870936,7.4043002
					c0-0.2180004-0.0480003-0.3330002-0.2190003-0.6990004l0,0L6.1150932,5.6823001z M12.2410002,6
					c0.2128744,0,0.4078064,0.1291423,0.4778748,0.3098831c0.0928755,0.2034402,0.0443735,0.4433951-0.1080322,0.5829597l0,0
					l-3.1874952,3.1840348c-0.1013041,0.1266298-0.2598639,0.1972494-0.3487339,0.1850338l0,0l-0.0734243,0.0036011
					c-0.0715075-0.0018196-0.13589-0.0188789-0.1807785-0.0420122C8.6271982,10.141921,8.5,9.9517183,8.5,9.7399998l0,0
					l0.0000429-3.2218814C8.5042362,6.2330108,8.7355909,6.0042129,9.0249996,6l0,0H12.2410002z M9.2989998,6.7989998V9.073
					l2.2729998-2.2729998L9.2989998,6.7989998z M6.5842934,3.8L6.6359816,3.81392
					c0.0477839,0.0213599,0.0826797,0.0636001,0.0941038,0.11376L6.7332935,3.98v0.7090001H5.2542934V3.9679999l0.0092559-0.0504
					c0.0163679-0.0476398,0.05304-0.0859199,0.100728-0.1051199L5.4152937,3.8H6.5842934z"/>
			</g>
		</g>
	</g>
</g>
</svg>
