<?xml version="1.0" encoding="utf-8"?>
<!-- Generator: Adobe Illustrator 24.0.1, SVG Export Plug-In . SVG Version: 6.00 Build 0)  -->
<svg version="1.1" id="Layer_1" xmlns="http://www.w3.org/2000/svg" xmlns:xlink="http://www.w3.org/1999/xlink" x="0px" y="0px"
	 width="16px" height="16px" viewBox="0 0 16 16" enable-background="new 0 0 16 16" xml:space="preserve">
<path id="path-1_1_" fill-rule="evenodd" clip-rule="evenodd" fill="#181C56" d="M7.2593102,7.1551723
	c0.2266273,0,0.4103451,0.1837177,0.4103451,0.4103451l0,0L7.6690001,9.1820002h0.6760001l0.0005169-1.6164827
	c0-0.1982989,0.1406593-0.3637452,0.3276463-0.4020081l0.0826988-0.008337h3.3793106
	c0.2266264,0,0.4103441,0.1837177,0.4103441,0.4103451l0,0l-0.0005169,1.6164827l1.2652092,0.0007582
	c0.2014465,0,0.368989,0.1451597,0.4037342,0.336585l0.0066109,0.07376V15h-0.8206892l-0.000865-1.1000004h-4.875L8.524828,15
	H7.5248275l-0.0008273-1.1000004H2.5999999L2.6006896,15H1.78V9.5931034l0.0066112-0.07376
	c0.0347447-0.1914253,0.2022872-0.336585,0.4037336-0.336585l0,0l1.2786553-0.0007582l0.0006552-1.6164827
	c0-0.1982989,0.1406586-0.3637452,0.327646-0.4020081l0.0826988-0.008337H7.2593102z M13.3993244,10.0029659l-0.8543243,0.0000343
	l0.0005169,1.9556208c0,0.1982985-0.1406584,0.3637447-0.3276453,0.4020081l-0.0826988,0.0083361H8.7558622
	c-0.2266273,0-0.4103451-0.1837168-0.4103451-0.4103441l0,0l-0.0005169-1.7766209H7.6690001l0.0006552,1.7766209
	c0,0.1982985-0.1406589,0.3637447-0.3276463,0.4020081l-0.0826988,0.0083361H3.8800001
	c-0.2266273,0-0.4103448-0.1837168-0.4103448-0.4103441l0,0l-0.0006552-1.9556208l-0.8677697-0.0000343l-0.0012305,2.8970337
	h10.7989998L13.3993244,10.0029659z M6.848,11H4.289l0.000669,0.5475035h2.5589104L6.848,11z M11.724,11H9.1660004
	l0.0002069,0.5475035h2.5580893L11.724,11z M11.7242966,7.975862H9.1662073l-0.0002069,2.2201381H11.724L11.7242966,7.975862z
	 M6.8485794,7.975862H4.289669L4.289,10.1960001h2.559L6.8485794,7.975862z M11.2179308,1
	c1.3596783,0,2.4620695,1.1023915,2.4620695,2.462069s-1.1023912,2.462069-2.4620695,2.462069
	S8.7558622,4.8217463,8.7558622,3.462069S9.8582535,1,11.2179308,1z M11.2200003,1.71c-0.9664173,0-1.75,0.7835827-1.75,1.75
	s0.7835827,1.75,1.75,1.75s1.75-0.7835827,1.75-1.75S12.1864176,1.71,11.2200003,1.71z M11.4155169,2.3v0.9232759h0.9232759
	V3.838793h-1.2310343c-0.1487236,0-0.272809-0.105494-0.301506-0.2457345l-0.0062523-0.0620241V2.3H11.4155169z"/>
</svg>
