<?xml version="1.0" encoding="utf-8"?>
<!-- Generator: Adobe Illustrator 24.3.1, SVG Export Plug-In . SVG Version: 6.00 Build 0)  -->
<svg version="1.1" id="Layer_1" xmlns="http://www.w3.org/2000/svg" xmlns:xlink="http://www.w3.org/1999/xlink" x="0px" y="0px"
	 viewBox="0 0 16 16" enable-background="new 0 0 16 16" xml:space="preserve">
<path fill-rule="evenodd" clip-rule="evenodd" fill="#181C56" d="M6.7386799,1.0000294h5.5124197v1.3154401H6.7386799V1.0000294z"/>
<path fill-rule="evenodd" clip-rule="evenodd" fill="#181C56" d="M8.84447,4.2459197H6.3937201
	c-1.8291802,0-3.2413301,1.5783796-3.2413301,3.4337997h1.3080301c0-1.2104897,0.9050498-2.1183701,1.9333-2.1183701h8.006279
	V4.2459197h-4.2474995V2.1275496H8.84447V4.2459197z M4.2908201,9.4586992L3.8064001,9.9005795L3.32197,9.4586992
	C3.44594,9.32125,3.6218801,9.2428598,3.8064001,9.2428598S4.1668601,9.32125,4.2908201,9.4586992z M3.8064001,10.9377298
	c-0.0772099,0.1021996-0.1582201,0.2133999-0.23896,0.3303995c-0.18255,0.2644005-0.355,0.5457001-0.4795601,0.8108006
	C2.95766,12.3560295,2.90803,12.5568295,2.90803,12.67663c0,0.6742992,0.4658,1.0079994,0.89837,1.0079994
	s0.89837-0.3337002,0.89837-1.0079994c0-0.1198006-0.0496302-0.3206005-0.1798601-0.5977001
	c-0.1245499-0.2651005-0.2969999-0.5464001-0.4795499-0.8108006C3.9646201,11.1511297,3.88361,11.0399294,3.8064001,10.9377298z
	 M3.8064001,9.9005795C3.32197,9.4586992,3.32197,9.4586992,3.32197,9.4586992L3.3211701,9.4595995L3.3197899,9.4611292
	L3.3153801,9.4660597L3.3001499,9.4832096C3.28725,9.4977999,3.26895,9.5186596,3.2460301,9.5451794
	c-0.0458002,0.0530005-0.11026,0.12887-0.18718,0.2228699C2.90558,9.9553394,2.69997,10.2181292,2.49298,10.51793
	c-0.20555,0.2976999-0.4212,0.6445999-0.58772,0.9988995C1.7444201,11.8591299,1.6,12.2690296,1.6,12.67663
	c0,1.4355993,1.0865799,2.3233995,2.2063999,2.3233995c1.1198099,0,2.2064002-0.8878002,2.2064002-2.3233995
	c0-0.4076004-0.1444201-0.8175001-0.3052602-1.1598005C5.5410199,11.1625299,5.3253698,10.81563,5.1198201,10.51793
	c-0.2069902-0.2998009-0.4126-0.5625906-0.5658703-0.7498808C4.4770298,9.6740494,4.41257,9.5981798,4.3667598,9.5451794
	C4.3438501,9.5186596,4.3255501,9.4977999,4.3126502,9.4832096L4.29742,9.4660597L4.2930102,9.4611292L4.2916298,9.4595995
	L4.2908201,9.4586992C4.2908201,9.4586992,4.2908201,9.4586992,3.8064001,9.9005795z"/>
</svg>
