<?xml version="1.0" encoding="utf-8"?>
<!-- Generator: Adobe Illustrator 24.0.1, SVG Export Plug-In . SVG Version: 6.00 Build 0)  -->
<svg version="1.1" id="Layer_1" xmlns="http://www.w3.org/2000/svg" xmlns:xlink="http://www.w3.org/1999/xlink" x="0px" y="0px"
	 width="16px" height="16px" viewBox="0 0 16 16" enable-background="new 0 0 16 16" xml:space="preserve">
<path id="Icon-Fill" fill-rule="evenodd" clip-rule="evenodd" fill="#181C56" d="M5.7189255,7.9421487v1.2727275
	c-1.2458186,0-2.2561982,1.0103798-2.2561982,2.2561979s1.0103796,2.2561989,2.2561982,2.2561989
	c1.0264597,0,1.9114318-0.6910639,2.1760707-1.6572781l0.0349836-0.1469431l1.247313,0.2530699
	C8.8460121,13.8089132,7.4049597,15,5.7189255,15c-1.9487264,0-3.5289254-1.5801992-3.5289254-3.5289259
	c0-1.8878288,1.4829795-3.4298029,3.3473492-3.524333L5.7189255,7.9421487z M7.454463,1
	c1.3100491,0,2.3719006,1.0618517,2.3719006,2.3719008c0,1.0898635-0.7349081,2.0079496-1.7362413,2.2857754L8.0900002,6.7849998
	l2.2570248,0.000124v1.272727L8.0900002,8.0570002v1.6202726l3.4140491,0.0004129
	c0.2109079,0,0.4059753,0.1042652,0.5236616,0.2747602l0.0455198,0.077013l1.7355366,3.4710741l-1.1383619,0.5691814
	l-1.5604057-3.1197147L7.454463,10.9504128c-0.3221664,0-0.5884166-0.2394028-0.6305547-0.5500126L6.818099,10.3140497
	l0.0007043-4.6563735C5.8174701,5.3798504,5.082562,4.4617643,5.082562,3.3719008C5.082562,2.0618517,6.1444139,1,7.454463,1z
	 M7.454463,2.2727273c-0.6071415,0-1.0991735,0.4920325-1.0991735,1.0991735S6.8473215,4.4710746,7.454463,4.4710746
	c0.6071405,0,1.0991735-0.4920325,1.0991735-1.0991738S8.0616035,2.2727273,7.454463,2.2727273z"/>
</svg>
