<?xml version="1.0" encoding="utf-8"?>
<!-- Generator: Adobe Illustrator 24.0.1, SVG Export Plug-In . SVG Version: 6.00 Build 0)  -->
<svg version="1.1" id="Layer_1" xmlns="http://www.w3.org/2000/svg" xmlns:xlink="http://www.w3.org/1999/xlink" x="0px" y="0px"
	 width="16px" height="16px" viewBox="0 0 16 16" enable-background="new 0 0 16 16" xml:space="preserve">
<path id="path-1_1_" fill-rule="evenodd" clip-rule="evenodd" fill="#181C56" d="M8,10.4742899
	c0.6836529,0,1.2373819,0.5537281,1.2373819,1.2373819c0,0.6836529-0.5537291,1.237381-1.2373819,1.237381
	s-1.2373815-0.5537281-1.2373815-1.237381C6.7626185,11.028018,7.3163466,10.4742899,8,10.4742899z M8,6.762145
	c1.384326,0,2.7031841,0.514255,3.7547035,1.4158297l0.1939783,0.1735525l0.4522972,0.4221439l-0.8442879,0.9045944
	L11.104394,9.2561216C10.2469664,8.4558563,9.1489229,7.9995265,8,7.9995265c-1.0723276,0-2.1003346,0.3975139-2.9297562,1.1011615
	L4.8956065,9.2561216L4.4433093,9.6782656L3.5990212,8.7736712l0.452297-0.4221439
	C5.1322145,7.3426909,6.5291533,6.762145,8,6.762145z M8,3.05c2.398345,0,4.6536674,0.918546,6.3530254,2.5147989
	l0.2094936,0.2030439L15,6.2053232l-0.8749609,0.8749609l-0.4374809-0.4374804
	C12.1955404,5.1507854,10.1657839,4.2873816,8,4.2873816c-2.0716195,0-4.0187826,0.7899575-5.4899311,2.1643953L2.3124413,6.6428037
	L1.8749609,7.0802841L1,6.2053232l0.4374804-0.4374804C3.158637,4.0466862,5.5017238,3.05,8,3.05z"/>
</svg>
