<?xml version="1.0" encoding="utf-8"?>
<!-- Generator: Adobe Illustrator 24.0.1, SVG Export Plug-In . SVG Version: 6.00 Build 0)  -->
<svg version="1.1" id="Layer_1" xmlns="http://www.w3.org/2000/svg" xmlns:xlink="http://www.w3.org/1999/xlink" x="0px" y="0px"
	 width="16px" height="16px" viewBox="0 0 16 16" enable-background="new 0 0 16 16" xml:space="preserve">
<g>
	<path fill-rule="evenodd" clip-rule="evenodd" fill="#181C56" d="M12.0247564,3.8681641
		c-0.7001953-1.5751953-2.2744141-2.625-4.0244141-2.625s-3.3251958,1.0498047-4.0253911,2.625
		c-1.6621094,0-2.9746094,1.3999023-2.9746094,3.0625c0,1.6621094,1.3994141,3.0625,3.0625,3.0625h0.9365234V8.5927734H4.0628419
		c-0.8857422,0-1.6630859-0.7768555-1.6630859-1.6621094c0-0.9169922,0.7070312-1.6625977,1.5751953-1.6625977h0.9101562
		l0.3691406-0.831543c0.484375-1.0893555,1.5625-1.793457,2.7460942-1.793457s2.2607422,0.7041016,2.7451172,1.793457
		l0.3701172,0.831543h0.9091797c0.8691406,0,1.5751953,0.7456055,1.5751953,1.6625977
		c0,0.8852539-0.7763672,1.6621094-1.6621094,1.6621094h-0.9541016v1.4003906h0.9541016c1.6621094,0,3.0625-1.4003906,3.0625-3.0625
		C15.0003424,5.2680664,13.6878424,3.8681641,12.0247564,3.8681641z"/>
	<path fill-rule="evenodd" clip-rule="evenodd" fill="#181C56" d="M8.6536627,12.5263672V8.1069336H7.346045l0.0009766,4.418457
		l-1.40625-1.40625l-0.9248047,0.9248047l2.5214844,2.5214844l0.0673828,0.0585938
		c0.2558594,0.1953125,0.6230474,0.1757812,0.8574224-0.0585938l2.5214844-2.5214844l-0.9248047-0.9248047L8.6536627,12.5263672z"/>
</g>
</svg>
