<?xml version="1.0" encoding="utf-8"?>
<!-- Generator: Adobe Illustrator 24.0.1, SVG Export Plug-In . SVG Version: 6.00 Build 0)  -->
<svg version="1.1" id="Layer_1" xmlns="http://www.w3.org/2000/svg" xmlns:xlink="http://www.w3.org/1999/xlink" x="0px" y="0px"
	 width="16px" height="16px" viewBox="0 0 16 16" enable-background="new 0 0 16 16" xml:space="preserve">
<path id="Icon-Fill" fill-rule="evenodd" clip-rule="evenodd" fill="#181C56" d="M6.2644629,3.3140495v1.2727273
	L2.2727273,4.5863638v9.1409092h9.1400003l0.0004959-3.9917355h1.272727v4.6280985
	c0,0.3221664-0.2394028,0.5884171-0.5500126,0.6305552L12.0495872,15H1.6363636
	c-0.3221661,0-0.5884166-0.2394037-0.6305543-0.5500126L1,14.363636V3.9504132C1,3.628247,1.2394032,3.3619967,1.5500128,3.3198588
	l0.0863508-0.0058093H6.2644629z M14.363636,1c0.3221664,0,0.5884171,0.2394032,0.6305552,0.5500128L15,1.6363636v4.6280994
	h-1.272727l-0.0002728-3.092463l-5.2770233,5.277977L7.5500231,7.5500231l5.2769766-5.2780228L9.7355375,2.2727273V1H14.363636z"/>
</svg>
