<?xml version="1.0" encoding="utf-8"?>
<!-- Generator: Adobe Illustrator 24.0.1, SVG Export Plug-In . SVG Version: 6.00 Build 0)  -->
<svg version="1.1" id="Layer_1" xmlns="http://www.w3.org/2000/svg" xmlns:xlink="http://www.w3.org/1999/xlink" x="0px" y="0px"
	 width="16px" height="16px" viewBox="0 0 16 16" enable-background="new 0 0 16 16" xml:space="preserve">
<path id="Icon-Fill" fill-rule="evenodd" clip-rule="evenodd" fill="#181C56" d="M5.0283117,10.3179169
	c0.3309793,0,0.6045127,0.2459517,0.6478033,0.5650587l0.0059681,0.0887127v3.5660257H4.3745403l-0.0005403-1.9887142L1.9245723,15
	L1,14.075428l2.451-2.4514284l-1.9887137,0.0014601v-1.3075428H5.0283117z M14.537714,10.3179169v1.3075428l-1.9887142-0.0014601
	L15,14.075428L14.075428,15l-2.4514284-2.4519997l0.0014601,1.9897137h-1.3075428v-3.5660257
	c0-0.3309793,0.2459517-0.6045132,0.5650587-0.6478033l0.0887127-0.0059681H14.537714z M8,5.5632157
	c1.3458853,0,2.4367838,1.090899,2.4367838,2.4367843S9.3458853,10.4367838,8,10.4367838S5.5632157,9.3458853,5.5632157,8
	S6.6541147,5.5632157,8,5.5632157z M8,6.8707585C7.3762507,6.8707585,6.8707585,7.3762507,6.8707585,8
	S7.3762507,9.1292419,8,9.1292419S9.1292419,8.6237497,9.1292419,8S8.6237497,6.8707585,8,6.8707585z M1.9245723,1l2.4494276,2.45
	l0.0005403-1.9877138h1.3075428v3.5660255c0,0.3309793-0.2459521,0.6045127-0.5650582,0.6478033L5.0283117,5.6820831H1.4622862
	V4.3745403L3.45,4.3740001L1,1.9245723L1.9245723,1z M14.075428,1L15,1.9245723l-2.4510002,2.4494276l1.9887142,0.0005403v1.3075428
	h-3.5660257c-0.3309793,0-0.6045132-0.2459521-0.6478033-0.5650582l-0.0059681-0.0887132V1.4622862h1.3075428L11.6239996,3.451
	L14.075428,1z"/>
</svg>
