<?xml version="1.0" encoding="utf-8"?>
<!-- Generator: Adobe Illustrator 24.0.1, SVG Export Plug-In . SVG Version: 6.00 Build 0)  -->
<svg version="1.1" id="Layer_1" xmlns="http://www.w3.org/2000/svg" xmlns:xlink="http://www.w3.org/1999/xlink" x="0px" y="0px"
	 width="16px" height="16px" viewBox="0 0 16 16" enable-background="new 0 0 16 16" xml:space="preserve">
<path id="Icon-Fill" fill-rule="evenodd" clip-rule="evenodd" fill="#181C56" d="M8,1
	c2.0790987,0,3.9893999,0.9006078,5.2762508,2.396389l0.2727671-2.010649l1.3182535,0.1787462L14.3604841,5.302043
	c-0.0451746,0.3331666-0.3297539,0.5751767-0.6569052,0.57586l-0.0901308-0.0059099L9.8125429,5.3652058l0.1758194-1.3186469
	l2.3606701,0.314189C11.3116665,3.0968499,9.7308264,2.3303168,8,2.3303168C4.883194,2.3303168,2.3303168,4.883194,2.3303168,8
	S4.883194,13.6696835,8,13.6696835c3.04597,0,5.5533524-2.4381561,5.6657505-5.4580708L13.6696835,8H15c0,3.8515196-3.1484804,7-7,7
	s-7-3.1484804-7-7S4.1484804,1,8,1z"/>
</svg>
