<?xml version="1.0" encoding="utf-8"?>
<!-- Generator: Adobe Illustrator 24.0.1, SVG Export Plug-In . SVG Version: 6.00 Build 0)  -->
<svg version="1.1" id="Layer_1" xmlns="http://www.w3.org/2000/svg" xmlns:xlink="http://www.w3.org/1999/xlink" x="0px" y="0px"
	 width="16px" height="16px" viewBox="0 0 16 16" enable-background="new 0 0 16 16" xml:space="preserve">
<path id="Icon-Fill" fill-rule="evenodd" clip-rule="evenodd" fill="#181C56" d="M7.9683256,1c3.8660898,0,7,3.1339102,7,7
	s-3.1339102,7-7,7c-1.312469,0-2.7194562-0.4353542-3.8597574-1.1493368l-0.2401369-0.1572037l-0.2153807-0.1469126
	c-0.2307804,0.099617-0.4852369,0.1548109-0.7525983,0.1548109C1.8507693,13.7013578,1,12.8505878,1,11.8009052
	s0.8507693-1.9004526,1.9004524-1.9004526s1.9004524,0.850769,1.9004524,1.9004526
	c0,0.2850704-0.0627475,0.5554695-0.1751866,0.7981415c0.9583478,0.6564579,2.2136555,1.0706367,3.3426075,1.0706367
	c3.1313763,0,5.6696835-2.5383072,5.6696835-5.6696835s-2.5383072-5.6696835-5.6696835-5.6696835
	c-1.6744184,0-3.2216048,0.7318633-4.2821703,1.9564874l2.3432198-0.3111956L6.205195,5.2942557L2.40429,5.801043
	c-0.333266,0.0444355-0.6418521-0.1661081-0.7289284-0.4814596l-0.0181082-0.088491L1.150466,1.493536l1.3182535-0.1787462
	l0.2733331,2.0310247C4.0489926,1.8765639,5.9331188,1,7.9683256,1z"/>
</svg>
