<?xml version="1.0" encoding="utf-8"?>
<!-- Generator: Adobe Illustrator 24.0.1, SVG Export Plug-In . SVG Version: 6.00 Build 0)  -->
<svg version="1.1" id="Layer_1" xmlns="http://www.w3.org/2000/svg" xmlns:xlink="http://www.w3.org/1999/xlink" x="0px" y="0px"
	 width="16px" height="16px" viewBox="0 0 16 16" enable-background="new 0 0 16 16" xml:space="preserve">
<path id="Icon-Fill" fill-rule="evenodd" clip-rule="evenodd" fill="#181C56" d="M3.4545455,3.7278917v1.2727273
	L2.2727273,5.0000129v8.4245453h10.2418184l0.0006056-2.9996967h1.272728v3.636363
	c0,0.3221664-0.2394037,0.5884171-0.5500135,0.6305542l-0.0863504,0.0058098H1.6363636
	c-0.3221661,0-0.5884166-0.2394037-0.6305543-0.5500126L1,14.0612249v-9.69697C1,4.042089,1.2394032,3.7758389,1.5500128,3.733701
	l0.0863508-0.0058093H3.4545455z M9.859354,1.4042556l0.0748463,0.0568448l4.848484,4.242424
	c0.2634125,0.2304859,0.2873592,0.6239648,0.0718403,0.8840857l-0.0718403,0.0737395l-4.848484,4.2424245
	c-0.3872585,0.338851-0.9804583,0.0999451-1.0489063-0.3851528l-0.006506-0.0937595L8.8781815,8.6481943L8.7388353,8.6545229
	c-1.9304271,0.0947618-2.8859811,0.5872784-3.8977551,1.8093882l-0.1450334,0.1795855l-0.1287923,0.1664181
	c-0.3687997,0.4852629-1.143012,0.2244492-1.143012-0.3850527c0-4.3956642,1.7493806-6.3725457,5.165442-6.6598644
	l0.2354946-0.0169802l0.0530024-0.0034592L8.878788,1.9400129C8.878788,1.4254365,9.4492073,1.1363291,9.859354,1.4042556z
	 M10.1509094,3.3418312l0.0006056,1.0224242c0,0.3514538-0.2849092,0.6363635-0.636363,0.6363635
	c-2.6892929,0-4.1702762,0.8884177-4.6462836,3.3465176L4.8271809,8.5822029L4.8109093,8.6854677L4.9189119,8.597558
	c1.001442-0.7911701,2.1758466-1.1549039,3.9544048-1.2218013l0.3406649-0.0090966L9.515152,7.3642554
	c0.3195028,0,0.5840111,0.2354627,0.6294632,0.5423265l0.0068998,0.0940371l-0.0006056,1.0212126l3.2463636-2.8400002
	L10.1509094,3.3418312z"/>
</svg>
