<?xml version="1.0" encoding="utf-8"?>
<!-- Generator: Adobe Illustrator 24.0.1, SVG Export Plug-In . SVG Version: 6.00 Build 0)  -->
<svg version="1.1" id="Layer_1" xmlns="http://www.w3.org/2000/svg" xmlns:xlink="http://www.w3.org/1999/xlink" x="0px" y="0px"
	 width="16px" height="16px" viewBox="0 0 16 16" enable-background="new 0 0 16 16" xml:space="preserve">
<path id="Icon-Fill" fill-rule="evenodd" clip-rule="evenodd" fill="#181C56" d="M1.9120971,1.0944506L13.71,12.8915491
	l0.0001001-3.1325941H15v4.6905451c0,0.3265133-0.2426338,0.5963564-0.5574341,0.6390629l-0.0875158,0.005888h-4.690546v-1.2899008
	l3.1344957-0.000001L1,2.0065477L1.9120971,1.0944506z M5.690546,9.302906l0.912097,0.912097l-4.690546,4.690546L1,13.9934521
	L5.690546,9.302906z M14.3550501,0.905549c0.3265133,0,0.5963554,0.2426336,0.6390619,0.5574342L15,1.5504991v4.690546h-1.2898998
	L13.71,3.106549l-3.589448,3.5905445l-0.912097-0.912097l3.5895452-3.5904474l-3.1334963,0.0009V0.905549H14.3550501z"/>
</svg>
