<?xml version="1.0" encoding="utf-8"?>
<!-- Generator: Adobe Illustrator 24.0.1, SVG Export Plug-In . SVG Version: 6.00 Build 0)  -->
<svg version="1.1" id="Layer_1" xmlns="http://www.w3.org/2000/svg" xmlns:xlink="http://www.w3.org/1999/xlink" x="0px" y="0px"
	 width="16px" height="16px" viewBox="0 0 16 16" enable-background="new 0 0 16 16" xml:space="preserve">
<path id="Icon-Fill" fill-rule="evenodd" clip-rule="evenodd" fill="#181C56" d="M15,8c0,3.8515196-3.1484804,7-7,7
	c-2.0795565,0-3.9902415-0.9010048-5.2771015-2.397377l-0.2719166,2.0116367l-1.3182536-0.1787462l0.5067873-3.7375565
	c0.0451751-0.3331661,0.3297536-0.5751772,0.6569055-0.57586l0.090131,0.0059099l3.8009048,0.5067873l-0.1758194,1.3186474
	l-2.3606703-0.314189C4.6883335,12.9031506,6.2691741,13.6696835,8,13.6696835c3.04597,0,5.5533524-2.4381561,5.6657505-5.4580708
	L13.6696835,8H15z M8,1c2.0790987,0,3.9893999,0.9006078,5.2762508,2.396389l0.2727671-2.010649l1.3182535,0.1787462
	L14.3604841,5.302043c-0.0451746,0.3331666-0.3297539,0.5751767-0.6569052,0.57586l-0.0901308-0.0059099L9.8125429,5.3652058
	l0.1758194-1.3186469l2.3606701,0.314189C11.3116665,3.0968499,9.7308264,2.3303168,8,2.3303168
	c-3.0459695,0-5.5533524,2.4381559-5.6657505,5.4580708L2.3303168,8H1C1,4.1484804,4.1484804,1,8,1z"/>
</svg>
