<?xml version="1.0" encoding="utf-8"?>
<!-- Generator: Adobe Illustrator 24.0.1, SVG Export Plug-In . SVG Version: 6.00 Build 0)  -->
<svg version="1.1" id="Layer_1" xmlns="http://www.w3.org/2000/svg" xmlns:xlink="http://www.w3.org/1999/xlink" x="0px" y="0px"
	 width="16px" height="16px" viewBox="0 0 16 16" enable-background="new 0 0 16 16" xml:space="preserve">
<path id="Icon-Fill" fill-rule="evenodd" clip-rule="evenodd" fill="#181C56" d="M4.2166901,1.6992542l-3.030303,3.030303
	L1.1192875,4.8084354C0.9403563,5.0571132,0.9627228,5.4058475,1.1863871,5.6295114l0,0l3.030303,3.0303035l0.8999538-0.8999543
	L3.1730003,5.8152542l6.9482117,0.0006437l0.1799793,0.0044131c1.9079618,0.0937805,3.4260817,1.6704221,3.4260817,3.6016479
	c0,1.9915762-1.6144848,3.60606-3.606061,3.60606l0,0H5.878788v1.272727h4.242424l0.1962223-0.0038738
	C12.920948,14.1938915,15,12.050724,15,9.4219589c0-2.6944847-2.1843033-4.8787885-4.878788-4.8787885l0,0l-6.9472122-0.000916
	l1.9426441-1.9430461L4.2166901,1.6992542z"/>
</svg>
