<?xml version="1.0" encoding="utf-8"?>
<!-- Generator: Adobe Illustrator 24.0.1, SVG Export Plug-In . SVG Version: 6.00 Build 0)  -->
<svg version="1.1" id="Layer_1" xmlns="http://www.w3.org/2000/svg" xmlns:xlink="http://www.w3.org/1999/xlink" x="0px" y="0px"
	 width="16px" height="16px" viewBox="0 0 16 16" enable-background="new 0 0 16 16" xml:space="preserve">
<path id="path-1_1_" fill-rule="evenodd" clip-rule="evenodd" fill="#181C56" d="M14.363636,2.5
	C14.7150908,2.5,15,2.782918,15,3.1319149l0,0v3.1955168c0,0.3489971-0.2849092,0.6319146-0.636364,0.6319146
	c-0.6345577,0-1.0991735,0.4531288-1.0991735,1.0607142s0.4646158,1.0607147,1.0991735,1.0607147
	C14.7150908,9.0807753,15,9.3636932,15,9.7126904l0,0v3.1553946C15,13.217082,14.7150908,13.5,14.363636,13.5l0,0H1.6363636
	C1.2849097,13.5,1,13.217082,1,12.8680849l0,0V9.7126904c0-0.3489971,0.2849097-0.6319151,0.6363636-0.6319151l0,0
	l0.1245584-0.0059538c0.5698835-0.05515,0.9746152-0.4876804,0.9746152-1.0547609
	c0-0.6075854-0.4646156-1.0607142-1.0991737-1.0607142l0,0L1.5423265,6.9524951C1.2354625,6.9073606,1,6.6447015,1,6.3274317l0,0
	V3.1319149C1,2.782918,1.2849097,2.5,1.6363636,2.5l0,0H14.363636z M13.727273,3.7628937H2.2727273v2.0137019l0.1219494,0.0348439
	c0.9008822,0.286406,1.5463512,1.0755763,1.6086459,2.0528049l0,0l0.0049419,0.1558161
	c0,1.0485821-0.6652908,1.9071417-1.6135879,2.208622l0,0L2.2727273,10.262723v1.9734468h11.454546V10.262723l-0.1219501-0.0340405
	c-0.9008818-0.2864065-1.5463505-1.0755768-1.6086454-2.0528059l0,0l-0.0049419-0.1558161
	c0-1.0485816,0.6652908-1.9071407,1.6135874-2.208621l0,0l0.1219501-0.0348439V3.7628937z M8.4991341,5.6707072L8.4987068,7.5007071
	l1.8305864,0.0001588v0.9982681L8.4987068,8.4987068l0.0004272,1.8305864H7.5008659L7.5007071,8.4987068L5.6707072,8.4991341
	V7.5008659l1.8299999-0.0001588l0.0001588-1.8299999H8.4991341z"/>
</svg>
