<svg width="16" height="16" viewBox="0 0 16 16" fill="none" xmlns="http://www.w3.org/2000/svg">
<path fill-rule="evenodd" clip-rule="evenodd" d="M7.55739 1.16594C7.8063 0.944686 8.18139 0.944686 8.4303 1.16594L13.8672 5.99874C14.0075 6.1234 14.0877 6.3021 14.0877 6.48975V14.343C14.0877 14.7059 13.7936 15 13.4307 15H9.80614C9.44332 15 9.14918 14.7059 9.14918 14.343V10.771H6.83851V14.343C6.83851 14.6756 6.59135 14.9505 6.27069 14.994L6.18155 15H2.55695C2.19412 15 1.89999 14.7059 1.89999 14.343V6.48975C1.89999 6.3021 1.98024 6.1234 2.12049 5.99874L7.55739 1.16594ZM7.99384 2.53502L3.21391 6.78395V13.6861H5.52368L5.52459 10.1143C5.52459 9.78176 5.77174 9.50689 6.0924 9.46339L6.18155 9.45739H9.80614C10.169 9.45739 10.4631 9.75152 10.4631 10.1143V13.6861H12.7738V6.78485L7.99384 2.53502Z" fill="#181C56"/>
<path fill-rule="evenodd" clip-rule="evenodd" d="M3 10.5492V9.44922H13V10.5492H3Z" fill="#181C56"/>
<path fill-rule="evenodd" clip-rule="evenodd" d="M3 8.54922V7.44922H13V8.54922H3Z" fill="#181C56"/>
<path fill-rule="evenodd" clip-rule="evenodd" d="M3 6.54922V5.44922H13V6.54922H3Z" fill="#181C56"/>
<path fill-rule="evenodd" clip-rule="evenodd" d="M5 4.54922L5 3.44922L11 3.44922L11 4.54922L5 4.54922Z" fill="#181C56"/>
<path fill-rule="evenodd" clip-rule="evenodd" d="M3 12.5492V11.4492H6.33333V12.5492H3Z" fill="#181C56"/>
<path fill-rule="evenodd" clip-rule="evenodd" d="M10 12.5492L10 11.4492L14 11.4492L14 12.5492L10 12.5492Z" fill="#181C56"/>
<path fill-rule="evenodd" clip-rule="evenodd" d="M2.94986 6V2H4.04986V6H2.94986Z" fill="#181C56"/>
</svg>
