<svg width="16" height="16" viewBox="0 0 16 16" fill="none" xmlns="http://www.w3.org/2000/svg">
<path fill-rule="evenodd" clip-rule="evenodd" d="M7.82736 1.36982C7.94165 1.35077 8.0583 1.35077 8.17259 1.36982L10.7726 1.80315C11.2789 1.88753 11.65 2.32558 11.65 2.83886V4.10001C11.65 4.46931 11.4593 4.79408 11.1711 4.98126C11.3821 5.43162 11.5 5.93431 11.5 6.46453C11.5 7.64258 10.918 8.68469 10.0258 9.31901C12.4839 10.1168 14.3052 12.3278 14.5 15H13C12.7718 12.6082 11.0685 10.6891 8.737 10.3524L8.63995 10.603C8.58163 10.7536 8.46951 10.8613 8.33419 10.9262C8.35768 10.9626 8.37616 11.0046 8.38806 11.0522L8.96411 13.3564C8.98727 13.4491 8.97653 13.5469 8.93383 13.6323L8.35777 14.7844C8.21036 15.0793 7.78964 15.0793 7.64223 14.7844L7.06617 13.6323C7.02347 13.5469 7.01273 13.4491 7.03589 13.3564L7.61194 11.0522C7.62384 11.0046 7.64232 10.9626 7.66581 10.9262C7.53049 10.8613 7.41837 10.7536 7.36005 10.603L7.263 10.3524C4.93151 10.6891 3.22818 12.6082 3 15H1.5C1.70265 12.3361 3.52298 10.121 5.97631 9.32051C5.08294 8.68634 4.5 7.64351 4.5 6.46453C4.5 5.9996 4.59065 5.55585 4.75525 5.14998H3.5V3.84998H4.34998V2.83886C4.34998 2.32558 4.72106 1.88753 5.22736 1.80315L7.82736 1.36982ZM8.75994 5.15001H9.76427C10.038 5.51676 10.2 5.97172 10.2 6.46453C10.2 7.67955 9.21503 8.66453 8 8.66453C6.78497 8.66453 5.8 7.67955 5.8 6.46453C5.8 5.97172 5.96203 5.51676 6.23573 5.15001H7.24006C7.42347 5.36423 7.69588 5.49999 8 5.49999C8.30412 5.49999 8.57653 5.36423 8.75994 5.15001ZM8.75998 3.85001C8.57657 3.63577 8.30414 3.49999 8 3.49999C7.69586 3.49999 7.42343 3.63577 7.24002 3.85001H6V3.84998H5.64998V3.05064L7.99998 2.65898L10.35 3.05064V3.85001H8.75998Z" fill="#181C56"/>
</svg>
