<?xml version="1.0" encoding="utf-8"?>
<!-- Generator: Adobe Illustrator 25.2.0, SVG Export Plug-In . SVG Version: 6.00 Build 0)  -->
<svg version="1.1" id="Layer_1" xmlns="http://www.w3.org/2000/svg" xmlns:xlink="http://www.w3.org/1999/xlink" x="0px" y="0px"
	 viewBox="0 0 16 16" enable-background="new 0 0 16 16" xml:space="preserve">
<path id="Icon-Fill" fill-rule="evenodd" clip-rule="evenodd" fill="#181C56" d="M5.9428091,2.4999988L5,3.4428079
	l4.2914047,4.2905006L5,12.0238085l0.9428091,0.9428091l4.7619047-4.7619047
	c0.234314-0.2343149,0.2577457-0.5996552,0.0702944-0.8601751l-0.0702944-0.082634L5.9428091,2.4999988z"/>
<path id="Icon-Fill_1_" fill-rule="evenodd" clip-rule="evenodd" fill="#181C56" d="M10.0428333,2.4999988L9.1000242,3.4428079
	l4.2914047,4.2905006l-4.2914047,4.2904997l0.9428091,0.9428091l4.7619047-4.7619047
	c0.234314-0.2343149,0.2577457-0.5996552,0.0702944-0.8601751l-0.0702944-0.082634L10.0428333,2.4999988z"/>
<path id="Icon-Fill_2_" fill-rule="evenodd" clip-rule="evenodd" fill="#181C56" d="M1.9428091,2.4999988L1,3.4428079
	l4.2914047,4.2905006L1,12.0238085l0.9428091,0.9428091l4.7619047-4.7619047
	c0.234314-0.2343149,0.2577457-0.5996552,0.0702944-0.8601751l-0.0702944-0.082634L1.9428091,2.4999988z"/>
</svg>
