<svg width="16" height="16" viewBox="0 0 16 16" fill="none" xmlns="http://www.w3.org/2000/svg">
<path fill-rule="evenodd" clip-rule="evenodd" d="M8.00141 2C8.24535 2 8.46501 2.14769 8.55705 2.3736L12.9584 13.1755C13.0524 13.4061 12.9942 13.6708 12.8121 13.8407C12.63 14.0105 12.3619 14.0503 12.1384 13.9406L8.00141 11.9099L3.8644 13.9406C3.64087 14.0503 3.3728 14.0105 3.19073 13.8407C3.00865 13.6708 2.95042 13.4061 3.04438 13.1755L7.44576 2.3736C7.53781 2.14769 7.75747 2 8.00141 2ZM4.75032 12.169L7.73703 10.7029C7.90378 10.6211 8.09904 10.6211 8.26578 10.7029L11.2525 12.169L8.00141 4.19008L4.75032 12.169Z" fill="#181C56"/>
</svg>
