<?xml version="1.0" encoding="utf-8"?>
<!-- Generator: Adobe Illustrator 24.0.1, SVG Export Plug-In . SVG Version: 6.00 Build 0)  -->
<svg version="1.1" id="Layer_1" xmlns="http://www.w3.org/2000/svg" xmlns:xlink="http://www.w3.org/1999/xlink" x="0px" y="0px"
	 width="16px" height="16px" viewBox="0 0 16 16" enable-background="new 0 0 16 16" xml:space="preserve">
<path id="Icon-Fill" fill-rule="evenodd" clip-rule="evenodd" fill="#181C56" d="M14.2488661,1.0089985
	c0.4281397-0.0713565,0.803112,0.2920457,0.7452049,0.7222105c-0.0050325,0.0373907-0.0121422,0.0869029-0.0214052,0.1478509l0,0
	l-0.1089239,0.647503c-0.0555954,0.3061697-0.1207485,0.6352682-0.1959972,0.9827967
	c-0.2869253,1.3251445-0.6608973,2.6510446-1.1335526,3.8937557c-0.6976433,1.8342533-1.5508995,3.3302221-2.5929098,4.3722324
	c-0.4491386,0.4491377-0.9255047,0.8178587-1.4256325,1.1094923c-1.750659,1.0208426-3.6083837,1.0426626-5.3314919,0.47437
	c-0.1729779-0.0570498-0.3277667-0.1145716-0.4627552-0.1695652l-1.8093162,1.8104153L1,14.0879736l1.8044243-1.8038511
	c-0.0566189-0.133275-0.1157215-0.2857199-0.174335-0.455864c-0.6218121-1.8050098-0.5665839-3.7617569,0.6352723-5.5977583
	c0.2660973-0.4065003,0.5852697-0.7976408,0.9593513-1.1717224c1.0096569-1.0096569,2.5702333-1.8599019,4.5406404-2.5846493
	c1.2014227-0.4419024,2.4838362-0.8104123,3.765605-1.1099828c0.2241106-0.0523782,0.4402819-0.1007531,0.6472197-0.1451769l0,0
	l0.591814-0.1214708L14.2488661,1.0089985z M13.5643787,2.4550295l-0.7398634,0.1651528
	c-1.2339678,0.2883985-2.467289,0.6428015-3.6138868,1.0645385C7.4001842,4.3506312,5.9871993,5.1204643,5.1367993,5.9708643
	c-0.312036,0.312036-0.575089,0.6344028-0.7922187,0.9660988C3.3902972,8.394763,3.3464711,9.9475307,3.8496377,11.4081326
	l-0.0426378-0.1281328L8.094368,6.9936056l0.9120865,0.9120865l-4.2732482,4.2745581
	c1.3600631,0.4145222,2.7932386,0.3713675,4.1326861-0.4096899c0.4035807-0.2353354,0.7919388-0.5359354,1.1633034-0.907299
	c0.8921785-0.8921785,1.6608028-2.2397671,2.2993698-3.9186959c0.4473133-1.176084,0.8042965-2.44175,1.0785074-3.7081716
	c0.0480337-0.2218385,0.0917397-0.4356706,0.131259-0.64013l0,0L13.5643787,2.4550295z"/>
</svg>
