<svg width="16" height="16" viewBox="0 0 16 16" fill="none" xmlns="http://www.w3.org/2000/svg">
<path fill-rule="evenodd" clip-rule="evenodd" d="M5 4C5 3.44772 4.55228 3 4 3C3.44772 3 3 3.44772 3 4V6C3 5.44772 2.55228 5 2 5C1.44772 5 1 5.44772 1 6V10C1 10.5523 1.44772 11 2 11C2.55228 11 3 10.5523 3 10V12C3 12.5523 3.44772 13 4 13C4.55228 13 5 12.5523 5 12V8.7H11V12C11 12.5523 11.4477 13 12 13C12.5523 13 13 12.5523 13 12V10C13 10.5523 13.4477 11 14 11C14.5523 11 15 10.5523 15 10V6C15 5.44772 14.5523 5 14 5C13.4477 5 13 5.44772 13 6V4C13 3.44772 12.5523 3 12 3C11.4477 3 11 3.44772 11 4V7.3H5V4Z" fill="#181C56"/>
</svg>
