<?xml version="1.0" encoding="utf-8"?>
<!-- Generator: Adobe Illustrator 24.0.1, SVG Export Plug-In . SVG Version: 6.00 Build 0)  -->
<svg version="1.1" id="Layer_1" xmlns="http://www.w3.org/2000/svg" xmlns:xlink="http://www.w3.org/1999/xlink" x="0px" y="0px"
	 width="16px" height="16px" viewBox="0 0 16 16" enable-background="new 0 0 16 16" xml:space="preserve">
<path id="path-1_1_" fill-rule="evenodd" clip-rule="evenodd" fill="#181C56" d="M9.7355375,1.58
	c1.6293879,0,2.9504128,1.3210253,2.9504128,2.9504132l0,0l-0.0009499,1.677587l0.5216112,0.0000992
	c0.9456778,0,1.7200289,0.7313657,1.7884712,1.6595144L15,8.0014877v5.7851238c0,0.3221664-0.2394037,0.5884161-0.5500126,0.6305542
	l-0.0863514,0.0058098H1.6363636c-0.3221661,0-0.5884166-0.2394037-0.6305543-0.5500135L1,13.7866116V8.0014877
	C1,7.05581,1.7313659,6.2814584,2.6595149,6.2130165l0.1338735-0.0049171l0.5206115-0.0000992l0.0000496-1.677587
	c0-1.5711954,1.2283514-2.8556609,2.7770622-2.9454043L6.2644629,1.58H9.7355375z M13.2066116,7.4808264L12.6850004,7.48v5.6699996
	h1.0422726V8.0014877c0-0.2590222-0.1886158-0.4735403-0.4361467-0.5138535L13.2066116,7.4808264z M3.3139999,7.48
	L2.7933884,7.4808264c-0.259022,0-0.4735398,0.1886158-0.5138533,0.4361467L2.2727273,8.0014877v5.1485119h1.0412726V7.48z
	 M9.9029531,9.790205L9.7355375,9.7948761L8.6359997,9.7939997l0.0003643,1.1579008H7.3636365L7.3629999,9.7939997
	l-1.098537,0.0008764c-0.6236701,0-1.2021627-0.1935406-1.6786895-0.5238333l0.0005903,3.8789568h6.8263636l0.0004206-3.8782101
	C10.9797707,9.5718899,10.4621468,9.7589207,9.9029531,9.790205z M9.7355375,2.8527272H6.2644629
	c-0.9264803,0-1.6776862,0.7512062-1.6776862,1.677686l0,0v2.3140497c0,0.880156,0.6779637,1.6021276,1.5401006,1.6721234
	l0.1375856,0.0055628l1.098537-0.0001488l0.0006366-1.1568766H8.636364L8.6359997,8.5220003l1.0995378,0.0001488
	c0.8801556,0,1.6021271-0.6779637,1.6721239-1.5401011l0.0055618-0.1375852V4.5304132
	c0-0.8801558-0.6779633-1.6021271-1.5401011-1.6721239l0,0L9.7355375,2.8527272z"/>
</svg>
