<?xml version="1.0" encoding="utf-8"?>
<!-- Generator: Adobe Illustrator 24.0.1, SVG Export Plug-In . SVG Version: 6.00 Build 0)  -->
<svg version="1.1" id="Layer_1" xmlns="http://www.w3.org/2000/svg" xmlns:xlink="http://www.w3.org/1999/xlink" x="0px" y="0px"
	 width="16px" height="16px" viewBox="0 0 16 16" enable-background="new 0 0 16 16" xml:space="preserve">
<path id="Fill-37" fill-rule="evenodd" clip-rule="evenodd" fill="#181C56" d="M15,1v1.3333333h-0.5457144l0.0002604,11.454546
	c0,0.3375072-0.2508039,0.616436-0.5762043,0.6605806L13.787879,14.454546l-0.5458794-0.0005455L13.242424,15h-1.333333
	l-0.0000906-0.5459995H3.5450001L3.5454545,15H2.2121212l-0.0001214-0.5459995L1.6666666,14.454546v-1.333334l11.4542856-0.0002594
	L13.121212,1.6666666c0-0.3375072,0.2508039-0.6164364,0.5762043-0.6605808L13.787879,1H15z M8.333333,1
	C8.6708403,1,8.94977,1.2508035,8.9939137,1.5762039L9,1.6666666L8.9989996,3.424l2.3646364,0.0002425
	c0.3347187,0,0.6118221,0.246675,0.6594391,0.5681515l0.0072279,0.098515v7.272727
	c0,0.3681898-0.2984772,0.666667-0.666667,0.666667l0,0h-9.696969C1.2984768,12.030303,1,11.7318258,1,11.363636l0,0V4.090909
	c0-0.3681898,0.2984768-0.6666665,0.6666666-0.6666665l0,0L4.0300002,3.424L4.030303,1.6666666
	c0-0.3375072,0.2508035-0.6164364,0.5762038-0.6605808L4.6969695,1H8.333333z M10.6960001,7.1810002H2.3329999l0.0003333,3.5151906
	h8.3628578L10.6960001,7.1810002z M10.6961908,4.757143H2.3333333L2.3329999,5.848h8.3629999L10.6961908,4.757143z
	 M7.6666665,2.3333333H5.3628573L5.3629999,3.424h2.303L7.6666665,2.3333333z"/>
</svg>
