<svg xmlns="http://www.w3.org/2000/svg" width="16" height="16" viewBox="0 0 16 16" fill="none">
	<path
		d="M7.99992 5.6964C8.54377 5.6964 8.98464 5.23802 8.98464 4.67258C8.98464 4.10714 8.54377 3.64876 7.99992 3.64876C7.45607 3.64876 7.01519 4.10714 7.01519 4.67258C7.01519 5.23802 7.45607 5.6964 7.99992 5.6964Z"
		fill="#181C56" />
	<path fill-rule="evenodd" clip-rule="evenodd"
		d="M7.99995 1.0011C9.88849 1.0011 11.401 2.50954 11.5432 4.38355L14.2298 3.58549C14.4113 3.53156 14.6076 3.56651 14.7594 3.67976C14.9112 3.79301 15.0006 3.97127 15.0006 4.16065V12.8631C15.0006 13.1188 14.8386 13.3463 14.5971 13.43L10.1658 14.9658C10.0311 15.0124 9.88422 15.0096 9.7514 14.9579L6.01825 13.5023L1.79565 14.9658C1.61223 15.0293 1.40939 15.0002 1.25124 14.8877C1.09309 14.7751 0.999176 14.593 0.999176 14.3988V5.69638C0.999176 5.43081 1.17375 5.19684 1.42832 5.12122L4.47306 4.21676C4.68948 2.42084 6.16777 1.0011 7.99995 1.0011ZM7.99995 2.2011C6.72157 2.2011 5.64577 3.28538 5.64577 4.67255C5.64577 4.97589 5.76053 5.41919 5.98652 5.9548C6.20682 6.47694 6.51017 7.0345 6.83403 7.54826C7.15819 8.0625 7.49328 8.5176 7.77054 8.83705C7.85757 8.93733 7.93455 9.01917 7.99995 9.08305C8.06535 9.01917 8.14233 8.93733 8.22936 8.83705C8.50662 8.5176 8.84171 8.0625 9.16587 7.54826C9.48973 7.0345 9.79308 6.47694 10.0134 5.9548C10.2394 5.41919 10.3541 4.97589 10.3541 4.67255C10.3541 3.28538 9.27833 2.2011 7.99995 2.2011Z"
		fill="#181C56" />
</svg>