<?xml version="1.0" encoding="utf-8"?>
<!-- Generator: Adobe Illustrator 24.0.1, SVG Export Plug-In . SVG Version: 6.00 Build 0)  -->
<svg version="1.1" id="Layer_1" xmlns="http://www.w3.org/2000/svg" xmlns:xlink="http://www.w3.org/1999/xlink" x="0px" y="0px"
	 width="16px" height="16px" viewBox="0 0 16 16" enable-background="new 0 0 16 16" xml:space="preserve">
<path id="Icon-Fill" fill-rule="evenodd" clip-rule="evenodd" fill="#181C56" d="M7.9998484,1
	c2.9456825,0,5.484849,2.2888908,5.484849,5.4848485c0,0.9066176-0.3577557,1.9470439-1.0036793,3.1121364
	c-0.4140205,0.7467937-0.9392385,1.5299597-1.5501871,2.3342361c-0.5419149,0.713397-1.1211967,1.4044867-1.7004738,2.0479078
	c-0.202837,0.225296-0.3913879,0.4287586-0.5609531,0.6071329l0,0l-0.2178173,0.2255831
	c-0.2489128,0.2508736-0.6545634,0.2508736-0.9034767,0l0,0l-0.3484774-0.3640175L6.76934,13.9791288
	c-0.5792775-0.6434212-1.1585588-1.3345108-1.7004738-2.0479078c-0.610949-0.8042765-1.1361666-1.5874424-1.5501869-2.3342361
	C2.8727548,8.4318924,2.5150001,7.3914661,2.5150001,6.4848485C2.5150001,3.2888908,5.0541663,1,7.9998484,1z M7.9998484,2.2727273
	c-2.2705288,0-4.212121,1.7502172-4.212121,4.212121c0,0.6484957,0.2934027,1.5017719,0.8440628,2.4950318
	c0.3814611,0.6880646,0.8738456,1.4222717,1.4505558,2.1814747c0.5186911,0.6828241,1.0757737,1.3474302,1.6328592,1.9662018l0,0
	l0.2843404,0.3115339l0.284946-0.3115339c0.557086-0.6187716,1.1141682-1.2833776,1.6328592-1.9662018
	c0.5767107-0.759203,1.0690947-1.4934101,1.4505558-2.1814747c0.5506601-0.9932599,0.8440628-1.8465362,0.8440628-2.4950318
	C12.2119694,4.0229445,10.2703772,2.2727273,7.9998484,2.2727273z M8,5c0.8284998,0,1.5,0.6715002,1.5,1.5S8.8284998,8,8,8
	S6.5,7.3284998,6.5,6.5S7.1715002,5,8,5z"/>
</svg>
