<svg width="16" height="16" viewBox="0 0 16 16" fill="none" xmlns="http://www.w3.org/2000/svg">
<path fill-rule="evenodd" clip-rule="evenodd" d="M7.00004 1.44922C7.22207 1.44922 7.42233 1.58272 7.50773 1.78768L9.42399 6.38671L9.97868 4.99999C10.0622 4.79118 10.2644 4.65426 10.4893 4.65426C10.7142 4.65426 10.9165 4.79118 11 4.99999L14.5107 13.795C14.5785 13.9644 14.5578 14.1564 14.4554 14.3076C14.3531 14.4587 14.1825 14.5492 14 14.5492H12.0011L12 14.5492L6.00001 14.5492L2.00004 14.5492C1.81614 14.5492 1.64442 14.4573 1.54241 14.3043C1.4404 14.1513 1.42162 13.9574 1.49234 13.7877L6.49234 1.78768C6.57774 1.58272 6.778 1.44922 7.00004 1.44922ZM12.3667 13.4492L10.0284 7.8374L10.4893 6.68518L13.1876 13.4492H12.3667ZM8.81095 7.7754L11.175 13.4492L6.00001 13.4492L2.82504 13.4492L5.05057 8.10793L5.48927 9.20466C5.5697 9.40576 5.76067 9.54092 5.97707 9.54992C6.19347 9.55892 6.395 9.44009 6.49186 9.24637L7.1506 7.92889L7.61102 8.38931C7.72753 8.50582 7.89015 8.56396 8.05412 8.54772C8.2181 8.53148 8.36615 8.44258 8.45756 8.30548L8.81095 7.7754ZM8.30247 6.55506L7.00004 3.42922L5.65503 6.65724L6.05572 7.65897L6.50799 6.75443C6.58706 6.5963 6.73732 6.48582 6.91183 6.4575C7.08634 6.42918 7.26382 6.48648 7.38884 6.61149L7.91444 7.1371L8.30247 6.55506Z" fill="#181C56"/>
</svg>
