<svg width="16" height="16" viewBox="0 0 16 16" fill="none" xmlns="http://www.w3.org/2000/svg">
<path fill-rule="evenodd" clip-rule="evenodd" d="M8.90499 10.1859C9.32315 10.1859 9.66214 9.8469 9.66214 9.42874C9.66214 9.01058 9.32315 8.67159 8.90499 8.67159C8.48684 8.67159 8.14785 9.01058 8.14785 9.42874C8.14785 9.8469 8.48684 10.1859 8.90499 10.1859ZM8.90499 11.2859C9.93067 11.2859 10.7621 10.4544 10.7621 9.42874C10.7621 8.40307 9.93067 7.57159 8.90499 7.57159C7.87932 7.57159 7.04785 8.40307 7.04785 9.42874C7.04785 10.4544 7.87932 11.2859 8.90499 11.2859Z" fill="#181C56"/>
<path fill-rule="evenodd" clip-rule="evenodd" d="M9.15107 1.50728C8.99623 1.42986 8.81398 1.42986 8.65914 1.50728L3.70676 3.98347C3.47861 4.09755 3.35883 4.35352 3.41744 4.60177C3.47604 4.85003 3.69765 5.02541 3.95272 5.02541H5.25977V9.17439L3.43964 10.7345H2.00004C1.69628 10.7345 1.45004 10.9807 1.45004 11.2845V14.3797C1.45004 14.6835 1.69628 14.9297 2.00004 14.9297H3.6431C3.77439 14.9297 3.90135 14.8828 4.00103 14.7973L5.25977 13.7184V14.9983H6.35977V13.0727H11.4502V14.9983H12.5502V13.3897L13.4502 13.8397V14.9997H14.5502V13.4997C14.5502 13.2914 14.4325 13.101 14.2462 13.0078L12.5502 12.1598V5.02541H13.8575C14.1126 5.02541 14.3342 4.85003 14.3928 4.60177C14.4514 4.35352 14.3316 4.09755 14.1035 3.98347L9.15107 1.50728ZM4.00103 11.7021L5.25977 10.6232V12.2696L3.43964 13.8297H2.55004V11.8345H3.6431C3.77439 11.8345 3.90135 11.7875 4.00103 11.7021ZM11.4502 11.9727H6.35977V6.8832H11.4502V11.9727ZM11.4502 5.7832H6.35977V5.02541H11.4502V5.7832ZM11.4502 3.88671L8.9051 2.61414L6.35977 3.88681V3.92541H11.4502V3.88671Z" fill="#181C56"/>
</svg>
