<svg width="16" height="16" viewBox="0 0 16 16" fill="none" xmlns="http://www.w3.org/2000/svg">
<path fill-rule="evenodd" clip-rule="evenodd" d="M9 1V2.59069C11.2358 3.00138 12.9986 4.76416 13.4093 7H15V9H13.4093C12.9986 11.2358 11.2358 12.9986 9 13.4093V15H7V13.4093C4.76416 12.9986 3.00138 11.2358 2.59069 9H1V7H2.59069C3.00138 4.76416 4.76416 3.00138 7 2.59069V1H9ZM4.5 8C4.5 6.067 6.067 4.5 8 4.5C9.933 4.5 11.5 6.067 11.5 8C11.5 9.933 9.933 11.5 8 11.5C6.067 11.5 4.5 9.933 4.5 8ZM8 6C9.10457 6 10 6.89543 10 8C10 9.10457 9.10457 10 8 10C6.89543 10 6 9.10457 6 8C6 6.89543 6.89543 6 8 6Z" fill="#181C56"/>
</svg>
