<svg width="16" height="16" viewBox="0 0 16 16" fill="none" xmlns="http://www.w3.org/2000/svg">
<path fill-rule="evenodd" clip-rule="evenodd" d="M8.6 1V2.43177C11.2135 2.71015 13.2898 4.78646 13.5682 7.4H15V8.6H13.5682C13.2898 11.2135 11.2135 13.2898 8.6 13.5682V15H7.4V13.5682C4.78646 13.2898 2.71015 11.2135 2.43177 8.6H1V7.4H2.43177C2.71015 4.78646 4.78646 2.71015 7.4 2.43177V1H8.6ZM3.6 8C3.6 5.56995 5.56995 3.6 8 3.6C10.4301 3.6 12.4 5.56995 12.4 8C12.4 10.4301 10.4301 12.4 8 12.4C5.56995 12.4 3.6 10.4301 3.6 8ZM6.6 8C6.6 8.7732 7.2268 9.4 8 9.4C8.7732 9.4 9.4 8.7732 9.4 8C9.4 7.2268 8.7732 6.6 8 6.6C7.2268 6.6 6.6 7.2268 6.6 8ZM8 10.6C6.56406 10.6 5.4 9.43594 5.4 8C5.4 6.56406 6.56406 5.4 8 5.4C9.43594 5.4 10.6 6.56406 10.6 8C10.6 9.43594 9.43594 10.6 8 10.6Z" fill="#181C56"/>
</svg>
