<?xml version="1.0" encoding="utf-8"?>
<!-- Generator: Adobe Illustrator 24.2.3, SVG Export Plug-In . SVG Version: 6.00 Build 0)  -->
<svg version="1.1" id="Layer_1" xmlns="http://www.w3.org/2000/svg" xmlns:xlink="http://www.w3.org/1999/xlink" x="0px" y="0px"
	 width="12px" height="14px" viewBox="0 0 12 14" enable-background="new 0 0 12 14" xml:space="preserve">
<g id="_x30_5.-Icons">
	<g id="_x30_3---Iconography" transform="translate(-1354.000000, -504.000000)">
		<g id="Icon-Fill" transform="translate(1352.000000, 503.000000)">
			<path fill-rule="evenodd" clip-rule="evenodd" fill="#181C56" d="M13.9969158,7.9766612l0.0010281-0.0030308
				c0.0041122-0.5284052-0.4266844-0.9608278-0.9644089-0.9649138c-0.5366964-0.0050073-0.9767466,0.419333-0.9818878,0.9467278
				v0.0181861v0.4101958c-0.0030842,0.1505394,0.1192665,0.2758207,0.27349,0.2788525
				c0.1531944,0.0030308,0.2796574-0.1171989,0.2837696-0.2677393V8.3858471V7.97262
				c0-0.226315,0.1860962-0.4091854,0.4164028-0.4091854c0.2292786,0,0.4153748,0.1828704,0.4153748,0.4091854l0.0020561,0.0090928
				v2.9926105v1.0679235v2.6773853c-0.0020561,0.1515503,0.1202936,0.2758217,0.2745171,0.2778978
				C13.8704529,15.0005054,13.9969158,14.8802757,14,14.7287254v-2.6864786v-1.0669136v-2.998672H13.9969158z M5.5658274,11.5279493
				L5.4471731,11.521843C5.0189848,11.4709558,4.6661162,11.1524,4.5846057,10.7249441l-1.230912-6.4840946H2l1.2773421,6.7253017
				l0.0361123,0.1608047c0.2661989,1.0035028,1.1875775,1.7138929,2.252373,1.7138929h1.2948823h1.3309951H9.5l-0.0010319-1.3128996
				H5.5658274z M10.170948,9.4532652H7.7044058L9.0070772,5.265429l4.340867,0.8779807
				c0.0349579,0.0070724,0.0699148,0.0101032,0.1038437,0.0101032c0.2395601,0,0.4534159-0.1636739,0.5037956-0.4031234
				c0.0565491-0.27279-0.1223497-0.5405288-0.3999519-0.596097L7.8894734,4.0075631
				c-0.054492-0.006062-0.2076874-0.006062-0.2076874-0.006062c-0.5438933,0-1.0456328,0.3364415-1.2121935,0.873939
				L5.1391606,9.1471338c-0.2046027,0.660758,0.17273,1.3588991,0.8451428,1.5609665
				c0.0812244,0.0242481,0.2930241,0.0596094,0.4246278,0.0596094h3.5090909l0.5911884,3.6776171
				C10.5616465,14.7696438,10.845417,15,11.1682577,15c0.0349569,0,0.0699139-0.0030308,0.1058998-0.0090933
				c0.3639669-0.0555677,0.6127796-0.3920097,0.5552034-0.7506781l-0.6302586-3.9241381
				C11.118906,9.8159752,10.6860533,9.4532652,10.170948,9.4532652 M8.6799183,3.6800001
				c0.7412996,0,1.3407135-0.6001227,1.3407135-1.3400002S9.4212179,1,8.6799183,1
				c-0.7402711,0-1.340713,0.6001227-1.340713,1.3399999S7.9396472,3.6800001,8.6799183,3.6800001"/>
		</g>
	</g>
</g>
</svg>
