<?xml version="1.0" encoding="utf-8"?>
<!-- Generator: Adobe Illustrator 24.2.3, SVG Export Plug-In . SVG Version: 6.00 Build 0)  -->
<svg version="1.1" id="Layer_1" xmlns="http://www.w3.org/2000/svg" xmlns:xlink="http://www.w3.org/1999/xlink" x="0px" y="0px"
	 width="10px" height="14px" viewBox="0 0 10 14" enable-background="new 0 0 10 14" xml:space="preserve">
<g id="_x30_5.-Icons">
	<g id="_x30_3---Iconography" transform="translate(-1319.000000, -504.000000)">
		<g id="Icon-Fill" transform="translate(1316.000000, 503.000000)">
			<path fill-rule="evenodd" clip-rule="evenodd" fill="#181C56" d="M6.3633523,4.0787001
				c0.6994896-0.142,1.3837061,0.2989998,1.5282874,0.9860001l0,0l0.2535267,1.2019997
				C8.2296753,6.2567,8.3141842,6.2497001,8.3986931,6.2477002c1.3857422,0,2.5087948,1.1029997,2.5087948,2.4640002
				c-0.0010185,0.2209997-0.0397091,0.441-0.1028366,0.6539993l0,0l0.5009451-0.0009995
				c0.523344,0,0.9621792,0.368,1.044652,0.8769999l0,0l0.6414528,3.9860001
				c0.0580359,0.3649998-0.1944723,0.7059994-0.5650892,0.7629995C12.390975,14.9967003,12.3543205,15.0007,12.3197031,15.0007
				c-0.3288727,0-0.6170168-0.2360001-0.6699629-0.5640001l0,0l-0.6007252-3.7369995H7.4762225
				c-0.647562,0-1.1973791-0.4549999-1.3083606-1.0820007l0,0L5.3767366,5.6637001V5.6627002L5.3594275,5.5797
				C5.2148461,4.8927002,5.6648812,4.2206998,6.3633523,4.0787001z M4.3530359,4.0693998l1.2314034,6.4839621
				c0.0814233,0.427372,0.434258,0.7466621,0.8624849,0.7972326l0,0l0.1186166,0.0069408h3.933454L10.5,12.6694002H6.5655408
				c-1.0645356,0-1.9863291-0.7109652-2.2527142-1.7124643l0,0l-0.0361881-0.1606359L3,4.0693998H4.3530359z M6.2704682,0.9997
				c0.739552,0,1.3400002,0.599,1.3400002,1.339c0,0.7389998-0.6004481,1.339-1.3400002,1.339s-1.3399997-0.6000001-1.3399997-1.339
				C4.9304686,1.5987,5.5309167,0.9997,6.2704682,0.9997z"/>
		</g>
	</g>
</g>
</svg>
