<svg width="16" height="16" viewBox="0 0 16 16" fill="none" xmlns="http://www.w3.org/2000/svg">
<path fill-rule="evenodd" clip-rule="evenodd" d="M1.59921 2.49878C1.26784 2.49878 0.999207 2.76741 0.999207 3.09878V6.09133C0.999207 6.35354 1.16947 6.58537 1.41966 6.66384C1.98849 6.84223 2.40002 7.37385 2.40002 8.00003C2.40002 8.6262 1.98849 9.15783 1.41966 9.33622C1.16947 9.41468 0.999207 9.64651 0.999207 9.90872V12.9011C0.999207 13.2325 1.26784 13.5011 1.59921 13.5011H14.4007C14.732 13.5011 15.0007 13.2325 15.0007 12.9011V9.90866C15.0007 9.64648 14.8304 9.41465 14.5803 9.33617C14.0115 9.15774 13.6 8.62615 13.6 8.00003C13.6 7.3739 14.0115 6.84231 14.5803 6.66388C14.8304 6.5854 15.0007 6.35357 15.0007 6.09139V3.09878C15.0007 2.76741 14.732 2.49878 14.4007 2.49878H1.59921ZM7.01518 6.28461C7.01518 6.69064 6.68452 7.01979 6.27663 7.01979C5.86874 7.01979 5.53809 6.69064 5.53809 6.28461C5.53809 5.87859 5.86874 5.54944 6.27663 5.54944C6.68452 5.54944 7.01518 5.87859 7.01518 6.28461ZM10.4618 9.7154C10.4618 10.1214 10.1311 10.4506 9.72322 10.4506C9.31534 10.4506 8.98468 10.1214 8.98468 9.7154C8.98468 9.30937 9.31534 8.98022 9.72322 8.98022C10.1311 8.98022 10.4618 9.30937 10.4618 9.7154ZM9.54613 5.61432L5.60722 9.53525L6.45381 10.3857L10.3927 6.46478L9.54613 5.61432Z" fill="#181C56"/>
</svg>
