<svg width="16" height="16" viewBox="0 0 16 16" fill="none" xmlns="http://www.w3.org/2000/svg">
<path d="M6.27662 7.01974C6.68451 7.01974 7.01517 6.69059 7.01517 6.28456C7.01517 5.87854 6.68451 5.54939 6.27662 5.54939C5.86874 5.54939 5.53808 5.87854 5.53808 6.28456C5.53808 6.69059 5.86874 7.01974 6.27662 7.01974Z" fill="#181C56"/>
<path d="M10.4618 9.71538C10.4618 10.1214 10.1311 10.4506 9.72322 10.4506C9.31533 10.4506 8.98467 10.1214 8.98467 9.71538C8.98467 9.30935 9.31533 8.98021 9.72322 8.98021C10.1311 8.98021 10.4618 9.30935 10.4618 9.71538Z" fill="#181C56"/>
<path d="M9.54613 5.61429L5.60722 9.53522L6.4538 10.3857L10.3927 6.46476L9.54613 5.61429Z" fill="#181C56"/>
<path fill-rule="evenodd" clip-rule="evenodd" d="M1.59918 2.49878C1.26781 2.49878 0.999176 2.76741 0.999176 3.09878V6.09133C0.999176 6.35354 1.16944 6.58537 1.41963 6.66384C1.98846 6.84223 2.39999 7.37385 2.39999 8.00003C2.39999 8.6262 1.98846 9.15783 1.41963 9.33622C1.16944 9.41468 0.999176 9.64651 0.999176 9.90872V12.9011C0.999176 13.2325 1.26781 13.5011 1.59918 13.5011H14.4006C14.732 13.5011 15.0006 13.2325 15.0006 12.9011V9.90866C15.0006 9.64648 14.8304 9.41465 14.5802 9.33617C14.0115 9.15774 13.6 8.62615 13.6 8.00003C13.6 7.3739 14.0115 6.84231 14.5802 6.66388C14.8304 6.5854 15.0006 6.35357 15.0006 6.09139V3.09878C15.0006 2.76741 14.732 2.49878 14.4006 2.49878H1.59918ZM2.19918 5.69268V3.69878H13.8006V5.69277C12.9687 6.12607 12.4 6.99605 12.4 8.00003C12.4 9.004 12.9687 9.87398 13.8006 10.3073V12.3011H2.19918V10.3074C3.03119 9.87411 3.59999 9.00408 3.59999 8.00003C3.59999 6.99598 3.03119 6.12594 2.19918 5.69268Z" fill="#181C56"/>
</svg>
