<?xml version="1.0" encoding="utf-8"?>
<!-- Generator: Adobe Illustrator 24.2.3, SVG Export Plug-In . SVG Version: 6.00 Build 0)  -->
<svg version="1.1" id="Layer_1" xmlns="http://www.w3.org/2000/svg" xmlns:xlink="http://www.w3.org/1999/xlink" x="0px" y="0px"
	 width="14px" height="14px" viewBox="0 0 14 14" enable-background="new 0 0 14 14" xml:space="preserve">
<g id="_x30_5.-Icons">
	<g id="_x30_3---Iconography" transform="translate(-1425.000000, -504.000000)">
		<g id="Icon-Fill" transform="translate(1424.000000, 503.000000)">
			<path fill-rule="evenodd" clip-rule="evenodd" fill="#181C56" d="M6.3501496,1l0.2734356,0.2551458
				c0.0440702,0.0410235,1.0767145,1.0245855,1.0767145,2.7955973L7.7493777,15H5V4.0507431
				c0-1.7710118,1.0316429-2.7545738,1.0757127-2.7955973L6.3501496,1z M9.7579765,1l0.2734346,0.2551458
				c0.0440702,0.0410235,1.0767145,1.0245855,1.0767145,2.7955973L11.1572046,15H8.4078264V4.0507431
				c0-1.7710118,1.0316429-2.7545738,1.0757132-2.7955973L9.7579765,1z M10.3330564,10.1088963
				c-0.1720266,0.0789413-0.3632221,0.1229792-0.5644636,0.1229792c-0.1989679,0-0.388072-0.0429335-0.5585489-0.1200085
				l0.0000601,4.0866747h1.141818L10.3330564,10.1088963z M6.9262304,10.1084366
				c-0.172286,0.0792303-0.363833,0.1234388-0.5654635,0.1234388c-0.1991668,0-0.3884501-0.0430193-0.5590601-0.1202393
				l0.0005708,4.0869055h1.141818L6.9262304,10.1084366z M2.9551132,2L2.95,12.4499998l0.6593549,0.0001717v0.8014584
				l-0.6603551-0.0006294l0.0001037,0.8108921H2.146826l-0.0008261-0.8108921l-0.6560197,0.0006294v-0.8014584l0.6570199-0.0001717
				L2.151834,5.3999429C1.5376561,5.2897463,1.0665683,4.8518252,1.0064862,4.3147726L1,4.198256l0.0010016-0.9695539
				c0-0.6294222,0.5642774-1.1480389,1.2876155-1.2186515L2.4352853,2.002001L2.4372885,2H2.9551132z M13.5647144,1.9682533
				c0.7446232,0.0121945,1.3545589,0.4922343,1.4278927,1.105395L15,3.1979561v0.9685535
				c0,0.5509815-0.431015,1.017417-1.022687,1.1739659l-0.1291475,0.0287213l-0.0004253,7.0490561l0.6593752,0.0005722v0.8014574
				l-0.6593752-0.0000296l0.0004253,0.8098927h-0.8022766l-0.0001488-0.8098927l-0.658,0.0000296v-0.8014574l0.658-0.0005722
				l0.0001488-10.4499998H13.5647144z M6.3607669,7.7524586c-0.3047209,0-0.5527606,0.2440658-0.5587783,0.5470457L5.802,8.8830004
				l0.0071964,0.0796175c0.0433412,0.2651834,0.2739282,0.4677992,0.5515704,0.4677992
				c0.3084912,0,0.557888-0.2501431,0.557888-0.5583191L6.9180002,8.4619999L6.9169998,8.3009996L6.9113636,8.2202578
				C6.8681846,7.9550743,6.6384087,7.7524586,6.3607669,7.7524586z M9.7685928,7.7524586
				c-0.3047209,0-0.5527601,0.2440658-0.5587778,0.5470457L9.21,8.8830004l0.0070229,0.0796175
				c0.0433407,0.2651834,0.2739277,0.4677992,0.5515699,0.4677992c0.3084917,0,0.557889-0.2501431,0.557889-0.5583191
				l-0.0004816-0.1890984l-0.0019999-0.3959999L10.31919,8.2202578C10.2760115,7.9550743,10.0462351,7.7524586,9.7685928,7.7524586z
				 M6.3501496,2.1806746c-0.2393808,0.3572042-0.5478721,0.988565-0.5478721,1.8700686L5.8017068,7.0720663
				c0.17061-0.0771165,0.3598933-0.1200652,0.5590601-0.1200652c0.1965609,0,0.3835382,0.041944,0.5524306,0.1173577
				L6.8980222,4.0507431C6.8980222,3.1692395,6.5895309,2.5378788,6.3501496,2.1806746z M9.7579765,2.1806746
				C9.5185947,2.5378788,9.210104,3.1692395,9.210104,4.0507431L9.2100439,7.071836
				c0.1704769-0.0769715,0.359581-0.1198349,0.5585489-0.1198349c0.1961708,0,0.3827963,0.0417781,0.5514259,0.1169095
				l-0.0141706-3.0181675C10.3058481,3.1692395,9.9973574,2.5378788,9.7579765,2.1806746z M2.1538372,2.8604918
				C1.9795598,2.9239566,1.8464907,3.0344687,1.8120277,3.1636736L1.803279,3.2297027L1.8022774,4.198256
				c0,0.1346483,0.1081723,0.2553296,0.2671193,0.3343196l0.0834389,0.035892L2.1538372,2.8604918z M13.8481655,2.8277445v1.7089763
				c0.2013206-0.0750427,0.3505583-0.2131214,0.3505583-0.3702111l0,0V3.1979561
				C14.1987238,3.0418668,14.0494862,2.9037879,13.8481655,2.8277445L13.8481655,2.8277445z"/>
		</g>
	</g>
</g>
</svg>
