<?xml version="1.0" encoding="utf-8"?>
<!-- Generator: Adobe Illustrator 24.2.3, SVG Export Plug-In . SVG Version: 6.00 Build 0)  -->
<svg version="1.1" id="Layer_1" xmlns="http://www.w3.org/2000/svg" xmlns:xlink="http://www.w3.org/1999/xlink" x="0px" y="0px"
	 width="14px" height="12px" viewBox="0 0 14 12" enable-background="new 0 0 14 12" xml:space="preserve">
<g id="_x30_5.-Icons">
	<g id="_x30_3---Iconography" transform="translate(-1245.000000, -505.000000)">
		<g id="Group" transform="translate(1244.000000, 503.000000)">
			<g id="Icon-Fill">
				<path id="path-1_1_" fill-rule="evenodd" clip-rule="evenodd" fill="#181C56" d="M1.7259259,14
					C1.3250082,14,1,13.6967087,1,13.3225803l0,0V5.5806451c0-0.3741283,0.3250082-0.6774192,0.7259259-0.6774192l0,0
					l3.2660742-0.000226l0.0005927-2.2255805c0-0.3429511,0.273097-0.626379,0.6274219-0.6712353L5.7185187,2h4.562963
					c0.3675079,0,0.6712303,0.2548487,0.7192993,0.5854976l0.0066261,0.0919218L11.007,4.9029999l3.2670746,0.000226
					c0.3675079,0,0.6712303,0.2548485,0.7192984,0.5854974L15,5.5806451v7.7419353C15,13.6967087,14.6749916,14,14.2740746,14l0,0
					H1.7259259z M3.2809999,6.2579999L2.4518518,6.2580647v6.3870969l0.8291481-0.0001612V6.2579999z M11.2659998,6.2579999h-6.533
					v6.3870006h6.533V6.2579999z M13.5481482,6.2580647l-0.8301477-0.0000648v6.3870006l0.8301477,0.0001612V6.2580647z
					 M9.5545187,3.3548386h-3.110074L6.4439998,4.9029999h3.1110005L9.5545187,3.3548386z"/>
			</g>
		</g>
	</g>
</g>
</svg>
