<?xml version="1.0" encoding="utf-8"?>
<!-- Generator: Adobe Illustrator 22.0.1, SVG Export Plug-In . SVG Version: 6.00 Build 0)  -->
<svg version="1.1" id="Layer_1" xmlns="http://www.w3.org/2000/svg" xmlns:xlink="http://www.w3.org/1999/xlink" x="0px" y="0px"
	 viewBox="0 0 16 16" enable-background="new 0 0 16 16" xml:space="preserve">
<title>Icon/Travel/Track</title>
<desc>Created with Sketch.</desc>
<g id="Icon_x2F_Travel_x2F_Track">
	<g id="Icon-Fill">
		<path id="path-1_1_" fill="#181C56" d="M11.4921,9.4665H4.5377l-0.44444,1.4933h7.84329L11.4921,9.4665z M13.10321,9.4665
			l0.44444,1.4933h0.70569C14.66571,10.9598,15,11.29409,15,11.70645s-0.33429,0.74665-0.74665,0.74665H13.9921l0.16724,0.56193
			c0.15556,0.37333-0.15556,0.82132-0.54444,0.89598c-0.38889,0.14933-0.77778-0.07467-0.93333-0.44799l-0.30058-1.00992H3.64881
			l-0.30058,1.00992c-0.15556,0.37333-0.54444,0.59732-1.01111,0.52266c-0.38889-0.14933-0.62222-0.52266-0.54444-0.89598
			l0.18947-0.63659H1.74665C1.33429,12.45311,1,12.11882,1,11.70645s0.33429-0.74665,0.74665-0.74665h0.67994l0.44444-1.4933
			H2.52443c-0.41236,0-0.74665-0.33429-0.74665-0.74665S2.11207,7.9732,2.52443,7.9732h0.79105l0.44444-1.4933H3.30221
			c-0.41236,0-0.74665-0.33429-0.74665-0.74665c0-0.41236,0.33429-0.74665,0.74665-0.74665h0.90216l0.69942-2.35001
			C5.05935,2.18859,5.44824,1.96459,5.9149,2.03926C6.30379,2.18859,6.53712,2.56191,6.45935,3.0099L5.87103,4.98659h4.28773
			L9.57046,3.0099C9.49268,2.56191,9.72601,2.18859,10.1149,2.03926c0.38889-0.14933,0.85556,0.14933,0.93333,0.52266
			l0.72165,2.42468h0.92791c0.41236,0,0.74665,0.33429,0.74665,0.74665c0,0.41236-0.33429,0.74665-0.74665,0.74665h-0.48347
			l0.44444,1.4933h0.8168c0.41236,0,0.74665,0.33429,0.74665,0.74665S13.88793,9.4665,13.47557,9.4665H13.10321z M11.04766,7.9732
			l-0.44444-1.4933H5.42659L4.98215,7.9732H11.04766z"/>
	</g>
</g>
</svg>
