<svg width="16" height="16" viewBox="0 0 16 16" fill="none" xmlns="http://www.w3.org/2000/svg">
<path fill-rule="evenodd" clip-rule="evenodd" d="M7.69483 1.54159C7.87957 1.41843 8.12025 1.41843 8.305 1.54159L14.305 5.54159C14.5067 5.67603 14.5965 5.92663 14.5263 6.1586C14.4561 6.39057 14.2423 6.54922 13.9999 6.54922H13.65V13.9492H15V15.0492H1V13.9492H2.35V6.54922H1.99991C1.75755 6.54922 1.54375 6.39057 1.47351 6.1586C1.40328 5.92663 1.49317 5.67603 1.69483 5.54159L7.69483 1.54159ZM12.35 13.9492V6.54922H11.15V13.9492H12.35ZM8.65 6.54922H9.85V13.9492H8.65V6.54922ZM6.15 6.54922H7.35V13.9492H6.15V6.54922ZM4.85 6.54922H3.65V13.9492H4.85V6.54922ZM12.1834 5.44922L7.99991 2.66024L3.81644 5.44922H12.1834Z" fill="#181C56"/>
</svg>
