<?xml version="1.0" encoding="utf-8"?>
<!-- Generator: Adobe Illustrator 24.0.1, SVG Export Plug-In . SVG Version: 6.00 Build 0)  -->
<svg version="1.1" id="Layer_1" xmlns="http://www.w3.org/2000/svg" xmlns:xlink="http://www.w3.org/1999/xlink" x="0px" y="0px"
	 width="16px" height="16px" viewBox="0 0 16 16" enable-background="new 0 0 16 16" xml:space="preserve">
<path id="path-1_1_" fill-rule="evenodd" clip-rule="evenodd" fill="#181C56" d="M6.8157897,1
	c1.7806211,0,3.2201962,1.3504069,3.3112197,3.0668421l0.0045691,0.1728272v5.7851243
	c0,1.1613712-0.9429197,2.0826445-2.1315784,2.0826445c-1.1391315,0-2.0525756-0.8460999-2.1267185-1.9387732l-0.0048604-0.1438713
	V5.1074381h1.3026314v4.9173555c0,0.4584627,0.3597121,0.8099174,0.8289475,0.8099174
	c0.4331408,0,0.7729588-0.2994642,0.8226757-0.7061291l0.0062714-0.1037884V4.2396693
	c0-1.0948269-0.8926058-1.9669421-2.0131574-1.9669421c-1.0718322,0-1.9351091,0.7979276-2.0081506,1.825455L4.8026314,4.2396693
	v6.3636365c0,1.7311907,1.4255013,3.1239672,3.1973686,3.1239672c1.7128048,0,3.1019506-1.3014727,3.1926565-2.9520149
	l0.0047121-0.1719522V3.3719008H12.5v7.2314053C12.5,13.0374041,10.491291,15,8,15
	c-2.4239588,0-4.3910685-1.8579426-4.4956284-4.2003975L3.5,10.6033058V4.2396693C3.5,2.4419346,4.9758143,1,6.8157897,1z"/>
</svg>
