<?xml version="1.0" encoding="utf-8"?>
<!-- Generator: Adobe Illustrator 24.0.1, SVG Export Plug-In . SVG Version: 6.00 Build 0)  -->
<svg version="1.1" id="Layer_1" xmlns="http://www.w3.org/2000/svg" xmlns:xlink="http://www.w3.org/1999/xlink" x="0px" y="0px"
	 width="16px" height="16px" viewBox="0 0 16 16" enable-background="new 0 0 16 16" xml:space="preserve">
<path id="path-1_1_" fill-rule="evenodd" clip-rule="evenodd" fill="#181C56" d="M9.1881189,1
	c2.0010967,0,3.6237621,1.580199,3.6237621,3.5289254c0,1.0547423-0.4753571,2.0015249-1.2287884,2.6482291
	C13.0115376,7.8347325,14,9.2511358,14,10.8925619c0,2.203826-1.7818537,4.0020132-4.0192556,4.1029682L9.7821779,15H2v-1.272727
	h1.1874399l0.0006788-6.3057852L3.188,2.2720001L2,2.2727273V1H9.1881189z M9.7821779,8.0578508L4.4943705,8.0572729v5.6700001
	h5.2878075c1.6078138,0,2.9108915-1.2689753,2.9108915-2.8347111c0-1.5117455-1.2147598-2.7468424-2.7456932-2.830224
	L9.7821779,8.0578508z M4.4949999,6.7849998l4.693119,0.000124c1.2792988,0,2.3168316-1.0103793,2.3168316-2.2561984
	c0-1.1959858-0.9561901-2.1749911-2.1645269-2.2513978L9.1881189,2.2727273l-4.693119-0.0007272V6.7849998z"/>
</svg>
