<?xml version="1.0" encoding="utf-8"?>
<!-- Generator: Adobe Illustrator 24.0.1, SVG Export Plug-In . SVG Version: 6.00 Build 0)  -->
<svg version="1.1" id="Layer_1" xmlns="http://www.w3.org/2000/svg" xmlns:xlink="http://www.w3.org/1999/xlink" x="0px" y="0px"
	 width="16px" height="16px" viewBox="0 0 16 16" enable-background="new 0 0 16 16" xml:space="preserve">
<path id="path-1_1_" fill-rule="evenodd" clip-rule="evenodd" fill="#181C56" d="M2.75,1.5799999
	c-0.9667413,0-1.75,0.7832587-1.75,1.75s0.7832587,1.75,1.75,1.75s1.75-0.7832584,1.75-1.75S3.7167413,1.5799999,2.75,1.5799999z
	 M2.75,6.27C1.7832587,6.27,1,7.0533948,1,8.0203037s0.7832587,1.7503042,1.75,1.7503042S4.5,8.9872131,4.5,8.0203037
	S3.7167413,6.27,2.75,6.27z M2.75,10.9499998c-0.9667413,0-1.75,0.7833948-1.75,1.7503042s0.7832587,1.7503042,1.75,1.7503042
	S4.5,13.6672134,4.5,12.700304S3.7167413,10.9499998,2.75,10.9499998z M15,2.6711712v1.4000001H6V2.6711712H15z M15,7.3558559
	v1.3999996H6V7.3558559H15z M15,12.0405407v1.3999996H6v-1.3999996H15z"/>
</svg>
