<?xml version="1.0" encoding="utf-8"?>
<!-- Generator: Adobe Illustrator 24.0.1, SVG Export Plug-In . SVG Version: 6.00 Build 0)  -->
<svg version="1.1" id="Layer_1" xmlns="http://www.w3.org/2000/svg" xmlns:xlink="http://www.w3.org/1999/xlink" x="0px" y="0px"
	 width="16px" height="16px" viewBox="0 0 16 16" enable-background="new 0 0 16 16" xml:space="preserve">
<path id="path-1_1_" fill-rule="evenodd" clip-rule="evenodd" fill="#181C56" d="M1.3614527,4.6172638V4.1898875l0.4672866-0.037869
	c0.0760698-0.0054097,0.086937-0.0270491,0.086937-0.1081967V2.1551905c0-0.064918-0.0156969-0.0973771-0.0706363-0.1136065
	L1.3723198,1.9442072L1.4320891,1.5h1.3046591v2.5438218c0,0.0865574,0.0054336,0.102787,0.086937,0.1081967l0.4455523,0.037869
	v0.4273763H1.3614527L1.3614527,4.6172638z M1.0789074,9.4666348V8.963521l0.7287014-0.7092896
	c0.5487899-0.5301628,0.7824332-0.7465563,0.7824332-1.0549164c0-0.2001634-0.0978041-0.3462291-0.385783-0.3462291
	c-0.2994498,0-0.4244218,0.0973773-0.4244218,0.4814749l-0.7389647-0.064918
	C1.046306,6.4094801,1.7037673,6.2682233,2.2742915,6.2682233c0.8428061,0,1.1416521,0.357049,1.1416521,0.8661742
	c0,0.5085239-0.3531816,0.8439331-0.7498319,1.222621L2.0515153,8.9418812H2.850853
	c0.0543356,0,0.0760698-0.0108194,0.086937-0.0649176L3.01386,8.4495869h0.5759578v1.0170479H1.0789074L1.0789074,9.4666348z
	 M2.9132183,12.6167784c0.4624567,0.0703278,0.7172303,0.3462286,0.7172303,0.8331137
	c0,0.7146988-0.5379229,1.050108-1.3149223,1.050108C1.7667363,14.5,1.2777154,14.3052464,1,14.0022955l0.4346851-0.4760647
	c0.2070792,0.2001638,0.4346851,0.3564472,0.8156384,0.3564472c0.3042796,0,0.5650904-0.1075954,0.5650904-0.4868841
	c0-0.3299999-0.2064753-0.4652452-0.5433562-0.4652452c-0.1358392,0-0.2390769,0.0108194-0.4026875,0.0378685V12.427434
	l0.2668483-0.0324583c0.3912168-0.0486889,0.6031256-0.2380333,0.6031256-0.5842619
	c0-0.2061749-0.0923705-0.3732786-0.3966501-0.3732786c-0.2934124,0-0.4346851,0.0973778-0.4346851,0.4814749l-0.7443982-0.0655184
	c0-0.8547535,0.646594-1.0008192,1.2171183-1.0008192c0.8367689,0,1.1579528,0.3191805,1.1579528,0.898633
	c0,0.4544258-0.283149,0.741147-0.6254635,0.8439331V12.6167784z M15,2.3674963v1.3999999H5V2.3674963H15z M15,7.1762333v1.3999996
	H5V7.1762333H15z M15,11.9849701v1.4000006H5v-1.4000006H15z"/>
</svg>
