<?xml version="1.0" encoding="utf-8"?>
<!-- Generator: Adobe Illustrator 24.0.1, SVG Export Plug-In . SVG Version: 6.00 Build 0)  -->
<svg version="1.1" id="Layer_1" xmlns="http://www.w3.org/2000/svg" xmlns:xlink="http://www.w3.org/1999/xlink" x="0px" y="0px"
	 width="16px" height="16px" viewBox="0 0 16 16" enable-background="new 0 0 16 16" xml:space="preserve">
<path id="path-1_1_" fill-rule="evenodd" clip-rule="evenodd" fill="#181C56" d="M14.363636,11.4132233
	c0.3514547,0,0.636364,0.2849092,0.636364,0.636364l0,0v2.3140488C15,14.7150908,14.7150908,15,14.363636,15l0,0H1.6363636
	C1.2849097,15,1,14.7150908,1,14.363636l0,0v-2.3140488c0-0.3514547,0.2849097-0.636364,0.6363636-0.636364l0,0H14.363636z
	 M13.727273,12.6854544H2.2727273v1.0418186h11.454546V12.6854544z M8.5785122,1C8.8175669,1,9.03368,1.1335808,9.1422815,1.3411437
	L9.177803,1.4223313L11.9189997,9.099l1.3454628,0.0001736v1.272727H9.6776857v-1.272727L10.5670004,9.099L9.7819996,6.9000001
	H6.217L5.4320002,9.099l0.8903141,0.0001736v1.272727h-3.586777v-1.272727L4.0799999,9.099l1.0839429-3.0333924
	c0.0015574-0.0047393,0.0031691-0.0094538,0.0048347-0.0141435l1.65342-4.6291327
	C6.9025998,1.197204,7.1010852,1.0386091,7.3330827,1.0061452L7.4214878,1H8.5785122z M8.1300001,2.2727273H7.869091
	L6.671,5.6279998h2.6570001L8.1300001,2.2727273z"/>
</svg>
