<?xml version="1.0" encoding="utf-8"?>
<!-- Generator: Adobe Illustrator 24.0.1, SVG Export Plug-In . SVG Version: 6.00 Build 0)  -->
<svg version="1.1" id="Layer_1" xmlns="http://www.w3.org/2000/svg" xmlns:xlink="http://www.w3.org/1999/xlink" x="0px" y="0px"
	 width="16px" height="16px" viewBox="0 0 16 16" enable-background="new 0 0 16 16" xml:space="preserve">
<path id="path-1_1_" fill-rule="evenodd" clip-rule="evenodd" fill="#181C56" d="M15,13.727273V15H1v-1.272727H15z M5.7438016,1
	v1.2727273L4.586,2.2720001L4.5867767,8c0,1.8850746,1.5281482,3.4132233,3.4132233,3.4132233
	c1.8242664,0,3.3142614-1.4311485,3.4084921-3.2319498L11.4132233,8l-0.0002232-5.7279997l-1.1568022,0.0007272V1h3.5867777
	v1.2727273l-1.1579752-0.0007272L12.6859503,8c0,2.5879831-2.0979671,4.6859503-4.6859503,4.6859503
	c-2.5216241,0-4.5780401-1.9917583-4.6818395-4.4878683L3.3140495,8L3.3139999,2.2720001l-1.156975,0.0007272V1H5.7438016z"/>
</svg>
