<?xml version="1.0" encoding="utf-8"?>
<!-- Generator: Adobe Illustrator 24.0.1, SVG Export Plug-In . SVG Version: 6.00 Build 0)  -->
<svg version="1.1" id="Layer_1" xmlns="http://www.w3.org/2000/svg" xmlns:xlink="http://www.w3.org/1999/xlink" x="0px" y="0px"
	 width="16px" height="16px" viewBox="0 0 16 16" enable-background="new 0 0 16 16" xml:space="preserve">
<path id="path-1_1_" fill-rule="evenodd" clip-rule="evenodd" fill="#181C56" d="M8.4893694,2.3174229
	c1.4136992-1.4136992,3.7795086-1.4136992,5.1932077,0c1.3665762,1.3665762,1.4121284,3.6228456,0.1366577,5.0487347
	l-0.1366577,0.1444731l-1.9794092,1.9794092l-0.8728447-0.8728456l1.9794092-1.9794087
	c0.9316397-0.9316401,0.9316397-2.5158772,0-3.4475174c-0.8928223-0.892822-2.3849907-0.930023-3.3277588-0.1116028
	L9.3622141,3.190268L7.3828053,5.1696773L6.5099602,4.2968321L8.4893694,2.3174229z M4.2968321,6.5099602l0.8728452,0.8728452
	L3.190268,9.3622141c-0.9316404,0.9316406-0.9316404,2.5158777,0,3.4475183
	c0.8928218,0.8928213,2.3849902,0.9300222,3.3277578,0.1116018l0.1197596-0.1116018l1.9794087-1.9794092l0.8728456,0.8728447
	l-1.9794092,1.9794092c-1.4136996,1.4136992-3.7795084,1.4136992-5.1932077,0
	c-1.366576-1.3665762-1.4121284-3.6228456-0.1366575-5.0487347l0.1366575-0.1444731L4.2968321,6.5099602z M9.4151611,5.7119937
	l0.8728456,0.8728447l-3.7031684,3.7031684L5.7119937,9.4151611L9.4151611,5.7119937z M12.1095037,11.3619909l0.5520353-1.1040716
	L15,11.4271498l-0.5520353,1.1040716L12.1095037,11.3619909z M10.2579193,12.6615391l1.1040716-0.5520353l1.1692305,2.3384609
	L11.4271498,15L10.2579193,12.6615391z M3.4687786,1.5520357L4.5728498,1l1.1692305,2.3384607L4.6380091,3.8904963
	L3.4687786,1.5520357z M1.5520357,3.4687786l2.3384604,1.1692305L3.3384607,5.7420802L1,4.5728498L1.5520357,3.4687786z"/>
</svg>
