<?xml version="1.0" encoding="utf-8"?>
<!-- Generator: Adobe Illustrator 24.0.1, SVG Export Plug-In . SVG Version: 6.00 Build 0)  -->
<svg version="1.1" id="Layer_1" xmlns="http://www.w3.org/2000/svg" xmlns:xlink="http://www.w3.org/1999/xlink" x="0px" y="0px"
	 width="16px" height="16px" viewBox="0 0 16 16" enable-background="new 0 0 16 16" xml:space="preserve">
<path id="path-1_1_" fill-rule="evenodd" clip-rule="evenodd" fill="#181C56" d="M5.5348415,5.2670221L1.7326478,5.2671332
	L1.6282897,5.2741008C1.054332,5.3520174,0.7838663,6.0654602,1.2049607,6.5044732l2.85183,2.9742093l-1.1660724,4.6076508
	l-0.0189152,0.1031923c-0.0654168,0.5772247,0.5636637,1.0145493,1.0925539,0.7100363l4.0345984-2.3237619l4.0366874,2.3237619
	l0.0942125,0.0461597c0.5379267,0.2193203,1.1292982-0.2677889,0.9794264-0.8593884l-1.1671171-4.6076508l2.8528748-2.9742093
	l0.0672112-0.0801363c0.3410769-0.4681506,0.013422-1.1572037-0.5948982-1.1572037l-3.8032379-0.0001111L8.6620636,1.4208488
	c-0.263031-0.5611318-1.0610967-0.5611318-1.3241272,0L5.5348415,5.2670221z"/>
</svg>
