<?xml version="1.0" encoding="utf-8"?>
<!-- Generator: Adobe Illustrator 24.0.1, SVG Export Plug-In . SVG Version: 6.00 Build 0)  -->
<svg version="1.1" id="Layer_1" xmlns="http://www.w3.org/2000/svg" xmlns:xlink="http://www.w3.org/1999/xlink" x="0px" y="0px"
	 width="16px" height="16px" viewBox="0 0 16 16" enable-background="new 0 0 16 16" xml:space="preserve">
<path id="path-1_1_" fill-rule="evenodd" clip-rule="evenodd" fill="#181C56" d="M5.5348415,5.2670221L1.7326478,5.2671332
	L1.6282897,5.2741008C1.054332,5.3520174,0.7838663,6.0654602,1.2049607,6.5044732l2.85183,2.9742093l-1.1660724,4.6076508
	l-0.0189152,0.1031923c-0.0654168,0.5772247,0.5636637,1.0145493,1.0925539,0.7100363l4.0345984-2.3237619l4.0366874,2.3237619
	l0.0942125,0.0461597c0.5379267,0.2193203,1.1292982-0.2677889,0.9794264-0.8593884l-1.1671171-4.6076508l2.8528748-2.9742093
	l0.0672112-0.0801363c0.3410769-0.4681506,0.013422-1.1572037-0.5948982-1.1572037l-3.8032379-0.0001111L8.6620636,1.4208488
	c-0.263031-0.5611318-1.0610967-0.5611318-1.3241272,0L5.5348415,5.2670221z M7.9989552,3.4526238l1.3392005,2.8560429
	L9.389533,6.400485C9.5234499,6.60393,9.752039,6.7295156,10.0002184,6.7295156l2.5509233-0.0001111l-1.9451523,2.0297956
	l-0.0682602,0.082468c-0.1232395,0.1733131-0.165947,0.3936634-0.1128531,0.6032429l0.8425035,3.324132l-2.9025412-1.6704245
	l-0.0996799-0.0477676c-0.2045269-0.0796118-0.4364147-0.0636892-0.6299968,0.0477676L4.731576,12.769043l0.8435483-3.324132
	l0.0186338-0.1054192c0.021584-0.2115641-0.0500879-0.4242649-0.1997471-0.5802917L3.4478133,6.7294044l2.5519679,0.0001111
	c0.2836337,0,0.5416799-0.1640301,0.6620636-0.4208488L7.9989552,3.4526238z"/>
</svg>
