<svg width="16" height="16" viewBox="0 0 16 16" fill="none" xmlns="http://www.w3.org/2000/svg">
<g clip-path="url(#clip0_4730_1341)">
<path d="M16 0H0V16H16V0Z" fill="#FFD520"/>
<path d="M12.0839 9.16772C13.4625 9.02572 14.775 10.0515 14.9698 11.4204C15.3549 14.1277 11.9421 15.6124 10.2448 13.4952C9.02277 11.9709 9.80614 9.73301 11.6594 9.23488L11.2497 6.88427L5.96808 10.4418L5.96907 10.4743C6.07688 10.6574 6.16758 10.8596 6.22755 11.0638C6.90263 13.3607 4.44669 15.3269 2.35307 14.1497C0.773685 13.2618 0.526356 11.0579 1.87849 9.84205C3.00163 8.83217 4.73268 8.96004 5.70861 10.1003L5.72472 10.1013L11.5449 6.15814L12.0836 9.16747H12.0839V9.16772ZM3.54114 10.1422C1.89732 10.2641 1.3925 12.4675 2.82245 13.2876C4.2457 14.1039 5.89522 12.5954 5.20726 11.131C5.19462 11.1042 5.16018 11.0138 5.1287 11.017L3.82713 11.8807C3.60805 12.0179 3.38848 11.7572 3.5518 11.56L4.89129 10.6596C4.53491 10.301 4.05042 10.1042 3.54114 10.1422ZM11.84 10.2133C10.561 10.5947 10.2143 12.266 11.2497 13.1262C12.1315 13.8588 13.4861 13.5074 13.8995 12.4454C14.3443 11.3022 13.4757 10.1018 12.2641 10.1375L12.5382 11.7491C12.5134 11.9944 12.1902 12.0246 12.1196 11.7877L11.8403 10.2133H11.84Z" fill="black"/>
<path d="M11.5677 1.49782L7.02356 8.28151C7.00498 8.30803 6.98168 8.33033 6.95764 8.3519C6.93212 8.3747 6.70238 8.54247 6.68528 8.54892C6.65653 8.55957 6.66 8.53429 6.6657 8.51422L8.63095 3.93418H7.75291L8.96403 1.49807H11.5679L11.5677 1.49782Z" fill="black"/>
</g>
<defs>
<clipPath id="clip0_4730_1341">
<rect width="16" height="16" fill="white"/>
</clipPath>
</defs>
</svg>
