<?xml version="1.0" encoding="UTF-8"?>
<svg xmlns="http://www.w3.org/2000/svg" width="76" height="76" fill="none">
    <path fill="#BC00CC"
        d="M43.975 13.927c.25.348.348.495.45.633 3.344 4.02 4.158 8.598 2.722 13.53-3.03 10.392-15.163 10.23-19.761 4.995-2.24-2.554-3.26-5.535-3.412-8.873-.274-6.28 3.47-13.858 12.932-13.589 5.75.162 11.5.05 17.25.01a4.5 4.5 0 0 0 1.981-.476c3.589-1.867 5.667-4.931 6.736-8.745.049-.176.005-.382.005-.603-.196-.02-.334-.049-.47-.049-9.31 0-18.614-.191-27.919.054-8.314.216-14.745 4.02-18.75 11.442-2.584 4.789-3.202 9.96-2.427 15.314.843 5.77 3.353 10.662 7.976 14.324 4.186 3.31 9.059 4.579 14.314 4.73 1.657.05 3.353.221 4.941.653 2.942.799 5.324 2.431 6.447 5.436 1.598 4.29-.245 9.153-4.432 11.172-4.667 2.26-9.373 2.103-13.893-.53-2.2-1.288-3.617-3.22-4.24-5.71l-.21-.873c-3.712.397-7.359.794-11.08 1.192.893 6.892 4.339 11.863 10.339 15.04 5.476 2.892 11.334 3.421 17.368 2.558 3.564-.514 6.908-1.69 9.859-3.78 5.892-4.156 8.27-10.005 8.059-17.059-.128-4.21-1.431-7.937-4.608-10.834-.961-.877-2.044-1.622-3.069-2.431.054-.064.088-.133.137-.177 7.555-6.48 9.241-17.745 6.01-26.359-.27-.72-.612-1.014-1.416-.995-2.304.059-4.603.02-6.898.02-1.563-.02-3.152-.02-4.941-.02" />
</svg>
