<?xml version="1.0" encoding="utf-8"?>
<!-- Generator: Adobe Illustrator 25.2.0, SVG Export Plug-In . SVG Version: 6.00 Build 0)  -->
<svg version="1.1" id="Layer_1" xmlns="http://www.w3.org/2000/svg" xmlns:xlink="http://www.w3.org/1999/xlink" x="0px" y="0px"
	 viewBox="0 0 16 16" enable-background="new 0 0 16 16" xml:space="preserve">
<g>
	<path fill="#00DD00" d="M7.9999766,1.7939694c3.4220595,0,6.2061009,2.7840178,6.2061009,6.2060308
		s-2.7840414,6.2060308-6.2061009,6.2060308c-3.4220128,0-6.2060542-2.7840185-6.2060542-6.2060308
		S4.5779638,1.7939694,7.9999766,1.7939694 M7.9999781,1.0000222C4.1340079,1.0000222,1,4.1340079,1,8
		s3.1340079,6.9999781,6.9999781,6.9999781C11.8659916,14.9999781,15,11.8659916,15,8S11.8659916,1.0000222,7.9999781,1.0000222
		L7.9999781,1.0000222z"/>
	<circle fill="#00DD00" cx="8" cy="8" r="0.9055508"/>
	<g>
		<path fill="#00DD00" d="M9.5334835,6.6577439l2.1725283-1.2543111c0.4285021-0.2473955,0.5098934-0.832819,0.16399-1.1866117
			c-0.6814222-0.6969643-1.5495644-1.2105632-2.5235586-1.4599349c-0.4814444-0.1232643-0.950758,0.2369704-0.950758,0.7339442
			v2.510005C8.3956852,6.5847545,9.0277958,6.9497032,9.5334835,6.6577439z"/>
		<path fill="#00DD00" d="M7.6043139,6.000834V3.4908304c0-0.4969738-0.4693141-0.8572085-0.9507585-0.7339442
			c-0.9739938,0.249372-1.842135,0.7629707-2.5235567,1.4599349c-0.3459032,0.3537931-0.2645121,0.9392161,0.16399,1.1866117
			L6.4665151,6.657742C6.9722033,6.9497018,7.6043139,6.5847526,7.6043139,6.000834z"/>
		<path fill="#00DD00" d="M9.9291697,8.6569061l2.1738625,1.2550812c0.4283466,0.2473059,0.976223,0.0254736,1.1095037-0.4508429
			C13.3425913,8.996357,13.4121561,8.5063095,13.4121561,8s-0.0695648-0.9963589-0.1996212-1.4611473
			c-0.1332808-0.4763165-0.6811562-0.6981487-1.1095037-0.4508424L9.9291697,7.3430901
			C9.4234819,7.6350493,9.423481,8.3649473,9.9291697,8.6569061z"/>
		<path fill="#00DD00" d="M6.4665151,9.3422556l-2.1725278,1.2543097c-0.4285021,0.2473955-0.5098932,0.832819-0.16399,1.1866121
			c0.6814227,0.6969643,1.5495634,1.2105637,2.5235577,1.4599361c0.4814448,0.1232643,0.9507589-0.2369699,0.9507589-0.7339439
			v-2.510006C7.6043139,9.4152451,6.9722033,9.0502958,6.4665151,9.3422556z"/>
		<path fill="#00DD00" d="M6.0708303,7.3430901l-2.173862-1.2550793c-0.4283471-0.2473063-0.9762232-0.0254741-1.109504,0.4508429
			C2.6574094,7.0036421,2.5878448,7.4936905,2.5878448,8s0.0695646,0.996357,0.1996195,1.4611444
			c0.1332808,0.4763165,0.6811569,0.6981487,1.109504,0.4508429l2.1738625-1.2550802
			C6.576519,8.3649473,6.576519,7.6350493,6.0708303,7.3430901z"/>
		<path fill="#00DD00" d="M8.3956852,9.9991627v2.5100069c0,0.496974,0.4693136,0.8572083,0.950758,0.7339439
			c0.9739952-0.2493715,1.8421373-0.7629719,2.5235596-1.4599361c0.3459034-0.3537931,0.264513-0.9392166-0.1639891-1.1866121
			L9.5334835,9.3422537C9.0277958,9.0502949,8.3956852,9.4152441,8.3956852,9.9991627z"/>
	</g>
</g>
</svg>
