<?xml version="1.0" encoding="utf-8"?>
<!-- Generator: Adobe Illustrator 25.2.0, SVG Export Plug-In . SVG Version: 6.00 Build 0)  -->
<svg version="1.1"
	 id="logo" xmlns:cc="http://creativecommons.org/ns#" xmlns:dc="http://purl.org/dc/elements/1.1/" xmlns:rdf="http://www.w3.org/1999/02/22-rdf-syntax-ns#" xmlns:svg="http://www.w3.org/2000/svg"
	 xmlns="http://www.w3.org/2000/svg" xmlns:xlink="http://www.w3.org/1999/xlink" x="0px" y="0px" viewBox="0 0 16 16"
	 enable-background="new 0 0 16 16" xml:space="preserve">
<g id="g4534" transform="matrix(1.6355685,0,0,1.6355685,-92.815328,545.08596)">
	<path id="path5081-5-9-5-8-6" fill="#5BD6FF" d="M59.6829872-326.4125061c0.1605453,0,0.2908745-0.1307068,0.2904625-0.2913513
		c0-0.160553-0.1304512-0.2907104-0.291172-0.2904663c-0.1606598,0-0.2906151,0.1304626-0.2905006,0.2914734
		C59.3919258-326.5424805,59.5225983-326.4120483,59.6829872-326.4125061z"/>
	<path id="path5083-3-7-9-5-1" fill="#5BD6FF" d="M63.8278809-329.1767273
		c-0.1230698,0.0001221-0.2222939,0.0994873-0.2221794,0.2224426c0.0001297,0.1228333,0.0995941,0.22229,0.2225494,0.2218933
		c0.1229172,0,0.2220497-0.0996704,0.2218895-0.2224121C64.0501404-329.0777283,63.95047-329.1768799,63.8278809-329.1767273
		L63.8278809-329.1767273z"/>
	<path id="path5085-3-1-7-2-2" fill="#5BD6FF" d="M61.6393394-332.6586914c-2.3599281,0-4.2798576,1.9199219-4.2798576,4.2798462
		s1.9199295,4.2798462,4.2798576,4.2798462c2.3599167,0,4.2798576-1.9199219,4.2798576-4.2798462
		C65.9191895-330.7387695,63.9992561-332.6586914,61.6393394-332.6586914z M63.9622383-327.3742981
		c-0.1441879,0.0002747-0.2609596,0.1174316-0.2609596,0.2614746c0,0.0316772,0.0012283,0.0358887,0.0012283,0.0358887
		c0.0084114,0.0290833-0.0017624,0.0718384-0.0224953,0.094574l-0.3851547,0.4239502
		c-0.0204773,0.0223389-0.0439796,0.0171509-0.0525551-0.0125427l-0.4218674-1.4725342
		c-0.0081215-0.0297241,0.0007057-0.0729675,0.0203781-0.0965881c0,0,0.1147194-0.1370239,0.1146049-0.2610779
		c-0.0002632-0.211792-0.1724548-0.3833008-0.3843269-0.3829346c-0.2115631,0.0002747-0.3834267,0.1720886-0.3830223,0.3840332
		c0.0001297,0.2116394,0.1725426,0.3833618,0.3840294,0.3829651c0.0438423,0,0.0715904-0.0075073,0.0715904-0.0075073
		c0.0296211-0.0074768,0.0603142,0.0101624,0.0680237,0.0395508l0.3651733,1.4032898
		c0.0078583,0.0292053-0.0092316,0.0447083-0.0376167,0.0336914l-0.4697342-0.1815796
		c-0.0282364-0.0107727-0.0647774-0.0411987-0.0804558-0.0672913c0,0-0.1333885-0.2193604-0.2935524-0.2191162
		c-0.181366,0.0002136-0.3277855,0.1471252-0.3275299,0.3281555c0.000267,0.1812744,0.1468697,0.3279419,0.3284187,0.327179
		c0.1375198,0,0.2684517-0.1621094,0.2684517-0.1621094c0.0191841-0.0233154,0.0563927-0.0302124,0.083065-0.0144958
		l0.3843575,0.2257385c0.0260429,0.0154724,0.0373306,0.0511169,0.0246964,0.0788574l-0.7482834,1.6534729
		c-0.1273727,0.0189514-0.2567863,0.0315857-0.3879166,0.0377197l-0.9425507-1.6366272
		c-0.0152245-0.0265808-0.0284882-0.0731812-0.0300941-0.1034546l-0.1286812-2.8808289
		c-0.0011101-0.030365,0.0209618-0.0645142,0.0492363-0.0759277l0.5506744-0.2194824
		c0.0288696-0.0111389,0.0695457-0.0024414,0.0906639,0.0193176c0,0,0.2309074,0.2364197,0.4333115,0.2359009
		c0.2992783-0.0003967,0.5418053-0.2431641,0.5413666-0.5426025c-0.0003967-0.2991638-0.2434235-0.5411987-0.5427475-0.5408325
		c-0.2988472,0.0003357-0.5412521,0.2431641-0.54076,0.5422363c0,0.0403748,0.0040512,0.0629578,0.0040512,0.0629578
		c0.0050278,0.0302124-0.0152283,0.0609131-0.0447044,0.0680542l-0.5548782,0.133606
		c-0.0302048,0.0072937-0.0464096-0.0108032-0.036953-0.0395203l0.4382973-1.3094788
		c0.0097275-0.0288391,0.0216141-0.0521851,0.026413-0.0519104c0,0,0,0,0.0044289-0.0001526
		c0.2251282-0.0003967,0.4071274-0.1828918,0.4067574-0.4078979c-0.0002022-0.2247314-0.1827431-0.4070129-0.4077606-0.4066467
		c-0.2249794,0.0002747-0.4068184,0.1828613-0.4066429,0.4076538c0.000267,0.1702271,0.2094116,0.341156,0.2094116,0.341156
		c0.0235748,0.0193481,0.0331879,0.0582275,0.0205345,0.085968l-0.4738083,1.0628662
		c-0.0120316,0.0281372-0.047081,0.0450745-0.0769157,0.0377808l-0.7048454-0.166626
		c-0.0293083-0.006958-0.068718-0.0329285-0.0871544-0.0575867c0,0-0.1267586-0.1687012-0.2649117-0.1687012
		c-0.1739082,0.0001831-0.3148155,0.141449-0.3144073,0.3153381c0.0002594,0.173645,0.1413536,0.3146667,0.3151169,0.3141174
		c0.1470146-0.0001221,0.2736626-0.1911926,0.2736626-0.1911926c0.0170555-0.0255432,0.0543747-0.0377808,0.0834007-0.0283203
		l0.6456223,0.218811c0.028862,0.0097961,0.053669,0.0429382,0.0550079,0.0734558l0.1475067,3.1652527
		c0.0009613,0.0309753,0.0111618,0.0793762,0.0218658,0.1076355l0.5975456,1.6116638
		c-1.904068-0.2281189-3.3804016-1.8478088-3.3804016-3.8132935c0-2.1218567,1.7200737-3.8419189,3.8418922-3.8419189
		c2.1218109,0,3.8418808,1.7200623,3.8418808,3.8419189c0,1.6647034-1.0589905,3.0817261-2.5398941,3.6151733l0.2399406-1.405426
		c0.0052872-0.0299988,0.0264015-0.0729675,0.0468826-0.0955811l0.5478859-0.5928345
		c0.0210037-0.0220947,0.0603104-0.0297546,0.0876045-0.0158386c0,0,0.0441818,0.0216064,0.0995712,0.0216064
		c0.1439247-0.0002136,0.2609901-0.1174011,0.2606163-0.2615662
		C64.2238235-327.2574768,64.1064301-327.3745422,63.9622383-327.3742981L63.9622383-327.3742981z"/>
</g>
</svg>
