<svg width="16" height="16" viewBox="0 0 16 16" fill="none" xmlns="http://www.w3.org/2000/svg">
<g clip-path="url(#clip0_113_1631)">
<path d="M5.98588 5.37869C6.31429 5.37868 6.63949 5.44059 6.9429 5.56089C7.24632 5.68118 7.52202 5.85751 7.75425 6.0798C7.98648 6.30209 8.17069 6.56598 8.29638 6.85642C8.42207 7.14686 8.48677 7.45815 8.48678 7.77253C8.4868 8.0869 8.42213 8.3982 8.29646 8.68865C8.1708 8.9791 7.9866 9.24301 7.75438 9.46532C7.52216 9.68762 7.24648 9.86397 6.94306 9.98428C6.63965 10.1046 6.31445 10.1665 5.98603 10.1665C5.65762 10.1665 5.33242 10.1046 5.02901 9.98431C4.72559 9.86402 4.44989 9.68769 4.21766 9.4654C3.98543 9.24312 3.80122 8.97922 3.67553 8.68878C3.54984 8.39834 3.48515 8.08705 3.48513 7.77267C3.48592 7.13802 3.74965 6.52958 4.21846 6.08081C4.68727 5.63205 5.32288 5.3796 5.98588 5.37884M5.98588 3.0004C4.66355 3.00042 3.39538 3.50326 2.46035 4.39832C1.52532 5.29337 1.00002 6.50733 1 7.77313C1 8.39989 1.12896 9.02052 1.37953 9.59957C1.63009 10.1786 1.99735 10.7048 2.46033 11.148C2.92331 11.5911 3.47295 11.9427 4.07786 12.1826C4.68278 12.4224 5.33112 12.5459 5.98588 12.5459C6.64063 12.5459 7.28898 12.4224 7.89389 12.1826C8.4988 11.9427 9.04844 11.5911 9.51142 11.148C9.97441 10.7048 10.3417 10.1786 10.5922 9.59957C10.8428 9.02052 10.9718 8.39989 10.9718 7.77313C10.9718 7.14637 10.8428 6.52574 10.5922 5.94669C10.3417 5.36764 9.9744 4.84151 9.51142 4.39832C9.04844 3.95514 8.4988 3.60359 7.89388 3.36375C7.28897 3.1239 6.64063 3.00046 5.98588 3.00047V3.0004Z" fill="#082C2A"/>
<path d="M13.4739 9.72873H13.5288C13.919 9.72875 14.2932 9.87714 14.5691 10.1413C14.845 10.4054 15 10.7636 15 11.1371C15 11.5106 14.845 11.8688 14.5691 12.133C14.2932 12.3971 13.9189 12.5455 13.5287 12.5455H13.4738C13.0836 12.5455 12.7094 12.3971 12.4335 12.1329C12.1576 11.8688 12.0026 11.5106 12.0026 11.1371C12.0026 10.7636 12.1576 10.4054 12.4336 10.1412C12.7095 9.87711 13.0837 9.72873 13.4739 9.72873Z" fill="#082C2A"/>
</g>
<defs>
<clipPath id="clip0_113_1631">
<rect width="14" height="9.54545" fill="white" transform="translate(1 3)"/>
</clipPath>
</defs>
</svg>
