<svg width="16" height="16" viewBox="0 0 16 16" fill="none" xmlns="http://www.w3.org/2000/svg">
<path d="M9.05655 9.66102C8.95835 10.1089 8.75115 10.5326 8.43493 10.9323C8.08802 11.3562 7.68961 11.6481 7.2397 11.8079C6.86468 11.9362 6.20312 12.0002 5.25503 12H1L1.31289 10.5726H5.1732C5.78344 10.5726 6.23049 10.5027 6.51434 10.363C6.7982 10.2232 6.97822 9.98129 7.05441 9.63718C7.19809 8.98163 6.78322 8.65385 5.8098 8.65385H4.24786C3.26574 8.65385 2.59744 8.47787 2.24295 8.1259C1.80616 7.68624 1.67015 7.09051 1.83492 6.33872C1.94587 5.83513 2.19551 5.37137 2.58385 4.94743C2.97218 4.5235 3.4306 4.2476 3.95911 4.11974C4.28142 4.04009 4.84044 4.00017 5.63615 4H15L14.6874 5.42718H5.72103C5.17792 5.42718 4.79513 5.4512 4.57267 5.49923C4.17121 5.58657 3.92157 5.85443 3.82374 6.30282C3.74867 6.64675 3.81061 6.88667 4.00959 7.02257C4.20856 7.15846 4.5969 7.22641 5.17459 7.22641H6.53515C7.69738 7.22641 8.45509 7.44633 8.80829 7.88616C9.14318 8.29367 9.22593 8.88529 9.05655 9.66102Z" fill="#40EADF"/>
</svg>
