<?xml version="1.0" encoding="utf-8"?>
<!-- Generator: Adobe Illustrator 25.2.0, SVG Export Plug-In . SVG Version: 6.00 Build 0)  -->
<svg version="1.1" id="Layer_1" xmlns="http://www.w3.org/2000/svg" xmlns:xlink="http://www.w3.org/1999/xlink" x="0px" y="0px"
	 viewBox="0 0 16 16" enable-background="new 0 0 16 16" xml:space="preserve">
<path fill="#69D2AA" d="M1.3425992,3.5050831h13.3148136c0.1773596-0.0114787,0.3304434,0.1229937,0.3419209,0.3003523
	c0.0008955,0.0138419,0.0008955,0.0277274,0,0.0415692v1.1263282c0.0003471,0.1777301-0.1434498,0.3220897-0.3211794,0.3224368
	c-0.006918,0.0000134-0.0138359-0.000196-0.0207415-0.0006289H9.0056572v6.8786502
	c-0.0106611,0.1809416-0.1606665,0.3221235-0.3419218,0.3218079H7.336277
	c-0.1812544,0.0003157-0.3312597-0.1408663-0.3419213-0.3218079V5.2951417H1.3425992
	c-0.1773822,0.0111084-0.3301842-0.123683-0.3412926-0.3010654c-0.0004326-0.006906-0.0006419-0.013823-0.0006286-0.0207424
	V3.8470049c-0.0114792-0.1773586,0.1229925-0.330442,0.3003511-0.3419211
	C1.3148713,3.5041878,1.328757,3.5041878,1.3425992,3.5050831z"/>
</svg>
