<?xml version="1.0" encoding="utf-8"?>
<!-- Generator: Adobe Illustrator 25.2.0, SVG Export Plug-In . SVG Version: 6.00 Build 0)  -->
<svg version="1.1" id="Layer_1" xmlns="http://www.w3.org/2000/svg" xmlns:xlink="http://www.w3.org/1999/xlink" x="0px" y="0px"
	 viewBox="0 0 16 16" enable-background="new 0 0 16 16" xml:space="preserve">
<path fill="#E02344" d="M11.8164072,12.9316187c-1.7582493,0-3.1835909-1.4253435-3.1835909-3.1835928
	s1.4253426-3.1835918,3.1835918-3.1835918C13.5746574,6.5644345,15,7.9897771,15,9.7480259
	C14.9975433,11.5052567,13.5736389,12.9291611,11.8164072,12.9316187z M11.8164072,8.0374727
	c-0.9447117,0-1.7105532,0.7658405-1.7105532,1.7105532c0,0.9447136,0.7658405,1.7105541,1.7105532,1.7105541
	s1.7105532-0.7658405,1.7105532-1.7105541l0,0C13.5263453,8.8035688,12.7608643,8.0380878,11.8164072,8.0374727z
	 M4.1835918,12.9316187C2.4253428,12.9316187,1,11.5062752,1,9.7480259s1.4253426-3.1835918,3.1835918-3.1835918
	s3.1835923,1.4253426,3.1835923,3.1835918l0,0C7.364727,11.5052567,5.9408226,12.9291611,4.1835918,12.9316187z
	 M4.1835918,8.0374727c-0.9447124,0-1.7105534,0.7658405-1.7105534,1.7105532c0,0.9447136,0.765841,1.7105541,1.7105534,1.7105541
	s1.7105536-0.7658405,1.7105536-1.7105541C5.8935304,8.8035688,5.1280499,8.0380878,4.1835918,8.0374727z M6.5509357,5.7325745
	H3.9862204c-0.4070761,0-0.7370768-0.3300009-0.7370768-0.7370768c0-0.4070764,0.3300006-0.7370772,0.7370768-0.7370772h2.5647154
	c0.4070759,0,0.7370768,0.3300009,0.7370768,0.7370772C7.2880125,5.4025736,6.9580121,5.7325745,6.5509357,5.7325745z
	 M11.0358419,4.9386277c-0.7555208,0.0006685-1.503418-0.1510348-2.1989641-0.4460373
	C8.4624405,4.3327775,8.2884541,3.8996828,8.448267,3.5252464c0.1598139-0.3744361,0.5929079-0.5484228,0.9673443-0.3886099
	C9.928215,3.3535402,10.4792366,3.465034,11.0358419,3.464474c0.5638266,0.001188,1.1219702-0.1126416,1.6403027-0.334528
	c0.3744364-0.1628921,0.8100271,0.0085981,0.9729185,0.3830345c0.1628923,0.3744364-0.0085974,0.8100271-0.3830338,0.972919
	C12.5611906,4.7870111,11.8023014,4.9410658,11.0358419,4.9386277z"/>
</svg>
