<?xml version="1.0" encoding="utf-8"?>
<!-- Generator: Adobe Illustrator 25.2.0, SVG Export Plug-In . SVG Version: 6.00 Build 0)  -->
<svg version="1.1" id="Layer_1" xmlns="http://www.w3.org/2000/svg" xmlns:xlink="http://www.w3.org/1999/xlink" x="0px" y="0px"
	 viewBox="0 0 16 16" enable-background="new 0 0 16 16" xml:space="preserve">
<g id="Coral_Logo">
	<path id="voi_plain_coral" fill="#F46C63" d="M11.7022724,3.2390795l-3.9567766,9.3782244H4.9389811L0.9992,3.2390795h2.8065147
		l2.6010277,6.380127l2.6805968-6.380127H11.7022724z M13.3083115,12.7563543
		c-0.4510527,0.010643-0.8864107-0.1657934-1.2027922-0.4874516c-0.3244629-0.3218737-0.5011978-0.763711-0.488224-1.2205591
		c0-0.4995546,0.1627417-0.9033175,0.488224-1.2112894c0.6834459-0.6162891,1.7221384-0.6162891,2.4055834,0
		c0.3254843,0.3090019,0.4879675,0.7127647,0.4874516,1.2112894c0.0127583,0.456583-0.1639605,0.898098-0.488224,1.2197866
		c-0.3160658,0.321744-0.7511196,0.4984493-1.2020197,0.488224H13.3083115z"/>
</g>
</svg>
