<?xml version="1.0" encoding="utf-8"?>
<!-- Generator: Adobe Illustrator 25.2.0, SVG Export Plug-In . SVG Version: 6.00 Build 0)  -->
<svg version="1.1" id="Layer_1" xmlns="http://www.w3.org/2000/svg" xmlns:xlink="http://www.w3.org/1999/xlink" x="0px" y="0px"
	 viewBox="0 0 16 16" enable-background="new 0 0 16 16" xml:space="preserve">
<g>
	<g>
		<defs>
			<polygon id="SVGID_1_" points="14.7825375,5.2745595 12.0739307,2.9112828 4.0231519,2.9112828 1.0000031,5.5106583 
				7.75488,13.1835709 			"/>
		</defs>
		<clipPath id="SVGID_2_">
			<use xlink:href="#SVGID_1_"  overflow="visible"/>
		</clipPath>
		<g clip-path="url(#SVGID_2_)">
			<polygon fill="#FFD600" points="4.1316166,5.1486406 8.743454,12.7039165 9.213973,12.2465019 4.8987942,5.6456614 			"/>
			<polygon fill="#FFD600" points="12.7313375,7.4480443 8.2290459,2.542459 5.9192348,2.545795 8.4548883,5.6432891 
				8.0230665,5.6432891 5.4757032,2.5402062 4.7301645,2.5439675 5.2542138,5.6432891 9.418767,11.9799652 10.5610609,10.3573046 
							"/>
		</g>
	</g>
</g>
<g>
	<polygon fill="#009D48" points="4.6007986,5.6461067 4.8987942,5.6456614 5.2542138,5.6432891 7.7105966,5.6432891 
		5.192132,2.580328 3.9627607,2.580328 1,5.5106587 7.9723415,13.419672 8.9613724,12.3066034 	"/>
	<polygon fill="#009D48" points="12.2315063,7.4480443 8.589798,7.4480443 10.5767193,10.488677 15,5.5106587 12.0135412,2.580328 
		8.2599373,2.580328 	"/>
</g>
</svg>
