<?xml version="1.0" encoding="utf-8"?>
<!-- Generator: Adobe Illustrator 24.0.1, SVG Export Plug-In . SVG Version: 6.00 Build 0)  -->
<svg version="1.1" id="Layer_1" xmlns="http://www.w3.org/2000/svg" xmlns:xlink="http://www.w3.org/1999/xlink" x="0px" y="0px"
	 width="16px" height="16px" viewBox="0 0 16 16" enable-background="new 0 0 16 16" xml:space="preserve">
<path id="path-1_1_" fill-rule="evenodd" clip-rule="evenodd" fill="#181C56" d="M2.75,6.25C3.7164984,6.25,4.5,7.0335016,4.5,8
	S3.7164984,9.75,2.75,9.75S1,8.9664984,1,8S1.7835017,6.25,2.75,6.25z M8,6.25c0.9664984,0,1.75,0.7835016,1.75,1.75
	S8.9664984,9.75,8,9.75S6.25,8.9664984,6.25,8S7.0335016,6.25,8,6.25z M13.25,6.25C14.2164984,6.25,15,7.0335016,15,8
	s-0.7835016,1.75-1.75,1.75S11.5,8.9664984,11.5,8S12.2835016,6.25,13.25,6.25z"/>
</svg>
