<?xml version="1.0" encoding="utf-8"?>
<!-- Generator: Adobe Illustrator 24.0.1, SVG Export Plug-In . SVG Version: 6.00 Build 0)  -->
<svg version="1.1" id="Layer_1" xmlns="http://www.w3.org/2000/svg" xmlns:xlink="http://www.w3.org/1999/xlink" x="0px" y="0px"
	 width="16px" height="16px" viewBox="0 0 16 16" enable-background="new 0 0 16 16" xml:space="preserve">
<path id="path-1_1_" fill-rule="evenodd" clip-rule="evenodd" fill="#181C56" d="M9.75,2.75C9.75,3.7164984,8.9664984,4.5,8,4.5
	S6.25,3.7164984,6.25,2.75S7.0335016,1,8,1S9.75,1.7835017,9.75,2.75z M9.75,8c0,0.9664984-0.7835016,1.75-1.75,1.75
	S6.25,8.9664984,6.25,8S7.0335016,6.25,8,6.25S9.75,7.0335016,9.75,8z M9.75,13.25C9.75,14.2164984,8.9664984,15,8,15
	s-1.75-0.7835016-1.75-1.75S7.0335016,11.5,8,11.5S9.75,12.2835016,9.75,13.25z"/>
</svg>
