<svg width="16" height="16" viewBox="0 0 16 16" fill="none" xmlns="http://www.w3.org/2000/svg">
<path d="M12.9 15V1H14.1V15H12.9Z" fill="#181C56"/>
<path fill-rule="evenodd" clip-rule="evenodd" d="M4.90002 4C4.90002 3.66863 5.16865 3.4 5.50002 3.4H11.5C11.8314 3.4 12.1 3.66863 12.1 4V7C12.1 7.33137 11.8314 7.6 11.5 7.6H5.50002C5.16865 7.6 4.90002 7.33137 4.90002 7V4ZM6.10002 4.6V6.4H10.9V4.6H6.10002Z" fill="#181C56"/>
<path fill-rule="evenodd" clip-rule="evenodd" d="M2.50002 8.4C2.16865 8.4 1.90002 8.66863 1.90002 9V12C1.90002 12.3314 2.16865 12.6 2.50002 12.6H11.5C11.8314 12.6 12.1 12.3314 12.1 12V9C12.1 8.66863 11.8314 8.4 11.5 8.4H2.50002ZM3.10002 11.4V9.6H10.9V11.4H3.10002Z" fill="#181C56"/>
</svg>
