<svg width="16" height="16" viewBox="0 0 16 16" fill="none" xmlns="http://www.w3.org/2000/svg">
<path d="M1.89999 15V1H3.09999V15H1.89999Z" fill="#181C56"/>
<path d="M4.50002 3.90002C4.16865 3.90002 3.90002 4.16865 3.90002 4.50002V6.50002C3.90002 6.8314 4.16865 7.10002 4.50002 7.10002H10.5C10.8314 7.10002 11.1 6.8314 11.1 6.50002V4.50002C11.1 4.16865 10.8314 3.90002 10.5 3.90002H4.50002Z" fill="#181C56"/>
<path d="M4.50002 8.90002C4.16865 8.90002 3.90002 9.16865 3.90002 9.50002V11.5C3.90002 11.8314 4.16865 12.1 4.50002 12.1H13.5C13.8314 12.1 14.1 11.8314 14.1 11.5V9.50002C14.1 9.16865 13.8314 8.90002 13.5 8.90002H4.50002Z" fill="#181C56"/>
</svg>
