<svg width="16" height="16" viewBox="0 0 16 16" fill="none" xmlns="http://www.w3.org/2000/svg">
<path fill-rule="evenodd" clip-rule="evenodd" d="M8.4 3.50002C8.4 3.16865 8.66863 2.90002 9 2.90002H12C12.3314 2.90002 12.6 3.16865 12.6 3.50002V7.40002H15V8.60002L12.6 8.60002V12.5C12.6 12.8314 12.3314 13.1 12 13.1H9C8.66863 13.1 8.4 12.8314 8.4 12.5V8.60002H7.6V11C7.6 11.3314 7.33137 11.6 7 11.6H4C3.66863 11.6 3.4 11.3314 3.4 11V8.60002H1V7.40002H3.4V5.00002C3.4 4.66865 3.66863 4.40002 4 4.40002H7C7.33137 4.40002 7.6 4.66865 7.6 5.00002V7.40002H8.4V3.50002ZM9.6 4.10002V11.9H11.4V4.10002H9.6ZM4.6 10.4V5.60002H6.4V10.4H4.6Z" fill="#181C56"/>
</svg>
