<svg width="16" height="16" viewBox="0 0 16 16" fill="none" xmlns="http://www.w3.org/2000/svg">
<path fill-rule="evenodd" clip-rule="evenodd" d="M5 3.40002C4.66863 3.40002 4.4 3.66865 4.4 4.00002V4.90002H1V6.10002H4.4V7.00002C4.4 7.3314 4.66863 7.60002 5 7.60002H11C11.3314 7.60002 11.6 7.3314 11.6 7.00002V6.10002H15V4.90002H11.6V4.00002C11.6 3.66865 11.3314 3.40002 11 3.40002H5ZM5.6 6.40002V4.60002H10.4V6.40002H5.6Z" fill="#181C56"/>
<path fill-rule="evenodd" clip-rule="evenodd" d="M3.5 8.40002C3.16863 8.40002 2.9 8.66865 2.9 9.00002V9.90002H1V11.1H2.9V12C2.9 12.3314 3.16863 12.6 3.5 12.6H12.5C12.8314 12.6 13.1 12.3314 13.1 12V11.1L15 11.1V9.90002H13.1V9.00002C13.1 8.66865 12.8314 8.40002 12.5 8.40002H3.5ZM4.1 11.4V9.60002H11.9V11.4H4.1Z" fill="#181C56"/>
</svg>
