<svg width="16" height="16" viewBox="0 0 16 16" fill="none" xmlns="http://www.w3.org/2000/svg">
<path d="M9.50002 2.90002C9.16865 2.90002 8.90002 3.16865 8.90002 3.50002V7.4H7.10002V5.00002C7.10002 4.66865 6.8314 4.40002 6.50002 4.40002H4.50002C4.16865 4.40002 3.90002 4.66865 3.90002 5.00002V7.4H1V8.6H3.90002V11C3.90002 11.3314 4.16865 11.6 4.50002 11.6H6.50002C6.8314 11.6 7.10002 11.3314 7.10002 11V8.6H8.90002V12.5C8.90002 12.8314 9.16865 13.1 9.50002 13.1H11.5C11.8314 13.1 12.1 12.8314 12.1 12.5V8.6H15V7.4H12.1V3.50002C12.1 3.16865 11.8314 2.90002 11.5 2.90002H9.50002Z" fill="#181C56"/>
</svg>
