<svg width="16" height="16" viewBox="0 0 16 16" fill="none" xmlns="http://www.w3.org/2000/svg">
<path fill-rule="evenodd" clip-rule="evenodd" d="M1.90002 15V1H3.10002V15H1.90002ZM3.90002 4C3.90002 3.66863 4.16865 3.4 4.50002 3.4H10.5C10.8314 3.4 11.1 3.66863 11.1 4V7C11.1 7.33137 10.8314 7.6 10.5 7.6H4.50002C4.16865 7.6 3.90002 7.33137 3.90002 7V4ZM5.10002 4.6V6.4H9.90002V4.6H5.10002ZM4.50002 8.4C4.16865 8.4 3.90002 8.66863 3.90002 9V12C3.90002 12.3314 4.16865 12.6 4.50002 12.6H13.5C13.8314 12.6 14.1 12.3314 14.1 12V9C14.1 8.66863 13.8314 8.4 13.5 8.4H4.50002ZM5.10002 11.4V9.6H12.9V11.4H5.10002Z" fill="#181C56"/>
</svg>
