<svg width="16" height="16" viewBox="0 0 16 16" fill="none" xmlns="http://www.w3.org/2000/svg">
<path fill-rule="evenodd" clip-rule="evenodd" d="M11 3.4H8.60002V1H7.40002L7.40002 3.4H5.00002C4.66865 3.4 4.40002 3.66863 4.40002 4V7C4.40002 7.33137 4.66865 7.6 5.00002 7.6H7.40002V8.4H3.50002C3.16865 8.4 2.90002 8.66863 2.90002 9V12C2.90002 12.3314 3.16865 12.6 3.50002 12.6H7.40002L7.40002 15H8.60002V12.6H12.5C12.8314 12.6 13.1 12.3314 13.1 12V9C13.1 8.66863 12.8314 8.4 12.5 8.4H8.60002V7.6H11C11.3314 7.6 11.6 7.33137 11.6 7V4C11.6 3.66863 11.3314 3.4 11 3.4ZM5.60002 4.6V6.4H10.4V4.6H5.60002ZM4.10002 11.4V9.6H11.9V11.4H4.10002Z" fill="#181C56"/>
</svg>
