<svg width="16" height="16" viewBox="0 0 16 16" fill="none" xmlns="http://www.w3.org/2000/svg">
<path d="M4.50002 1.90002C4.16865 1.90002 3.90002 2.16865 3.90002 2.50002V11.5C3.90002 11.8314 4.16865 12.1 4.50002 12.1H6.50002C6.8314 12.1 7.10002 11.8314 7.10002 11.5V2.50002C7.10002 2.16865 6.8314 1.90002 6.50002 1.90002H4.50002Z" fill="#181C56"/>
<path d="M15 14.1H1V12.9H15V14.1Z" fill="#181C56"/>
<path d="M9.50002 4.90002C9.16865 4.90002 8.90002 5.16865 8.90002 5.50002V11.5C8.90002 11.8314 9.16865 12.1 9.50002 12.1H11.5C11.8314 12.1 12.1 11.8314 12.1 11.5V5.50002C12.1 5.16865 11.8314 4.90002 11.5 4.90002H9.50002Z" fill="#181C56"/>
</svg>
