<svg width="16" height="16" viewBox="0 0 16 16" fill="none" xmlns="http://www.w3.org/2000/svg">
<path d="M15 3.10002H1V1.90002H15V3.10002Z" fill="#181C56"/>
<path fill-rule="evenodd" clip-rule="evenodd" d="M3.4 4.50002C3.4 4.16865 3.66863 3.90002 4 3.90002H7C7.33137 3.90002 7.6 4.16865 7.6 4.50002V13.5C7.6 13.8314 7.33137 14.1 7 14.1H4C3.66863 14.1 3.4 13.8314 3.4 13.5V4.50002ZM4.6 5.10002V12.9H6.4V5.10002H4.6Z" fill="#181C56"/>
<path fill-rule="evenodd" clip-rule="evenodd" d="M9 3.90002C8.66863 3.90002 8.4 4.16865 8.4 4.50002V10.5C8.4 10.8314 8.66863 11.1 9 11.1H12C12.3314 11.1 12.6 10.8314 12.6 10.5V4.50002C12.6 4.16865 12.3314 3.90002 12 3.90002H9ZM9.6 9.90002V5.10002H11.4V9.90002H9.6Z" fill="#181C56"/>
</svg>
