<svg width="16" height="16" viewBox="0 0 16 16" fill="none" xmlns="http://www.w3.org/2000/svg">
<path d="M5.50002 3.90002C5.16865 3.90002 4.90002 4.16865 4.90002 4.50002V4.9H1V6.1H4.90002V6.50002C4.90002 6.8314 5.16865 7.10002 5.50002 7.10002H10.5C10.8314 7.10002 11.1 6.8314 11.1 6.50002V6.1H15V4.9H11.1V4.50002C11.1 4.16865 10.8314 3.90002 10.5 3.90002H5.50002Z" fill="#181C56"/>
<path d="M13.1 11.1V11.5C13.1 11.8314 12.8314 12.1 12.5 12.1H3.50002C3.16865 12.1 2.90002 11.8314 2.90002 11.5V11.1H1V9.9H2.90002V9.50002C2.90002 9.16865 3.16865 8.90002 3.50002 8.90002H12.5C12.8314 8.90002 13.1 9.16865 13.1 9.50002V9.9H15V11.1H13.1Z" fill="#181C56"/>
</svg>
