<svg width="16" height="16" viewBox="0 0 16 16" fill="none" xmlns="http://www.w3.org/2000/svg">
<path fill-rule="evenodd" clip-rule="evenodd" d="M3.4 2.50002C3.4 2.16865 3.66863 1.90002 4 1.90002H7C7.33137 1.90002 7.6 2.16865 7.6 2.50002V11.5C7.6 11.8314 7.33137 12.1 7 12.1H4C3.66863 12.1 3.4 11.8314 3.4 11.5V2.50002ZM4.6 3.10002V10.9H6.4V3.10002H4.6Z" fill="#181C56"/>
<path d="M15 14.1H1V12.9H15V14.1Z" fill="#181C56"/>
<path fill-rule="evenodd" clip-rule="evenodd" d="M9 4.90002C8.66863 4.90002 8.4 5.16865 8.4 5.50002V11.5C8.4 11.8314 8.66863 12.1 9 12.1H12C12.3314 12.1 12.6 11.8314 12.6 11.5V5.50002C12.6 5.16865 12.3314 4.90002 12 4.90002H9ZM9.6 10.9V6.10002H11.4V10.9H9.6Z" fill="#181C56"/>
</svg>
