<svg width="16" height="16" viewBox="0 0 16 16" fill="none" xmlns="http://www.w3.org/2000/svg">
<path fill-rule="evenodd" clip-rule="evenodd" d="M4.90002 1V2.9H4.00002C3.66865 2.9 3.40002 3.16863 3.40002 3.5V12.5C3.40002 12.8314 3.66865 13.1 4.00002 13.1H4.90002V15H6.10002V13.1H7.00002C7.3314 13.1 7.60002 12.8314 7.60002 12.5V3.5C7.60002 3.16863 7.3314 2.9 7.00002 2.9H6.10002V1H4.90002ZM4.60002 4.1V11.9H6.40002V4.1H4.60002Z" fill="#181C56"/>
<path fill-rule="evenodd" clip-rule="evenodd" d="M9.90002 4.4L9.90002 1H11.1V4.4H12C12.3314 4.4 12.6 4.66863 12.6 5V11C12.6 11.3314 12.3314 11.6 12 11.6H11.1V15H9.90002L9.90002 11.6H9.00002C8.66865 11.6 8.40002 11.3314 8.40002 11V5C8.40002 4.66863 8.66865 4.4 9.00002 4.4H9.90002ZM9.60002 10.4V5.6H11.4V10.4H9.60002Z" fill="#181C56"/>
</svg>
