<svg width="16" height="16" viewBox="0 0 16 16" fill="none" xmlns="http://www.w3.org/2000/svg">
<path d="M15 3.10002H1V1.90002H15V3.10002Z" fill="#181C56"/>
<path d="M4.50002 3.90005C4.16865 3.90005 3.90002 4.16868 3.90002 4.50005V13.5C3.90002 13.8314 4.16865 14.1 4.50002 14.1H6.50002C6.8314 14.1 7.10002 13.8314 7.10002 13.5V4.50005C7.10002 4.16868 6.8314 3.90005 6.50002 3.90005H4.50002Z" fill="#181C56"/>
<path d="M9.50002 3.90005C9.16865 3.90005 8.90002 4.16868 8.90002 4.50005V10.5C8.90002 10.8314 9.16865 11.1 9.50002 11.1H11.5C11.8314 11.1 12.1 10.8314 12.1 10.5V4.50005C12.1 4.16868 11.8314 3.90005 11.5 3.90005H9.50002Z" fill="#181C56"/>
</svg>
