<svg width="16" height="16" viewBox="0 0 16 16" fill="none" xmlns="http://www.w3.org/2000/svg">
<path fill-rule="evenodd" clip-rule="evenodd" d="M12.9 15V1H14.1V15H12.9ZM5.50002 3.90002C5.16865 3.90002 4.90002 4.16865 4.90002 4.50002V6.50002C4.90002 6.8314 5.16865 7.10002 5.50002 7.10002H11.5C11.8314 7.10002 12.1 6.8314 12.1 6.50002V4.50002C12.1 4.16865 11.8314 3.90002 11.5 3.90002H5.50002ZM2.50002 8.90002C2.16865 8.90002 1.90002 9.16865 1.90002 9.50002V11.5C1.90002 11.8314 2.16865 12.1 2.50002 12.1H11.5C11.8314 12.1 12.1 11.8314 12.1 11.5V9.50002C12.1 9.16865 11.8314 8.90002 11.5 8.90002H2.50002Z" fill="#181C56"/>
</svg>
