<svg width="16" height="16" viewBox="0 0 16 16" fill="none" xmlns="http://www.w3.org/2000/svg">
<path d="M4.9 13.1H4.50002C4.16865 13.1 3.90002 12.8314 3.90002 12.5V3.50002C3.90002 3.16865 4.16865 2.90002 4.50002 2.90002H4.9L4.9 1.5H6.1V2.90002H6.50002C6.8314 2.90002 7.10002 3.16865 7.10002 3.50002V12.5C7.10002 12.8314 6.8314 13.1 6.50002 13.1H6.1L6.1 15H4.9L4.9 13.1Z" fill="#181C56"/>
<path d="M9.9 11.1H9.50002C9.16865 11.1 8.90002 10.8314 8.90002 10.5V5.50002C8.90002 5.16865 9.16865 4.90002 9.50002 4.90002H9.9V1.5H11.1V4.90002H11.5C11.8314 4.90002 12.1 5.16865 12.1 5.50002V10.5C12.1 10.8314 11.8314 11.1 11.5 11.1H11.1V15H9.9V11.1Z" fill="#181C56"/>
</svg>
