<svg width="16" height="16" viewBox="0 0 16 16" fill="none" xmlns="http://www.w3.org/2000/svg">
<path d="M7.4 3.90002H5.00002C4.66865 3.90002 4.40002 4.16865 4.40002 4.50002V6.50002C4.40002 6.8314 4.66865 7.10002 5.00002 7.10002H7.4V8.90002H3.50002C3.16865 8.90002 2.90002 9.16865 2.90002 9.50002V11.5C2.90002 11.8314 3.16865 12.1 3.50002 12.1H7.4V15H8.6V12.1H12.5C12.8314 12.1 13.1 11.8314 13.1 11.5V9.50002C13.1 9.16865 12.8314 8.90002 12.5 8.90002H8.6V7.10002H11C11.3314 7.10002 11.6 6.8314 11.6 6.50002V4.50002C11.6 4.16865 11.3314 3.90002 11 3.90002H8.6V1H7.4V3.90002Z" fill="#181C56"/>
</svg>
